G04 #@! TF.GenerationSoftware,KiCad,Pcbnew,(5.1.4)-1*
G04 #@! TF.CreationDate,2020-07-19T23:59:32-07:00*
G04 #@! TF.ProjectId,Main Board,4d61696e-2042-46f6-9172-642e6b696361,rev?*
G04 #@! TF.SameCoordinates,Original*
G04 #@! TF.FileFunction,Soldermask,Bot*
G04 #@! TF.FilePolarity,Negative*
%FSLAX46Y46*%
G04 Gerber Fmt 4.6, Leading zero omitted, Abs format (unit mm)*
G04 Created by KiCad (PCBNEW (5.1.4)-1) date 2020-07-19 23:59:32*
%MOMM*%
%LPD*%
G04 APERTURE LIST*
%ADD10C,0.100000*%
G04 APERTURE END LIST*
D10*
G36*
X145325993Y-107174203D02*
G01*
X145390411Y-107193744D01*
X145449781Y-107225478D01*
X145501817Y-107268183D01*
X145544522Y-107320219D01*
X145576256Y-107379589D01*
X145595797Y-107444007D01*
X145603000Y-107517140D01*
X145603000Y-108442860D01*
X145595797Y-108515993D01*
X145576256Y-108580411D01*
X145544522Y-108639781D01*
X145501817Y-108691817D01*
X145449781Y-108734522D01*
X145390411Y-108766256D01*
X145325993Y-108785797D01*
X145252860Y-108793000D01*
X144327140Y-108793000D01*
X144254007Y-108785797D01*
X144189589Y-108766256D01*
X144130219Y-108734522D01*
X144078183Y-108691817D01*
X144035478Y-108639781D01*
X144003744Y-108580411D01*
X143984203Y-108515993D01*
X143977000Y-108442860D01*
X143977000Y-107517140D01*
X143984203Y-107444007D01*
X144003744Y-107379589D01*
X144035478Y-107320219D01*
X144078183Y-107268183D01*
X144130219Y-107225478D01*
X144189589Y-107193744D01*
X144254007Y-107174203D01*
X144327140Y-107167000D01*
X145252860Y-107167000D01*
X145325993Y-107174203D01*
X145325993Y-107174203D01*
G37*
G36*
X148675993Y-107174203D02*
G01*
X148740411Y-107193744D01*
X148799781Y-107225478D01*
X148851817Y-107268183D01*
X148894522Y-107320219D01*
X148926256Y-107379589D01*
X148945797Y-107444007D01*
X148953000Y-107517140D01*
X148953000Y-108442860D01*
X148945797Y-108515993D01*
X148926256Y-108580411D01*
X148894522Y-108639781D01*
X148851817Y-108691817D01*
X148799781Y-108734522D01*
X148740411Y-108766256D01*
X148675993Y-108785797D01*
X148602860Y-108793000D01*
X147677140Y-108793000D01*
X147604007Y-108785797D01*
X147539589Y-108766256D01*
X147480219Y-108734522D01*
X147428183Y-108691817D01*
X147385478Y-108639781D01*
X147353744Y-108580411D01*
X147334203Y-108515993D01*
X147327000Y-108442860D01*
X147327000Y-107517140D01*
X147334203Y-107444007D01*
X147353744Y-107379589D01*
X147385478Y-107320219D01*
X147428183Y-107268183D01*
X147480219Y-107225478D01*
X147539589Y-107193744D01*
X147604007Y-107174203D01*
X147677140Y-107167000D01*
X148602860Y-107167000D01*
X148675993Y-107174203D01*
X148675993Y-107174203D01*
G37*
G36*
X134675993Y-107124203D02*
G01*
X134740411Y-107143744D01*
X134799781Y-107175478D01*
X134851817Y-107218183D01*
X134894522Y-107270219D01*
X134926256Y-107329589D01*
X134945797Y-107394007D01*
X134953000Y-107467140D01*
X134953000Y-108392860D01*
X134945797Y-108465993D01*
X134926256Y-108530411D01*
X134894522Y-108589781D01*
X134851817Y-108641817D01*
X134799781Y-108684522D01*
X134740411Y-108716256D01*
X134675993Y-108735797D01*
X134602860Y-108743000D01*
X133677140Y-108743000D01*
X133604007Y-108735797D01*
X133539589Y-108716256D01*
X133480219Y-108684522D01*
X133428183Y-108641817D01*
X133385478Y-108589781D01*
X133353744Y-108530411D01*
X133334203Y-108465993D01*
X133327000Y-108392860D01*
X133327000Y-107467140D01*
X133334203Y-107394007D01*
X133353744Y-107329589D01*
X133385478Y-107270219D01*
X133428183Y-107218183D01*
X133480219Y-107175478D01*
X133539589Y-107143744D01*
X133604007Y-107124203D01*
X133677140Y-107117000D01*
X134602860Y-107117000D01*
X134675993Y-107124203D01*
X134675993Y-107124203D01*
G37*
G36*
X137975993Y-107124203D02*
G01*
X138040411Y-107143744D01*
X138099781Y-107175478D01*
X138151817Y-107218183D01*
X138194522Y-107270219D01*
X138226256Y-107329589D01*
X138245797Y-107394007D01*
X138253000Y-107467140D01*
X138253000Y-108392860D01*
X138245797Y-108465993D01*
X138226256Y-108530411D01*
X138194522Y-108589781D01*
X138151817Y-108641817D01*
X138099781Y-108684522D01*
X138040411Y-108716256D01*
X137975993Y-108735797D01*
X137902860Y-108743000D01*
X136977140Y-108743000D01*
X136904007Y-108735797D01*
X136839589Y-108716256D01*
X136780219Y-108684522D01*
X136728183Y-108641817D01*
X136685478Y-108589781D01*
X136653744Y-108530411D01*
X136634203Y-108465993D01*
X136627000Y-108392860D01*
X136627000Y-107467140D01*
X136634203Y-107394007D01*
X136653744Y-107329589D01*
X136685478Y-107270219D01*
X136728183Y-107218183D01*
X136780219Y-107175478D01*
X136839589Y-107143744D01*
X136904007Y-107124203D01*
X136977140Y-107117000D01*
X137902860Y-107117000D01*
X137975993Y-107124203D01*
X137975993Y-107124203D01*
G37*
G36*
X162439487Y-103148996D02*
G01*
X162676253Y-103247068D01*
X162676255Y-103247069D01*
X162889339Y-103389447D01*
X163070553Y-103570661D01*
X163212932Y-103783747D01*
X163311004Y-104020513D01*
X163361000Y-104271861D01*
X163361000Y-104528139D01*
X163311004Y-104779487D01*
X163212932Y-105016253D01*
X163212931Y-105016255D01*
X163070553Y-105229339D01*
X162889339Y-105410553D01*
X162676255Y-105552931D01*
X162676254Y-105552932D01*
X162676253Y-105552932D01*
X162439487Y-105651004D01*
X162188139Y-105701000D01*
X161931861Y-105701000D01*
X161680513Y-105651004D01*
X161443747Y-105552932D01*
X161443746Y-105552932D01*
X161443745Y-105552931D01*
X161230661Y-105410553D01*
X161049447Y-105229339D01*
X160907069Y-105016255D01*
X160907068Y-105016253D01*
X160808996Y-104779487D01*
X160759000Y-104528139D01*
X160759000Y-104271861D01*
X160808996Y-104020513D01*
X160907068Y-103783747D01*
X161049447Y-103570661D01*
X161230661Y-103389447D01*
X161443745Y-103247069D01*
X161443747Y-103247068D01*
X161680513Y-103148996D01*
X161931861Y-103099000D01*
X162188139Y-103099000D01*
X162439487Y-103148996D01*
X162439487Y-103148996D01*
G37*
G36*
X154299487Y-98448996D02*
G01*
X154536253Y-98547068D01*
X154536255Y-98547069D01*
X154749339Y-98689447D01*
X154930553Y-98870661D01*
X155072932Y-99083747D01*
X155171004Y-99320513D01*
X155221000Y-99571861D01*
X155221000Y-99828139D01*
X155171004Y-100079487D01*
X155072932Y-100316253D01*
X155072931Y-100316255D01*
X154930553Y-100529339D01*
X154749339Y-100710553D01*
X154536255Y-100852931D01*
X154536254Y-100852932D01*
X154536253Y-100852932D01*
X154299487Y-100951004D01*
X154048139Y-101001000D01*
X153791861Y-101001000D01*
X153540513Y-100951004D01*
X153303747Y-100852932D01*
X153303746Y-100852932D01*
X153303745Y-100852931D01*
X153090661Y-100710553D01*
X152909447Y-100529339D01*
X152767069Y-100316255D01*
X152767068Y-100316253D01*
X152668996Y-100079487D01*
X152619000Y-99828139D01*
X152619000Y-99571861D01*
X152668996Y-99320513D01*
X152767068Y-99083747D01*
X152909447Y-98870661D01*
X153090661Y-98689447D01*
X153303745Y-98547069D01*
X153303747Y-98547068D01*
X153540513Y-98448996D01*
X153791861Y-98399000D01*
X154048139Y-98399000D01*
X154299487Y-98448996D01*
X154299487Y-98448996D01*
G37*
G36*
X148629487Y-87408996D02*
G01*
X148866253Y-87507068D01*
X148866255Y-87507069D01*
X149079339Y-87649447D01*
X149260553Y-87830661D01*
X149390896Y-88025733D01*
X149402932Y-88043747D01*
X149501004Y-88280513D01*
X149551000Y-88531861D01*
X149551000Y-88788139D01*
X149501004Y-89039487D01*
X149402932Y-89276253D01*
X149402931Y-89276255D01*
X149260553Y-89489339D01*
X149079339Y-89670553D01*
X148866255Y-89812931D01*
X148866254Y-89812932D01*
X148866253Y-89812932D01*
X148629487Y-89911004D01*
X148378139Y-89961000D01*
X148121861Y-89961000D01*
X147870513Y-89911004D01*
X147633747Y-89812932D01*
X147633746Y-89812932D01*
X147633745Y-89812931D01*
X147420661Y-89670553D01*
X147239447Y-89489339D01*
X147097069Y-89276255D01*
X147097068Y-89276253D01*
X146998996Y-89039487D01*
X146949000Y-88788139D01*
X146949000Y-88531861D01*
X146998996Y-88280513D01*
X147097068Y-88043747D01*
X147109105Y-88025733D01*
X147239447Y-87830661D01*
X147420661Y-87649447D01*
X147633745Y-87507069D01*
X147633747Y-87507068D01*
X147870513Y-87408996D01*
X148121861Y-87359000D01*
X148378139Y-87359000D01*
X148629487Y-87408996D01*
X148629487Y-87408996D01*
G37*
G36*
X181924549Y-86561116D02*
G01*
X182035734Y-86583232D01*
X182245203Y-86669997D01*
X182433720Y-86795960D01*
X182594040Y-86956280D01*
X182720003Y-87144797D01*
X182806768Y-87354266D01*
X182851000Y-87576636D01*
X182851000Y-87803364D01*
X182806768Y-88025734D01*
X182720003Y-88235203D01*
X182594040Y-88423720D01*
X182433720Y-88584040D01*
X182245203Y-88710003D01*
X182035734Y-88796768D01*
X181924549Y-88818884D01*
X181813365Y-88841000D01*
X181586635Y-88841000D01*
X181475451Y-88818884D01*
X181364266Y-88796768D01*
X181154797Y-88710003D01*
X180966280Y-88584040D01*
X180805960Y-88423720D01*
X180679997Y-88235203D01*
X180593232Y-88025734D01*
X180549000Y-87803364D01*
X180549000Y-87576636D01*
X180593232Y-87354266D01*
X180679997Y-87144797D01*
X180805960Y-86956280D01*
X180966280Y-86795960D01*
X181154797Y-86669997D01*
X181364266Y-86583232D01*
X181475451Y-86561116D01*
X181586635Y-86539000D01*
X181813365Y-86539000D01*
X181924549Y-86561116D01*
X181924549Y-86561116D01*
G37*
G36*
X134675993Y-84574203D02*
G01*
X134740411Y-84593744D01*
X134799781Y-84625478D01*
X134851817Y-84668183D01*
X134894522Y-84720219D01*
X134926256Y-84779589D01*
X134945797Y-84844007D01*
X134953000Y-84917140D01*
X134953000Y-85842860D01*
X134945797Y-85915993D01*
X134926256Y-85980411D01*
X134894522Y-86039781D01*
X134851817Y-86091817D01*
X134799781Y-86134522D01*
X134740411Y-86166256D01*
X134675993Y-86185797D01*
X134602860Y-86193000D01*
X133677140Y-86193000D01*
X133604007Y-86185797D01*
X133539589Y-86166256D01*
X133480219Y-86134522D01*
X133428183Y-86091817D01*
X133385478Y-86039781D01*
X133353744Y-85980411D01*
X133334203Y-85915993D01*
X133327000Y-85842860D01*
X133327000Y-84917140D01*
X133334203Y-84844007D01*
X133353744Y-84779589D01*
X133385478Y-84720219D01*
X133428183Y-84668183D01*
X133480219Y-84625478D01*
X133539589Y-84593744D01*
X133604007Y-84574203D01*
X133677140Y-84567000D01*
X134602860Y-84567000D01*
X134675993Y-84574203D01*
X134675993Y-84574203D01*
G37*
G36*
X148675993Y-84574203D02*
G01*
X148740411Y-84593744D01*
X148799781Y-84625478D01*
X148851817Y-84668183D01*
X148894522Y-84720219D01*
X148926256Y-84779589D01*
X148945797Y-84844007D01*
X148953000Y-84917140D01*
X148953000Y-85842860D01*
X148945797Y-85915993D01*
X148926256Y-85980411D01*
X148894522Y-86039781D01*
X148851817Y-86091817D01*
X148799781Y-86134522D01*
X148740411Y-86166256D01*
X148675993Y-86185797D01*
X148602860Y-86193000D01*
X147677140Y-86193000D01*
X147604007Y-86185797D01*
X147539589Y-86166256D01*
X147480219Y-86134522D01*
X147428183Y-86091817D01*
X147385478Y-86039781D01*
X147353744Y-85980411D01*
X147334203Y-85915993D01*
X147327000Y-85842860D01*
X147327000Y-84917140D01*
X147334203Y-84844007D01*
X147353744Y-84779589D01*
X147385478Y-84720219D01*
X147428183Y-84668183D01*
X147480219Y-84625478D01*
X147539589Y-84593744D01*
X147604007Y-84574203D01*
X147677140Y-84567000D01*
X148602860Y-84567000D01*
X148675993Y-84574203D01*
X148675993Y-84574203D01*
G37*
M02*
