G04 #@! TF.GenerationSoftware,KiCad,Pcbnew,(5.1.5)-3*
G04 #@! TF.CreationDate,2020-07-28T19:33:27-07:00*
G04 #@! TF.ProjectId,Main Board,4d61696e-2042-46f6-9172-642e6b696361,rev?*
G04 #@! TF.SameCoordinates,Original*
G04 #@! TF.FileFunction,Paste,Top*
G04 #@! TF.FilePolarity,Positive*
%FSLAX46Y46*%
G04 Gerber Fmt 4.6, Leading zero omitted, Abs format (unit mm)*
G04 Created by KiCad (PCBNEW (5.1.5)-3) date 2020-07-28 19:33:27*
%MOMM*%
%LPD*%
G04 APERTURE LIST*
%ADD10C,0.010000*%
%ADD11C,0.100000*%
%ADD12R,0.320000X0.660000*%
%ADD13R,0.600000X0.450000*%
%ADD14R,0.650000X1.060000*%
%ADD15R,1.300000X1.550000*%
%ADD16R,3.800000X2.000000*%
%ADD17R,0.450000X0.600000*%
%ADD18R,0.800000X0.900000*%
%ADD19R,0.900000X0.800000*%
%ADD20R,4.000000X1.500000*%
G04 APERTURE END LIST*
D10*
G36*
X136320000Y-100320584D02*
G01*
X136320000Y-99680000D01*
X136939890Y-99680000D01*
X136939890Y-100320584D01*
X136320000Y-100320584D01*
G37*
X136320000Y-100320584D02*
X136320000Y-99680000D01*
X136939890Y-99680000D01*
X136939890Y-100320584D01*
X136320000Y-100320584D01*
G36*
X137060000Y-100320610D02*
G01*
X137060000Y-99680000D01*
X137681296Y-99680000D01*
X137681296Y-100320610D01*
X137060000Y-100320610D01*
G37*
X137060000Y-100320610D02*
X137060000Y-99680000D01*
X137681296Y-99680000D01*
X137681296Y-100320610D01*
X137060000Y-100320610D01*
D11*
G36*
X133377691Y-91851053D02*
G01*
X133398926Y-91854203D01*
X133419750Y-91859419D01*
X133439962Y-91866651D01*
X133459368Y-91875830D01*
X133477781Y-91886866D01*
X133495024Y-91899654D01*
X133510930Y-91914070D01*
X133525346Y-91929976D01*
X133538134Y-91947219D01*
X133549170Y-91965632D01*
X133558349Y-91985038D01*
X133565581Y-92005250D01*
X133570797Y-92026074D01*
X133573947Y-92047309D01*
X133575000Y-92068750D01*
X133575000Y-92506250D01*
X133573947Y-92527691D01*
X133570797Y-92548926D01*
X133565581Y-92569750D01*
X133558349Y-92589962D01*
X133549170Y-92609368D01*
X133538134Y-92627781D01*
X133525346Y-92645024D01*
X133510930Y-92660930D01*
X133495024Y-92675346D01*
X133477781Y-92688134D01*
X133459368Y-92699170D01*
X133439962Y-92708349D01*
X133419750Y-92715581D01*
X133398926Y-92720797D01*
X133377691Y-92723947D01*
X133356250Y-92725000D01*
X132843750Y-92725000D01*
X132822309Y-92723947D01*
X132801074Y-92720797D01*
X132780250Y-92715581D01*
X132760038Y-92708349D01*
X132740632Y-92699170D01*
X132722219Y-92688134D01*
X132704976Y-92675346D01*
X132689070Y-92660930D01*
X132674654Y-92645024D01*
X132661866Y-92627781D01*
X132650830Y-92609368D01*
X132641651Y-92589962D01*
X132634419Y-92569750D01*
X132629203Y-92548926D01*
X132626053Y-92527691D01*
X132625000Y-92506250D01*
X132625000Y-92068750D01*
X132626053Y-92047309D01*
X132629203Y-92026074D01*
X132634419Y-92005250D01*
X132641651Y-91985038D01*
X132650830Y-91965632D01*
X132661866Y-91947219D01*
X132674654Y-91929976D01*
X132689070Y-91914070D01*
X132704976Y-91899654D01*
X132722219Y-91886866D01*
X132740632Y-91875830D01*
X132760038Y-91866651D01*
X132780250Y-91859419D01*
X132801074Y-91854203D01*
X132822309Y-91851053D01*
X132843750Y-91850000D01*
X133356250Y-91850000D01*
X133377691Y-91851053D01*
G37*
G36*
X133377691Y-90276053D02*
G01*
X133398926Y-90279203D01*
X133419750Y-90284419D01*
X133439962Y-90291651D01*
X133459368Y-90300830D01*
X133477781Y-90311866D01*
X133495024Y-90324654D01*
X133510930Y-90339070D01*
X133525346Y-90354976D01*
X133538134Y-90372219D01*
X133549170Y-90390632D01*
X133558349Y-90410038D01*
X133565581Y-90430250D01*
X133570797Y-90451074D01*
X133573947Y-90472309D01*
X133575000Y-90493750D01*
X133575000Y-90931250D01*
X133573947Y-90952691D01*
X133570797Y-90973926D01*
X133565581Y-90994750D01*
X133558349Y-91014962D01*
X133549170Y-91034368D01*
X133538134Y-91052781D01*
X133525346Y-91070024D01*
X133510930Y-91085930D01*
X133495024Y-91100346D01*
X133477781Y-91113134D01*
X133459368Y-91124170D01*
X133439962Y-91133349D01*
X133419750Y-91140581D01*
X133398926Y-91145797D01*
X133377691Y-91148947D01*
X133356250Y-91150000D01*
X132843750Y-91150000D01*
X132822309Y-91148947D01*
X132801074Y-91145797D01*
X132780250Y-91140581D01*
X132760038Y-91133349D01*
X132740632Y-91124170D01*
X132722219Y-91113134D01*
X132704976Y-91100346D01*
X132689070Y-91085930D01*
X132674654Y-91070024D01*
X132661866Y-91052781D01*
X132650830Y-91034368D01*
X132641651Y-91014962D01*
X132634419Y-90994750D01*
X132629203Y-90973926D01*
X132626053Y-90952691D01*
X132625000Y-90931250D01*
X132625000Y-90493750D01*
X132626053Y-90472309D01*
X132629203Y-90451074D01*
X132634419Y-90430250D01*
X132641651Y-90410038D01*
X132650830Y-90390632D01*
X132661866Y-90372219D01*
X132674654Y-90354976D01*
X132689070Y-90339070D01*
X132704976Y-90324654D01*
X132722219Y-90311866D01*
X132740632Y-90300830D01*
X132760038Y-90291651D01*
X132780250Y-90284419D01*
X132801074Y-90279203D01*
X132822309Y-90276053D01*
X132843750Y-90275000D01*
X133356250Y-90275000D01*
X133377691Y-90276053D01*
G37*
D12*
X136350000Y-101030000D03*
X137000000Y-101030000D03*
X137650000Y-101030000D03*
X137650000Y-98970000D03*
X137000000Y-98970000D03*
X136350000Y-98970000D03*
D11*
G36*
X134452691Y-102126053D02*
G01*
X134473926Y-102129203D01*
X134494750Y-102134419D01*
X134514962Y-102141651D01*
X134534368Y-102150830D01*
X134552781Y-102161866D01*
X134570024Y-102174654D01*
X134585930Y-102189070D01*
X134600346Y-102204976D01*
X134613134Y-102222219D01*
X134624170Y-102240632D01*
X134633349Y-102260038D01*
X134640581Y-102280250D01*
X134645797Y-102301074D01*
X134648947Y-102322309D01*
X134650000Y-102343750D01*
X134650000Y-102856250D01*
X134648947Y-102877691D01*
X134645797Y-102898926D01*
X134640581Y-102919750D01*
X134633349Y-102939962D01*
X134624170Y-102959368D01*
X134613134Y-102977781D01*
X134600346Y-102995024D01*
X134585930Y-103010930D01*
X134570024Y-103025346D01*
X134552781Y-103038134D01*
X134534368Y-103049170D01*
X134514962Y-103058349D01*
X134494750Y-103065581D01*
X134473926Y-103070797D01*
X134452691Y-103073947D01*
X134431250Y-103075000D01*
X133993750Y-103075000D01*
X133972309Y-103073947D01*
X133951074Y-103070797D01*
X133930250Y-103065581D01*
X133910038Y-103058349D01*
X133890632Y-103049170D01*
X133872219Y-103038134D01*
X133854976Y-103025346D01*
X133839070Y-103010930D01*
X133824654Y-102995024D01*
X133811866Y-102977781D01*
X133800830Y-102959368D01*
X133791651Y-102939962D01*
X133784419Y-102919750D01*
X133779203Y-102898926D01*
X133776053Y-102877691D01*
X133775000Y-102856250D01*
X133775000Y-102343750D01*
X133776053Y-102322309D01*
X133779203Y-102301074D01*
X133784419Y-102280250D01*
X133791651Y-102260038D01*
X133800830Y-102240632D01*
X133811866Y-102222219D01*
X133824654Y-102204976D01*
X133839070Y-102189070D01*
X133854976Y-102174654D01*
X133872219Y-102161866D01*
X133890632Y-102150830D01*
X133910038Y-102141651D01*
X133930250Y-102134419D01*
X133951074Y-102129203D01*
X133972309Y-102126053D01*
X133993750Y-102125000D01*
X134431250Y-102125000D01*
X134452691Y-102126053D01*
G37*
G36*
X136027691Y-102126053D02*
G01*
X136048926Y-102129203D01*
X136069750Y-102134419D01*
X136089962Y-102141651D01*
X136109368Y-102150830D01*
X136127781Y-102161866D01*
X136145024Y-102174654D01*
X136160930Y-102189070D01*
X136175346Y-102204976D01*
X136188134Y-102222219D01*
X136199170Y-102240632D01*
X136208349Y-102260038D01*
X136215581Y-102280250D01*
X136220797Y-102301074D01*
X136223947Y-102322309D01*
X136225000Y-102343750D01*
X136225000Y-102856250D01*
X136223947Y-102877691D01*
X136220797Y-102898926D01*
X136215581Y-102919750D01*
X136208349Y-102939962D01*
X136199170Y-102959368D01*
X136188134Y-102977781D01*
X136175346Y-102995024D01*
X136160930Y-103010930D01*
X136145024Y-103025346D01*
X136127781Y-103038134D01*
X136109368Y-103049170D01*
X136089962Y-103058349D01*
X136069750Y-103065581D01*
X136048926Y-103070797D01*
X136027691Y-103073947D01*
X136006250Y-103075000D01*
X135568750Y-103075000D01*
X135547309Y-103073947D01*
X135526074Y-103070797D01*
X135505250Y-103065581D01*
X135485038Y-103058349D01*
X135465632Y-103049170D01*
X135447219Y-103038134D01*
X135429976Y-103025346D01*
X135414070Y-103010930D01*
X135399654Y-102995024D01*
X135386866Y-102977781D01*
X135375830Y-102959368D01*
X135366651Y-102939962D01*
X135359419Y-102919750D01*
X135354203Y-102898926D01*
X135351053Y-102877691D01*
X135350000Y-102856250D01*
X135350000Y-102343750D01*
X135351053Y-102322309D01*
X135354203Y-102301074D01*
X135359419Y-102280250D01*
X135366651Y-102260038D01*
X135375830Y-102240632D01*
X135386866Y-102222219D01*
X135399654Y-102204976D01*
X135414070Y-102189070D01*
X135429976Y-102174654D01*
X135447219Y-102161866D01*
X135465632Y-102150830D01*
X135485038Y-102141651D01*
X135505250Y-102134419D01*
X135526074Y-102129203D01*
X135547309Y-102126053D01*
X135568750Y-102125000D01*
X136006250Y-102125000D01*
X136027691Y-102126053D01*
G37*
G36*
X136377691Y-90276053D02*
G01*
X136398926Y-90279203D01*
X136419750Y-90284419D01*
X136439962Y-90291651D01*
X136459368Y-90300830D01*
X136477781Y-90311866D01*
X136495024Y-90324654D01*
X136510930Y-90339070D01*
X136525346Y-90354976D01*
X136538134Y-90372219D01*
X136549170Y-90390632D01*
X136558349Y-90410038D01*
X136565581Y-90430250D01*
X136570797Y-90451074D01*
X136573947Y-90472309D01*
X136575000Y-90493750D01*
X136575000Y-90931250D01*
X136573947Y-90952691D01*
X136570797Y-90973926D01*
X136565581Y-90994750D01*
X136558349Y-91014962D01*
X136549170Y-91034368D01*
X136538134Y-91052781D01*
X136525346Y-91070024D01*
X136510930Y-91085930D01*
X136495024Y-91100346D01*
X136477781Y-91113134D01*
X136459368Y-91124170D01*
X136439962Y-91133349D01*
X136419750Y-91140581D01*
X136398926Y-91145797D01*
X136377691Y-91148947D01*
X136356250Y-91150000D01*
X135843750Y-91150000D01*
X135822309Y-91148947D01*
X135801074Y-91145797D01*
X135780250Y-91140581D01*
X135760038Y-91133349D01*
X135740632Y-91124170D01*
X135722219Y-91113134D01*
X135704976Y-91100346D01*
X135689070Y-91085930D01*
X135674654Y-91070024D01*
X135661866Y-91052781D01*
X135650830Y-91034368D01*
X135641651Y-91014962D01*
X135634419Y-90994750D01*
X135629203Y-90973926D01*
X135626053Y-90952691D01*
X135625000Y-90931250D01*
X135625000Y-90493750D01*
X135626053Y-90472309D01*
X135629203Y-90451074D01*
X135634419Y-90430250D01*
X135641651Y-90410038D01*
X135650830Y-90390632D01*
X135661866Y-90372219D01*
X135674654Y-90354976D01*
X135689070Y-90339070D01*
X135704976Y-90324654D01*
X135722219Y-90311866D01*
X135740632Y-90300830D01*
X135760038Y-90291651D01*
X135780250Y-90284419D01*
X135801074Y-90279203D01*
X135822309Y-90276053D01*
X135843750Y-90275000D01*
X136356250Y-90275000D01*
X136377691Y-90276053D01*
G37*
G36*
X136377691Y-91851053D02*
G01*
X136398926Y-91854203D01*
X136419750Y-91859419D01*
X136439962Y-91866651D01*
X136459368Y-91875830D01*
X136477781Y-91886866D01*
X136495024Y-91899654D01*
X136510930Y-91914070D01*
X136525346Y-91929976D01*
X136538134Y-91947219D01*
X136549170Y-91965632D01*
X136558349Y-91985038D01*
X136565581Y-92005250D01*
X136570797Y-92026074D01*
X136573947Y-92047309D01*
X136575000Y-92068750D01*
X136575000Y-92506250D01*
X136573947Y-92527691D01*
X136570797Y-92548926D01*
X136565581Y-92569750D01*
X136558349Y-92589962D01*
X136549170Y-92609368D01*
X136538134Y-92627781D01*
X136525346Y-92645024D01*
X136510930Y-92660930D01*
X136495024Y-92675346D01*
X136477781Y-92688134D01*
X136459368Y-92699170D01*
X136439962Y-92708349D01*
X136419750Y-92715581D01*
X136398926Y-92720797D01*
X136377691Y-92723947D01*
X136356250Y-92725000D01*
X135843750Y-92725000D01*
X135822309Y-92723947D01*
X135801074Y-92720797D01*
X135780250Y-92715581D01*
X135760038Y-92708349D01*
X135740632Y-92699170D01*
X135722219Y-92688134D01*
X135704976Y-92675346D01*
X135689070Y-92660930D01*
X135674654Y-92645024D01*
X135661866Y-92627781D01*
X135650830Y-92609368D01*
X135641651Y-92589962D01*
X135634419Y-92569750D01*
X135629203Y-92548926D01*
X135626053Y-92527691D01*
X135625000Y-92506250D01*
X135625000Y-92068750D01*
X135626053Y-92047309D01*
X135629203Y-92026074D01*
X135634419Y-92005250D01*
X135641651Y-91985038D01*
X135650830Y-91965632D01*
X135661866Y-91947219D01*
X135674654Y-91929976D01*
X135689070Y-91914070D01*
X135704976Y-91899654D01*
X135722219Y-91886866D01*
X135740632Y-91875830D01*
X135760038Y-91866651D01*
X135780250Y-91859419D01*
X135801074Y-91854203D01*
X135822309Y-91851053D01*
X135843750Y-91850000D01*
X136356250Y-91850000D01*
X136377691Y-91851053D01*
G37*
G36*
X143027691Y-101726053D02*
G01*
X143048926Y-101729203D01*
X143069750Y-101734419D01*
X143089962Y-101741651D01*
X143109368Y-101750830D01*
X143127781Y-101761866D01*
X143145024Y-101774654D01*
X143160930Y-101789070D01*
X143175346Y-101804976D01*
X143188134Y-101822219D01*
X143199170Y-101840632D01*
X143208349Y-101860038D01*
X143215581Y-101880250D01*
X143220797Y-101901074D01*
X143223947Y-101922309D01*
X143225000Y-101943750D01*
X143225000Y-102456250D01*
X143223947Y-102477691D01*
X143220797Y-102498926D01*
X143215581Y-102519750D01*
X143208349Y-102539962D01*
X143199170Y-102559368D01*
X143188134Y-102577781D01*
X143175346Y-102595024D01*
X143160930Y-102610930D01*
X143145024Y-102625346D01*
X143127781Y-102638134D01*
X143109368Y-102649170D01*
X143089962Y-102658349D01*
X143069750Y-102665581D01*
X143048926Y-102670797D01*
X143027691Y-102673947D01*
X143006250Y-102675000D01*
X142568750Y-102675000D01*
X142547309Y-102673947D01*
X142526074Y-102670797D01*
X142505250Y-102665581D01*
X142485038Y-102658349D01*
X142465632Y-102649170D01*
X142447219Y-102638134D01*
X142429976Y-102625346D01*
X142414070Y-102610930D01*
X142399654Y-102595024D01*
X142386866Y-102577781D01*
X142375830Y-102559368D01*
X142366651Y-102539962D01*
X142359419Y-102519750D01*
X142354203Y-102498926D01*
X142351053Y-102477691D01*
X142350000Y-102456250D01*
X142350000Y-101943750D01*
X142351053Y-101922309D01*
X142354203Y-101901074D01*
X142359419Y-101880250D01*
X142366651Y-101860038D01*
X142375830Y-101840632D01*
X142386866Y-101822219D01*
X142399654Y-101804976D01*
X142414070Y-101789070D01*
X142429976Y-101774654D01*
X142447219Y-101761866D01*
X142465632Y-101750830D01*
X142485038Y-101741651D01*
X142505250Y-101734419D01*
X142526074Y-101729203D01*
X142547309Y-101726053D01*
X142568750Y-101725000D01*
X143006250Y-101725000D01*
X143027691Y-101726053D01*
G37*
G36*
X141452691Y-101726053D02*
G01*
X141473926Y-101729203D01*
X141494750Y-101734419D01*
X141514962Y-101741651D01*
X141534368Y-101750830D01*
X141552781Y-101761866D01*
X141570024Y-101774654D01*
X141585930Y-101789070D01*
X141600346Y-101804976D01*
X141613134Y-101822219D01*
X141624170Y-101840632D01*
X141633349Y-101860038D01*
X141640581Y-101880250D01*
X141645797Y-101901074D01*
X141648947Y-101922309D01*
X141650000Y-101943750D01*
X141650000Y-102456250D01*
X141648947Y-102477691D01*
X141645797Y-102498926D01*
X141640581Y-102519750D01*
X141633349Y-102539962D01*
X141624170Y-102559368D01*
X141613134Y-102577781D01*
X141600346Y-102595024D01*
X141585930Y-102610930D01*
X141570024Y-102625346D01*
X141552781Y-102638134D01*
X141534368Y-102649170D01*
X141514962Y-102658349D01*
X141494750Y-102665581D01*
X141473926Y-102670797D01*
X141452691Y-102673947D01*
X141431250Y-102675000D01*
X140993750Y-102675000D01*
X140972309Y-102673947D01*
X140951074Y-102670797D01*
X140930250Y-102665581D01*
X140910038Y-102658349D01*
X140890632Y-102649170D01*
X140872219Y-102638134D01*
X140854976Y-102625346D01*
X140839070Y-102610930D01*
X140824654Y-102595024D01*
X140811866Y-102577781D01*
X140800830Y-102559368D01*
X140791651Y-102539962D01*
X140784419Y-102519750D01*
X140779203Y-102498926D01*
X140776053Y-102477691D01*
X140775000Y-102456250D01*
X140775000Y-101943750D01*
X140776053Y-101922309D01*
X140779203Y-101901074D01*
X140784419Y-101880250D01*
X140791651Y-101860038D01*
X140800830Y-101840632D01*
X140811866Y-101822219D01*
X140824654Y-101804976D01*
X140839070Y-101789070D01*
X140854976Y-101774654D01*
X140872219Y-101761866D01*
X140890632Y-101750830D01*
X140910038Y-101741651D01*
X140930250Y-101734419D01*
X140951074Y-101729203D01*
X140972309Y-101726053D01*
X140993750Y-101725000D01*
X141431250Y-101725000D01*
X141452691Y-101726053D01*
G37*
G36*
X113065191Y-100951053D02*
G01*
X113086426Y-100954203D01*
X113107250Y-100959419D01*
X113127462Y-100966651D01*
X113146868Y-100975830D01*
X113165281Y-100986866D01*
X113182524Y-100999654D01*
X113198430Y-101014070D01*
X113212846Y-101029976D01*
X113225634Y-101047219D01*
X113236670Y-101065632D01*
X113245849Y-101085038D01*
X113253081Y-101105250D01*
X113258297Y-101126074D01*
X113261447Y-101147309D01*
X113262500Y-101168750D01*
X113262500Y-101606250D01*
X113261447Y-101627691D01*
X113258297Y-101648926D01*
X113253081Y-101669750D01*
X113245849Y-101689962D01*
X113236670Y-101709368D01*
X113225634Y-101727781D01*
X113212846Y-101745024D01*
X113198430Y-101760930D01*
X113182524Y-101775346D01*
X113165281Y-101788134D01*
X113146868Y-101799170D01*
X113127462Y-101808349D01*
X113107250Y-101815581D01*
X113086426Y-101820797D01*
X113065191Y-101823947D01*
X113043750Y-101825000D01*
X112531250Y-101825000D01*
X112509809Y-101823947D01*
X112488574Y-101820797D01*
X112467750Y-101815581D01*
X112447538Y-101808349D01*
X112428132Y-101799170D01*
X112409719Y-101788134D01*
X112392476Y-101775346D01*
X112376570Y-101760930D01*
X112362154Y-101745024D01*
X112349366Y-101727781D01*
X112338330Y-101709368D01*
X112329151Y-101689962D01*
X112321919Y-101669750D01*
X112316703Y-101648926D01*
X112313553Y-101627691D01*
X112312500Y-101606250D01*
X112312500Y-101168750D01*
X112313553Y-101147309D01*
X112316703Y-101126074D01*
X112321919Y-101105250D01*
X112329151Y-101085038D01*
X112338330Y-101065632D01*
X112349366Y-101047219D01*
X112362154Y-101029976D01*
X112376570Y-101014070D01*
X112392476Y-100999654D01*
X112409719Y-100986866D01*
X112428132Y-100975830D01*
X112447538Y-100966651D01*
X112467750Y-100959419D01*
X112488574Y-100954203D01*
X112509809Y-100951053D01*
X112531250Y-100950000D01*
X113043750Y-100950000D01*
X113065191Y-100951053D01*
G37*
G36*
X113065191Y-99376053D02*
G01*
X113086426Y-99379203D01*
X113107250Y-99384419D01*
X113127462Y-99391651D01*
X113146868Y-99400830D01*
X113165281Y-99411866D01*
X113182524Y-99424654D01*
X113198430Y-99439070D01*
X113212846Y-99454976D01*
X113225634Y-99472219D01*
X113236670Y-99490632D01*
X113245849Y-99510038D01*
X113253081Y-99530250D01*
X113258297Y-99551074D01*
X113261447Y-99572309D01*
X113262500Y-99593750D01*
X113262500Y-100031250D01*
X113261447Y-100052691D01*
X113258297Y-100073926D01*
X113253081Y-100094750D01*
X113245849Y-100114962D01*
X113236670Y-100134368D01*
X113225634Y-100152781D01*
X113212846Y-100170024D01*
X113198430Y-100185930D01*
X113182524Y-100200346D01*
X113165281Y-100213134D01*
X113146868Y-100224170D01*
X113127462Y-100233349D01*
X113107250Y-100240581D01*
X113086426Y-100245797D01*
X113065191Y-100248947D01*
X113043750Y-100250000D01*
X112531250Y-100250000D01*
X112509809Y-100248947D01*
X112488574Y-100245797D01*
X112467750Y-100240581D01*
X112447538Y-100233349D01*
X112428132Y-100224170D01*
X112409719Y-100213134D01*
X112392476Y-100200346D01*
X112376570Y-100185930D01*
X112362154Y-100170024D01*
X112349366Y-100152781D01*
X112338330Y-100134368D01*
X112329151Y-100114962D01*
X112321919Y-100094750D01*
X112316703Y-100073926D01*
X112313553Y-100052691D01*
X112312500Y-100031250D01*
X112312500Y-99593750D01*
X112313553Y-99572309D01*
X112316703Y-99551074D01*
X112321919Y-99530250D01*
X112329151Y-99510038D01*
X112338330Y-99490632D01*
X112349366Y-99472219D01*
X112362154Y-99454976D01*
X112376570Y-99439070D01*
X112392476Y-99424654D01*
X112409719Y-99411866D01*
X112428132Y-99400830D01*
X112447538Y-99391651D01*
X112467750Y-99384419D01*
X112488574Y-99379203D01*
X112509809Y-99376053D01*
X112531250Y-99375000D01*
X113043750Y-99375000D01*
X113065191Y-99376053D01*
G37*
G36*
X129825191Y-107126053D02*
G01*
X129846426Y-107129203D01*
X129867250Y-107134419D01*
X129887462Y-107141651D01*
X129906868Y-107150830D01*
X129925281Y-107161866D01*
X129942524Y-107174654D01*
X129958430Y-107189070D01*
X129972846Y-107204976D01*
X129985634Y-107222219D01*
X129996670Y-107240632D01*
X130005849Y-107260038D01*
X130013081Y-107280250D01*
X130018297Y-107301074D01*
X130021447Y-107322309D01*
X130022500Y-107343750D01*
X130022500Y-107856250D01*
X130021447Y-107877691D01*
X130018297Y-107898926D01*
X130013081Y-107919750D01*
X130005849Y-107939962D01*
X129996670Y-107959368D01*
X129985634Y-107977781D01*
X129972846Y-107995024D01*
X129958430Y-108010930D01*
X129942524Y-108025346D01*
X129925281Y-108038134D01*
X129906868Y-108049170D01*
X129887462Y-108058349D01*
X129867250Y-108065581D01*
X129846426Y-108070797D01*
X129825191Y-108073947D01*
X129803750Y-108075000D01*
X129366250Y-108075000D01*
X129344809Y-108073947D01*
X129323574Y-108070797D01*
X129302750Y-108065581D01*
X129282538Y-108058349D01*
X129263132Y-108049170D01*
X129244719Y-108038134D01*
X129227476Y-108025346D01*
X129211570Y-108010930D01*
X129197154Y-107995024D01*
X129184366Y-107977781D01*
X129173330Y-107959368D01*
X129164151Y-107939962D01*
X129156919Y-107919750D01*
X129151703Y-107898926D01*
X129148553Y-107877691D01*
X129147500Y-107856250D01*
X129147500Y-107343750D01*
X129148553Y-107322309D01*
X129151703Y-107301074D01*
X129156919Y-107280250D01*
X129164151Y-107260038D01*
X129173330Y-107240632D01*
X129184366Y-107222219D01*
X129197154Y-107204976D01*
X129211570Y-107189070D01*
X129227476Y-107174654D01*
X129244719Y-107161866D01*
X129263132Y-107150830D01*
X129282538Y-107141651D01*
X129302750Y-107134419D01*
X129323574Y-107129203D01*
X129344809Y-107126053D01*
X129366250Y-107125000D01*
X129803750Y-107125000D01*
X129825191Y-107126053D01*
G37*
G36*
X131400191Y-107126053D02*
G01*
X131421426Y-107129203D01*
X131442250Y-107134419D01*
X131462462Y-107141651D01*
X131481868Y-107150830D01*
X131500281Y-107161866D01*
X131517524Y-107174654D01*
X131533430Y-107189070D01*
X131547846Y-107204976D01*
X131560634Y-107222219D01*
X131571670Y-107240632D01*
X131580849Y-107260038D01*
X131588081Y-107280250D01*
X131593297Y-107301074D01*
X131596447Y-107322309D01*
X131597500Y-107343750D01*
X131597500Y-107856250D01*
X131596447Y-107877691D01*
X131593297Y-107898926D01*
X131588081Y-107919750D01*
X131580849Y-107939962D01*
X131571670Y-107959368D01*
X131560634Y-107977781D01*
X131547846Y-107995024D01*
X131533430Y-108010930D01*
X131517524Y-108025346D01*
X131500281Y-108038134D01*
X131481868Y-108049170D01*
X131462462Y-108058349D01*
X131442250Y-108065581D01*
X131421426Y-108070797D01*
X131400191Y-108073947D01*
X131378750Y-108075000D01*
X130941250Y-108075000D01*
X130919809Y-108073947D01*
X130898574Y-108070797D01*
X130877750Y-108065581D01*
X130857538Y-108058349D01*
X130838132Y-108049170D01*
X130819719Y-108038134D01*
X130802476Y-108025346D01*
X130786570Y-108010930D01*
X130772154Y-107995024D01*
X130759366Y-107977781D01*
X130748330Y-107959368D01*
X130739151Y-107939962D01*
X130731919Y-107919750D01*
X130726703Y-107898926D01*
X130723553Y-107877691D01*
X130722500Y-107856250D01*
X130722500Y-107343750D01*
X130723553Y-107322309D01*
X130726703Y-107301074D01*
X130731919Y-107280250D01*
X130739151Y-107260038D01*
X130748330Y-107240632D01*
X130759366Y-107222219D01*
X130772154Y-107204976D01*
X130786570Y-107189070D01*
X130802476Y-107174654D01*
X130819719Y-107161866D01*
X130838132Y-107150830D01*
X130857538Y-107141651D01*
X130877750Y-107134419D01*
X130898574Y-107129203D01*
X130919809Y-107126053D01*
X130941250Y-107125000D01*
X131378750Y-107125000D01*
X131400191Y-107126053D01*
G37*
G36*
X116877691Y-98551053D02*
G01*
X116898926Y-98554203D01*
X116919750Y-98559419D01*
X116939962Y-98566651D01*
X116959368Y-98575830D01*
X116977781Y-98586866D01*
X116995024Y-98599654D01*
X117010930Y-98614070D01*
X117025346Y-98629976D01*
X117038134Y-98647219D01*
X117049170Y-98665632D01*
X117058349Y-98685038D01*
X117065581Y-98705250D01*
X117070797Y-98726074D01*
X117073947Y-98747309D01*
X117075000Y-98768750D01*
X117075000Y-99206250D01*
X117073947Y-99227691D01*
X117070797Y-99248926D01*
X117065581Y-99269750D01*
X117058349Y-99289962D01*
X117049170Y-99309368D01*
X117038134Y-99327781D01*
X117025346Y-99345024D01*
X117010930Y-99360930D01*
X116995024Y-99375346D01*
X116977781Y-99388134D01*
X116959368Y-99399170D01*
X116939962Y-99408349D01*
X116919750Y-99415581D01*
X116898926Y-99420797D01*
X116877691Y-99423947D01*
X116856250Y-99425000D01*
X116343750Y-99425000D01*
X116322309Y-99423947D01*
X116301074Y-99420797D01*
X116280250Y-99415581D01*
X116260038Y-99408349D01*
X116240632Y-99399170D01*
X116222219Y-99388134D01*
X116204976Y-99375346D01*
X116189070Y-99360930D01*
X116174654Y-99345024D01*
X116161866Y-99327781D01*
X116150830Y-99309368D01*
X116141651Y-99289962D01*
X116134419Y-99269750D01*
X116129203Y-99248926D01*
X116126053Y-99227691D01*
X116125000Y-99206250D01*
X116125000Y-98768750D01*
X116126053Y-98747309D01*
X116129203Y-98726074D01*
X116134419Y-98705250D01*
X116141651Y-98685038D01*
X116150830Y-98665632D01*
X116161866Y-98647219D01*
X116174654Y-98629976D01*
X116189070Y-98614070D01*
X116204976Y-98599654D01*
X116222219Y-98586866D01*
X116240632Y-98575830D01*
X116260038Y-98566651D01*
X116280250Y-98559419D01*
X116301074Y-98554203D01*
X116322309Y-98551053D01*
X116343750Y-98550000D01*
X116856250Y-98550000D01*
X116877691Y-98551053D01*
G37*
G36*
X116877691Y-96976053D02*
G01*
X116898926Y-96979203D01*
X116919750Y-96984419D01*
X116939962Y-96991651D01*
X116959368Y-97000830D01*
X116977781Y-97011866D01*
X116995024Y-97024654D01*
X117010930Y-97039070D01*
X117025346Y-97054976D01*
X117038134Y-97072219D01*
X117049170Y-97090632D01*
X117058349Y-97110038D01*
X117065581Y-97130250D01*
X117070797Y-97151074D01*
X117073947Y-97172309D01*
X117075000Y-97193750D01*
X117075000Y-97631250D01*
X117073947Y-97652691D01*
X117070797Y-97673926D01*
X117065581Y-97694750D01*
X117058349Y-97714962D01*
X117049170Y-97734368D01*
X117038134Y-97752781D01*
X117025346Y-97770024D01*
X117010930Y-97785930D01*
X116995024Y-97800346D01*
X116977781Y-97813134D01*
X116959368Y-97824170D01*
X116939962Y-97833349D01*
X116919750Y-97840581D01*
X116898926Y-97845797D01*
X116877691Y-97848947D01*
X116856250Y-97850000D01*
X116343750Y-97850000D01*
X116322309Y-97848947D01*
X116301074Y-97845797D01*
X116280250Y-97840581D01*
X116260038Y-97833349D01*
X116240632Y-97824170D01*
X116222219Y-97813134D01*
X116204976Y-97800346D01*
X116189070Y-97785930D01*
X116174654Y-97770024D01*
X116161866Y-97752781D01*
X116150830Y-97734368D01*
X116141651Y-97714962D01*
X116134419Y-97694750D01*
X116129203Y-97673926D01*
X116126053Y-97652691D01*
X116125000Y-97631250D01*
X116125000Y-97193750D01*
X116126053Y-97172309D01*
X116129203Y-97151074D01*
X116134419Y-97130250D01*
X116141651Y-97110038D01*
X116150830Y-97090632D01*
X116161866Y-97072219D01*
X116174654Y-97054976D01*
X116189070Y-97039070D01*
X116204976Y-97024654D01*
X116222219Y-97011866D01*
X116240632Y-97000830D01*
X116260038Y-96991651D01*
X116280250Y-96984419D01*
X116301074Y-96979203D01*
X116322309Y-96976053D01*
X116343750Y-96975000D01*
X116856250Y-96975000D01*
X116877691Y-96976053D01*
G37*
G36*
X115859703Y-86450722D02*
G01*
X115874264Y-86452882D01*
X115888543Y-86456459D01*
X115902403Y-86461418D01*
X115915710Y-86467712D01*
X115928336Y-86475280D01*
X115940159Y-86484048D01*
X115951066Y-86493934D01*
X115960952Y-86504841D01*
X115969720Y-86516664D01*
X115977288Y-86529290D01*
X115983582Y-86542597D01*
X115988541Y-86556457D01*
X115992118Y-86570736D01*
X115994278Y-86585297D01*
X115995000Y-86600000D01*
X115995000Y-88250000D01*
X115994278Y-88264703D01*
X115992118Y-88279264D01*
X115988541Y-88293543D01*
X115983582Y-88307403D01*
X115977288Y-88320710D01*
X115969720Y-88333336D01*
X115960952Y-88345159D01*
X115951066Y-88356066D01*
X115940159Y-88365952D01*
X115928336Y-88374720D01*
X115915710Y-88382288D01*
X115902403Y-88388582D01*
X115888543Y-88393541D01*
X115874264Y-88397118D01*
X115859703Y-88399278D01*
X115845000Y-88400000D01*
X115545000Y-88400000D01*
X115530297Y-88399278D01*
X115515736Y-88397118D01*
X115501457Y-88393541D01*
X115487597Y-88388582D01*
X115474290Y-88382288D01*
X115461664Y-88374720D01*
X115449841Y-88365952D01*
X115438934Y-88356066D01*
X115429048Y-88345159D01*
X115420280Y-88333336D01*
X115412712Y-88320710D01*
X115406418Y-88307403D01*
X115401459Y-88293543D01*
X115397882Y-88279264D01*
X115395722Y-88264703D01*
X115395000Y-88250000D01*
X115395000Y-86600000D01*
X115395722Y-86585297D01*
X115397882Y-86570736D01*
X115401459Y-86556457D01*
X115406418Y-86542597D01*
X115412712Y-86529290D01*
X115420280Y-86516664D01*
X115429048Y-86504841D01*
X115438934Y-86493934D01*
X115449841Y-86484048D01*
X115461664Y-86475280D01*
X115474290Y-86467712D01*
X115487597Y-86461418D01*
X115501457Y-86456459D01*
X115515736Y-86452882D01*
X115530297Y-86450722D01*
X115545000Y-86450000D01*
X115845000Y-86450000D01*
X115859703Y-86450722D01*
G37*
G36*
X117129703Y-86450722D02*
G01*
X117144264Y-86452882D01*
X117158543Y-86456459D01*
X117172403Y-86461418D01*
X117185710Y-86467712D01*
X117198336Y-86475280D01*
X117210159Y-86484048D01*
X117221066Y-86493934D01*
X117230952Y-86504841D01*
X117239720Y-86516664D01*
X117247288Y-86529290D01*
X117253582Y-86542597D01*
X117258541Y-86556457D01*
X117262118Y-86570736D01*
X117264278Y-86585297D01*
X117265000Y-86600000D01*
X117265000Y-88250000D01*
X117264278Y-88264703D01*
X117262118Y-88279264D01*
X117258541Y-88293543D01*
X117253582Y-88307403D01*
X117247288Y-88320710D01*
X117239720Y-88333336D01*
X117230952Y-88345159D01*
X117221066Y-88356066D01*
X117210159Y-88365952D01*
X117198336Y-88374720D01*
X117185710Y-88382288D01*
X117172403Y-88388582D01*
X117158543Y-88393541D01*
X117144264Y-88397118D01*
X117129703Y-88399278D01*
X117115000Y-88400000D01*
X116815000Y-88400000D01*
X116800297Y-88399278D01*
X116785736Y-88397118D01*
X116771457Y-88393541D01*
X116757597Y-88388582D01*
X116744290Y-88382288D01*
X116731664Y-88374720D01*
X116719841Y-88365952D01*
X116708934Y-88356066D01*
X116699048Y-88345159D01*
X116690280Y-88333336D01*
X116682712Y-88320710D01*
X116676418Y-88307403D01*
X116671459Y-88293543D01*
X116667882Y-88279264D01*
X116665722Y-88264703D01*
X116665000Y-88250000D01*
X116665000Y-86600000D01*
X116665722Y-86585297D01*
X116667882Y-86570736D01*
X116671459Y-86556457D01*
X116676418Y-86542597D01*
X116682712Y-86529290D01*
X116690280Y-86516664D01*
X116699048Y-86504841D01*
X116708934Y-86493934D01*
X116719841Y-86484048D01*
X116731664Y-86475280D01*
X116744290Y-86467712D01*
X116757597Y-86461418D01*
X116771457Y-86456459D01*
X116785736Y-86452882D01*
X116800297Y-86450722D01*
X116815000Y-86450000D01*
X117115000Y-86450000D01*
X117129703Y-86450722D01*
G37*
G36*
X118399703Y-86450722D02*
G01*
X118414264Y-86452882D01*
X118428543Y-86456459D01*
X118442403Y-86461418D01*
X118455710Y-86467712D01*
X118468336Y-86475280D01*
X118480159Y-86484048D01*
X118491066Y-86493934D01*
X118500952Y-86504841D01*
X118509720Y-86516664D01*
X118517288Y-86529290D01*
X118523582Y-86542597D01*
X118528541Y-86556457D01*
X118532118Y-86570736D01*
X118534278Y-86585297D01*
X118535000Y-86600000D01*
X118535000Y-88250000D01*
X118534278Y-88264703D01*
X118532118Y-88279264D01*
X118528541Y-88293543D01*
X118523582Y-88307403D01*
X118517288Y-88320710D01*
X118509720Y-88333336D01*
X118500952Y-88345159D01*
X118491066Y-88356066D01*
X118480159Y-88365952D01*
X118468336Y-88374720D01*
X118455710Y-88382288D01*
X118442403Y-88388582D01*
X118428543Y-88393541D01*
X118414264Y-88397118D01*
X118399703Y-88399278D01*
X118385000Y-88400000D01*
X118085000Y-88400000D01*
X118070297Y-88399278D01*
X118055736Y-88397118D01*
X118041457Y-88393541D01*
X118027597Y-88388582D01*
X118014290Y-88382288D01*
X118001664Y-88374720D01*
X117989841Y-88365952D01*
X117978934Y-88356066D01*
X117969048Y-88345159D01*
X117960280Y-88333336D01*
X117952712Y-88320710D01*
X117946418Y-88307403D01*
X117941459Y-88293543D01*
X117937882Y-88279264D01*
X117935722Y-88264703D01*
X117935000Y-88250000D01*
X117935000Y-86600000D01*
X117935722Y-86585297D01*
X117937882Y-86570736D01*
X117941459Y-86556457D01*
X117946418Y-86542597D01*
X117952712Y-86529290D01*
X117960280Y-86516664D01*
X117969048Y-86504841D01*
X117978934Y-86493934D01*
X117989841Y-86484048D01*
X118001664Y-86475280D01*
X118014290Y-86467712D01*
X118027597Y-86461418D01*
X118041457Y-86456459D01*
X118055736Y-86452882D01*
X118070297Y-86450722D01*
X118085000Y-86450000D01*
X118385000Y-86450000D01*
X118399703Y-86450722D01*
G37*
G36*
X119669703Y-86450722D02*
G01*
X119684264Y-86452882D01*
X119698543Y-86456459D01*
X119712403Y-86461418D01*
X119725710Y-86467712D01*
X119738336Y-86475280D01*
X119750159Y-86484048D01*
X119761066Y-86493934D01*
X119770952Y-86504841D01*
X119779720Y-86516664D01*
X119787288Y-86529290D01*
X119793582Y-86542597D01*
X119798541Y-86556457D01*
X119802118Y-86570736D01*
X119804278Y-86585297D01*
X119805000Y-86600000D01*
X119805000Y-88250000D01*
X119804278Y-88264703D01*
X119802118Y-88279264D01*
X119798541Y-88293543D01*
X119793582Y-88307403D01*
X119787288Y-88320710D01*
X119779720Y-88333336D01*
X119770952Y-88345159D01*
X119761066Y-88356066D01*
X119750159Y-88365952D01*
X119738336Y-88374720D01*
X119725710Y-88382288D01*
X119712403Y-88388582D01*
X119698543Y-88393541D01*
X119684264Y-88397118D01*
X119669703Y-88399278D01*
X119655000Y-88400000D01*
X119355000Y-88400000D01*
X119340297Y-88399278D01*
X119325736Y-88397118D01*
X119311457Y-88393541D01*
X119297597Y-88388582D01*
X119284290Y-88382288D01*
X119271664Y-88374720D01*
X119259841Y-88365952D01*
X119248934Y-88356066D01*
X119239048Y-88345159D01*
X119230280Y-88333336D01*
X119222712Y-88320710D01*
X119216418Y-88307403D01*
X119211459Y-88293543D01*
X119207882Y-88279264D01*
X119205722Y-88264703D01*
X119205000Y-88250000D01*
X119205000Y-86600000D01*
X119205722Y-86585297D01*
X119207882Y-86570736D01*
X119211459Y-86556457D01*
X119216418Y-86542597D01*
X119222712Y-86529290D01*
X119230280Y-86516664D01*
X119239048Y-86504841D01*
X119248934Y-86493934D01*
X119259841Y-86484048D01*
X119271664Y-86475280D01*
X119284290Y-86467712D01*
X119297597Y-86461418D01*
X119311457Y-86456459D01*
X119325736Y-86452882D01*
X119340297Y-86450722D01*
X119355000Y-86450000D01*
X119655000Y-86450000D01*
X119669703Y-86450722D01*
G37*
G36*
X119669703Y-91400722D02*
G01*
X119684264Y-91402882D01*
X119698543Y-91406459D01*
X119712403Y-91411418D01*
X119725710Y-91417712D01*
X119738336Y-91425280D01*
X119750159Y-91434048D01*
X119761066Y-91443934D01*
X119770952Y-91454841D01*
X119779720Y-91466664D01*
X119787288Y-91479290D01*
X119793582Y-91492597D01*
X119798541Y-91506457D01*
X119802118Y-91520736D01*
X119804278Y-91535297D01*
X119805000Y-91550000D01*
X119805000Y-93200000D01*
X119804278Y-93214703D01*
X119802118Y-93229264D01*
X119798541Y-93243543D01*
X119793582Y-93257403D01*
X119787288Y-93270710D01*
X119779720Y-93283336D01*
X119770952Y-93295159D01*
X119761066Y-93306066D01*
X119750159Y-93315952D01*
X119738336Y-93324720D01*
X119725710Y-93332288D01*
X119712403Y-93338582D01*
X119698543Y-93343541D01*
X119684264Y-93347118D01*
X119669703Y-93349278D01*
X119655000Y-93350000D01*
X119355000Y-93350000D01*
X119340297Y-93349278D01*
X119325736Y-93347118D01*
X119311457Y-93343541D01*
X119297597Y-93338582D01*
X119284290Y-93332288D01*
X119271664Y-93324720D01*
X119259841Y-93315952D01*
X119248934Y-93306066D01*
X119239048Y-93295159D01*
X119230280Y-93283336D01*
X119222712Y-93270710D01*
X119216418Y-93257403D01*
X119211459Y-93243543D01*
X119207882Y-93229264D01*
X119205722Y-93214703D01*
X119205000Y-93200000D01*
X119205000Y-91550000D01*
X119205722Y-91535297D01*
X119207882Y-91520736D01*
X119211459Y-91506457D01*
X119216418Y-91492597D01*
X119222712Y-91479290D01*
X119230280Y-91466664D01*
X119239048Y-91454841D01*
X119248934Y-91443934D01*
X119259841Y-91434048D01*
X119271664Y-91425280D01*
X119284290Y-91417712D01*
X119297597Y-91411418D01*
X119311457Y-91406459D01*
X119325736Y-91402882D01*
X119340297Y-91400722D01*
X119355000Y-91400000D01*
X119655000Y-91400000D01*
X119669703Y-91400722D01*
G37*
G36*
X118399703Y-91400722D02*
G01*
X118414264Y-91402882D01*
X118428543Y-91406459D01*
X118442403Y-91411418D01*
X118455710Y-91417712D01*
X118468336Y-91425280D01*
X118480159Y-91434048D01*
X118491066Y-91443934D01*
X118500952Y-91454841D01*
X118509720Y-91466664D01*
X118517288Y-91479290D01*
X118523582Y-91492597D01*
X118528541Y-91506457D01*
X118532118Y-91520736D01*
X118534278Y-91535297D01*
X118535000Y-91550000D01*
X118535000Y-93200000D01*
X118534278Y-93214703D01*
X118532118Y-93229264D01*
X118528541Y-93243543D01*
X118523582Y-93257403D01*
X118517288Y-93270710D01*
X118509720Y-93283336D01*
X118500952Y-93295159D01*
X118491066Y-93306066D01*
X118480159Y-93315952D01*
X118468336Y-93324720D01*
X118455710Y-93332288D01*
X118442403Y-93338582D01*
X118428543Y-93343541D01*
X118414264Y-93347118D01*
X118399703Y-93349278D01*
X118385000Y-93350000D01*
X118085000Y-93350000D01*
X118070297Y-93349278D01*
X118055736Y-93347118D01*
X118041457Y-93343541D01*
X118027597Y-93338582D01*
X118014290Y-93332288D01*
X118001664Y-93324720D01*
X117989841Y-93315952D01*
X117978934Y-93306066D01*
X117969048Y-93295159D01*
X117960280Y-93283336D01*
X117952712Y-93270710D01*
X117946418Y-93257403D01*
X117941459Y-93243543D01*
X117937882Y-93229264D01*
X117935722Y-93214703D01*
X117935000Y-93200000D01*
X117935000Y-91550000D01*
X117935722Y-91535297D01*
X117937882Y-91520736D01*
X117941459Y-91506457D01*
X117946418Y-91492597D01*
X117952712Y-91479290D01*
X117960280Y-91466664D01*
X117969048Y-91454841D01*
X117978934Y-91443934D01*
X117989841Y-91434048D01*
X118001664Y-91425280D01*
X118014290Y-91417712D01*
X118027597Y-91411418D01*
X118041457Y-91406459D01*
X118055736Y-91402882D01*
X118070297Y-91400722D01*
X118085000Y-91400000D01*
X118385000Y-91400000D01*
X118399703Y-91400722D01*
G37*
G36*
X117129703Y-91400722D02*
G01*
X117144264Y-91402882D01*
X117158543Y-91406459D01*
X117172403Y-91411418D01*
X117185710Y-91417712D01*
X117198336Y-91425280D01*
X117210159Y-91434048D01*
X117221066Y-91443934D01*
X117230952Y-91454841D01*
X117239720Y-91466664D01*
X117247288Y-91479290D01*
X117253582Y-91492597D01*
X117258541Y-91506457D01*
X117262118Y-91520736D01*
X117264278Y-91535297D01*
X117265000Y-91550000D01*
X117265000Y-93200000D01*
X117264278Y-93214703D01*
X117262118Y-93229264D01*
X117258541Y-93243543D01*
X117253582Y-93257403D01*
X117247288Y-93270710D01*
X117239720Y-93283336D01*
X117230952Y-93295159D01*
X117221066Y-93306066D01*
X117210159Y-93315952D01*
X117198336Y-93324720D01*
X117185710Y-93332288D01*
X117172403Y-93338582D01*
X117158543Y-93343541D01*
X117144264Y-93347118D01*
X117129703Y-93349278D01*
X117115000Y-93350000D01*
X116815000Y-93350000D01*
X116800297Y-93349278D01*
X116785736Y-93347118D01*
X116771457Y-93343541D01*
X116757597Y-93338582D01*
X116744290Y-93332288D01*
X116731664Y-93324720D01*
X116719841Y-93315952D01*
X116708934Y-93306066D01*
X116699048Y-93295159D01*
X116690280Y-93283336D01*
X116682712Y-93270710D01*
X116676418Y-93257403D01*
X116671459Y-93243543D01*
X116667882Y-93229264D01*
X116665722Y-93214703D01*
X116665000Y-93200000D01*
X116665000Y-91550000D01*
X116665722Y-91535297D01*
X116667882Y-91520736D01*
X116671459Y-91506457D01*
X116676418Y-91492597D01*
X116682712Y-91479290D01*
X116690280Y-91466664D01*
X116699048Y-91454841D01*
X116708934Y-91443934D01*
X116719841Y-91434048D01*
X116731664Y-91425280D01*
X116744290Y-91417712D01*
X116757597Y-91411418D01*
X116771457Y-91406459D01*
X116785736Y-91402882D01*
X116800297Y-91400722D01*
X116815000Y-91400000D01*
X117115000Y-91400000D01*
X117129703Y-91400722D01*
G37*
G36*
X115859703Y-91400722D02*
G01*
X115874264Y-91402882D01*
X115888543Y-91406459D01*
X115902403Y-91411418D01*
X115915710Y-91417712D01*
X115928336Y-91425280D01*
X115940159Y-91434048D01*
X115951066Y-91443934D01*
X115960952Y-91454841D01*
X115969720Y-91466664D01*
X115977288Y-91479290D01*
X115983582Y-91492597D01*
X115988541Y-91506457D01*
X115992118Y-91520736D01*
X115994278Y-91535297D01*
X115995000Y-91550000D01*
X115995000Y-93200000D01*
X115994278Y-93214703D01*
X115992118Y-93229264D01*
X115988541Y-93243543D01*
X115983582Y-93257403D01*
X115977288Y-93270710D01*
X115969720Y-93283336D01*
X115960952Y-93295159D01*
X115951066Y-93306066D01*
X115940159Y-93315952D01*
X115928336Y-93324720D01*
X115915710Y-93332288D01*
X115902403Y-93338582D01*
X115888543Y-93343541D01*
X115874264Y-93347118D01*
X115859703Y-93349278D01*
X115845000Y-93350000D01*
X115545000Y-93350000D01*
X115530297Y-93349278D01*
X115515736Y-93347118D01*
X115501457Y-93343541D01*
X115487597Y-93338582D01*
X115474290Y-93332288D01*
X115461664Y-93324720D01*
X115449841Y-93315952D01*
X115438934Y-93306066D01*
X115429048Y-93295159D01*
X115420280Y-93283336D01*
X115412712Y-93270710D01*
X115406418Y-93257403D01*
X115401459Y-93243543D01*
X115397882Y-93229264D01*
X115395722Y-93214703D01*
X115395000Y-93200000D01*
X115395000Y-91550000D01*
X115395722Y-91535297D01*
X115397882Y-91520736D01*
X115401459Y-91506457D01*
X115406418Y-91492597D01*
X115412712Y-91479290D01*
X115420280Y-91466664D01*
X115429048Y-91454841D01*
X115438934Y-91443934D01*
X115449841Y-91434048D01*
X115461664Y-91425280D01*
X115474290Y-91417712D01*
X115487597Y-91411418D01*
X115501457Y-91406459D01*
X115515736Y-91402882D01*
X115530297Y-91400722D01*
X115545000Y-91400000D01*
X115845000Y-91400000D01*
X115859703Y-91400722D01*
G37*
G36*
X139877691Y-101876053D02*
G01*
X139898926Y-101879203D01*
X139919750Y-101884419D01*
X139939962Y-101891651D01*
X139959368Y-101900830D01*
X139977781Y-101911866D01*
X139995024Y-101924654D01*
X140010930Y-101939070D01*
X140025346Y-101954976D01*
X140038134Y-101972219D01*
X140049170Y-101990632D01*
X140058349Y-102010038D01*
X140065581Y-102030250D01*
X140070797Y-102051074D01*
X140073947Y-102072309D01*
X140075000Y-102093750D01*
X140075000Y-102531250D01*
X140073947Y-102552691D01*
X140070797Y-102573926D01*
X140065581Y-102594750D01*
X140058349Y-102614962D01*
X140049170Y-102634368D01*
X140038134Y-102652781D01*
X140025346Y-102670024D01*
X140010930Y-102685930D01*
X139995024Y-102700346D01*
X139977781Y-102713134D01*
X139959368Y-102724170D01*
X139939962Y-102733349D01*
X139919750Y-102740581D01*
X139898926Y-102745797D01*
X139877691Y-102748947D01*
X139856250Y-102750000D01*
X139343750Y-102750000D01*
X139322309Y-102748947D01*
X139301074Y-102745797D01*
X139280250Y-102740581D01*
X139260038Y-102733349D01*
X139240632Y-102724170D01*
X139222219Y-102713134D01*
X139204976Y-102700346D01*
X139189070Y-102685930D01*
X139174654Y-102670024D01*
X139161866Y-102652781D01*
X139150830Y-102634368D01*
X139141651Y-102614962D01*
X139134419Y-102594750D01*
X139129203Y-102573926D01*
X139126053Y-102552691D01*
X139125000Y-102531250D01*
X139125000Y-102093750D01*
X139126053Y-102072309D01*
X139129203Y-102051074D01*
X139134419Y-102030250D01*
X139141651Y-102010038D01*
X139150830Y-101990632D01*
X139161866Y-101972219D01*
X139174654Y-101954976D01*
X139189070Y-101939070D01*
X139204976Y-101924654D01*
X139222219Y-101911866D01*
X139240632Y-101900830D01*
X139260038Y-101891651D01*
X139280250Y-101884419D01*
X139301074Y-101879203D01*
X139322309Y-101876053D01*
X139343750Y-101875000D01*
X139856250Y-101875000D01*
X139877691Y-101876053D01*
G37*
G36*
X139877691Y-103451053D02*
G01*
X139898926Y-103454203D01*
X139919750Y-103459419D01*
X139939962Y-103466651D01*
X139959368Y-103475830D01*
X139977781Y-103486866D01*
X139995024Y-103499654D01*
X140010930Y-103514070D01*
X140025346Y-103529976D01*
X140038134Y-103547219D01*
X140049170Y-103565632D01*
X140058349Y-103585038D01*
X140065581Y-103605250D01*
X140070797Y-103626074D01*
X140073947Y-103647309D01*
X140075000Y-103668750D01*
X140075000Y-104106250D01*
X140073947Y-104127691D01*
X140070797Y-104148926D01*
X140065581Y-104169750D01*
X140058349Y-104189962D01*
X140049170Y-104209368D01*
X140038134Y-104227781D01*
X140025346Y-104245024D01*
X140010930Y-104260930D01*
X139995024Y-104275346D01*
X139977781Y-104288134D01*
X139959368Y-104299170D01*
X139939962Y-104308349D01*
X139919750Y-104315581D01*
X139898926Y-104320797D01*
X139877691Y-104323947D01*
X139856250Y-104325000D01*
X139343750Y-104325000D01*
X139322309Y-104323947D01*
X139301074Y-104320797D01*
X139280250Y-104315581D01*
X139260038Y-104308349D01*
X139240632Y-104299170D01*
X139222219Y-104288134D01*
X139204976Y-104275346D01*
X139189070Y-104260930D01*
X139174654Y-104245024D01*
X139161866Y-104227781D01*
X139150830Y-104209368D01*
X139141651Y-104189962D01*
X139134419Y-104169750D01*
X139129203Y-104148926D01*
X139126053Y-104127691D01*
X139125000Y-104106250D01*
X139125000Y-103668750D01*
X139126053Y-103647309D01*
X139129203Y-103626074D01*
X139134419Y-103605250D01*
X139141651Y-103585038D01*
X139150830Y-103565632D01*
X139161866Y-103547219D01*
X139174654Y-103529976D01*
X139189070Y-103514070D01*
X139204976Y-103499654D01*
X139222219Y-103486866D01*
X139240632Y-103475830D01*
X139260038Y-103466651D01*
X139280250Y-103459419D01*
X139301074Y-103454203D01*
X139322309Y-103451053D01*
X139343750Y-103450000D01*
X139856250Y-103450000D01*
X139877691Y-103451053D01*
G37*
G36*
X121932642Y-95791174D02*
G01*
X121956303Y-95794684D01*
X121979507Y-95800496D01*
X122002029Y-95808554D01*
X122023653Y-95818782D01*
X122044170Y-95831079D01*
X122063383Y-95845329D01*
X122081107Y-95861393D01*
X122097171Y-95879117D01*
X122111421Y-95898330D01*
X122123718Y-95918847D01*
X122133946Y-95940471D01*
X122142004Y-95962993D01*
X122147816Y-95986197D01*
X122151326Y-96009858D01*
X122152500Y-96033750D01*
X122152500Y-96946250D01*
X122151326Y-96970142D01*
X122147816Y-96993803D01*
X122142004Y-97017007D01*
X122133946Y-97039529D01*
X122123718Y-97061153D01*
X122111421Y-97081670D01*
X122097171Y-97100883D01*
X122081107Y-97118607D01*
X122063383Y-97134671D01*
X122044170Y-97148921D01*
X122023653Y-97161218D01*
X122002029Y-97171446D01*
X121979507Y-97179504D01*
X121956303Y-97185316D01*
X121932642Y-97188826D01*
X121908750Y-97190000D01*
X121421250Y-97190000D01*
X121397358Y-97188826D01*
X121373697Y-97185316D01*
X121350493Y-97179504D01*
X121327971Y-97171446D01*
X121306347Y-97161218D01*
X121285830Y-97148921D01*
X121266617Y-97134671D01*
X121248893Y-97118607D01*
X121232829Y-97100883D01*
X121218579Y-97081670D01*
X121206282Y-97061153D01*
X121196054Y-97039529D01*
X121187996Y-97017007D01*
X121182184Y-96993803D01*
X121178674Y-96970142D01*
X121177500Y-96946250D01*
X121177500Y-96033750D01*
X121178674Y-96009858D01*
X121182184Y-95986197D01*
X121187996Y-95962993D01*
X121196054Y-95940471D01*
X121206282Y-95918847D01*
X121218579Y-95898330D01*
X121232829Y-95879117D01*
X121248893Y-95861393D01*
X121266617Y-95845329D01*
X121285830Y-95831079D01*
X121306347Y-95818782D01*
X121327971Y-95808554D01*
X121350493Y-95800496D01*
X121373697Y-95794684D01*
X121397358Y-95791174D01*
X121421250Y-95790000D01*
X121908750Y-95790000D01*
X121932642Y-95791174D01*
G37*
G36*
X123807642Y-95791174D02*
G01*
X123831303Y-95794684D01*
X123854507Y-95800496D01*
X123877029Y-95808554D01*
X123898653Y-95818782D01*
X123919170Y-95831079D01*
X123938383Y-95845329D01*
X123956107Y-95861393D01*
X123972171Y-95879117D01*
X123986421Y-95898330D01*
X123998718Y-95918847D01*
X124008946Y-95940471D01*
X124017004Y-95962993D01*
X124022816Y-95986197D01*
X124026326Y-96009858D01*
X124027500Y-96033750D01*
X124027500Y-96946250D01*
X124026326Y-96970142D01*
X124022816Y-96993803D01*
X124017004Y-97017007D01*
X124008946Y-97039529D01*
X123998718Y-97061153D01*
X123986421Y-97081670D01*
X123972171Y-97100883D01*
X123956107Y-97118607D01*
X123938383Y-97134671D01*
X123919170Y-97148921D01*
X123898653Y-97161218D01*
X123877029Y-97171446D01*
X123854507Y-97179504D01*
X123831303Y-97185316D01*
X123807642Y-97188826D01*
X123783750Y-97190000D01*
X123296250Y-97190000D01*
X123272358Y-97188826D01*
X123248697Y-97185316D01*
X123225493Y-97179504D01*
X123202971Y-97171446D01*
X123181347Y-97161218D01*
X123160830Y-97148921D01*
X123141617Y-97134671D01*
X123123893Y-97118607D01*
X123107829Y-97100883D01*
X123093579Y-97081670D01*
X123081282Y-97061153D01*
X123071054Y-97039529D01*
X123062996Y-97017007D01*
X123057184Y-96993803D01*
X123053674Y-96970142D01*
X123052500Y-96946250D01*
X123052500Y-96033750D01*
X123053674Y-96009858D01*
X123057184Y-95986197D01*
X123062996Y-95962993D01*
X123071054Y-95940471D01*
X123081282Y-95918847D01*
X123093579Y-95898330D01*
X123107829Y-95879117D01*
X123123893Y-95861393D01*
X123141617Y-95845329D01*
X123160830Y-95831079D01*
X123181347Y-95818782D01*
X123202971Y-95808554D01*
X123225493Y-95800496D01*
X123248697Y-95794684D01*
X123272358Y-95791174D01*
X123296250Y-95790000D01*
X123783750Y-95790000D01*
X123807642Y-95791174D01*
G37*
G36*
X124382642Y-109221174D02*
G01*
X124406303Y-109224684D01*
X124429507Y-109230496D01*
X124452029Y-109238554D01*
X124473653Y-109248782D01*
X124494170Y-109261079D01*
X124513383Y-109275329D01*
X124531107Y-109291393D01*
X124547171Y-109309117D01*
X124561421Y-109328330D01*
X124573718Y-109348847D01*
X124583946Y-109370471D01*
X124592004Y-109392993D01*
X124597816Y-109416197D01*
X124601326Y-109439858D01*
X124602500Y-109463750D01*
X124602500Y-110376250D01*
X124601326Y-110400142D01*
X124597816Y-110423803D01*
X124592004Y-110447007D01*
X124583946Y-110469529D01*
X124573718Y-110491153D01*
X124561421Y-110511670D01*
X124547171Y-110530883D01*
X124531107Y-110548607D01*
X124513383Y-110564671D01*
X124494170Y-110578921D01*
X124473653Y-110591218D01*
X124452029Y-110601446D01*
X124429507Y-110609504D01*
X124406303Y-110615316D01*
X124382642Y-110618826D01*
X124358750Y-110620000D01*
X123871250Y-110620000D01*
X123847358Y-110618826D01*
X123823697Y-110615316D01*
X123800493Y-110609504D01*
X123777971Y-110601446D01*
X123756347Y-110591218D01*
X123735830Y-110578921D01*
X123716617Y-110564671D01*
X123698893Y-110548607D01*
X123682829Y-110530883D01*
X123668579Y-110511670D01*
X123656282Y-110491153D01*
X123646054Y-110469529D01*
X123637996Y-110447007D01*
X123632184Y-110423803D01*
X123628674Y-110400142D01*
X123627500Y-110376250D01*
X123627500Y-109463750D01*
X123628674Y-109439858D01*
X123632184Y-109416197D01*
X123637996Y-109392993D01*
X123646054Y-109370471D01*
X123656282Y-109348847D01*
X123668579Y-109328330D01*
X123682829Y-109309117D01*
X123698893Y-109291393D01*
X123716617Y-109275329D01*
X123735830Y-109261079D01*
X123756347Y-109248782D01*
X123777971Y-109238554D01*
X123800493Y-109230496D01*
X123823697Y-109224684D01*
X123847358Y-109221174D01*
X123871250Y-109220000D01*
X124358750Y-109220000D01*
X124382642Y-109221174D01*
G37*
G36*
X126257642Y-109221174D02*
G01*
X126281303Y-109224684D01*
X126304507Y-109230496D01*
X126327029Y-109238554D01*
X126348653Y-109248782D01*
X126369170Y-109261079D01*
X126388383Y-109275329D01*
X126406107Y-109291393D01*
X126422171Y-109309117D01*
X126436421Y-109328330D01*
X126448718Y-109348847D01*
X126458946Y-109370471D01*
X126467004Y-109392993D01*
X126472816Y-109416197D01*
X126476326Y-109439858D01*
X126477500Y-109463750D01*
X126477500Y-110376250D01*
X126476326Y-110400142D01*
X126472816Y-110423803D01*
X126467004Y-110447007D01*
X126458946Y-110469529D01*
X126448718Y-110491153D01*
X126436421Y-110511670D01*
X126422171Y-110530883D01*
X126406107Y-110548607D01*
X126388383Y-110564671D01*
X126369170Y-110578921D01*
X126348653Y-110591218D01*
X126327029Y-110601446D01*
X126304507Y-110609504D01*
X126281303Y-110615316D01*
X126257642Y-110618826D01*
X126233750Y-110620000D01*
X125746250Y-110620000D01*
X125722358Y-110618826D01*
X125698697Y-110615316D01*
X125675493Y-110609504D01*
X125652971Y-110601446D01*
X125631347Y-110591218D01*
X125610830Y-110578921D01*
X125591617Y-110564671D01*
X125573893Y-110548607D01*
X125557829Y-110530883D01*
X125543579Y-110511670D01*
X125531282Y-110491153D01*
X125521054Y-110469529D01*
X125512996Y-110447007D01*
X125507184Y-110423803D01*
X125503674Y-110400142D01*
X125502500Y-110376250D01*
X125502500Y-109463750D01*
X125503674Y-109439858D01*
X125507184Y-109416197D01*
X125512996Y-109392993D01*
X125521054Y-109370471D01*
X125531282Y-109348847D01*
X125543579Y-109328330D01*
X125557829Y-109309117D01*
X125573893Y-109291393D01*
X125591617Y-109275329D01*
X125610830Y-109261079D01*
X125631347Y-109248782D01*
X125652971Y-109238554D01*
X125675493Y-109230496D01*
X125698697Y-109224684D01*
X125722358Y-109221174D01*
X125746250Y-109220000D01*
X126233750Y-109220000D01*
X126257642Y-109221174D01*
G37*
D13*
X141070000Y-104000000D03*
X143170000Y-104000000D03*
X137887500Y-104400000D03*
X135787500Y-104400000D03*
D11*
G36*
X133667691Y-100331053D02*
G01*
X133688926Y-100334203D01*
X133709750Y-100339419D01*
X133729962Y-100346651D01*
X133749368Y-100355830D01*
X133767781Y-100366866D01*
X133785024Y-100379654D01*
X133800930Y-100394070D01*
X133815346Y-100409976D01*
X133828134Y-100427219D01*
X133839170Y-100445632D01*
X133848349Y-100465038D01*
X133855581Y-100485250D01*
X133860797Y-100506074D01*
X133863947Y-100527309D01*
X133865000Y-100548750D01*
X133865000Y-100986250D01*
X133863947Y-101007691D01*
X133860797Y-101028926D01*
X133855581Y-101049750D01*
X133848349Y-101069962D01*
X133839170Y-101089368D01*
X133828134Y-101107781D01*
X133815346Y-101125024D01*
X133800930Y-101140930D01*
X133785024Y-101155346D01*
X133767781Y-101168134D01*
X133749368Y-101179170D01*
X133729962Y-101188349D01*
X133709750Y-101195581D01*
X133688926Y-101200797D01*
X133667691Y-101203947D01*
X133646250Y-101205000D01*
X133133750Y-101205000D01*
X133112309Y-101203947D01*
X133091074Y-101200797D01*
X133070250Y-101195581D01*
X133050038Y-101188349D01*
X133030632Y-101179170D01*
X133012219Y-101168134D01*
X132994976Y-101155346D01*
X132979070Y-101140930D01*
X132964654Y-101125024D01*
X132951866Y-101107781D01*
X132940830Y-101089368D01*
X132931651Y-101069962D01*
X132924419Y-101049750D01*
X132919203Y-101028926D01*
X132916053Y-101007691D01*
X132915000Y-100986250D01*
X132915000Y-100548750D01*
X132916053Y-100527309D01*
X132919203Y-100506074D01*
X132924419Y-100485250D01*
X132931651Y-100465038D01*
X132940830Y-100445632D01*
X132951866Y-100427219D01*
X132964654Y-100409976D01*
X132979070Y-100394070D01*
X132994976Y-100379654D01*
X133012219Y-100366866D01*
X133030632Y-100355830D01*
X133050038Y-100346651D01*
X133070250Y-100339419D01*
X133091074Y-100334203D01*
X133112309Y-100331053D01*
X133133750Y-100330000D01*
X133646250Y-100330000D01*
X133667691Y-100331053D01*
G37*
G36*
X133667691Y-98756053D02*
G01*
X133688926Y-98759203D01*
X133709750Y-98764419D01*
X133729962Y-98771651D01*
X133749368Y-98780830D01*
X133767781Y-98791866D01*
X133785024Y-98804654D01*
X133800930Y-98819070D01*
X133815346Y-98834976D01*
X133828134Y-98852219D01*
X133839170Y-98870632D01*
X133848349Y-98890038D01*
X133855581Y-98910250D01*
X133860797Y-98931074D01*
X133863947Y-98952309D01*
X133865000Y-98973750D01*
X133865000Y-99411250D01*
X133863947Y-99432691D01*
X133860797Y-99453926D01*
X133855581Y-99474750D01*
X133848349Y-99494962D01*
X133839170Y-99514368D01*
X133828134Y-99532781D01*
X133815346Y-99550024D01*
X133800930Y-99565930D01*
X133785024Y-99580346D01*
X133767781Y-99593134D01*
X133749368Y-99604170D01*
X133729962Y-99613349D01*
X133709750Y-99620581D01*
X133688926Y-99625797D01*
X133667691Y-99628947D01*
X133646250Y-99630000D01*
X133133750Y-99630000D01*
X133112309Y-99628947D01*
X133091074Y-99625797D01*
X133070250Y-99620581D01*
X133050038Y-99613349D01*
X133030632Y-99604170D01*
X133012219Y-99593134D01*
X132994976Y-99580346D01*
X132979070Y-99565930D01*
X132964654Y-99550024D01*
X132951866Y-99532781D01*
X132940830Y-99514368D01*
X132931651Y-99494962D01*
X132924419Y-99474750D01*
X132919203Y-99453926D01*
X132916053Y-99432691D01*
X132915000Y-99411250D01*
X132915000Y-98973750D01*
X132916053Y-98952309D01*
X132919203Y-98931074D01*
X132924419Y-98910250D01*
X132931651Y-98890038D01*
X132940830Y-98870632D01*
X132951866Y-98852219D01*
X132964654Y-98834976D01*
X132979070Y-98819070D01*
X132994976Y-98804654D01*
X133012219Y-98791866D01*
X133030632Y-98780830D01*
X133050038Y-98771651D01*
X133070250Y-98764419D01*
X133091074Y-98759203D01*
X133112309Y-98756053D01*
X133133750Y-98755000D01*
X133646250Y-98755000D01*
X133667691Y-98756053D01*
G37*
D14*
X115600000Y-105500000D03*
X116550000Y-105500000D03*
X114650000Y-105500000D03*
X114650000Y-103300000D03*
X115600000Y-103300000D03*
X116550000Y-103300000D03*
D11*
G36*
X121877691Y-90376053D02*
G01*
X121898926Y-90379203D01*
X121919750Y-90384419D01*
X121939962Y-90391651D01*
X121959368Y-90400830D01*
X121977781Y-90411866D01*
X121995024Y-90424654D01*
X122010930Y-90439070D01*
X122025346Y-90454976D01*
X122038134Y-90472219D01*
X122049170Y-90490632D01*
X122058349Y-90510038D01*
X122065581Y-90530250D01*
X122070797Y-90551074D01*
X122073947Y-90572309D01*
X122075000Y-90593750D01*
X122075000Y-91031250D01*
X122073947Y-91052691D01*
X122070797Y-91073926D01*
X122065581Y-91094750D01*
X122058349Y-91114962D01*
X122049170Y-91134368D01*
X122038134Y-91152781D01*
X122025346Y-91170024D01*
X122010930Y-91185930D01*
X121995024Y-91200346D01*
X121977781Y-91213134D01*
X121959368Y-91224170D01*
X121939962Y-91233349D01*
X121919750Y-91240581D01*
X121898926Y-91245797D01*
X121877691Y-91248947D01*
X121856250Y-91250000D01*
X121343750Y-91250000D01*
X121322309Y-91248947D01*
X121301074Y-91245797D01*
X121280250Y-91240581D01*
X121260038Y-91233349D01*
X121240632Y-91224170D01*
X121222219Y-91213134D01*
X121204976Y-91200346D01*
X121189070Y-91185930D01*
X121174654Y-91170024D01*
X121161866Y-91152781D01*
X121150830Y-91134368D01*
X121141651Y-91114962D01*
X121134419Y-91094750D01*
X121129203Y-91073926D01*
X121126053Y-91052691D01*
X121125000Y-91031250D01*
X121125000Y-90593750D01*
X121126053Y-90572309D01*
X121129203Y-90551074D01*
X121134419Y-90530250D01*
X121141651Y-90510038D01*
X121150830Y-90490632D01*
X121161866Y-90472219D01*
X121174654Y-90454976D01*
X121189070Y-90439070D01*
X121204976Y-90424654D01*
X121222219Y-90411866D01*
X121240632Y-90400830D01*
X121260038Y-90391651D01*
X121280250Y-90384419D01*
X121301074Y-90379203D01*
X121322309Y-90376053D01*
X121343750Y-90375000D01*
X121856250Y-90375000D01*
X121877691Y-90376053D01*
G37*
G36*
X121877691Y-91951053D02*
G01*
X121898926Y-91954203D01*
X121919750Y-91959419D01*
X121939962Y-91966651D01*
X121959368Y-91975830D01*
X121977781Y-91986866D01*
X121995024Y-91999654D01*
X122010930Y-92014070D01*
X122025346Y-92029976D01*
X122038134Y-92047219D01*
X122049170Y-92065632D01*
X122058349Y-92085038D01*
X122065581Y-92105250D01*
X122070797Y-92126074D01*
X122073947Y-92147309D01*
X122075000Y-92168750D01*
X122075000Y-92606250D01*
X122073947Y-92627691D01*
X122070797Y-92648926D01*
X122065581Y-92669750D01*
X122058349Y-92689962D01*
X122049170Y-92709368D01*
X122038134Y-92727781D01*
X122025346Y-92745024D01*
X122010930Y-92760930D01*
X121995024Y-92775346D01*
X121977781Y-92788134D01*
X121959368Y-92799170D01*
X121939962Y-92808349D01*
X121919750Y-92815581D01*
X121898926Y-92820797D01*
X121877691Y-92823947D01*
X121856250Y-92825000D01*
X121343750Y-92825000D01*
X121322309Y-92823947D01*
X121301074Y-92820797D01*
X121280250Y-92815581D01*
X121260038Y-92808349D01*
X121240632Y-92799170D01*
X121222219Y-92788134D01*
X121204976Y-92775346D01*
X121189070Y-92760930D01*
X121174654Y-92745024D01*
X121161866Y-92727781D01*
X121150830Y-92709368D01*
X121141651Y-92689962D01*
X121134419Y-92669750D01*
X121129203Y-92648926D01*
X121126053Y-92627691D01*
X121125000Y-92606250D01*
X121125000Y-92168750D01*
X121126053Y-92147309D01*
X121129203Y-92126074D01*
X121134419Y-92105250D01*
X121141651Y-92085038D01*
X121150830Y-92065632D01*
X121161866Y-92047219D01*
X121174654Y-92029976D01*
X121189070Y-92014070D01*
X121204976Y-91999654D01*
X121222219Y-91986866D01*
X121240632Y-91975830D01*
X121260038Y-91966651D01*
X121280250Y-91959419D01*
X121301074Y-91954203D01*
X121322309Y-91951053D01*
X121343750Y-91950000D01*
X121856250Y-91950000D01*
X121877691Y-91951053D01*
G37*
D15*
X130650000Y-85620000D03*
X126150000Y-85620000D03*
X126150000Y-93580000D03*
X130650000Y-93580000D03*
D11*
G36*
X135905142Y-95501174D02*
G01*
X135928803Y-95504684D01*
X135952007Y-95510496D01*
X135974529Y-95518554D01*
X135996153Y-95528782D01*
X136016670Y-95541079D01*
X136035883Y-95555329D01*
X136053607Y-95571393D01*
X136069671Y-95589117D01*
X136083921Y-95608330D01*
X136096218Y-95628847D01*
X136106446Y-95650471D01*
X136114504Y-95672993D01*
X136120316Y-95696197D01*
X136123826Y-95719858D01*
X136125000Y-95743750D01*
X136125000Y-96656250D01*
X136123826Y-96680142D01*
X136120316Y-96703803D01*
X136114504Y-96727007D01*
X136106446Y-96749529D01*
X136096218Y-96771153D01*
X136083921Y-96791670D01*
X136069671Y-96810883D01*
X136053607Y-96828607D01*
X136035883Y-96844671D01*
X136016670Y-96858921D01*
X135996153Y-96871218D01*
X135974529Y-96881446D01*
X135952007Y-96889504D01*
X135928803Y-96895316D01*
X135905142Y-96898826D01*
X135881250Y-96900000D01*
X135393750Y-96900000D01*
X135369858Y-96898826D01*
X135346197Y-96895316D01*
X135322993Y-96889504D01*
X135300471Y-96881446D01*
X135278847Y-96871218D01*
X135258330Y-96858921D01*
X135239117Y-96844671D01*
X135221393Y-96828607D01*
X135205329Y-96810883D01*
X135191079Y-96791670D01*
X135178782Y-96771153D01*
X135168554Y-96749529D01*
X135160496Y-96727007D01*
X135154684Y-96703803D01*
X135151174Y-96680142D01*
X135150000Y-96656250D01*
X135150000Y-95743750D01*
X135151174Y-95719858D01*
X135154684Y-95696197D01*
X135160496Y-95672993D01*
X135168554Y-95650471D01*
X135178782Y-95628847D01*
X135191079Y-95608330D01*
X135205329Y-95589117D01*
X135221393Y-95571393D01*
X135239117Y-95555329D01*
X135258330Y-95541079D01*
X135278847Y-95528782D01*
X135300471Y-95518554D01*
X135322993Y-95510496D01*
X135346197Y-95504684D01*
X135369858Y-95501174D01*
X135393750Y-95500000D01*
X135881250Y-95500000D01*
X135905142Y-95501174D01*
G37*
G36*
X134030142Y-95501174D02*
G01*
X134053803Y-95504684D01*
X134077007Y-95510496D01*
X134099529Y-95518554D01*
X134121153Y-95528782D01*
X134141670Y-95541079D01*
X134160883Y-95555329D01*
X134178607Y-95571393D01*
X134194671Y-95589117D01*
X134208921Y-95608330D01*
X134221218Y-95628847D01*
X134231446Y-95650471D01*
X134239504Y-95672993D01*
X134245316Y-95696197D01*
X134248826Y-95719858D01*
X134250000Y-95743750D01*
X134250000Y-96656250D01*
X134248826Y-96680142D01*
X134245316Y-96703803D01*
X134239504Y-96727007D01*
X134231446Y-96749529D01*
X134221218Y-96771153D01*
X134208921Y-96791670D01*
X134194671Y-96810883D01*
X134178607Y-96828607D01*
X134160883Y-96844671D01*
X134141670Y-96858921D01*
X134121153Y-96871218D01*
X134099529Y-96881446D01*
X134077007Y-96889504D01*
X134053803Y-96895316D01*
X134030142Y-96898826D01*
X134006250Y-96900000D01*
X133518750Y-96900000D01*
X133494858Y-96898826D01*
X133471197Y-96895316D01*
X133447993Y-96889504D01*
X133425471Y-96881446D01*
X133403847Y-96871218D01*
X133383330Y-96858921D01*
X133364117Y-96844671D01*
X133346393Y-96828607D01*
X133330329Y-96810883D01*
X133316079Y-96791670D01*
X133303782Y-96771153D01*
X133293554Y-96749529D01*
X133285496Y-96727007D01*
X133279684Y-96703803D01*
X133276174Y-96680142D01*
X133275000Y-96656250D01*
X133275000Y-95743750D01*
X133276174Y-95719858D01*
X133279684Y-95696197D01*
X133285496Y-95672993D01*
X133293554Y-95650471D01*
X133303782Y-95628847D01*
X133316079Y-95608330D01*
X133330329Y-95589117D01*
X133346393Y-95571393D01*
X133364117Y-95555329D01*
X133383330Y-95541079D01*
X133403847Y-95528782D01*
X133425471Y-95518554D01*
X133447993Y-95510496D01*
X133471197Y-95504684D01*
X133494858Y-95501174D01*
X133518750Y-95500000D01*
X134006250Y-95500000D01*
X134030142Y-95501174D01*
G37*
G36*
X139877691Y-95576053D02*
G01*
X139898926Y-95579203D01*
X139919750Y-95584419D01*
X139939962Y-95591651D01*
X139959368Y-95600830D01*
X139977781Y-95611866D01*
X139995024Y-95624654D01*
X140010930Y-95639070D01*
X140025346Y-95654976D01*
X140038134Y-95672219D01*
X140049170Y-95690632D01*
X140058349Y-95710038D01*
X140065581Y-95730250D01*
X140070797Y-95751074D01*
X140073947Y-95772309D01*
X140075000Y-95793750D01*
X140075000Y-96231250D01*
X140073947Y-96252691D01*
X140070797Y-96273926D01*
X140065581Y-96294750D01*
X140058349Y-96314962D01*
X140049170Y-96334368D01*
X140038134Y-96352781D01*
X140025346Y-96370024D01*
X140010930Y-96385930D01*
X139995024Y-96400346D01*
X139977781Y-96413134D01*
X139959368Y-96424170D01*
X139939962Y-96433349D01*
X139919750Y-96440581D01*
X139898926Y-96445797D01*
X139877691Y-96448947D01*
X139856250Y-96450000D01*
X139343750Y-96450000D01*
X139322309Y-96448947D01*
X139301074Y-96445797D01*
X139280250Y-96440581D01*
X139260038Y-96433349D01*
X139240632Y-96424170D01*
X139222219Y-96413134D01*
X139204976Y-96400346D01*
X139189070Y-96385930D01*
X139174654Y-96370024D01*
X139161866Y-96352781D01*
X139150830Y-96334368D01*
X139141651Y-96314962D01*
X139134419Y-96294750D01*
X139129203Y-96273926D01*
X139126053Y-96252691D01*
X139125000Y-96231250D01*
X139125000Y-95793750D01*
X139126053Y-95772309D01*
X139129203Y-95751074D01*
X139134419Y-95730250D01*
X139141651Y-95710038D01*
X139150830Y-95690632D01*
X139161866Y-95672219D01*
X139174654Y-95654976D01*
X139189070Y-95639070D01*
X139204976Y-95624654D01*
X139222219Y-95611866D01*
X139240632Y-95600830D01*
X139260038Y-95591651D01*
X139280250Y-95584419D01*
X139301074Y-95579203D01*
X139322309Y-95576053D01*
X139343750Y-95575000D01*
X139856250Y-95575000D01*
X139877691Y-95576053D01*
G37*
G36*
X139877691Y-97151053D02*
G01*
X139898926Y-97154203D01*
X139919750Y-97159419D01*
X139939962Y-97166651D01*
X139959368Y-97175830D01*
X139977781Y-97186866D01*
X139995024Y-97199654D01*
X140010930Y-97214070D01*
X140025346Y-97229976D01*
X140038134Y-97247219D01*
X140049170Y-97265632D01*
X140058349Y-97285038D01*
X140065581Y-97305250D01*
X140070797Y-97326074D01*
X140073947Y-97347309D01*
X140075000Y-97368750D01*
X140075000Y-97806250D01*
X140073947Y-97827691D01*
X140070797Y-97848926D01*
X140065581Y-97869750D01*
X140058349Y-97889962D01*
X140049170Y-97909368D01*
X140038134Y-97927781D01*
X140025346Y-97945024D01*
X140010930Y-97960930D01*
X139995024Y-97975346D01*
X139977781Y-97988134D01*
X139959368Y-97999170D01*
X139939962Y-98008349D01*
X139919750Y-98015581D01*
X139898926Y-98020797D01*
X139877691Y-98023947D01*
X139856250Y-98025000D01*
X139343750Y-98025000D01*
X139322309Y-98023947D01*
X139301074Y-98020797D01*
X139280250Y-98015581D01*
X139260038Y-98008349D01*
X139240632Y-97999170D01*
X139222219Y-97988134D01*
X139204976Y-97975346D01*
X139189070Y-97960930D01*
X139174654Y-97945024D01*
X139161866Y-97927781D01*
X139150830Y-97909368D01*
X139141651Y-97889962D01*
X139134419Y-97869750D01*
X139129203Y-97848926D01*
X139126053Y-97827691D01*
X139125000Y-97806250D01*
X139125000Y-97368750D01*
X139126053Y-97347309D01*
X139129203Y-97326074D01*
X139134419Y-97305250D01*
X139141651Y-97285038D01*
X139150830Y-97265632D01*
X139161866Y-97247219D01*
X139174654Y-97229976D01*
X139189070Y-97214070D01*
X139204976Y-97199654D01*
X139222219Y-97186866D01*
X139240632Y-97175830D01*
X139260038Y-97166651D01*
X139280250Y-97159419D01*
X139301074Y-97154203D01*
X139322309Y-97151053D01*
X139343750Y-97150000D01*
X139856250Y-97150000D01*
X139877691Y-97151053D01*
G37*
G36*
X134877691Y-90276053D02*
G01*
X134898926Y-90279203D01*
X134919750Y-90284419D01*
X134939962Y-90291651D01*
X134959368Y-90300830D01*
X134977781Y-90311866D01*
X134995024Y-90324654D01*
X135010930Y-90339070D01*
X135025346Y-90354976D01*
X135038134Y-90372219D01*
X135049170Y-90390632D01*
X135058349Y-90410038D01*
X135065581Y-90430250D01*
X135070797Y-90451074D01*
X135073947Y-90472309D01*
X135075000Y-90493750D01*
X135075000Y-90931250D01*
X135073947Y-90952691D01*
X135070797Y-90973926D01*
X135065581Y-90994750D01*
X135058349Y-91014962D01*
X135049170Y-91034368D01*
X135038134Y-91052781D01*
X135025346Y-91070024D01*
X135010930Y-91085930D01*
X134995024Y-91100346D01*
X134977781Y-91113134D01*
X134959368Y-91124170D01*
X134939962Y-91133349D01*
X134919750Y-91140581D01*
X134898926Y-91145797D01*
X134877691Y-91148947D01*
X134856250Y-91150000D01*
X134343750Y-91150000D01*
X134322309Y-91148947D01*
X134301074Y-91145797D01*
X134280250Y-91140581D01*
X134260038Y-91133349D01*
X134240632Y-91124170D01*
X134222219Y-91113134D01*
X134204976Y-91100346D01*
X134189070Y-91085930D01*
X134174654Y-91070024D01*
X134161866Y-91052781D01*
X134150830Y-91034368D01*
X134141651Y-91014962D01*
X134134419Y-90994750D01*
X134129203Y-90973926D01*
X134126053Y-90952691D01*
X134125000Y-90931250D01*
X134125000Y-90493750D01*
X134126053Y-90472309D01*
X134129203Y-90451074D01*
X134134419Y-90430250D01*
X134141651Y-90410038D01*
X134150830Y-90390632D01*
X134161866Y-90372219D01*
X134174654Y-90354976D01*
X134189070Y-90339070D01*
X134204976Y-90324654D01*
X134222219Y-90311866D01*
X134240632Y-90300830D01*
X134260038Y-90291651D01*
X134280250Y-90284419D01*
X134301074Y-90279203D01*
X134322309Y-90276053D01*
X134343750Y-90275000D01*
X134856250Y-90275000D01*
X134877691Y-90276053D01*
G37*
G36*
X134877691Y-91851053D02*
G01*
X134898926Y-91854203D01*
X134919750Y-91859419D01*
X134939962Y-91866651D01*
X134959368Y-91875830D01*
X134977781Y-91886866D01*
X134995024Y-91899654D01*
X135010930Y-91914070D01*
X135025346Y-91929976D01*
X135038134Y-91947219D01*
X135049170Y-91965632D01*
X135058349Y-91985038D01*
X135065581Y-92005250D01*
X135070797Y-92026074D01*
X135073947Y-92047309D01*
X135075000Y-92068750D01*
X135075000Y-92506250D01*
X135073947Y-92527691D01*
X135070797Y-92548926D01*
X135065581Y-92569750D01*
X135058349Y-92589962D01*
X135049170Y-92609368D01*
X135038134Y-92627781D01*
X135025346Y-92645024D01*
X135010930Y-92660930D01*
X134995024Y-92675346D01*
X134977781Y-92688134D01*
X134959368Y-92699170D01*
X134939962Y-92708349D01*
X134919750Y-92715581D01*
X134898926Y-92720797D01*
X134877691Y-92723947D01*
X134856250Y-92725000D01*
X134343750Y-92725000D01*
X134322309Y-92723947D01*
X134301074Y-92720797D01*
X134280250Y-92715581D01*
X134260038Y-92708349D01*
X134240632Y-92699170D01*
X134222219Y-92688134D01*
X134204976Y-92675346D01*
X134189070Y-92660930D01*
X134174654Y-92645024D01*
X134161866Y-92627781D01*
X134150830Y-92609368D01*
X134141651Y-92589962D01*
X134134419Y-92569750D01*
X134129203Y-92548926D01*
X134126053Y-92527691D01*
X134125000Y-92506250D01*
X134125000Y-92068750D01*
X134126053Y-92047309D01*
X134129203Y-92026074D01*
X134134419Y-92005250D01*
X134141651Y-91985038D01*
X134150830Y-91965632D01*
X134161866Y-91947219D01*
X134174654Y-91929976D01*
X134189070Y-91914070D01*
X134204976Y-91899654D01*
X134222219Y-91886866D01*
X134240632Y-91875830D01*
X134260038Y-91866651D01*
X134280250Y-91859419D01*
X134301074Y-91854203D01*
X134322309Y-91851053D01*
X134343750Y-91850000D01*
X134856250Y-91850000D01*
X134877691Y-91851053D01*
G37*
G36*
X162830191Y-92106053D02*
G01*
X162851426Y-92109203D01*
X162872250Y-92114419D01*
X162892462Y-92121651D01*
X162911868Y-92130830D01*
X162930281Y-92141866D01*
X162947524Y-92154654D01*
X162963430Y-92169070D01*
X162977846Y-92184976D01*
X162990634Y-92202219D01*
X163001670Y-92220632D01*
X163010849Y-92240038D01*
X163018081Y-92260250D01*
X163023297Y-92281074D01*
X163026447Y-92302309D01*
X163027500Y-92323750D01*
X163027500Y-92836250D01*
X163026447Y-92857691D01*
X163023297Y-92878926D01*
X163018081Y-92899750D01*
X163010849Y-92919962D01*
X163001670Y-92939368D01*
X162990634Y-92957781D01*
X162977846Y-92975024D01*
X162963430Y-92990930D01*
X162947524Y-93005346D01*
X162930281Y-93018134D01*
X162911868Y-93029170D01*
X162892462Y-93038349D01*
X162872250Y-93045581D01*
X162851426Y-93050797D01*
X162830191Y-93053947D01*
X162808750Y-93055000D01*
X162371250Y-93055000D01*
X162349809Y-93053947D01*
X162328574Y-93050797D01*
X162307750Y-93045581D01*
X162287538Y-93038349D01*
X162268132Y-93029170D01*
X162249719Y-93018134D01*
X162232476Y-93005346D01*
X162216570Y-92990930D01*
X162202154Y-92975024D01*
X162189366Y-92957781D01*
X162178330Y-92939368D01*
X162169151Y-92919962D01*
X162161919Y-92899750D01*
X162156703Y-92878926D01*
X162153553Y-92857691D01*
X162152500Y-92836250D01*
X162152500Y-92323750D01*
X162153553Y-92302309D01*
X162156703Y-92281074D01*
X162161919Y-92260250D01*
X162169151Y-92240038D01*
X162178330Y-92220632D01*
X162189366Y-92202219D01*
X162202154Y-92184976D01*
X162216570Y-92169070D01*
X162232476Y-92154654D01*
X162249719Y-92141866D01*
X162268132Y-92130830D01*
X162287538Y-92121651D01*
X162307750Y-92114419D01*
X162328574Y-92109203D01*
X162349809Y-92106053D01*
X162371250Y-92105000D01*
X162808750Y-92105000D01*
X162830191Y-92106053D01*
G37*
G36*
X161255191Y-92106053D02*
G01*
X161276426Y-92109203D01*
X161297250Y-92114419D01*
X161317462Y-92121651D01*
X161336868Y-92130830D01*
X161355281Y-92141866D01*
X161372524Y-92154654D01*
X161388430Y-92169070D01*
X161402846Y-92184976D01*
X161415634Y-92202219D01*
X161426670Y-92220632D01*
X161435849Y-92240038D01*
X161443081Y-92260250D01*
X161448297Y-92281074D01*
X161451447Y-92302309D01*
X161452500Y-92323750D01*
X161452500Y-92836250D01*
X161451447Y-92857691D01*
X161448297Y-92878926D01*
X161443081Y-92899750D01*
X161435849Y-92919962D01*
X161426670Y-92939368D01*
X161415634Y-92957781D01*
X161402846Y-92975024D01*
X161388430Y-92990930D01*
X161372524Y-93005346D01*
X161355281Y-93018134D01*
X161336868Y-93029170D01*
X161317462Y-93038349D01*
X161297250Y-93045581D01*
X161276426Y-93050797D01*
X161255191Y-93053947D01*
X161233750Y-93055000D01*
X160796250Y-93055000D01*
X160774809Y-93053947D01*
X160753574Y-93050797D01*
X160732750Y-93045581D01*
X160712538Y-93038349D01*
X160693132Y-93029170D01*
X160674719Y-93018134D01*
X160657476Y-93005346D01*
X160641570Y-92990930D01*
X160627154Y-92975024D01*
X160614366Y-92957781D01*
X160603330Y-92939368D01*
X160594151Y-92919962D01*
X160586919Y-92899750D01*
X160581703Y-92878926D01*
X160578553Y-92857691D01*
X160577500Y-92836250D01*
X160577500Y-92323750D01*
X160578553Y-92302309D01*
X160581703Y-92281074D01*
X160586919Y-92260250D01*
X160594151Y-92240038D01*
X160603330Y-92220632D01*
X160614366Y-92202219D01*
X160627154Y-92184976D01*
X160641570Y-92169070D01*
X160657476Y-92154654D01*
X160674719Y-92141866D01*
X160693132Y-92130830D01*
X160712538Y-92121651D01*
X160732750Y-92114419D01*
X160753574Y-92109203D01*
X160774809Y-92106053D01*
X160796250Y-92105000D01*
X161233750Y-92105000D01*
X161255191Y-92106053D01*
G37*
G36*
X121877691Y-88751053D02*
G01*
X121898926Y-88754203D01*
X121919750Y-88759419D01*
X121939962Y-88766651D01*
X121959368Y-88775830D01*
X121977781Y-88786866D01*
X121995024Y-88799654D01*
X122010930Y-88814070D01*
X122025346Y-88829976D01*
X122038134Y-88847219D01*
X122049170Y-88865632D01*
X122058349Y-88885038D01*
X122065581Y-88905250D01*
X122070797Y-88926074D01*
X122073947Y-88947309D01*
X122075000Y-88968750D01*
X122075000Y-89406250D01*
X122073947Y-89427691D01*
X122070797Y-89448926D01*
X122065581Y-89469750D01*
X122058349Y-89489962D01*
X122049170Y-89509368D01*
X122038134Y-89527781D01*
X122025346Y-89545024D01*
X122010930Y-89560930D01*
X121995024Y-89575346D01*
X121977781Y-89588134D01*
X121959368Y-89599170D01*
X121939962Y-89608349D01*
X121919750Y-89615581D01*
X121898926Y-89620797D01*
X121877691Y-89623947D01*
X121856250Y-89625000D01*
X121343750Y-89625000D01*
X121322309Y-89623947D01*
X121301074Y-89620797D01*
X121280250Y-89615581D01*
X121260038Y-89608349D01*
X121240632Y-89599170D01*
X121222219Y-89588134D01*
X121204976Y-89575346D01*
X121189070Y-89560930D01*
X121174654Y-89545024D01*
X121161866Y-89527781D01*
X121150830Y-89509368D01*
X121141651Y-89489962D01*
X121134419Y-89469750D01*
X121129203Y-89448926D01*
X121126053Y-89427691D01*
X121125000Y-89406250D01*
X121125000Y-88968750D01*
X121126053Y-88947309D01*
X121129203Y-88926074D01*
X121134419Y-88905250D01*
X121141651Y-88885038D01*
X121150830Y-88865632D01*
X121161866Y-88847219D01*
X121174654Y-88829976D01*
X121189070Y-88814070D01*
X121204976Y-88799654D01*
X121222219Y-88786866D01*
X121240632Y-88775830D01*
X121260038Y-88766651D01*
X121280250Y-88759419D01*
X121301074Y-88754203D01*
X121322309Y-88751053D01*
X121343750Y-88750000D01*
X121856250Y-88750000D01*
X121877691Y-88751053D01*
G37*
G36*
X121877691Y-87176053D02*
G01*
X121898926Y-87179203D01*
X121919750Y-87184419D01*
X121939962Y-87191651D01*
X121959368Y-87200830D01*
X121977781Y-87211866D01*
X121995024Y-87224654D01*
X122010930Y-87239070D01*
X122025346Y-87254976D01*
X122038134Y-87272219D01*
X122049170Y-87290632D01*
X122058349Y-87310038D01*
X122065581Y-87330250D01*
X122070797Y-87351074D01*
X122073947Y-87372309D01*
X122075000Y-87393750D01*
X122075000Y-87831250D01*
X122073947Y-87852691D01*
X122070797Y-87873926D01*
X122065581Y-87894750D01*
X122058349Y-87914962D01*
X122049170Y-87934368D01*
X122038134Y-87952781D01*
X122025346Y-87970024D01*
X122010930Y-87985930D01*
X121995024Y-88000346D01*
X121977781Y-88013134D01*
X121959368Y-88024170D01*
X121939962Y-88033349D01*
X121919750Y-88040581D01*
X121898926Y-88045797D01*
X121877691Y-88048947D01*
X121856250Y-88050000D01*
X121343750Y-88050000D01*
X121322309Y-88048947D01*
X121301074Y-88045797D01*
X121280250Y-88040581D01*
X121260038Y-88033349D01*
X121240632Y-88024170D01*
X121222219Y-88013134D01*
X121204976Y-88000346D01*
X121189070Y-87985930D01*
X121174654Y-87970024D01*
X121161866Y-87952781D01*
X121150830Y-87934368D01*
X121141651Y-87914962D01*
X121134419Y-87894750D01*
X121129203Y-87873926D01*
X121126053Y-87852691D01*
X121125000Y-87831250D01*
X121125000Y-87393750D01*
X121126053Y-87372309D01*
X121129203Y-87351074D01*
X121134419Y-87330250D01*
X121141651Y-87310038D01*
X121150830Y-87290632D01*
X121161866Y-87272219D01*
X121174654Y-87254976D01*
X121189070Y-87239070D01*
X121204976Y-87224654D01*
X121222219Y-87211866D01*
X121240632Y-87200830D01*
X121260038Y-87191651D01*
X121280250Y-87184419D01*
X121301074Y-87179203D01*
X121322309Y-87176053D01*
X121343750Y-87175000D01*
X121856250Y-87175000D01*
X121877691Y-87176053D01*
G37*
G36*
X155537691Y-104951053D02*
G01*
X155558926Y-104954203D01*
X155579750Y-104959419D01*
X155599962Y-104966651D01*
X155619368Y-104975830D01*
X155637781Y-104986866D01*
X155655024Y-104999654D01*
X155670930Y-105014070D01*
X155685346Y-105029976D01*
X155698134Y-105047219D01*
X155709170Y-105065632D01*
X155718349Y-105085038D01*
X155725581Y-105105250D01*
X155730797Y-105126074D01*
X155733947Y-105147309D01*
X155735000Y-105168750D01*
X155735000Y-105606250D01*
X155733947Y-105627691D01*
X155730797Y-105648926D01*
X155725581Y-105669750D01*
X155718349Y-105689962D01*
X155709170Y-105709368D01*
X155698134Y-105727781D01*
X155685346Y-105745024D01*
X155670930Y-105760930D01*
X155655024Y-105775346D01*
X155637781Y-105788134D01*
X155619368Y-105799170D01*
X155599962Y-105808349D01*
X155579750Y-105815581D01*
X155558926Y-105820797D01*
X155537691Y-105823947D01*
X155516250Y-105825000D01*
X155003750Y-105825000D01*
X154982309Y-105823947D01*
X154961074Y-105820797D01*
X154940250Y-105815581D01*
X154920038Y-105808349D01*
X154900632Y-105799170D01*
X154882219Y-105788134D01*
X154864976Y-105775346D01*
X154849070Y-105760930D01*
X154834654Y-105745024D01*
X154821866Y-105727781D01*
X154810830Y-105709368D01*
X154801651Y-105689962D01*
X154794419Y-105669750D01*
X154789203Y-105648926D01*
X154786053Y-105627691D01*
X154785000Y-105606250D01*
X154785000Y-105168750D01*
X154786053Y-105147309D01*
X154789203Y-105126074D01*
X154794419Y-105105250D01*
X154801651Y-105085038D01*
X154810830Y-105065632D01*
X154821866Y-105047219D01*
X154834654Y-105029976D01*
X154849070Y-105014070D01*
X154864976Y-104999654D01*
X154882219Y-104986866D01*
X154900632Y-104975830D01*
X154920038Y-104966651D01*
X154940250Y-104959419D01*
X154961074Y-104954203D01*
X154982309Y-104951053D01*
X155003750Y-104950000D01*
X155516250Y-104950000D01*
X155537691Y-104951053D01*
G37*
G36*
X155537691Y-103376053D02*
G01*
X155558926Y-103379203D01*
X155579750Y-103384419D01*
X155599962Y-103391651D01*
X155619368Y-103400830D01*
X155637781Y-103411866D01*
X155655024Y-103424654D01*
X155670930Y-103439070D01*
X155685346Y-103454976D01*
X155698134Y-103472219D01*
X155709170Y-103490632D01*
X155718349Y-103510038D01*
X155725581Y-103530250D01*
X155730797Y-103551074D01*
X155733947Y-103572309D01*
X155735000Y-103593750D01*
X155735000Y-104031250D01*
X155733947Y-104052691D01*
X155730797Y-104073926D01*
X155725581Y-104094750D01*
X155718349Y-104114962D01*
X155709170Y-104134368D01*
X155698134Y-104152781D01*
X155685346Y-104170024D01*
X155670930Y-104185930D01*
X155655024Y-104200346D01*
X155637781Y-104213134D01*
X155619368Y-104224170D01*
X155599962Y-104233349D01*
X155579750Y-104240581D01*
X155558926Y-104245797D01*
X155537691Y-104248947D01*
X155516250Y-104250000D01*
X155003750Y-104250000D01*
X154982309Y-104248947D01*
X154961074Y-104245797D01*
X154940250Y-104240581D01*
X154920038Y-104233349D01*
X154900632Y-104224170D01*
X154882219Y-104213134D01*
X154864976Y-104200346D01*
X154849070Y-104185930D01*
X154834654Y-104170024D01*
X154821866Y-104152781D01*
X154810830Y-104134368D01*
X154801651Y-104114962D01*
X154794419Y-104094750D01*
X154789203Y-104073926D01*
X154786053Y-104052691D01*
X154785000Y-104031250D01*
X154785000Y-103593750D01*
X154786053Y-103572309D01*
X154789203Y-103551074D01*
X154794419Y-103530250D01*
X154801651Y-103510038D01*
X154810830Y-103490632D01*
X154821866Y-103472219D01*
X154834654Y-103454976D01*
X154849070Y-103439070D01*
X154864976Y-103424654D01*
X154882219Y-103411866D01*
X154900632Y-103400830D01*
X154920038Y-103391651D01*
X154940250Y-103384419D01*
X154961074Y-103379203D01*
X154982309Y-103376053D01*
X155003750Y-103375000D01*
X155516250Y-103375000D01*
X155537691Y-103376053D01*
G37*
G36*
X111452691Y-102526053D02*
G01*
X111473926Y-102529203D01*
X111494750Y-102534419D01*
X111514962Y-102541651D01*
X111534368Y-102550830D01*
X111552781Y-102561866D01*
X111570024Y-102574654D01*
X111585930Y-102589070D01*
X111600346Y-102604976D01*
X111613134Y-102622219D01*
X111624170Y-102640632D01*
X111633349Y-102660038D01*
X111640581Y-102680250D01*
X111645797Y-102701074D01*
X111648947Y-102722309D01*
X111650000Y-102743750D01*
X111650000Y-103256250D01*
X111648947Y-103277691D01*
X111645797Y-103298926D01*
X111640581Y-103319750D01*
X111633349Y-103339962D01*
X111624170Y-103359368D01*
X111613134Y-103377781D01*
X111600346Y-103395024D01*
X111585930Y-103410930D01*
X111570024Y-103425346D01*
X111552781Y-103438134D01*
X111534368Y-103449170D01*
X111514962Y-103458349D01*
X111494750Y-103465581D01*
X111473926Y-103470797D01*
X111452691Y-103473947D01*
X111431250Y-103475000D01*
X110993750Y-103475000D01*
X110972309Y-103473947D01*
X110951074Y-103470797D01*
X110930250Y-103465581D01*
X110910038Y-103458349D01*
X110890632Y-103449170D01*
X110872219Y-103438134D01*
X110854976Y-103425346D01*
X110839070Y-103410930D01*
X110824654Y-103395024D01*
X110811866Y-103377781D01*
X110800830Y-103359368D01*
X110791651Y-103339962D01*
X110784419Y-103319750D01*
X110779203Y-103298926D01*
X110776053Y-103277691D01*
X110775000Y-103256250D01*
X110775000Y-102743750D01*
X110776053Y-102722309D01*
X110779203Y-102701074D01*
X110784419Y-102680250D01*
X110791651Y-102660038D01*
X110800830Y-102640632D01*
X110811866Y-102622219D01*
X110824654Y-102604976D01*
X110839070Y-102589070D01*
X110854976Y-102574654D01*
X110872219Y-102561866D01*
X110890632Y-102550830D01*
X110910038Y-102541651D01*
X110930250Y-102534419D01*
X110951074Y-102529203D01*
X110972309Y-102526053D01*
X110993750Y-102525000D01*
X111431250Y-102525000D01*
X111452691Y-102526053D01*
G37*
G36*
X113027691Y-102526053D02*
G01*
X113048926Y-102529203D01*
X113069750Y-102534419D01*
X113089962Y-102541651D01*
X113109368Y-102550830D01*
X113127781Y-102561866D01*
X113145024Y-102574654D01*
X113160930Y-102589070D01*
X113175346Y-102604976D01*
X113188134Y-102622219D01*
X113199170Y-102640632D01*
X113208349Y-102660038D01*
X113215581Y-102680250D01*
X113220797Y-102701074D01*
X113223947Y-102722309D01*
X113225000Y-102743750D01*
X113225000Y-103256250D01*
X113223947Y-103277691D01*
X113220797Y-103298926D01*
X113215581Y-103319750D01*
X113208349Y-103339962D01*
X113199170Y-103359368D01*
X113188134Y-103377781D01*
X113175346Y-103395024D01*
X113160930Y-103410930D01*
X113145024Y-103425346D01*
X113127781Y-103438134D01*
X113109368Y-103449170D01*
X113089962Y-103458349D01*
X113069750Y-103465581D01*
X113048926Y-103470797D01*
X113027691Y-103473947D01*
X113006250Y-103475000D01*
X112568750Y-103475000D01*
X112547309Y-103473947D01*
X112526074Y-103470797D01*
X112505250Y-103465581D01*
X112485038Y-103458349D01*
X112465632Y-103449170D01*
X112447219Y-103438134D01*
X112429976Y-103425346D01*
X112414070Y-103410930D01*
X112399654Y-103395024D01*
X112386866Y-103377781D01*
X112375830Y-103359368D01*
X112366651Y-103339962D01*
X112359419Y-103319750D01*
X112354203Y-103298926D01*
X112351053Y-103277691D01*
X112350000Y-103256250D01*
X112350000Y-102743750D01*
X112351053Y-102722309D01*
X112354203Y-102701074D01*
X112359419Y-102680250D01*
X112366651Y-102660038D01*
X112375830Y-102640632D01*
X112386866Y-102622219D01*
X112399654Y-102604976D01*
X112414070Y-102589070D01*
X112429976Y-102574654D01*
X112447219Y-102561866D01*
X112465632Y-102550830D01*
X112485038Y-102541651D01*
X112505250Y-102534419D01*
X112526074Y-102529203D01*
X112547309Y-102526053D01*
X112568750Y-102525000D01*
X113006250Y-102525000D01*
X113027691Y-102526053D01*
G37*
G36*
X152364703Y-92890722D02*
G01*
X152379264Y-92892882D01*
X152393543Y-92896459D01*
X152407403Y-92901418D01*
X152420710Y-92907712D01*
X152433336Y-92915280D01*
X152445159Y-92924048D01*
X152456066Y-92933934D01*
X152465952Y-92944841D01*
X152474720Y-92956664D01*
X152482288Y-92969290D01*
X152488582Y-92982597D01*
X152493541Y-92996457D01*
X152497118Y-93010736D01*
X152499278Y-93025297D01*
X152500000Y-93040000D01*
X152500000Y-93340000D01*
X152499278Y-93354703D01*
X152497118Y-93369264D01*
X152493541Y-93383543D01*
X152488582Y-93397403D01*
X152482288Y-93410710D01*
X152474720Y-93423336D01*
X152465952Y-93435159D01*
X152456066Y-93446066D01*
X152445159Y-93455952D01*
X152433336Y-93464720D01*
X152420710Y-93472288D01*
X152407403Y-93478582D01*
X152393543Y-93483541D01*
X152379264Y-93487118D01*
X152364703Y-93489278D01*
X152350000Y-93490000D01*
X150700000Y-93490000D01*
X150685297Y-93489278D01*
X150670736Y-93487118D01*
X150656457Y-93483541D01*
X150642597Y-93478582D01*
X150629290Y-93472288D01*
X150616664Y-93464720D01*
X150604841Y-93455952D01*
X150593934Y-93446066D01*
X150584048Y-93435159D01*
X150575280Y-93423336D01*
X150567712Y-93410710D01*
X150561418Y-93397403D01*
X150556459Y-93383543D01*
X150552882Y-93369264D01*
X150550722Y-93354703D01*
X150550000Y-93340000D01*
X150550000Y-93040000D01*
X150550722Y-93025297D01*
X150552882Y-93010736D01*
X150556459Y-92996457D01*
X150561418Y-92982597D01*
X150567712Y-92969290D01*
X150575280Y-92956664D01*
X150584048Y-92944841D01*
X150593934Y-92933934D01*
X150604841Y-92924048D01*
X150616664Y-92915280D01*
X150629290Y-92907712D01*
X150642597Y-92901418D01*
X150656457Y-92896459D01*
X150670736Y-92892882D01*
X150685297Y-92890722D01*
X150700000Y-92890000D01*
X152350000Y-92890000D01*
X152364703Y-92890722D01*
G37*
G36*
X152364703Y-94160722D02*
G01*
X152379264Y-94162882D01*
X152393543Y-94166459D01*
X152407403Y-94171418D01*
X152420710Y-94177712D01*
X152433336Y-94185280D01*
X152445159Y-94194048D01*
X152456066Y-94203934D01*
X152465952Y-94214841D01*
X152474720Y-94226664D01*
X152482288Y-94239290D01*
X152488582Y-94252597D01*
X152493541Y-94266457D01*
X152497118Y-94280736D01*
X152499278Y-94295297D01*
X152500000Y-94310000D01*
X152500000Y-94610000D01*
X152499278Y-94624703D01*
X152497118Y-94639264D01*
X152493541Y-94653543D01*
X152488582Y-94667403D01*
X152482288Y-94680710D01*
X152474720Y-94693336D01*
X152465952Y-94705159D01*
X152456066Y-94716066D01*
X152445159Y-94725952D01*
X152433336Y-94734720D01*
X152420710Y-94742288D01*
X152407403Y-94748582D01*
X152393543Y-94753541D01*
X152379264Y-94757118D01*
X152364703Y-94759278D01*
X152350000Y-94760000D01*
X150700000Y-94760000D01*
X150685297Y-94759278D01*
X150670736Y-94757118D01*
X150656457Y-94753541D01*
X150642597Y-94748582D01*
X150629290Y-94742288D01*
X150616664Y-94734720D01*
X150604841Y-94725952D01*
X150593934Y-94716066D01*
X150584048Y-94705159D01*
X150575280Y-94693336D01*
X150567712Y-94680710D01*
X150561418Y-94667403D01*
X150556459Y-94653543D01*
X150552882Y-94639264D01*
X150550722Y-94624703D01*
X150550000Y-94610000D01*
X150550000Y-94310000D01*
X150550722Y-94295297D01*
X150552882Y-94280736D01*
X150556459Y-94266457D01*
X150561418Y-94252597D01*
X150567712Y-94239290D01*
X150575280Y-94226664D01*
X150584048Y-94214841D01*
X150593934Y-94203934D01*
X150604841Y-94194048D01*
X150616664Y-94185280D01*
X150629290Y-94177712D01*
X150642597Y-94171418D01*
X150656457Y-94166459D01*
X150670736Y-94162882D01*
X150685297Y-94160722D01*
X150700000Y-94160000D01*
X152350000Y-94160000D01*
X152364703Y-94160722D01*
G37*
G36*
X152364703Y-95430722D02*
G01*
X152379264Y-95432882D01*
X152393543Y-95436459D01*
X152407403Y-95441418D01*
X152420710Y-95447712D01*
X152433336Y-95455280D01*
X152445159Y-95464048D01*
X152456066Y-95473934D01*
X152465952Y-95484841D01*
X152474720Y-95496664D01*
X152482288Y-95509290D01*
X152488582Y-95522597D01*
X152493541Y-95536457D01*
X152497118Y-95550736D01*
X152499278Y-95565297D01*
X152500000Y-95580000D01*
X152500000Y-95880000D01*
X152499278Y-95894703D01*
X152497118Y-95909264D01*
X152493541Y-95923543D01*
X152488582Y-95937403D01*
X152482288Y-95950710D01*
X152474720Y-95963336D01*
X152465952Y-95975159D01*
X152456066Y-95986066D01*
X152445159Y-95995952D01*
X152433336Y-96004720D01*
X152420710Y-96012288D01*
X152407403Y-96018582D01*
X152393543Y-96023541D01*
X152379264Y-96027118D01*
X152364703Y-96029278D01*
X152350000Y-96030000D01*
X150700000Y-96030000D01*
X150685297Y-96029278D01*
X150670736Y-96027118D01*
X150656457Y-96023541D01*
X150642597Y-96018582D01*
X150629290Y-96012288D01*
X150616664Y-96004720D01*
X150604841Y-95995952D01*
X150593934Y-95986066D01*
X150584048Y-95975159D01*
X150575280Y-95963336D01*
X150567712Y-95950710D01*
X150561418Y-95937403D01*
X150556459Y-95923543D01*
X150552882Y-95909264D01*
X150550722Y-95894703D01*
X150550000Y-95880000D01*
X150550000Y-95580000D01*
X150550722Y-95565297D01*
X150552882Y-95550736D01*
X150556459Y-95536457D01*
X150561418Y-95522597D01*
X150567712Y-95509290D01*
X150575280Y-95496664D01*
X150584048Y-95484841D01*
X150593934Y-95473934D01*
X150604841Y-95464048D01*
X150616664Y-95455280D01*
X150629290Y-95447712D01*
X150642597Y-95441418D01*
X150656457Y-95436459D01*
X150670736Y-95432882D01*
X150685297Y-95430722D01*
X150700000Y-95430000D01*
X152350000Y-95430000D01*
X152364703Y-95430722D01*
G37*
G36*
X152364703Y-96700722D02*
G01*
X152379264Y-96702882D01*
X152393543Y-96706459D01*
X152407403Y-96711418D01*
X152420710Y-96717712D01*
X152433336Y-96725280D01*
X152445159Y-96734048D01*
X152456066Y-96743934D01*
X152465952Y-96754841D01*
X152474720Y-96766664D01*
X152482288Y-96779290D01*
X152488582Y-96792597D01*
X152493541Y-96806457D01*
X152497118Y-96820736D01*
X152499278Y-96835297D01*
X152500000Y-96850000D01*
X152500000Y-97150000D01*
X152499278Y-97164703D01*
X152497118Y-97179264D01*
X152493541Y-97193543D01*
X152488582Y-97207403D01*
X152482288Y-97220710D01*
X152474720Y-97233336D01*
X152465952Y-97245159D01*
X152456066Y-97256066D01*
X152445159Y-97265952D01*
X152433336Y-97274720D01*
X152420710Y-97282288D01*
X152407403Y-97288582D01*
X152393543Y-97293541D01*
X152379264Y-97297118D01*
X152364703Y-97299278D01*
X152350000Y-97300000D01*
X150700000Y-97300000D01*
X150685297Y-97299278D01*
X150670736Y-97297118D01*
X150656457Y-97293541D01*
X150642597Y-97288582D01*
X150629290Y-97282288D01*
X150616664Y-97274720D01*
X150604841Y-97265952D01*
X150593934Y-97256066D01*
X150584048Y-97245159D01*
X150575280Y-97233336D01*
X150567712Y-97220710D01*
X150561418Y-97207403D01*
X150556459Y-97193543D01*
X150552882Y-97179264D01*
X150550722Y-97164703D01*
X150550000Y-97150000D01*
X150550000Y-96850000D01*
X150550722Y-96835297D01*
X150552882Y-96820736D01*
X150556459Y-96806457D01*
X150561418Y-96792597D01*
X150567712Y-96779290D01*
X150575280Y-96766664D01*
X150584048Y-96754841D01*
X150593934Y-96743934D01*
X150604841Y-96734048D01*
X150616664Y-96725280D01*
X150629290Y-96717712D01*
X150642597Y-96711418D01*
X150656457Y-96706459D01*
X150670736Y-96702882D01*
X150685297Y-96700722D01*
X150700000Y-96700000D01*
X152350000Y-96700000D01*
X152364703Y-96700722D01*
G37*
G36*
X152364703Y-97970722D02*
G01*
X152379264Y-97972882D01*
X152393543Y-97976459D01*
X152407403Y-97981418D01*
X152420710Y-97987712D01*
X152433336Y-97995280D01*
X152445159Y-98004048D01*
X152456066Y-98013934D01*
X152465952Y-98024841D01*
X152474720Y-98036664D01*
X152482288Y-98049290D01*
X152488582Y-98062597D01*
X152493541Y-98076457D01*
X152497118Y-98090736D01*
X152499278Y-98105297D01*
X152500000Y-98120000D01*
X152500000Y-98420000D01*
X152499278Y-98434703D01*
X152497118Y-98449264D01*
X152493541Y-98463543D01*
X152488582Y-98477403D01*
X152482288Y-98490710D01*
X152474720Y-98503336D01*
X152465952Y-98515159D01*
X152456066Y-98526066D01*
X152445159Y-98535952D01*
X152433336Y-98544720D01*
X152420710Y-98552288D01*
X152407403Y-98558582D01*
X152393543Y-98563541D01*
X152379264Y-98567118D01*
X152364703Y-98569278D01*
X152350000Y-98570000D01*
X150700000Y-98570000D01*
X150685297Y-98569278D01*
X150670736Y-98567118D01*
X150656457Y-98563541D01*
X150642597Y-98558582D01*
X150629290Y-98552288D01*
X150616664Y-98544720D01*
X150604841Y-98535952D01*
X150593934Y-98526066D01*
X150584048Y-98515159D01*
X150575280Y-98503336D01*
X150567712Y-98490710D01*
X150561418Y-98477403D01*
X150556459Y-98463543D01*
X150552882Y-98449264D01*
X150550722Y-98434703D01*
X150550000Y-98420000D01*
X150550000Y-98120000D01*
X150550722Y-98105297D01*
X150552882Y-98090736D01*
X150556459Y-98076457D01*
X150561418Y-98062597D01*
X150567712Y-98049290D01*
X150575280Y-98036664D01*
X150584048Y-98024841D01*
X150593934Y-98013934D01*
X150604841Y-98004048D01*
X150616664Y-97995280D01*
X150629290Y-97987712D01*
X150642597Y-97981418D01*
X150656457Y-97976459D01*
X150670736Y-97972882D01*
X150685297Y-97970722D01*
X150700000Y-97970000D01*
X152350000Y-97970000D01*
X152364703Y-97970722D01*
G37*
G36*
X152364703Y-99240722D02*
G01*
X152379264Y-99242882D01*
X152393543Y-99246459D01*
X152407403Y-99251418D01*
X152420710Y-99257712D01*
X152433336Y-99265280D01*
X152445159Y-99274048D01*
X152456066Y-99283934D01*
X152465952Y-99294841D01*
X152474720Y-99306664D01*
X152482288Y-99319290D01*
X152488582Y-99332597D01*
X152493541Y-99346457D01*
X152497118Y-99360736D01*
X152499278Y-99375297D01*
X152500000Y-99390000D01*
X152500000Y-99690000D01*
X152499278Y-99704703D01*
X152497118Y-99719264D01*
X152493541Y-99733543D01*
X152488582Y-99747403D01*
X152482288Y-99760710D01*
X152474720Y-99773336D01*
X152465952Y-99785159D01*
X152456066Y-99796066D01*
X152445159Y-99805952D01*
X152433336Y-99814720D01*
X152420710Y-99822288D01*
X152407403Y-99828582D01*
X152393543Y-99833541D01*
X152379264Y-99837118D01*
X152364703Y-99839278D01*
X152350000Y-99840000D01*
X150700000Y-99840000D01*
X150685297Y-99839278D01*
X150670736Y-99837118D01*
X150656457Y-99833541D01*
X150642597Y-99828582D01*
X150629290Y-99822288D01*
X150616664Y-99814720D01*
X150604841Y-99805952D01*
X150593934Y-99796066D01*
X150584048Y-99785159D01*
X150575280Y-99773336D01*
X150567712Y-99760710D01*
X150561418Y-99747403D01*
X150556459Y-99733543D01*
X150552882Y-99719264D01*
X150550722Y-99704703D01*
X150550000Y-99690000D01*
X150550000Y-99390000D01*
X150550722Y-99375297D01*
X150552882Y-99360736D01*
X150556459Y-99346457D01*
X150561418Y-99332597D01*
X150567712Y-99319290D01*
X150575280Y-99306664D01*
X150584048Y-99294841D01*
X150593934Y-99283934D01*
X150604841Y-99274048D01*
X150616664Y-99265280D01*
X150629290Y-99257712D01*
X150642597Y-99251418D01*
X150656457Y-99246459D01*
X150670736Y-99242882D01*
X150685297Y-99240722D01*
X150700000Y-99240000D01*
X152350000Y-99240000D01*
X152364703Y-99240722D01*
G37*
G36*
X152364703Y-100510722D02*
G01*
X152379264Y-100512882D01*
X152393543Y-100516459D01*
X152407403Y-100521418D01*
X152420710Y-100527712D01*
X152433336Y-100535280D01*
X152445159Y-100544048D01*
X152456066Y-100553934D01*
X152465952Y-100564841D01*
X152474720Y-100576664D01*
X152482288Y-100589290D01*
X152488582Y-100602597D01*
X152493541Y-100616457D01*
X152497118Y-100630736D01*
X152499278Y-100645297D01*
X152500000Y-100660000D01*
X152500000Y-100960000D01*
X152499278Y-100974703D01*
X152497118Y-100989264D01*
X152493541Y-101003543D01*
X152488582Y-101017403D01*
X152482288Y-101030710D01*
X152474720Y-101043336D01*
X152465952Y-101055159D01*
X152456066Y-101066066D01*
X152445159Y-101075952D01*
X152433336Y-101084720D01*
X152420710Y-101092288D01*
X152407403Y-101098582D01*
X152393543Y-101103541D01*
X152379264Y-101107118D01*
X152364703Y-101109278D01*
X152350000Y-101110000D01*
X150700000Y-101110000D01*
X150685297Y-101109278D01*
X150670736Y-101107118D01*
X150656457Y-101103541D01*
X150642597Y-101098582D01*
X150629290Y-101092288D01*
X150616664Y-101084720D01*
X150604841Y-101075952D01*
X150593934Y-101066066D01*
X150584048Y-101055159D01*
X150575280Y-101043336D01*
X150567712Y-101030710D01*
X150561418Y-101017403D01*
X150556459Y-101003543D01*
X150552882Y-100989264D01*
X150550722Y-100974703D01*
X150550000Y-100960000D01*
X150550000Y-100660000D01*
X150550722Y-100645297D01*
X150552882Y-100630736D01*
X150556459Y-100616457D01*
X150561418Y-100602597D01*
X150567712Y-100589290D01*
X150575280Y-100576664D01*
X150584048Y-100564841D01*
X150593934Y-100553934D01*
X150604841Y-100544048D01*
X150616664Y-100535280D01*
X150629290Y-100527712D01*
X150642597Y-100521418D01*
X150656457Y-100516459D01*
X150670736Y-100512882D01*
X150685297Y-100510722D01*
X150700000Y-100510000D01*
X152350000Y-100510000D01*
X152364703Y-100510722D01*
G37*
G36*
X157314703Y-100510722D02*
G01*
X157329264Y-100512882D01*
X157343543Y-100516459D01*
X157357403Y-100521418D01*
X157370710Y-100527712D01*
X157383336Y-100535280D01*
X157395159Y-100544048D01*
X157406066Y-100553934D01*
X157415952Y-100564841D01*
X157424720Y-100576664D01*
X157432288Y-100589290D01*
X157438582Y-100602597D01*
X157443541Y-100616457D01*
X157447118Y-100630736D01*
X157449278Y-100645297D01*
X157450000Y-100660000D01*
X157450000Y-100960000D01*
X157449278Y-100974703D01*
X157447118Y-100989264D01*
X157443541Y-101003543D01*
X157438582Y-101017403D01*
X157432288Y-101030710D01*
X157424720Y-101043336D01*
X157415952Y-101055159D01*
X157406066Y-101066066D01*
X157395159Y-101075952D01*
X157383336Y-101084720D01*
X157370710Y-101092288D01*
X157357403Y-101098582D01*
X157343543Y-101103541D01*
X157329264Y-101107118D01*
X157314703Y-101109278D01*
X157300000Y-101110000D01*
X155650000Y-101110000D01*
X155635297Y-101109278D01*
X155620736Y-101107118D01*
X155606457Y-101103541D01*
X155592597Y-101098582D01*
X155579290Y-101092288D01*
X155566664Y-101084720D01*
X155554841Y-101075952D01*
X155543934Y-101066066D01*
X155534048Y-101055159D01*
X155525280Y-101043336D01*
X155517712Y-101030710D01*
X155511418Y-101017403D01*
X155506459Y-101003543D01*
X155502882Y-100989264D01*
X155500722Y-100974703D01*
X155500000Y-100960000D01*
X155500000Y-100660000D01*
X155500722Y-100645297D01*
X155502882Y-100630736D01*
X155506459Y-100616457D01*
X155511418Y-100602597D01*
X155517712Y-100589290D01*
X155525280Y-100576664D01*
X155534048Y-100564841D01*
X155543934Y-100553934D01*
X155554841Y-100544048D01*
X155566664Y-100535280D01*
X155579290Y-100527712D01*
X155592597Y-100521418D01*
X155606457Y-100516459D01*
X155620736Y-100512882D01*
X155635297Y-100510722D01*
X155650000Y-100510000D01*
X157300000Y-100510000D01*
X157314703Y-100510722D01*
G37*
G36*
X157314703Y-99240722D02*
G01*
X157329264Y-99242882D01*
X157343543Y-99246459D01*
X157357403Y-99251418D01*
X157370710Y-99257712D01*
X157383336Y-99265280D01*
X157395159Y-99274048D01*
X157406066Y-99283934D01*
X157415952Y-99294841D01*
X157424720Y-99306664D01*
X157432288Y-99319290D01*
X157438582Y-99332597D01*
X157443541Y-99346457D01*
X157447118Y-99360736D01*
X157449278Y-99375297D01*
X157450000Y-99390000D01*
X157450000Y-99690000D01*
X157449278Y-99704703D01*
X157447118Y-99719264D01*
X157443541Y-99733543D01*
X157438582Y-99747403D01*
X157432288Y-99760710D01*
X157424720Y-99773336D01*
X157415952Y-99785159D01*
X157406066Y-99796066D01*
X157395159Y-99805952D01*
X157383336Y-99814720D01*
X157370710Y-99822288D01*
X157357403Y-99828582D01*
X157343543Y-99833541D01*
X157329264Y-99837118D01*
X157314703Y-99839278D01*
X157300000Y-99840000D01*
X155650000Y-99840000D01*
X155635297Y-99839278D01*
X155620736Y-99837118D01*
X155606457Y-99833541D01*
X155592597Y-99828582D01*
X155579290Y-99822288D01*
X155566664Y-99814720D01*
X155554841Y-99805952D01*
X155543934Y-99796066D01*
X155534048Y-99785159D01*
X155525280Y-99773336D01*
X155517712Y-99760710D01*
X155511418Y-99747403D01*
X155506459Y-99733543D01*
X155502882Y-99719264D01*
X155500722Y-99704703D01*
X155500000Y-99690000D01*
X155500000Y-99390000D01*
X155500722Y-99375297D01*
X155502882Y-99360736D01*
X155506459Y-99346457D01*
X155511418Y-99332597D01*
X155517712Y-99319290D01*
X155525280Y-99306664D01*
X155534048Y-99294841D01*
X155543934Y-99283934D01*
X155554841Y-99274048D01*
X155566664Y-99265280D01*
X155579290Y-99257712D01*
X155592597Y-99251418D01*
X155606457Y-99246459D01*
X155620736Y-99242882D01*
X155635297Y-99240722D01*
X155650000Y-99240000D01*
X157300000Y-99240000D01*
X157314703Y-99240722D01*
G37*
G36*
X157314703Y-97970722D02*
G01*
X157329264Y-97972882D01*
X157343543Y-97976459D01*
X157357403Y-97981418D01*
X157370710Y-97987712D01*
X157383336Y-97995280D01*
X157395159Y-98004048D01*
X157406066Y-98013934D01*
X157415952Y-98024841D01*
X157424720Y-98036664D01*
X157432288Y-98049290D01*
X157438582Y-98062597D01*
X157443541Y-98076457D01*
X157447118Y-98090736D01*
X157449278Y-98105297D01*
X157450000Y-98120000D01*
X157450000Y-98420000D01*
X157449278Y-98434703D01*
X157447118Y-98449264D01*
X157443541Y-98463543D01*
X157438582Y-98477403D01*
X157432288Y-98490710D01*
X157424720Y-98503336D01*
X157415952Y-98515159D01*
X157406066Y-98526066D01*
X157395159Y-98535952D01*
X157383336Y-98544720D01*
X157370710Y-98552288D01*
X157357403Y-98558582D01*
X157343543Y-98563541D01*
X157329264Y-98567118D01*
X157314703Y-98569278D01*
X157300000Y-98570000D01*
X155650000Y-98570000D01*
X155635297Y-98569278D01*
X155620736Y-98567118D01*
X155606457Y-98563541D01*
X155592597Y-98558582D01*
X155579290Y-98552288D01*
X155566664Y-98544720D01*
X155554841Y-98535952D01*
X155543934Y-98526066D01*
X155534048Y-98515159D01*
X155525280Y-98503336D01*
X155517712Y-98490710D01*
X155511418Y-98477403D01*
X155506459Y-98463543D01*
X155502882Y-98449264D01*
X155500722Y-98434703D01*
X155500000Y-98420000D01*
X155500000Y-98120000D01*
X155500722Y-98105297D01*
X155502882Y-98090736D01*
X155506459Y-98076457D01*
X155511418Y-98062597D01*
X155517712Y-98049290D01*
X155525280Y-98036664D01*
X155534048Y-98024841D01*
X155543934Y-98013934D01*
X155554841Y-98004048D01*
X155566664Y-97995280D01*
X155579290Y-97987712D01*
X155592597Y-97981418D01*
X155606457Y-97976459D01*
X155620736Y-97972882D01*
X155635297Y-97970722D01*
X155650000Y-97970000D01*
X157300000Y-97970000D01*
X157314703Y-97970722D01*
G37*
G36*
X157314703Y-96700722D02*
G01*
X157329264Y-96702882D01*
X157343543Y-96706459D01*
X157357403Y-96711418D01*
X157370710Y-96717712D01*
X157383336Y-96725280D01*
X157395159Y-96734048D01*
X157406066Y-96743934D01*
X157415952Y-96754841D01*
X157424720Y-96766664D01*
X157432288Y-96779290D01*
X157438582Y-96792597D01*
X157443541Y-96806457D01*
X157447118Y-96820736D01*
X157449278Y-96835297D01*
X157450000Y-96850000D01*
X157450000Y-97150000D01*
X157449278Y-97164703D01*
X157447118Y-97179264D01*
X157443541Y-97193543D01*
X157438582Y-97207403D01*
X157432288Y-97220710D01*
X157424720Y-97233336D01*
X157415952Y-97245159D01*
X157406066Y-97256066D01*
X157395159Y-97265952D01*
X157383336Y-97274720D01*
X157370710Y-97282288D01*
X157357403Y-97288582D01*
X157343543Y-97293541D01*
X157329264Y-97297118D01*
X157314703Y-97299278D01*
X157300000Y-97300000D01*
X155650000Y-97300000D01*
X155635297Y-97299278D01*
X155620736Y-97297118D01*
X155606457Y-97293541D01*
X155592597Y-97288582D01*
X155579290Y-97282288D01*
X155566664Y-97274720D01*
X155554841Y-97265952D01*
X155543934Y-97256066D01*
X155534048Y-97245159D01*
X155525280Y-97233336D01*
X155517712Y-97220710D01*
X155511418Y-97207403D01*
X155506459Y-97193543D01*
X155502882Y-97179264D01*
X155500722Y-97164703D01*
X155500000Y-97150000D01*
X155500000Y-96850000D01*
X155500722Y-96835297D01*
X155502882Y-96820736D01*
X155506459Y-96806457D01*
X155511418Y-96792597D01*
X155517712Y-96779290D01*
X155525280Y-96766664D01*
X155534048Y-96754841D01*
X155543934Y-96743934D01*
X155554841Y-96734048D01*
X155566664Y-96725280D01*
X155579290Y-96717712D01*
X155592597Y-96711418D01*
X155606457Y-96706459D01*
X155620736Y-96702882D01*
X155635297Y-96700722D01*
X155650000Y-96700000D01*
X157300000Y-96700000D01*
X157314703Y-96700722D01*
G37*
G36*
X157314703Y-95430722D02*
G01*
X157329264Y-95432882D01*
X157343543Y-95436459D01*
X157357403Y-95441418D01*
X157370710Y-95447712D01*
X157383336Y-95455280D01*
X157395159Y-95464048D01*
X157406066Y-95473934D01*
X157415952Y-95484841D01*
X157424720Y-95496664D01*
X157432288Y-95509290D01*
X157438582Y-95522597D01*
X157443541Y-95536457D01*
X157447118Y-95550736D01*
X157449278Y-95565297D01*
X157450000Y-95580000D01*
X157450000Y-95880000D01*
X157449278Y-95894703D01*
X157447118Y-95909264D01*
X157443541Y-95923543D01*
X157438582Y-95937403D01*
X157432288Y-95950710D01*
X157424720Y-95963336D01*
X157415952Y-95975159D01*
X157406066Y-95986066D01*
X157395159Y-95995952D01*
X157383336Y-96004720D01*
X157370710Y-96012288D01*
X157357403Y-96018582D01*
X157343543Y-96023541D01*
X157329264Y-96027118D01*
X157314703Y-96029278D01*
X157300000Y-96030000D01*
X155650000Y-96030000D01*
X155635297Y-96029278D01*
X155620736Y-96027118D01*
X155606457Y-96023541D01*
X155592597Y-96018582D01*
X155579290Y-96012288D01*
X155566664Y-96004720D01*
X155554841Y-95995952D01*
X155543934Y-95986066D01*
X155534048Y-95975159D01*
X155525280Y-95963336D01*
X155517712Y-95950710D01*
X155511418Y-95937403D01*
X155506459Y-95923543D01*
X155502882Y-95909264D01*
X155500722Y-95894703D01*
X155500000Y-95880000D01*
X155500000Y-95580000D01*
X155500722Y-95565297D01*
X155502882Y-95550736D01*
X155506459Y-95536457D01*
X155511418Y-95522597D01*
X155517712Y-95509290D01*
X155525280Y-95496664D01*
X155534048Y-95484841D01*
X155543934Y-95473934D01*
X155554841Y-95464048D01*
X155566664Y-95455280D01*
X155579290Y-95447712D01*
X155592597Y-95441418D01*
X155606457Y-95436459D01*
X155620736Y-95432882D01*
X155635297Y-95430722D01*
X155650000Y-95430000D01*
X157300000Y-95430000D01*
X157314703Y-95430722D01*
G37*
G36*
X157314703Y-94160722D02*
G01*
X157329264Y-94162882D01*
X157343543Y-94166459D01*
X157357403Y-94171418D01*
X157370710Y-94177712D01*
X157383336Y-94185280D01*
X157395159Y-94194048D01*
X157406066Y-94203934D01*
X157415952Y-94214841D01*
X157424720Y-94226664D01*
X157432288Y-94239290D01*
X157438582Y-94252597D01*
X157443541Y-94266457D01*
X157447118Y-94280736D01*
X157449278Y-94295297D01*
X157450000Y-94310000D01*
X157450000Y-94610000D01*
X157449278Y-94624703D01*
X157447118Y-94639264D01*
X157443541Y-94653543D01*
X157438582Y-94667403D01*
X157432288Y-94680710D01*
X157424720Y-94693336D01*
X157415952Y-94705159D01*
X157406066Y-94716066D01*
X157395159Y-94725952D01*
X157383336Y-94734720D01*
X157370710Y-94742288D01*
X157357403Y-94748582D01*
X157343543Y-94753541D01*
X157329264Y-94757118D01*
X157314703Y-94759278D01*
X157300000Y-94760000D01*
X155650000Y-94760000D01*
X155635297Y-94759278D01*
X155620736Y-94757118D01*
X155606457Y-94753541D01*
X155592597Y-94748582D01*
X155579290Y-94742288D01*
X155566664Y-94734720D01*
X155554841Y-94725952D01*
X155543934Y-94716066D01*
X155534048Y-94705159D01*
X155525280Y-94693336D01*
X155517712Y-94680710D01*
X155511418Y-94667403D01*
X155506459Y-94653543D01*
X155502882Y-94639264D01*
X155500722Y-94624703D01*
X155500000Y-94610000D01*
X155500000Y-94310000D01*
X155500722Y-94295297D01*
X155502882Y-94280736D01*
X155506459Y-94266457D01*
X155511418Y-94252597D01*
X155517712Y-94239290D01*
X155525280Y-94226664D01*
X155534048Y-94214841D01*
X155543934Y-94203934D01*
X155554841Y-94194048D01*
X155566664Y-94185280D01*
X155579290Y-94177712D01*
X155592597Y-94171418D01*
X155606457Y-94166459D01*
X155620736Y-94162882D01*
X155635297Y-94160722D01*
X155650000Y-94160000D01*
X157300000Y-94160000D01*
X157314703Y-94160722D01*
G37*
G36*
X157314703Y-92890722D02*
G01*
X157329264Y-92892882D01*
X157343543Y-92896459D01*
X157357403Y-92901418D01*
X157370710Y-92907712D01*
X157383336Y-92915280D01*
X157395159Y-92924048D01*
X157406066Y-92933934D01*
X157415952Y-92944841D01*
X157424720Y-92956664D01*
X157432288Y-92969290D01*
X157438582Y-92982597D01*
X157443541Y-92996457D01*
X157447118Y-93010736D01*
X157449278Y-93025297D01*
X157450000Y-93040000D01*
X157450000Y-93340000D01*
X157449278Y-93354703D01*
X157447118Y-93369264D01*
X157443541Y-93383543D01*
X157438582Y-93397403D01*
X157432288Y-93410710D01*
X157424720Y-93423336D01*
X157415952Y-93435159D01*
X157406066Y-93446066D01*
X157395159Y-93455952D01*
X157383336Y-93464720D01*
X157370710Y-93472288D01*
X157357403Y-93478582D01*
X157343543Y-93483541D01*
X157329264Y-93487118D01*
X157314703Y-93489278D01*
X157300000Y-93490000D01*
X155650000Y-93490000D01*
X155635297Y-93489278D01*
X155620736Y-93487118D01*
X155606457Y-93483541D01*
X155592597Y-93478582D01*
X155579290Y-93472288D01*
X155566664Y-93464720D01*
X155554841Y-93455952D01*
X155543934Y-93446066D01*
X155534048Y-93435159D01*
X155525280Y-93423336D01*
X155517712Y-93410710D01*
X155511418Y-93397403D01*
X155506459Y-93383543D01*
X155502882Y-93369264D01*
X155500722Y-93354703D01*
X155500000Y-93340000D01*
X155500000Y-93040000D01*
X155500722Y-93025297D01*
X155502882Y-93010736D01*
X155506459Y-92996457D01*
X155511418Y-92982597D01*
X155517712Y-92969290D01*
X155525280Y-92956664D01*
X155534048Y-92944841D01*
X155543934Y-92933934D01*
X155554841Y-92924048D01*
X155566664Y-92915280D01*
X155579290Y-92907712D01*
X155592597Y-92901418D01*
X155606457Y-92896459D01*
X155620736Y-92892882D01*
X155635297Y-92890722D01*
X155650000Y-92890000D01*
X157300000Y-92890000D01*
X157314703Y-92890722D01*
G37*
D16*
X183040000Y-93780000D03*
X183040000Y-98880000D03*
D11*
G36*
X167780191Y-87906053D02*
G01*
X167801426Y-87909203D01*
X167822250Y-87914419D01*
X167842462Y-87921651D01*
X167861868Y-87930830D01*
X167880281Y-87941866D01*
X167897524Y-87954654D01*
X167913430Y-87969070D01*
X167927846Y-87984976D01*
X167940634Y-88002219D01*
X167951670Y-88020632D01*
X167960849Y-88040038D01*
X167968081Y-88060250D01*
X167973297Y-88081074D01*
X167976447Y-88102309D01*
X167977500Y-88123750D01*
X167977500Y-88636250D01*
X167976447Y-88657691D01*
X167973297Y-88678926D01*
X167968081Y-88699750D01*
X167960849Y-88719962D01*
X167951670Y-88739368D01*
X167940634Y-88757781D01*
X167927846Y-88775024D01*
X167913430Y-88790930D01*
X167897524Y-88805346D01*
X167880281Y-88818134D01*
X167861868Y-88829170D01*
X167842462Y-88838349D01*
X167822250Y-88845581D01*
X167801426Y-88850797D01*
X167780191Y-88853947D01*
X167758750Y-88855000D01*
X167321250Y-88855000D01*
X167299809Y-88853947D01*
X167278574Y-88850797D01*
X167257750Y-88845581D01*
X167237538Y-88838349D01*
X167218132Y-88829170D01*
X167199719Y-88818134D01*
X167182476Y-88805346D01*
X167166570Y-88790930D01*
X167152154Y-88775024D01*
X167139366Y-88757781D01*
X167128330Y-88739368D01*
X167119151Y-88719962D01*
X167111919Y-88699750D01*
X167106703Y-88678926D01*
X167103553Y-88657691D01*
X167102500Y-88636250D01*
X167102500Y-88123750D01*
X167103553Y-88102309D01*
X167106703Y-88081074D01*
X167111919Y-88060250D01*
X167119151Y-88040038D01*
X167128330Y-88020632D01*
X167139366Y-88002219D01*
X167152154Y-87984976D01*
X167166570Y-87969070D01*
X167182476Y-87954654D01*
X167199719Y-87941866D01*
X167218132Y-87930830D01*
X167237538Y-87921651D01*
X167257750Y-87914419D01*
X167278574Y-87909203D01*
X167299809Y-87906053D01*
X167321250Y-87905000D01*
X167758750Y-87905000D01*
X167780191Y-87906053D01*
G37*
G36*
X166205191Y-87906053D02*
G01*
X166226426Y-87909203D01*
X166247250Y-87914419D01*
X166267462Y-87921651D01*
X166286868Y-87930830D01*
X166305281Y-87941866D01*
X166322524Y-87954654D01*
X166338430Y-87969070D01*
X166352846Y-87984976D01*
X166365634Y-88002219D01*
X166376670Y-88020632D01*
X166385849Y-88040038D01*
X166393081Y-88060250D01*
X166398297Y-88081074D01*
X166401447Y-88102309D01*
X166402500Y-88123750D01*
X166402500Y-88636250D01*
X166401447Y-88657691D01*
X166398297Y-88678926D01*
X166393081Y-88699750D01*
X166385849Y-88719962D01*
X166376670Y-88739368D01*
X166365634Y-88757781D01*
X166352846Y-88775024D01*
X166338430Y-88790930D01*
X166322524Y-88805346D01*
X166305281Y-88818134D01*
X166286868Y-88829170D01*
X166267462Y-88838349D01*
X166247250Y-88845581D01*
X166226426Y-88850797D01*
X166205191Y-88853947D01*
X166183750Y-88855000D01*
X165746250Y-88855000D01*
X165724809Y-88853947D01*
X165703574Y-88850797D01*
X165682750Y-88845581D01*
X165662538Y-88838349D01*
X165643132Y-88829170D01*
X165624719Y-88818134D01*
X165607476Y-88805346D01*
X165591570Y-88790930D01*
X165577154Y-88775024D01*
X165564366Y-88757781D01*
X165553330Y-88739368D01*
X165544151Y-88719962D01*
X165536919Y-88699750D01*
X165531703Y-88678926D01*
X165528553Y-88657691D01*
X165527500Y-88636250D01*
X165527500Y-88123750D01*
X165528553Y-88102309D01*
X165531703Y-88081074D01*
X165536919Y-88060250D01*
X165544151Y-88040038D01*
X165553330Y-88020632D01*
X165564366Y-88002219D01*
X165577154Y-87984976D01*
X165591570Y-87969070D01*
X165607476Y-87954654D01*
X165624719Y-87941866D01*
X165643132Y-87930830D01*
X165662538Y-87921651D01*
X165682750Y-87914419D01*
X165703574Y-87909203D01*
X165724809Y-87906053D01*
X165746250Y-87905000D01*
X166183750Y-87905000D01*
X166205191Y-87906053D01*
G37*
D17*
X119390000Y-99430000D03*
X119390000Y-97330000D03*
D11*
G36*
X163867691Y-98351053D02*
G01*
X163888926Y-98354203D01*
X163909750Y-98359419D01*
X163929962Y-98366651D01*
X163949368Y-98375830D01*
X163967781Y-98386866D01*
X163985024Y-98399654D01*
X164000930Y-98414070D01*
X164015346Y-98429976D01*
X164028134Y-98447219D01*
X164039170Y-98465632D01*
X164048349Y-98485038D01*
X164055581Y-98505250D01*
X164060797Y-98526074D01*
X164063947Y-98547309D01*
X164065000Y-98568750D01*
X164065000Y-99006250D01*
X164063947Y-99027691D01*
X164060797Y-99048926D01*
X164055581Y-99069750D01*
X164048349Y-99089962D01*
X164039170Y-99109368D01*
X164028134Y-99127781D01*
X164015346Y-99145024D01*
X164000930Y-99160930D01*
X163985024Y-99175346D01*
X163967781Y-99188134D01*
X163949368Y-99199170D01*
X163929962Y-99208349D01*
X163909750Y-99215581D01*
X163888926Y-99220797D01*
X163867691Y-99223947D01*
X163846250Y-99225000D01*
X163333750Y-99225000D01*
X163312309Y-99223947D01*
X163291074Y-99220797D01*
X163270250Y-99215581D01*
X163250038Y-99208349D01*
X163230632Y-99199170D01*
X163212219Y-99188134D01*
X163194976Y-99175346D01*
X163179070Y-99160930D01*
X163164654Y-99145024D01*
X163151866Y-99127781D01*
X163140830Y-99109368D01*
X163131651Y-99089962D01*
X163124419Y-99069750D01*
X163119203Y-99048926D01*
X163116053Y-99027691D01*
X163115000Y-99006250D01*
X163115000Y-98568750D01*
X163116053Y-98547309D01*
X163119203Y-98526074D01*
X163124419Y-98505250D01*
X163131651Y-98485038D01*
X163140830Y-98465632D01*
X163151866Y-98447219D01*
X163164654Y-98429976D01*
X163179070Y-98414070D01*
X163194976Y-98399654D01*
X163212219Y-98386866D01*
X163230632Y-98375830D01*
X163250038Y-98366651D01*
X163270250Y-98359419D01*
X163291074Y-98354203D01*
X163312309Y-98351053D01*
X163333750Y-98350000D01*
X163846250Y-98350000D01*
X163867691Y-98351053D01*
G37*
G36*
X163867691Y-96776053D02*
G01*
X163888926Y-96779203D01*
X163909750Y-96784419D01*
X163929962Y-96791651D01*
X163949368Y-96800830D01*
X163967781Y-96811866D01*
X163985024Y-96824654D01*
X164000930Y-96839070D01*
X164015346Y-96854976D01*
X164028134Y-96872219D01*
X164039170Y-96890632D01*
X164048349Y-96910038D01*
X164055581Y-96930250D01*
X164060797Y-96951074D01*
X164063947Y-96972309D01*
X164065000Y-96993750D01*
X164065000Y-97431250D01*
X164063947Y-97452691D01*
X164060797Y-97473926D01*
X164055581Y-97494750D01*
X164048349Y-97514962D01*
X164039170Y-97534368D01*
X164028134Y-97552781D01*
X164015346Y-97570024D01*
X164000930Y-97585930D01*
X163985024Y-97600346D01*
X163967781Y-97613134D01*
X163949368Y-97624170D01*
X163929962Y-97633349D01*
X163909750Y-97640581D01*
X163888926Y-97645797D01*
X163867691Y-97648947D01*
X163846250Y-97650000D01*
X163333750Y-97650000D01*
X163312309Y-97648947D01*
X163291074Y-97645797D01*
X163270250Y-97640581D01*
X163250038Y-97633349D01*
X163230632Y-97624170D01*
X163212219Y-97613134D01*
X163194976Y-97600346D01*
X163179070Y-97585930D01*
X163164654Y-97570024D01*
X163151866Y-97552781D01*
X163140830Y-97534368D01*
X163131651Y-97514962D01*
X163124419Y-97494750D01*
X163119203Y-97473926D01*
X163116053Y-97452691D01*
X163115000Y-97431250D01*
X163115000Y-96993750D01*
X163116053Y-96972309D01*
X163119203Y-96951074D01*
X163124419Y-96930250D01*
X163131651Y-96910038D01*
X163140830Y-96890632D01*
X163151866Y-96872219D01*
X163164654Y-96854976D01*
X163179070Y-96839070D01*
X163194976Y-96824654D01*
X163212219Y-96811866D01*
X163230632Y-96800830D01*
X163250038Y-96791651D01*
X163270250Y-96784419D01*
X163291074Y-96779203D01*
X163312309Y-96776053D01*
X163333750Y-96775000D01*
X163846250Y-96775000D01*
X163867691Y-96776053D01*
G37*
G36*
X159637691Y-98776053D02*
G01*
X159658926Y-98779203D01*
X159679750Y-98784419D01*
X159699962Y-98791651D01*
X159719368Y-98800830D01*
X159737781Y-98811866D01*
X159755024Y-98824654D01*
X159770930Y-98839070D01*
X159785346Y-98854976D01*
X159798134Y-98872219D01*
X159809170Y-98890632D01*
X159818349Y-98910038D01*
X159825581Y-98930250D01*
X159830797Y-98951074D01*
X159833947Y-98972309D01*
X159835000Y-98993750D01*
X159835000Y-99431250D01*
X159833947Y-99452691D01*
X159830797Y-99473926D01*
X159825581Y-99494750D01*
X159818349Y-99514962D01*
X159809170Y-99534368D01*
X159798134Y-99552781D01*
X159785346Y-99570024D01*
X159770930Y-99585930D01*
X159755024Y-99600346D01*
X159737781Y-99613134D01*
X159719368Y-99624170D01*
X159699962Y-99633349D01*
X159679750Y-99640581D01*
X159658926Y-99645797D01*
X159637691Y-99648947D01*
X159616250Y-99650000D01*
X159103750Y-99650000D01*
X159082309Y-99648947D01*
X159061074Y-99645797D01*
X159040250Y-99640581D01*
X159020038Y-99633349D01*
X159000632Y-99624170D01*
X158982219Y-99613134D01*
X158964976Y-99600346D01*
X158949070Y-99585930D01*
X158934654Y-99570024D01*
X158921866Y-99552781D01*
X158910830Y-99534368D01*
X158901651Y-99514962D01*
X158894419Y-99494750D01*
X158889203Y-99473926D01*
X158886053Y-99452691D01*
X158885000Y-99431250D01*
X158885000Y-98993750D01*
X158886053Y-98972309D01*
X158889203Y-98951074D01*
X158894419Y-98930250D01*
X158901651Y-98910038D01*
X158910830Y-98890632D01*
X158921866Y-98872219D01*
X158934654Y-98854976D01*
X158949070Y-98839070D01*
X158964976Y-98824654D01*
X158982219Y-98811866D01*
X159000632Y-98800830D01*
X159020038Y-98791651D01*
X159040250Y-98784419D01*
X159061074Y-98779203D01*
X159082309Y-98776053D01*
X159103750Y-98775000D01*
X159616250Y-98775000D01*
X159637691Y-98776053D01*
G37*
G36*
X159637691Y-100351053D02*
G01*
X159658926Y-100354203D01*
X159679750Y-100359419D01*
X159699962Y-100366651D01*
X159719368Y-100375830D01*
X159737781Y-100386866D01*
X159755024Y-100399654D01*
X159770930Y-100414070D01*
X159785346Y-100429976D01*
X159798134Y-100447219D01*
X159809170Y-100465632D01*
X159818349Y-100485038D01*
X159825581Y-100505250D01*
X159830797Y-100526074D01*
X159833947Y-100547309D01*
X159835000Y-100568750D01*
X159835000Y-101006250D01*
X159833947Y-101027691D01*
X159830797Y-101048926D01*
X159825581Y-101069750D01*
X159818349Y-101089962D01*
X159809170Y-101109368D01*
X159798134Y-101127781D01*
X159785346Y-101145024D01*
X159770930Y-101160930D01*
X159755024Y-101175346D01*
X159737781Y-101188134D01*
X159719368Y-101199170D01*
X159699962Y-101208349D01*
X159679750Y-101215581D01*
X159658926Y-101220797D01*
X159637691Y-101223947D01*
X159616250Y-101225000D01*
X159103750Y-101225000D01*
X159082309Y-101223947D01*
X159061074Y-101220797D01*
X159040250Y-101215581D01*
X159020038Y-101208349D01*
X159000632Y-101199170D01*
X158982219Y-101188134D01*
X158964976Y-101175346D01*
X158949070Y-101160930D01*
X158934654Y-101145024D01*
X158921866Y-101127781D01*
X158910830Y-101109368D01*
X158901651Y-101089962D01*
X158894419Y-101069750D01*
X158889203Y-101048926D01*
X158886053Y-101027691D01*
X158885000Y-101006250D01*
X158885000Y-100568750D01*
X158886053Y-100547309D01*
X158889203Y-100526074D01*
X158894419Y-100505250D01*
X158901651Y-100485038D01*
X158910830Y-100465632D01*
X158921866Y-100447219D01*
X158934654Y-100429976D01*
X158949070Y-100414070D01*
X158964976Y-100399654D01*
X158982219Y-100386866D01*
X159000632Y-100375830D01*
X159020038Y-100366651D01*
X159040250Y-100359419D01*
X159061074Y-100354203D01*
X159082309Y-100351053D01*
X159103750Y-100350000D01*
X159616250Y-100350000D01*
X159637691Y-100351053D01*
G37*
G36*
X114265191Y-106906053D02*
G01*
X114286426Y-106909203D01*
X114307250Y-106914419D01*
X114327462Y-106921651D01*
X114346868Y-106930830D01*
X114365281Y-106941866D01*
X114382524Y-106954654D01*
X114398430Y-106969070D01*
X114412846Y-106984976D01*
X114425634Y-107002219D01*
X114436670Y-107020632D01*
X114445849Y-107040038D01*
X114453081Y-107060250D01*
X114458297Y-107081074D01*
X114461447Y-107102309D01*
X114462500Y-107123750D01*
X114462500Y-107636250D01*
X114461447Y-107657691D01*
X114458297Y-107678926D01*
X114453081Y-107699750D01*
X114445849Y-107719962D01*
X114436670Y-107739368D01*
X114425634Y-107757781D01*
X114412846Y-107775024D01*
X114398430Y-107790930D01*
X114382524Y-107805346D01*
X114365281Y-107818134D01*
X114346868Y-107829170D01*
X114327462Y-107838349D01*
X114307250Y-107845581D01*
X114286426Y-107850797D01*
X114265191Y-107853947D01*
X114243750Y-107855000D01*
X113806250Y-107855000D01*
X113784809Y-107853947D01*
X113763574Y-107850797D01*
X113742750Y-107845581D01*
X113722538Y-107838349D01*
X113703132Y-107829170D01*
X113684719Y-107818134D01*
X113667476Y-107805346D01*
X113651570Y-107790930D01*
X113637154Y-107775024D01*
X113624366Y-107757781D01*
X113613330Y-107739368D01*
X113604151Y-107719962D01*
X113596919Y-107699750D01*
X113591703Y-107678926D01*
X113588553Y-107657691D01*
X113587500Y-107636250D01*
X113587500Y-107123750D01*
X113588553Y-107102309D01*
X113591703Y-107081074D01*
X113596919Y-107060250D01*
X113604151Y-107040038D01*
X113613330Y-107020632D01*
X113624366Y-107002219D01*
X113637154Y-106984976D01*
X113651570Y-106969070D01*
X113667476Y-106954654D01*
X113684719Y-106941866D01*
X113703132Y-106930830D01*
X113722538Y-106921651D01*
X113742750Y-106914419D01*
X113763574Y-106909203D01*
X113784809Y-106906053D01*
X113806250Y-106905000D01*
X114243750Y-106905000D01*
X114265191Y-106906053D01*
G37*
G36*
X115840191Y-106906053D02*
G01*
X115861426Y-106909203D01*
X115882250Y-106914419D01*
X115902462Y-106921651D01*
X115921868Y-106930830D01*
X115940281Y-106941866D01*
X115957524Y-106954654D01*
X115973430Y-106969070D01*
X115987846Y-106984976D01*
X116000634Y-107002219D01*
X116011670Y-107020632D01*
X116020849Y-107040038D01*
X116028081Y-107060250D01*
X116033297Y-107081074D01*
X116036447Y-107102309D01*
X116037500Y-107123750D01*
X116037500Y-107636250D01*
X116036447Y-107657691D01*
X116033297Y-107678926D01*
X116028081Y-107699750D01*
X116020849Y-107719962D01*
X116011670Y-107739368D01*
X116000634Y-107757781D01*
X115987846Y-107775024D01*
X115973430Y-107790930D01*
X115957524Y-107805346D01*
X115940281Y-107818134D01*
X115921868Y-107829170D01*
X115902462Y-107838349D01*
X115882250Y-107845581D01*
X115861426Y-107850797D01*
X115840191Y-107853947D01*
X115818750Y-107855000D01*
X115381250Y-107855000D01*
X115359809Y-107853947D01*
X115338574Y-107850797D01*
X115317750Y-107845581D01*
X115297538Y-107838349D01*
X115278132Y-107829170D01*
X115259719Y-107818134D01*
X115242476Y-107805346D01*
X115226570Y-107790930D01*
X115212154Y-107775024D01*
X115199366Y-107757781D01*
X115188330Y-107739368D01*
X115179151Y-107719962D01*
X115171919Y-107699750D01*
X115166703Y-107678926D01*
X115163553Y-107657691D01*
X115162500Y-107636250D01*
X115162500Y-107123750D01*
X115163553Y-107102309D01*
X115166703Y-107081074D01*
X115171919Y-107060250D01*
X115179151Y-107040038D01*
X115188330Y-107020632D01*
X115199366Y-107002219D01*
X115212154Y-106984976D01*
X115226570Y-106969070D01*
X115242476Y-106954654D01*
X115259719Y-106941866D01*
X115278132Y-106930830D01*
X115297538Y-106921651D01*
X115317750Y-106914419D01*
X115338574Y-106909203D01*
X115359809Y-106906053D01*
X115381250Y-106905000D01*
X115818750Y-106905000D01*
X115840191Y-106906053D01*
G37*
G36*
X149277691Y-91178553D02*
G01*
X149298926Y-91181703D01*
X149319750Y-91186919D01*
X149339962Y-91194151D01*
X149359368Y-91203330D01*
X149377781Y-91214366D01*
X149395024Y-91227154D01*
X149410930Y-91241570D01*
X149425346Y-91257476D01*
X149438134Y-91274719D01*
X149449170Y-91293132D01*
X149458349Y-91312538D01*
X149465581Y-91332750D01*
X149470797Y-91353574D01*
X149473947Y-91374809D01*
X149475000Y-91396250D01*
X149475000Y-91833750D01*
X149473947Y-91855191D01*
X149470797Y-91876426D01*
X149465581Y-91897250D01*
X149458349Y-91917462D01*
X149449170Y-91936868D01*
X149438134Y-91955281D01*
X149425346Y-91972524D01*
X149410930Y-91988430D01*
X149395024Y-92002846D01*
X149377781Y-92015634D01*
X149359368Y-92026670D01*
X149339962Y-92035849D01*
X149319750Y-92043081D01*
X149298926Y-92048297D01*
X149277691Y-92051447D01*
X149256250Y-92052500D01*
X148743750Y-92052500D01*
X148722309Y-92051447D01*
X148701074Y-92048297D01*
X148680250Y-92043081D01*
X148660038Y-92035849D01*
X148640632Y-92026670D01*
X148622219Y-92015634D01*
X148604976Y-92002846D01*
X148589070Y-91988430D01*
X148574654Y-91972524D01*
X148561866Y-91955281D01*
X148550830Y-91936868D01*
X148541651Y-91917462D01*
X148534419Y-91897250D01*
X148529203Y-91876426D01*
X148526053Y-91855191D01*
X148525000Y-91833750D01*
X148525000Y-91396250D01*
X148526053Y-91374809D01*
X148529203Y-91353574D01*
X148534419Y-91332750D01*
X148541651Y-91312538D01*
X148550830Y-91293132D01*
X148561866Y-91274719D01*
X148574654Y-91257476D01*
X148589070Y-91241570D01*
X148604976Y-91227154D01*
X148622219Y-91214366D01*
X148640632Y-91203330D01*
X148660038Y-91194151D01*
X148680250Y-91186919D01*
X148701074Y-91181703D01*
X148722309Y-91178553D01*
X148743750Y-91177500D01*
X149256250Y-91177500D01*
X149277691Y-91178553D01*
G37*
G36*
X149277691Y-92753553D02*
G01*
X149298926Y-92756703D01*
X149319750Y-92761919D01*
X149339962Y-92769151D01*
X149359368Y-92778330D01*
X149377781Y-92789366D01*
X149395024Y-92802154D01*
X149410930Y-92816570D01*
X149425346Y-92832476D01*
X149438134Y-92849719D01*
X149449170Y-92868132D01*
X149458349Y-92887538D01*
X149465581Y-92907750D01*
X149470797Y-92928574D01*
X149473947Y-92949809D01*
X149475000Y-92971250D01*
X149475000Y-93408750D01*
X149473947Y-93430191D01*
X149470797Y-93451426D01*
X149465581Y-93472250D01*
X149458349Y-93492462D01*
X149449170Y-93511868D01*
X149438134Y-93530281D01*
X149425346Y-93547524D01*
X149410930Y-93563430D01*
X149395024Y-93577846D01*
X149377781Y-93590634D01*
X149359368Y-93601670D01*
X149339962Y-93610849D01*
X149319750Y-93618081D01*
X149298926Y-93623297D01*
X149277691Y-93626447D01*
X149256250Y-93627500D01*
X148743750Y-93627500D01*
X148722309Y-93626447D01*
X148701074Y-93623297D01*
X148680250Y-93618081D01*
X148660038Y-93610849D01*
X148640632Y-93601670D01*
X148622219Y-93590634D01*
X148604976Y-93577846D01*
X148589070Y-93563430D01*
X148574654Y-93547524D01*
X148561866Y-93530281D01*
X148550830Y-93511868D01*
X148541651Y-93492462D01*
X148534419Y-93472250D01*
X148529203Y-93451426D01*
X148526053Y-93430191D01*
X148525000Y-93408750D01*
X148525000Y-92971250D01*
X148526053Y-92949809D01*
X148529203Y-92928574D01*
X148534419Y-92907750D01*
X148541651Y-92887538D01*
X148550830Y-92868132D01*
X148561866Y-92849719D01*
X148574654Y-92832476D01*
X148589070Y-92816570D01*
X148604976Y-92802154D01*
X148622219Y-92789366D01*
X148640632Y-92778330D01*
X148660038Y-92769151D01*
X148680250Y-92761919D01*
X148701074Y-92756703D01*
X148722309Y-92753553D01*
X148743750Y-92752500D01*
X149256250Y-92752500D01*
X149277691Y-92753553D01*
G37*
G36*
X147677691Y-91178553D02*
G01*
X147698926Y-91181703D01*
X147719750Y-91186919D01*
X147739962Y-91194151D01*
X147759368Y-91203330D01*
X147777781Y-91214366D01*
X147795024Y-91227154D01*
X147810930Y-91241570D01*
X147825346Y-91257476D01*
X147838134Y-91274719D01*
X147849170Y-91293132D01*
X147858349Y-91312538D01*
X147865581Y-91332750D01*
X147870797Y-91353574D01*
X147873947Y-91374809D01*
X147875000Y-91396250D01*
X147875000Y-91833750D01*
X147873947Y-91855191D01*
X147870797Y-91876426D01*
X147865581Y-91897250D01*
X147858349Y-91917462D01*
X147849170Y-91936868D01*
X147838134Y-91955281D01*
X147825346Y-91972524D01*
X147810930Y-91988430D01*
X147795024Y-92002846D01*
X147777781Y-92015634D01*
X147759368Y-92026670D01*
X147739962Y-92035849D01*
X147719750Y-92043081D01*
X147698926Y-92048297D01*
X147677691Y-92051447D01*
X147656250Y-92052500D01*
X147143750Y-92052500D01*
X147122309Y-92051447D01*
X147101074Y-92048297D01*
X147080250Y-92043081D01*
X147060038Y-92035849D01*
X147040632Y-92026670D01*
X147022219Y-92015634D01*
X147004976Y-92002846D01*
X146989070Y-91988430D01*
X146974654Y-91972524D01*
X146961866Y-91955281D01*
X146950830Y-91936868D01*
X146941651Y-91917462D01*
X146934419Y-91897250D01*
X146929203Y-91876426D01*
X146926053Y-91855191D01*
X146925000Y-91833750D01*
X146925000Y-91396250D01*
X146926053Y-91374809D01*
X146929203Y-91353574D01*
X146934419Y-91332750D01*
X146941651Y-91312538D01*
X146950830Y-91293132D01*
X146961866Y-91274719D01*
X146974654Y-91257476D01*
X146989070Y-91241570D01*
X147004976Y-91227154D01*
X147022219Y-91214366D01*
X147040632Y-91203330D01*
X147060038Y-91194151D01*
X147080250Y-91186919D01*
X147101074Y-91181703D01*
X147122309Y-91178553D01*
X147143750Y-91177500D01*
X147656250Y-91177500D01*
X147677691Y-91178553D01*
G37*
G36*
X147677691Y-92753553D02*
G01*
X147698926Y-92756703D01*
X147719750Y-92761919D01*
X147739962Y-92769151D01*
X147759368Y-92778330D01*
X147777781Y-92789366D01*
X147795024Y-92802154D01*
X147810930Y-92816570D01*
X147825346Y-92832476D01*
X147838134Y-92849719D01*
X147849170Y-92868132D01*
X147858349Y-92887538D01*
X147865581Y-92907750D01*
X147870797Y-92928574D01*
X147873947Y-92949809D01*
X147875000Y-92971250D01*
X147875000Y-93408750D01*
X147873947Y-93430191D01*
X147870797Y-93451426D01*
X147865581Y-93472250D01*
X147858349Y-93492462D01*
X147849170Y-93511868D01*
X147838134Y-93530281D01*
X147825346Y-93547524D01*
X147810930Y-93563430D01*
X147795024Y-93577846D01*
X147777781Y-93590634D01*
X147759368Y-93601670D01*
X147739962Y-93610849D01*
X147719750Y-93618081D01*
X147698926Y-93623297D01*
X147677691Y-93626447D01*
X147656250Y-93627500D01*
X147143750Y-93627500D01*
X147122309Y-93626447D01*
X147101074Y-93623297D01*
X147080250Y-93618081D01*
X147060038Y-93610849D01*
X147040632Y-93601670D01*
X147022219Y-93590634D01*
X147004976Y-93577846D01*
X146989070Y-93563430D01*
X146974654Y-93547524D01*
X146961866Y-93530281D01*
X146950830Y-93511868D01*
X146941651Y-93492462D01*
X146934419Y-93472250D01*
X146929203Y-93451426D01*
X146926053Y-93430191D01*
X146925000Y-93408750D01*
X146925000Y-92971250D01*
X146926053Y-92949809D01*
X146929203Y-92928574D01*
X146934419Y-92907750D01*
X146941651Y-92887538D01*
X146950830Y-92868132D01*
X146961866Y-92849719D01*
X146974654Y-92832476D01*
X146989070Y-92816570D01*
X147004976Y-92802154D01*
X147022219Y-92789366D01*
X147040632Y-92778330D01*
X147060038Y-92769151D01*
X147080250Y-92761919D01*
X147101074Y-92756703D01*
X147122309Y-92753553D01*
X147143750Y-92752500D01*
X147656250Y-92752500D01*
X147677691Y-92753553D01*
G37*
G36*
X170090191Y-96126053D02*
G01*
X170111426Y-96129203D01*
X170132250Y-96134419D01*
X170152462Y-96141651D01*
X170171868Y-96150830D01*
X170190281Y-96161866D01*
X170207524Y-96174654D01*
X170223430Y-96189070D01*
X170237846Y-96204976D01*
X170250634Y-96222219D01*
X170261670Y-96240632D01*
X170270849Y-96260038D01*
X170278081Y-96280250D01*
X170283297Y-96301074D01*
X170286447Y-96322309D01*
X170287500Y-96343750D01*
X170287500Y-96856250D01*
X170286447Y-96877691D01*
X170283297Y-96898926D01*
X170278081Y-96919750D01*
X170270849Y-96939962D01*
X170261670Y-96959368D01*
X170250634Y-96977781D01*
X170237846Y-96995024D01*
X170223430Y-97010930D01*
X170207524Y-97025346D01*
X170190281Y-97038134D01*
X170171868Y-97049170D01*
X170152462Y-97058349D01*
X170132250Y-97065581D01*
X170111426Y-97070797D01*
X170090191Y-97073947D01*
X170068750Y-97075000D01*
X169631250Y-97075000D01*
X169609809Y-97073947D01*
X169588574Y-97070797D01*
X169567750Y-97065581D01*
X169547538Y-97058349D01*
X169528132Y-97049170D01*
X169509719Y-97038134D01*
X169492476Y-97025346D01*
X169476570Y-97010930D01*
X169462154Y-96995024D01*
X169449366Y-96977781D01*
X169438330Y-96959368D01*
X169429151Y-96939962D01*
X169421919Y-96919750D01*
X169416703Y-96898926D01*
X169413553Y-96877691D01*
X169412500Y-96856250D01*
X169412500Y-96343750D01*
X169413553Y-96322309D01*
X169416703Y-96301074D01*
X169421919Y-96280250D01*
X169429151Y-96260038D01*
X169438330Y-96240632D01*
X169449366Y-96222219D01*
X169462154Y-96204976D01*
X169476570Y-96189070D01*
X169492476Y-96174654D01*
X169509719Y-96161866D01*
X169528132Y-96150830D01*
X169547538Y-96141651D01*
X169567750Y-96134419D01*
X169588574Y-96129203D01*
X169609809Y-96126053D01*
X169631250Y-96125000D01*
X170068750Y-96125000D01*
X170090191Y-96126053D01*
G37*
G36*
X171665191Y-96126053D02*
G01*
X171686426Y-96129203D01*
X171707250Y-96134419D01*
X171727462Y-96141651D01*
X171746868Y-96150830D01*
X171765281Y-96161866D01*
X171782524Y-96174654D01*
X171798430Y-96189070D01*
X171812846Y-96204976D01*
X171825634Y-96222219D01*
X171836670Y-96240632D01*
X171845849Y-96260038D01*
X171853081Y-96280250D01*
X171858297Y-96301074D01*
X171861447Y-96322309D01*
X171862500Y-96343750D01*
X171862500Y-96856250D01*
X171861447Y-96877691D01*
X171858297Y-96898926D01*
X171853081Y-96919750D01*
X171845849Y-96939962D01*
X171836670Y-96959368D01*
X171825634Y-96977781D01*
X171812846Y-96995024D01*
X171798430Y-97010930D01*
X171782524Y-97025346D01*
X171765281Y-97038134D01*
X171746868Y-97049170D01*
X171727462Y-97058349D01*
X171707250Y-97065581D01*
X171686426Y-97070797D01*
X171665191Y-97073947D01*
X171643750Y-97075000D01*
X171206250Y-97075000D01*
X171184809Y-97073947D01*
X171163574Y-97070797D01*
X171142750Y-97065581D01*
X171122538Y-97058349D01*
X171103132Y-97049170D01*
X171084719Y-97038134D01*
X171067476Y-97025346D01*
X171051570Y-97010930D01*
X171037154Y-96995024D01*
X171024366Y-96977781D01*
X171013330Y-96959368D01*
X171004151Y-96939962D01*
X170996919Y-96919750D01*
X170991703Y-96898926D01*
X170988553Y-96877691D01*
X170987500Y-96856250D01*
X170987500Y-96343750D01*
X170988553Y-96322309D01*
X170991703Y-96301074D01*
X170996919Y-96280250D01*
X171004151Y-96260038D01*
X171013330Y-96240632D01*
X171024366Y-96222219D01*
X171037154Y-96204976D01*
X171051570Y-96189070D01*
X171067476Y-96174654D01*
X171084719Y-96161866D01*
X171103132Y-96150830D01*
X171122538Y-96141651D01*
X171142750Y-96134419D01*
X171163574Y-96129203D01*
X171184809Y-96126053D01*
X171206250Y-96125000D01*
X171643750Y-96125000D01*
X171665191Y-96126053D01*
G37*
G36*
X170277691Y-91951053D02*
G01*
X170298926Y-91954203D01*
X170319750Y-91959419D01*
X170339962Y-91966651D01*
X170359368Y-91975830D01*
X170377781Y-91986866D01*
X170395024Y-91999654D01*
X170410930Y-92014070D01*
X170425346Y-92029976D01*
X170438134Y-92047219D01*
X170449170Y-92065632D01*
X170458349Y-92085038D01*
X170465581Y-92105250D01*
X170470797Y-92126074D01*
X170473947Y-92147309D01*
X170475000Y-92168750D01*
X170475000Y-92606250D01*
X170473947Y-92627691D01*
X170470797Y-92648926D01*
X170465581Y-92669750D01*
X170458349Y-92689962D01*
X170449170Y-92709368D01*
X170438134Y-92727781D01*
X170425346Y-92745024D01*
X170410930Y-92760930D01*
X170395024Y-92775346D01*
X170377781Y-92788134D01*
X170359368Y-92799170D01*
X170339962Y-92808349D01*
X170319750Y-92815581D01*
X170298926Y-92820797D01*
X170277691Y-92823947D01*
X170256250Y-92825000D01*
X169743750Y-92825000D01*
X169722309Y-92823947D01*
X169701074Y-92820797D01*
X169680250Y-92815581D01*
X169660038Y-92808349D01*
X169640632Y-92799170D01*
X169622219Y-92788134D01*
X169604976Y-92775346D01*
X169589070Y-92760930D01*
X169574654Y-92745024D01*
X169561866Y-92727781D01*
X169550830Y-92709368D01*
X169541651Y-92689962D01*
X169534419Y-92669750D01*
X169529203Y-92648926D01*
X169526053Y-92627691D01*
X169525000Y-92606250D01*
X169525000Y-92168750D01*
X169526053Y-92147309D01*
X169529203Y-92126074D01*
X169534419Y-92105250D01*
X169541651Y-92085038D01*
X169550830Y-92065632D01*
X169561866Y-92047219D01*
X169574654Y-92029976D01*
X169589070Y-92014070D01*
X169604976Y-91999654D01*
X169622219Y-91986866D01*
X169640632Y-91975830D01*
X169660038Y-91966651D01*
X169680250Y-91959419D01*
X169701074Y-91954203D01*
X169722309Y-91951053D01*
X169743750Y-91950000D01*
X170256250Y-91950000D01*
X170277691Y-91951053D01*
G37*
G36*
X170277691Y-90376053D02*
G01*
X170298926Y-90379203D01*
X170319750Y-90384419D01*
X170339962Y-90391651D01*
X170359368Y-90400830D01*
X170377781Y-90411866D01*
X170395024Y-90424654D01*
X170410930Y-90439070D01*
X170425346Y-90454976D01*
X170438134Y-90472219D01*
X170449170Y-90490632D01*
X170458349Y-90510038D01*
X170465581Y-90530250D01*
X170470797Y-90551074D01*
X170473947Y-90572309D01*
X170475000Y-90593750D01*
X170475000Y-91031250D01*
X170473947Y-91052691D01*
X170470797Y-91073926D01*
X170465581Y-91094750D01*
X170458349Y-91114962D01*
X170449170Y-91134368D01*
X170438134Y-91152781D01*
X170425346Y-91170024D01*
X170410930Y-91185930D01*
X170395024Y-91200346D01*
X170377781Y-91213134D01*
X170359368Y-91224170D01*
X170339962Y-91233349D01*
X170319750Y-91240581D01*
X170298926Y-91245797D01*
X170277691Y-91248947D01*
X170256250Y-91250000D01*
X169743750Y-91250000D01*
X169722309Y-91248947D01*
X169701074Y-91245797D01*
X169680250Y-91240581D01*
X169660038Y-91233349D01*
X169640632Y-91224170D01*
X169622219Y-91213134D01*
X169604976Y-91200346D01*
X169589070Y-91185930D01*
X169574654Y-91170024D01*
X169561866Y-91152781D01*
X169550830Y-91134368D01*
X169541651Y-91114962D01*
X169534419Y-91094750D01*
X169529203Y-91073926D01*
X169526053Y-91052691D01*
X169525000Y-91031250D01*
X169525000Y-90593750D01*
X169526053Y-90572309D01*
X169529203Y-90551074D01*
X169534419Y-90530250D01*
X169541651Y-90510038D01*
X169550830Y-90490632D01*
X169561866Y-90472219D01*
X169574654Y-90454976D01*
X169589070Y-90439070D01*
X169604976Y-90424654D01*
X169622219Y-90411866D01*
X169640632Y-90400830D01*
X169660038Y-90391651D01*
X169680250Y-90384419D01*
X169701074Y-90379203D01*
X169722309Y-90376053D01*
X169743750Y-90375000D01*
X170256250Y-90375000D01*
X170277691Y-90376053D01*
G37*
G36*
X181777691Y-102751053D02*
G01*
X181798926Y-102754203D01*
X181819750Y-102759419D01*
X181839962Y-102766651D01*
X181859368Y-102775830D01*
X181877781Y-102786866D01*
X181895024Y-102799654D01*
X181910930Y-102814070D01*
X181925346Y-102829976D01*
X181938134Y-102847219D01*
X181949170Y-102865632D01*
X181958349Y-102885038D01*
X181965581Y-102905250D01*
X181970797Y-102926074D01*
X181973947Y-102947309D01*
X181975000Y-102968750D01*
X181975000Y-103406250D01*
X181973947Y-103427691D01*
X181970797Y-103448926D01*
X181965581Y-103469750D01*
X181958349Y-103489962D01*
X181949170Y-103509368D01*
X181938134Y-103527781D01*
X181925346Y-103545024D01*
X181910930Y-103560930D01*
X181895024Y-103575346D01*
X181877781Y-103588134D01*
X181859368Y-103599170D01*
X181839962Y-103608349D01*
X181819750Y-103615581D01*
X181798926Y-103620797D01*
X181777691Y-103623947D01*
X181756250Y-103625000D01*
X181243750Y-103625000D01*
X181222309Y-103623947D01*
X181201074Y-103620797D01*
X181180250Y-103615581D01*
X181160038Y-103608349D01*
X181140632Y-103599170D01*
X181122219Y-103588134D01*
X181104976Y-103575346D01*
X181089070Y-103560930D01*
X181074654Y-103545024D01*
X181061866Y-103527781D01*
X181050830Y-103509368D01*
X181041651Y-103489962D01*
X181034419Y-103469750D01*
X181029203Y-103448926D01*
X181026053Y-103427691D01*
X181025000Y-103406250D01*
X181025000Y-102968750D01*
X181026053Y-102947309D01*
X181029203Y-102926074D01*
X181034419Y-102905250D01*
X181041651Y-102885038D01*
X181050830Y-102865632D01*
X181061866Y-102847219D01*
X181074654Y-102829976D01*
X181089070Y-102814070D01*
X181104976Y-102799654D01*
X181122219Y-102786866D01*
X181140632Y-102775830D01*
X181160038Y-102766651D01*
X181180250Y-102759419D01*
X181201074Y-102754203D01*
X181222309Y-102751053D01*
X181243750Y-102750000D01*
X181756250Y-102750000D01*
X181777691Y-102751053D01*
G37*
G36*
X181777691Y-101176053D02*
G01*
X181798926Y-101179203D01*
X181819750Y-101184419D01*
X181839962Y-101191651D01*
X181859368Y-101200830D01*
X181877781Y-101211866D01*
X181895024Y-101224654D01*
X181910930Y-101239070D01*
X181925346Y-101254976D01*
X181938134Y-101272219D01*
X181949170Y-101290632D01*
X181958349Y-101310038D01*
X181965581Y-101330250D01*
X181970797Y-101351074D01*
X181973947Y-101372309D01*
X181975000Y-101393750D01*
X181975000Y-101831250D01*
X181973947Y-101852691D01*
X181970797Y-101873926D01*
X181965581Y-101894750D01*
X181958349Y-101914962D01*
X181949170Y-101934368D01*
X181938134Y-101952781D01*
X181925346Y-101970024D01*
X181910930Y-101985930D01*
X181895024Y-102000346D01*
X181877781Y-102013134D01*
X181859368Y-102024170D01*
X181839962Y-102033349D01*
X181819750Y-102040581D01*
X181798926Y-102045797D01*
X181777691Y-102048947D01*
X181756250Y-102050000D01*
X181243750Y-102050000D01*
X181222309Y-102048947D01*
X181201074Y-102045797D01*
X181180250Y-102040581D01*
X181160038Y-102033349D01*
X181140632Y-102024170D01*
X181122219Y-102013134D01*
X181104976Y-102000346D01*
X181089070Y-101985930D01*
X181074654Y-101970024D01*
X181061866Y-101952781D01*
X181050830Y-101934368D01*
X181041651Y-101914962D01*
X181034419Y-101894750D01*
X181029203Y-101873926D01*
X181026053Y-101852691D01*
X181025000Y-101831250D01*
X181025000Y-101393750D01*
X181026053Y-101372309D01*
X181029203Y-101351074D01*
X181034419Y-101330250D01*
X181041651Y-101310038D01*
X181050830Y-101290632D01*
X181061866Y-101272219D01*
X181074654Y-101254976D01*
X181089070Y-101239070D01*
X181104976Y-101224654D01*
X181122219Y-101211866D01*
X181140632Y-101200830D01*
X181160038Y-101191651D01*
X181180250Y-101184419D01*
X181201074Y-101179203D01*
X181222309Y-101176053D01*
X181243750Y-101175000D01*
X181756250Y-101175000D01*
X181777691Y-101176053D01*
G37*
D18*
X166500000Y-92600000D03*
X165550000Y-90600000D03*
X167450000Y-90600000D03*
D19*
X159360000Y-96262500D03*
X161360000Y-95312500D03*
X161360000Y-97212500D03*
D20*
X120980000Y-105910000D03*
X120990000Y-102305000D03*
D11*
G36*
X176414865Y-94661202D02*
G01*
X176439095Y-94664796D01*
X176462855Y-94670748D01*
X176485918Y-94679000D01*
X176508061Y-94689472D01*
X176529070Y-94702065D01*
X176548745Y-94716657D01*
X176566894Y-94733106D01*
X176583343Y-94751255D01*
X176597935Y-94770930D01*
X176610528Y-94791939D01*
X176621000Y-94814082D01*
X176629252Y-94837145D01*
X176635204Y-94860905D01*
X176638798Y-94885135D01*
X176640000Y-94909600D01*
X176640000Y-97110400D01*
X176638798Y-97134865D01*
X176635204Y-97159095D01*
X176629252Y-97182855D01*
X176621000Y-97205918D01*
X176610528Y-97228061D01*
X176597935Y-97249070D01*
X176583343Y-97268745D01*
X176566894Y-97286894D01*
X176548745Y-97303343D01*
X176529070Y-97317935D01*
X176508061Y-97330528D01*
X176485918Y-97341000D01*
X176462855Y-97349252D01*
X176439095Y-97355204D01*
X176414865Y-97358798D01*
X176390400Y-97360000D01*
X175289600Y-97360000D01*
X175265135Y-97358798D01*
X175240905Y-97355204D01*
X175217145Y-97349252D01*
X175194082Y-97341000D01*
X175171939Y-97330528D01*
X175150930Y-97317935D01*
X175131255Y-97303343D01*
X175113106Y-97286894D01*
X175096657Y-97268745D01*
X175082065Y-97249070D01*
X175069472Y-97228061D01*
X175059000Y-97205918D01*
X175050748Y-97182855D01*
X175044796Y-97159095D01*
X175041202Y-97134865D01*
X175040000Y-97110400D01*
X175040000Y-94909600D01*
X175041202Y-94885135D01*
X175044796Y-94860905D01*
X175050748Y-94837145D01*
X175059000Y-94814082D01*
X175069472Y-94791939D01*
X175082065Y-94770930D01*
X175096657Y-94751255D01*
X175113106Y-94733106D01*
X175131255Y-94716657D01*
X175150930Y-94702065D01*
X175171939Y-94689472D01*
X175194082Y-94679000D01*
X175217145Y-94670748D01*
X175240905Y-94664796D01*
X175265135Y-94661202D01*
X175289600Y-94660000D01*
X176390400Y-94660000D01*
X176414865Y-94661202D01*
G37*
G36*
X176414865Y-99561202D02*
G01*
X176439095Y-99564796D01*
X176462855Y-99570748D01*
X176485918Y-99579000D01*
X176508061Y-99589472D01*
X176529070Y-99602065D01*
X176548745Y-99616657D01*
X176566894Y-99633106D01*
X176583343Y-99651255D01*
X176597935Y-99670930D01*
X176610528Y-99691939D01*
X176621000Y-99714082D01*
X176629252Y-99737145D01*
X176635204Y-99760905D01*
X176638798Y-99785135D01*
X176640000Y-99809600D01*
X176640000Y-102010400D01*
X176638798Y-102034865D01*
X176635204Y-102059095D01*
X176629252Y-102082855D01*
X176621000Y-102105918D01*
X176610528Y-102128061D01*
X176597935Y-102149070D01*
X176583343Y-102168745D01*
X176566894Y-102186894D01*
X176548745Y-102203343D01*
X176529070Y-102217935D01*
X176508061Y-102230528D01*
X176485918Y-102241000D01*
X176462855Y-102249252D01*
X176439095Y-102255204D01*
X176414865Y-102258798D01*
X176390400Y-102260000D01*
X175289600Y-102260000D01*
X175265135Y-102258798D01*
X175240905Y-102255204D01*
X175217145Y-102249252D01*
X175194082Y-102241000D01*
X175171939Y-102230528D01*
X175150930Y-102217935D01*
X175131255Y-102203343D01*
X175113106Y-102186894D01*
X175096657Y-102168745D01*
X175082065Y-102149070D01*
X175069472Y-102128061D01*
X175059000Y-102105918D01*
X175050748Y-102082855D01*
X175044796Y-102059095D01*
X175041202Y-102034865D01*
X175040000Y-102010400D01*
X175040000Y-99809600D01*
X175041202Y-99785135D01*
X175044796Y-99760905D01*
X175050748Y-99737145D01*
X175059000Y-99714082D01*
X175069472Y-99691939D01*
X175082065Y-99670930D01*
X175096657Y-99651255D01*
X175113106Y-99633106D01*
X175131255Y-99616657D01*
X175150930Y-99602065D01*
X175171939Y-99589472D01*
X175194082Y-99579000D01*
X175217145Y-99570748D01*
X175240905Y-99564796D01*
X175265135Y-99561202D01*
X175289600Y-99560000D01*
X176390400Y-99560000D01*
X176414865Y-99561202D01*
G37*
G36*
X129314865Y-101671202D02*
G01*
X129339095Y-101674796D01*
X129362855Y-101680748D01*
X129385918Y-101689000D01*
X129408061Y-101699472D01*
X129429070Y-101712065D01*
X129448745Y-101726657D01*
X129466894Y-101743106D01*
X129483343Y-101761255D01*
X129497935Y-101780930D01*
X129510528Y-101801939D01*
X129521000Y-101824082D01*
X129529252Y-101847145D01*
X129535204Y-101870905D01*
X129538798Y-101895135D01*
X129540000Y-101919600D01*
X129540000Y-104120400D01*
X129538798Y-104144865D01*
X129535204Y-104169095D01*
X129529252Y-104192855D01*
X129521000Y-104215918D01*
X129510528Y-104238061D01*
X129497935Y-104259070D01*
X129483343Y-104278745D01*
X129466894Y-104296894D01*
X129448745Y-104313343D01*
X129429070Y-104327935D01*
X129408061Y-104340528D01*
X129385918Y-104351000D01*
X129362855Y-104359252D01*
X129339095Y-104365204D01*
X129314865Y-104368798D01*
X129290400Y-104370000D01*
X128189600Y-104370000D01*
X128165135Y-104368798D01*
X128140905Y-104365204D01*
X128117145Y-104359252D01*
X128094082Y-104351000D01*
X128071939Y-104340528D01*
X128050930Y-104327935D01*
X128031255Y-104313343D01*
X128013106Y-104296894D01*
X127996657Y-104278745D01*
X127982065Y-104259070D01*
X127969472Y-104238061D01*
X127959000Y-104215918D01*
X127950748Y-104192855D01*
X127944796Y-104169095D01*
X127941202Y-104144865D01*
X127940000Y-104120400D01*
X127940000Y-101919600D01*
X127941202Y-101895135D01*
X127944796Y-101870905D01*
X127950748Y-101847145D01*
X127959000Y-101824082D01*
X127969472Y-101801939D01*
X127982065Y-101780930D01*
X127996657Y-101761255D01*
X128013106Y-101743106D01*
X128031255Y-101726657D01*
X128050930Y-101712065D01*
X128071939Y-101699472D01*
X128094082Y-101689000D01*
X128117145Y-101680748D01*
X128140905Y-101674796D01*
X128165135Y-101671202D01*
X128189600Y-101670000D01*
X129290400Y-101670000D01*
X129314865Y-101671202D01*
G37*
G36*
X129314865Y-96771202D02*
G01*
X129339095Y-96774796D01*
X129362855Y-96780748D01*
X129385918Y-96789000D01*
X129408061Y-96799472D01*
X129429070Y-96812065D01*
X129448745Y-96826657D01*
X129466894Y-96843106D01*
X129483343Y-96861255D01*
X129497935Y-96880930D01*
X129510528Y-96901939D01*
X129521000Y-96924082D01*
X129529252Y-96947145D01*
X129535204Y-96970905D01*
X129538798Y-96995135D01*
X129540000Y-97019600D01*
X129540000Y-99220400D01*
X129538798Y-99244865D01*
X129535204Y-99269095D01*
X129529252Y-99292855D01*
X129521000Y-99315918D01*
X129510528Y-99338061D01*
X129497935Y-99359070D01*
X129483343Y-99378745D01*
X129466894Y-99396894D01*
X129448745Y-99413343D01*
X129429070Y-99427935D01*
X129408061Y-99440528D01*
X129385918Y-99451000D01*
X129362855Y-99459252D01*
X129339095Y-99465204D01*
X129314865Y-99468798D01*
X129290400Y-99470000D01*
X128189600Y-99470000D01*
X128165135Y-99468798D01*
X128140905Y-99465204D01*
X128117145Y-99459252D01*
X128094082Y-99451000D01*
X128071939Y-99440528D01*
X128050930Y-99427935D01*
X128031255Y-99413343D01*
X128013106Y-99396894D01*
X127996657Y-99378745D01*
X127982065Y-99359070D01*
X127969472Y-99338061D01*
X127959000Y-99315918D01*
X127950748Y-99292855D01*
X127944796Y-99269095D01*
X127941202Y-99244865D01*
X127940000Y-99220400D01*
X127940000Y-97019600D01*
X127941202Y-96995135D01*
X127944796Y-96970905D01*
X127950748Y-96947145D01*
X127959000Y-96924082D01*
X127969472Y-96901939D01*
X127982065Y-96880930D01*
X127996657Y-96861255D01*
X128013106Y-96843106D01*
X128031255Y-96826657D01*
X128050930Y-96812065D01*
X128071939Y-96799472D01*
X128094082Y-96789000D01*
X128117145Y-96780748D01*
X128140905Y-96774796D01*
X128165135Y-96771202D01*
X128189600Y-96770000D01*
X129290400Y-96770000D01*
X129314865Y-96771202D01*
G37*
G36*
X159319291Y-87510751D02*
G01*
X159334434Y-87512997D01*
X159349284Y-87516717D01*
X159363699Y-87521875D01*
X159377538Y-87528420D01*
X159390669Y-87536291D01*
X159402965Y-87545410D01*
X159414309Y-87555691D01*
X159424590Y-87567035D01*
X159433709Y-87579331D01*
X159441580Y-87592462D01*
X159448125Y-87606301D01*
X159453283Y-87620716D01*
X159457003Y-87635566D01*
X159459249Y-87650709D01*
X159460000Y-87666000D01*
X159460000Y-88354000D01*
X159459249Y-88369291D01*
X159457003Y-88384434D01*
X159453283Y-88399284D01*
X159448125Y-88413699D01*
X159441580Y-88427538D01*
X159433709Y-88440669D01*
X159424590Y-88452965D01*
X159414309Y-88464309D01*
X159402965Y-88474590D01*
X159390669Y-88483709D01*
X159377538Y-88491580D01*
X159363699Y-88498125D01*
X159349284Y-88503283D01*
X159334434Y-88507003D01*
X159319291Y-88509249D01*
X159304000Y-88510000D01*
X157316000Y-88510000D01*
X157300709Y-88509249D01*
X157285566Y-88507003D01*
X157270716Y-88503283D01*
X157256301Y-88498125D01*
X157242462Y-88491580D01*
X157229331Y-88483709D01*
X157217035Y-88474590D01*
X157205691Y-88464309D01*
X157195410Y-88452965D01*
X157186291Y-88440669D01*
X157178420Y-88427538D01*
X157171875Y-88413699D01*
X157166717Y-88399284D01*
X157162997Y-88384434D01*
X157160751Y-88369291D01*
X157160000Y-88354000D01*
X157160000Y-87666000D01*
X157160751Y-87650709D01*
X157162997Y-87635566D01*
X157166717Y-87620716D01*
X157171875Y-87606301D01*
X157178420Y-87592462D01*
X157186291Y-87579331D01*
X157195410Y-87567035D01*
X157205691Y-87555691D01*
X157217035Y-87545410D01*
X157229331Y-87536291D01*
X157242462Y-87528420D01*
X157256301Y-87521875D01*
X157270716Y-87516717D01*
X157285566Y-87512997D01*
X157300709Y-87510751D01*
X157316000Y-87510000D01*
X159304000Y-87510000D01*
X159319291Y-87510751D01*
G37*
G36*
X162639291Y-87510751D02*
G01*
X162654434Y-87512997D01*
X162669284Y-87516717D01*
X162683699Y-87521875D01*
X162697538Y-87528420D01*
X162710669Y-87536291D01*
X162722965Y-87545410D01*
X162734309Y-87555691D01*
X162744590Y-87567035D01*
X162753709Y-87579331D01*
X162761580Y-87592462D01*
X162768125Y-87606301D01*
X162773283Y-87620716D01*
X162777003Y-87635566D01*
X162779249Y-87650709D01*
X162780000Y-87666000D01*
X162780000Y-88354000D01*
X162779249Y-88369291D01*
X162777003Y-88384434D01*
X162773283Y-88399284D01*
X162768125Y-88413699D01*
X162761580Y-88427538D01*
X162753709Y-88440669D01*
X162744590Y-88452965D01*
X162734309Y-88464309D01*
X162722965Y-88474590D01*
X162710669Y-88483709D01*
X162697538Y-88491580D01*
X162683699Y-88498125D01*
X162669284Y-88503283D01*
X162654434Y-88507003D01*
X162639291Y-88509249D01*
X162624000Y-88510000D01*
X160636000Y-88510000D01*
X160620709Y-88509249D01*
X160605566Y-88507003D01*
X160590716Y-88503283D01*
X160576301Y-88498125D01*
X160562462Y-88491580D01*
X160549331Y-88483709D01*
X160537035Y-88474590D01*
X160525691Y-88464309D01*
X160515410Y-88452965D01*
X160506291Y-88440669D01*
X160498420Y-88427538D01*
X160491875Y-88413699D01*
X160486717Y-88399284D01*
X160482997Y-88384434D01*
X160480751Y-88369291D01*
X160480000Y-88354000D01*
X160480000Y-87666000D01*
X160480751Y-87650709D01*
X160482997Y-87635566D01*
X160486717Y-87620716D01*
X160491875Y-87606301D01*
X160498420Y-87592462D01*
X160506291Y-87579331D01*
X160515410Y-87567035D01*
X160525691Y-87555691D01*
X160537035Y-87545410D01*
X160549331Y-87536291D01*
X160562462Y-87528420D01*
X160576301Y-87521875D01*
X160590716Y-87516717D01*
X160605566Y-87512997D01*
X160620709Y-87510751D01*
X160636000Y-87510000D01*
X162624000Y-87510000D01*
X162639291Y-87510751D01*
G37*
G36*
X167539291Y-99590751D02*
G01*
X167554434Y-99592997D01*
X167569284Y-99596717D01*
X167583699Y-99601875D01*
X167597538Y-99608420D01*
X167610669Y-99616291D01*
X167622965Y-99625410D01*
X167634309Y-99635691D01*
X167644590Y-99647035D01*
X167653709Y-99659331D01*
X167661580Y-99672462D01*
X167668125Y-99686301D01*
X167673283Y-99700716D01*
X167677003Y-99715566D01*
X167679249Y-99730709D01*
X167680000Y-99746000D01*
X167680000Y-100434000D01*
X167679249Y-100449291D01*
X167677003Y-100464434D01*
X167673283Y-100479284D01*
X167668125Y-100493699D01*
X167661580Y-100507538D01*
X167653709Y-100520669D01*
X167644590Y-100532965D01*
X167634309Y-100544309D01*
X167622965Y-100554590D01*
X167610669Y-100563709D01*
X167597538Y-100571580D01*
X167583699Y-100578125D01*
X167569284Y-100583283D01*
X167554434Y-100587003D01*
X167539291Y-100589249D01*
X167524000Y-100590000D01*
X165536000Y-100590000D01*
X165520709Y-100589249D01*
X165505566Y-100587003D01*
X165490716Y-100583283D01*
X165476301Y-100578125D01*
X165462462Y-100571580D01*
X165449331Y-100563709D01*
X165437035Y-100554590D01*
X165425691Y-100544309D01*
X165415410Y-100532965D01*
X165406291Y-100520669D01*
X165398420Y-100507538D01*
X165391875Y-100493699D01*
X165386717Y-100479284D01*
X165382997Y-100464434D01*
X165380751Y-100449291D01*
X165380000Y-100434000D01*
X165380000Y-99746000D01*
X165380751Y-99730709D01*
X165382997Y-99715566D01*
X165386717Y-99700716D01*
X165391875Y-99686301D01*
X165398420Y-99672462D01*
X165406291Y-99659331D01*
X165415410Y-99647035D01*
X165425691Y-99635691D01*
X165437035Y-99625410D01*
X165449331Y-99616291D01*
X165462462Y-99608420D01*
X165476301Y-99601875D01*
X165490716Y-99596717D01*
X165505566Y-99592997D01*
X165520709Y-99590751D01*
X165536000Y-99590000D01*
X167524000Y-99590000D01*
X167539291Y-99590751D01*
G37*
G36*
X170859291Y-99590751D02*
G01*
X170874434Y-99592997D01*
X170889284Y-99596717D01*
X170903699Y-99601875D01*
X170917538Y-99608420D01*
X170930669Y-99616291D01*
X170942965Y-99625410D01*
X170954309Y-99635691D01*
X170964590Y-99647035D01*
X170973709Y-99659331D01*
X170981580Y-99672462D01*
X170988125Y-99686301D01*
X170993283Y-99700716D01*
X170997003Y-99715566D01*
X170999249Y-99730709D01*
X171000000Y-99746000D01*
X171000000Y-100434000D01*
X170999249Y-100449291D01*
X170997003Y-100464434D01*
X170993283Y-100479284D01*
X170988125Y-100493699D01*
X170981580Y-100507538D01*
X170973709Y-100520669D01*
X170964590Y-100532965D01*
X170954309Y-100544309D01*
X170942965Y-100554590D01*
X170930669Y-100563709D01*
X170917538Y-100571580D01*
X170903699Y-100578125D01*
X170889284Y-100583283D01*
X170874434Y-100587003D01*
X170859291Y-100589249D01*
X170844000Y-100590000D01*
X168856000Y-100590000D01*
X168840709Y-100589249D01*
X168825566Y-100587003D01*
X168810716Y-100583283D01*
X168796301Y-100578125D01*
X168782462Y-100571580D01*
X168769331Y-100563709D01*
X168757035Y-100554590D01*
X168745691Y-100544309D01*
X168735410Y-100532965D01*
X168726291Y-100520669D01*
X168718420Y-100507538D01*
X168711875Y-100493699D01*
X168706717Y-100479284D01*
X168702997Y-100464434D01*
X168700751Y-100449291D01*
X168700000Y-100434000D01*
X168700000Y-99746000D01*
X168700751Y-99730709D01*
X168702997Y-99715566D01*
X168706717Y-99700716D01*
X168711875Y-99686301D01*
X168718420Y-99672462D01*
X168726291Y-99659331D01*
X168735410Y-99647035D01*
X168745691Y-99635691D01*
X168757035Y-99625410D01*
X168769331Y-99616291D01*
X168782462Y-99608420D01*
X168796301Y-99601875D01*
X168810716Y-99596717D01*
X168825566Y-99592997D01*
X168840709Y-99590751D01*
X168856000Y-99590000D01*
X170844000Y-99590000D01*
X170859291Y-99590751D01*
G37*
G36*
X174319291Y-89170751D02*
G01*
X174334434Y-89172997D01*
X174349284Y-89176717D01*
X174363699Y-89181875D01*
X174377538Y-89188420D01*
X174390669Y-89196291D01*
X174402965Y-89205410D01*
X174414309Y-89215691D01*
X174424590Y-89227035D01*
X174433709Y-89239331D01*
X174441580Y-89252462D01*
X174448125Y-89266301D01*
X174453283Y-89280716D01*
X174457003Y-89295566D01*
X174459249Y-89310709D01*
X174460000Y-89326000D01*
X174460000Y-90014000D01*
X174459249Y-90029291D01*
X174457003Y-90044434D01*
X174453283Y-90059284D01*
X174448125Y-90073699D01*
X174441580Y-90087538D01*
X174433709Y-90100669D01*
X174424590Y-90112965D01*
X174414309Y-90124309D01*
X174402965Y-90134590D01*
X174390669Y-90143709D01*
X174377538Y-90151580D01*
X174363699Y-90158125D01*
X174349284Y-90163283D01*
X174334434Y-90167003D01*
X174319291Y-90169249D01*
X174304000Y-90170000D01*
X172316000Y-90170000D01*
X172300709Y-90169249D01*
X172285566Y-90167003D01*
X172270716Y-90163283D01*
X172256301Y-90158125D01*
X172242462Y-90151580D01*
X172229331Y-90143709D01*
X172217035Y-90134590D01*
X172205691Y-90124309D01*
X172195410Y-90112965D01*
X172186291Y-90100669D01*
X172178420Y-90087538D01*
X172171875Y-90073699D01*
X172166717Y-90059284D01*
X172162997Y-90044434D01*
X172160751Y-90029291D01*
X172160000Y-90014000D01*
X172160000Y-89326000D01*
X172160751Y-89310709D01*
X172162997Y-89295566D01*
X172166717Y-89280716D01*
X172171875Y-89266301D01*
X172178420Y-89252462D01*
X172186291Y-89239331D01*
X172195410Y-89227035D01*
X172205691Y-89215691D01*
X172217035Y-89205410D01*
X172229331Y-89196291D01*
X172242462Y-89188420D01*
X172256301Y-89181875D01*
X172270716Y-89176717D01*
X172285566Y-89172997D01*
X172300709Y-89170751D01*
X172316000Y-89170000D01*
X174304000Y-89170000D01*
X174319291Y-89170751D01*
G37*
G36*
X177639291Y-89170751D02*
G01*
X177654434Y-89172997D01*
X177669284Y-89176717D01*
X177683699Y-89181875D01*
X177697538Y-89188420D01*
X177710669Y-89196291D01*
X177722965Y-89205410D01*
X177734309Y-89215691D01*
X177744590Y-89227035D01*
X177753709Y-89239331D01*
X177761580Y-89252462D01*
X177768125Y-89266301D01*
X177773283Y-89280716D01*
X177777003Y-89295566D01*
X177779249Y-89310709D01*
X177780000Y-89326000D01*
X177780000Y-90014000D01*
X177779249Y-90029291D01*
X177777003Y-90044434D01*
X177773283Y-90059284D01*
X177768125Y-90073699D01*
X177761580Y-90087538D01*
X177753709Y-90100669D01*
X177744590Y-90112965D01*
X177734309Y-90124309D01*
X177722965Y-90134590D01*
X177710669Y-90143709D01*
X177697538Y-90151580D01*
X177683699Y-90158125D01*
X177669284Y-90163283D01*
X177654434Y-90167003D01*
X177639291Y-90169249D01*
X177624000Y-90170000D01*
X175636000Y-90170000D01*
X175620709Y-90169249D01*
X175605566Y-90167003D01*
X175590716Y-90163283D01*
X175576301Y-90158125D01*
X175562462Y-90151580D01*
X175549331Y-90143709D01*
X175537035Y-90134590D01*
X175525691Y-90124309D01*
X175515410Y-90112965D01*
X175506291Y-90100669D01*
X175498420Y-90087538D01*
X175491875Y-90073699D01*
X175486717Y-90059284D01*
X175482997Y-90044434D01*
X175480751Y-90029291D01*
X175480000Y-90014000D01*
X175480000Y-89326000D01*
X175480751Y-89310709D01*
X175482997Y-89295566D01*
X175486717Y-89280716D01*
X175491875Y-89266301D01*
X175498420Y-89252462D01*
X175506291Y-89239331D01*
X175515410Y-89227035D01*
X175525691Y-89215691D01*
X175537035Y-89205410D01*
X175549331Y-89196291D01*
X175562462Y-89188420D01*
X175576301Y-89181875D01*
X175590716Y-89176717D01*
X175605566Y-89172997D01*
X175620709Y-89170751D01*
X175636000Y-89170000D01*
X177624000Y-89170000D01*
X177639291Y-89170751D01*
G37*
M02*
