G04 #@! TF.GenerationSoftware,KiCad,Pcbnew,(5.1.4)-1*
G04 #@! TF.CreationDate,2020-07-19T23:59:32-07:00*
G04 #@! TF.ProjectId,Main Board,4d61696e-2042-46f6-9172-642e6b696361,rev?*
G04 #@! TF.SameCoordinates,Original*
G04 #@! TF.FileFunction,Paste,Top*
G04 #@! TF.FilePolarity,Positive*
%FSLAX46Y46*%
G04 Gerber Fmt 4.6, Leading zero omitted, Abs format (unit mm)*
G04 Created by KiCad (PCBNEW (5.1.4)-1) date 2020-07-19 23:59:32*
%MOMM*%
%LPD*%
G04 APERTURE LIST*
%ADD10C,0.010000*%
%ADD11R,0.320000X0.660000*%
%ADD12R,4.000000X1.500000*%
%ADD13C,0.100000*%
%ADD14C,1.600000*%
%ADD15C,1.000000*%
%ADD16C,0.875000*%
%ADD17C,0.600000*%
%ADD18C,0.975000*%
%ADD19R,0.600000X0.450000*%
%ADD20R,0.650000X1.060000*%
%ADD21R,1.300000X1.550000*%
%ADD22R,3.800000X2.000000*%
%ADD23R,0.450000X0.600000*%
%ADD24R,0.800000X0.900000*%
%ADD25R,0.900000X0.800000*%
G04 APERTURE END LIST*
D10*
G36*
X137050000Y-100100610D02*
G01*
X137050000Y-99460000D01*
X137671296Y-99460000D01*
X137671296Y-100100610D01*
X137050000Y-100100610D01*
G37*
X137050000Y-100100610D02*
X137050000Y-99460000D01*
X137671296Y-99460000D01*
X137671296Y-100100610D01*
X137050000Y-100100610D01*
G36*
X136310000Y-100100584D02*
G01*
X136310000Y-99460000D01*
X136929890Y-99460000D01*
X136929890Y-100100584D01*
X136310000Y-100100584D01*
G37*
X136310000Y-100100584D02*
X136310000Y-99460000D01*
X136929890Y-99460000D01*
X136929890Y-100100584D01*
X136310000Y-100100584D01*
D11*
X136340000Y-98750000D03*
X136990000Y-98750000D03*
X137640000Y-98750000D03*
X137640000Y-100810000D03*
X136990000Y-100810000D03*
X136340000Y-100810000D03*
D12*
X120980000Y-105910000D03*
X120990000Y-102305000D03*
D13*
G36*
X176414865Y-94661202D02*
G01*
X176439095Y-94664796D01*
X176462855Y-94670748D01*
X176485918Y-94679000D01*
X176508061Y-94689472D01*
X176529070Y-94702065D01*
X176548745Y-94716657D01*
X176566894Y-94733106D01*
X176583343Y-94751255D01*
X176597935Y-94770930D01*
X176610528Y-94791939D01*
X176621000Y-94814082D01*
X176629252Y-94837145D01*
X176635204Y-94860905D01*
X176638798Y-94885135D01*
X176640000Y-94909600D01*
X176640000Y-97110400D01*
X176638798Y-97134865D01*
X176635204Y-97159095D01*
X176629252Y-97182855D01*
X176621000Y-97205918D01*
X176610528Y-97228061D01*
X176597935Y-97249070D01*
X176583343Y-97268745D01*
X176566894Y-97286894D01*
X176548745Y-97303343D01*
X176529070Y-97317935D01*
X176508061Y-97330528D01*
X176485918Y-97341000D01*
X176462855Y-97349252D01*
X176439095Y-97355204D01*
X176414865Y-97358798D01*
X176390400Y-97360000D01*
X175289600Y-97360000D01*
X175265135Y-97358798D01*
X175240905Y-97355204D01*
X175217145Y-97349252D01*
X175194082Y-97341000D01*
X175171939Y-97330528D01*
X175150930Y-97317935D01*
X175131255Y-97303343D01*
X175113106Y-97286894D01*
X175096657Y-97268745D01*
X175082065Y-97249070D01*
X175069472Y-97228061D01*
X175059000Y-97205918D01*
X175050748Y-97182855D01*
X175044796Y-97159095D01*
X175041202Y-97134865D01*
X175040000Y-97110400D01*
X175040000Y-94909600D01*
X175041202Y-94885135D01*
X175044796Y-94860905D01*
X175050748Y-94837145D01*
X175059000Y-94814082D01*
X175069472Y-94791939D01*
X175082065Y-94770930D01*
X175096657Y-94751255D01*
X175113106Y-94733106D01*
X175131255Y-94716657D01*
X175150930Y-94702065D01*
X175171939Y-94689472D01*
X175194082Y-94679000D01*
X175217145Y-94670748D01*
X175240905Y-94664796D01*
X175265135Y-94661202D01*
X175289600Y-94660000D01*
X176390400Y-94660000D01*
X176414865Y-94661202D01*
X176414865Y-94661202D01*
G37*
D14*
X175840000Y-96010000D03*
D13*
G36*
X176414865Y-99561202D02*
G01*
X176439095Y-99564796D01*
X176462855Y-99570748D01*
X176485918Y-99579000D01*
X176508061Y-99589472D01*
X176529070Y-99602065D01*
X176548745Y-99616657D01*
X176566894Y-99633106D01*
X176583343Y-99651255D01*
X176597935Y-99670930D01*
X176610528Y-99691939D01*
X176621000Y-99714082D01*
X176629252Y-99737145D01*
X176635204Y-99760905D01*
X176638798Y-99785135D01*
X176640000Y-99809600D01*
X176640000Y-102010400D01*
X176638798Y-102034865D01*
X176635204Y-102059095D01*
X176629252Y-102082855D01*
X176621000Y-102105918D01*
X176610528Y-102128061D01*
X176597935Y-102149070D01*
X176583343Y-102168745D01*
X176566894Y-102186894D01*
X176548745Y-102203343D01*
X176529070Y-102217935D01*
X176508061Y-102230528D01*
X176485918Y-102241000D01*
X176462855Y-102249252D01*
X176439095Y-102255204D01*
X176414865Y-102258798D01*
X176390400Y-102260000D01*
X175289600Y-102260000D01*
X175265135Y-102258798D01*
X175240905Y-102255204D01*
X175217145Y-102249252D01*
X175194082Y-102241000D01*
X175171939Y-102230528D01*
X175150930Y-102217935D01*
X175131255Y-102203343D01*
X175113106Y-102186894D01*
X175096657Y-102168745D01*
X175082065Y-102149070D01*
X175069472Y-102128061D01*
X175059000Y-102105918D01*
X175050748Y-102082855D01*
X175044796Y-102059095D01*
X175041202Y-102034865D01*
X175040000Y-102010400D01*
X175040000Y-99809600D01*
X175041202Y-99785135D01*
X175044796Y-99760905D01*
X175050748Y-99737145D01*
X175059000Y-99714082D01*
X175069472Y-99691939D01*
X175082065Y-99670930D01*
X175096657Y-99651255D01*
X175113106Y-99633106D01*
X175131255Y-99616657D01*
X175150930Y-99602065D01*
X175171939Y-99589472D01*
X175194082Y-99579000D01*
X175217145Y-99570748D01*
X175240905Y-99564796D01*
X175265135Y-99561202D01*
X175289600Y-99560000D01*
X176390400Y-99560000D01*
X176414865Y-99561202D01*
X176414865Y-99561202D01*
G37*
D14*
X175840000Y-100910000D03*
D13*
G36*
X129384865Y-101651202D02*
G01*
X129409095Y-101654796D01*
X129432855Y-101660748D01*
X129455918Y-101669000D01*
X129478061Y-101679472D01*
X129499070Y-101692065D01*
X129518745Y-101706657D01*
X129536894Y-101723106D01*
X129553343Y-101741255D01*
X129567935Y-101760930D01*
X129580528Y-101781939D01*
X129591000Y-101804082D01*
X129599252Y-101827145D01*
X129605204Y-101850905D01*
X129608798Y-101875135D01*
X129610000Y-101899600D01*
X129610000Y-104100400D01*
X129608798Y-104124865D01*
X129605204Y-104149095D01*
X129599252Y-104172855D01*
X129591000Y-104195918D01*
X129580528Y-104218061D01*
X129567935Y-104239070D01*
X129553343Y-104258745D01*
X129536894Y-104276894D01*
X129518745Y-104293343D01*
X129499070Y-104307935D01*
X129478061Y-104320528D01*
X129455918Y-104331000D01*
X129432855Y-104339252D01*
X129409095Y-104345204D01*
X129384865Y-104348798D01*
X129360400Y-104350000D01*
X128259600Y-104350000D01*
X128235135Y-104348798D01*
X128210905Y-104345204D01*
X128187145Y-104339252D01*
X128164082Y-104331000D01*
X128141939Y-104320528D01*
X128120930Y-104307935D01*
X128101255Y-104293343D01*
X128083106Y-104276894D01*
X128066657Y-104258745D01*
X128052065Y-104239070D01*
X128039472Y-104218061D01*
X128029000Y-104195918D01*
X128020748Y-104172855D01*
X128014796Y-104149095D01*
X128011202Y-104124865D01*
X128010000Y-104100400D01*
X128010000Y-101899600D01*
X128011202Y-101875135D01*
X128014796Y-101850905D01*
X128020748Y-101827145D01*
X128029000Y-101804082D01*
X128039472Y-101781939D01*
X128052065Y-101760930D01*
X128066657Y-101741255D01*
X128083106Y-101723106D01*
X128101255Y-101706657D01*
X128120930Y-101692065D01*
X128141939Y-101679472D01*
X128164082Y-101669000D01*
X128187145Y-101660748D01*
X128210905Y-101654796D01*
X128235135Y-101651202D01*
X128259600Y-101650000D01*
X129360400Y-101650000D01*
X129384865Y-101651202D01*
X129384865Y-101651202D01*
G37*
D14*
X128810000Y-103000000D03*
D13*
G36*
X129384865Y-96751202D02*
G01*
X129409095Y-96754796D01*
X129432855Y-96760748D01*
X129455918Y-96769000D01*
X129478061Y-96779472D01*
X129499070Y-96792065D01*
X129518745Y-96806657D01*
X129536894Y-96823106D01*
X129553343Y-96841255D01*
X129567935Y-96860930D01*
X129580528Y-96881939D01*
X129591000Y-96904082D01*
X129599252Y-96927145D01*
X129605204Y-96950905D01*
X129608798Y-96975135D01*
X129610000Y-96999600D01*
X129610000Y-99200400D01*
X129608798Y-99224865D01*
X129605204Y-99249095D01*
X129599252Y-99272855D01*
X129591000Y-99295918D01*
X129580528Y-99318061D01*
X129567935Y-99339070D01*
X129553343Y-99358745D01*
X129536894Y-99376894D01*
X129518745Y-99393343D01*
X129499070Y-99407935D01*
X129478061Y-99420528D01*
X129455918Y-99431000D01*
X129432855Y-99439252D01*
X129409095Y-99445204D01*
X129384865Y-99448798D01*
X129360400Y-99450000D01*
X128259600Y-99450000D01*
X128235135Y-99448798D01*
X128210905Y-99445204D01*
X128187145Y-99439252D01*
X128164082Y-99431000D01*
X128141939Y-99420528D01*
X128120930Y-99407935D01*
X128101255Y-99393343D01*
X128083106Y-99376894D01*
X128066657Y-99358745D01*
X128052065Y-99339070D01*
X128039472Y-99318061D01*
X128029000Y-99295918D01*
X128020748Y-99272855D01*
X128014796Y-99249095D01*
X128011202Y-99224865D01*
X128010000Y-99200400D01*
X128010000Y-96999600D01*
X128011202Y-96975135D01*
X128014796Y-96950905D01*
X128020748Y-96927145D01*
X128029000Y-96904082D01*
X128039472Y-96881939D01*
X128052065Y-96860930D01*
X128066657Y-96841255D01*
X128083106Y-96823106D01*
X128101255Y-96806657D01*
X128120930Y-96792065D01*
X128141939Y-96779472D01*
X128164082Y-96769000D01*
X128187145Y-96760748D01*
X128210905Y-96754796D01*
X128235135Y-96751202D01*
X128259600Y-96750000D01*
X129360400Y-96750000D01*
X129384865Y-96751202D01*
X129384865Y-96751202D01*
G37*
D14*
X128810000Y-98100000D03*
D13*
G36*
X159309291Y-87690751D02*
G01*
X159324434Y-87692997D01*
X159339284Y-87696717D01*
X159353699Y-87701875D01*
X159367538Y-87708420D01*
X159380669Y-87716291D01*
X159392965Y-87725410D01*
X159404309Y-87735691D01*
X159414590Y-87747035D01*
X159423709Y-87759331D01*
X159431580Y-87772462D01*
X159438125Y-87786301D01*
X159443283Y-87800716D01*
X159447003Y-87815566D01*
X159449249Y-87830709D01*
X159450000Y-87846000D01*
X159450000Y-88534000D01*
X159449249Y-88549291D01*
X159447003Y-88564434D01*
X159443283Y-88579284D01*
X159438125Y-88593699D01*
X159431580Y-88607538D01*
X159423709Y-88620669D01*
X159414590Y-88632965D01*
X159404309Y-88644309D01*
X159392965Y-88654590D01*
X159380669Y-88663709D01*
X159367538Y-88671580D01*
X159353699Y-88678125D01*
X159339284Y-88683283D01*
X159324434Y-88687003D01*
X159309291Y-88689249D01*
X159294000Y-88690000D01*
X157306000Y-88690000D01*
X157290709Y-88689249D01*
X157275566Y-88687003D01*
X157260716Y-88683283D01*
X157246301Y-88678125D01*
X157232462Y-88671580D01*
X157219331Y-88663709D01*
X157207035Y-88654590D01*
X157195691Y-88644309D01*
X157185410Y-88632965D01*
X157176291Y-88620669D01*
X157168420Y-88607538D01*
X157161875Y-88593699D01*
X157156717Y-88579284D01*
X157152997Y-88564434D01*
X157150751Y-88549291D01*
X157150000Y-88534000D01*
X157150000Y-87846000D01*
X157150751Y-87830709D01*
X157152997Y-87815566D01*
X157156717Y-87800716D01*
X157161875Y-87786301D01*
X157168420Y-87772462D01*
X157176291Y-87759331D01*
X157185410Y-87747035D01*
X157195691Y-87735691D01*
X157207035Y-87725410D01*
X157219331Y-87716291D01*
X157232462Y-87708420D01*
X157246301Y-87701875D01*
X157260716Y-87696717D01*
X157275566Y-87692997D01*
X157290709Y-87690751D01*
X157306000Y-87690000D01*
X159294000Y-87690000D01*
X159309291Y-87690751D01*
X159309291Y-87690751D01*
G37*
D15*
X158300000Y-88190000D03*
D13*
G36*
X162629291Y-87690751D02*
G01*
X162644434Y-87692997D01*
X162659284Y-87696717D01*
X162673699Y-87701875D01*
X162687538Y-87708420D01*
X162700669Y-87716291D01*
X162712965Y-87725410D01*
X162724309Y-87735691D01*
X162734590Y-87747035D01*
X162743709Y-87759331D01*
X162751580Y-87772462D01*
X162758125Y-87786301D01*
X162763283Y-87800716D01*
X162767003Y-87815566D01*
X162769249Y-87830709D01*
X162770000Y-87846000D01*
X162770000Y-88534000D01*
X162769249Y-88549291D01*
X162767003Y-88564434D01*
X162763283Y-88579284D01*
X162758125Y-88593699D01*
X162751580Y-88607538D01*
X162743709Y-88620669D01*
X162734590Y-88632965D01*
X162724309Y-88644309D01*
X162712965Y-88654590D01*
X162700669Y-88663709D01*
X162687538Y-88671580D01*
X162673699Y-88678125D01*
X162659284Y-88683283D01*
X162644434Y-88687003D01*
X162629291Y-88689249D01*
X162614000Y-88690000D01*
X160626000Y-88690000D01*
X160610709Y-88689249D01*
X160595566Y-88687003D01*
X160580716Y-88683283D01*
X160566301Y-88678125D01*
X160552462Y-88671580D01*
X160539331Y-88663709D01*
X160527035Y-88654590D01*
X160515691Y-88644309D01*
X160505410Y-88632965D01*
X160496291Y-88620669D01*
X160488420Y-88607538D01*
X160481875Y-88593699D01*
X160476717Y-88579284D01*
X160472997Y-88564434D01*
X160470751Y-88549291D01*
X160470000Y-88534000D01*
X160470000Y-87846000D01*
X160470751Y-87830709D01*
X160472997Y-87815566D01*
X160476717Y-87800716D01*
X160481875Y-87786301D01*
X160488420Y-87772462D01*
X160496291Y-87759331D01*
X160505410Y-87747035D01*
X160515691Y-87735691D01*
X160527035Y-87725410D01*
X160539331Y-87716291D01*
X160552462Y-87708420D01*
X160566301Y-87701875D01*
X160580716Y-87696717D01*
X160595566Y-87692997D01*
X160610709Y-87690751D01*
X160626000Y-87690000D01*
X162614000Y-87690000D01*
X162629291Y-87690751D01*
X162629291Y-87690751D01*
G37*
D15*
X161620000Y-88190000D03*
D13*
G36*
X167539291Y-99590751D02*
G01*
X167554434Y-99592997D01*
X167569284Y-99596717D01*
X167583699Y-99601875D01*
X167597538Y-99608420D01*
X167610669Y-99616291D01*
X167622965Y-99625410D01*
X167634309Y-99635691D01*
X167644590Y-99647035D01*
X167653709Y-99659331D01*
X167661580Y-99672462D01*
X167668125Y-99686301D01*
X167673283Y-99700716D01*
X167677003Y-99715566D01*
X167679249Y-99730709D01*
X167680000Y-99746000D01*
X167680000Y-100434000D01*
X167679249Y-100449291D01*
X167677003Y-100464434D01*
X167673283Y-100479284D01*
X167668125Y-100493699D01*
X167661580Y-100507538D01*
X167653709Y-100520669D01*
X167644590Y-100532965D01*
X167634309Y-100544309D01*
X167622965Y-100554590D01*
X167610669Y-100563709D01*
X167597538Y-100571580D01*
X167583699Y-100578125D01*
X167569284Y-100583283D01*
X167554434Y-100587003D01*
X167539291Y-100589249D01*
X167524000Y-100590000D01*
X165536000Y-100590000D01*
X165520709Y-100589249D01*
X165505566Y-100587003D01*
X165490716Y-100583283D01*
X165476301Y-100578125D01*
X165462462Y-100571580D01*
X165449331Y-100563709D01*
X165437035Y-100554590D01*
X165425691Y-100544309D01*
X165415410Y-100532965D01*
X165406291Y-100520669D01*
X165398420Y-100507538D01*
X165391875Y-100493699D01*
X165386717Y-100479284D01*
X165382997Y-100464434D01*
X165380751Y-100449291D01*
X165380000Y-100434000D01*
X165380000Y-99746000D01*
X165380751Y-99730709D01*
X165382997Y-99715566D01*
X165386717Y-99700716D01*
X165391875Y-99686301D01*
X165398420Y-99672462D01*
X165406291Y-99659331D01*
X165415410Y-99647035D01*
X165425691Y-99635691D01*
X165437035Y-99625410D01*
X165449331Y-99616291D01*
X165462462Y-99608420D01*
X165476301Y-99601875D01*
X165490716Y-99596717D01*
X165505566Y-99592997D01*
X165520709Y-99590751D01*
X165536000Y-99590000D01*
X167524000Y-99590000D01*
X167539291Y-99590751D01*
X167539291Y-99590751D01*
G37*
D15*
X166530000Y-100090000D03*
D13*
G36*
X170859291Y-99590751D02*
G01*
X170874434Y-99592997D01*
X170889284Y-99596717D01*
X170903699Y-99601875D01*
X170917538Y-99608420D01*
X170930669Y-99616291D01*
X170942965Y-99625410D01*
X170954309Y-99635691D01*
X170964590Y-99647035D01*
X170973709Y-99659331D01*
X170981580Y-99672462D01*
X170988125Y-99686301D01*
X170993283Y-99700716D01*
X170997003Y-99715566D01*
X170999249Y-99730709D01*
X171000000Y-99746000D01*
X171000000Y-100434000D01*
X170999249Y-100449291D01*
X170997003Y-100464434D01*
X170993283Y-100479284D01*
X170988125Y-100493699D01*
X170981580Y-100507538D01*
X170973709Y-100520669D01*
X170964590Y-100532965D01*
X170954309Y-100544309D01*
X170942965Y-100554590D01*
X170930669Y-100563709D01*
X170917538Y-100571580D01*
X170903699Y-100578125D01*
X170889284Y-100583283D01*
X170874434Y-100587003D01*
X170859291Y-100589249D01*
X170844000Y-100590000D01*
X168856000Y-100590000D01*
X168840709Y-100589249D01*
X168825566Y-100587003D01*
X168810716Y-100583283D01*
X168796301Y-100578125D01*
X168782462Y-100571580D01*
X168769331Y-100563709D01*
X168757035Y-100554590D01*
X168745691Y-100544309D01*
X168735410Y-100532965D01*
X168726291Y-100520669D01*
X168718420Y-100507538D01*
X168711875Y-100493699D01*
X168706717Y-100479284D01*
X168702997Y-100464434D01*
X168700751Y-100449291D01*
X168700000Y-100434000D01*
X168700000Y-99746000D01*
X168700751Y-99730709D01*
X168702997Y-99715566D01*
X168706717Y-99700716D01*
X168711875Y-99686301D01*
X168718420Y-99672462D01*
X168726291Y-99659331D01*
X168735410Y-99647035D01*
X168745691Y-99635691D01*
X168757035Y-99625410D01*
X168769331Y-99616291D01*
X168782462Y-99608420D01*
X168796301Y-99601875D01*
X168810716Y-99596717D01*
X168825566Y-99592997D01*
X168840709Y-99590751D01*
X168856000Y-99590000D01*
X170844000Y-99590000D01*
X170859291Y-99590751D01*
X170859291Y-99590751D01*
G37*
D15*
X169850000Y-100090000D03*
D13*
G36*
X174319291Y-89170751D02*
G01*
X174334434Y-89172997D01*
X174349284Y-89176717D01*
X174363699Y-89181875D01*
X174377538Y-89188420D01*
X174390669Y-89196291D01*
X174402965Y-89205410D01*
X174414309Y-89215691D01*
X174424590Y-89227035D01*
X174433709Y-89239331D01*
X174441580Y-89252462D01*
X174448125Y-89266301D01*
X174453283Y-89280716D01*
X174457003Y-89295566D01*
X174459249Y-89310709D01*
X174460000Y-89326000D01*
X174460000Y-90014000D01*
X174459249Y-90029291D01*
X174457003Y-90044434D01*
X174453283Y-90059284D01*
X174448125Y-90073699D01*
X174441580Y-90087538D01*
X174433709Y-90100669D01*
X174424590Y-90112965D01*
X174414309Y-90124309D01*
X174402965Y-90134590D01*
X174390669Y-90143709D01*
X174377538Y-90151580D01*
X174363699Y-90158125D01*
X174349284Y-90163283D01*
X174334434Y-90167003D01*
X174319291Y-90169249D01*
X174304000Y-90170000D01*
X172316000Y-90170000D01*
X172300709Y-90169249D01*
X172285566Y-90167003D01*
X172270716Y-90163283D01*
X172256301Y-90158125D01*
X172242462Y-90151580D01*
X172229331Y-90143709D01*
X172217035Y-90134590D01*
X172205691Y-90124309D01*
X172195410Y-90112965D01*
X172186291Y-90100669D01*
X172178420Y-90087538D01*
X172171875Y-90073699D01*
X172166717Y-90059284D01*
X172162997Y-90044434D01*
X172160751Y-90029291D01*
X172160000Y-90014000D01*
X172160000Y-89326000D01*
X172160751Y-89310709D01*
X172162997Y-89295566D01*
X172166717Y-89280716D01*
X172171875Y-89266301D01*
X172178420Y-89252462D01*
X172186291Y-89239331D01*
X172195410Y-89227035D01*
X172205691Y-89215691D01*
X172217035Y-89205410D01*
X172229331Y-89196291D01*
X172242462Y-89188420D01*
X172256301Y-89181875D01*
X172270716Y-89176717D01*
X172285566Y-89172997D01*
X172300709Y-89170751D01*
X172316000Y-89170000D01*
X174304000Y-89170000D01*
X174319291Y-89170751D01*
X174319291Y-89170751D01*
G37*
D15*
X173310000Y-89670000D03*
D13*
G36*
X177639291Y-89170751D02*
G01*
X177654434Y-89172997D01*
X177669284Y-89176717D01*
X177683699Y-89181875D01*
X177697538Y-89188420D01*
X177710669Y-89196291D01*
X177722965Y-89205410D01*
X177734309Y-89215691D01*
X177744590Y-89227035D01*
X177753709Y-89239331D01*
X177761580Y-89252462D01*
X177768125Y-89266301D01*
X177773283Y-89280716D01*
X177777003Y-89295566D01*
X177779249Y-89310709D01*
X177780000Y-89326000D01*
X177780000Y-90014000D01*
X177779249Y-90029291D01*
X177777003Y-90044434D01*
X177773283Y-90059284D01*
X177768125Y-90073699D01*
X177761580Y-90087538D01*
X177753709Y-90100669D01*
X177744590Y-90112965D01*
X177734309Y-90124309D01*
X177722965Y-90134590D01*
X177710669Y-90143709D01*
X177697538Y-90151580D01*
X177683699Y-90158125D01*
X177669284Y-90163283D01*
X177654434Y-90167003D01*
X177639291Y-90169249D01*
X177624000Y-90170000D01*
X175636000Y-90170000D01*
X175620709Y-90169249D01*
X175605566Y-90167003D01*
X175590716Y-90163283D01*
X175576301Y-90158125D01*
X175562462Y-90151580D01*
X175549331Y-90143709D01*
X175537035Y-90134590D01*
X175525691Y-90124309D01*
X175515410Y-90112965D01*
X175506291Y-90100669D01*
X175498420Y-90087538D01*
X175491875Y-90073699D01*
X175486717Y-90059284D01*
X175482997Y-90044434D01*
X175480751Y-90029291D01*
X175480000Y-90014000D01*
X175480000Y-89326000D01*
X175480751Y-89310709D01*
X175482997Y-89295566D01*
X175486717Y-89280716D01*
X175491875Y-89266301D01*
X175498420Y-89252462D01*
X175506291Y-89239331D01*
X175515410Y-89227035D01*
X175525691Y-89215691D01*
X175537035Y-89205410D01*
X175549331Y-89196291D01*
X175562462Y-89188420D01*
X175576301Y-89181875D01*
X175590716Y-89176717D01*
X175605566Y-89172997D01*
X175620709Y-89170751D01*
X175636000Y-89170000D01*
X177624000Y-89170000D01*
X177639291Y-89170751D01*
X177639291Y-89170751D01*
G37*
D15*
X176630000Y-89670000D03*
D13*
G36*
X136030191Y-102106053D02*
G01*
X136051426Y-102109203D01*
X136072250Y-102114419D01*
X136092462Y-102121651D01*
X136111868Y-102130830D01*
X136130281Y-102141866D01*
X136147524Y-102154654D01*
X136163430Y-102169070D01*
X136177846Y-102184976D01*
X136190634Y-102202219D01*
X136201670Y-102220632D01*
X136210849Y-102240038D01*
X136218081Y-102260250D01*
X136223297Y-102281074D01*
X136226447Y-102302309D01*
X136227500Y-102323750D01*
X136227500Y-102836250D01*
X136226447Y-102857691D01*
X136223297Y-102878926D01*
X136218081Y-102899750D01*
X136210849Y-102919962D01*
X136201670Y-102939368D01*
X136190634Y-102957781D01*
X136177846Y-102975024D01*
X136163430Y-102990930D01*
X136147524Y-103005346D01*
X136130281Y-103018134D01*
X136111868Y-103029170D01*
X136092462Y-103038349D01*
X136072250Y-103045581D01*
X136051426Y-103050797D01*
X136030191Y-103053947D01*
X136008750Y-103055000D01*
X135571250Y-103055000D01*
X135549809Y-103053947D01*
X135528574Y-103050797D01*
X135507750Y-103045581D01*
X135487538Y-103038349D01*
X135468132Y-103029170D01*
X135449719Y-103018134D01*
X135432476Y-103005346D01*
X135416570Y-102990930D01*
X135402154Y-102975024D01*
X135389366Y-102957781D01*
X135378330Y-102939368D01*
X135369151Y-102919962D01*
X135361919Y-102899750D01*
X135356703Y-102878926D01*
X135353553Y-102857691D01*
X135352500Y-102836250D01*
X135352500Y-102323750D01*
X135353553Y-102302309D01*
X135356703Y-102281074D01*
X135361919Y-102260250D01*
X135369151Y-102240038D01*
X135378330Y-102220632D01*
X135389366Y-102202219D01*
X135402154Y-102184976D01*
X135416570Y-102169070D01*
X135432476Y-102154654D01*
X135449719Y-102141866D01*
X135468132Y-102130830D01*
X135487538Y-102121651D01*
X135507750Y-102114419D01*
X135528574Y-102109203D01*
X135549809Y-102106053D01*
X135571250Y-102105000D01*
X136008750Y-102105000D01*
X136030191Y-102106053D01*
X136030191Y-102106053D01*
G37*
D16*
X135790000Y-102580000D03*
D13*
G36*
X134455191Y-102106053D02*
G01*
X134476426Y-102109203D01*
X134497250Y-102114419D01*
X134517462Y-102121651D01*
X134536868Y-102130830D01*
X134555281Y-102141866D01*
X134572524Y-102154654D01*
X134588430Y-102169070D01*
X134602846Y-102184976D01*
X134615634Y-102202219D01*
X134626670Y-102220632D01*
X134635849Y-102240038D01*
X134643081Y-102260250D01*
X134648297Y-102281074D01*
X134651447Y-102302309D01*
X134652500Y-102323750D01*
X134652500Y-102836250D01*
X134651447Y-102857691D01*
X134648297Y-102878926D01*
X134643081Y-102899750D01*
X134635849Y-102919962D01*
X134626670Y-102939368D01*
X134615634Y-102957781D01*
X134602846Y-102975024D01*
X134588430Y-102990930D01*
X134572524Y-103005346D01*
X134555281Y-103018134D01*
X134536868Y-103029170D01*
X134517462Y-103038349D01*
X134497250Y-103045581D01*
X134476426Y-103050797D01*
X134455191Y-103053947D01*
X134433750Y-103055000D01*
X133996250Y-103055000D01*
X133974809Y-103053947D01*
X133953574Y-103050797D01*
X133932750Y-103045581D01*
X133912538Y-103038349D01*
X133893132Y-103029170D01*
X133874719Y-103018134D01*
X133857476Y-103005346D01*
X133841570Y-102990930D01*
X133827154Y-102975024D01*
X133814366Y-102957781D01*
X133803330Y-102939368D01*
X133794151Y-102919962D01*
X133786919Y-102899750D01*
X133781703Y-102878926D01*
X133778553Y-102857691D01*
X133777500Y-102836250D01*
X133777500Y-102323750D01*
X133778553Y-102302309D01*
X133781703Y-102281074D01*
X133786919Y-102260250D01*
X133794151Y-102240038D01*
X133803330Y-102220632D01*
X133814366Y-102202219D01*
X133827154Y-102184976D01*
X133841570Y-102169070D01*
X133857476Y-102154654D01*
X133874719Y-102141866D01*
X133893132Y-102130830D01*
X133912538Y-102121651D01*
X133932750Y-102114419D01*
X133953574Y-102109203D01*
X133974809Y-102106053D01*
X133996250Y-102105000D01*
X134433750Y-102105000D01*
X134455191Y-102106053D01*
X134455191Y-102106053D01*
G37*
D16*
X134215000Y-102580000D03*
D13*
G36*
X133467691Y-87556053D02*
G01*
X133488926Y-87559203D01*
X133509750Y-87564419D01*
X133529962Y-87571651D01*
X133549368Y-87580830D01*
X133567781Y-87591866D01*
X133585024Y-87604654D01*
X133600930Y-87619070D01*
X133615346Y-87634976D01*
X133628134Y-87652219D01*
X133639170Y-87670632D01*
X133648349Y-87690038D01*
X133655581Y-87710250D01*
X133660797Y-87731074D01*
X133663947Y-87752309D01*
X133665000Y-87773750D01*
X133665000Y-88211250D01*
X133663947Y-88232691D01*
X133660797Y-88253926D01*
X133655581Y-88274750D01*
X133648349Y-88294962D01*
X133639170Y-88314368D01*
X133628134Y-88332781D01*
X133615346Y-88350024D01*
X133600930Y-88365930D01*
X133585024Y-88380346D01*
X133567781Y-88393134D01*
X133549368Y-88404170D01*
X133529962Y-88413349D01*
X133509750Y-88420581D01*
X133488926Y-88425797D01*
X133467691Y-88428947D01*
X133446250Y-88430000D01*
X132933750Y-88430000D01*
X132912309Y-88428947D01*
X132891074Y-88425797D01*
X132870250Y-88420581D01*
X132850038Y-88413349D01*
X132830632Y-88404170D01*
X132812219Y-88393134D01*
X132794976Y-88380346D01*
X132779070Y-88365930D01*
X132764654Y-88350024D01*
X132751866Y-88332781D01*
X132740830Y-88314368D01*
X132731651Y-88294962D01*
X132724419Y-88274750D01*
X132719203Y-88253926D01*
X132716053Y-88232691D01*
X132715000Y-88211250D01*
X132715000Y-87773750D01*
X132716053Y-87752309D01*
X132719203Y-87731074D01*
X132724419Y-87710250D01*
X132731651Y-87690038D01*
X132740830Y-87670632D01*
X132751866Y-87652219D01*
X132764654Y-87634976D01*
X132779070Y-87619070D01*
X132794976Y-87604654D01*
X132812219Y-87591866D01*
X132830632Y-87580830D01*
X132850038Y-87571651D01*
X132870250Y-87564419D01*
X132891074Y-87559203D01*
X132912309Y-87556053D01*
X132933750Y-87555000D01*
X133446250Y-87555000D01*
X133467691Y-87556053D01*
X133467691Y-87556053D01*
G37*
D16*
X133190000Y-87992500D03*
D13*
G36*
X133467691Y-89131053D02*
G01*
X133488926Y-89134203D01*
X133509750Y-89139419D01*
X133529962Y-89146651D01*
X133549368Y-89155830D01*
X133567781Y-89166866D01*
X133585024Y-89179654D01*
X133600930Y-89194070D01*
X133615346Y-89209976D01*
X133628134Y-89227219D01*
X133639170Y-89245632D01*
X133648349Y-89265038D01*
X133655581Y-89285250D01*
X133660797Y-89306074D01*
X133663947Y-89327309D01*
X133665000Y-89348750D01*
X133665000Y-89786250D01*
X133663947Y-89807691D01*
X133660797Y-89828926D01*
X133655581Y-89849750D01*
X133648349Y-89869962D01*
X133639170Y-89889368D01*
X133628134Y-89907781D01*
X133615346Y-89925024D01*
X133600930Y-89940930D01*
X133585024Y-89955346D01*
X133567781Y-89968134D01*
X133549368Y-89979170D01*
X133529962Y-89988349D01*
X133509750Y-89995581D01*
X133488926Y-90000797D01*
X133467691Y-90003947D01*
X133446250Y-90005000D01*
X132933750Y-90005000D01*
X132912309Y-90003947D01*
X132891074Y-90000797D01*
X132870250Y-89995581D01*
X132850038Y-89988349D01*
X132830632Y-89979170D01*
X132812219Y-89968134D01*
X132794976Y-89955346D01*
X132779070Y-89940930D01*
X132764654Y-89925024D01*
X132751866Y-89907781D01*
X132740830Y-89889368D01*
X132731651Y-89869962D01*
X132724419Y-89849750D01*
X132719203Y-89828926D01*
X132716053Y-89807691D01*
X132715000Y-89786250D01*
X132715000Y-89348750D01*
X132716053Y-89327309D01*
X132719203Y-89306074D01*
X132724419Y-89285250D01*
X132731651Y-89265038D01*
X132740830Y-89245632D01*
X132751866Y-89227219D01*
X132764654Y-89209976D01*
X132779070Y-89194070D01*
X132794976Y-89179654D01*
X132812219Y-89166866D01*
X132830632Y-89155830D01*
X132850038Y-89146651D01*
X132870250Y-89139419D01*
X132891074Y-89134203D01*
X132912309Y-89131053D01*
X132933750Y-89130000D01*
X133446250Y-89130000D01*
X133467691Y-89131053D01*
X133467691Y-89131053D01*
G37*
D16*
X133190000Y-89567500D03*
D13*
G36*
X141630191Y-101906053D02*
G01*
X141651426Y-101909203D01*
X141672250Y-101914419D01*
X141692462Y-101921651D01*
X141711868Y-101930830D01*
X141730281Y-101941866D01*
X141747524Y-101954654D01*
X141763430Y-101969070D01*
X141777846Y-101984976D01*
X141790634Y-102002219D01*
X141801670Y-102020632D01*
X141810849Y-102040038D01*
X141818081Y-102060250D01*
X141823297Y-102081074D01*
X141826447Y-102102309D01*
X141827500Y-102123750D01*
X141827500Y-102636250D01*
X141826447Y-102657691D01*
X141823297Y-102678926D01*
X141818081Y-102699750D01*
X141810849Y-102719962D01*
X141801670Y-102739368D01*
X141790634Y-102757781D01*
X141777846Y-102775024D01*
X141763430Y-102790930D01*
X141747524Y-102805346D01*
X141730281Y-102818134D01*
X141711868Y-102829170D01*
X141692462Y-102838349D01*
X141672250Y-102845581D01*
X141651426Y-102850797D01*
X141630191Y-102853947D01*
X141608750Y-102855000D01*
X141171250Y-102855000D01*
X141149809Y-102853947D01*
X141128574Y-102850797D01*
X141107750Y-102845581D01*
X141087538Y-102838349D01*
X141068132Y-102829170D01*
X141049719Y-102818134D01*
X141032476Y-102805346D01*
X141016570Y-102790930D01*
X141002154Y-102775024D01*
X140989366Y-102757781D01*
X140978330Y-102739368D01*
X140969151Y-102719962D01*
X140961919Y-102699750D01*
X140956703Y-102678926D01*
X140953553Y-102657691D01*
X140952500Y-102636250D01*
X140952500Y-102123750D01*
X140953553Y-102102309D01*
X140956703Y-102081074D01*
X140961919Y-102060250D01*
X140969151Y-102040038D01*
X140978330Y-102020632D01*
X140989366Y-102002219D01*
X141002154Y-101984976D01*
X141016570Y-101969070D01*
X141032476Y-101954654D01*
X141049719Y-101941866D01*
X141068132Y-101930830D01*
X141087538Y-101921651D01*
X141107750Y-101914419D01*
X141128574Y-101909203D01*
X141149809Y-101906053D01*
X141171250Y-101905000D01*
X141608750Y-101905000D01*
X141630191Y-101906053D01*
X141630191Y-101906053D01*
G37*
D16*
X141390000Y-102380000D03*
D13*
G36*
X143205191Y-101906053D02*
G01*
X143226426Y-101909203D01*
X143247250Y-101914419D01*
X143267462Y-101921651D01*
X143286868Y-101930830D01*
X143305281Y-101941866D01*
X143322524Y-101954654D01*
X143338430Y-101969070D01*
X143352846Y-101984976D01*
X143365634Y-102002219D01*
X143376670Y-102020632D01*
X143385849Y-102040038D01*
X143393081Y-102060250D01*
X143398297Y-102081074D01*
X143401447Y-102102309D01*
X143402500Y-102123750D01*
X143402500Y-102636250D01*
X143401447Y-102657691D01*
X143398297Y-102678926D01*
X143393081Y-102699750D01*
X143385849Y-102719962D01*
X143376670Y-102739368D01*
X143365634Y-102757781D01*
X143352846Y-102775024D01*
X143338430Y-102790930D01*
X143322524Y-102805346D01*
X143305281Y-102818134D01*
X143286868Y-102829170D01*
X143267462Y-102838349D01*
X143247250Y-102845581D01*
X143226426Y-102850797D01*
X143205191Y-102853947D01*
X143183750Y-102855000D01*
X142746250Y-102855000D01*
X142724809Y-102853947D01*
X142703574Y-102850797D01*
X142682750Y-102845581D01*
X142662538Y-102838349D01*
X142643132Y-102829170D01*
X142624719Y-102818134D01*
X142607476Y-102805346D01*
X142591570Y-102790930D01*
X142577154Y-102775024D01*
X142564366Y-102757781D01*
X142553330Y-102739368D01*
X142544151Y-102719962D01*
X142536919Y-102699750D01*
X142531703Y-102678926D01*
X142528553Y-102657691D01*
X142527500Y-102636250D01*
X142527500Y-102123750D01*
X142528553Y-102102309D01*
X142531703Y-102081074D01*
X142536919Y-102060250D01*
X142544151Y-102040038D01*
X142553330Y-102020632D01*
X142564366Y-102002219D01*
X142577154Y-101984976D01*
X142591570Y-101969070D01*
X142607476Y-101954654D01*
X142624719Y-101941866D01*
X142643132Y-101930830D01*
X142662538Y-101921651D01*
X142682750Y-101914419D01*
X142703574Y-101909203D01*
X142724809Y-101906053D01*
X142746250Y-101905000D01*
X143183750Y-101905000D01*
X143205191Y-101906053D01*
X143205191Y-101906053D01*
G37*
D16*
X142965000Y-102380000D03*
D13*
G36*
X113267691Y-100931053D02*
G01*
X113288926Y-100934203D01*
X113309750Y-100939419D01*
X113329962Y-100946651D01*
X113349368Y-100955830D01*
X113367781Y-100966866D01*
X113385024Y-100979654D01*
X113400930Y-100994070D01*
X113415346Y-101009976D01*
X113428134Y-101027219D01*
X113439170Y-101045632D01*
X113448349Y-101065038D01*
X113455581Y-101085250D01*
X113460797Y-101106074D01*
X113463947Y-101127309D01*
X113465000Y-101148750D01*
X113465000Y-101586250D01*
X113463947Y-101607691D01*
X113460797Y-101628926D01*
X113455581Y-101649750D01*
X113448349Y-101669962D01*
X113439170Y-101689368D01*
X113428134Y-101707781D01*
X113415346Y-101725024D01*
X113400930Y-101740930D01*
X113385024Y-101755346D01*
X113367781Y-101768134D01*
X113349368Y-101779170D01*
X113329962Y-101788349D01*
X113309750Y-101795581D01*
X113288926Y-101800797D01*
X113267691Y-101803947D01*
X113246250Y-101805000D01*
X112733750Y-101805000D01*
X112712309Y-101803947D01*
X112691074Y-101800797D01*
X112670250Y-101795581D01*
X112650038Y-101788349D01*
X112630632Y-101779170D01*
X112612219Y-101768134D01*
X112594976Y-101755346D01*
X112579070Y-101740930D01*
X112564654Y-101725024D01*
X112551866Y-101707781D01*
X112540830Y-101689368D01*
X112531651Y-101669962D01*
X112524419Y-101649750D01*
X112519203Y-101628926D01*
X112516053Y-101607691D01*
X112515000Y-101586250D01*
X112515000Y-101148750D01*
X112516053Y-101127309D01*
X112519203Y-101106074D01*
X112524419Y-101085250D01*
X112531651Y-101065038D01*
X112540830Y-101045632D01*
X112551866Y-101027219D01*
X112564654Y-101009976D01*
X112579070Y-100994070D01*
X112594976Y-100979654D01*
X112612219Y-100966866D01*
X112630632Y-100955830D01*
X112650038Y-100946651D01*
X112670250Y-100939419D01*
X112691074Y-100934203D01*
X112712309Y-100931053D01*
X112733750Y-100930000D01*
X113246250Y-100930000D01*
X113267691Y-100931053D01*
X113267691Y-100931053D01*
G37*
D16*
X112990000Y-101367500D03*
D13*
G36*
X113267691Y-99356053D02*
G01*
X113288926Y-99359203D01*
X113309750Y-99364419D01*
X113329962Y-99371651D01*
X113349368Y-99380830D01*
X113367781Y-99391866D01*
X113385024Y-99404654D01*
X113400930Y-99419070D01*
X113415346Y-99434976D01*
X113428134Y-99452219D01*
X113439170Y-99470632D01*
X113448349Y-99490038D01*
X113455581Y-99510250D01*
X113460797Y-99531074D01*
X113463947Y-99552309D01*
X113465000Y-99573750D01*
X113465000Y-100011250D01*
X113463947Y-100032691D01*
X113460797Y-100053926D01*
X113455581Y-100074750D01*
X113448349Y-100094962D01*
X113439170Y-100114368D01*
X113428134Y-100132781D01*
X113415346Y-100150024D01*
X113400930Y-100165930D01*
X113385024Y-100180346D01*
X113367781Y-100193134D01*
X113349368Y-100204170D01*
X113329962Y-100213349D01*
X113309750Y-100220581D01*
X113288926Y-100225797D01*
X113267691Y-100228947D01*
X113246250Y-100230000D01*
X112733750Y-100230000D01*
X112712309Y-100228947D01*
X112691074Y-100225797D01*
X112670250Y-100220581D01*
X112650038Y-100213349D01*
X112630632Y-100204170D01*
X112612219Y-100193134D01*
X112594976Y-100180346D01*
X112579070Y-100165930D01*
X112564654Y-100150024D01*
X112551866Y-100132781D01*
X112540830Y-100114368D01*
X112531651Y-100094962D01*
X112524419Y-100074750D01*
X112519203Y-100053926D01*
X112516053Y-100032691D01*
X112515000Y-100011250D01*
X112515000Y-99573750D01*
X112516053Y-99552309D01*
X112519203Y-99531074D01*
X112524419Y-99510250D01*
X112531651Y-99490038D01*
X112540830Y-99470632D01*
X112551866Y-99452219D01*
X112564654Y-99434976D01*
X112579070Y-99419070D01*
X112594976Y-99404654D01*
X112612219Y-99391866D01*
X112630632Y-99380830D01*
X112650038Y-99371651D01*
X112670250Y-99364419D01*
X112691074Y-99359203D01*
X112712309Y-99356053D01*
X112733750Y-99355000D01*
X113246250Y-99355000D01*
X113267691Y-99356053D01*
X113267691Y-99356053D01*
G37*
D16*
X112990000Y-99792500D03*
D13*
G36*
X131110191Y-107216053D02*
G01*
X131131426Y-107219203D01*
X131152250Y-107224419D01*
X131172462Y-107231651D01*
X131191868Y-107240830D01*
X131210281Y-107251866D01*
X131227524Y-107264654D01*
X131243430Y-107279070D01*
X131257846Y-107294976D01*
X131270634Y-107312219D01*
X131281670Y-107330632D01*
X131290849Y-107350038D01*
X131298081Y-107370250D01*
X131303297Y-107391074D01*
X131306447Y-107412309D01*
X131307500Y-107433750D01*
X131307500Y-107946250D01*
X131306447Y-107967691D01*
X131303297Y-107988926D01*
X131298081Y-108009750D01*
X131290849Y-108029962D01*
X131281670Y-108049368D01*
X131270634Y-108067781D01*
X131257846Y-108085024D01*
X131243430Y-108100930D01*
X131227524Y-108115346D01*
X131210281Y-108128134D01*
X131191868Y-108139170D01*
X131172462Y-108148349D01*
X131152250Y-108155581D01*
X131131426Y-108160797D01*
X131110191Y-108163947D01*
X131088750Y-108165000D01*
X130651250Y-108165000D01*
X130629809Y-108163947D01*
X130608574Y-108160797D01*
X130587750Y-108155581D01*
X130567538Y-108148349D01*
X130548132Y-108139170D01*
X130529719Y-108128134D01*
X130512476Y-108115346D01*
X130496570Y-108100930D01*
X130482154Y-108085024D01*
X130469366Y-108067781D01*
X130458330Y-108049368D01*
X130449151Y-108029962D01*
X130441919Y-108009750D01*
X130436703Y-107988926D01*
X130433553Y-107967691D01*
X130432500Y-107946250D01*
X130432500Y-107433750D01*
X130433553Y-107412309D01*
X130436703Y-107391074D01*
X130441919Y-107370250D01*
X130449151Y-107350038D01*
X130458330Y-107330632D01*
X130469366Y-107312219D01*
X130482154Y-107294976D01*
X130496570Y-107279070D01*
X130512476Y-107264654D01*
X130529719Y-107251866D01*
X130548132Y-107240830D01*
X130567538Y-107231651D01*
X130587750Y-107224419D01*
X130608574Y-107219203D01*
X130629809Y-107216053D01*
X130651250Y-107215000D01*
X131088750Y-107215000D01*
X131110191Y-107216053D01*
X131110191Y-107216053D01*
G37*
D16*
X130870000Y-107690000D03*
D13*
G36*
X129535191Y-107216053D02*
G01*
X129556426Y-107219203D01*
X129577250Y-107224419D01*
X129597462Y-107231651D01*
X129616868Y-107240830D01*
X129635281Y-107251866D01*
X129652524Y-107264654D01*
X129668430Y-107279070D01*
X129682846Y-107294976D01*
X129695634Y-107312219D01*
X129706670Y-107330632D01*
X129715849Y-107350038D01*
X129723081Y-107370250D01*
X129728297Y-107391074D01*
X129731447Y-107412309D01*
X129732500Y-107433750D01*
X129732500Y-107946250D01*
X129731447Y-107967691D01*
X129728297Y-107988926D01*
X129723081Y-108009750D01*
X129715849Y-108029962D01*
X129706670Y-108049368D01*
X129695634Y-108067781D01*
X129682846Y-108085024D01*
X129668430Y-108100930D01*
X129652524Y-108115346D01*
X129635281Y-108128134D01*
X129616868Y-108139170D01*
X129597462Y-108148349D01*
X129577250Y-108155581D01*
X129556426Y-108160797D01*
X129535191Y-108163947D01*
X129513750Y-108165000D01*
X129076250Y-108165000D01*
X129054809Y-108163947D01*
X129033574Y-108160797D01*
X129012750Y-108155581D01*
X128992538Y-108148349D01*
X128973132Y-108139170D01*
X128954719Y-108128134D01*
X128937476Y-108115346D01*
X128921570Y-108100930D01*
X128907154Y-108085024D01*
X128894366Y-108067781D01*
X128883330Y-108049368D01*
X128874151Y-108029962D01*
X128866919Y-108009750D01*
X128861703Y-107988926D01*
X128858553Y-107967691D01*
X128857500Y-107946250D01*
X128857500Y-107433750D01*
X128858553Y-107412309D01*
X128861703Y-107391074D01*
X128866919Y-107370250D01*
X128874151Y-107350038D01*
X128883330Y-107330632D01*
X128894366Y-107312219D01*
X128907154Y-107294976D01*
X128921570Y-107279070D01*
X128937476Y-107264654D01*
X128954719Y-107251866D01*
X128973132Y-107240830D01*
X128992538Y-107231651D01*
X129012750Y-107224419D01*
X129033574Y-107219203D01*
X129054809Y-107216053D01*
X129076250Y-107215000D01*
X129513750Y-107215000D01*
X129535191Y-107216053D01*
X129535191Y-107216053D01*
G37*
D16*
X129295000Y-107690000D03*
D13*
G36*
X116867691Y-98531053D02*
G01*
X116888926Y-98534203D01*
X116909750Y-98539419D01*
X116929962Y-98546651D01*
X116949368Y-98555830D01*
X116967781Y-98566866D01*
X116985024Y-98579654D01*
X117000930Y-98594070D01*
X117015346Y-98609976D01*
X117028134Y-98627219D01*
X117039170Y-98645632D01*
X117048349Y-98665038D01*
X117055581Y-98685250D01*
X117060797Y-98706074D01*
X117063947Y-98727309D01*
X117065000Y-98748750D01*
X117065000Y-99186250D01*
X117063947Y-99207691D01*
X117060797Y-99228926D01*
X117055581Y-99249750D01*
X117048349Y-99269962D01*
X117039170Y-99289368D01*
X117028134Y-99307781D01*
X117015346Y-99325024D01*
X117000930Y-99340930D01*
X116985024Y-99355346D01*
X116967781Y-99368134D01*
X116949368Y-99379170D01*
X116929962Y-99388349D01*
X116909750Y-99395581D01*
X116888926Y-99400797D01*
X116867691Y-99403947D01*
X116846250Y-99405000D01*
X116333750Y-99405000D01*
X116312309Y-99403947D01*
X116291074Y-99400797D01*
X116270250Y-99395581D01*
X116250038Y-99388349D01*
X116230632Y-99379170D01*
X116212219Y-99368134D01*
X116194976Y-99355346D01*
X116179070Y-99340930D01*
X116164654Y-99325024D01*
X116151866Y-99307781D01*
X116140830Y-99289368D01*
X116131651Y-99269962D01*
X116124419Y-99249750D01*
X116119203Y-99228926D01*
X116116053Y-99207691D01*
X116115000Y-99186250D01*
X116115000Y-98748750D01*
X116116053Y-98727309D01*
X116119203Y-98706074D01*
X116124419Y-98685250D01*
X116131651Y-98665038D01*
X116140830Y-98645632D01*
X116151866Y-98627219D01*
X116164654Y-98609976D01*
X116179070Y-98594070D01*
X116194976Y-98579654D01*
X116212219Y-98566866D01*
X116230632Y-98555830D01*
X116250038Y-98546651D01*
X116270250Y-98539419D01*
X116291074Y-98534203D01*
X116312309Y-98531053D01*
X116333750Y-98530000D01*
X116846250Y-98530000D01*
X116867691Y-98531053D01*
X116867691Y-98531053D01*
G37*
D16*
X116590000Y-98967500D03*
D13*
G36*
X116867691Y-96956053D02*
G01*
X116888926Y-96959203D01*
X116909750Y-96964419D01*
X116929962Y-96971651D01*
X116949368Y-96980830D01*
X116967781Y-96991866D01*
X116985024Y-97004654D01*
X117000930Y-97019070D01*
X117015346Y-97034976D01*
X117028134Y-97052219D01*
X117039170Y-97070632D01*
X117048349Y-97090038D01*
X117055581Y-97110250D01*
X117060797Y-97131074D01*
X117063947Y-97152309D01*
X117065000Y-97173750D01*
X117065000Y-97611250D01*
X117063947Y-97632691D01*
X117060797Y-97653926D01*
X117055581Y-97674750D01*
X117048349Y-97694962D01*
X117039170Y-97714368D01*
X117028134Y-97732781D01*
X117015346Y-97750024D01*
X117000930Y-97765930D01*
X116985024Y-97780346D01*
X116967781Y-97793134D01*
X116949368Y-97804170D01*
X116929962Y-97813349D01*
X116909750Y-97820581D01*
X116888926Y-97825797D01*
X116867691Y-97828947D01*
X116846250Y-97830000D01*
X116333750Y-97830000D01*
X116312309Y-97828947D01*
X116291074Y-97825797D01*
X116270250Y-97820581D01*
X116250038Y-97813349D01*
X116230632Y-97804170D01*
X116212219Y-97793134D01*
X116194976Y-97780346D01*
X116179070Y-97765930D01*
X116164654Y-97750024D01*
X116151866Y-97732781D01*
X116140830Y-97714368D01*
X116131651Y-97694962D01*
X116124419Y-97674750D01*
X116119203Y-97653926D01*
X116116053Y-97632691D01*
X116115000Y-97611250D01*
X116115000Y-97173750D01*
X116116053Y-97152309D01*
X116119203Y-97131074D01*
X116124419Y-97110250D01*
X116131651Y-97090038D01*
X116140830Y-97070632D01*
X116151866Y-97052219D01*
X116164654Y-97034976D01*
X116179070Y-97019070D01*
X116194976Y-97004654D01*
X116212219Y-96991866D01*
X116230632Y-96980830D01*
X116250038Y-96971651D01*
X116270250Y-96964419D01*
X116291074Y-96959203D01*
X116312309Y-96956053D01*
X116333750Y-96955000D01*
X116846250Y-96955000D01*
X116867691Y-96956053D01*
X116867691Y-96956053D01*
G37*
D16*
X116590000Y-97392500D03*
D13*
G36*
X115849703Y-91380722D02*
G01*
X115864264Y-91382882D01*
X115878543Y-91386459D01*
X115892403Y-91391418D01*
X115905710Y-91397712D01*
X115918336Y-91405280D01*
X115930159Y-91414048D01*
X115941066Y-91423934D01*
X115950952Y-91434841D01*
X115959720Y-91446664D01*
X115967288Y-91459290D01*
X115973582Y-91472597D01*
X115978541Y-91486457D01*
X115982118Y-91500736D01*
X115984278Y-91515297D01*
X115985000Y-91530000D01*
X115985000Y-93180000D01*
X115984278Y-93194703D01*
X115982118Y-93209264D01*
X115978541Y-93223543D01*
X115973582Y-93237403D01*
X115967288Y-93250710D01*
X115959720Y-93263336D01*
X115950952Y-93275159D01*
X115941066Y-93286066D01*
X115930159Y-93295952D01*
X115918336Y-93304720D01*
X115905710Y-93312288D01*
X115892403Y-93318582D01*
X115878543Y-93323541D01*
X115864264Y-93327118D01*
X115849703Y-93329278D01*
X115835000Y-93330000D01*
X115535000Y-93330000D01*
X115520297Y-93329278D01*
X115505736Y-93327118D01*
X115491457Y-93323541D01*
X115477597Y-93318582D01*
X115464290Y-93312288D01*
X115451664Y-93304720D01*
X115439841Y-93295952D01*
X115428934Y-93286066D01*
X115419048Y-93275159D01*
X115410280Y-93263336D01*
X115402712Y-93250710D01*
X115396418Y-93237403D01*
X115391459Y-93223543D01*
X115387882Y-93209264D01*
X115385722Y-93194703D01*
X115385000Y-93180000D01*
X115385000Y-91530000D01*
X115385722Y-91515297D01*
X115387882Y-91500736D01*
X115391459Y-91486457D01*
X115396418Y-91472597D01*
X115402712Y-91459290D01*
X115410280Y-91446664D01*
X115419048Y-91434841D01*
X115428934Y-91423934D01*
X115439841Y-91414048D01*
X115451664Y-91405280D01*
X115464290Y-91397712D01*
X115477597Y-91391418D01*
X115491457Y-91386459D01*
X115505736Y-91382882D01*
X115520297Y-91380722D01*
X115535000Y-91380000D01*
X115835000Y-91380000D01*
X115849703Y-91380722D01*
X115849703Y-91380722D01*
G37*
D17*
X115685000Y-92355000D03*
D13*
G36*
X117119703Y-91380722D02*
G01*
X117134264Y-91382882D01*
X117148543Y-91386459D01*
X117162403Y-91391418D01*
X117175710Y-91397712D01*
X117188336Y-91405280D01*
X117200159Y-91414048D01*
X117211066Y-91423934D01*
X117220952Y-91434841D01*
X117229720Y-91446664D01*
X117237288Y-91459290D01*
X117243582Y-91472597D01*
X117248541Y-91486457D01*
X117252118Y-91500736D01*
X117254278Y-91515297D01*
X117255000Y-91530000D01*
X117255000Y-93180000D01*
X117254278Y-93194703D01*
X117252118Y-93209264D01*
X117248541Y-93223543D01*
X117243582Y-93237403D01*
X117237288Y-93250710D01*
X117229720Y-93263336D01*
X117220952Y-93275159D01*
X117211066Y-93286066D01*
X117200159Y-93295952D01*
X117188336Y-93304720D01*
X117175710Y-93312288D01*
X117162403Y-93318582D01*
X117148543Y-93323541D01*
X117134264Y-93327118D01*
X117119703Y-93329278D01*
X117105000Y-93330000D01*
X116805000Y-93330000D01*
X116790297Y-93329278D01*
X116775736Y-93327118D01*
X116761457Y-93323541D01*
X116747597Y-93318582D01*
X116734290Y-93312288D01*
X116721664Y-93304720D01*
X116709841Y-93295952D01*
X116698934Y-93286066D01*
X116689048Y-93275159D01*
X116680280Y-93263336D01*
X116672712Y-93250710D01*
X116666418Y-93237403D01*
X116661459Y-93223543D01*
X116657882Y-93209264D01*
X116655722Y-93194703D01*
X116655000Y-93180000D01*
X116655000Y-91530000D01*
X116655722Y-91515297D01*
X116657882Y-91500736D01*
X116661459Y-91486457D01*
X116666418Y-91472597D01*
X116672712Y-91459290D01*
X116680280Y-91446664D01*
X116689048Y-91434841D01*
X116698934Y-91423934D01*
X116709841Y-91414048D01*
X116721664Y-91405280D01*
X116734290Y-91397712D01*
X116747597Y-91391418D01*
X116761457Y-91386459D01*
X116775736Y-91382882D01*
X116790297Y-91380722D01*
X116805000Y-91380000D01*
X117105000Y-91380000D01*
X117119703Y-91380722D01*
X117119703Y-91380722D01*
G37*
D17*
X116955000Y-92355000D03*
D13*
G36*
X118389703Y-91380722D02*
G01*
X118404264Y-91382882D01*
X118418543Y-91386459D01*
X118432403Y-91391418D01*
X118445710Y-91397712D01*
X118458336Y-91405280D01*
X118470159Y-91414048D01*
X118481066Y-91423934D01*
X118490952Y-91434841D01*
X118499720Y-91446664D01*
X118507288Y-91459290D01*
X118513582Y-91472597D01*
X118518541Y-91486457D01*
X118522118Y-91500736D01*
X118524278Y-91515297D01*
X118525000Y-91530000D01*
X118525000Y-93180000D01*
X118524278Y-93194703D01*
X118522118Y-93209264D01*
X118518541Y-93223543D01*
X118513582Y-93237403D01*
X118507288Y-93250710D01*
X118499720Y-93263336D01*
X118490952Y-93275159D01*
X118481066Y-93286066D01*
X118470159Y-93295952D01*
X118458336Y-93304720D01*
X118445710Y-93312288D01*
X118432403Y-93318582D01*
X118418543Y-93323541D01*
X118404264Y-93327118D01*
X118389703Y-93329278D01*
X118375000Y-93330000D01*
X118075000Y-93330000D01*
X118060297Y-93329278D01*
X118045736Y-93327118D01*
X118031457Y-93323541D01*
X118017597Y-93318582D01*
X118004290Y-93312288D01*
X117991664Y-93304720D01*
X117979841Y-93295952D01*
X117968934Y-93286066D01*
X117959048Y-93275159D01*
X117950280Y-93263336D01*
X117942712Y-93250710D01*
X117936418Y-93237403D01*
X117931459Y-93223543D01*
X117927882Y-93209264D01*
X117925722Y-93194703D01*
X117925000Y-93180000D01*
X117925000Y-91530000D01*
X117925722Y-91515297D01*
X117927882Y-91500736D01*
X117931459Y-91486457D01*
X117936418Y-91472597D01*
X117942712Y-91459290D01*
X117950280Y-91446664D01*
X117959048Y-91434841D01*
X117968934Y-91423934D01*
X117979841Y-91414048D01*
X117991664Y-91405280D01*
X118004290Y-91397712D01*
X118017597Y-91391418D01*
X118031457Y-91386459D01*
X118045736Y-91382882D01*
X118060297Y-91380722D01*
X118075000Y-91380000D01*
X118375000Y-91380000D01*
X118389703Y-91380722D01*
X118389703Y-91380722D01*
G37*
D17*
X118225000Y-92355000D03*
D13*
G36*
X119659703Y-91380722D02*
G01*
X119674264Y-91382882D01*
X119688543Y-91386459D01*
X119702403Y-91391418D01*
X119715710Y-91397712D01*
X119728336Y-91405280D01*
X119740159Y-91414048D01*
X119751066Y-91423934D01*
X119760952Y-91434841D01*
X119769720Y-91446664D01*
X119777288Y-91459290D01*
X119783582Y-91472597D01*
X119788541Y-91486457D01*
X119792118Y-91500736D01*
X119794278Y-91515297D01*
X119795000Y-91530000D01*
X119795000Y-93180000D01*
X119794278Y-93194703D01*
X119792118Y-93209264D01*
X119788541Y-93223543D01*
X119783582Y-93237403D01*
X119777288Y-93250710D01*
X119769720Y-93263336D01*
X119760952Y-93275159D01*
X119751066Y-93286066D01*
X119740159Y-93295952D01*
X119728336Y-93304720D01*
X119715710Y-93312288D01*
X119702403Y-93318582D01*
X119688543Y-93323541D01*
X119674264Y-93327118D01*
X119659703Y-93329278D01*
X119645000Y-93330000D01*
X119345000Y-93330000D01*
X119330297Y-93329278D01*
X119315736Y-93327118D01*
X119301457Y-93323541D01*
X119287597Y-93318582D01*
X119274290Y-93312288D01*
X119261664Y-93304720D01*
X119249841Y-93295952D01*
X119238934Y-93286066D01*
X119229048Y-93275159D01*
X119220280Y-93263336D01*
X119212712Y-93250710D01*
X119206418Y-93237403D01*
X119201459Y-93223543D01*
X119197882Y-93209264D01*
X119195722Y-93194703D01*
X119195000Y-93180000D01*
X119195000Y-91530000D01*
X119195722Y-91515297D01*
X119197882Y-91500736D01*
X119201459Y-91486457D01*
X119206418Y-91472597D01*
X119212712Y-91459290D01*
X119220280Y-91446664D01*
X119229048Y-91434841D01*
X119238934Y-91423934D01*
X119249841Y-91414048D01*
X119261664Y-91405280D01*
X119274290Y-91397712D01*
X119287597Y-91391418D01*
X119301457Y-91386459D01*
X119315736Y-91382882D01*
X119330297Y-91380722D01*
X119345000Y-91380000D01*
X119645000Y-91380000D01*
X119659703Y-91380722D01*
X119659703Y-91380722D01*
G37*
D17*
X119495000Y-92355000D03*
D13*
G36*
X119659703Y-86430722D02*
G01*
X119674264Y-86432882D01*
X119688543Y-86436459D01*
X119702403Y-86441418D01*
X119715710Y-86447712D01*
X119728336Y-86455280D01*
X119740159Y-86464048D01*
X119751066Y-86473934D01*
X119760952Y-86484841D01*
X119769720Y-86496664D01*
X119777288Y-86509290D01*
X119783582Y-86522597D01*
X119788541Y-86536457D01*
X119792118Y-86550736D01*
X119794278Y-86565297D01*
X119795000Y-86580000D01*
X119795000Y-88230000D01*
X119794278Y-88244703D01*
X119792118Y-88259264D01*
X119788541Y-88273543D01*
X119783582Y-88287403D01*
X119777288Y-88300710D01*
X119769720Y-88313336D01*
X119760952Y-88325159D01*
X119751066Y-88336066D01*
X119740159Y-88345952D01*
X119728336Y-88354720D01*
X119715710Y-88362288D01*
X119702403Y-88368582D01*
X119688543Y-88373541D01*
X119674264Y-88377118D01*
X119659703Y-88379278D01*
X119645000Y-88380000D01*
X119345000Y-88380000D01*
X119330297Y-88379278D01*
X119315736Y-88377118D01*
X119301457Y-88373541D01*
X119287597Y-88368582D01*
X119274290Y-88362288D01*
X119261664Y-88354720D01*
X119249841Y-88345952D01*
X119238934Y-88336066D01*
X119229048Y-88325159D01*
X119220280Y-88313336D01*
X119212712Y-88300710D01*
X119206418Y-88287403D01*
X119201459Y-88273543D01*
X119197882Y-88259264D01*
X119195722Y-88244703D01*
X119195000Y-88230000D01*
X119195000Y-86580000D01*
X119195722Y-86565297D01*
X119197882Y-86550736D01*
X119201459Y-86536457D01*
X119206418Y-86522597D01*
X119212712Y-86509290D01*
X119220280Y-86496664D01*
X119229048Y-86484841D01*
X119238934Y-86473934D01*
X119249841Y-86464048D01*
X119261664Y-86455280D01*
X119274290Y-86447712D01*
X119287597Y-86441418D01*
X119301457Y-86436459D01*
X119315736Y-86432882D01*
X119330297Y-86430722D01*
X119345000Y-86430000D01*
X119645000Y-86430000D01*
X119659703Y-86430722D01*
X119659703Y-86430722D01*
G37*
D17*
X119495000Y-87405000D03*
D13*
G36*
X118389703Y-86430722D02*
G01*
X118404264Y-86432882D01*
X118418543Y-86436459D01*
X118432403Y-86441418D01*
X118445710Y-86447712D01*
X118458336Y-86455280D01*
X118470159Y-86464048D01*
X118481066Y-86473934D01*
X118490952Y-86484841D01*
X118499720Y-86496664D01*
X118507288Y-86509290D01*
X118513582Y-86522597D01*
X118518541Y-86536457D01*
X118522118Y-86550736D01*
X118524278Y-86565297D01*
X118525000Y-86580000D01*
X118525000Y-88230000D01*
X118524278Y-88244703D01*
X118522118Y-88259264D01*
X118518541Y-88273543D01*
X118513582Y-88287403D01*
X118507288Y-88300710D01*
X118499720Y-88313336D01*
X118490952Y-88325159D01*
X118481066Y-88336066D01*
X118470159Y-88345952D01*
X118458336Y-88354720D01*
X118445710Y-88362288D01*
X118432403Y-88368582D01*
X118418543Y-88373541D01*
X118404264Y-88377118D01*
X118389703Y-88379278D01*
X118375000Y-88380000D01*
X118075000Y-88380000D01*
X118060297Y-88379278D01*
X118045736Y-88377118D01*
X118031457Y-88373541D01*
X118017597Y-88368582D01*
X118004290Y-88362288D01*
X117991664Y-88354720D01*
X117979841Y-88345952D01*
X117968934Y-88336066D01*
X117959048Y-88325159D01*
X117950280Y-88313336D01*
X117942712Y-88300710D01*
X117936418Y-88287403D01*
X117931459Y-88273543D01*
X117927882Y-88259264D01*
X117925722Y-88244703D01*
X117925000Y-88230000D01*
X117925000Y-86580000D01*
X117925722Y-86565297D01*
X117927882Y-86550736D01*
X117931459Y-86536457D01*
X117936418Y-86522597D01*
X117942712Y-86509290D01*
X117950280Y-86496664D01*
X117959048Y-86484841D01*
X117968934Y-86473934D01*
X117979841Y-86464048D01*
X117991664Y-86455280D01*
X118004290Y-86447712D01*
X118017597Y-86441418D01*
X118031457Y-86436459D01*
X118045736Y-86432882D01*
X118060297Y-86430722D01*
X118075000Y-86430000D01*
X118375000Y-86430000D01*
X118389703Y-86430722D01*
X118389703Y-86430722D01*
G37*
D17*
X118225000Y-87405000D03*
D13*
G36*
X117119703Y-86430722D02*
G01*
X117134264Y-86432882D01*
X117148543Y-86436459D01*
X117162403Y-86441418D01*
X117175710Y-86447712D01*
X117188336Y-86455280D01*
X117200159Y-86464048D01*
X117211066Y-86473934D01*
X117220952Y-86484841D01*
X117229720Y-86496664D01*
X117237288Y-86509290D01*
X117243582Y-86522597D01*
X117248541Y-86536457D01*
X117252118Y-86550736D01*
X117254278Y-86565297D01*
X117255000Y-86580000D01*
X117255000Y-88230000D01*
X117254278Y-88244703D01*
X117252118Y-88259264D01*
X117248541Y-88273543D01*
X117243582Y-88287403D01*
X117237288Y-88300710D01*
X117229720Y-88313336D01*
X117220952Y-88325159D01*
X117211066Y-88336066D01*
X117200159Y-88345952D01*
X117188336Y-88354720D01*
X117175710Y-88362288D01*
X117162403Y-88368582D01*
X117148543Y-88373541D01*
X117134264Y-88377118D01*
X117119703Y-88379278D01*
X117105000Y-88380000D01*
X116805000Y-88380000D01*
X116790297Y-88379278D01*
X116775736Y-88377118D01*
X116761457Y-88373541D01*
X116747597Y-88368582D01*
X116734290Y-88362288D01*
X116721664Y-88354720D01*
X116709841Y-88345952D01*
X116698934Y-88336066D01*
X116689048Y-88325159D01*
X116680280Y-88313336D01*
X116672712Y-88300710D01*
X116666418Y-88287403D01*
X116661459Y-88273543D01*
X116657882Y-88259264D01*
X116655722Y-88244703D01*
X116655000Y-88230000D01*
X116655000Y-86580000D01*
X116655722Y-86565297D01*
X116657882Y-86550736D01*
X116661459Y-86536457D01*
X116666418Y-86522597D01*
X116672712Y-86509290D01*
X116680280Y-86496664D01*
X116689048Y-86484841D01*
X116698934Y-86473934D01*
X116709841Y-86464048D01*
X116721664Y-86455280D01*
X116734290Y-86447712D01*
X116747597Y-86441418D01*
X116761457Y-86436459D01*
X116775736Y-86432882D01*
X116790297Y-86430722D01*
X116805000Y-86430000D01*
X117105000Y-86430000D01*
X117119703Y-86430722D01*
X117119703Y-86430722D01*
G37*
D17*
X116955000Y-87405000D03*
D13*
G36*
X115849703Y-86430722D02*
G01*
X115864264Y-86432882D01*
X115878543Y-86436459D01*
X115892403Y-86441418D01*
X115905710Y-86447712D01*
X115918336Y-86455280D01*
X115930159Y-86464048D01*
X115941066Y-86473934D01*
X115950952Y-86484841D01*
X115959720Y-86496664D01*
X115967288Y-86509290D01*
X115973582Y-86522597D01*
X115978541Y-86536457D01*
X115982118Y-86550736D01*
X115984278Y-86565297D01*
X115985000Y-86580000D01*
X115985000Y-88230000D01*
X115984278Y-88244703D01*
X115982118Y-88259264D01*
X115978541Y-88273543D01*
X115973582Y-88287403D01*
X115967288Y-88300710D01*
X115959720Y-88313336D01*
X115950952Y-88325159D01*
X115941066Y-88336066D01*
X115930159Y-88345952D01*
X115918336Y-88354720D01*
X115905710Y-88362288D01*
X115892403Y-88368582D01*
X115878543Y-88373541D01*
X115864264Y-88377118D01*
X115849703Y-88379278D01*
X115835000Y-88380000D01*
X115535000Y-88380000D01*
X115520297Y-88379278D01*
X115505736Y-88377118D01*
X115491457Y-88373541D01*
X115477597Y-88368582D01*
X115464290Y-88362288D01*
X115451664Y-88354720D01*
X115439841Y-88345952D01*
X115428934Y-88336066D01*
X115419048Y-88325159D01*
X115410280Y-88313336D01*
X115402712Y-88300710D01*
X115396418Y-88287403D01*
X115391459Y-88273543D01*
X115387882Y-88259264D01*
X115385722Y-88244703D01*
X115385000Y-88230000D01*
X115385000Y-86580000D01*
X115385722Y-86565297D01*
X115387882Y-86550736D01*
X115391459Y-86536457D01*
X115396418Y-86522597D01*
X115402712Y-86509290D01*
X115410280Y-86496664D01*
X115419048Y-86484841D01*
X115428934Y-86473934D01*
X115439841Y-86464048D01*
X115451664Y-86455280D01*
X115464290Y-86447712D01*
X115477597Y-86441418D01*
X115491457Y-86436459D01*
X115505736Y-86432882D01*
X115520297Y-86430722D01*
X115535000Y-86430000D01*
X115835000Y-86430000D01*
X115849703Y-86430722D01*
X115849703Y-86430722D01*
G37*
D17*
X115685000Y-87405000D03*
D13*
G36*
X138442691Y-101906053D02*
G01*
X138463926Y-101909203D01*
X138484750Y-101914419D01*
X138504962Y-101921651D01*
X138524368Y-101930830D01*
X138542781Y-101941866D01*
X138560024Y-101954654D01*
X138575930Y-101969070D01*
X138590346Y-101984976D01*
X138603134Y-102002219D01*
X138614170Y-102020632D01*
X138623349Y-102040038D01*
X138630581Y-102060250D01*
X138635797Y-102081074D01*
X138638947Y-102102309D01*
X138640000Y-102123750D01*
X138640000Y-102636250D01*
X138638947Y-102657691D01*
X138635797Y-102678926D01*
X138630581Y-102699750D01*
X138623349Y-102719962D01*
X138614170Y-102739368D01*
X138603134Y-102757781D01*
X138590346Y-102775024D01*
X138575930Y-102790930D01*
X138560024Y-102805346D01*
X138542781Y-102818134D01*
X138524368Y-102829170D01*
X138504962Y-102838349D01*
X138484750Y-102845581D01*
X138463926Y-102850797D01*
X138442691Y-102853947D01*
X138421250Y-102855000D01*
X137983750Y-102855000D01*
X137962309Y-102853947D01*
X137941074Y-102850797D01*
X137920250Y-102845581D01*
X137900038Y-102838349D01*
X137880632Y-102829170D01*
X137862219Y-102818134D01*
X137844976Y-102805346D01*
X137829070Y-102790930D01*
X137814654Y-102775024D01*
X137801866Y-102757781D01*
X137790830Y-102739368D01*
X137781651Y-102719962D01*
X137774419Y-102699750D01*
X137769203Y-102678926D01*
X137766053Y-102657691D01*
X137765000Y-102636250D01*
X137765000Y-102123750D01*
X137766053Y-102102309D01*
X137769203Y-102081074D01*
X137774419Y-102060250D01*
X137781651Y-102040038D01*
X137790830Y-102020632D01*
X137801866Y-102002219D01*
X137814654Y-101984976D01*
X137829070Y-101969070D01*
X137844976Y-101954654D01*
X137862219Y-101941866D01*
X137880632Y-101930830D01*
X137900038Y-101921651D01*
X137920250Y-101914419D01*
X137941074Y-101909203D01*
X137962309Y-101906053D01*
X137983750Y-101905000D01*
X138421250Y-101905000D01*
X138442691Y-101906053D01*
X138442691Y-101906053D01*
G37*
D16*
X138202500Y-102380000D03*
D13*
G36*
X140017691Y-101906053D02*
G01*
X140038926Y-101909203D01*
X140059750Y-101914419D01*
X140079962Y-101921651D01*
X140099368Y-101930830D01*
X140117781Y-101941866D01*
X140135024Y-101954654D01*
X140150930Y-101969070D01*
X140165346Y-101984976D01*
X140178134Y-102002219D01*
X140189170Y-102020632D01*
X140198349Y-102040038D01*
X140205581Y-102060250D01*
X140210797Y-102081074D01*
X140213947Y-102102309D01*
X140215000Y-102123750D01*
X140215000Y-102636250D01*
X140213947Y-102657691D01*
X140210797Y-102678926D01*
X140205581Y-102699750D01*
X140198349Y-102719962D01*
X140189170Y-102739368D01*
X140178134Y-102757781D01*
X140165346Y-102775024D01*
X140150930Y-102790930D01*
X140135024Y-102805346D01*
X140117781Y-102818134D01*
X140099368Y-102829170D01*
X140079962Y-102838349D01*
X140059750Y-102845581D01*
X140038926Y-102850797D01*
X140017691Y-102853947D01*
X139996250Y-102855000D01*
X139558750Y-102855000D01*
X139537309Y-102853947D01*
X139516074Y-102850797D01*
X139495250Y-102845581D01*
X139475038Y-102838349D01*
X139455632Y-102829170D01*
X139437219Y-102818134D01*
X139419976Y-102805346D01*
X139404070Y-102790930D01*
X139389654Y-102775024D01*
X139376866Y-102757781D01*
X139365830Y-102739368D01*
X139356651Y-102719962D01*
X139349419Y-102699750D01*
X139344203Y-102678926D01*
X139341053Y-102657691D01*
X139340000Y-102636250D01*
X139340000Y-102123750D01*
X139341053Y-102102309D01*
X139344203Y-102081074D01*
X139349419Y-102060250D01*
X139356651Y-102040038D01*
X139365830Y-102020632D01*
X139376866Y-102002219D01*
X139389654Y-101984976D01*
X139404070Y-101969070D01*
X139419976Y-101954654D01*
X139437219Y-101941866D01*
X139455632Y-101930830D01*
X139475038Y-101921651D01*
X139495250Y-101914419D01*
X139516074Y-101909203D01*
X139537309Y-101906053D01*
X139558750Y-101905000D01*
X139996250Y-101905000D01*
X140017691Y-101906053D01*
X140017691Y-101906053D01*
G37*
D16*
X139777500Y-102380000D03*
D13*
G36*
X123807642Y-95791174D02*
G01*
X123831303Y-95794684D01*
X123854507Y-95800496D01*
X123877029Y-95808554D01*
X123898653Y-95818782D01*
X123919170Y-95831079D01*
X123938383Y-95845329D01*
X123956107Y-95861393D01*
X123972171Y-95879117D01*
X123986421Y-95898330D01*
X123998718Y-95918847D01*
X124008946Y-95940471D01*
X124017004Y-95962993D01*
X124022816Y-95986197D01*
X124026326Y-96009858D01*
X124027500Y-96033750D01*
X124027500Y-96946250D01*
X124026326Y-96970142D01*
X124022816Y-96993803D01*
X124017004Y-97017007D01*
X124008946Y-97039529D01*
X123998718Y-97061153D01*
X123986421Y-97081670D01*
X123972171Y-97100883D01*
X123956107Y-97118607D01*
X123938383Y-97134671D01*
X123919170Y-97148921D01*
X123898653Y-97161218D01*
X123877029Y-97171446D01*
X123854507Y-97179504D01*
X123831303Y-97185316D01*
X123807642Y-97188826D01*
X123783750Y-97190000D01*
X123296250Y-97190000D01*
X123272358Y-97188826D01*
X123248697Y-97185316D01*
X123225493Y-97179504D01*
X123202971Y-97171446D01*
X123181347Y-97161218D01*
X123160830Y-97148921D01*
X123141617Y-97134671D01*
X123123893Y-97118607D01*
X123107829Y-97100883D01*
X123093579Y-97081670D01*
X123081282Y-97061153D01*
X123071054Y-97039529D01*
X123062996Y-97017007D01*
X123057184Y-96993803D01*
X123053674Y-96970142D01*
X123052500Y-96946250D01*
X123052500Y-96033750D01*
X123053674Y-96009858D01*
X123057184Y-95986197D01*
X123062996Y-95962993D01*
X123071054Y-95940471D01*
X123081282Y-95918847D01*
X123093579Y-95898330D01*
X123107829Y-95879117D01*
X123123893Y-95861393D01*
X123141617Y-95845329D01*
X123160830Y-95831079D01*
X123181347Y-95818782D01*
X123202971Y-95808554D01*
X123225493Y-95800496D01*
X123248697Y-95794684D01*
X123272358Y-95791174D01*
X123296250Y-95790000D01*
X123783750Y-95790000D01*
X123807642Y-95791174D01*
X123807642Y-95791174D01*
G37*
D18*
X123540000Y-96490000D03*
D13*
G36*
X121932642Y-95791174D02*
G01*
X121956303Y-95794684D01*
X121979507Y-95800496D01*
X122002029Y-95808554D01*
X122023653Y-95818782D01*
X122044170Y-95831079D01*
X122063383Y-95845329D01*
X122081107Y-95861393D01*
X122097171Y-95879117D01*
X122111421Y-95898330D01*
X122123718Y-95918847D01*
X122133946Y-95940471D01*
X122142004Y-95962993D01*
X122147816Y-95986197D01*
X122151326Y-96009858D01*
X122152500Y-96033750D01*
X122152500Y-96946250D01*
X122151326Y-96970142D01*
X122147816Y-96993803D01*
X122142004Y-97017007D01*
X122133946Y-97039529D01*
X122123718Y-97061153D01*
X122111421Y-97081670D01*
X122097171Y-97100883D01*
X122081107Y-97118607D01*
X122063383Y-97134671D01*
X122044170Y-97148921D01*
X122023653Y-97161218D01*
X122002029Y-97171446D01*
X121979507Y-97179504D01*
X121956303Y-97185316D01*
X121932642Y-97188826D01*
X121908750Y-97190000D01*
X121421250Y-97190000D01*
X121397358Y-97188826D01*
X121373697Y-97185316D01*
X121350493Y-97179504D01*
X121327971Y-97171446D01*
X121306347Y-97161218D01*
X121285830Y-97148921D01*
X121266617Y-97134671D01*
X121248893Y-97118607D01*
X121232829Y-97100883D01*
X121218579Y-97081670D01*
X121206282Y-97061153D01*
X121196054Y-97039529D01*
X121187996Y-97017007D01*
X121182184Y-96993803D01*
X121178674Y-96970142D01*
X121177500Y-96946250D01*
X121177500Y-96033750D01*
X121178674Y-96009858D01*
X121182184Y-95986197D01*
X121187996Y-95962993D01*
X121196054Y-95940471D01*
X121206282Y-95918847D01*
X121218579Y-95898330D01*
X121232829Y-95879117D01*
X121248893Y-95861393D01*
X121266617Y-95845329D01*
X121285830Y-95831079D01*
X121306347Y-95818782D01*
X121327971Y-95808554D01*
X121350493Y-95800496D01*
X121373697Y-95794684D01*
X121397358Y-95791174D01*
X121421250Y-95790000D01*
X121908750Y-95790000D01*
X121932642Y-95791174D01*
X121932642Y-95791174D01*
G37*
D18*
X121665000Y-96490000D03*
D13*
G36*
X124382642Y-109221174D02*
G01*
X124406303Y-109224684D01*
X124429507Y-109230496D01*
X124452029Y-109238554D01*
X124473653Y-109248782D01*
X124494170Y-109261079D01*
X124513383Y-109275329D01*
X124531107Y-109291393D01*
X124547171Y-109309117D01*
X124561421Y-109328330D01*
X124573718Y-109348847D01*
X124583946Y-109370471D01*
X124592004Y-109392993D01*
X124597816Y-109416197D01*
X124601326Y-109439858D01*
X124602500Y-109463750D01*
X124602500Y-110376250D01*
X124601326Y-110400142D01*
X124597816Y-110423803D01*
X124592004Y-110447007D01*
X124583946Y-110469529D01*
X124573718Y-110491153D01*
X124561421Y-110511670D01*
X124547171Y-110530883D01*
X124531107Y-110548607D01*
X124513383Y-110564671D01*
X124494170Y-110578921D01*
X124473653Y-110591218D01*
X124452029Y-110601446D01*
X124429507Y-110609504D01*
X124406303Y-110615316D01*
X124382642Y-110618826D01*
X124358750Y-110620000D01*
X123871250Y-110620000D01*
X123847358Y-110618826D01*
X123823697Y-110615316D01*
X123800493Y-110609504D01*
X123777971Y-110601446D01*
X123756347Y-110591218D01*
X123735830Y-110578921D01*
X123716617Y-110564671D01*
X123698893Y-110548607D01*
X123682829Y-110530883D01*
X123668579Y-110511670D01*
X123656282Y-110491153D01*
X123646054Y-110469529D01*
X123637996Y-110447007D01*
X123632184Y-110423803D01*
X123628674Y-110400142D01*
X123627500Y-110376250D01*
X123627500Y-109463750D01*
X123628674Y-109439858D01*
X123632184Y-109416197D01*
X123637996Y-109392993D01*
X123646054Y-109370471D01*
X123656282Y-109348847D01*
X123668579Y-109328330D01*
X123682829Y-109309117D01*
X123698893Y-109291393D01*
X123716617Y-109275329D01*
X123735830Y-109261079D01*
X123756347Y-109248782D01*
X123777971Y-109238554D01*
X123800493Y-109230496D01*
X123823697Y-109224684D01*
X123847358Y-109221174D01*
X123871250Y-109220000D01*
X124358750Y-109220000D01*
X124382642Y-109221174D01*
X124382642Y-109221174D01*
G37*
D18*
X124115000Y-109920000D03*
D13*
G36*
X126257642Y-109221174D02*
G01*
X126281303Y-109224684D01*
X126304507Y-109230496D01*
X126327029Y-109238554D01*
X126348653Y-109248782D01*
X126369170Y-109261079D01*
X126388383Y-109275329D01*
X126406107Y-109291393D01*
X126422171Y-109309117D01*
X126436421Y-109328330D01*
X126448718Y-109348847D01*
X126458946Y-109370471D01*
X126467004Y-109392993D01*
X126472816Y-109416197D01*
X126476326Y-109439858D01*
X126477500Y-109463750D01*
X126477500Y-110376250D01*
X126476326Y-110400142D01*
X126472816Y-110423803D01*
X126467004Y-110447007D01*
X126458946Y-110469529D01*
X126448718Y-110491153D01*
X126436421Y-110511670D01*
X126422171Y-110530883D01*
X126406107Y-110548607D01*
X126388383Y-110564671D01*
X126369170Y-110578921D01*
X126348653Y-110591218D01*
X126327029Y-110601446D01*
X126304507Y-110609504D01*
X126281303Y-110615316D01*
X126257642Y-110618826D01*
X126233750Y-110620000D01*
X125746250Y-110620000D01*
X125722358Y-110618826D01*
X125698697Y-110615316D01*
X125675493Y-110609504D01*
X125652971Y-110601446D01*
X125631347Y-110591218D01*
X125610830Y-110578921D01*
X125591617Y-110564671D01*
X125573893Y-110548607D01*
X125557829Y-110530883D01*
X125543579Y-110511670D01*
X125531282Y-110491153D01*
X125521054Y-110469529D01*
X125512996Y-110447007D01*
X125507184Y-110423803D01*
X125503674Y-110400142D01*
X125502500Y-110376250D01*
X125502500Y-109463750D01*
X125503674Y-109439858D01*
X125507184Y-109416197D01*
X125512996Y-109392993D01*
X125521054Y-109370471D01*
X125531282Y-109348847D01*
X125543579Y-109328330D01*
X125557829Y-109309117D01*
X125573893Y-109291393D01*
X125591617Y-109275329D01*
X125610830Y-109261079D01*
X125631347Y-109248782D01*
X125652971Y-109238554D01*
X125675493Y-109230496D01*
X125698697Y-109224684D01*
X125722358Y-109221174D01*
X125746250Y-109220000D01*
X126233750Y-109220000D01*
X126257642Y-109221174D01*
X126257642Y-109221174D01*
G37*
D18*
X125990000Y-109920000D03*
D19*
X141830000Y-104140000D03*
X143930000Y-104140000D03*
X137840000Y-104780000D03*
X135740000Y-104780000D03*
D13*
G36*
X133667691Y-98756053D02*
G01*
X133688926Y-98759203D01*
X133709750Y-98764419D01*
X133729962Y-98771651D01*
X133749368Y-98780830D01*
X133767781Y-98791866D01*
X133785024Y-98804654D01*
X133800930Y-98819070D01*
X133815346Y-98834976D01*
X133828134Y-98852219D01*
X133839170Y-98870632D01*
X133848349Y-98890038D01*
X133855581Y-98910250D01*
X133860797Y-98931074D01*
X133863947Y-98952309D01*
X133865000Y-98973750D01*
X133865000Y-99411250D01*
X133863947Y-99432691D01*
X133860797Y-99453926D01*
X133855581Y-99474750D01*
X133848349Y-99494962D01*
X133839170Y-99514368D01*
X133828134Y-99532781D01*
X133815346Y-99550024D01*
X133800930Y-99565930D01*
X133785024Y-99580346D01*
X133767781Y-99593134D01*
X133749368Y-99604170D01*
X133729962Y-99613349D01*
X133709750Y-99620581D01*
X133688926Y-99625797D01*
X133667691Y-99628947D01*
X133646250Y-99630000D01*
X133133750Y-99630000D01*
X133112309Y-99628947D01*
X133091074Y-99625797D01*
X133070250Y-99620581D01*
X133050038Y-99613349D01*
X133030632Y-99604170D01*
X133012219Y-99593134D01*
X132994976Y-99580346D01*
X132979070Y-99565930D01*
X132964654Y-99550024D01*
X132951866Y-99532781D01*
X132940830Y-99514368D01*
X132931651Y-99494962D01*
X132924419Y-99474750D01*
X132919203Y-99453926D01*
X132916053Y-99432691D01*
X132915000Y-99411250D01*
X132915000Y-98973750D01*
X132916053Y-98952309D01*
X132919203Y-98931074D01*
X132924419Y-98910250D01*
X132931651Y-98890038D01*
X132940830Y-98870632D01*
X132951866Y-98852219D01*
X132964654Y-98834976D01*
X132979070Y-98819070D01*
X132994976Y-98804654D01*
X133012219Y-98791866D01*
X133030632Y-98780830D01*
X133050038Y-98771651D01*
X133070250Y-98764419D01*
X133091074Y-98759203D01*
X133112309Y-98756053D01*
X133133750Y-98755000D01*
X133646250Y-98755000D01*
X133667691Y-98756053D01*
X133667691Y-98756053D01*
G37*
D16*
X133390000Y-99192500D03*
D13*
G36*
X133667691Y-100331053D02*
G01*
X133688926Y-100334203D01*
X133709750Y-100339419D01*
X133729962Y-100346651D01*
X133749368Y-100355830D01*
X133767781Y-100366866D01*
X133785024Y-100379654D01*
X133800930Y-100394070D01*
X133815346Y-100409976D01*
X133828134Y-100427219D01*
X133839170Y-100445632D01*
X133848349Y-100465038D01*
X133855581Y-100485250D01*
X133860797Y-100506074D01*
X133863947Y-100527309D01*
X133865000Y-100548750D01*
X133865000Y-100986250D01*
X133863947Y-101007691D01*
X133860797Y-101028926D01*
X133855581Y-101049750D01*
X133848349Y-101069962D01*
X133839170Y-101089368D01*
X133828134Y-101107781D01*
X133815346Y-101125024D01*
X133800930Y-101140930D01*
X133785024Y-101155346D01*
X133767781Y-101168134D01*
X133749368Y-101179170D01*
X133729962Y-101188349D01*
X133709750Y-101195581D01*
X133688926Y-101200797D01*
X133667691Y-101203947D01*
X133646250Y-101205000D01*
X133133750Y-101205000D01*
X133112309Y-101203947D01*
X133091074Y-101200797D01*
X133070250Y-101195581D01*
X133050038Y-101188349D01*
X133030632Y-101179170D01*
X133012219Y-101168134D01*
X132994976Y-101155346D01*
X132979070Y-101140930D01*
X132964654Y-101125024D01*
X132951866Y-101107781D01*
X132940830Y-101089368D01*
X132931651Y-101069962D01*
X132924419Y-101049750D01*
X132919203Y-101028926D01*
X132916053Y-101007691D01*
X132915000Y-100986250D01*
X132915000Y-100548750D01*
X132916053Y-100527309D01*
X132919203Y-100506074D01*
X132924419Y-100485250D01*
X132931651Y-100465038D01*
X132940830Y-100445632D01*
X132951866Y-100427219D01*
X132964654Y-100409976D01*
X132979070Y-100394070D01*
X132994976Y-100379654D01*
X133012219Y-100366866D01*
X133030632Y-100355830D01*
X133050038Y-100346651D01*
X133070250Y-100339419D01*
X133091074Y-100334203D01*
X133112309Y-100331053D01*
X133133750Y-100330000D01*
X133646250Y-100330000D01*
X133667691Y-100331053D01*
X133667691Y-100331053D01*
G37*
D16*
X133390000Y-100767500D03*
D20*
X116540000Y-103330000D03*
X115590000Y-103330000D03*
X114640000Y-103330000D03*
X114640000Y-105530000D03*
X116540000Y-105530000D03*
X115590000Y-105530000D03*
D13*
G36*
X121867691Y-91981053D02*
G01*
X121888926Y-91984203D01*
X121909750Y-91989419D01*
X121929962Y-91996651D01*
X121949368Y-92005830D01*
X121967781Y-92016866D01*
X121985024Y-92029654D01*
X122000930Y-92044070D01*
X122015346Y-92059976D01*
X122028134Y-92077219D01*
X122039170Y-92095632D01*
X122048349Y-92115038D01*
X122055581Y-92135250D01*
X122060797Y-92156074D01*
X122063947Y-92177309D01*
X122065000Y-92198750D01*
X122065000Y-92636250D01*
X122063947Y-92657691D01*
X122060797Y-92678926D01*
X122055581Y-92699750D01*
X122048349Y-92719962D01*
X122039170Y-92739368D01*
X122028134Y-92757781D01*
X122015346Y-92775024D01*
X122000930Y-92790930D01*
X121985024Y-92805346D01*
X121967781Y-92818134D01*
X121949368Y-92829170D01*
X121929962Y-92838349D01*
X121909750Y-92845581D01*
X121888926Y-92850797D01*
X121867691Y-92853947D01*
X121846250Y-92855000D01*
X121333750Y-92855000D01*
X121312309Y-92853947D01*
X121291074Y-92850797D01*
X121270250Y-92845581D01*
X121250038Y-92838349D01*
X121230632Y-92829170D01*
X121212219Y-92818134D01*
X121194976Y-92805346D01*
X121179070Y-92790930D01*
X121164654Y-92775024D01*
X121151866Y-92757781D01*
X121140830Y-92739368D01*
X121131651Y-92719962D01*
X121124419Y-92699750D01*
X121119203Y-92678926D01*
X121116053Y-92657691D01*
X121115000Y-92636250D01*
X121115000Y-92198750D01*
X121116053Y-92177309D01*
X121119203Y-92156074D01*
X121124419Y-92135250D01*
X121131651Y-92115038D01*
X121140830Y-92095632D01*
X121151866Y-92077219D01*
X121164654Y-92059976D01*
X121179070Y-92044070D01*
X121194976Y-92029654D01*
X121212219Y-92016866D01*
X121230632Y-92005830D01*
X121250038Y-91996651D01*
X121270250Y-91989419D01*
X121291074Y-91984203D01*
X121312309Y-91981053D01*
X121333750Y-91980000D01*
X121846250Y-91980000D01*
X121867691Y-91981053D01*
X121867691Y-91981053D01*
G37*
D16*
X121590000Y-92417500D03*
D13*
G36*
X121867691Y-90406053D02*
G01*
X121888926Y-90409203D01*
X121909750Y-90414419D01*
X121929962Y-90421651D01*
X121949368Y-90430830D01*
X121967781Y-90441866D01*
X121985024Y-90454654D01*
X122000930Y-90469070D01*
X122015346Y-90484976D01*
X122028134Y-90502219D01*
X122039170Y-90520632D01*
X122048349Y-90540038D01*
X122055581Y-90560250D01*
X122060797Y-90581074D01*
X122063947Y-90602309D01*
X122065000Y-90623750D01*
X122065000Y-91061250D01*
X122063947Y-91082691D01*
X122060797Y-91103926D01*
X122055581Y-91124750D01*
X122048349Y-91144962D01*
X122039170Y-91164368D01*
X122028134Y-91182781D01*
X122015346Y-91200024D01*
X122000930Y-91215930D01*
X121985024Y-91230346D01*
X121967781Y-91243134D01*
X121949368Y-91254170D01*
X121929962Y-91263349D01*
X121909750Y-91270581D01*
X121888926Y-91275797D01*
X121867691Y-91278947D01*
X121846250Y-91280000D01*
X121333750Y-91280000D01*
X121312309Y-91278947D01*
X121291074Y-91275797D01*
X121270250Y-91270581D01*
X121250038Y-91263349D01*
X121230632Y-91254170D01*
X121212219Y-91243134D01*
X121194976Y-91230346D01*
X121179070Y-91215930D01*
X121164654Y-91200024D01*
X121151866Y-91182781D01*
X121140830Y-91164368D01*
X121131651Y-91144962D01*
X121124419Y-91124750D01*
X121119203Y-91103926D01*
X121116053Y-91082691D01*
X121115000Y-91061250D01*
X121115000Y-90623750D01*
X121116053Y-90602309D01*
X121119203Y-90581074D01*
X121124419Y-90560250D01*
X121131651Y-90540038D01*
X121140830Y-90520632D01*
X121151866Y-90502219D01*
X121164654Y-90484976D01*
X121179070Y-90469070D01*
X121194976Y-90454654D01*
X121212219Y-90441866D01*
X121230632Y-90430830D01*
X121250038Y-90421651D01*
X121270250Y-90414419D01*
X121291074Y-90409203D01*
X121312309Y-90406053D01*
X121333750Y-90405000D01*
X121846250Y-90405000D01*
X121867691Y-90406053D01*
X121867691Y-90406053D01*
G37*
D16*
X121590000Y-90842500D03*
D21*
X130640000Y-93560000D03*
X126140000Y-93560000D03*
X126140000Y-85600000D03*
X130640000Y-85600000D03*
D13*
G36*
X134057642Y-95481174D02*
G01*
X134081303Y-95484684D01*
X134104507Y-95490496D01*
X134127029Y-95498554D01*
X134148653Y-95508782D01*
X134169170Y-95521079D01*
X134188383Y-95535329D01*
X134206107Y-95551393D01*
X134222171Y-95569117D01*
X134236421Y-95588330D01*
X134248718Y-95608847D01*
X134258946Y-95630471D01*
X134267004Y-95652993D01*
X134272816Y-95676197D01*
X134276326Y-95699858D01*
X134277500Y-95723750D01*
X134277500Y-96636250D01*
X134276326Y-96660142D01*
X134272816Y-96683803D01*
X134267004Y-96707007D01*
X134258946Y-96729529D01*
X134248718Y-96751153D01*
X134236421Y-96771670D01*
X134222171Y-96790883D01*
X134206107Y-96808607D01*
X134188383Y-96824671D01*
X134169170Y-96838921D01*
X134148653Y-96851218D01*
X134127029Y-96861446D01*
X134104507Y-96869504D01*
X134081303Y-96875316D01*
X134057642Y-96878826D01*
X134033750Y-96880000D01*
X133546250Y-96880000D01*
X133522358Y-96878826D01*
X133498697Y-96875316D01*
X133475493Y-96869504D01*
X133452971Y-96861446D01*
X133431347Y-96851218D01*
X133410830Y-96838921D01*
X133391617Y-96824671D01*
X133373893Y-96808607D01*
X133357829Y-96790883D01*
X133343579Y-96771670D01*
X133331282Y-96751153D01*
X133321054Y-96729529D01*
X133312996Y-96707007D01*
X133307184Y-96683803D01*
X133303674Y-96660142D01*
X133302500Y-96636250D01*
X133302500Y-95723750D01*
X133303674Y-95699858D01*
X133307184Y-95676197D01*
X133312996Y-95652993D01*
X133321054Y-95630471D01*
X133331282Y-95608847D01*
X133343579Y-95588330D01*
X133357829Y-95569117D01*
X133373893Y-95551393D01*
X133391617Y-95535329D01*
X133410830Y-95521079D01*
X133431347Y-95508782D01*
X133452971Y-95498554D01*
X133475493Y-95490496D01*
X133498697Y-95484684D01*
X133522358Y-95481174D01*
X133546250Y-95480000D01*
X134033750Y-95480000D01*
X134057642Y-95481174D01*
X134057642Y-95481174D01*
G37*
D18*
X133790000Y-96180000D03*
D13*
G36*
X135932642Y-95481174D02*
G01*
X135956303Y-95484684D01*
X135979507Y-95490496D01*
X136002029Y-95498554D01*
X136023653Y-95508782D01*
X136044170Y-95521079D01*
X136063383Y-95535329D01*
X136081107Y-95551393D01*
X136097171Y-95569117D01*
X136111421Y-95588330D01*
X136123718Y-95608847D01*
X136133946Y-95630471D01*
X136142004Y-95652993D01*
X136147816Y-95676197D01*
X136151326Y-95699858D01*
X136152500Y-95723750D01*
X136152500Y-96636250D01*
X136151326Y-96660142D01*
X136147816Y-96683803D01*
X136142004Y-96707007D01*
X136133946Y-96729529D01*
X136123718Y-96751153D01*
X136111421Y-96771670D01*
X136097171Y-96790883D01*
X136081107Y-96808607D01*
X136063383Y-96824671D01*
X136044170Y-96838921D01*
X136023653Y-96851218D01*
X136002029Y-96861446D01*
X135979507Y-96869504D01*
X135956303Y-96875316D01*
X135932642Y-96878826D01*
X135908750Y-96880000D01*
X135421250Y-96880000D01*
X135397358Y-96878826D01*
X135373697Y-96875316D01*
X135350493Y-96869504D01*
X135327971Y-96861446D01*
X135306347Y-96851218D01*
X135285830Y-96838921D01*
X135266617Y-96824671D01*
X135248893Y-96808607D01*
X135232829Y-96790883D01*
X135218579Y-96771670D01*
X135206282Y-96751153D01*
X135196054Y-96729529D01*
X135187996Y-96707007D01*
X135182184Y-96683803D01*
X135178674Y-96660142D01*
X135177500Y-96636250D01*
X135177500Y-95723750D01*
X135178674Y-95699858D01*
X135182184Y-95676197D01*
X135187996Y-95652993D01*
X135196054Y-95630471D01*
X135206282Y-95608847D01*
X135218579Y-95588330D01*
X135232829Y-95569117D01*
X135248893Y-95551393D01*
X135266617Y-95535329D01*
X135285830Y-95521079D01*
X135306347Y-95508782D01*
X135327971Y-95498554D01*
X135350493Y-95490496D01*
X135373697Y-95484684D01*
X135397358Y-95481174D01*
X135421250Y-95480000D01*
X135908750Y-95480000D01*
X135932642Y-95481174D01*
X135932642Y-95481174D01*
G37*
D18*
X135665000Y-96180000D03*
D13*
G36*
X139867691Y-97118553D02*
G01*
X139888926Y-97121703D01*
X139909750Y-97126919D01*
X139929962Y-97134151D01*
X139949368Y-97143330D01*
X139967781Y-97154366D01*
X139985024Y-97167154D01*
X140000930Y-97181570D01*
X140015346Y-97197476D01*
X140028134Y-97214719D01*
X140039170Y-97233132D01*
X140048349Y-97252538D01*
X140055581Y-97272750D01*
X140060797Y-97293574D01*
X140063947Y-97314809D01*
X140065000Y-97336250D01*
X140065000Y-97773750D01*
X140063947Y-97795191D01*
X140060797Y-97816426D01*
X140055581Y-97837250D01*
X140048349Y-97857462D01*
X140039170Y-97876868D01*
X140028134Y-97895281D01*
X140015346Y-97912524D01*
X140000930Y-97928430D01*
X139985024Y-97942846D01*
X139967781Y-97955634D01*
X139949368Y-97966670D01*
X139929962Y-97975849D01*
X139909750Y-97983081D01*
X139888926Y-97988297D01*
X139867691Y-97991447D01*
X139846250Y-97992500D01*
X139333750Y-97992500D01*
X139312309Y-97991447D01*
X139291074Y-97988297D01*
X139270250Y-97983081D01*
X139250038Y-97975849D01*
X139230632Y-97966670D01*
X139212219Y-97955634D01*
X139194976Y-97942846D01*
X139179070Y-97928430D01*
X139164654Y-97912524D01*
X139151866Y-97895281D01*
X139140830Y-97876868D01*
X139131651Y-97857462D01*
X139124419Y-97837250D01*
X139119203Y-97816426D01*
X139116053Y-97795191D01*
X139115000Y-97773750D01*
X139115000Y-97336250D01*
X139116053Y-97314809D01*
X139119203Y-97293574D01*
X139124419Y-97272750D01*
X139131651Y-97252538D01*
X139140830Y-97233132D01*
X139151866Y-97214719D01*
X139164654Y-97197476D01*
X139179070Y-97181570D01*
X139194976Y-97167154D01*
X139212219Y-97154366D01*
X139230632Y-97143330D01*
X139250038Y-97134151D01*
X139270250Y-97126919D01*
X139291074Y-97121703D01*
X139312309Y-97118553D01*
X139333750Y-97117500D01*
X139846250Y-97117500D01*
X139867691Y-97118553D01*
X139867691Y-97118553D01*
G37*
D16*
X139590000Y-97555000D03*
D13*
G36*
X139867691Y-95543553D02*
G01*
X139888926Y-95546703D01*
X139909750Y-95551919D01*
X139929962Y-95559151D01*
X139949368Y-95568330D01*
X139967781Y-95579366D01*
X139985024Y-95592154D01*
X140000930Y-95606570D01*
X140015346Y-95622476D01*
X140028134Y-95639719D01*
X140039170Y-95658132D01*
X140048349Y-95677538D01*
X140055581Y-95697750D01*
X140060797Y-95718574D01*
X140063947Y-95739809D01*
X140065000Y-95761250D01*
X140065000Y-96198750D01*
X140063947Y-96220191D01*
X140060797Y-96241426D01*
X140055581Y-96262250D01*
X140048349Y-96282462D01*
X140039170Y-96301868D01*
X140028134Y-96320281D01*
X140015346Y-96337524D01*
X140000930Y-96353430D01*
X139985024Y-96367846D01*
X139967781Y-96380634D01*
X139949368Y-96391670D01*
X139929962Y-96400849D01*
X139909750Y-96408081D01*
X139888926Y-96413297D01*
X139867691Y-96416447D01*
X139846250Y-96417500D01*
X139333750Y-96417500D01*
X139312309Y-96416447D01*
X139291074Y-96413297D01*
X139270250Y-96408081D01*
X139250038Y-96400849D01*
X139230632Y-96391670D01*
X139212219Y-96380634D01*
X139194976Y-96367846D01*
X139179070Y-96353430D01*
X139164654Y-96337524D01*
X139151866Y-96320281D01*
X139140830Y-96301868D01*
X139131651Y-96282462D01*
X139124419Y-96262250D01*
X139119203Y-96241426D01*
X139116053Y-96220191D01*
X139115000Y-96198750D01*
X139115000Y-95761250D01*
X139116053Y-95739809D01*
X139119203Y-95718574D01*
X139124419Y-95697750D01*
X139131651Y-95677538D01*
X139140830Y-95658132D01*
X139151866Y-95639719D01*
X139164654Y-95622476D01*
X139179070Y-95606570D01*
X139194976Y-95592154D01*
X139212219Y-95579366D01*
X139230632Y-95568330D01*
X139250038Y-95559151D01*
X139270250Y-95551919D01*
X139291074Y-95546703D01*
X139312309Y-95543553D01*
X139333750Y-95542500D01*
X139846250Y-95542500D01*
X139867691Y-95543553D01*
X139867691Y-95543553D01*
G37*
D16*
X139590000Y-95980000D03*
D13*
G36*
X134667691Y-92131053D02*
G01*
X134688926Y-92134203D01*
X134709750Y-92139419D01*
X134729962Y-92146651D01*
X134749368Y-92155830D01*
X134767781Y-92166866D01*
X134785024Y-92179654D01*
X134800930Y-92194070D01*
X134815346Y-92209976D01*
X134828134Y-92227219D01*
X134839170Y-92245632D01*
X134848349Y-92265038D01*
X134855581Y-92285250D01*
X134860797Y-92306074D01*
X134863947Y-92327309D01*
X134865000Y-92348750D01*
X134865000Y-92786250D01*
X134863947Y-92807691D01*
X134860797Y-92828926D01*
X134855581Y-92849750D01*
X134848349Y-92869962D01*
X134839170Y-92889368D01*
X134828134Y-92907781D01*
X134815346Y-92925024D01*
X134800930Y-92940930D01*
X134785024Y-92955346D01*
X134767781Y-92968134D01*
X134749368Y-92979170D01*
X134729962Y-92988349D01*
X134709750Y-92995581D01*
X134688926Y-93000797D01*
X134667691Y-93003947D01*
X134646250Y-93005000D01*
X134133750Y-93005000D01*
X134112309Y-93003947D01*
X134091074Y-93000797D01*
X134070250Y-92995581D01*
X134050038Y-92988349D01*
X134030632Y-92979170D01*
X134012219Y-92968134D01*
X133994976Y-92955346D01*
X133979070Y-92940930D01*
X133964654Y-92925024D01*
X133951866Y-92907781D01*
X133940830Y-92889368D01*
X133931651Y-92869962D01*
X133924419Y-92849750D01*
X133919203Y-92828926D01*
X133916053Y-92807691D01*
X133915000Y-92786250D01*
X133915000Y-92348750D01*
X133916053Y-92327309D01*
X133919203Y-92306074D01*
X133924419Y-92285250D01*
X133931651Y-92265038D01*
X133940830Y-92245632D01*
X133951866Y-92227219D01*
X133964654Y-92209976D01*
X133979070Y-92194070D01*
X133994976Y-92179654D01*
X134012219Y-92166866D01*
X134030632Y-92155830D01*
X134050038Y-92146651D01*
X134070250Y-92139419D01*
X134091074Y-92134203D01*
X134112309Y-92131053D01*
X134133750Y-92130000D01*
X134646250Y-92130000D01*
X134667691Y-92131053D01*
X134667691Y-92131053D01*
G37*
D16*
X134390000Y-92567500D03*
D13*
G36*
X134667691Y-90556053D02*
G01*
X134688926Y-90559203D01*
X134709750Y-90564419D01*
X134729962Y-90571651D01*
X134749368Y-90580830D01*
X134767781Y-90591866D01*
X134785024Y-90604654D01*
X134800930Y-90619070D01*
X134815346Y-90634976D01*
X134828134Y-90652219D01*
X134839170Y-90670632D01*
X134848349Y-90690038D01*
X134855581Y-90710250D01*
X134860797Y-90731074D01*
X134863947Y-90752309D01*
X134865000Y-90773750D01*
X134865000Y-91211250D01*
X134863947Y-91232691D01*
X134860797Y-91253926D01*
X134855581Y-91274750D01*
X134848349Y-91294962D01*
X134839170Y-91314368D01*
X134828134Y-91332781D01*
X134815346Y-91350024D01*
X134800930Y-91365930D01*
X134785024Y-91380346D01*
X134767781Y-91393134D01*
X134749368Y-91404170D01*
X134729962Y-91413349D01*
X134709750Y-91420581D01*
X134688926Y-91425797D01*
X134667691Y-91428947D01*
X134646250Y-91430000D01*
X134133750Y-91430000D01*
X134112309Y-91428947D01*
X134091074Y-91425797D01*
X134070250Y-91420581D01*
X134050038Y-91413349D01*
X134030632Y-91404170D01*
X134012219Y-91393134D01*
X133994976Y-91380346D01*
X133979070Y-91365930D01*
X133964654Y-91350024D01*
X133951866Y-91332781D01*
X133940830Y-91314368D01*
X133931651Y-91294962D01*
X133924419Y-91274750D01*
X133919203Y-91253926D01*
X133916053Y-91232691D01*
X133915000Y-91211250D01*
X133915000Y-90773750D01*
X133916053Y-90752309D01*
X133919203Y-90731074D01*
X133924419Y-90710250D01*
X133931651Y-90690038D01*
X133940830Y-90670632D01*
X133951866Y-90652219D01*
X133964654Y-90634976D01*
X133979070Y-90619070D01*
X133994976Y-90604654D01*
X134012219Y-90591866D01*
X134030632Y-90580830D01*
X134050038Y-90571651D01*
X134070250Y-90564419D01*
X134091074Y-90559203D01*
X134112309Y-90556053D01*
X134133750Y-90555000D01*
X134646250Y-90555000D01*
X134667691Y-90556053D01*
X134667691Y-90556053D01*
G37*
D16*
X134390000Y-90992500D03*
D13*
G36*
X161255191Y-92106053D02*
G01*
X161276426Y-92109203D01*
X161297250Y-92114419D01*
X161317462Y-92121651D01*
X161336868Y-92130830D01*
X161355281Y-92141866D01*
X161372524Y-92154654D01*
X161388430Y-92169070D01*
X161402846Y-92184976D01*
X161415634Y-92202219D01*
X161426670Y-92220632D01*
X161435849Y-92240038D01*
X161443081Y-92260250D01*
X161448297Y-92281074D01*
X161451447Y-92302309D01*
X161452500Y-92323750D01*
X161452500Y-92836250D01*
X161451447Y-92857691D01*
X161448297Y-92878926D01*
X161443081Y-92899750D01*
X161435849Y-92919962D01*
X161426670Y-92939368D01*
X161415634Y-92957781D01*
X161402846Y-92975024D01*
X161388430Y-92990930D01*
X161372524Y-93005346D01*
X161355281Y-93018134D01*
X161336868Y-93029170D01*
X161317462Y-93038349D01*
X161297250Y-93045581D01*
X161276426Y-93050797D01*
X161255191Y-93053947D01*
X161233750Y-93055000D01*
X160796250Y-93055000D01*
X160774809Y-93053947D01*
X160753574Y-93050797D01*
X160732750Y-93045581D01*
X160712538Y-93038349D01*
X160693132Y-93029170D01*
X160674719Y-93018134D01*
X160657476Y-93005346D01*
X160641570Y-92990930D01*
X160627154Y-92975024D01*
X160614366Y-92957781D01*
X160603330Y-92939368D01*
X160594151Y-92919962D01*
X160586919Y-92899750D01*
X160581703Y-92878926D01*
X160578553Y-92857691D01*
X160577500Y-92836250D01*
X160577500Y-92323750D01*
X160578553Y-92302309D01*
X160581703Y-92281074D01*
X160586919Y-92260250D01*
X160594151Y-92240038D01*
X160603330Y-92220632D01*
X160614366Y-92202219D01*
X160627154Y-92184976D01*
X160641570Y-92169070D01*
X160657476Y-92154654D01*
X160674719Y-92141866D01*
X160693132Y-92130830D01*
X160712538Y-92121651D01*
X160732750Y-92114419D01*
X160753574Y-92109203D01*
X160774809Y-92106053D01*
X160796250Y-92105000D01*
X161233750Y-92105000D01*
X161255191Y-92106053D01*
X161255191Y-92106053D01*
G37*
D16*
X161015000Y-92580000D03*
D13*
G36*
X162830191Y-92106053D02*
G01*
X162851426Y-92109203D01*
X162872250Y-92114419D01*
X162892462Y-92121651D01*
X162911868Y-92130830D01*
X162930281Y-92141866D01*
X162947524Y-92154654D01*
X162963430Y-92169070D01*
X162977846Y-92184976D01*
X162990634Y-92202219D01*
X163001670Y-92220632D01*
X163010849Y-92240038D01*
X163018081Y-92260250D01*
X163023297Y-92281074D01*
X163026447Y-92302309D01*
X163027500Y-92323750D01*
X163027500Y-92836250D01*
X163026447Y-92857691D01*
X163023297Y-92878926D01*
X163018081Y-92899750D01*
X163010849Y-92919962D01*
X163001670Y-92939368D01*
X162990634Y-92957781D01*
X162977846Y-92975024D01*
X162963430Y-92990930D01*
X162947524Y-93005346D01*
X162930281Y-93018134D01*
X162911868Y-93029170D01*
X162892462Y-93038349D01*
X162872250Y-93045581D01*
X162851426Y-93050797D01*
X162830191Y-93053947D01*
X162808750Y-93055000D01*
X162371250Y-93055000D01*
X162349809Y-93053947D01*
X162328574Y-93050797D01*
X162307750Y-93045581D01*
X162287538Y-93038349D01*
X162268132Y-93029170D01*
X162249719Y-93018134D01*
X162232476Y-93005346D01*
X162216570Y-92990930D01*
X162202154Y-92975024D01*
X162189366Y-92957781D01*
X162178330Y-92939368D01*
X162169151Y-92919962D01*
X162161919Y-92899750D01*
X162156703Y-92878926D01*
X162153553Y-92857691D01*
X162152500Y-92836250D01*
X162152500Y-92323750D01*
X162153553Y-92302309D01*
X162156703Y-92281074D01*
X162161919Y-92260250D01*
X162169151Y-92240038D01*
X162178330Y-92220632D01*
X162189366Y-92202219D01*
X162202154Y-92184976D01*
X162216570Y-92169070D01*
X162232476Y-92154654D01*
X162249719Y-92141866D01*
X162268132Y-92130830D01*
X162287538Y-92121651D01*
X162307750Y-92114419D01*
X162328574Y-92109203D01*
X162349809Y-92106053D01*
X162371250Y-92105000D01*
X162808750Y-92105000D01*
X162830191Y-92106053D01*
X162830191Y-92106053D01*
G37*
D16*
X162590000Y-92580000D03*
D13*
G36*
X121867691Y-87156053D02*
G01*
X121888926Y-87159203D01*
X121909750Y-87164419D01*
X121929962Y-87171651D01*
X121949368Y-87180830D01*
X121967781Y-87191866D01*
X121985024Y-87204654D01*
X122000930Y-87219070D01*
X122015346Y-87234976D01*
X122028134Y-87252219D01*
X122039170Y-87270632D01*
X122048349Y-87290038D01*
X122055581Y-87310250D01*
X122060797Y-87331074D01*
X122063947Y-87352309D01*
X122065000Y-87373750D01*
X122065000Y-87811250D01*
X122063947Y-87832691D01*
X122060797Y-87853926D01*
X122055581Y-87874750D01*
X122048349Y-87894962D01*
X122039170Y-87914368D01*
X122028134Y-87932781D01*
X122015346Y-87950024D01*
X122000930Y-87965930D01*
X121985024Y-87980346D01*
X121967781Y-87993134D01*
X121949368Y-88004170D01*
X121929962Y-88013349D01*
X121909750Y-88020581D01*
X121888926Y-88025797D01*
X121867691Y-88028947D01*
X121846250Y-88030000D01*
X121333750Y-88030000D01*
X121312309Y-88028947D01*
X121291074Y-88025797D01*
X121270250Y-88020581D01*
X121250038Y-88013349D01*
X121230632Y-88004170D01*
X121212219Y-87993134D01*
X121194976Y-87980346D01*
X121179070Y-87965930D01*
X121164654Y-87950024D01*
X121151866Y-87932781D01*
X121140830Y-87914368D01*
X121131651Y-87894962D01*
X121124419Y-87874750D01*
X121119203Y-87853926D01*
X121116053Y-87832691D01*
X121115000Y-87811250D01*
X121115000Y-87373750D01*
X121116053Y-87352309D01*
X121119203Y-87331074D01*
X121124419Y-87310250D01*
X121131651Y-87290038D01*
X121140830Y-87270632D01*
X121151866Y-87252219D01*
X121164654Y-87234976D01*
X121179070Y-87219070D01*
X121194976Y-87204654D01*
X121212219Y-87191866D01*
X121230632Y-87180830D01*
X121250038Y-87171651D01*
X121270250Y-87164419D01*
X121291074Y-87159203D01*
X121312309Y-87156053D01*
X121333750Y-87155000D01*
X121846250Y-87155000D01*
X121867691Y-87156053D01*
X121867691Y-87156053D01*
G37*
D16*
X121590000Y-87592500D03*
D13*
G36*
X121867691Y-88731053D02*
G01*
X121888926Y-88734203D01*
X121909750Y-88739419D01*
X121929962Y-88746651D01*
X121949368Y-88755830D01*
X121967781Y-88766866D01*
X121985024Y-88779654D01*
X122000930Y-88794070D01*
X122015346Y-88809976D01*
X122028134Y-88827219D01*
X122039170Y-88845632D01*
X122048349Y-88865038D01*
X122055581Y-88885250D01*
X122060797Y-88906074D01*
X122063947Y-88927309D01*
X122065000Y-88948750D01*
X122065000Y-89386250D01*
X122063947Y-89407691D01*
X122060797Y-89428926D01*
X122055581Y-89449750D01*
X122048349Y-89469962D01*
X122039170Y-89489368D01*
X122028134Y-89507781D01*
X122015346Y-89525024D01*
X122000930Y-89540930D01*
X121985024Y-89555346D01*
X121967781Y-89568134D01*
X121949368Y-89579170D01*
X121929962Y-89588349D01*
X121909750Y-89595581D01*
X121888926Y-89600797D01*
X121867691Y-89603947D01*
X121846250Y-89605000D01*
X121333750Y-89605000D01*
X121312309Y-89603947D01*
X121291074Y-89600797D01*
X121270250Y-89595581D01*
X121250038Y-89588349D01*
X121230632Y-89579170D01*
X121212219Y-89568134D01*
X121194976Y-89555346D01*
X121179070Y-89540930D01*
X121164654Y-89525024D01*
X121151866Y-89507781D01*
X121140830Y-89489368D01*
X121131651Y-89469962D01*
X121124419Y-89449750D01*
X121119203Y-89428926D01*
X121116053Y-89407691D01*
X121115000Y-89386250D01*
X121115000Y-88948750D01*
X121116053Y-88927309D01*
X121119203Y-88906074D01*
X121124419Y-88885250D01*
X121131651Y-88865038D01*
X121140830Y-88845632D01*
X121151866Y-88827219D01*
X121164654Y-88809976D01*
X121179070Y-88794070D01*
X121194976Y-88779654D01*
X121212219Y-88766866D01*
X121230632Y-88755830D01*
X121250038Y-88746651D01*
X121270250Y-88739419D01*
X121291074Y-88734203D01*
X121312309Y-88731053D01*
X121333750Y-88730000D01*
X121846250Y-88730000D01*
X121867691Y-88731053D01*
X121867691Y-88731053D01*
G37*
D16*
X121590000Y-89167500D03*
D13*
G36*
X153067691Y-102956053D02*
G01*
X153088926Y-102959203D01*
X153109750Y-102964419D01*
X153129962Y-102971651D01*
X153149368Y-102980830D01*
X153167781Y-102991866D01*
X153185024Y-103004654D01*
X153200930Y-103019070D01*
X153215346Y-103034976D01*
X153228134Y-103052219D01*
X153239170Y-103070632D01*
X153248349Y-103090038D01*
X153255581Y-103110250D01*
X153260797Y-103131074D01*
X153263947Y-103152309D01*
X153265000Y-103173750D01*
X153265000Y-103611250D01*
X153263947Y-103632691D01*
X153260797Y-103653926D01*
X153255581Y-103674750D01*
X153248349Y-103694962D01*
X153239170Y-103714368D01*
X153228134Y-103732781D01*
X153215346Y-103750024D01*
X153200930Y-103765930D01*
X153185024Y-103780346D01*
X153167781Y-103793134D01*
X153149368Y-103804170D01*
X153129962Y-103813349D01*
X153109750Y-103820581D01*
X153088926Y-103825797D01*
X153067691Y-103828947D01*
X153046250Y-103830000D01*
X152533750Y-103830000D01*
X152512309Y-103828947D01*
X152491074Y-103825797D01*
X152470250Y-103820581D01*
X152450038Y-103813349D01*
X152430632Y-103804170D01*
X152412219Y-103793134D01*
X152394976Y-103780346D01*
X152379070Y-103765930D01*
X152364654Y-103750024D01*
X152351866Y-103732781D01*
X152340830Y-103714368D01*
X152331651Y-103694962D01*
X152324419Y-103674750D01*
X152319203Y-103653926D01*
X152316053Y-103632691D01*
X152315000Y-103611250D01*
X152315000Y-103173750D01*
X152316053Y-103152309D01*
X152319203Y-103131074D01*
X152324419Y-103110250D01*
X152331651Y-103090038D01*
X152340830Y-103070632D01*
X152351866Y-103052219D01*
X152364654Y-103034976D01*
X152379070Y-103019070D01*
X152394976Y-103004654D01*
X152412219Y-102991866D01*
X152430632Y-102980830D01*
X152450038Y-102971651D01*
X152470250Y-102964419D01*
X152491074Y-102959203D01*
X152512309Y-102956053D01*
X152533750Y-102955000D01*
X153046250Y-102955000D01*
X153067691Y-102956053D01*
X153067691Y-102956053D01*
G37*
D16*
X152790000Y-103392500D03*
D13*
G36*
X153067691Y-104531053D02*
G01*
X153088926Y-104534203D01*
X153109750Y-104539419D01*
X153129962Y-104546651D01*
X153149368Y-104555830D01*
X153167781Y-104566866D01*
X153185024Y-104579654D01*
X153200930Y-104594070D01*
X153215346Y-104609976D01*
X153228134Y-104627219D01*
X153239170Y-104645632D01*
X153248349Y-104665038D01*
X153255581Y-104685250D01*
X153260797Y-104706074D01*
X153263947Y-104727309D01*
X153265000Y-104748750D01*
X153265000Y-105186250D01*
X153263947Y-105207691D01*
X153260797Y-105228926D01*
X153255581Y-105249750D01*
X153248349Y-105269962D01*
X153239170Y-105289368D01*
X153228134Y-105307781D01*
X153215346Y-105325024D01*
X153200930Y-105340930D01*
X153185024Y-105355346D01*
X153167781Y-105368134D01*
X153149368Y-105379170D01*
X153129962Y-105388349D01*
X153109750Y-105395581D01*
X153088926Y-105400797D01*
X153067691Y-105403947D01*
X153046250Y-105405000D01*
X152533750Y-105405000D01*
X152512309Y-105403947D01*
X152491074Y-105400797D01*
X152470250Y-105395581D01*
X152450038Y-105388349D01*
X152430632Y-105379170D01*
X152412219Y-105368134D01*
X152394976Y-105355346D01*
X152379070Y-105340930D01*
X152364654Y-105325024D01*
X152351866Y-105307781D01*
X152340830Y-105289368D01*
X152331651Y-105269962D01*
X152324419Y-105249750D01*
X152319203Y-105228926D01*
X152316053Y-105207691D01*
X152315000Y-105186250D01*
X152315000Y-104748750D01*
X152316053Y-104727309D01*
X152319203Y-104706074D01*
X152324419Y-104685250D01*
X152331651Y-104665038D01*
X152340830Y-104645632D01*
X152351866Y-104627219D01*
X152364654Y-104609976D01*
X152379070Y-104594070D01*
X152394976Y-104579654D01*
X152412219Y-104566866D01*
X152430632Y-104555830D01*
X152450038Y-104546651D01*
X152470250Y-104539419D01*
X152491074Y-104534203D01*
X152512309Y-104531053D01*
X152533750Y-104530000D01*
X153046250Y-104530000D01*
X153067691Y-104531053D01*
X153067691Y-104531053D01*
G37*
D16*
X152790000Y-104967500D03*
D13*
G36*
X111442691Y-102506053D02*
G01*
X111463926Y-102509203D01*
X111484750Y-102514419D01*
X111504962Y-102521651D01*
X111524368Y-102530830D01*
X111542781Y-102541866D01*
X111560024Y-102554654D01*
X111575930Y-102569070D01*
X111590346Y-102584976D01*
X111603134Y-102602219D01*
X111614170Y-102620632D01*
X111623349Y-102640038D01*
X111630581Y-102660250D01*
X111635797Y-102681074D01*
X111638947Y-102702309D01*
X111640000Y-102723750D01*
X111640000Y-103236250D01*
X111638947Y-103257691D01*
X111635797Y-103278926D01*
X111630581Y-103299750D01*
X111623349Y-103319962D01*
X111614170Y-103339368D01*
X111603134Y-103357781D01*
X111590346Y-103375024D01*
X111575930Y-103390930D01*
X111560024Y-103405346D01*
X111542781Y-103418134D01*
X111524368Y-103429170D01*
X111504962Y-103438349D01*
X111484750Y-103445581D01*
X111463926Y-103450797D01*
X111442691Y-103453947D01*
X111421250Y-103455000D01*
X110983750Y-103455000D01*
X110962309Y-103453947D01*
X110941074Y-103450797D01*
X110920250Y-103445581D01*
X110900038Y-103438349D01*
X110880632Y-103429170D01*
X110862219Y-103418134D01*
X110844976Y-103405346D01*
X110829070Y-103390930D01*
X110814654Y-103375024D01*
X110801866Y-103357781D01*
X110790830Y-103339368D01*
X110781651Y-103319962D01*
X110774419Y-103299750D01*
X110769203Y-103278926D01*
X110766053Y-103257691D01*
X110765000Y-103236250D01*
X110765000Y-102723750D01*
X110766053Y-102702309D01*
X110769203Y-102681074D01*
X110774419Y-102660250D01*
X110781651Y-102640038D01*
X110790830Y-102620632D01*
X110801866Y-102602219D01*
X110814654Y-102584976D01*
X110829070Y-102569070D01*
X110844976Y-102554654D01*
X110862219Y-102541866D01*
X110880632Y-102530830D01*
X110900038Y-102521651D01*
X110920250Y-102514419D01*
X110941074Y-102509203D01*
X110962309Y-102506053D01*
X110983750Y-102505000D01*
X111421250Y-102505000D01*
X111442691Y-102506053D01*
X111442691Y-102506053D01*
G37*
D16*
X111202500Y-102980000D03*
D13*
G36*
X113017691Y-102506053D02*
G01*
X113038926Y-102509203D01*
X113059750Y-102514419D01*
X113079962Y-102521651D01*
X113099368Y-102530830D01*
X113117781Y-102541866D01*
X113135024Y-102554654D01*
X113150930Y-102569070D01*
X113165346Y-102584976D01*
X113178134Y-102602219D01*
X113189170Y-102620632D01*
X113198349Y-102640038D01*
X113205581Y-102660250D01*
X113210797Y-102681074D01*
X113213947Y-102702309D01*
X113215000Y-102723750D01*
X113215000Y-103236250D01*
X113213947Y-103257691D01*
X113210797Y-103278926D01*
X113205581Y-103299750D01*
X113198349Y-103319962D01*
X113189170Y-103339368D01*
X113178134Y-103357781D01*
X113165346Y-103375024D01*
X113150930Y-103390930D01*
X113135024Y-103405346D01*
X113117781Y-103418134D01*
X113099368Y-103429170D01*
X113079962Y-103438349D01*
X113059750Y-103445581D01*
X113038926Y-103450797D01*
X113017691Y-103453947D01*
X112996250Y-103455000D01*
X112558750Y-103455000D01*
X112537309Y-103453947D01*
X112516074Y-103450797D01*
X112495250Y-103445581D01*
X112475038Y-103438349D01*
X112455632Y-103429170D01*
X112437219Y-103418134D01*
X112419976Y-103405346D01*
X112404070Y-103390930D01*
X112389654Y-103375024D01*
X112376866Y-103357781D01*
X112365830Y-103339368D01*
X112356651Y-103319962D01*
X112349419Y-103299750D01*
X112344203Y-103278926D01*
X112341053Y-103257691D01*
X112340000Y-103236250D01*
X112340000Y-102723750D01*
X112341053Y-102702309D01*
X112344203Y-102681074D01*
X112349419Y-102660250D01*
X112356651Y-102640038D01*
X112365830Y-102620632D01*
X112376866Y-102602219D01*
X112389654Y-102584976D01*
X112404070Y-102569070D01*
X112419976Y-102554654D01*
X112437219Y-102541866D01*
X112455632Y-102530830D01*
X112475038Y-102521651D01*
X112495250Y-102514419D01*
X112516074Y-102509203D01*
X112537309Y-102506053D01*
X112558750Y-102505000D01*
X112996250Y-102505000D01*
X113017691Y-102506053D01*
X113017691Y-102506053D01*
G37*
D16*
X112777500Y-102980000D03*
D13*
G36*
X151954703Y-92870722D02*
G01*
X151969264Y-92872882D01*
X151983543Y-92876459D01*
X151997403Y-92881418D01*
X152010710Y-92887712D01*
X152023336Y-92895280D01*
X152035159Y-92904048D01*
X152046066Y-92913934D01*
X152055952Y-92924841D01*
X152064720Y-92936664D01*
X152072288Y-92949290D01*
X152078582Y-92962597D01*
X152083541Y-92976457D01*
X152087118Y-92990736D01*
X152089278Y-93005297D01*
X152090000Y-93020000D01*
X152090000Y-93320000D01*
X152089278Y-93334703D01*
X152087118Y-93349264D01*
X152083541Y-93363543D01*
X152078582Y-93377403D01*
X152072288Y-93390710D01*
X152064720Y-93403336D01*
X152055952Y-93415159D01*
X152046066Y-93426066D01*
X152035159Y-93435952D01*
X152023336Y-93444720D01*
X152010710Y-93452288D01*
X151997403Y-93458582D01*
X151983543Y-93463541D01*
X151969264Y-93467118D01*
X151954703Y-93469278D01*
X151940000Y-93470000D01*
X150290000Y-93470000D01*
X150275297Y-93469278D01*
X150260736Y-93467118D01*
X150246457Y-93463541D01*
X150232597Y-93458582D01*
X150219290Y-93452288D01*
X150206664Y-93444720D01*
X150194841Y-93435952D01*
X150183934Y-93426066D01*
X150174048Y-93415159D01*
X150165280Y-93403336D01*
X150157712Y-93390710D01*
X150151418Y-93377403D01*
X150146459Y-93363543D01*
X150142882Y-93349264D01*
X150140722Y-93334703D01*
X150140000Y-93320000D01*
X150140000Y-93020000D01*
X150140722Y-93005297D01*
X150142882Y-92990736D01*
X150146459Y-92976457D01*
X150151418Y-92962597D01*
X150157712Y-92949290D01*
X150165280Y-92936664D01*
X150174048Y-92924841D01*
X150183934Y-92913934D01*
X150194841Y-92904048D01*
X150206664Y-92895280D01*
X150219290Y-92887712D01*
X150232597Y-92881418D01*
X150246457Y-92876459D01*
X150260736Y-92872882D01*
X150275297Y-92870722D01*
X150290000Y-92870000D01*
X151940000Y-92870000D01*
X151954703Y-92870722D01*
X151954703Y-92870722D01*
G37*
D17*
X151115000Y-93170000D03*
D13*
G36*
X151954703Y-94140722D02*
G01*
X151969264Y-94142882D01*
X151983543Y-94146459D01*
X151997403Y-94151418D01*
X152010710Y-94157712D01*
X152023336Y-94165280D01*
X152035159Y-94174048D01*
X152046066Y-94183934D01*
X152055952Y-94194841D01*
X152064720Y-94206664D01*
X152072288Y-94219290D01*
X152078582Y-94232597D01*
X152083541Y-94246457D01*
X152087118Y-94260736D01*
X152089278Y-94275297D01*
X152090000Y-94290000D01*
X152090000Y-94590000D01*
X152089278Y-94604703D01*
X152087118Y-94619264D01*
X152083541Y-94633543D01*
X152078582Y-94647403D01*
X152072288Y-94660710D01*
X152064720Y-94673336D01*
X152055952Y-94685159D01*
X152046066Y-94696066D01*
X152035159Y-94705952D01*
X152023336Y-94714720D01*
X152010710Y-94722288D01*
X151997403Y-94728582D01*
X151983543Y-94733541D01*
X151969264Y-94737118D01*
X151954703Y-94739278D01*
X151940000Y-94740000D01*
X150290000Y-94740000D01*
X150275297Y-94739278D01*
X150260736Y-94737118D01*
X150246457Y-94733541D01*
X150232597Y-94728582D01*
X150219290Y-94722288D01*
X150206664Y-94714720D01*
X150194841Y-94705952D01*
X150183934Y-94696066D01*
X150174048Y-94685159D01*
X150165280Y-94673336D01*
X150157712Y-94660710D01*
X150151418Y-94647403D01*
X150146459Y-94633543D01*
X150142882Y-94619264D01*
X150140722Y-94604703D01*
X150140000Y-94590000D01*
X150140000Y-94290000D01*
X150140722Y-94275297D01*
X150142882Y-94260736D01*
X150146459Y-94246457D01*
X150151418Y-94232597D01*
X150157712Y-94219290D01*
X150165280Y-94206664D01*
X150174048Y-94194841D01*
X150183934Y-94183934D01*
X150194841Y-94174048D01*
X150206664Y-94165280D01*
X150219290Y-94157712D01*
X150232597Y-94151418D01*
X150246457Y-94146459D01*
X150260736Y-94142882D01*
X150275297Y-94140722D01*
X150290000Y-94140000D01*
X151940000Y-94140000D01*
X151954703Y-94140722D01*
X151954703Y-94140722D01*
G37*
D17*
X151115000Y-94440000D03*
D13*
G36*
X151954703Y-95410722D02*
G01*
X151969264Y-95412882D01*
X151983543Y-95416459D01*
X151997403Y-95421418D01*
X152010710Y-95427712D01*
X152023336Y-95435280D01*
X152035159Y-95444048D01*
X152046066Y-95453934D01*
X152055952Y-95464841D01*
X152064720Y-95476664D01*
X152072288Y-95489290D01*
X152078582Y-95502597D01*
X152083541Y-95516457D01*
X152087118Y-95530736D01*
X152089278Y-95545297D01*
X152090000Y-95560000D01*
X152090000Y-95860000D01*
X152089278Y-95874703D01*
X152087118Y-95889264D01*
X152083541Y-95903543D01*
X152078582Y-95917403D01*
X152072288Y-95930710D01*
X152064720Y-95943336D01*
X152055952Y-95955159D01*
X152046066Y-95966066D01*
X152035159Y-95975952D01*
X152023336Y-95984720D01*
X152010710Y-95992288D01*
X151997403Y-95998582D01*
X151983543Y-96003541D01*
X151969264Y-96007118D01*
X151954703Y-96009278D01*
X151940000Y-96010000D01*
X150290000Y-96010000D01*
X150275297Y-96009278D01*
X150260736Y-96007118D01*
X150246457Y-96003541D01*
X150232597Y-95998582D01*
X150219290Y-95992288D01*
X150206664Y-95984720D01*
X150194841Y-95975952D01*
X150183934Y-95966066D01*
X150174048Y-95955159D01*
X150165280Y-95943336D01*
X150157712Y-95930710D01*
X150151418Y-95917403D01*
X150146459Y-95903543D01*
X150142882Y-95889264D01*
X150140722Y-95874703D01*
X150140000Y-95860000D01*
X150140000Y-95560000D01*
X150140722Y-95545297D01*
X150142882Y-95530736D01*
X150146459Y-95516457D01*
X150151418Y-95502597D01*
X150157712Y-95489290D01*
X150165280Y-95476664D01*
X150174048Y-95464841D01*
X150183934Y-95453934D01*
X150194841Y-95444048D01*
X150206664Y-95435280D01*
X150219290Y-95427712D01*
X150232597Y-95421418D01*
X150246457Y-95416459D01*
X150260736Y-95412882D01*
X150275297Y-95410722D01*
X150290000Y-95410000D01*
X151940000Y-95410000D01*
X151954703Y-95410722D01*
X151954703Y-95410722D01*
G37*
D17*
X151115000Y-95710000D03*
D13*
G36*
X151954703Y-96680722D02*
G01*
X151969264Y-96682882D01*
X151983543Y-96686459D01*
X151997403Y-96691418D01*
X152010710Y-96697712D01*
X152023336Y-96705280D01*
X152035159Y-96714048D01*
X152046066Y-96723934D01*
X152055952Y-96734841D01*
X152064720Y-96746664D01*
X152072288Y-96759290D01*
X152078582Y-96772597D01*
X152083541Y-96786457D01*
X152087118Y-96800736D01*
X152089278Y-96815297D01*
X152090000Y-96830000D01*
X152090000Y-97130000D01*
X152089278Y-97144703D01*
X152087118Y-97159264D01*
X152083541Y-97173543D01*
X152078582Y-97187403D01*
X152072288Y-97200710D01*
X152064720Y-97213336D01*
X152055952Y-97225159D01*
X152046066Y-97236066D01*
X152035159Y-97245952D01*
X152023336Y-97254720D01*
X152010710Y-97262288D01*
X151997403Y-97268582D01*
X151983543Y-97273541D01*
X151969264Y-97277118D01*
X151954703Y-97279278D01*
X151940000Y-97280000D01*
X150290000Y-97280000D01*
X150275297Y-97279278D01*
X150260736Y-97277118D01*
X150246457Y-97273541D01*
X150232597Y-97268582D01*
X150219290Y-97262288D01*
X150206664Y-97254720D01*
X150194841Y-97245952D01*
X150183934Y-97236066D01*
X150174048Y-97225159D01*
X150165280Y-97213336D01*
X150157712Y-97200710D01*
X150151418Y-97187403D01*
X150146459Y-97173543D01*
X150142882Y-97159264D01*
X150140722Y-97144703D01*
X150140000Y-97130000D01*
X150140000Y-96830000D01*
X150140722Y-96815297D01*
X150142882Y-96800736D01*
X150146459Y-96786457D01*
X150151418Y-96772597D01*
X150157712Y-96759290D01*
X150165280Y-96746664D01*
X150174048Y-96734841D01*
X150183934Y-96723934D01*
X150194841Y-96714048D01*
X150206664Y-96705280D01*
X150219290Y-96697712D01*
X150232597Y-96691418D01*
X150246457Y-96686459D01*
X150260736Y-96682882D01*
X150275297Y-96680722D01*
X150290000Y-96680000D01*
X151940000Y-96680000D01*
X151954703Y-96680722D01*
X151954703Y-96680722D01*
G37*
D17*
X151115000Y-96980000D03*
D13*
G36*
X151954703Y-97950722D02*
G01*
X151969264Y-97952882D01*
X151983543Y-97956459D01*
X151997403Y-97961418D01*
X152010710Y-97967712D01*
X152023336Y-97975280D01*
X152035159Y-97984048D01*
X152046066Y-97993934D01*
X152055952Y-98004841D01*
X152064720Y-98016664D01*
X152072288Y-98029290D01*
X152078582Y-98042597D01*
X152083541Y-98056457D01*
X152087118Y-98070736D01*
X152089278Y-98085297D01*
X152090000Y-98100000D01*
X152090000Y-98400000D01*
X152089278Y-98414703D01*
X152087118Y-98429264D01*
X152083541Y-98443543D01*
X152078582Y-98457403D01*
X152072288Y-98470710D01*
X152064720Y-98483336D01*
X152055952Y-98495159D01*
X152046066Y-98506066D01*
X152035159Y-98515952D01*
X152023336Y-98524720D01*
X152010710Y-98532288D01*
X151997403Y-98538582D01*
X151983543Y-98543541D01*
X151969264Y-98547118D01*
X151954703Y-98549278D01*
X151940000Y-98550000D01*
X150290000Y-98550000D01*
X150275297Y-98549278D01*
X150260736Y-98547118D01*
X150246457Y-98543541D01*
X150232597Y-98538582D01*
X150219290Y-98532288D01*
X150206664Y-98524720D01*
X150194841Y-98515952D01*
X150183934Y-98506066D01*
X150174048Y-98495159D01*
X150165280Y-98483336D01*
X150157712Y-98470710D01*
X150151418Y-98457403D01*
X150146459Y-98443543D01*
X150142882Y-98429264D01*
X150140722Y-98414703D01*
X150140000Y-98400000D01*
X150140000Y-98100000D01*
X150140722Y-98085297D01*
X150142882Y-98070736D01*
X150146459Y-98056457D01*
X150151418Y-98042597D01*
X150157712Y-98029290D01*
X150165280Y-98016664D01*
X150174048Y-98004841D01*
X150183934Y-97993934D01*
X150194841Y-97984048D01*
X150206664Y-97975280D01*
X150219290Y-97967712D01*
X150232597Y-97961418D01*
X150246457Y-97956459D01*
X150260736Y-97952882D01*
X150275297Y-97950722D01*
X150290000Y-97950000D01*
X151940000Y-97950000D01*
X151954703Y-97950722D01*
X151954703Y-97950722D01*
G37*
D17*
X151115000Y-98250000D03*
D13*
G36*
X151954703Y-99220722D02*
G01*
X151969264Y-99222882D01*
X151983543Y-99226459D01*
X151997403Y-99231418D01*
X152010710Y-99237712D01*
X152023336Y-99245280D01*
X152035159Y-99254048D01*
X152046066Y-99263934D01*
X152055952Y-99274841D01*
X152064720Y-99286664D01*
X152072288Y-99299290D01*
X152078582Y-99312597D01*
X152083541Y-99326457D01*
X152087118Y-99340736D01*
X152089278Y-99355297D01*
X152090000Y-99370000D01*
X152090000Y-99670000D01*
X152089278Y-99684703D01*
X152087118Y-99699264D01*
X152083541Y-99713543D01*
X152078582Y-99727403D01*
X152072288Y-99740710D01*
X152064720Y-99753336D01*
X152055952Y-99765159D01*
X152046066Y-99776066D01*
X152035159Y-99785952D01*
X152023336Y-99794720D01*
X152010710Y-99802288D01*
X151997403Y-99808582D01*
X151983543Y-99813541D01*
X151969264Y-99817118D01*
X151954703Y-99819278D01*
X151940000Y-99820000D01*
X150290000Y-99820000D01*
X150275297Y-99819278D01*
X150260736Y-99817118D01*
X150246457Y-99813541D01*
X150232597Y-99808582D01*
X150219290Y-99802288D01*
X150206664Y-99794720D01*
X150194841Y-99785952D01*
X150183934Y-99776066D01*
X150174048Y-99765159D01*
X150165280Y-99753336D01*
X150157712Y-99740710D01*
X150151418Y-99727403D01*
X150146459Y-99713543D01*
X150142882Y-99699264D01*
X150140722Y-99684703D01*
X150140000Y-99670000D01*
X150140000Y-99370000D01*
X150140722Y-99355297D01*
X150142882Y-99340736D01*
X150146459Y-99326457D01*
X150151418Y-99312597D01*
X150157712Y-99299290D01*
X150165280Y-99286664D01*
X150174048Y-99274841D01*
X150183934Y-99263934D01*
X150194841Y-99254048D01*
X150206664Y-99245280D01*
X150219290Y-99237712D01*
X150232597Y-99231418D01*
X150246457Y-99226459D01*
X150260736Y-99222882D01*
X150275297Y-99220722D01*
X150290000Y-99220000D01*
X151940000Y-99220000D01*
X151954703Y-99220722D01*
X151954703Y-99220722D01*
G37*
D17*
X151115000Y-99520000D03*
D13*
G36*
X151954703Y-100490722D02*
G01*
X151969264Y-100492882D01*
X151983543Y-100496459D01*
X151997403Y-100501418D01*
X152010710Y-100507712D01*
X152023336Y-100515280D01*
X152035159Y-100524048D01*
X152046066Y-100533934D01*
X152055952Y-100544841D01*
X152064720Y-100556664D01*
X152072288Y-100569290D01*
X152078582Y-100582597D01*
X152083541Y-100596457D01*
X152087118Y-100610736D01*
X152089278Y-100625297D01*
X152090000Y-100640000D01*
X152090000Y-100940000D01*
X152089278Y-100954703D01*
X152087118Y-100969264D01*
X152083541Y-100983543D01*
X152078582Y-100997403D01*
X152072288Y-101010710D01*
X152064720Y-101023336D01*
X152055952Y-101035159D01*
X152046066Y-101046066D01*
X152035159Y-101055952D01*
X152023336Y-101064720D01*
X152010710Y-101072288D01*
X151997403Y-101078582D01*
X151983543Y-101083541D01*
X151969264Y-101087118D01*
X151954703Y-101089278D01*
X151940000Y-101090000D01*
X150290000Y-101090000D01*
X150275297Y-101089278D01*
X150260736Y-101087118D01*
X150246457Y-101083541D01*
X150232597Y-101078582D01*
X150219290Y-101072288D01*
X150206664Y-101064720D01*
X150194841Y-101055952D01*
X150183934Y-101046066D01*
X150174048Y-101035159D01*
X150165280Y-101023336D01*
X150157712Y-101010710D01*
X150151418Y-100997403D01*
X150146459Y-100983543D01*
X150142882Y-100969264D01*
X150140722Y-100954703D01*
X150140000Y-100940000D01*
X150140000Y-100640000D01*
X150140722Y-100625297D01*
X150142882Y-100610736D01*
X150146459Y-100596457D01*
X150151418Y-100582597D01*
X150157712Y-100569290D01*
X150165280Y-100556664D01*
X150174048Y-100544841D01*
X150183934Y-100533934D01*
X150194841Y-100524048D01*
X150206664Y-100515280D01*
X150219290Y-100507712D01*
X150232597Y-100501418D01*
X150246457Y-100496459D01*
X150260736Y-100492882D01*
X150275297Y-100490722D01*
X150290000Y-100490000D01*
X151940000Y-100490000D01*
X151954703Y-100490722D01*
X151954703Y-100490722D01*
G37*
D17*
X151115000Y-100790000D03*
D13*
G36*
X156904703Y-100490722D02*
G01*
X156919264Y-100492882D01*
X156933543Y-100496459D01*
X156947403Y-100501418D01*
X156960710Y-100507712D01*
X156973336Y-100515280D01*
X156985159Y-100524048D01*
X156996066Y-100533934D01*
X157005952Y-100544841D01*
X157014720Y-100556664D01*
X157022288Y-100569290D01*
X157028582Y-100582597D01*
X157033541Y-100596457D01*
X157037118Y-100610736D01*
X157039278Y-100625297D01*
X157040000Y-100640000D01*
X157040000Y-100940000D01*
X157039278Y-100954703D01*
X157037118Y-100969264D01*
X157033541Y-100983543D01*
X157028582Y-100997403D01*
X157022288Y-101010710D01*
X157014720Y-101023336D01*
X157005952Y-101035159D01*
X156996066Y-101046066D01*
X156985159Y-101055952D01*
X156973336Y-101064720D01*
X156960710Y-101072288D01*
X156947403Y-101078582D01*
X156933543Y-101083541D01*
X156919264Y-101087118D01*
X156904703Y-101089278D01*
X156890000Y-101090000D01*
X155240000Y-101090000D01*
X155225297Y-101089278D01*
X155210736Y-101087118D01*
X155196457Y-101083541D01*
X155182597Y-101078582D01*
X155169290Y-101072288D01*
X155156664Y-101064720D01*
X155144841Y-101055952D01*
X155133934Y-101046066D01*
X155124048Y-101035159D01*
X155115280Y-101023336D01*
X155107712Y-101010710D01*
X155101418Y-100997403D01*
X155096459Y-100983543D01*
X155092882Y-100969264D01*
X155090722Y-100954703D01*
X155090000Y-100940000D01*
X155090000Y-100640000D01*
X155090722Y-100625297D01*
X155092882Y-100610736D01*
X155096459Y-100596457D01*
X155101418Y-100582597D01*
X155107712Y-100569290D01*
X155115280Y-100556664D01*
X155124048Y-100544841D01*
X155133934Y-100533934D01*
X155144841Y-100524048D01*
X155156664Y-100515280D01*
X155169290Y-100507712D01*
X155182597Y-100501418D01*
X155196457Y-100496459D01*
X155210736Y-100492882D01*
X155225297Y-100490722D01*
X155240000Y-100490000D01*
X156890000Y-100490000D01*
X156904703Y-100490722D01*
X156904703Y-100490722D01*
G37*
D17*
X156065000Y-100790000D03*
D13*
G36*
X156904703Y-99220722D02*
G01*
X156919264Y-99222882D01*
X156933543Y-99226459D01*
X156947403Y-99231418D01*
X156960710Y-99237712D01*
X156973336Y-99245280D01*
X156985159Y-99254048D01*
X156996066Y-99263934D01*
X157005952Y-99274841D01*
X157014720Y-99286664D01*
X157022288Y-99299290D01*
X157028582Y-99312597D01*
X157033541Y-99326457D01*
X157037118Y-99340736D01*
X157039278Y-99355297D01*
X157040000Y-99370000D01*
X157040000Y-99670000D01*
X157039278Y-99684703D01*
X157037118Y-99699264D01*
X157033541Y-99713543D01*
X157028582Y-99727403D01*
X157022288Y-99740710D01*
X157014720Y-99753336D01*
X157005952Y-99765159D01*
X156996066Y-99776066D01*
X156985159Y-99785952D01*
X156973336Y-99794720D01*
X156960710Y-99802288D01*
X156947403Y-99808582D01*
X156933543Y-99813541D01*
X156919264Y-99817118D01*
X156904703Y-99819278D01*
X156890000Y-99820000D01*
X155240000Y-99820000D01*
X155225297Y-99819278D01*
X155210736Y-99817118D01*
X155196457Y-99813541D01*
X155182597Y-99808582D01*
X155169290Y-99802288D01*
X155156664Y-99794720D01*
X155144841Y-99785952D01*
X155133934Y-99776066D01*
X155124048Y-99765159D01*
X155115280Y-99753336D01*
X155107712Y-99740710D01*
X155101418Y-99727403D01*
X155096459Y-99713543D01*
X155092882Y-99699264D01*
X155090722Y-99684703D01*
X155090000Y-99670000D01*
X155090000Y-99370000D01*
X155090722Y-99355297D01*
X155092882Y-99340736D01*
X155096459Y-99326457D01*
X155101418Y-99312597D01*
X155107712Y-99299290D01*
X155115280Y-99286664D01*
X155124048Y-99274841D01*
X155133934Y-99263934D01*
X155144841Y-99254048D01*
X155156664Y-99245280D01*
X155169290Y-99237712D01*
X155182597Y-99231418D01*
X155196457Y-99226459D01*
X155210736Y-99222882D01*
X155225297Y-99220722D01*
X155240000Y-99220000D01*
X156890000Y-99220000D01*
X156904703Y-99220722D01*
X156904703Y-99220722D01*
G37*
D17*
X156065000Y-99520000D03*
D13*
G36*
X156904703Y-97950722D02*
G01*
X156919264Y-97952882D01*
X156933543Y-97956459D01*
X156947403Y-97961418D01*
X156960710Y-97967712D01*
X156973336Y-97975280D01*
X156985159Y-97984048D01*
X156996066Y-97993934D01*
X157005952Y-98004841D01*
X157014720Y-98016664D01*
X157022288Y-98029290D01*
X157028582Y-98042597D01*
X157033541Y-98056457D01*
X157037118Y-98070736D01*
X157039278Y-98085297D01*
X157040000Y-98100000D01*
X157040000Y-98400000D01*
X157039278Y-98414703D01*
X157037118Y-98429264D01*
X157033541Y-98443543D01*
X157028582Y-98457403D01*
X157022288Y-98470710D01*
X157014720Y-98483336D01*
X157005952Y-98495159D01*
X156996066Y-98506066D01*
X156985159Y-98515952D01*
X156973336Y-98524720D01*
X156960710Y-98532288D01*
X156947403Y-98538582D01*
X156933543Y-98543541D01*
X156919264Y-98547118D01*
X156904703Y-98549278D01*
X156890000Y-98550000D01*
X155240000Y-98550000D01*
X155225297Y-98549278D01*
X155210736Y-98547118D01*
X155196457Y-98543541D01*
X155182597Y-98538582D01*
X155169290Y-98532288D01*
X155156664Y-98524720D01*
X155144841Y-98515952D01*
X155133934Y-98506066D01*
X155124048Y-98495159D01*
X155115280Y-98483336D01*
X155107712Y-98470710D01*
X155101418Y-98457403D01*
X155096459Y-98443543D01*
X155092882Y-98429264D01*
X155090722Y-98414703D01*
X155090000Y-98400000D01*
X155090000Y-98100000D01*
X155090722Y-98085297D01*
X155092882Y-98070736D01*
X155096459Y-98056457D01*
X155101418Y-98042597D01*
X155107712Y-98029290D01*
X155115280Y-98016664D01*
X155124048Y-98004841D01*
X155133934Y-97993934D01*
X155144841Y-97984048D01*
X155156664Y-97975280D01*
X155169290Y-97967712D01*
X155182597Y-97961418D01*
X155196457Y-97956459D01*
X155210736Y-97952882D01*
X155225297Y-97950722D01*
X155240000Y-97950000D01*
X156890000Y-97950000D01*
X156904703Y-97950722D01*
X156904703Y-97950722D01*
G37*
D17*
X156065000Y-98250000D03*
D13*
G36*
X156904703Y-96680722D02*
G01*
X156919264Y-96682882D01*
X156933543Y-96686459D01*
X156947403Y-96691418D01*
X156960710Y-96697712D01*
X156973336Y-96705280D01*
X156985159Y-96714048D01*
X156996066Y-96723934D01*
X157005952Y-96734841D01*
X157014720Y-96746664D01*
X157022288Y-96759290D01*
X157028582Y-96772597D01*
X157033541Y-96786457D01*
X157037118Y-96800736D01*
X157039278Y-96815297D01*
X157040000Y-96830000D01*
X157040000Y-97130000D01*
X157039278Y-97144703D01*
X157037118Y-97159264D01*
X157033541Y-97173543D01*
X157028582Y-97187403D01*
X157022288Y-97200710D01*
X157014720Y-97213336D01*
X157005952Y-97225159D01*
X156996066Y-97236066D01*
X156985159Y-97245952D01*
X156973336Y-97254720D01*
X156960710Y-97262288D01*
X156947403Y-97268582D01*
X156933543Y-97273541D01*
X156919264Y-97277118D01*
X156904703Y-97279278D01*
X156890000Y-97280000D01*
X155240000Y-97280000D01*
X155225297Y-97279278D01*
X155210736Y-97277118D01*
X155196457Y-97273541D01*
X155182597Y-97268582D01*
X155169290Y-97262288D01*
X155156664Y-97254720D01*
X155144841Y-97245952D01*
X155133934Y-97236066D01*
X155124048Y-97225159D01*
X155115280Y-97213336D01*
X155107712Y-97200710D01*
X155101418Y-97187403D01*
X155096459Y-97173543D01*
X155092882Y-97159264D01*
X155090722Y-97144703D01*
X155090000Y-97130000D01*
X155090000Y-96830000D01*
X155090722Y-96815297D01*
X155092882Y-96800736D01*
X155096459Y-96786457D01*
X155101418Y-96772597D01*
X155107712Y-96759290D01*
X155115280Y-96746664D01*
X155124048Y-96734841D01*
X155133934Y-96723934D01*
X155144841Y-96714048D01*
X155156664Y-96705280D01*
X155169290Y-96697712D01*
X155182597Y-96691418D01*
X155196457Y-96686459D01*
X155210736Y-96682882D01*
X155225297Y-96680722D01*
X155240000Y-96680000D01*
X156890000Y-96680000D01*
X156904703Y-96680722D01*
X156904703Y-96680722D01*
G37*
D17*
X156065000Y-96980000D03*
D13*
G36*
X156904703Y-95410722D02*
G01*
X156919264Y-95412882D01*
X156933543Y-95416459D01*
X156947403Y-95421418D01*
X156960710Y-95427712D01*
X156973336Y-95435280D01*
X156985159Y-95444048D01*
X156996066Y-95453934D01*
X157005952Y-95464841D01*
X157014720Y-95476664D01*
X157022288Y-95489290D01*
X157028582Y-95502597D01*
X157033541Y-95516457D01*
X157037118Y-95530736D01*
X157039278Y-95545297D01*
X157040000Y-95560000D01*
X157040000Y-95860000D01*
X157039278Y-95874703D01*
X157037118Y-95889264D01*
X157033541Y-95903543D01*
X157028582Y-95917403D01*
X157022288Y-95930710D01*
X157014720Y-95943336D01*
X157005952Y-95955159D01*
X156996066Y-95966066D01*
X156985159Y-95975952D01*
X156973336Y-95984720D01*
X156960710Y-95992288D01*
X156947403Y-95998582D01*
X156933543Y-96003541D01*
X156919264Y-96007118D01*
X156904703Y-96009278D01*
X156890000Y-96010000D01*
X155240000Y-96010000D01*
X155225297Y-96009278D01*
X155210736Y-96007118D01*
X155196457Y-96003541D01*
X155182597Y-95998582D01*
X155169290Y-95992288D01*
X155156664Y-95984720D01*
X155144841Y-95975952D01*
X155133934Y-95966066D01*
X155124048Y-95955159D01*
X155115280Y-95943336D01*
X155107712Y-95930710D01*
X155101418Y-95917403D01*
X155096459Y-95903543D01*
X155092882Y-95889264D01*
X155090722Y-95874703D01*
X155090000Y-95860000D01*
X155090000Y-95560000D01*
X155090722Y-95545297D01*
X155092882Y-95530736D01*
X155096459Y-95516457D01*
X155101418Y-95502597D01*
X155107712Y-95489290D01*
X155115280Y-95476664D01*
X155124048Y-95464841D01*
X155133934Y-95453934D01*
X155144841Y-95444048D01*
X155156664Y-95435280D01*
X155169290Y-95427712D01*
X155182597Y-95421418D01*
X155196457Y-95416459D01*
X155210736Y-95412882D01*
X155225297Y-95410722D01*
X155240000Y-95410000D01*
X156890000Y-95410000D01*
X156904703Y-95410722D01*
X156904703Y-95410722D01*
G37*
D17*
X156065000Y-95710000D03*
D13*
G36*
X156904703Y-94140722D02*
G01*
X156919264Y-94142882D01*
X156933543Y-94146459D01*
X156947403Y-94151418D01*
X156960710Y-94157712D01*
X156973336Y-94165280D01*
X156985159Y-94174048D01*
X156996066Y-94183934D01*
X157005952Y-94194841D01*
X157014720Y-94206664D01*
X157022288Y-94219290D01*
X157028582Y-94232597D01*
X157033541Y-94246457D01*
X157037118Y-94260736D01*
X157039278Y-94275297D01*
X157040000Y-94290000D01*
X157040000Y-94590000D01*
X157039278Y-94604703D01*
X157037118Y-94619264D01*
X157033541Y-94633543D01*
X157028582Y-94647403D01*
X157022288Y-94660710D01*
X157014720Y-94673336D01*
X157005952Y-94685159D01*
X156996066Y-94696066D01*
X156985159Y-94705952D01*
X156973336Y-94714720D01*
X156960710Y-94722288D01*
X156947403Y-94728582D01*
X156933543Y-94733541D01*
X156919264Y-94737118D01*
X156904703Y-94739278D01*
X156890000Y-94740000D01*
X155240000Y-94740000D01*
X155225297Y-94739278D01*
X155210736Y-94737118D01*
X155196457Y-94733541D01*
X155182597Y-94728582D01*
X155169290Y-94722288D01*
X155156664Y-94714720D01*
X155144841Y-94705952D01*
X155133934Y-94696066D01*
X155124048Y-94685159D01*
X155115280Y-94673336D01*
X155107712Y-94660710D01*
X155101418Y-94647403D01*
X155096459Y-94633543D01*
X155092882Y-94619264D01*
X155090722Y-94604703D01*
X155090000Y-94590000D01*
X155090000Y-94290000D01*
X155090722Y-94275297D01*
X155092882Y-94260736D01*
X155096459Y-94246457D01*
X155101418Y-94232597D01*
X155107712Y-94219290D01*
X155115280Y-94206664D01*
X155124048Y-94194841D01*
X155133934Y-94183934D01*
X155144841Y-94174048D01*
X155156664Y-94165280D01*
X155169290Y-94157712D01*
X155182597Y-94151418D01*
X155196457Y-94146459D01*
X155210736Y-94142882D01*
X155225297Y-94140722D01*
X155240000Y-94140000D01*
X156890000Y-94140000D01*
X156904703Y-94140722D01*
X156904703Y-94140722D01*
G37*
D17*
X156065000Y-94440000D03*
D13*
G36*
X156904703Y-92870722D02*
G01*
X156919264Y-92872882D01*
X156933543Y-92876459D01*
X156947403Y-92881418D01*
X156960710Y-92887712D01*
X156973336Y-92895280D01*
X156985159Y-92904048D01*
X156996066Y-92913934D01*
X157005952Y-92924841D01*
X157014720Y-92936664D01*
X157022288Y-92949290D01*
X157028582Y-92962597D01*
X157033541Y-92976457D01*
X157037118Y-92990736D01*
X157039278Y-93005297D01*
X157040000Y-93020000D01*
X157040000Y-93320000D01*
X157039278Y-93334703D01*
X157037118Y-93349264D01*
X157033541Y-93363543D01*
X157028582Y-93377403D01*
X157022288Y-93390710D01*
X157014720Y-93403336D01*
X157005952Y-93415159D01*
X156996066Y-93426066D01*
X156985159Y-93435952D01*
X156973336Y-93444720D01*
X156960710Y-93452288D01*
X156947403Y-93458582D01*
X156933543Y-93463541D01*
X156919264Y-93467118D01*
X156904703Y-93469278D01*
X156890000Y-93470000D01*
X155240000Y-93470000D01*
X155225297Y-93469278D01*
X155210736Y-93467118D01*
X155196457Y-93463541D01*
X155182597Y-93458582D01*
X155169290Y-93452288D01*
X155156664Y-93444720D01*
X155144841Y-93435952D01*
X155133934Y-93426066D01*
X155124048Y-93415159D01*
X155115280Y-93403336D01*
X155107712Y-93390710D01*
X155101418Y-93377403D01*
X155096459Y-93363543D01*
X155092882Y-93349264D01*
X155090722Y-93334703D01*
X155090000Y-93320000D01*
X155090000Y-93020000D01*
X155090722Y-93005297D01*
X155092882Y-92990736D01*
X155096459Y-92976457D01*
X155101418Y-92962597D01*
X155107712Y-92949290D01*
X155115280Y-92936664D01*
X155124048Y-92924841D01*
X155133934Y-92913934D01*
X155144841Y-92904048D01*
X155156664Y-92895280D01*
X155169290Y-92887712D01*
X155182597Y-92881418D01*
X155196457Y-92876459D01*
X155210736Y-92872882D01*
X155225297Y-92870722D01*
X155240000Y-92870000D01*
X156890000Y-92870000D01*
X156904703Y-92870722D01*
X156904703Y-92870722D01*
G37*
D17*
X156065000Y-93170000D03*
D22*
X183040000Y-93780000D03*
X183040000Y-98880000D03*
D13*
G36*
X167780191Y-87906053D02*
G01*
X167801426Y-87909203D01*
X167822250Y-87914419D01*
X167842462Y-87921651D01*
X167861868Y-87930830D01*
X167880281Y-87941866D01*
X167897524Y-87954654D01*
X167913430Y-87969070D01*
X167927846Y-87984976D01*
X167940634Y-88002219D01*
X167951670Y-88020632D01*
X167960849Y-88040038D01*
X167968081Y-88060250D01*
X167973297Y-88081074D01*
X167976447Y-88102309D01*
X167977500Y-88123750D01*
X167977500Y-88636250D01*
X167976447Y-88657691D01*
X167973297Y-88678926D01*
X167968081Y-88699750D01*
X167960849Y-88719962D01*
X167951670Y-88739368D01*
X167940634Y-88757781D01*
X167927846Y-88775024D01*
X167913430Y-88790930D01*
X167897524Y-88805346D01*
X167880281Y-88818134D01*
X167861868Y-88829170D01*
X167842462Y-88838349D01*
X167822250Y-88845581D01*
X167801426Y-88850797D01*
X167780191Y-88853947D01*
X167758750Y-88855000D01*
X167321250Y-88855000D01*
X167299809Y-88853947D01*
X167278574Y-88850797D01*
X167257750Y-88845581D01*
X167237538Y-88838349D01*
X167218132Y-88829170D01*
X167199719Y-88818134D01*
X167182476Y-88805346D01*
X167166570Y-88790930D01*
X167152154Y-88775024D01*
X167139366Y-88757781D01*
X167128330Y-88739368D01*
X167119151Y-88719962D01*
X167111919Y-88699750D01*
X167106703Y-88678926D01*
X167103553Y-88657691D01*
X167102500Y-88636250D01*
X167102500Y-88123750D01*
X167103553Y-88102309D01*
X167106703Y-88081074D01*
X167111919Y-88060250D01*
X167119151Y-88040038D01*
X167128330Y-88020632D01*
X167139366Y-88002219D01*
X167152154Y-87984976D01*
X167166570Y-87969070D01*
X167182476Y-87954654D01*
X167199719Y-87941866D01*
X167218132Y-87930830D01*
X167237538Y-87921651D01*
X167257750Y-87914419D01*
X167278574Y-87909203D01*
X167299809Y-87906053D01*
X167321250Y-87905000D01*
X167758750Y-87905000D01*
X167780191Y-87906053D01*
X167780191Y-87906053D01*
G37*
D16*
X167540000Y-88380000D03*
D13*
G36*
X166205191Y-87906053D02*
G01*
X166226426Y-87909203D01*
X166247250Y-87914419D01*
X166267462Y-87921651D01*
X166286868Y-87930830D01*
X166305281Y-87941866D01*
X166322524Y-87954654D01*
X166338430Y-87969070D01*
X166352846Y-87984976D01*
X166365634Y-88002219D01*
X166376670Y-88020632D01*
X166385849Y-88040038D01*
X166393081Y-88060250D01*
X166398297Y-88081074D01*
X166401447Y-88102309D01*
X166402500Y-88123750D01*
X166402500Y-88636250D01*
X166401447Y-88657691D01*
X166398297Y-88678926D01*
X166393081Y-88699750D01*
X166385849Y-88719962D01*
X166376670Y-88739368D01*
X166365634Y-88757781D01*
X166352846Y-88775024D01*
X166338430Y-88790930D01*
X166322524Y-88805346D01*
X166305281Y-88818134D01*
X166286868Y-88829170D01*
X166267462Y-88838349D01*
X166247250Y-88845581D01*
X166226426Y-88850797D01*
X166205191Y-88853947D01*
X166183750Y-88855000D01*
X165746250Y-88855000D01*
X165724809Y-88853947D01*
X165703574Y-88850797D01*
X165682750Y-88845581D01*
X165662538Y-88838349D01*
X165643132Y-88829170D01*
X165624719Y-88818134D01*
X165607476Y-88805346D01*
X165591570Y-88790930D01*
X165577154Y-88775024D01*
X165564366Y-88757781D01*
X165553330Y-88739368D01*
X165544151Y-88719962D01*
X165536919Y-88699750D01*
X165531703Y-88678926D01*
X165528553Y-88657691D01*
X165527500Y-88636250D01*
X165527500Y-88123750D01*
X165528553Y-88102309D01*
X165531703Y-88081074D01*
X165536919Y-88060250D01*
X165544151Y-88040038D01*
X165553330Y-88020632D01*
X165564366Y-88002219D01*
X165577154Y-87984976D01*
X165591570Y-87969070D01*
X165607476Y-87954654D01*
X165624719Y-87941866D01*
X165643132Y-87930830D01*
X165662538Y-87921651D01*
X165682750Y-87914419D01*
X165703574Y-87909203D01*
X165724809Y-87906053D01*
X165746250Y-87905000D01*
X166183750Y-87905000D01*
X166205191Y-87906053D01*
X166205191Y-87906053D01*
G37*
D16*
X165965000Y-88380000D03*
D23*
X119390000Y-97330000D03*
X119390000Y-99430000D03*
D13*
G36*
X163867691Y-96556053D02*
G01*
X163888926Y-96559203D01*
X163909750Y-96564419D01*
X163929962Y-96571651D01*
X163949368Y-96580830D01*
X163967781Y-96591866D01*
X163985024Y-96604654D01*
X164000930Y-96619070D01*
X164015346Y-96634976D01*
X164028134Y-96652219D01*
X164039170Y-96670632D01*
X164048349Y-96690038D01*
X164055581Y-96710250D01*
X164060797Y-96731074D01*
X164063947Y-96752309D01*
X164065000Y-96773750D01*
X164065000Y-97211250D01*
X164063947Y-97232691D01*
X164060797Y-97253926D01*
X164055581Y-97274750D01*
X164048349Y-97294962D01*
X164039170Y-97314368D01*
X164028134Y-97332781D01*
X164015346Y-97350024D01*
X164000930Y-97365930D01*
X163985024Y-97380346D01*
X163967781Y-97393134D01*
X163949368Y-97404170D01*
X163929962Y-97413349D01*
X163909750Y-97420581D01*
X163888926Y-97425797D01*
X163867691Y-97428947D01*
X163846250Y-97430000D01*
X163333750Y-97430000D01*
X163312309Y-97428947D01*
X163291074Y-97425797D01*
X163270250Y-97420581D01*
X163250038Y-97413349D01*
X163230632Y-97404170D01*
X163212219Y-97393134D01*
X163194976Y-97380346D01*
X163179070Y-97365930D01*
X163164654Y-97350024D01*
X163151866Y-97332781D01*
X163140830Y-97314368D01*
X163131651Y-97294962D01*
X163124419Y-97274750D01*
X163119203Y-97253926D01*
X163116053Y-97232691D01*
X163115000Y-97211250D01*
X163115000Y-96773750D01*
X163116053Y-96752309D01*
X163119203Y-96731074D01*
X163124419Y-96710250D01*
X163131651Y-96690038D01*
X163140830Y-96670632D01*
X163151866Y-96652219D01*
X163164654Y-96634976D01*
X163179070Y-96619070D01*
X163194976Y-96604654D01*
X163212219Y-96591866D01*
X163230632Y-96580830D01*
X163250038Y-96571651D01*
X163270250Y-96564419D01*
X163291074Y-96559203D01*
X163312309Y-96556053D01*
X163333750Y-96555000D01*
X163846250Y-96555000D01*
X163867691Y-96556053D01*
X163867691Y-96556053D01*
G37*
D16*
X163590000Y-96992500D03*
D13*
G36*
X163867691Y-98131053D02*
G01*
X163888926Y-98134203D01*
X163909750Y-98139419D01*
X163929962Y-98146651D01*
X163949368Y-98155830D01*
X163967781Y-98166866D01*
X163985024Y-98179654D01*
X164000930Y-98194070D01*
X164015346Y-98209976D01*
X164028134Y-98227219D01*
X164039170Y-98245632D01*
X164048349Y-98265038D01*
X164055581Y-98285250D01*
X164060797Y-98306074D01*
X164063947Y-98327309D01*
X164065000Y-98348750D01*
X164065000Y-98786250D01*
X164063947Y-98807691D01*
X164060797Y-98828926D01*
X164055581Y-98849750D01*
X164048349Y-98869962D01*
X164039170Y-98889368D01*
X164028134Y-98907781D01*
X164015346Y-98925024D01*
X164000930Y-98940930D01*
X163985024Y-98955346D01*
X163967781Y-98968134D01*
X163949368Y-98979170D01*
X163929962Y-98988349D01*
X163909750Y-98995581D01*
X163888926Y-99000797D01*
X163867691Y-99003947D01*
X163846250Y-99005000D01*
X163333750Y-99005000D01*
X163312309Y-99003947D01*
X163291074Y-99000797D01*
X163270250Y-98995581D01*
X163250038Y-98988349D01*
X163230632Y-98979170D01*
X163212219Y-98968134D01*
X163194976Y-98955346D01*
X163179070Y-98940930D01*
X163164654Y-98925024D01*
X163151866Y-98907781D01*
X163140830Y-98889368D01*
X163131651Y-98869962D01*
X163124419Y-98849750D01*
X163119203Y-98828926D01*
X163116053Y-98807691D01*
X163115000Y-98786250D01*
X163115000Y-98348750D01*
X163116053Y-98327309D01*
X163119203Y-98306074D01*
X163124419Y-98285250D01*
X163131651Y-98265038D01*
X163140830Y-98245632D01*
X163151866Y-98227219D01*
X163164654Y-98209976D01*
X163179070Y-98194070D01*
X163194976Y-98179654D01*
X163212219Y-98166866D01*
X163230632Y-98155830D01*
X163250038Y-98146651D01*
X163270250Y-98139419D01*
X163291074Y-98134203D01*
X163312309Y-98131053D01*
X163333750Y-98130000D01*
X163846250Y-98130000D01*
X163867691Y-98131053D01*
X163867691Y-98131053D01*
G37*
D16*
X163590000Y-98567500D03*
D13*
G36*
X159667691Y-100318553D02*
G01*
X159688926Y-100321703D01*
X159709750Y-100326919D01*
X159729962Y-100334151D01*
X159749368Y-100343330D01*
X159767781Y-100354366D01*
X159785024Y-100367154D01*
X159800930Y-100381570D01*
X159815346Y-100397476D01*
X159828134Y-100414719D01*
X159839170Y-100433132D01*
X159848349Y-100452538D01*
X159855581Y-100472750D01*
X159860797Y-100493574D01*
X159863947Y-100514809D01*
X159865000Y-100536250D01*
X159865000Y-100973750D01*
X159863947Y-100995191D01*
X159860797Y-101016426D01*
X159855581Y-101037250D01*
X159848349Y-101057462D01*
X159839170Y-101076868D01*
X159828134Y-101095281D01*
X159815346Y-101112524D01*
X159800930Y-101128430D01*
X159785024Y-101142846D01*
X159767781Y-101155634D01*
X159749368Y-101166670D01*
X159729962Y-101175849D01*
X159709750Y-101183081D01*
X159688926Y-101188297D01*
X159667691Y-101191447D01*
X159646250Y-101192500D01*
X159133750Y-101192500D01*
X159112309Y-101191447D01*
X159091074Y-101188297D01*
X159070250Y-101183081D01*
X159050038Y-101175849D01*
X159030632Y-101166670D01*
X159012219Y-101155634D01*
X158994976Y-101142846D01*
X158979070Y-101128430D01*
X158964654Y-101112524D01*
X158951866Y-101095281D01*
X158940830Y-101076868D01*
X158931651Y-101057462D01*
X158924419Y-101037250D01*
X158919203Y-101016426D01*
X158916053Y-100995191D01*
X158915000Y-100973750D01*
X158915000Y-100536250D01*
X158916053Y-100514809D01*
X158919203Y-100493574D01*
X158924419Y-100472750D01*
X158931651Y-100452538D01*
X158940830Y-100433132D01*
X158951866Y-100414719D01*
X158964654Y-100397476D01*
X158979070Y-100381570D01*
X158994976Y-100367154D01*
X159012219Y-100354366D01*
X159030632Y-100343330D01*
X159050038Y-100334151D01*
X159070250Y-100326919D01*
X159091074Y-100321703D01*
X159112309Y-100318553D01*
X159133750Y-100317500D01*
X159646250Y-100317500D01*
X159667691Y-100318553D01*
X159667691Y-100318553D01*
G37*
D16*
X159390000Y-100755000D03*
D13*
G36*
X159667691Y-98743553D02*
G01*
X159688926Y-98746703D01*
X159709750Y-98751919D01*
X159729962Y-98759151D01*
X159749368Y-98768330D01*
X159767781Y-98779366D01*
X159785024Y-98792154D01*
X159800930Y-98806570D01*
X159815346Y-98822476D01*
X159828134Y-98839719D01*
X159839170Y-98858132D01*
X159848349Y-98877538D01*
X159855581Y-98897750D01*
X159860797Y-98918574D01*
X159863947Y-98939809D01*
X159865000Y-98961250D01*
X159865000Y-99398750D01*
X159863947Y-99420191D01*
X159860797Y-99441426D01*
X159855581Y-99462250D01*
X159848349Y-99482462D01*
X159839170Y-99501868D01*
X159828134Y-99520281D01*
X159815346Y-99537524D01*
X159800930Y-99553430D01*
X159785024Y-99567846D01*
X159767781Y-99580634D01*
X159749368Y-99591670D01*
X159729962Y-99600849D01*
X159709750Y-99608081D01*
X159688926Y-99613297D01*
X159667691Y-99616447D01*
X159646250Y-99617500D01*
X159133750Y-99617500D01*
X159112309Y-99616447D01*
X159091074Y-99613297D01*
X159070250Y-99608081D01*
X159050038Y-99600849D01*
X159030632Y-99591670D01*
X159012219Y-99580634D01*
X158994976Y-99567846D01*
X158979070Y-99553430D01*
X158964654Y-99537524D01*
X158951866Y-99520281D01*
X158940830Y-99501868D01*
X158931651Y-99482462D01*
X158924419Y-99462250D01*
X158919203Y-99441426D01*
X158916053Y-99420191D01*
X158915000Y-99398750D01*
X158915000Y-98961250D01*
X158916053Y-98939809D01*
X158919203Y-98918574D01*
X158924419Y-98897750D01*
X158931651Y-98877538D01*
X158940830Y-98858132D01*
X158951866Y-98839719D01*
X158964654Y-98822476D01*
X158979070Y-98806570D01*
X158994976Y-98792154D01*
X159012219Y-98779366D01*
X159030632Y-98768330D01*
X159050038Y-98759151D01*
X159070250Y-98751919D01*
X159091074Y-98746703D01*
X159112309Y-98743553D01*
X159133750Y-98742500D01*
X159646250Y-98742500D01*
X159667691Y-98743553D01*
X159667691Y-98743553D01*
G37*
D16*
X159390000Y-99180000D03*
D13*
G36*
X114242691Y-106906053D02*
G01*
X114263926Y-106909203D01*
X114284750Y-106914419D01*
X114304962Y-106921651D01*
X114324368Y-106930830D01*
X114342781Y-106941866D01*
X114360024Y-106954654D01*
X114375930Y-106969070D01*
X114390346Y-106984976D01*
X114403134Y-107002219D01*
X114414170Y-107020632D01*
X114423349Y-107040038D01*
X114430581Y-107060250D01*
X114435797Y-107081074D01*
X114438947Y-107102309D01*
X114440000Y-107123750D01*
X114440000Y-107636250D01*
X114438947Y-107657691D01*
X114435797Y-107678926D01*
X114430581Y-107699750D01*
X114423349Y-107719962D01*
X114414170Y-107739368D01*
X114403134Y-107757781D01*
X114390346Y-107775024D01*
X114375930Y-107790930D01*
X114360024Y-107805346D01*
X114342781Y-107818134D01*
X114324368Y-107829170D01*
X114304962Y-107838349D01*
X114284750Y-107845581D01*
X114263926Y-107850797D01*
X114242691Y-107853947D01*
X114221250Y-107855000D01*
X113783750Y-107855000D01*
X113762309Y-107853947D01*
X113741074Y-107850797D01*
X113720250Y-107845581D01*
X113700038Y-107838349D01*
X113680632Y-107829170D01*
X113662219Y-107818134D01*
X113644976Y-107805346D01*
X113629070Y-107790930D01*
X113614654Y-107775024D01*
X113601866Y-107757781D01*
X113590830Y-107739368D01*
X113581651Y-107719962D01*
X113574419Y-107699750D01*
X113569203Y-107678926D01*
X113566053Y-107657691D01*
X113565000Y-107636250D01*
X113565000Y-107123750D01*
X113566053Y-107102309D01*
X113569203Y-107081074D01*
X113574419Y-107060250D01*
X113581651Y-107040038D01*
X113590830Y-107020632D01*
X113601866Y-107002219D01*
X113614654Y-106984976D01*
X113629070Y-106969070D01*
X113644976Y-106954654D01*
X113662219Y-106941866D01*
X113680632Y-106930830D01*
X113700038Y-106921651D01*
X113720250Y-106914419D01*
X113741074Y-106909203D01*
X113762309Y-106906053D01*
X113783750Y-106905000D01*
X114221250Y-106905000D01*
X114242691Y-106906053D01*
X114242691Y-106906053D01*
G37*
D16*
X114002500Y-107380000D03*
D13*
G36*
X115817691Y-106906053D02*
G01*
X115838926Y-106909203D01*
X115859750Y-106914419D01*
X115879962Y-106921651D01*
X115899368Y-106930830D01*
X115917781Y-106941866D01*
X115935024Y-106954654D01*
X115950930Y-106969070D01*
X115965346Y-106984976D01*
X115978134Y-107002219D01*
X115989170Y-107020632D01*
X115998349Y-107040038D01*
X116005581Y-107060250D01*
X116010797Y-107081074D01*
X116013947Y-107102309D01*
X116015000Y-107123750D01*
X116015000Y-107636250D01*
X116013947Y-107657691D01*
X116010797Y-107678926D01*
X116005581Y-107699750D01*
X115998349Y-107719962D01*
X115989170Y-107739368D01*
X115978134Y-107757781D01*
X115965346Y-107775024D01*
X115950930Y-107790930D01*
X115935024Y-107805346D01*
X115917781Y-107818134D01*
X115899368Y-107829170D01*
X115879962Y-107838349D01*
X115859750Y-107845581D01*
X115838926Y-107850797D01*
X115817691Y-107853947D01*
X115796250Y-107855000D01*
X115358750Y-107855000D01*
X115337309Y-107853947D01*
X115316074Y-107850797D01*
X115295250Y-107845581D01*
X115275038Y-107838349D01*
X115255632Y-107829170D01*
X115237219Y-107818134D01*
X115219976Y-107805346D01*
X115204070Y-107790930D01*
X115189654Y-107775024D01*
X115176866Y-107757781D01*
X115165830Y-107739368D01*
X115156651Y-107719962D01*
X115149419Y-107699750D01*
X115144203Y-107678926D01*
X115141053Y-107657691D01*
X115140000Y-107636250D01*
X115140000Y-107123750D01*
X115141053Y-107102309D01*
X115144203Y-107081074D01*
X115149419Y-107060250D01*
X115156651Y-107040038D01*
X115165830Y-107020632D01*
X115176866Y-107002219D01*
X115189654Y-106984976D01*
X115204070Y-106969070D01*
X115219976Y-106954654D01*
X115237219Y-106941866D01*
X115255632Y-106930830D01*
X115275038Y-106921651D01*
X115295250Y-106914419D01*
X115316074Y-106909203D01*
X115337309Y-106906053D01*
X115358750Y-106905000D01*
X115796250Y-106905000D01*
X115817691Y-106906053D01*
X115817691Y-106906053D01*
G37*
D16*
X115577500Y-107380000D03*
D13*
G36*
X149367691Y-92603053D02*
G01*
X149388926Y-92606203D01*
X149409750Y-92611419D01*
X149429962Y-92618651D01*
X149449368Y-92627830D01*
X149467781Y-92638866D01*
X149485024Y-92651654D01*
X149500930Y-92666070D01*
X149515346Y-92681976D01*
X149528134Y-92699219D01*
X149539170Y-92717632D01*
X149548349Y-92737038D01*
X149555581Y-92757250D01*
X149560797Y-92778074D01*
X149563947Y-92799309D01*
X149565000Y-92820750D01*
X149565000Y-93258250D01*
X149563947Y-93279691D01*
X149560797Y-93300926D01*
X149555581Y-93321750D01*
X149548349Y-93341962D01*
X149539170Y-93361368D01*
X149528134Y-93379781D01*
X149515346Y-93397024D01*
X149500930Y-93412930D01*
X149485024Y-93427346D01*
X149467781Y-93440134D01*
X149449368Y-93451170D01*
X149429962Y-93460349D01*
X149409750Y-93467581D01*
X149388926Y-93472797D01*
X149367691Y-93475947D01*
X149346250Y-93477000D01*
X148833750Y-93477000D01*
X148812309Y-93475947D01*
X148791074Y-93472797D01*
X148770250Y-93467581D01*
X148750038Y-93460349D01*
X148730632Y-93451170D01*
X148712219Y-93440134D01*
X148694976Y-93427346D01*
X148679070Y-93412930D01*
X148664654Y-93397024D01*
X148651866Y-93379781D01*
X148640830Y-93361368D01*
X148631651Y-93341962D01*
X148624419Y-93321750D01*
X148619203Y-93300926D01*
X148616053Y-93279691D01*
X148615000Y-93258250D01*
X148615000Y-92820750D01*
X148616053Y-92799309D01*
X148619203Y-92778074D01*
X148624419Y-92757250D01*
X148631651Y-92737038D01*
X148640830Y-92717632D01*
X148651866Y-92699219D01*
X148664654Y-92681976D01*
X148679070Y-92666070D01*
X148694976Y-92651654D01*
X148712219Y-92638866D01*
X148730632Y-92627830D01*
X148750038Y-92618651D01*
X148770250Y-92611419D01*
X148791074Y-92606203D01*
X148812309Y-92603053D01*
X148833750Y-92602000D01*
X149346250Y-92602000D01*
X149367691Y-92603053D01*
X149367691Y-92603053D01*
G37*
D16*
X149090000Y-93039500D03*
D13*
G36*
X149367691Y-91028053D02*
G01*
X149388926Y-91031203D01*
X149409750Y-91036419D01*
X149429962Y-91043651D01*
X149449368Y-91052830D01*
X149467781Y-91063866D01*
X149485024Y-91076654D01*
X149500930Y-91091070D01*
X149515346Y-91106976D01*
X149528134Y-91124219D01*
X149539170Y-91142632D01*
X149548349Y-91162038D01*
X149555581Y-91182250D01*
X149560797Y-91203074D01*
X149563947Y-91224309D01*
X149565000Y-91245750D01*
X149565000Y-91683250D01*
X149563947Y-91704691D01*
X149560797Y-91725926D01*
X149555581Y-91746750D01*
X149548349Y-91766962D01*
X149539170Y-91786368D01*
X149528134Y-91804781D01*
X149515346Y-91822024D01*
X149500930Y-91837930D01*
X149485024Y-91852346D01*
X149467781Y-91865134D01*
X149449368Y-91876170D01*
X149429962Y-91885349D01*
X149409750Y-91892581D01*
X149388926Y-91897797D01*
X149367691Y-91900947D01*
X149346250Y-91902000D01*
X148833750Y-91902000D01*
X148812309Y-91900947D01*
X148791074Y-91897797D01*
X148770250Y-91892581D01*
X148750038Y-91885349D01*
X148730632Y-91876170D01*
X148712219Y-91865134D01*
X148694976Y-91852346D01*
X148679070Y-91837930D01*
X148664654Y-91822024D01*
X148651866Y-91804781D01*
X148640830Y-91786368D01*
X148631651Y-91766962D01*
X148624419Y-91746750D01*
X148619203Y-91725926D01*
X148616053Y-91704691D01*
X148615000Y-91683250D01*
X148615000Y-91245750D01*
X148616053Y-91224309D01*
X148619203Y-91203074D01*
X148624419Y-91182250D01*
X148631651Y-91162038D01*
X148640830Y-91142632D01*
X148651866Y-91124219D01*
X148664654Y-91106976D01*
X148679070Y-91091070D01*
X148694976Y-91076654D01*
X148712219Y-91063866D01*
X148730632Y-91052830D01*
X148750038Y-91043651D01*
X148770250Y-91036419D01*
X148791074Y-91031203D01*
X148812309Y-91028053D01*
X148833750Y-91027000D01*
X149346250Y-91027000D01*
X149367691Y-91028053D01*
X149367691Y-91028053D01*
G37*
D16*
X149090000Y-91464500D03*
D13*
G36*
X147727691Y-92618553D02*
G01*
X147748926Y-92621703D01*
X147769750Y-92626919D01*
X147789962Y-92634151D01*
X147809368Y-92643330D01*
X147827781Y-92654366D01*
X147845024Y-92667154D01*
X147860930Y-92681570D01*
X147875346Y-92697476D01*
X147888134Y-92714719D01*
X147899170Y-92733132D01*
X147908349Y-92752538D01*
X147915581Y-92772750D01*
X147920797Y-92793574D01*
X147923947Y-92814809D01*
X147925000Y-92836250D01*
X147925000Y-93273750D01*
X147923947Y-93295191D01*
X147920797Y-93316426D01*
X147915581Y-93337250D01*
X147908349Y-93357462D01*
X147899170Y-93376868D01*
X147888134Y-93395281D01*
X147875346Y-93412524D01*
X147860930Y-93428430D01*
X147845024Y-93442846D01*
X147827781Y-93455634D01*
X147809368Y-93466670D01*
X147789962Y-93475849D01*
X147769750Y-93483081D01*
X147748926Y-93488297D01*
X147727691Y-93491447D01*
X147706250Y-93492500D01*
X147193750Y-93492500D01*
X147172309Y-93491447D01*
X147151074Y-93488297D01*
X147130250Y-93483081D01*
X147110038Y-93475849D01*
X147090632Y-93466670D01*
X147072219Y-93455634D01*
X147054976Y-93442846D01*
X147039070Y-93428430D01*
X147024654Y-93412524D01*
X147011866Y-93395281D01*
X147000830Y-93376868D01*
X146991651Y-93357462D01*
X146984419Y-93337250D01*
X146979203Y-93316426D01*
X146976053Y-93295191D01*
X146975000Y-93273750D01*
X146975000Y-92836250D01*
X146976053Y-92814809D01*
X146979203Y-92793574D01*
X146984419Y-92772750D01*
X146991651Y-92752538D01*
X147000830Y-92733132D01*
X147011866Y-92714719D01*
X147024654Y-92697476D01*
X147039070Y-92681570D01*
X147054976Y-92667154D01*
X147072219Y-92654366D01*
X147090632Y-92643330D01*
X147110038Y-92634151D01*
X147130250Y-92626919D01*
X147151074Y-92621703D01*
X147172309Y-92618553D01*
X147193750Y-92617500D01*
X147706250Y-92617500D01*
X147727691Y-92618553D01*
X147727691Y-92618553D01*
G37*
D16*
X147450000Y-93055000D03*
D13*
G36*
X147727691Y-91043553D02*
G01*
X147748926Y-91046703D01*
X147769750Y-91051919D01*
X147789962Y-91059151D01*
X147809368Y-91068330D01*
X147827781Y-91079366D01*
X147845024Y-91092154D01*
X147860930Y-91106570D01*
X147875346Y-91122476D01*
X147888134Y-91139719D01*
X147899170Y-91158132D01*
X147908349Y-91177538D01*
X147915581Y-91197750D01*
X147920797Y-91218574D01*
X147923947Y-91239809D01*
X147925000Y-91261250D01*
X147925000Y-91698750D01*
X147923947Y-91720191D01*
X147920797Y-91741426D01*
X147915581Y-91762250D01*
X147908349Y-91782462D01*
X147899170Y-91801868D01*
X147888134Y-91820281D01*
X147875346Y-91837524D01*
X147860930Y-91853430D01*
X147845024Y-91867846D01*
X147827781Y-91880634D01*
X147809368Y-91891670D01*
X147789962Y-91900849D01*
X147769750Y-91908081D01*
X147748926Y-91913297D01*
X147727691Y-91916447D01*
X147706250Y-91917500D01*
X147193750Y-91917500D01*
X147172309Y-91916447D01*
X147151074Y-91913297D01*
X147130250Y-91908081D01*
X147110038Y-91900849D01*
X147090632Y-91891670D01*
X147072219Y-91880634D01*
X147054976Y-91867846D01*
X147039070Y-91853430D01*
X147024654Y-91837524D01*
X147011866Y-91820281D01*
X147000830Y-91801868D01*
X146991651Y-91782462D01*
X146984419Y-91762250D01*
X146979203Y-91741426D01*
X146976053Y-91720191D01*
X146975000Y-91698750D01*
X146975000Y-91261250D01*
X146976053Y-91239809D01*
X146979203Y-91218574D01*
X146984419Y-91197750D01*
X146991651Y-91177538D01*
X147000830Y-91158132D01*
X147011866Y-91139719D01*
X147024654Y-91122476D01*
X147039070Y-91106570D01*
X147054976Y-91092154D01*
X147072219Y-91079366D01*
X147090632Y-91068330D01*
X147110038Y-91059151D01*
X147130250Y-91051919D01*
X147151074Y-91046703D01*
X147172309Y-91043553D01*
X147193750Y-91042500D01*
X147706250Y-91042500D01*
X147727691Y-91043553D01*
X147727691Y-91043553D01*
G37*
D16*
X147450000Y-91480000D03*
D13*
G36*
X166992691Y-94406053D02*
G01*
X167013926Y-94409203D01*
X167034750Y-94414419D01*
X167054962Y-94421651D01*
X167074368Y-94430830D01*
X167092781Y-94441866D01*
X167110024Y-94454654D01*
X167125930Y-94469070D01*
X167140346Y-94484976D01*
X167153134Y-94502219D01*
X167164170Y-94520632D01*
X167173349Y-94540038D01*
X167180581Y-94560250D01*
X167185797Y-94581074D01*
X167188947Y-94602309D01*
X167190000Y-94623750D01*
X167190000Y-95136250D01*
X167188947Y-95157691D01*
X167185797Y-95178926D01*
X167180581Y-95199750D01*
X167173349Y-95219962D01*
X167164170Y-95239368D01*
X167153134Y-95257781D01*
X167140346Y-95275024D01*
X167125930Y-95290930D01*
X167110024Y-95305346D01*
X167092781Y-95318134D01*
X167074368Y-95329170D01*
X167054962Y-95338349D01*
X167034750Y-95345581D01*
X167013926Y-95350797D01*
X166992691Y-95353947D01*
X166971250Y-95355000D01*
X166533750Y-95355000D01*
X166512309Y-95353947D01*
X166491074Y-95350797D01*
X166470250Y-95345581D01*
X166450038Y-95338349D01*
X166430632Y-95329170D01*
X166412219Y-95318134D01*
X166394976Y-95305346D01*
X166379070Y-95290930D01*
X166364654Y-95275024D01*
X166351866Y-95257781D01*
X166340830Y-95239368D01*
X166331651Y-95219962D01*
X166324419Y-95199750D01*
X166319203Y-95178926D01*
X166316053Y-95157691D01*
X166315000Y-95136250D01*
X166315000Y-94623750D01*
X166316053Y-94602309D01*
X166319203Y-94581074D01*
X166324419Y-94560250D01*
X166331651Y-94540038D01*
X166340830Y-94520632D01*
X166351866Y-94502219D01*
X166364654Y-94484976D01*
X166379070Y-94469070D01*
X166394976Y-94454654D01*
X166412219Y-94441866D01*
X166430632Y-94430830D01*
X166450038Y-94421651D01*
X166470250Y-94414419D01*
X166491074Y-94409203D01*
X166512309Y-94406053D01*
X166533750Y-94405000D01*
X166971250Y-94405000D01*
X166992691Y-94406053D01*
X166992691Y-94406053D01*
G37*
D16*
X166752500Y-94880000D03*
D13*
G36*
X168567691Y-94406053D02*
G01*
X168588926Y-94409203D01*
X168609750Y-94414419D01*
X168629962Y-94421651D01*
X168649368Y-94430830D01*
X168667781Y-94441866D01*
X168685024Y-94454654D01*
X168700930Y-94469070D01*
X168715346Y-94484976D01*
X168728134Y-94502219D01*
X168739170Y-94520632D01*
X168748349Y-94540038D01*
X168755581Y-94560250D01*
X168760797Y-94581074D01*
X168763947Y-94602309D01*
X168765000Y-94623750D01*
X168765000Y-95136250D01*
X168763947Y-95157691D01*
X168760797Y-95178926D01*
X168755581Y-95199750D01*
X168748349Y-95219962D01*
X168739170Y-95239368D01*
X168728134Y-95257781D01*
X168715346Y-95275024D01*
X168700930Y-95290930D01*
X168685024Y-95305346D01*
X168667781Y-95318134D01*
X168649368Y-95329170D01*
X168629962Y-95338349D01*
X168609750Y-95345581D01*
X168588926Y-95350797D01*
X168567691Y-95353947D01*
X168546250Y-95355000D01*
X168108750Y-95355000D01*
X168087309Y-95353947D01*
X168066074Y-95350797D01*
X168045250Y-95345581D01*
X168025038Y-95338349D01*
X168005632Y-95329170D01*
X167987219Y-95318134D01*
X167969976Y-95305346D01*
X167954070Y-95290930D01*
X167939654Y-95275024D01*
X167926866Y-95257781D01*
X167915830Y-95239368D01*
X167906651Y-95219962D01*
X167899419Y-95199750D01*
X167894203Y-95178926D01*
X167891053Y-95157691D01*
X167890000Y-95136250D01*
X167890000Y-94623750D01*
X167891053Y-94602309D01*
X167894203Y-94581074D01*
X167899419Y-94560250D01*
X167906651Y-94540038D01*
X167915830Y-94520632D01*
X167926866Y-94502219D01*
X167939654Y-94484976D01*
X167954070Y-94469070D01*
X167969976Y-94454654D01*
X167987219Y-94441866D01*
X168005632Y-94430830D01*
X168025038Y-94421651D01*
X168045250Y-94414419D01*
X168066074Y-94409203D01*
X168087309Y-94406053D01*
X168108750Y-94405000D01*
X168546250Y-94405000D01*
X168567691Y-94406053D01*
X168567691Y-94406053D01*
G37*
D16*
X168327500Y-94880000D03*
D13*
G36*
X170317691Y-90443553D02*
G01*
X170338926Y-90446703D01*
X170359750Y-90451919D01*
X170379962Y-90459151D01*
X170399368Y-90468330D01*
X170417781Y-90479366D01*
X170435024Y-90492154D01*
X170450930Y-90506570D01*
X170465346Y-90522476D01*
X170478134Y-90539719D01*
X170489170Y-90558132D01*
X170498349Y-90577538D01*
X170505581Y-90597750D01*
X170510797Y-90618574D01*
X170513947Y-90639809D01*
X170515000Y-90661250D01*
X170515000Y-91098750D01*
X170513947Y-91120191D01*
X170510797Y-91141426D01*
X170505581Y-91162250D01*
X170498349Y-91182462D01*
X170489170Y-91201868D01*
X170478134Y-91220281D01*
X170465346Y-91237524D01*
X170450930Y-91253430D01*
X170435024Y-91267846D01*
X170417781Y-91280634D01*
X170399368Y-91291670D01*
X170379962Y-91300849D01*
X170359750Y-91308081D01*
X170338926Y-91313297D01*
X170317691Y-91316447D01*
X170296250Y-91317500D01*
X169783750Y-91317500D01*
X169762309Y-91316447D01*
X169741074Y-91313297D01*
X169720250Y-91308081D01*
X169700038Y-91300849D01*
X169680632Y-91291670D01*
X169662219Y-91280634D01*
X169644976Y-91267846D01*
X169629070Y-91253430D01*
X169614654Y-91237524D01*
X169601866Y-91220281D01*
X169590830Y-91201868D01*
X169581651Y-91182462D01*
X169574419Y-91162250D01*
X169569203Y-91141426D01*
X169566053Y-91120191D01*
X169565000Y-91098750D01*
X169565000Y-90661250D01*
X169566053Y-90639809D01*
X169569203Y-90618574D01*
X169574419Y-90597750D01*
X169581651Y-90577538D01*
X169590830Y-90558132D01*
X169601866Y-90539719D01*
X169614654Y-90522476D01*
X169629070Y-90506570D01*
X169644976Y-90492154D01*
X169662219Y-90479366D01*
X169680632Y-90468330D01*
X169700038Y-90459151D01*
X169720250Y-90451919D01*
X169741074Y-90446703D01*
X169762309Y-90443553D01*
X169783750Y-90442500D01*
X170296250Y-90442500D01*
X170317691Y-90443553D01*
X170317691Y-90443553D01*
G37*
D16*
X170040000Y-90880000D03*
D13*
G36*
X170317691Y-92018553D02*
G01*
X170338926Y-92021703D01*
X170359750Y-92026919D01*
X170379962Y-92034151D01*
X170399368Y-92043330D01*
X170417781Y-92054366D01*
X170435024Y-92067154D01*
X170450930Y-92081570D01*
X170465346Y-92097476D01*
X170478134Y-92114719D01*
X170489170Y-92133132D01*
X170498349Y-92152538D01*
X170505581Y-92172750D01*
X170510797Y-92193574D01*
X170513947Y-92214809D01*
X170515000Y-92236250D01*
X170515000Y-92673750D01*
X170513947Y-92695191D01*
X170510797Y-92716426D01*
X170505581Y-92737250D01*
X170498349Y-92757462D01*
X170489170Y-92776868D01*
X170478134Y-92795281D01*
X170465346Y-92812524D01*
X170450930Y-92828430D01*
X170435024Y-92842846D01*
X170417781Y-92855634D01*
X170399368Y-92866670D01*
X170379962Y-92875849D01*
X170359750Y-92883081D01*
X170338926Y-92888297D01*
X170317691Y-92891447D01*
X170296250Y-92892500D01*
X169783750Y-92892500D01*
X169762309Y-92891447D01*
X169741074Y-92888297D01*
X169720250Y-92883081D01*
X169700038Y-92875849D01*
X169680632Y-92866670D01*
X169662219Y-92855634D01*
X169644976Y-92842846D01*
X169629070Y-92828430D01*
X169614654Y-92812524D01*
X169601866Y-92795281D01*
X169590830Y-92776868D01*
X169581651Y-92757462D01*
X169574419Y-92737250D01*
X169569203Y-92716426D01*
X169566053Y-92695191D01*
X169565000Y-92673750D01*
X169565000Y-92236250D01*
X169566053Y-92214809D01*
X169569203Y-92193574D01*
X169574419Y-92172750D01*
X169581651Y-92152538D01*
X169590830Y-92133132D01*
X169601866Y-92114719D01*
X169614654Y-92097476D01*
X169629070Y-92081570D01*
X169644976Y-92067154D01*
X169662219Y-92054366D01*
X169680632Y-92043330D01*
X169700038Y-92034151D01*
X169720250Y-92026919D01*
X169741074Y-92021703D01*
X169762309Y-92018553D01*
X169783750Y-92017500D01*
X170296250Y-92017500D01*
X170317691Y-92018553D01*
X170317691Y-92018553D01*
G37*
D16*
X170040000Y-92455000D03*
D13*
G36*
X181737691Y-101148553D02*
G01*
X181758926Y-101151703D01*
X181779750Y-101156919D01*
X181799962Y-101164151D01*
X181819368Y-101173330D01*
X181837781Y-101184366D01*
X181855024Y-101197154D01*
X181870930Y-101211570D01*
X181885346Y-101227476D01*
X181898134Y-101244719D01*
X181909170Y-101263132D01*
X181918349Y-101282538D01*
X181925581Y-101302750D01*
X181930797Y-101323574D01*
X181933947Y-101344809D01*
X181935000Y-101366250D01*
X181935000Y-101803750D01*
X181933947Y-101825191D01*
X181930797Y-101846426D01*
X181925581Y-101867250D01*
X181918349Y-101887462D01*
X181909170Y-101906868D01*
X181898134Y-101925281D01*
X181885346Y-101942524D01*
X181870930Y-101958430D01*
X181855024Y-101972846D01*
X181837781Y-101985634D01*
X181819368Y-101996670D01*
X181799962Y-102005849D01*
X181779750Y-102013081D01*
X181758926Y-102018297D01*
X181737691Y-102021447D01*
X181716250Y-102022500D01*
X181203750Y-102022500D01*
X181182309Y-102021447D01*
X181161074Y-102018297D01*
X181140250Y-102013081D01*
X181120038Y-102005849D01*
X181100632Y-101996670D01*
X181082219Y-101985634D01*
X181064976Y-101972846D01*
X181049070Y-101958430D01*
X181034654Y-101942524D01*
X181021866Y-101925281D01*
X181010830Y-101906868D01*
X181001651Y-101887462D01*
X180994419Y-101867250D01*
X180989203Y-101846426D01*
X180986053Y-101825191D01*
X180985000Y-101803750D01*
X180985000Y-101366250D01*
X180986053Y-101344809D01*
X180989203Y-101323574D01*
X180994419Y-101302750D01*
X181001651Y-101282538D01*
X181010830Y-101263132D01*
X181021866Y-101244719D01*
X181034654Y-101227476D01*
X181049070Y-101211570D01*
X181064976Y-101197154D01*
X181082219Y-101184366D01*
X181100632Y-101173330D01*
X181120038Y-101164151D01*
X181140250Y-101156919D01*
X181161074Y-101151703D01*
X181182309Y-101148553D01*
X181203750Y-101147500D01*
X181716250Y-101147500D01*
X181737691Y-101148553D01*
X181737691Y-101148553D01*
G37*
D16*
X181460000Y-101585000D03*
D13*
G36*
X181737691Y-102723553D02*
G01*
X181758926Y-102726703D01*
X181779750Y-102731919D01*
X181799962Y-102739151D01*
X181819368Y-102748330D01*
X181837781Y-102759366D01*
X181855024Y-102772154D01*
X181870930Y-102786570D01*
X181885346Y-102802476D01*
X181898134Y-102819719D01*
X181909170Y-102838132D01*
X181918349Y-102857538D01*
X181925581Y-102877750D01*
X181930797Y-102898574D01*
X181933947Y-102919809D01*
X181935000Y-102941250D01*
X181935000Y-103378750D01*
X181933947Y-103400191D01*
X181930797Y-103421426D01*
X181925581Y-103442250D01*
X181918349Y-103462462D01*
X181909170Y-103481868D01*
X181898134Y-103500281D01*
X181885346Y-103517524D01*
X181870930Y-103533430D01*
X181855024Y-103547846D01*
X181837781Y-103560634D01*
X181819368Y-103571670D01*
X181799962Y-103580849D01*
X181779750Y-103588081D01*
X181758926Y-103593297D01*
X181737691Y-103596447D01*
X181716250Y-103597500D01*
X181203750Y-103597500D01*
X181182309Y-103596447D01*
X181161074Y-103593297D01*
X181140250Y-103588081D01*
X181120038Y-103580849D01*
X181100632Y-103571670D01*
X181082219Y-103560634D01*
X181064976Y-103547846D01*
X181049070Y-103533430D01*
X181034654Y-103517524D01*
X181021866Y-103500281D01*
X181010830Y-103481868D01*
X181001651Y-103462462D01*
X180994419Y-103442250D01*
X180989203Y-103421426D01*
X180986053Y-103400191D01*
X180985000Y-103378750D01*
X180985000Y-102941250D01*
X180986053Y-102919809D01*
X180989203Y-102898574D01*
X180994419Y-102877750D01*
X181001651Y-102857538D01*
X181010830Y-102838132D01*
X181021866Y-102819719D01*
X181034654Y-102802476D01*
X181049070Y-102786570D01*
X181064976Y-102772154D01*
X181082219Y-102759366D01*
X181100632Y-102748330D01*
X181120038Y-102739151D01*
X181140250Y-102731919D01*
X181161074Y-102726703D01*
X181182309Y-102723553D01*
X181203750Y-102722500D01*
X181716250Y-102722500D01*
X181737691Y-102723553D01*
X181737691Y-102723553D01*
G37*
D16*
X181460000Y-103160000D03*
D24*
X167490000Y-90630000D03*
X165590000Y-90630000D03*
X166540000Y-92630000D03*
D25*
X161340000Y-97080000D03*
X161340000Y-95180000D03*
X159340000Y-96130000D03*
M02*
