M48
; DRILL file {KiCad (5.1.4)-1} date 2020-07-19 11:59:23 PM
; FORMAT={3:3/ absolute / metric / suppress leading zeros}
; #@! TF.CreationDate,2020-07-19T23:59:23-07:00
; #@! TF.GenerationSoftware,Kicad,Pcbnew,(5.1.4)-1
; #@! TF.FileFunction,Plated,1,2,PTH
FMAT,2
METRIC,TZ
T1C0.200
T2C0.400
T3C0.600
T4C0.762
%
G90
G05
T1
X136440Y-99780
X137540Y-99780
T2
X108190Y-89780
X108290Y-92650
X108390Y-97180
X108410Y-94820
X108780Y-107530
X108790Y-101980
X108800Y-104150
X108810Y-99560
X110190Y-89780
X110690Y-105500
X111100Y-99210
X111120Y-100990
X112190Y-89780
X112290Y-104610
X112300Y-107570
X114190Y-89780
X114590Y-99380
X114590Y-101380
X116190Y-89780
X116590Y-100880
X117790Y-89780
X122428Y-86360
X124890Y-104880
X125984Y-108204
X126280Y-99960
X126590Y-95280
X127140Y-104920
X128150Y-107680
X128290Y-109474
X128590Y-88380
X129310Y-91680
X130280Y-105080
X131064Y-102362
X132080Y-96266
X132460Y-104780
X133190Y-94580
X133990Y-104580
X134760Y-100270
X136000Y-87500
X136500Y-93000
X138630Y-100810
X139590Y-109580
X139790Y-99180
X140500Y-87500
X140500Y-91000
X140500Y-91000
X140570Y-100640
X141350Y-107770
X142090Y-96280
X142890Y-100810
X142990Y-109580
X144500Y-87500
X144500Y-91000
X144990Y-93560
X145790Y-97780
X146030Y-101040
X148082Y-102616
X148750Y-95270
X149170Y-98250
X149330Y-96990
X149860Y-106426
X149990Y-104380
X150640Y-87090
X150640Y-91440
X150876Y-108712
X151640Y-85320
X154000Y-87000
X154180Y-96800
X155370Y-85180
X158790Y-104380
X163150Y-90820
X164084Y-85344
X164084Y-94742
X164228Y-104000
X167894Y-85420
X170590Y-87630
X171196Y-94870
X172974Y-85344
X173482Y-93218
X177546Y-85430
X177800Y-98552
X178562Y-93140
X179832Y-91186
X181570Y-96120
X184260Y-90590
X184500Y-85270
T3
X108290Y-109890
X109590Y-109880
X111090Y-109880
X112590Y-109880
X114090Y-109880
X115590Y-109880
X117090Y-109880
X118590Y-109880
X120090Y-109880
X121590Y-110180
X122790Y-109380
T4
X134140Y-85380
X134140Y-107930
X137440Y-107930
X144790Y-107980
X148140Y-85380
X148140Y-107980
T0
M30
