G04 #@! TF.GenerationSoftware,KiCad,Pcbnew,(5.1.4)-1*
G04 #@! TF.CreationDate,2020-07-19T23:59:32-07:00*
G04 #@! TF.ProjectId,Main Board,4d61696e-2042-46f6-9172-642e6b696361,rev?*
G04 #@! TF.SameCoordinates,Original*
G04 #@! TF.FileFunction,Legend,Top*
G04 #@! TF.FilePolarity,Positive*
%FSLAX46Y46*%
G04 Gerber Fmt 4.6, Leading zero omitted, Abs format (unit mm)*
G04 Created by KiCad (PCBNEW (5.1.4)-1) date 2020-07-19 23:59:32*
%MOMM*%
%LPD*%
G04 APERTURE LIST*
%ADD10C,0.150000*%
%ADD11C,0.120000*%
%ADD12C,0.100000*%
%ADD13C,0.200000*%
%ADD14C,0.127000*%
%ADD15C,0.010000*%
G04 APERTURE END LIST*
D10*
X142154523Y-77512380D02*
X142821190Y-77512380D01*
X142392619Y-78512380D01*
X143345000Y-77940952D02*
X143249761Y-77893333D01*
X143202142Y-77845714D01*
X143154523Y-77750476D01*
X143154523Y-77702857D01*
X143202142Y-77607619D01*
X143249761Y-77560000D01*
X143345000Y-77512380D01*
X143535476Y-77512380D01*
X143630714Y-77560000D01*
X143678333Y-77607619D01*
X143725952Y-77702857D01*
X143725952Y-77750476D01*
X143678333Y-77845714D01*
X143630714Y-77893333D01*
X143535476Y-77940952D01*
X143345000Y-77940952D01*
X143249761Y-77988571D01*
X143202142Y-78036190D01*
X143154523Y-78131428D01*
X143154523Y-78321904D01*
X143202142Y-78417142D01*
X143249761Y-78464761D01*
X143345000Y-78512380D01*
X143535476Y-78512380D01*
X143630714Y-78464761D01*
X143678333Y-78417142D01*
X143725952Y-78321904D01*
X143725952Y-78131428D01*
X143678333Y-78036190D01*
X143630714Y-77988571D01*
X143535476Y-77940952D01*
X144154523Y-78417142D02*
X144202142Y-78464761D01*
X144154523Y-78512380D01*
X144106904Y-78464761D01*
X144154523Y-78417142D01*
X144154523Y-78512380D01*
X145059285Y-77512380D02*
X144868809Y-77512380D01*
X144773571Y-77560000D01*
X144725952Y-77607619D01*
X144630714Y-77750476D01*
X144583095Y-77940952D01*
X144583095Y-78321904D01*
X144630714Y-78417142D01*
X144678333Y-78464761D01*
X144773571Y-78512380D01*
X144964047Y-78512380D01*
X145059285Y-78464761D01*
X145106904Y-78417142D01*
X145154523Y-78321904D01*
X145154523Y-78083809D01*
X145106904Y-77988571D01*
X145059285Y-77940952D01*
X144964047Y-77893333D01*
X144773571Y-77893333D01*
X144678333Y-77940952D01*
X144630714Y-77988571D01*
X144583095Y-78083809D01*
X146059285Y-77512380D02*
X145583095Y-77512380D01*
X145535476Y-77988571D01*
X145583095Y-77940952D01*
X145678333Y-77893333D01*
X145916428Y-77893333D01*
X146011666Y-77940952D01*
X146059285Y-77988571D01*
X146106904Y-78083809D01*
X146106904Y-78321904D01*
X146059285Y-78417142D01*
X146011666Y-78464761D01*
X145916428Y-78512380D01*
X145678333Y-78512380D01*
X145583095Y-78464761D01*
X145535476Y-78417142D01*
X146725952Y-77512380D02*
X146821190Y-77512380D01*
X146916428Y-77560000D01*
X146964047Y-77607619D01*
X147011666Y-77702857D01*
X147059285Y-77893333D01*
X147059285Y-78131428D01*
X147011666Y-78321904D01*
X146964047Y-78417142D01*
X146916428Y-78464761D01*
X146821190Y-78512380D01*
X146725952Y-78512380D01*
X146630714Y-78464761D01*
X146583095Y-78417142D01*
X146535476Y-78321904D01*
X146487857Y-78131428D01*
X146487857Y-77893333D01*
X146535476Y-77702857D01*
X146583095Y-77607619D01*
X146630714Y-77560000D01*
X146725952Y-77512380D01*
X148249761Y-78512380D02*
X148249761Y-77845714D01*
X148249761Y-77940952D02*
X148297380Y-77893333D01*
X148392619Y-77845714D01*
X148535476Y-77845714D01*
X148630714Y-77893333D01*
X148678333Y-77988571D01*
X148678333Y-78512380D01*
X148678333Y-77988571D02*
X148725952Y-77893333D01*
X148821190Y-77845714D01*
X148964047Y-77845714D01*
X149059285Y-77893333D01*
X149106904Y-77988571D01*
X149106904Y-78512380D01*
X149583095Y-78512380D02*
X149583095Y-77845714D01*
X149583095Y-77940952D02*
X149630714Y-77893333D01*
X149725952Y-77845714D01*
X149868809Y-77845714D01*
X149964047Y-77893333D01*
X150011666Y-77988571D01*
X150011666Y-78512380D01*
X150011666Y-77988571D02*
X150059285Y-77893333D01*
X150154523Y-77845714D01*
X150297380Y-77845714D01*
X150392619Y-77893333D01*
X150440238Y-77988571D01*
X150440238Y-78512380D01*
D11*
X107020000Y-79330000D02*
X185670000Y-79330000D01*
X107020000Y-83770000D02*
X107020000Y-78743579D01*
X185670000Y-83770000D02*
X185670000Y-78743579D01*
X185670000Y-79330000D02*
X184543496Y-79916421D01*
X185670000Y-79330000D02*
X184543496Y-78743579D01*
X107020000Y-79330000D02*
X108146504Y-79916421D01*
X107020000Y-79330000D02*
X108146504Y-78743579D01*
D10*
X101362380Y-93387142D02*
X101410000Y-93434761D01*
X101457619Y-93530000D01*
X101457619Y-93768095D01*
X101410000Y-93863333D01*
X101362380Y-93910952D01*
X101267142Y-93958571D01*
X101171904Y-93958571D01*
X101029047Y-93910952D01*
X100457619Y-93339523D01*
X100457619Y-93958571D01*
X101457619Y-94291904D02*
X101457619Y-94958571D01*
X100457619Y-94530000D01*
X100552857Y-95339523D02*
X100505238Y-95387142D01*
X100457619Y-95339523D01*
X100505238Y-95291904D01*
X100552857Y-95339523D01*
X100457619Y-95339523D01*
X101457619Y-96291904D02*
X101457619Y-95815714D01*
X100981428Y-95768095D01*
X101029047Y-95815714D01*
X101076666Y-95910952D01*
X101076666Y-96149047D01*
X101029047Y-96244285D01*
X100981428Y-96291904D01*
X100886190Y-96339523D01*
X100648095Y-96339523D01*
X100552857Y-96291904D01*
X100505238Y-96244285D01*
X100457619Y-96149047D01*
X100457619Y-95910952D01*
X100505238Y-95815714D01*
X100552857Y-95768095D01*
X101457619Y-96958571D02*
X101457619Y-97053809D01*
X101410000Y-97149047D01*
X101362380Y-97196666D01*
X101267142Y-97244285D01*
X101076666Y-97291904D01*
X100838571Y-97291904D01*
X100648095Y-97244285D01*
X100552857Y-97196666D01*
X100505238Y-97149047D01*
X100457619Y-97053809D01*
X100457619Y-96958571D01*
X100505238Y-96863333D01*
X100552857Y-96815714D01*
X100648095Y-96768095D01*
X100838571Y-96720476D01*
X101076666Y-96720476D01*
X101267142Y-96768095D01*
X101362380Y-96815714D01*
X101410000Y-96863333D01*
X101457619Y-96958571D01*
X101457619Y-97910952D02*
X101457619Y-98006190D01*
X101410000Y-98101428D01*
X101362380Y-98149047D01*
X101267142Y-98196666D01*
X101076666Y-98244285D01*
X100838571Y-98244285D01*
X100648095Y-98196666D01*
X100552857Y-98149047D01*
X100505238Y-98101428D01*
X100457619Y-98006190D01*
X100457619Y-97910952D01*
X100505238Y-97815714D01*
X100552857Y-97768095D01*
X100648095Y-97720476D01*
X100838571Y-97672857D01*
X101076666Y-97672857D01*
X101267142Y-97720476D01*
X101362380Y-97768095D01*
X101410000Y-97815714D01*
X101457619Y-97910952D01*
X100457619Y-99434761D02*
X101124285Y-99434761D01*
X101029047Y-99434761D02*
X101076666Y-99482380D01*
X101124285Y-99577619D01*
X101124285Y-99720476D01*
X101076666Y-99815714D01*
X100981428Y-99863333D01*
X100457619Y-99863333D01*
X100981428Y-99863333D02*
X101076666Y-99910952D01*
X101124285Y-100006190D01*
X101124285Y-100149047D01*
X101076666Y-100244285D01*
X100981428Y-100291904D01*
X100457619Y-100291904D01*
X100457619Y-100768095D02*
X101124285Y-100768095D01*
X101029047Y-100768095D02*
X101076666Y-100815714D01*
X101124285Y-100910952D01*
X101124285Y-101053809D01*
X101076666Y-101149047D01*
X100981428Y-101196666D01*
X100457619Y-101196666D01*
X100981428Y-101196666D02*
X101076666Y-101244285D01*
X101124285Y-101339523D01*
X101124285Y-101482380D01*
X101076666Y-101577619D01*
X100981428Y-101625238D01*
X100457619Y-101625238D01*
D11*
X102180000Y-83780000D02*
X102180000Y-111280000D01*
X106950000Y-83780000D02*
X101593579Y-83780000D01*
X106950000Y-111280000D02*
X101593579Y-111280000D01*
X102180000Y-111280000D02*
X101593579Y-110153496D01*
X102180000Y-111280000D02*
X102766421Y-110153496D01*
X102180000Y-83780000D02*
X101593579Y-84906504D01*
X102180000Y-83780000D02*
X102766421Y-84906504D01*
D10*
X157962380Y-110438571D02*
X158105238Y-110486190D01*
X158152857Y-110533809D01*
X158200476Y-110629047D01*
X158200476Y-110771904D01*
X158152857Y-110867142D01*
X158105238Y-110914761D01*
X158010000Y-110962380D01*
X157629047Y-110962380D01*
X157629047Y-109962380D01*
X157962380Y-109962380D01*
X158057619Y-110010000D01*
X158105238Y-110057619D01*
X158152857Y-110152857D01*
X158152857Y-110248095D01*
X158105238Y-110343333D01*
X158057619Y-110390952D01*
X157962380Y-110438571D01*
X157629047Y-110438571D01*
X158629047Y-110581428D02*
X159390952Y-110581428D01*
X159010000Y-110962380D02*
X159010000Y-110200476D01*
X127582380Y-110528571D02*
X127725238Y-110576190D01*
X127772857Y-110623809D01*
X127820476Y-110719047D01*
X127820476Y-110861904D01*
X127772857Y-110957142D01*
X127725238Y-111004761D01*
X127630000Y-111052380D01*
X127249047Y-111052380D01*
X127249047Y-110052380D01*
X127582380Y-110052380D01*
X127677619Y-110100000D01*
X127725238Y-110147619D01*
X127772857Y-110242857D01*
X127772857Y-110338095D01*
X127725238Y-110433333D01*
X127677619Y-110480952D01*
X127582380Y-110528571D01*
X127249047Y-110528571D01*
X128249047Y-110671428D02*
X129010952Y-110671428D01*
D11*
X149330000Y-107860000D02*
X149670000Y-108230000D01*
X149330000Y-107870000D02*
X149660000Y-107540000D01*
X149330000Y-107870000D02*
X150090000Y-107870000D01*
D10*
X150179047Y-107442380D02*
X150798095Y-107442380D01*
X150464761Y-107823333D01*
X150607619Y-107823333D01*
X150702857Y-107870952D01*
X150750476Y-107918571D01*
X150798095Y-108013809D01*
X150798095Y-108251904D01*
X150750476Y-108347142D01*
X150702857Y-108394761D01*
X150607619Y-108442380D01*
X150321904Y-108442380D01*
X150226666Y-108394761D01*
X150179047Y-108347142D01*
X151083809Y-107442380D02*
X151417142Y-108442380D01*
X151750476Y-107442380D01*
X152083809Y-108061428D02*
X152845714Y-108061428D01*
X152464761Y-108442380D02*
X152464761Y-107680476D01*
D12*
X107954285Y-105471428D02*
X107611428Y-105471428D01*
X107782857Y-105471428D02*
X107782857Y-104871428D01*
X107725714Y-104957142D01*
X107668571Y-105014285D01*
X107611428Y-105042857D01*
X108325714Y-104871428D02*
X108382857Y-104871428D01*
X108440000Y-104900000D01*
X108468571Y-104928571D01*
X108497142Y-104985714D01*
X108525714Y-105100000D01*
X108525714Y-105242857D01*
X108497142Y-105357142D01*
X108468571Y-105414285D01*
X108440000Y-105442857D01*
X108382857Y-105471428D01*
X108325714Y-105471428D01*
X108268571Y-105442857D01*
X108240000Y-105414285D01*
X108211428Y-105357142D01*
X108182857Y-105242857D01*
X108182857Y-105100000D01*
X108211428Y-104985714D01*
X108240000Y-104928571D01*
X108268571Y-104900000D01*
X108325714Y-104871428D01*
X108697142Y-104871428D02*
X108897142Y-105471428D01*
X109097142Y-104871428D01*
X109868571Y-104871428D02*
X109925714Y-104871428D01*
X109982857Y-104900000D01*
X110011428Y-104928571D01*
X110040000Y-104985714D01*
X110068571Y-105100000D01*
X110068571Y-105242857D01*
X110040000Y-105357142D01*
X110011428Y-105414285D01*
X109982857Y-105442857D01*
X109925714Y-105471428D01*
X109868571Y-105471428D01*
X109811428Y-105442857D01*
X109782857Y-105414285D01*
X109754285Y-105357142D01*
X109725714Y-105242857D01*
X109725714Y-105100000D01*
X109754285Y-104985714D01*
X109782857Y-104928571D01*
X109811428Y-104900000D01*
X109868571Y-104871428D01*
X110325714Y-105414285D02*
X110354285Y-105442857D01*
X110325714Y-105471428D01*
X110297142Y-105442857D01*
X110325714Y-105414285D01*
X110325714Y-105471428D01*
X110554285Y-104871428D02*
X110954285Y-104871428D01*
X110697142Y-105471428D01*
X111154285Y-105300000D02*
X111440000Y-105300000D01*
X111097142Y-105471428D02*
X111297142Y-104871428D01*
X111497142Y-105471428D01*
X112154285Y-105471428D02*
X112154285Y-104871428D01*
X112354285Y-105300000D01*
X112554285Y-104871428D01*
X112554285Y-105471428D01*
X112811428Y-105300000D02*
X113097142Y-105300000D01*
X112754285Y-105471428D02*
X112954285Y-104871428D01*
X113154285Y-105471428D01*
X113297142Y-104871428D02*
X113697142Y-105471428D01*
X113697142Y-104871428D02*
X113297142Y-105471428D01*
X107868571Y-105871428D02*
X108240000Y-105871428D01*
X108040000Y-106100000D01*
X108125714Y-106100000D01*
X108182857Y-106128571D01*
X108211428Y-106157142D01*
X108240000Y-106214285D01*
X108240000Y-106357142D01*
X108211428Y-106414285D01*
X108182857Y-106442857D01*
X108125714Y-106471428D01*
X107954285Y-106471428D01*
X107897142Y-106442857D01*
X107868571Y-106414285D01*
X108411428Y-105871428D02*
X108611428Y-106471428D01*
X108811428Y-105871428D01*
X109782857Y-106471428D02*
X109440000Y-106471428D01*
X109611428Y-106471428D02*
X109611428Y-105871428D01*
X109554285Y-105957142D01*
X109497142Y-106014285D01*
X109440000Y-106042857D01*
X110040000Y-106414285D02*
X110068571Y-106442857D01*
X110040000Y-106471428D01*
X110011428Y-106442857D01*
X110040000Y-106414285D01*
X110040000Y-106471428D01*
X110611428Y-105871428D02*
X110325714Y-105871428D01*
X110297142Y-106157142D01*
X110325714Y-106128571D01*
X110382857Y-106100000D01*
X110525714Y-106100000D01*
X110582857Y-106128571D01*
X110611428Y-106157142D01*
X110640000Y-106214285D01*
X110640000Y-106357142D01*
X110611428Y-106414285D01*
X110582857Y-106442857D01*
X110525714Y-106471428D01*
X110382857Y-106471428D01*
X110325714Y-106442857D01*
X110297142Y-106414285D01*
X110868571Y-106300000D02*
X111154285Y-106300000D01*
X110811428Y-106471428D02*
X111011428Y-105871428D01*
X111211428Y-106471428D01*
X111868571Y-106471428D02*
X111868571Y-105871428D01*
X112068571Y-106300000D01*
X112268571Y-105871428D01*
X112268571Y-106471428D01*
X112525714Y-106300000D02*
X112811428Y-106300000D01*
X112468571Y-106471428D02*
X112668571Y-105871428D01*
X112868571Y-106471428D01*
X113011428Y-105871428D02*
X113411428Y-106471428D01*
X113411428Y-105871428D02*
X113011428Y-106471428D01*
D10*
X107770000Y-87231904D02*
X107722380Y-87327142D01*
X107722380Y-87470000D01*
X107770000Y-87612857D01*
X107865238Y-87708095D01*
X107960476Y-87755714D01*
X108150952Y-87803333D01*
X108293809Y-87803333D01*
X108484285Y-87755714D01*
X108579523Y-87708095D01*
X108674761Y-87612857D01*
X108722380Y-87470000D01*
X108722380Y-87374761D01*
X108674761Y-87231904D01*
X108627142Y-87184285D01*
X108293809Y-87184285D01*
X108293809Y-87374761D01*
X108722380Y-86755714D02*
X107722380Y-86755714D01*
X108722380Y-86184285D01*
X107722380Y-86184285D01*
X108722380Y-85708095D02*
X107722380Y-85708095D01*
X107722380Y-85470000D01*
X107770000Y-85327142D01*
X107865238Y-85231904D01*
X107960476Y-85184285D01*
X108150952Y-85136666D01*
X108293809Y-85136666D01*
X108484285Y-85184285D01*
X108579523Y-85231904D01*
X108674761Y-85327142D01*
X108722380Y-85470000D01*
X108722380Y-85708095D01*
X108822380Y-93718095D02*
X108822380Y-94289523D01*
X108822380Y-94003809D02*
X107822380Y-94003809D01*
X107965238Y-94099047D01*
X108060476Y-94194285D01*
X108108095Y-94289523D01*
X107822380Y-93099047D02*
X107822380Y-93003809D01*
X107870000Y-92908571D01*
X107917619Y-92860952D01*
X108012857Y-92813333D01*
X108203333Y-92765714D01*
X108441428Y-92765714D01*
X108631904Y-92813333D01*
X108727142Y-92860952D01*
X108774761Y-92908571D01*
X108822380Y-93003809D01*
X108822380Y-93099047D01*
X108774761Y-93194285D01*
X108727142Y-93241904D01*
X108631904Y-93289523D01*
X108441428Y-93337142D01*
X108203333Y-93337142D01*
X108012857Y-93289523D01*
X107917619Y-93241904D01*
X107870000Y-93194285D01*
X107822380Y-93099047D01*
X107822380Y-92480000D02*
X108822380Y-92146666D01*
X107822380Y-91813333D01*
X108441428Y-91480000D02*
X108441428Y-90718095D01*
X108822380Y-91099047D02*
X108060476Y-91099047D01*
D13*
X136390000Y-101680000D02*
G75*
G03X136390000Y-101680000I-100000J0D01*
G01*
D14*
X138040000Y-98730000D02*
X138040000Y-100830000D01*
X135940000Y-100830000D02*
X135940000Y-98730000D01*
D11*
X124090000Y-101280000D02*
X123640000Y-101280000D01*
X117890000Y-101280000D02*
X118340000Y-101280000D01*
X117890000Y-106970000D02*
X118340000Y-106970000D01*
X117890000Y-106970000D02*
X117890000Y-101270000D01*
X124090000Y-106970000D02*
X123640000Y-106970000D01*
X124090000Y-101280000D02*
X124090000Y-106970000D01*
X173638750Y-102473750D02*
X174426250Y-102473750D01*
X174032500Y-102867500D02*
X174032500Y-102080000D01*
X178225563Y-101840000D02*
X179290000Y-100775563D01*
X173534437Y-101840000D02*
X172470000Y-100775563D01*
X173534437Y-101840000D02*
X174820000Y-101840000D01*
X178225563Y-101840000D02*
X176940000Y-101840000D01*
X179290000Y-100775563D02*
X179290000Y-95020000D01*
X172470000Y-100775563D02*
X172470000Y-95020000D01*
X172470000Y-95020000D02*
X174820000Y-95020000D01*
X179290000Y-95020000D02*
X176940000Y-95020000D01*
X131011250Y-96536250D02*
X130223750Y-96536250D01*
X130617500Y-96142500D02*
X130617500Y-96930000D01*
X126424437Y-97170000D02*
X125360000Y-98234437D01*
X131115563Y-97170000D02*
X132180000Y-98234437D01*
X131115563Y-97170000D02*
X129830000Y-97170000D01*
X126424437Y-97170000D02*
X127710000Y-97170000D01*
X125360000Y-98234437D02*
X125360000Y-103990000D01*
X132180000Y-98234437D02*
X132180000Y-103990000D01*
X132180000Y-103990000D02*
X129830000Y-103990000D01*
X125360000Y-103990000D02*
X127710000Y-103990000D01*
X162740000Y-89990000D02*
X162740000Y-89490000D01*
X162990000Y-89740000D02*
X162490000Y-89740000D01*
X162250000Y-86984437D02*
X161185563Y-85920000D01*
X162250000Y-89375563D02*
X161185563Y-90440000D01*
X162250000Y-89375563D02*
X162250000Y-89240000D01*
X162250000Y-86984437D02*
X162250000Y-87120000D01*
X161185563Y-85920000D02*
X157730000Y-85920000D01*
X161185563Y-90440000D02*
X157730000Y-90440000D01*
X157730000Y-90440000D02*
X157730000Y-89240000D01*
X157730000Y-85920000D02*
X157730000Y-87120000D01*
X170970000Y-101890000D02*
X170970000Y-101390000D01*
X171220000Y-101640000D02*
X170720000Y-101640000D01*
X170480000Y-98884437D02*
X169415563Y-97820000D01*
X170480000Y-101275563D02*
X169415563Y-102340000D01*
X170480000Y-101275563D02*
X170480000Y-101140000D01*
X170480000Y-98884437D02*
X170480000Y-99020000D01*
X169415563Y-97820000D02*
X165960000Y-97820000D01*
X169415563Y-102340000D02*
X165960000Y-102340000D01*
X165960000Y-102340000D02*
X165960000Y-101140000D01*
X165960000Y-97820000D02*
X165960000Y-99020000D01*
X177750000Y-91470000D02*
X177750000Y-90970000D01*
X178000000Y-91220000D02*
X177500000Y-91220000D01*
X177260000Y-88464437D02*
X176195563Y-87400000D01*
X177260000Y-90855563D02*
X176195563Y-91920000D01*
X177260000Y-90855563D02*
X177260000Y-90720000D01*
X177260000Y-88464437D02*
X177260000Y-88600000D01*
X176195563Y-87400000D02*
X172740000Y-87400000D01*
X176195563Y-91920000D02*
X172740000Y-91920000D01*
X172740000Y-91920000D02*
X172740000Y-90720000D01*
X172740000Y-87400000D02*
X172740000Y-88600000D01*
D15*
G36*
X163432691Y-100044040D02*
G01*
X163459960Y-100061405D01*
X163487843Y-100097869D01*
X163514392Y-100150593D01*
X163525528Y-100179271D01*
X163530643Y-100196075D01*
X163534945Y-100216912D01*
X163538565Y-100244058D01*
X163541634Y-100279787D01*
X163544284Y-100326376D01*
X163546645Y-100386101D01*
X163548849Y-100461237D01*
X163551026Y-100554060D01*
X163553149Y-100658608D01*
X163555772Y-100782192D01*
X163558565Y-100886024D01*
X163561716Y-100972440D01*
X163565412Y-101043776D01*
X163569838Y-101102366D01*
X163575183Y-101150547D01*
X163581633Y-101190653D01*
X163589375Y-101225021D01*
X163598595Y-101255985D01*
X163601640Y-101264856D01*
X163620596Y-101306434D01*
X163651302Y-101360012D01*
X163690649Y-101421254D01*
X163735524Y-101485820D01*
X163782817Y-101549374D01*
X163829416Y-101607578D01*
X163872209Y-101656094D01*
X163905370Y-101688296D01*
X163925403Y-101701974D01*
X163962546Y-101723928D01*
X164014088Y-101752686D01*
X164077316Y-101786779D01*
X164149521Y-101824735D01*
X164227991Y-101865084D01*
X164277350Y-101890030D01*
X164399414Y-101952130D01*
X164503472Y-102007348D01*
X164591777Y-102057604D01*
X164666582Y-102104816D01*
X164730139Y-102150904D01*
X164784701Y-102197786D01*
X164832521Y-102247380D01*
X164875850Y-102301607D01*
X164916943Y-102362384D01*
X164958051Y-102431630D01*
X164997107Y-102503124D01*
X165017540Y-102545746D01*
X165040173Y-102599805D01*
X165063381Y-102660569D01*
X165085540Y-102723308D01*
X165105025Y-102783292D01*
X165120211Y-102835789D01*
X165129475Y-102876070D01*
X165131566Y-102894642D01*
X165136270Y-102910393D01*
X165148851Y-102940430D01*
X165167015Y-102979433D01*
X165176329Y-102998356D01*
X165205681Y-103051953D01*
X165235535Y-103093253D01*
X165272740Y-103131113D01*
X165291859Y-103147826D01*
X165363793Y-103202561D01*
X165453213Y-103260357D01*
X165556141Y-103319058D01*
X165668602Y-103376507D01*
X165786618Y-103430546D01*
X165893566Y-103474203D01*
X166032473Y-103528772D01*
X166162520Y-103582362D01*
X166281465Y-103633961D01*
X166387066Y-103682554D01*
X166477083Y-103727127D01*
X166549276Y-103766666D01*
X166576041Y-103782986D01*
X166685190Y-103854184D01*
X166775823Y-103917082D01*
X166849349Y-103972907D01*
X166907180Y-104022887D01*
X166950725Y-104068246D01*
X166981395Y-104110213D01*
X167000600Y-104150012D01*
X167001662Y-104153076D01*
X167013708Y-104207642D01*
X167019203Y-104274726D01*
X167018129Y-104345743D01*
X167010464Y-104412112D01*
X167002358Y-104447278D01*
X166962253Y-104549251D01*
X166901081Y-104654868D01*
X166819415Y-104763355D01*
X166717831Y-104873937D01*
X166613714Y-104971232D01*
X166493260Y-105071649D01*
X166379685Y-105154847D01*
X166269273Y-105222985D01*
X166158309Y-105278225D01*
X166043078Y-105322726D01*
X165970870Y-105345023D01*
X165907076Y-105362625D01*
X165851132Y-105376590D01*
X165799409Y-105387217D01*
X165748277Y-105394810D01*
X165694105Y-105399670D01*
X165633263Y-105402098D01*
X165562121Y-105402397D01*
X165477049Y-105400868D01*
X165374417Y-105397813D01*
X165346913Y-105396892D01*
X165187994Y-105389937D01*
X165038519Y-105380304D01*
X164901118Y-105368250D01*
X164778417Y-105354034D01*
X164673044Y-105337912D01*
X164603554Y-105323946D01*
X164565988Y-105315651D01*
X164536880Y-105309859D01*
X164523489Y-105307913D01*
X164513946Y-105316623D01*
X164514982Y-105339864D01*
X164525696Y-105373296D01*
X164545183Y-105412583D01*
X164545323Y-105412826D01*
X164580275Y-105465692D01*
X164622895Y-105515317D01*
X164675674Y-105563697D01*
X164741101Y-105612831D01*
X164821668Y-105664715D01*
X164919863Y-105721346D01*
X164951849Y-105738864D01*
X165048201Y-105793659D01*
X165129247Y-105845044D01*
X165193737Y-105892077D01*
X165240416Y-105933816D01*
X165268033Y-105969318D01*
X165273075Y-105980415D01*
X165284858Y-106014214D01*
X165213100Y-106036378D01*
X165117346Y-106058291D01*
X165006598Y-106070482D01*
X164885717Y-106072912D01*
X164759560Y-106065542D01*
X164632987Y-106048332D01*
X164596475Y-106041410D01*
X164521419Y-106024045D01*
X164433246Y-106000172D01*
X164339152Y-105971957D01*
X164246332Y-105941566D01*
X164161982Y-105911168D01*
X164154590Y-105908327D01*
X164109398Y-105892071D01*
X164058094Y-105875541D01*
X164005123Y-105859929D01*
X163954932Y-105846425D01*
X163911970Y-105836221D01*
X163880681Y-105830508D01*
X163865513Y-105830477D01*
X163865100Y-105830784D01*
X163864546Y-105845548D01*
X163877921Y-105869575D01*
X163901868Y-105898379D01*
X163933030Y-105927471D01*
X163943795Y-105935971D01*
X164014140Y-105983337D01*
X164085921Y-106018806D01*
X164164747Y-106044379D01*
X164256224Y-106062055D01*
X164318597Y-106069609D01*
X164363848Y-106075339D01*
X164401077Y-106082201D01*
X164424498Y-106089039D01*
X164428828Y-106091628D01*
X164432429Y-106109462D01*
X164423157Y-106137368D01*
X164404125Y-106170179D01*
X164378446Y-106202727D01*
X164349234Y-106229845D01*
X164342744Y-106234500D01*
X164293809Y-106263358D01*
X164237398Y-106287746D01*
X164168059Y-106309779D01*
X164111214Y-106324382D01*
X164010487Y-106341862D01*
X163912492Y-106344348D01*
X163813420Y-106331259D01*
X163709458Y-106302013D01*
X163596796Y-106256031D01*
X163565295Y-106241110D01*
X163492629Y-106208386D01*
X163434459Y-106187695D01*
X163391839Y-106179322D01*
X163365823Y-106183554D01*
X163362442Y-106186196D01*
X163367375Y-106195780D01*
X163385327Y-106217008D01*
X163413212Y-106246411D01*
X163437116Y-106270123D01*
X163516846Y-106361219D01*
X163575997Y-106459727D01*
X163614336Y-106565117D01*
X163631633Y-106676858D01*
X163632665Y-106718326D01*
X163630992Y-106769107D01*
X163626065Y-106804771D01*
X163616566Y-106832202D01*
X163607807Y-106848087D01*
X163590484Y-106872426D01*
X163576347Y-106886068D01*
X163573286Y-106887130D01*
X163563213Y-106878437D01*
X163544501Y-106855035D01*
X163520225Y-106820944D01*
X163503610Y-106796021D01*
X163465049Y-106740786D01*
X163424024Y-106691222D01*
X163377220Y-106644351D01*
X163321324Y-106597192D01*
X163253021Y-106546768D01*
X163168998Y-106490099D01*
X163148261Y-106476620D01*
X163060227Y-106425835D01*
X162961920Y-106379573D01*
X162859226Y-106339962D01*
X162758030Y-106309129D01*
X162664216Y-106289202D01*
X162613653Y-106283347D01*
X162542036Y-106283998D01*
X162459565Y-106293718D01*
X162374726Y-106310900D01*
X162296002Y-106333942D01*
X162250555Y-106352017D01*
X162151965Y-106408903D01*
X162067268Y-106482629D01*
X161996823Y-106572582D01*
X161940988Y-106678145D01*
X161900123Y-106798706D01*
X161874585Y-106933649D01*
X161867587Y-107007689D01*
X161865608Y-107043823D01*
X161864963Y-107077174D01*
X161866015Y-107111193D01*
X161869126Y-107149329D01*
X161874661Y-107195034D01*
X161882981Y-107251757D01*
X161894451Y-107322950D01*
X161909432Y-107412063D01*
X161911247Y-107422739D01*
X161935732Y-107547472D01*
X161967197Y-107672550D01*
X162006897Y-107801884D01*
X162056090Y-107939386D01*
X162116030Y-108088969D01*
X162152974Y-108175373D01*
X162220125Y-108311610D01*
X162297047Y-108432279D01*
X162387669Y-108543111D01*
X162446853Y-108603976D01*
X162481039Y-108639965D01*
X162498397Y-108666906D01*
X162500053Y-108688613D01*
X162487136Y-108708899D01*
X162479930Y-108715875D01*
X162462834Y-108727358D01*
X162439801Y-108733225D01*
X162404502Y-108734608D01*
X162378953Y-108733920D01*
X162259386Y-108722159D01*
X162149086Y-108695195D01*
X162039462Y-108650829D01*
X162022826Y-108642677D01*
X161867961Y-108553427D01*
X161720162Y-108445105D01*
X161581180Y-108320077D01*
X161452763Y-108180710D01*
X161336663Y-108029369D01*
X161234629Y-107868419D01*
X161148411Y-107700228D01*
X161079759Y-107527161D01*
X161030422Y-107351584D01*
X161016695Y-107282367D01*
X161009732Y-107224475D01*
X161005589Y-107151491D01*
X161004238Y-107070223D01*
X161005648Y-106987480D01*
X161009790Y-106910073D01*
X161016636Y-106844809D01*
X161018643Y-106831913D01*
X161025165Y-106793260D01*
X160963836Y-106859233D01*
X160941794Y-106884839D01*
X160919045Y-106915624D01*
X160893992Y-106954245D01*
X160865040Y-107003360D01*
X160830591Y-107065626D01*
X160789050Y-107143700D01*
X160762887Y-107193793D01*
X160723988Y-107269185D01*
X160686701Y-107342497D01*
X160652803Y-107410156D01*
X160624068Y-107468592D01*
X160602272Y-107514235D01*
X160590150Y-107541201D01*
X160557823Y-107630694D01*
X160528192Y-107736651D01*
X160502183Y-107853517D01*
X160480722Y-107975739D01*
X160464736Y-108097765D01*
X160455151Y-108214041D01*
X160452895Y-108319015D01*
X160454213Y-108355913D01*
X160462293Y-108479407D01*
X160472554Y-108592003D01*
X160485998Y-108702096D01*
X160503629Y-108818084D01*
X160522125Y-108924652D01*
X160548289Y-109060871D01*
X160574473Y-109178962D01*
X160601825Y-109282854D01*
X160631490Y-109376477D01*
X160664616Y-109463761D01*
X160702348Y-109548635D01*
X160707074Y-109558500D01*
X160724523Y-109604457D01*
X160725432Y-109636226D01*
X160709528Y-109654034D01*
X160676542Y-109658111D01*
X160626204Y-109648687D01*
X160607148Y-109643095D01*
X160556589Y-109620159D01*
X160498516Y-109581985D01*
X160437252Y-109531983D01*
X160377121Y-109473560D01*
X160341402Y-109433533D01*
X160229644Y-109297737D01*
X160131941Y-109172568D01*
X160045682Y-109054153D01*
X159968260Y-108938621D01*
X159897065Y-108822100D01*
X159829488Y-108700721D01*
X159771445Y-108587826D01*
X159706287Y-108454762D01*
X159651575Y-108338311D01*
X159606349Y-108236176D01*
X159569645Y-108146057D01*
X159540502Y-108065655D01*
X159517958Y-107992673D01*
X159510274Y-107963869D01*
X159495931Y-107901076D01*
X159481798Y-107828021D01*
X159468746Y-107750472D01*
X159457648Y-107674199D01*
X159449376Y-107604968D01*
X159444802Y-107548549D01*
X159444174Y-107526639D01*
X159442691Y-107499342D01*
X159438996Y-107484423D01*
X159437636Y-107483478D01*
X159426721Y-107489581D01*
X159401519Y-107506274D01*
X159365587Y-107531129D01*
X159322482Y-107561721D01*
X159314588Y-107567397D01*
X159222478Y-107630241D01*
X159134970Y-107681741D01*
X159042332Y-107727354D01*
X158985870Y-107751826D01*
X158938231Y-107770468D01*
X158887922Y-107788129D01*
X158839533Y-107803446D01*
X158797652Y-107815058D01*
X158766869Y-107821602D01*
X158751772Y-107821717D01*
X158751393Y-107821421D01*
X158749149Y-107806123D01*
X158752466Y-107772944D01*
X158760644Y-107725184D01*
X158772983Y-107666144D01*
X158788783Y-107599123D01*
X158807344Y-107527422D01*
X158827966Y-107454342D01*
X158832441Y-107439304D01*
X158910487Y-107212737D01*
X159006860Y-106993220D01*
X159055248Y-106898174D01*
X159132710Y-106763253D01*
X159226001Y-106619769D01*
X159332426Y-106471193D01*
X159449293Y-106320993D01*
X159573910Y-106172641D01*
X159703582Y-106029606D01*
X159826843Y-105903918D01*
X159949954Y-105785672D01*
X160063293Y-105682022D01*
X160170645Y-105590130D01*
X160275796Y-105507155D01*
X160382530Y-105430257D01*
X160494634Y-105356596D01*
X160615892Y-105283333D01*
X160750090Y-105207628D01*
X160767947Y-105197860D01*
X160918035Y-105118257D01*
X161057517Y-105049533D01*
X161189889Y-104990686D01*
X161318644Y-104940716D01*
X161447279Y-104898621D01*
X161579286Y-104863401D01*
X161718162Y-104834055D01*
X161867400Y-104809582D01*
X162030495Y-104788982D01*
X162210942Y-104771252D01*
X162276826Y-104765704D01*
X162335391Y-104760448D01*
X162386210Y-104754949D01*
X162425171Y-104749724D01*
X162448167Y-104745290D01*
X162452311Y-104743608D01*
X162450128Y-104731901D01*
X162433904Y-104708913D01*
X162406504Y-104677579D01*
X162370792Y-104640832D01*
X162329631Y-104601608D01*
X162285887Y-104562840D01*
X162242422Y-104527463D01*
X162238174Y-104524204D01*
X162182115Y-104484212D01*
X162109878Y-104436949D01*
X162025227Y-104384641D01*
X161931928Y-104329511D01*
X161833744Y-104273783D01*
X161734440Y-104219680D01*
X161637780Y-104169426D01*
X161636305Y-104168680D01*
X161562815Y-104131134D01*
X161507205Y-104101655D01*
X161467349Y-104078940D01*
X161441126Y-104061687D01*
X161426412Y-104048593D01*
X161421083Y-104038358D01*
X161420957Y-104036627D01*
X161427369Y-104029427D01*
X161447796Y-104021322D01*
X161484026Y-104011873D01*
X161537846Y-104000638D01*
X161611044Y-103987178D01*
X161647348Y-103980867D01*
X161783229Y-103963827D01*
X161937459Y-103955939D01*
X162108337Y-103957093D01*
X162294162Y-103967176D01*
X162493234Y-103986077D01*
X162703850Y-104013686D01*
X162924311Y-104049889D01*
X163043473Y-104072310D01*
X163110391Y-104086073D01*
X163177359Y-104100949D01*
X163237861Y-104115419D01*
X163285379Y-104127963D01*
X163297473Y-104131536D01*
X163340943Y-104144489D01*
X163398474Y-104160995D01*
X163462770Y-104178992D01*
X163526534Y-104196412D01*
X163530261Y-104197415D01*
X163704829Y-104252583D01*
X163883519Y-104324456D01*
X164060492Y-104410104D01*
X164229911Y-104506596D01*
X164385938Y-104611002D01*
X164448275Y-104658243D01*
X164561603Y-104742788D01*
X164668431Y-104811414D01*
X164774078Y-104866865D01*
X164883862Y-104911879D01*
X165003103Y-104949199D01*
X165023433Y-104954645D01*
X165174715Y-104989474D01*
X165319062Y-105011852D01*
X165466750Y-105023108D01*
X165567783Y-105025088D01*
X165674298Y-105023473D01*
X165762982Y-105017667D01*
X165837880Y-105006531D01*
X165903036Y-104988927D01*
X165962495Y-104963718D01*
X166020301Y-104929766D01*
X166080498Y-104885932D01*
X166090525Y-104878003D01*
X166181384Y-104801035D01*
X166253011Y-104730188D01*
X166306869Y-104663871D01*
X166342776Y-104603888D01*
X166368946Y-104525878D01*
X166375662Y-104439334D01*
X166362929Y-104346170D01*
X166341992Y-104276807D01*
X166314839Y-104215179D01*
X166279994Y-104160234D01*
X166234604Y-104109056D01*
X166175816Y-104058728D01*
X166100778Y-104006334D01*
X166041174Y-103969333D01*
X165991252Y-103939846D01*
X165946055Y-103914438D01*
X165902537Y-103891867D01*
X165857652Y-103870891D01*
X165808356Y-103850269D01*
X165751603Y-103828759D01*
X165684347Y-103805119D01*
X165603543Y-103778107D01*
X165506145Y-103746482D01*
X165451826Y-103729050D01*
X165367998Y-103702120D01*
X165283059Y-103674671D01*
X165201735Y-103648243D01*
X165128756Y-103624375D01*
X165068846Y-103604606D01*
X165037696Y-103594193D01*
X164969694Y-103573172D01*
X164891093Y-103551826D01*
X164813141Y-103533088D01*
X164764418Y-103522984D01*
X164694234Y-103508795D01*
X164613675Y-103490927D01*
X164527879Y-103470666D01*
X164441989Y-103449298D01*
X164361144Y-103428110D01*
X164290485Y-103408388D01*
X164235152Y-103391419D01*
X164225069Y-103388019D01*
X164184470Y-103372465D01*
X164134236Y-103351082D01*
X164084371Y-103328152D01*
X164078172Y-103325150D01*
X164045240Y-103308199D01*
X164016488Y-103290648D01*
X163988339Y-103269474D01*
X163957218Y-103241653D01*
X163919546Y-103204163D01*
X163871748Y-103153980D01*
X163856832Y-103138065D01*
X163782775Y-103057657D01*
X163723649Y-102990118D01*
X163678267Y-102933216D01*
X163645440Y-102884721D01*
X163623981Y-102842402D01*
X163612702Y-102804028D01*
X163610413Y-102767369D01*
X163615928Y-102730194D01*
X163624233Y-102701344D01*
X163636517Y-102669010D01*
X163648062Y-102646146D01*
X163653221Y-102639997D01*
X163670373Y-102641272D01*
X163697923Y-102656143D01*
X163731747Y-102681563D01*
X163767722Y-102714485D01*
X163796954Y-102746146D01*
X163882056Y-102832648D01*
X163974429Y-102899167D01*
X164076280Y-102947220D01*
X164102395Y-102956178D01*
X164196134Y-102981829D01*
X164294556Y-103001114D01*
X164388964Y-103012573D01*
X164454048Y-103015142D01*
X164502171Y-103009145D01*
X164551764Y-102993761D01*
X164596945Y-102971839D01*
X164631830Y-102946228D01*
X164650441Y-102920058D01*
X164651556Y-102885590D01*
X164636643Y-102840219D01*
X164607359Y-102786273D01*
X164565362Y-102726077D01*
X164512311Y-102661960D01*
X164449862Y-102596248D01*
X164379674Y-102531268D01*
X164363730Y-102517615D01*
X164323075Y-102484636D01*
X164282643Y-102455195D01*
X164238136Y-102426659D01*
X164185253Y-102396392D01*
X164119695Y-102361761D01*
X164059927Y-102331493D01*
X163983769Y-102293855D01*
X163900609Y-102253572D01*
X163817457Y-102213985D01*
X163741322Y-102178439D01*
X163689970Y-102155064D01*
X163554205Y-102093004D01*
X163436670Y-102036211D01*
X163334626Y-101983012D01*
X163245335Y-101931733D01*
X163166058Y-101880703D01*
X163094056Y-101828248D01*
X163026592Y-101772695D01*
X162960926Y-101712372D01*
X162953551Y-101705233D01*
X162902444Y-101654398D01*
X162864674Y-101613664D01*
X162836799Y-101578769D01*
X162815381Y-101545448D01*
X162798942Y-101513623D01*
X162783806Y-101480618D01*
X162773616Y-101453491D01*
X162767403Y-101426474D01*
X162764199Y-101393795D01*
X162763035Y-101349686D01*
X162762925Y-101299130D01*
X162763396Y-101239614D01*
X162765205Y-101196346D01*
X162769228Y-101163493D01*
X162776340Y-101135223D01*
X162787418Y-101105700D01*
X162794431Y-101089304D01*
X162814786Y-101040750D01*
X162837340Y-100984086D01*
X162856052Y-100934695D01*
X162874441Y-100887030D01*
X162894068Y-100840212D01*
X162910825Y-100804023D01*
X162911495Y-100802705D01*
X162929149Y-100764746D01*
X162946977Y-100720846D01*
X162962637Y-100677491D01*
X162973788Y-100641169D01*
X162978087Y-100618367D01*
X162978087Y-100618227D01*
X162968987Y-100605800D01*
X162958105Y-100603391D01*
X162941112Y-100607056D01*
X162908361Y-100616911D01*
X162864720Y-100631243D01*
X162815056Y-100648342D01*
X162764237Y-100666497D01*
X162717131Y-100683995D01*
X162678606Y-100699126D01*
X162653528Y-100710178D01*
X162651736Y-100711105D01*
X162635356Y-100718055D01*
X162601474Y-100731142D01*
X162553406Y-100749131D01*
X162494470Y-100770786D01*
X162427984Y-100794870D01*
X162396967Y-100806000D01*
X162275825Y-100849845D01*
X162170224Y-100889312D01*
X162074631Y-100926645D01*
X161983516Y-100964084D01*
X161891346Y-101003871D01*
X161792590Y-101048249D01*
X161742933Y-101071049D01*
X161550948Y-101164633D01*
X161348618Y-101272514D01*
X161139994Y-101392236D01*
X160929124Y-101521343D01*
X160720058Y-101657381D01*
X160516846Y-101797892D01*
X160381677Y-101896530D01*
X160303352Y-101956772D01*
X160212881Y-102029297D01*
X160113926Y-102110962D01*
X160010149Y-102198627D01*
X159905212Y-102289150D01*
X159802778Y-102379388D01*
X159706510Y-102466201D01*
X159620068Y-102546446D01*
X159584734Y-102580174D01*
X159507192Y-102658826D01*
X159433349Y-102741082D01*
X159364385Y-102825009D01*
X159301480Y-102908672D01*
X159245816Y-102990140D01*
X159198573Y-103067480D01*
X159160932Y-103138758D01*
X159134073Y-103202041D01*
X159119177Y-103255396D01*
X159117425Y-103296891D01*
X159129997Y-103324593D01*
X159130018Y-103324614D01*
X159137563Y-103330550D01*
X159148564Y-103334977D01*
X159165761Y-103338009D01*
X159191891Y-103339761D01*
X159229692Y-103340346D01*
X159281902Y-103339880D01*
X159351260Y-103338476D01*
X159420897Y-103336756D01*
X159508979Y-103334225D01*
X159601425Y-103331099D01*
X159692148Y-103327618D01*
X159775065Y-103324019D01*
X159844090Y-103320541D01*
X159863638Y-103319409D01*
X159980486Y-103313506D01*
X160087038Y-103310465D01*
X160181612Y-103310202D01*
X160262527Y-103312634D01*
X160328102Y-103317677D01*
X160376653Y-103325248D01*
X160406501Y-103335263D01*
X160416000Y-103346850D01*
X160406770Y-103357480D01*
X160382375Y-103373975D01*
X160347758Y-103393059D01*
X160341457Y-103396205D01*
X160229072Y-103456653D01*
X160106795Y-103531764D01*
X159978484Y-103618916D01*
X159847993Y-103715485D01*
X159719180Y-103818848D01*
X159714740Y-103822565D01*
X159676050Y-103853280D01*
X159629339Y-103887955D01*
X159588170Y-103916723D01*
X159551919Y-103942763D01*
X159505091Y-103978865D01*
X159453578Y-104020373D01*
X159403273Y-104062631D01*
X159400431Y-104065081D01*
X159347777Y-104110123D01*
X159291289Y-104157757D01*
X159237866Y-104202203D01*
X159195696Y-104236642D01*
X159076206Y-104334800D01*
X158971385Y-104425650D01*
X158876977Y-104513275D01*
X158788728Y-104601759D01*
X158702383Y-104695184D01*
X158624808Y-104784477D01*
X158582471Y-104834620D01*
X158552605Y-104870878D01*
X158533285Y-104896118D01*
X158522590Y-104913211D01*
X158518595Y-104925023D01*
X158519378Y-104934422D01*
X158521020Y-104939269D01*
X158536726Y-104951229D01*
X158568557Y-104952239D01*
X158613990Y-104943189D01*
X158670504Y-104924970D01*
X158735577Y-104898469D01*
X158806687Y-104864578D01*
X158881312Y-104824185D01*
X158930653Y-104794775D01*
X159006639Y-104746161D01*
X159080986Y-104695057D01*
X159156553Y-104639208D01*
X159236203Y-104576364D01*
X159322793Y-104504271D01*
X159419185Y-104420675D01*
X159521479Y-104329422D01*
X159587004Y-104268957D01*
X159637859Y-104218564D01*
X159677022Y-104175039D01*
X159707476Y-104135178D01*
X159720261Y-104115790D01*
X159750471Y-104067770D01*
X159771300Y-104035649D01*
X159785101Y-104016609D01*
X159794223Y-104007836D01*
X159801018Y-104006514D01*
X159807836Y-104009826D01*
X159808423Y-104010189D01*
X159814903Y-104020232D01*
X159818296Y-104042519D01*
X159818817Y-104080298D01*
X159816713Y-104136115D01*
X159804487Y-104246929D01*
X159778180Y-104356440D01*
X159736129Y-104471219D01*
X159725660Y-104495436D01*
X159707464Y-104533558D01*
X159680069Y-104587061D01*
X159645497Y-104652304D01*
X159605772Y-104725645D01*
X159562915Y-104803442D01*
X159518951Y-104882054D01*
X159475901Y-104957840D01*
X159435790Y-105027157D01*
X159400640Y-105086363D01*
X159372474Y-105131818D01*
X159370106Y-105135487D01*
X159221651Y-105344421D01*
X159053013Y-105544514D01*
X158864309Y-105735631D01*
X158814128Y-105781887D01*
X158692970Y-105885254D01*
X158568702Y-105978124D01*
X158437656Y-106062660D01*
X158296163Y-106141027D01*
X158140555Y-106215389D01*
X157967166Y-106287910D01*
X157935556Y-106300250D01*
X157862543Y-106328897D01*
X157794275Y-106356449D01*
X157734158Y-106381470D01*
X157685601Y-106402523D01*
X157652013Y-106418174D01*
X157639569Y-106424930D01*
X157614639Y-106445140D01*
X157591512Y-106474610D01*
X157566709Y-106518166D01*
X157554286Y-106543206D01*
X157497778Y-106669675D01*
X157443409Y-106808700D01*
X157393703Y-106952889D01*
X157351181Y-107094854D01*
X157318367Y-107227204D01*
X157314382Y-107246043D01*
X157299831Y-107319184D01*
X157287759Y-107386711D01*
X157277931Y-107451762D01*
X157270114Y-107517476D01*
X157264073Y-107586991D01*
X157259574Y-107663446D01*
X157256381Y-107749980D01*
X157254262Y-107849731D01*
X157252981Y-107965838D01*
X157252389Y-108076138D01*
X157251891Y-108192526D01*
X157251188Y-108288679D01*
X157250064Y-108366447D01*
X157248308Y-108427682D01*
X157245706Y-108474236D01*
X157242044Y-108507959D01*
X157237111Y-108530703D01*
X157230692Y-108544320D01*
X157222574Y-108550660D01*
X157212544Y-108551576D01*
X157200390Y-108548917D01*
X157198028Y-108548223D01*
X157166070Y-108530548D01*
X157126877Y-108496059D01*
X157082837Y-108447823D01*
X157036341Y-108388905D01*
X156989776Y-108322372D01*
X156945531Y-108251289D01*
X156905995Y-108178723D01*
X156898751Y-108164071D01*
X156818793Y-107974592D01*
X156756276Y-107771690D01*
X156711224Y-107555519D01*
X156683656Y-107326231D01*
X156673595Y-107083981D01*
X156681060Y-106828922D01*
X156693222Y-106677304D01*
X156704575Y-106565948D01*
X156715329Y-106472306D01*
X156726232Y-106392046D01*
X156738032Y-106320835D01*
X156751476Y-106254342D01*
X156767312Y-106188235D01*
X156786287Y-106118180D01*
X156794898Y-106088173D01*
X156894872Y-105777875D01*
X157010859Y-105479566D01*
X157142173Y-105194807D01*
X157288124Y-104925163D01*
X157357274Y-104810956D01*
X157442706Y-104674896D01*
X157517750Y-104556097D01*
X157583495Y-104452949D01*
X157641030Y-104363841D01*
X157691443Y-104287162D01*
X157735823Y-104221303D01*
X157775257Y-104164653D01*
X157810833Y-104115600D01*
X157843642Y-104072535D01*
X157874770Y-104033847D01*
X157905306Y-103997926D01*
X157911397Y-103990978D01*
X157938572Y-103958461D01*
X157956946Y-103933130D01*
X157964064Y-103918565D01*
X157962485Y-103916434D01*
X157946483Y-103919413D01*
X157914269Y-103927488D01*
X157870778Y-103939367D01*
X157828795Y-103951441D01*
X157767529Y-103968631D01*
X157725461Y-103977254D01*
X157700887Y-103975877D01*
X157692102Y-103963064D01*
X157697401Y-103937381D01*
X157715080Y-103897394D01*
X157729793Y-103868137D01*
X157805772Y-103731420D01*
X157897053Y-103587290D01*
X158000526Y-103440531D01*
X158051398Y-103373409D01*
X158130572Y-103271290D01*
X158197911Y-103184529D01*
X158255106Y-103111021D01*
X158303846Y-103048663D01*
X158345822Y-102995350D01*
X158382723Y-102948978D01*
X158416239Y-102907443D01*
X158448061Y-102868641D01*
X158479879Y-102830467D01*
X158513381Y-102790818D01*
X158550260Y-102747589D01*
X158592203Y-102698677D01*
X158609608Y-102678410D01*
X158731160Y-102543864D01*
X158872511Y-102400170D01*
X159033446Y-102247529D01*
X159213754Y-102086138D01*
X159413220Y-101916197D01*
X159524784Y-101824236D01*
X159738443Y-101659019D01*
X159970329Y-101496604D01*
X160216583Y-101339505D01*
X160473347Y-101190233D01*
X160620305Y-101110987D01*
X160683080Y-101077732D01*
X160756051Y-101038542D01*
X160830164Y-100998307D01*
X160896362Y-100961917D01*
X160896392Y-100961900D01*
X161139847Y-100832466D01*
X161395059Y-100707171D01*
X161654349Y-100589573D01*
X161910041Y-100483232D01*
X162022826Y-100439644D01*
X162066243Y-100422776D01*
X162123244Y-100399892D01*
X162187131Y-100373719D01*
X162251202Y-100346982D01*
X162265783Y-100340818D01*
X162339984Y-100311337D01*
X162425954Y-100280532D01*
X162521120Y-100249059D01*
X162622906Y-100217573D01*
X162728737Y-100186728D01*
X162836037Y-100157179D01*
X162942232Y-100129582D01*
X163044745Y-100104591D01*
X163141002Y-100082861D01*
X163228428Y-100065047D01*
X163304447Y-100051805D01*
X163366484Y-100043788D01*
X163411964Y-100041653D01*
X163432691Y-100044040D01*
X163432691Y-100044040D01*
G37*
X163432691Y-100044040D02*
X163459960Y-100061405D01*
X163487843Y-100097869D01*
X163514392Y-100150593D01*
X163525528Y-100179271D01*
X163530643Y-100196075D01*
X163534945Y-100216912D01*
X163538565Y-100244058D01*
X163541634Y-100279787D01*
X163544284Y-100326376D01*
X163546645Y-100386101D01*
X163548849Y-100461237D01*
X163551026Y-100554060D01*
X163553149Y-100658608D01*
X163555772Y-100782192D01*
X163558565Y-100886024D01*
X163561716Y-100972440D01*
X163565412Y-101043776D01*
X163569838Y-101102366D01*
X163575183Y-101150547D01*
X163581633Y-101190653D01*
X163589375Y-101225021D01*
X163598595Y-101255985D01*
X163601640Y-101264856D01*
X163620596Y-101306434D01*
X163651302Y-101360012D01*
X163690649Y-101421254D01*
X163735524Y-101485820D01*
X163782817Y-101549374D01*
X163829416Y-101607578D01*
X163872209Y-101656094D01*
X163905370Y-101688296D01*
X163925403Y-101701974D01*
X163962546Y-101723928D01*
X164014088Y-101752686D01*
X164077316Y-101786779D01*
X164149521Y-101824735D01*
X164227991Y-101865084D01*
X164277350Y-101890030D01*
X164399414Y-101952130D01*
X164503472Y-102007348D01*
X164591777Y-102057604D01*
X164666582Y-102104816D01*
X164730139Y-102150904D01*
X164784701Y-102197786D01*
X164832521Y-102247380D01*
X164875850Y-102301607D01*
X164916943Y-102362384D01*
X164958051Y-102431630D01*
X164997107Y-102503124D01*
X165017540Y-102545746D01*
X165040173Y-102599805D01*
X165063381Y-102660569D01*
X165085540Y-102723308D01*
X165105025Y-102783292D01*
X165120211Y-102835789D01*
X165129475Y-102876070D01*
X165131566Y-102894642D01*
X165136270Y-102910393D01*
X165148851Y-102940430D01*
X165167015Y-102979433D01*
X165176329Y-102998356D01*
X165205681Y-103051953D01*
X165235535Y-103093253D01*
X165272740Y-103131113D01*
X165291859Y-103147826D01*
X165363793Y-103202561D01*
X165453213Y-103260357D01*
X165556141Y-103319058D01*
X165668602Y-103376507D01*
X165786618Y-103430546D01*
X165893566Y-103474203D01*
X166032473Y-103528772D01*
X166162520Y-103582362D01*
X166281465Y-103633961D01*
X166387066Y-103682554D01*
X166477083Y-103727127D01*
X166549276Y-103766666D01*
X166576041Y-103782986D01*
X166685190Y-103854184D01*
X166775823Y-103917082D01*
X166849349Y-103972907D01*
X166907180Y-104022887D01*
X166950725Y-104068246D01*
X166981395Y-104110213D01*
X167000600Y-104150012D01*
X167001662Y-104153076D01*
X167013708Y-104207642D01*
X167019203Y-104274726D01*
X167018129Y-104345743D01*
X167010464Y-104412112D01*
X167002358Y-104447278D01*
X166962253Y-104549251D01*
X166901081Y-104654868D01*
X166819415Y-104763355D01*
X166717831Y-104873937D01*
X166613714Y-104971232D01*
X166493260Y-105071649D01*
X166379685Y-105154847D01*
X166269273Y-105222985D01*
X166158309Y-105278225D01*
X166043078Y-105322726D01*
X165970870Y-105345023D01*
X165907076Y-105362625D01*
X165851132Y-105376590D01*
X165799409Y-105387217D01*
X165748277Y-105394810D01*
X165694105Y-105399670D01*
X165633263Y-105402098D01*
X165562121Y-105402397D01*
X165477049Y-105400868D01*
X165374417Y-105397813D01*
X165346913Y-105396892D01*
X165187994Y-105389937D01*
X165038519Y-105380304D01*
X164901118Y-105368250D01*
X164778417Y-105354034D01*
X164673044Y-105337912D01*
X164603554Y-105323946D01*
X164565988Y-105315651D01*
X164536880Y-105309859D01*
X164523489Y-105307913D01*
X164513946Y-105316623D01*
X164514982Y-105339864D01*
X164525696Y-105373296D01*
X164545183Y-105412583D01*
X164545323Y-105412826D01*
X164580275Y-105465692D01*
X164622895Y-105515317D01*
X164675674Y-105563697D01*
X164741101Y-105612831D01*
X164821668Y-105664715D01*
X164919863Y-105721346D01*
X164951849Y-105738864D01*
X165048201Y-105793659D01*
X165129247Y-105845044D01*
X165193737Y-105892077D01*
X165240416Y-105933816D01*
X165268033Y-105969318D01*
X165273075Y-105980415D01*
X165284858Y-106014214D01*
X165213100Y-106036378D01*
X165117346Y-106058291D01*
X165006598Y-106070482D01*
X164885717Y-106072912D01*
X164759560Y-106065542D01*
X164632987Y-106048332D01*
X164596475Y-106041410D01*
X164521419Y-106024045D01*
X164433246Y-106000172D01*
X164339152Y-105971957D01*
X164246332Y-105941566D01*
X164161982Y-105911168D01*
X164154590Y-105908327D01*
X164109398Y-105892071D01*
X164058094Y-105875541D01*
X164005123Y-105859929D01*
X163954932Y-105846425D01*
X163911970Y-105836221D01*
X163880681Y-105830508D01*
X163865513Y-105830477D01*
X163865100Y-105830784D01*
X163864546Y-105845548D01*
X163877921Y-105869575D01*
X163901868Y-105898379D01*
X163933030Y-105927471D01*
X163943795Y-105935971D01*
X164014140Y-105983337D01*
X164085921Y-106018806D01*
X164164747Y-106044379D01*
X164256224Y-106062055D01*
X164318597Y-106069609D01*
X164363848Y-106075339D01*
X164401077Y-106082201D01*
X164424498Y-106089039D01*
X164428828Y-106091628D01*
X164432429Y-106109462D01*
X164423157Y-106137368D01*
X164404125Y-106170179D01*
X164378446Y-106202727D01*
X164349234Y-106229845D01*
X164342744Y-106234500D01*
X164293809Y-106263358D01*
X164237398Y-106287746D01*
X164168059Y-106309779D01*
X164111214Y-106324382D01*
X164010487Y-106341862D01*
X163912492Y-106344348D01*
X163813420Y-106331259D01*
X163709458Y-106302013D01*
X163596796Y-106256031D01*
X163565295Y-106241110D01*
X163492629Y-106208386D01*
X163434459Y-106187695D01*
X163391839Y-106179322D01*
X163365823Y-106183554D01*
X163362442Y-106186196D01*
X163367375Y-106195780D01*
X163385327Y-106217008D01*
X163413212Y-106246411D01*
X163437116Y-106270123D01*
X163516846Y-106361219D01*
X163575997Y-106459727D01*
X163614336Y-106565117D01*
X163631633Y-106676858D01*
X163632665Y-106718326D01*
X163630992Y-106769107D01*
X163626065Y-106804771D01*
X163616566Y-106832202D01*
X163607807Y-106848087D01*
X163590484Y-106872426D01*
X163576347Y-106886068D01*
X163573286Y-106887130D01*
X163563213Y-106878437D01*
X163544501Y-106855035D01*
X163520225Y-106820944D01*
X163503610Y-106796021D01*
X163465049Y-106740786D01*
X163424024Y-106691222D01*
X163377220Y-106644351D01*
X163321324Y-106597192D01*
X163253021Y-106546768D01*
X163168998Y-106490099D01*
X163148261Y-106476620D01*
X163060227Y-106425835D01*
X162961920Y-106379573D01*
X162859226Y-106339962D01*
X162758030Y-106309129D01*
X162664216Y-106289202D01*
X162613653Y-106283347D01*
X162542036Y-106283998D01*
X162459565Y-106293718D01*
X162374726Y-106310900D01*
X162296002Y-106333942D01*
X162250555Y-106352017D01*
X162151965Y-106408903D01*
X162067268Y-106482629D01*
X161996823Y-106572582D01*
X161940988Y-106678145D01*
X161900123Y-106798706D01*
X161874585Y-106933649D01*
X161867587Y-107007689D01*
X161865608Y-107043823D01*
X161864963Y-107077174D01*
X161866015Y-107111193D01*
X161869126Y-107149329D01*
X161874661Y-107195034D01*
X161882981Y-107251757D01*
X161894451Y-107322950D01*
X161909432Y-107412063D01*
X161911247Y-107422739D01*
X161935732Y-107547472D01*
X161967197Y-107672550D01*
X162006897Y-107801884D01*
X162056090Y-107939386D01*
X162116030Y-108088969D01*
X162152974Y-108175373D01*
X162220125Y-108311610D01*
X162297047Y-108432279D01*
X162387669Y-108543111D01*
X162446853Y-108603976D01*
X162481039Y-108639965D01*
X162498397Y-108666906D01*
X162500053Y-108688613D01*
X162487136Y-108708899D01*
X162479930Y-108715875D01*
X162462834Y-108727358D01*
X162439801Y-108733225D01*
X162404502Y-108734608D01*
X162378953Y-108733920D01*
X162259386Y-108722159D01*
X162149086Y-108695195D01*
X162039462Y-108650829D01*
X162022826Y-108642677D01*
X161867961Y-108553427D01*
X161720162Y-108445105D01*
X161581180Y-108320077D01*
X161452763Y-108180710D01*
X161336663Y-108029369D01*
X161234629Y-107868419D01*
X161148411Y-107700228D01*
X161079759Y-107527161D01*
X161030422Y-107351584D01*
X161016695Y-107282367D01*
X161009732Y-107224475D01*
X161005589Y-107151491D01*
X161004238Y-107070223D01*
X161005648Y-106987480D01*
X161009790Y-106910073D01*
X161016636Y-106844809D01*
X161018643Y-106831913D01*
X161025165Y-106793260D01*
X160963836Y-106859233D01*
X160941794Y-106884839D01*
X160919045Y-106915624D01*
X160893992Y-106954245D01*
X160865040Y-107003360D01*
X160830591Y-107065626D01*
X160789050Y-107143700D01*
X160762887Y-107193793D01*
X160723988Y-107269185D01*
X160686701Y-107342497D01*
X160652803Y-107410156D01*
X160624068Y-107468592D01*
X160602272Y-107514235D01*
X160590150Y-107541201D01*
X160557823Y-107630694D01*
X160528192Y-107736651D01*
X160502183Y-107853517D01*
X160480722Y-107975739D01*
X160464736Y-108097765D01*
X160455151Y-108214041D01*
X160452895Y-108319015D01*
X160454213Y-108355913D01*
X160462293Y-108479407D01*
X160472554Y-108592003D01*
X160485998Y-108702096D01*
X160503629Y-108818084D01*
X160522125Y-108924652D01*
X160548289Y-109060871D01*
X160574473Y-109178962D01*
X160601825Y-109282854D01*
X160631490Y-109376477D01*
X160664616Y-109463761D01*
X160702348Y-109548635D01*
X160707074Y-109558500D01*
X160724523Y-109604457D01*
X160725432Y-109636226D01*
X160709528Y-109654034D01*
X160676542Y-109658111D01*
X160626204Y-109648687D01*
X160607148Y-109643095D01*
X160556589Y-109620159D01*
X160498516Y-109581985D01*
X160437252Y-109531983D01*
X160377121Y-109473560D01*
X160341402Y-109433533D01*
X160229644Y-109297737D01*
X160131941Y-109172568D01*
X160045682Y-109054153D01*
X159968260Y-108938621D01*
X159897065Y-108822100D01*
X159829488Y-108700721D01*
X159771445Y-108587826D01*
X159706287Y-108454762D01*
X159651575Y-108338311D01*
X159606349Y-108236176D01*
X159569645Y-108146057D01*
X159540502Y-108065655D01*
X159517958Y-107992673D01*
X159510274Y-107963869D01*
X159495931Y-107901076D01*
X159481798Y-107828021D01*
X159468746Y-107750472D01*
X159457648Y-107674199D01*
X159449376Y-107604968D01*
X159444802Y-107548549D01*
X159444174Y-107526639D01*
X159442691Y-107499342D01*
X159438996Y-107484423D01*
X159437636Y-107483478D01*
X159426721Y-107489581D01*
X159401519Y-107506274D01*
X159365587Y-107531129D01*
X159322482Y-107561721D01*
X159314588Y-107567397D01*
X159222478Y-107630241D01*
X159134970Y-107681741D01*
X159042332Y-107727354D01*
X158985870Y-107751826D01*
X158938231Y-107770468D01*
X158887922Y-107788129D01*
X158839533Y-107803446D01*
X158797652Y-107815058D01*
X158766869Y-107821602D01*
X158751772Y-107821717D01*
X158751393Y-107821421D01*
X158749149Y-107806123D01*
X158752466Y-107772944D01*
X158760644Y-107725184D01*
X158772983Y-107666144D01*
X158788783Y-107599123D01*
X158807344Y-107527422D01*
X158827966Y-107454342D01*
X158832441Y-107439304D01*
X158910487Y-107212737D01*
X159006860Y-106993220D01*
X159055248Y-106898174D01*
X159132710Y-106763253D01*
X159226001Y-106619769D01*
X159332426Y-106471193D01*
X159449293Y-106320993D01*
X159573910Y-106172641D01*
X159703582Y-106029606D01*
X159826843Y-105903918D01*
X159949954Y-105785672D01*
X160063293Y-105682022D01*
X160170645Y-105590130D01*
X160275796Y-105507155D01*
X160382530Y-105430257D01*
X160494634Y-105356596D01*
X160615892Y-105283333D01*
X160750090Y-105207628D01*
X160767947Y-105197860D01*
X160918035Y-105118257D01*
X161057517Y-105049533D01*
X161189889Y-104990686D01*
X161318644Y-104940716D01*
X161447279Y-104898621D01*
X161579286Y-104863401D01*
X161718162Y-104834055D01*
X161867400Y-104809582D01*
X162030495Y-104788982D01*
X162210942Y-104771252D01*
X162276826Y-104765704D01*
X162335391Y-104760448D01*
X162386210Y-104754949D01*
X162425171Y-104749724D01*
X162448167Y-104745290D01*
X162452311Y-104743608D01*
X162450128Y-104731901D01*
X162433904Y-104708913D01*
X162406504Y-104677579D01*
X162370792Y-104640832D01*
X162329631Y-104601608D01*
X162285887Y-104562840D01*
X162242422Y-104527463D01*
X162238174Y-104524204D01*
X162182115Y-104484212D01*
X162109878Y-104436949D01*
X162025227Y-104384641D01*
X161931928Y-104329511D01*
X161833744Y-104273783D01*
X161734440Y-104219680D01*
X161637780Y-104169426D01*
X161636305Y-104168680D01*
X161562815Y-104131134D01*
X161507205Y-104101655D01*
X161467349Y-104078940D01*
X161441126Y-104061687D01*
X161426412Y-104048593D01*
X161421083Y-104038358D01*
X161420957Y-104036627D01*
X161427369Y-104029427D01*
X161447796Y-104021322D01*
X161484026Y-104011873D01*
X161537846Y-104000638D01*
X161611044Y-103987178D01*
X161647348Y-103980867D01*
X161783229Y-103963827D01*
X161937459Y-103955939D01*
X162108337Y-103957093D01*
X162294162Y-103967176D01*
X162493234Y-103986077D01*
X162703850Y-104013686D01*
X162924311Y-104049889D01*
X163043473Y-104072310D01*
X163110391Y-104086073D01*
X163177359Y-104100949D01*
X163237861Y-104115419D01*
X163285379Y-104127963D01*
X163297473Y-104131536D01*
X163340943Y-104144489D01*
X163398474Y-104160995D01*
X163462770Y-104178992D01*
X163526534Y-104196412D01*
X163530261Y-104197415D01*
X163704829Y-104252583D01*
X163883519Y-104324456D01*
X164060492Y-104410104D01*
X164229911Y-104506596D01*
X164385938Y-104611002D01*
X164448275Y-104658243D01*
X164561603Y-104742788D01*
X164668431Y-104811414D01*
X164774078Y-104866865D01*
X164883862Y-104911879D01*
X165003103Y-104949199D01*
X165023433Y-104954645D01*
X165174715Y-104989474D01*
X165319062Y-105011852D01*
X165466750Y-105023108D01*
X165567783Y-105025088D01*
X165674298Y-105023473D01*
X165762982Y-105017667D01*
X165837880Y-105006531D01*
X165903036Y-104988927D01*
X165962495Y-104963718D01*
X166020301Y-104929766D01*
X166080498Y-104885932D01*
X166090525Y-104878003D01*
X166181384Y-104801035D01*
X166253011Y-104730188D01*
X166306869Y-104663871D01*
X166342776Y-104603888D01*
X166368946Y-104525878D01*
X166375662Y-104439334D01*
X166362929Y-104346170D01*
X166341992Y-104276807D01*
X166314839Y-104215179D01*
X166279994Y-104160234D01*
X166234604Y-104109056D01*
X166175816Y-104058728D01*
X166100778Y-104006334D01*
X166041174Y-103969333D01*
X165991252Y-103939846D01*
X165946055Y-103914438D01*
X165902537Y-103891867D01*
X165857652Y-103870891D01*
X165808356Y-103850269D01*
X165751603Y-103828759D01*
X165684347Y-103805119D01*
X165603543Y-103778107D01*
X165506145Y-103746482D01*
X165451826Y-103729050D01*
X165367998Y-103702120D01*
X165283059Y-103674671D01*
X165201735Y-103648243D01*
X165128756Y-103624375D01*
X165068846Y-103604606D01*
X165037696Y-103594193D01*
X164969694Y-103573172D01*
X164891093Y-103551826D01*
X164813141Y-103533088D01*
X164764418Y-103522984D01*
X164694234Y-103508795D01*
X164613675Y-103490927D01*
X164527879Y-103470666D01*
X164441989Y-103449298D01*
X164361144Y-103428110D01*
X164290485Y-103408388D01*
X164235152Y-103391419D01*
X164225069Y-103388019D01*
X164184470Y-103372465D01*
X164134236Y-103351082D01*
X164084371Y-103328152D01*
X164078172Y-103325150D01*
X164045240Y-103308199D01*
X164016488Y-103290648D01*
X163988339Y-103269474D01*
X163957218Y-103241653D01*
X163919546Y-103204163D01*
X163871748Y-103153980D01*
X163856832Y-103138065D01*
X163782775Y-103057657D01*
X163723649Y-102990118D01*
X163678267Y-102933216D01*
X163645440Y-102884721D01*
X163623981Y-102842402D01*
X163612702Y-102804028D01*
X163610413Y-102767369D01*
X163615928Y-102730194D01*
X163624233Y-102701344D01*
X163636517Y-102669010D01*
X163648062Y-102646146D01*
X163653221Y-102639997D01*
X163670373Y-102641272D01*
X163697923Y-102656143D01*
X163731747Y-102681563D01*
X163767722Y-102714485D01*
X163796954Y-102746146D01*
X163882056Y-102832648D01*
X163974429Y-102899167D01*
X164076280Y-102947220D01*
X164102395Y-102956178D01*
X164196134Y-102981829D01*
X164294556Y-103001114D01*
X164388964Y-103012573D01*
X164454048Y-103015142D01*
X164502171Y-103009145D01*
X164551764Y-102993761D01*
X164596945Y-102971839D01*
X164631830Y-102946228D01*
X164650441Y-102920058D01*
X164651556Y-102885590D01*
X164636643Y-102840219D01*
X164607359Y-102786273D01*
X164565362Y-102726077D01*
X164512311Y-102661960D01*
X164449862Y-102596248D01*
X164379674Y-102531268D01*
X164363730Y-102517615D01*
X164323075Y-102484636D01*
X164282643Y-102455195D01*
X164238136Y-102426659D01*
X164185253Y-102396392D01*
X164119695Y-102361761D01*
X164059927Y-102331493D01*
X163983769Y-102293855D01*
X163900609Y-102253572D01*
X163817457Y-102213985D01*
X163741322Y-102178439D01*
X163689970Y-102155064D01*
X163554205Y-102093004D01*
X163436670Y-102036211D01*
X163334626Y-101983012D01*
X163245335Y-101931733D01*
X163166058Y-101880703D01*
X163094056Y-101828248D01*
X163026592Y-101772695D01*
X162960926Y-101712372D01*
X162953551Y-101705233D01*
X162902444Y-101654398D01*
X162864674Y-101613664D01*
X162836799Y-101578769D01*
X162815381Y-101545448D01*
X162798942Y-101513623D01*
X162783806Y-101480618D01*
X162773616Y-101453491D01*
X162767403Y-101426474D01*
X162764199Y-101393795D01*
X162763035Y-101349686D01*
X162762925Y-101299130D01*
X162763396Y-101239614D01*
X162765205Y-101196346D01*
X162769228Y-101163493D01*
X162776340Y-101135223D01*
X162787418Y-101105700D01*
X162794431Y-101089304D01*
X162814786Y-101040750D01*
X162837340Y-100984086D01*
X162856052Y-100934695D01*
X162874441Y-100887030D01*
X162894068Y-100840212D01*
X162910825Y-100804023D01*
X162911495Y-100802705D01*
X162929149Y-100764746D01*
X162946977Y-100720846D01*
X162962637Y-100677491D01*
X162973788Y-100641169D01*
X162978087Y-100618367D01*
X162978087Y-100618227D01*
X162968987Y-100605800D01*
X162958105Y-100603391D01*
X162941112Y-100607056D01*
X162908361Y-100616911D01*
X162864720Y-100631243D01*
X162815056Y-100648342D01*
X162764237Y-100666497D01*
X162717131Y-100683995D01*
X162678606Y-100699126D01*
X162653528Y-100710178D01*
X162651736Y-100711105D01*
X162635356Y-100718055D01*
X162601474Y-100731142D01*
X162553406Y-100749131D01*
X162494470Y-100770786D01*
X162427984Y-100794870D01*
X162396967Y-100806000D01*
X162275825Y-100849845D01*
X162170224Y-100889312D01*
X162074631Y-100926645D01*
X161983516Y-100964084D01*
X161891346Y-101003871D01*
X161792590Y-101048249D01*
X161742933Y-101071049D01*
X161550948Y-101164633D01*
X161348618Y-101272514D01*
X161139994Y-101392236D01*
X160929124Y-101521343D01*
X160720058Y-101657381D01*
X160516846Y-101797892D01*
X160381677Y-101896530D01*
X160303352Y-101956772D01*
X160212881Y-102029297D01*
X160113926Y-102110962D01*
X160010149Y-102198627D01*
X159905212Y-102289150D01*
X159802778Y-102379388D01*
X159706510Y-102466201D01*
X159620068Y-102546446D01*
X159584734Y-102580174D01*
X159507192Y-102658826D01*
X159433349Y-102741082D01*
X159364385Y-102825009D01*
X159301480Y-102908672D01*
X159245816Y-102990140D01*
X159198573Y-103067480D01*
X159160932Y-103138758D01*
X159134073Y-103202041D01*
X159119177Y-103255396D01*
X159117425Y-103296891D01*
X159129997Y-103324593D01*
X159130018Y-103324614D01*
X159137563Y-103330550D01*
X159148564Y-103334977D01*
X159165761Y-103338009D01*
X159191891Y-103339761D01*
X159229692Y-103340346D01*
X159281902Y-103339880D01*
X159351260Y-103338476D01*
X159420897Y-103336756D01*
X159508979Y-103334225D01*
X159601425Y-103331099D01*
X159692148Y-103327618D01*
X159775065Y-103324019D01*
X159844090Y-103320541D01*
X159863638Y-103319409D01*
X159980486Y-103313506D01*
X160087038Y-103310465D01*
X160181612Y-103310202D01*
X160262527Y-103312634D01*
X160328102Y-103317677D01*
X160376653Y-103325248D01*
X160406501Y-103335263D01*
X160416000Y-103346850D01*
X160406770Y-103357480D01*
X160382375Y-103373975D01*
X160347758Y-103393059D01*
X160341457Y-103396205D01*
X160229072Y-103456653D01*
X160106795Y-103531764D01*
X159978484Y-103618916D01*
X159847993Y-103715485D01*
X159719180Y-103818848D01*
X159714740Y-103822565D01*
X159676050Y-103853280D01*
X159629339Y-103887955D01*
X159588170Y-103916723D01*
X159551919Y-103942763D01*
X159505091Y-103978865D01*
X159453578Y-104020373D01*
X159403273Y-104062631D01*
X159400431Y-104065081D01*
X159347777Y-104110123D01*
X159291289Y-104157757D01*
X159237866Y-104202203D01*
X159195696Y-104236642D01*
X159076206Y-104334800D01*
X158971385Y-104425650D01*
X158876977Y-104513275D01*
X158788728Y-104601759D01*
X158702383Y-104695184D01*
X158624808Y-104784477D01*
X158582471Y-104834620D01*
X158552605Y-104870878D01*
X158533285Y-104896118D01*
X158522590Y-104913211D01*
X158518595Y-104925023D01*
X158519378Y-104934422D01*
X158521020Y-104939269D01*
X158536726Y-104951229D01*
X158568557Y-104952239D01*
X158613990Y-104943189D01*
X158670504Y-104924970D01*
X158735577Y-104898469D01*
X158806687Y-104864578D01*
X158881312Y-104824185D01*
X158930653Y-104794775D01*
X159006639Y-104746161D01*
X159080986Y-104695057D01*
X159156553Y-104639208D01*
X159236203Y-104576364D01*
X159322793Y-104504271D01*
X159419185Y-104420675D01*
X159521479Y-104329422D01*
X159587004Y-104268957D01*
X159637859Y-104218564D01*
X159677022Y-104175039D01*
X159707476Y-104135178D01*
X159720261Y-104115790D01*
X159750471Y-104067770D01*
X159771300Y-104035649D01*
X159785101Y-104016609D01*
X159794223Y-104007836D01*
X159801018Y-104006514D01*
X159807836Y-104009826D01*
X159808423Y-104010189D01*
X159814903Y-104020232D01*
X159818296Y-104042519D01*
X159818817Y-104080298D01*
X159816713Y-104136115D01*
X159804487Y-104246929D01*
X159778180Y-104356440D01*
X159736129Y-104471219D01*
X159725660Y-104495436D01*
X159707464Y-104533558D01*
X159680069Y-104587061D01*
X159645497Y-104652304D01*
X159605772Y-104725645D01*
X159562915Y-104803442D01*
X159518951Y-104882054D01*
X159475901Y-104957840D01*
X159435790Y-105027157D01*
X159400640Y-105086363D01*
X159372474Y-105131818D01*
X159370106Y-105135487D01*
X159221651Y-105344421D01*
X159053013Y-105544514D01*
X158864309Y-105735631D01*
X158814128Y-105781887D01*
X158692970Y-105885254D01*
X158568702Y-105978124D01*
X158437656Y-106062660D01*
X158296163Y-106141027D01*
X158140555Y-106215389D01*
X157967166Y-106287910D01*
X157935556Y-106300250D01*
X157862543Y-106328897D01*
X157794275Y-106356449D01*
X157734158Y-106381470D01*
X157685601Y-106402523D01*
X157652013Y-106418174D01*
X157639569Y-106424930D01*
X157614639Y-106445140D01*
X157591512Y-106474610D01*
X157566709Y-106518166D01*
X157554286Y-106543206D01*
X157497778Y-106669675D01*
X157443409Y-106808700D01*
X157393703Y-106952889D01*
X157351181Y-107094854D01*
X157318367Y-107227204D01*
X157314382Y-107246043D01*
X157299831Y-107319184D01*
X157287759Y-107386711D01*
X157277931Y-107451762D01*
X157270114Y-107517476D01*
X157264073Y-107586991D01*
X157259574Y-107663446D01*
X157256381Y-107749980D01*
X157254262Y-107849731D01*
X157252981Y-107965838D01*
X157252389Y-108076138D01*
X157251891Y-108192526D01*
X157251188Y-108288679D01*
X157250064Y-108366447D01*
X157248308Y-108427682D01*
X157245706Y-108474236D01*
X157242044Y-108507959D01*
X157237111Y-108530703D01*
X157230692Y-108544320D01*
X157222574Y-108550660D01*
X157212544Y-108551576D01*
X157200390Y-108548917D01*
X157198028Y-108548223D01*
X157166070Y-108530548D01*
X157126877Y-108496059D01*
X157082837Y-108447823D01*
X157036341Y-108388905D01*
X156989776Y-108322372D01*
X156945531Y-108251289D01*
X156905995Y-108178723D01*
X156898751Y-108164071D01*
X156818793Y-107974592D01*
X156756276Y-107771690D01*
X156711224Y-107555519D01*
X156683656Y-107326231D01*
X156673595Y-107083981D01*
X156681060Y-106828922D01*
X156693222Y-106677304D01*
X156704575Y-106565948D01*
X156715329Y-106472306D01*
X156726232Y-106392046D01*
X156738032Y-106320835D01*
X156751476Y-106254342D01*
X156767312Y-106188235D01*
X156786287Y-106118180D01*
X156794898Y-106088173D01*
X156894872Y-105777875D01*
X157010859Y-105479566D01*
X157142173Y-105194807D01*
X157288124Y-104925163D01*
X157357274Y-104810956D01*
X157442706Y-104674896D01*
X157517750Y-104556097D01*
X157583495Y-104452949D01*
X157641030Y-104363841D01*
X157691443Y-104287162D01*
X157735823Y-104221303D01*
X157775257Y-104164653D01*
X157810833Y-104115600D01*
X157843642Y-104072535D01*
X157874770Y-104033847D01*
X157905306Y-103997926D01*
X157911397Y-103990978D01*
X157938572Y-103958461D01*
X157956946Y-103933130D01*
X157964064Y-103918565D01*
X157962485Y-103916434D01*
X157946483Y-103919413D01*
X157914269Y-103927488D01*
X157870778Y-103939367D01*
X157828795Y-103951441D01*
X157767529Y-103968631D01*
X157725461Y-103977254D01*
X157700887Y-103975877D01*
X157692102Y-103963064D01*
X157697401Y-103937381D01*
X157715080Y-103897394D01*
X157729793Y-103868137D01*
X157805772Y-103731420D01*
X157897053Y-103587290D01*
X158000526Y-103440531D01*
X158051398Y-103373409D01*
X158130572Y-103271290D01*
X158197911Y-103184529D01*
X158255106Y-103111021D01*
X158303846Y-103048663D01*
X158345822Y-102995350D01*
X158382723Y-102948978D01*
X158416239Y-102907443D01*
X158448061Y-102868641D01*
X158479879Y-102830467D01*
X158513381Y-102790818D01*
X158550260Y-102747589D01*
X158592203Y-102698677D01*
X158609608Y-102678410D01*
X158731160Y-102543864D01*
X158872511Y-102400170D01*
X159033446Y-102247529D01*
X159213754Y-102086138D01*
X159413220Y-101916197D01*
X159524784Y-101824236D01*
X159738443Y-101659019D01*
X159970329Y-101496604D01*
X160216583Y-101339505D01*
X160473347Y-101190233D01*
X160620305Y-101110987D01*
X160683080Y-101077732D01*
X160756051Y-101038542D01*
X160830164Y-100998307D01*
X160896362Y-100961917D01*
X160896392Y-100961900D01*
X161139847Y-100832466D01*
X161395059Y-100707171D01*
X161654349Y-100589573D01*
X161910041Y-100483232D01*
X162022826Y-100439644D01*
X162066243Y-100422776D01*
X162123244Y-100399892D01*
X162187131Y-100373719D01*
X162251202Y-100346982D01*
X162265783Y-100340818D01*
X162339984Y-100311337D01*
X162425954Y-100280532D01*
X162521120Y-100249059D01*
X162622906Y-100217573D01*
X162728737Y-100186728D01*
X162836037Y-100157179D01*
X162942232Y-100129582D01*
X163044745Y-100104591D01*
X163141002Y-100082861D01*
X163228428Y-100065047D01*
X163304447Y-100051805D01*
X163366484Y-100043788D01*
X163411964Y-100041653D01*
X163432691Y-100044040D01*
G36*
X166624104Y-108418689D02*
G01*
X166631188Y-108421225D01*
X166645903Y-108431803D01*
X166674159Y-108456264D01*
X166713996Y-108492760D01*
X166763456Y-108539440D01*
X166820576Y-108594455D01*
X166883398Y-108655955D01*
X166948609Y-108720739D01*
X167014078Y-108786024D01*
X167074740Y-108846093D01*
X167128810Y-108899210D01*
X167174504Y-108943640D01*
X167210038Y-108977650D01*
X167233628Y-108999506D01*
X167243489Y-109007472D01*
X167243551Y-109007478D01*
X167245774Y-108996913D01*
X167247775Y-108967134D01*
X167249471Y-108921013D01*
X167250781Y-108861421D01*
X167251622Y-108791230D01*
X167251913Y-108714826D01*
X167251913Y-108422174D01*
X167418325Y-108422174D01*
X167415184Y-108842810D01*
X167412044Y-109263447D01*
X167385973Y-109284550D01*
X167347134Y-109302682D01*
X167302979Y-109301112D01*
X167274000Y-109289506D01*
X167260051Y-109278201D01*
X167232750Y-109252888D01*
X167194044Y-109215491D01*
X167145881Y-109167930D01*
X167090209Y-109112126D01*
X167028978Y-109050003D01*
X166972179Y-108991774D01*
X166908558Y-108926521D01*
X166849597Y-108866591D01*
X166797094Y-108813771D01*
X166752851Y-108769850D01*
X166718666Y-108736615D01*
X166696339Y-108715852D01*
X166687810Y-108709304D01*
X166684888Y-108719963D01*
X166682353Y-108750404D01*
X166680284Y-108798325D01*
X166678762Y-108861424D01*
X166677866Y-108937399D01*
X166677653Y-109001956D01*
X166677653Y-109294608D01*
X166512000Y-109294608D01*
X166512000Y-108892041D01*
X166512313Y-108768973D01*
X166513262Y-108667387D01*
X166514866Y-108586686D01*
X166517141Y-108526273D01*
X166520105Y-108485552D01*
X166523775Y-108463926D01*
X166524476Y-108462092D01*
X166549101Y-108432162D01*
X166584873Y-108416713D01*
X166624104Y-108418689D01*
X166624104Y-108418689D01*
G37*
X166624104Y-108418689D02*
X166631188Y-108421225D01*
X166645903Y-108431803D01*
X166674159Y-108456264D01*
X166713996Y-108492760D01*
X166763456Y-108539440D01*
X166820576Y-108594455D01*
X166883398Y-108655955D01*
X166948609Y-108720739D01*
X167014078Y-108786024D01*
X167074740Y-108846093D01*
X167128810Y-108899210D01*
X167174504Y-108943640D01*
X167210038Y-108977650D01*
X167233628Y-108999506D01*
X167243489Y-109007472D01*
X167243551Y-109007478D01*
X167245774Y-108996913D01*
X167247775Y-108967134D01*
X167249471Y-108921013D01*
X167250781Y-108861421D01*
X167251622Y-108791230D01*
X167251913Y-108714826D01*
X167251913Y-108422174D01*
X167418325Y-108422174D01*
X167415184Y-108842810D01*
X167412044Y-109263447D01*
X167385973Y-109284550D01*
X167347134Y-109302682D01*
X167302979Y-109301112D01*
X167274000Y-109289506D01*
X167260051Y-109278201D01*
X167232750Y-109252888D01*
X167194044Y-109215491D01*
X167145881Y-109167930D01*
X167090209Y-109112126D01*
X167028978Y-109050003D01*
X166972179Y-108991774D01*
X166908558Y-108926521D01*
X166849597Y-108866591D01*
X166797094Y-108813771D01*
X166752851Y-108769850D01*
X166718666Y-108736615D01*
X166696339Y-108715852D01*
X166687810Y-108709304D01*
X166684888Y-108719963D01*
X166682353Y-108750404D01*
X166680284Y-108798325D01*
X166678762Y-108861424D01*
X166677866Y-108937399D01*
X166677653Y-109001956D01*
X166677653Y-109294608D01*
X166512000Y-109294608D01*
X166512000Y-108892041D01*
X166512313Y-108768973D01*
X166513262Y-108667387D01*
X166514866Y-108586686D01*
X166517141Y-108526273D01*
X166520105Y-108485552D01*
X166523775Y-108463926D01*
X166524476Y-108462092D01*
X166549101Y-108432162D01*
X166584873Y-108416713D01*
X166624104Y-108418689D01*
G36*
X163502653Y-108593347D02*
G01*
X163345440Y-108596411D01*
X163188227Y-108599474D01*
X163185309Y-108944280D01*
X163182392Y-109289087D01*
X163011218Y-109295537D01*
X163011218Y-108598869D01*
X162690028Y-108598869D01*
X162693253Y-108513282D01*
X162696479Y-108427695D01*
X163502653Y-108427695D01*
X163502653Y-108593347D01*
X163502653Y-108593347D01*
G37*
X163502653Y-108593347D02*
X163345440Y-108596411D01*
X163188227Y-108599474D01*
X163185309Y-108944280D01*
X163182392Y-109289087D01*
X163011218Y-109295537D01*
X163011218Y-108598869D01*
X162690028Y-108598869D01*
X162693253Y-108513282D01*
X162696479Y-108427695D01*
X163502653Y-108427695D01*
X163502653Y-108593347D01*
G36*
X163991326Y-108424791D02*
G01*
X164375087Y-108427695D01*
X164378313Y-108513282D01*
X164381538Y-108598869D01*
X163772818Y-108598869D01*
X163775779Y-108861152D01*
X163778740Y-109123434D01*
X164079674Y-109126373D01*
X164380609Y-109129311D01*
X164380609Y-109294608D01*
X163607566Y-109294608D01*
X163607566Y-108421887D01*
X163991326Y-108424791D01*
X163991326Y-108424791D01*
G37*
X163991326Y-108424791D02*
X164375087Y-108427695D01*
X164378313Y-108513282D01*
X164381538Y-108598869D01*
X163772818Y-108598869D01*
X163775779Y-108861152D01*
X163778740Y-109123434D01*
X164079674Y-109126373D01*
X164380609Y-109129311D01*
X164380609Y-109294608D01*
X163607566Y-109294608D01*
X163607566Y-108421887D01*
X163991326Y-108424791D01*
G36*
X165116686Y-108424497D02*
G01*
X165138013Y-108424714D01*
X165380044Y-108427695D01*
X165383269Y-108513282D01*
X165386495Y-108598869D01*
X165134791Y-108598931D01*
X165054447Y-108599479D01*
X164981826Y-108600990D01*
X164920325Y-108603329D01*
X164873342Y-108606356D01*
X164844273Y-108609936D01*
X164840518Y-108610813D01*
X164790983Y-108634191D01*
X164743848Y-108673211D01*
X164705281Y-108721751D01*
X164683639Y-108766526D01*
X164670334Y-108836616D01*
X164674446Y-108907983D01*
X164694501Y-108975533D01*
X164729028Y-109034171D01*
X164773256Y-109076537D01*
X164800326Y-109092644D01*
X164832233Y-109105243D01*
X164871833Y-109114713D01*
X164921979Y-109121434D01*
X164985530Y-109125784D01*
X165065339Y-109128143D01*
X165164262Y-109128891D01*
X165167457Y-109128892D01*
X165385566Y-109128956D01*
X165385566Y-109294608D01*
X165112240Y-109293870D01*
X165011584Y-109293118D01*
X164931342Y-109291411D01*
X164869859Y-109288671D01*
X164825479Y-109284819D01*
X164796547Y-109279774D01*
X164792377Y-109278587D01*
X164707806Y-109241311D01*
X164635725Y-109187828D01*
X164577227Y-109120848D01*
X164533404Y-109043085D01*
X164505350Y-108957249D01*
X164494156Y-108866052D01*
X164500916Y-108772205D01*
X164526723Y-108678421D01*
X164538885Y-108649513D01*
X164583273Y-108578266D01*
X164644764Y-108517866D01*
X164720042Y-108470744D01*
X164805791Y-108439327D01*
X164834318Y-108433095D01*
X164863910Y-108429831D01*
X164911262Y-108427220D01*
X164972056Y-108425381D01*
X165041970Y-108424434D01*
X165116686Y-108424497D01*
X165116686Y-108424497D01*
G37*
X165116686Y-108424497D02*
X165138013Y-108424714D01*
X165380044Y-108427695D01*
X165383269Y-108513282D01*
X165386495Y-108598869D01*
X165134791Y-108598931D01*
X165054447Y-108599479D01*
X164981826Y-108600990D01*
X164920325Y-108603329D01*
X164873342Y-108606356D01*
X164844273Y-108609936D01*
X164840518Y-108610813D01*
X164790983Y-108634191D01*
X164743848Y-108673211D01*
X164705281Y-108721751D01*
X164683639Y-108766526D01*
X164670334Y-108836616D01*
X164674446Y-108907983D01*
X164694501Y-108975533D01*
X164729028Y-109034171D01*
X164773256Y-109076537D01*
X164800326Y-109092644D01*
X164832233Y-109105243D01*
X164871833Y-109114713D01*
X164921979Y-109121434D01*
X164985530Y-109125784D01*
X165065339Y-109128143D01*
X165164262Y-109128891D01*
X165167457Y-109128892D01*
X165385566Y-109128956D01*
X165385566Y-109294608D01*
X165112240Y-109293870D01*
X165011584Y-109293118D01*
X164931342Y-109291411D01*
X164869859Y-109288671D01*
X164825479Y-109284819D01*
X164796547Y-109279774D01*
X164792377Y-109278587D01*
X164707806Y-109241311D01*
X164635725Y-109187828D01*
X164577227Y-109120848D01*
X164533404Y-109043085D01*
X164505350Y-108957249D01*
X164494156Y-108866052D01*
X164500916Y-108772205D01*
X164526723Y-108678421D01*
X164538885Y-108649513D01*
X164583273Y-108578266D01*
X164644764Y-108517866D01*
X164720042Y-108470744D01*
X164805791Y-108439327D01*
X164834318Y-108433095D01*
X164863910Y-108429831D01*
X164911262Y-108427220D01*
X164972056Y-108425381D01*
X165041970Y-108424434D01*
X165116686Y-108424497D01*
G36*
X165598153Y-108424451D02*
G01*
X165678218Y-108427695D01*
X165681107Y-108861152D01*
X165683996Y-109294608D01*
X165518087Y-109294608D01*
X165518087Y-108421206D01*
X165598153Y-108424451D01*
X165598153Y-108424451D01*
G37*
X165598153Y-108424451D02*
X165678218Y-108427695D01*
X165681107Y-108861152D01*
X165683996Y-109294608D01*
X165518087Y-109294608D01*
X165518087Y-108421206D01*
X165598153Y-108424451D01*
G36*
X166365802Y-108861152D02*
G01*
X166368692Y-109294608D01*
X166191740Y-109294608D01*
X166191740Y-108930174D01*
X165772087Y-108930174D01*
X165772087Y-108775565D01*
X166191179Y-108775565D01*
X166197261Y-108427695D01*
X166362913Y-108427695D01*
X166365802Y-108861152D01*
X166365802Y-108861152D01*
G37*
X166365802Y-108861152D02*
X166368692Y-109294608D01*
X166191740Y-109294608D01*
X166191740Y-108930174D01*
X165772087Y-108930174D01*
X165772087Y-108775565D01*
X166191179Y-108775565D01*
X166197261Y-108427695D01*
X166362913Y-108427695D01*
X166365802Y-108861152D01*
G36*
X168129652Y-108423578D02*
G01*
X168194591Y-108426831D01*
X168246589Y-108432386D01*
X168249369Y-108432829D01*
X168344225Y-108458307D01*
X168425468Y-108500950D01*
X168492221Y-108559878D01*
X168543607Y-108634209D01*
X168578749Y-108723064D01*
X168590380Y-108775115D01*
X168596908Y-108873117D01*
X168583560Y-108967608D01*
X168551769Y-109055736D01*
X168502968Y-109134643D01*
X168438590Y-109201477D01*
X168360068Y-109253382D01*
X168347152Y-109259706D01*
X168323618Y-109270243D01*
X168301978Y-109277967D01*
X168278196Y-109283371D01*
X168248237Y-109286945D01*
X168208065Y-109289181D01*
X168153645Y-109290570D01*
X168085696Y-109291546D01*
X168000836Y-109291920D01*
X167935441Y-109290595D01*
X167886943Y-109287440D01*
X167852778Y-109282323D01*
X167840377Y-109279024D01*
X167755019Y-109240689D01*
X167682464Y-109186320D01*
X167623794Y-109118600D01*
X167580088Y-109040216D01*
X167552430Y-108953853D01*
X167541899Y-108862194D01*
X167543098Y-108847466D01*
X167716746Y-108847466D01*
X167722111Y-108912940D01*
X167742094Y-108975136D01*
X167775731Y-109030512D01*
X167822055Y-109075523D01*
X167880102Y-109106625D01*
X167920703Y-109117228D01*
X167988693Y-109124699D01*
X168066859Y-109127245D01*
X168144375Y-109124831D01*
X168206194Y-109118138D01*
X168250576Y-109107184D01*
X168293189Y-109090767D01*
X168313258Y-109079797D01*
X168362216Y-109034949D01*
X168396641Y-108977675D01*
X168416148Y-108912508D01*
X168420352Y-108843983D01*
X168408868Y-108776633D01*
X168381311Y-108714992D01*
X168347767Y-108673160D01*
X168314218Y-108644660D01*
X168278094Y-108624176D01*
X168235087Y-108610551D01*
X168180887Y-108602633D01*
X168111183Y-108599268D01*
X168070503Y-108598931D01*
X167994804Y-108600044D01*
X167936766Y-108604031D01*
X167892036Y-108611975D01*
X167856261Y-108624963D01*
X167825087Y-108644077D01*
X167798015Y-108666816D01*
X167753733Y-108720861D01*
X167726965Y-108782258D01*
X167716746Y-108847466D01*
X167543098Y-108847466D01*
X167549577Y-108767927D01*
X167576545Y-108673735D01*
X167586885Y-108649513D01*
X167631133Y-108578523D01*
X167692489Y-108518155D01*
X167767510Y-108470949D01*
X167852748Y-108439445D01*
X167880138Y-108433371D01*
X167927015Y-108427523D01*
X167988881Y-108423934D01*
X168058755Y-108422616D01*
X168129652Y-108423578D01*
X168129652Y-108423578D01*
G37*
X168129652Y-108423578D02*
X168194591Y-108426831D01*
X168246589Y-108432386D01*
X168249369Y-108432829D01*
X168344225Y-108458307D01*
X168425468Y-108500950D01*
X168492221Y-108559878D01*
X168543607Y-108634209D01*
X168578749Y-108723064D01*
X168590380Y-108775115D01*
X168596908Y-108873117D01*
X168583560Y-108967608D01*
X168551769Y-109055736D01*
X168502968Y-109134643D01*
X168438590Y-109201477D01*
X168360068Y-109253382D01*
X168347152Y-109259706D01*
X168323618Y-109270243D01*
X168301978Y-109277967D01*
X168278196Y-109283371D01*
X168248237Y-109286945D01*
X168208065Y-109289181D01*
X168153645Y-109290570D01*
X168085696Y-109291546D01*
X168000836Y-109291920D01*
X167935441Y-109290595D01*
X167886943Y-109287440D01*
X167852778Y-109282323D01*
X167840377Y-109279024D01*
X167755019Y-109240689D01*
X167682464Y-109186320D01*
X167623794Y-109118600D01*
X167580088Y-109040216D01*
X167552430Y-108953853D01*
X167541899Y-108862194D01*
X167543098Y-108847466D01*
X167716746Y-108847466D01*
X167722111Y-108912940D01*
X167742094Y-108975136D01*
X167775731Y-109030512D01*
X167822055Y-109075523D01*
X167880102Y-109106625D01*
X167920703Y-109117228D01*
X167988693Y-109124699D01*
X168066859Y-109127245D01*
X168144375Y-109124831D01*
X168206194Y-109118138D01*
X168250576Y-109107184D01*
X168293189Y-109090767D01*
X168313258Y-109079797D01*
X168362216Y-109034949D01*
X168396641Y-108977675D01*
X168416148Y-108912508D01*
X168420352Y-108843983D01*
X168408868Y-108776633D01*
X168381311Y-108714992D01*
X168347767Y-108673160D01*
X168314218Y-108644660D01*
X168278094Y-108624176D01*
X168235087Y-108610551D01*
X168180887Y-108602633D01*
X168111183Y-108599268D01*
X168070503Y-108598931D01*
X167994804Y-108600044D01*
X167936766Y-108604031D01*
X167892036Y-108611975D01*
X167856261Y-108624963D01*
X167825087Y-108644077D01*
X167798015Y-108666816D01*
X167753733Y-108720861D01*
X167726965Y-108782258D01*
X167716746Y-108847466D01*
X167543098Y-108847466D01*
X167549577Y-108767927D01*
X167576545Y-108673735D01*
X167586885Y-108649513D01*
X167631133Y-108578523D01*
X167692489Y-108518155D01*
X167767510Y-108470949D01*
X167852748Y-108439445D01*
X167880138Y-108433371D01*
X167927015Y-108427523D01*
X167988881Y-108423934D01*
X168058755Y-108422616D01*
X168129652Y-108423578D01*
G36*
X168811805Y-108424451D02*
G01*
X168891870Y-108427695D01*
X168897392Y-108775565D01*
X168902913Y-109123434D01*
X169187763Y-109126383D01*
X169472613Y-109129331D01*
X169466131Y-109289087D01*
X169098935Y-109291996D01*
X168731740Y-109294906D01*
X168731740Y-108421206D01*
X168811805Y-108424451D01*
X168811805Y-108424451D01*
G37*
X168811805Y-108424451D02*
X168891870Y-108427695D01*
X168897392Y-108775565D01*
X168902913Y-109123434D01*
X169187763Y-109126383D01*
X169472613Y-109129331D01*
X169466131Y-109289087D01*
X169098935Y-109291996D01*
X168731740Y-109294906D01*
X168731740Y-108421206D01*
X168811805Y-108424451D01*
G36*
X170139565Y-108423578D02*
G01*
X170204504Y-108426831D01*
X170256502Y-108432386D01*
X170259282Y-108432829D01*
X170354138Y-108458307D01*
X170435381Y-108500950D01*
X170502134Y-108559878D01*
X170553520Y-108634209D01*
X170588662Y-108723064D01*
X170600293Y-108775115D01*
X170606821Y-108873117D01*
X170593473Y-108967608D01*
X170561682Y-109055736D01*
X170512881Y-109134643D01*
X170448503Y-109201477D01*
X170369981Y-109253382D01*
X170357065Y-109259706D01*
X170333531Y-109270243D01*
X170311891Y-109277967D01*
X170288109Y-109283371D01*
X170258150Y-109286945D01*
X170217978Y-109289181D01*
X170163558Y-109290570D01*
X170095609Y-109291546D01*
X170010749Y-109291920D01*
X169945354Y-109290595D01*
X169896856Y-109287440D01*
X169862691Y-109282323D01*
X169850290Y-109279024D01*
X169764932Y-109240689D01*
X169692377Y-109186320D01*
X169633707Y-109118600D01*
X169590001Y-109040216D01*
X169562343Y-108953853D01*
X169551812Y-108862194D01*
X169553011Y-108847466D01*
X169726659Y-108847466D01*
X169732024Y-108912940D01*
X169752008Y-108975136D01*
X169785644Y-109030512D01*
X169831968Y-109075523D01*
X169890015Y-109106625D01*
X169930616Y-109117228D01*
X169998606Y-109124699D01*
X170076772Y-109127245D01*
X170154288Y-109124831D01*
X170216107Y-109118138D01*
X170260489Y-109107184D01*
X170303102Y-109090767D01*
X170323171Y-109079797D01*
X170372129Y-109034949D01*
X170406554Y-108977675D01*
X170426061Y-108912508D01*
X170430265Y-108843983D01*
X170418781Y-108776633D01*
X170391224Y-108714992D01*
X170357680Y-108673160D01*
X170324131Y-108644660D01*
X170288007Y-108624176D01*
X170245000Y-108610551D01*
X170190800Y-108602633D01*
X170121096Y-108599268D01*
X170080416Y-108598931D01*
X170004717Y-108600044D01*
X169946679Y-108604031D01*
X169901949Y-108611975D01*
X169866174Y-108624963D01*
X169835000Y-108644077D01*
X169807928Y-108666816D01*
X169763646Y-108720861D01*
X169736878Y-108782258D01*
X169726659Y-108847466D01*
X169553011Y-108847466D01*
X169559490Y-108767927D01*
X169586458Y-108673735D01*
X169596798Y-108649513D01*
X169641046Y-108578523D01*
X169702402Y-108518155D01*
X169777423Y-108470949D01*
X169862661Y-108439445D01*
X169890051Y-108433371D01*
X169936928Y-108427523D01*
X169998794Y-108423934D01*
X170068668Y-108422616D01*
X170139565Y-108423578D01*
X170139565Y-108423578D01*
G37*
X170139565Y-108423578D02*
X170204504Y-108426831D01*
X170256502Y-108432386D01*
X170259282Y-108432829D01*
X170354138Y-108458307D01*
X170435381Y-108500950D01*
X170502134Y-108559878D01*
X170553520Y-108634209D01*
X170588662Y-108723064D01*
X170600293Y-108775115D01*
X170606821Y-108873117D01*
X170593473Y-108967608D01*
X170561682Y-109055736D01*
X170512881Y-109134643D01*
X170448503Y-109201477D01*
X170369981Y-109253382D01*
X170357065Y-109259706D01*
X170333531Y-109270243D01*
X170311891Y-109277967D01*
X170288109Y-109283371D01*
X170258150Y-109286945D01*
X170217978Y-109289181D01*
X170163558Y-109290570D01*
X170095609Y-109291546D01*
X170010749Y-109291920D01*
X169945354Y-109290595D01*
X169896856Y-109287440D01*
X169862691Y-109282323D01*
X169850290Y-109279024D01*
X169764932Y-109240689D01*
X169692377Y-109186320D01*
X169633707Y-109118600D01*
X169590001Y-109040216D01*
X169562343Y-108953853D01*
X169551812Y-108862194D01*
X169553011Y-108847466D01*
X169726659Y-108847466D01*
X169732024Y-108912940D01*
X169752008Y-108975136D01*
X169785644Y-109030512D01*
X169831968Y-109075523D01*
X169890015Y-109106625D01*
X169930616Y-109117228D01*
X169998606Y-109124699D01*
X170076772Y-109127245D01*
X170154288Y-109124831D01*
X170216107Y-109118138D01*
X170260489Y-109107184D01*
X170303102Y-109090767D01*
X170323171Y-109079797D01*
X170372129Y-109034949D01*
X170406554Y-108977675D01*
X170426061Y-108912508D01*
X170430265Y-108843983D01*
X170418781Y-108776633D01*
X170391224Y-108714992D01*
X170357680Y-108673160D01*
X170324131Y-108644660D01*
X170288007Y-108624176D01*
X170245000Y-108610551D01*
X170190800Y-108602633D01*
X170121096Y-108599268D01*
X170080416Y-108598931D01*
X170004717Y-108600044D01*
X169946679Y-108604031D01*
X169901949Y-108611975D01*
X169866174Y-108624963D01*
X169835000Y-108644077D01*
X169807928Y-108666816D01*
X169763646Y-108720861D01*
X169736878Y-108782258D01*
X169726659Y-108847466D01*
X169553011Y-108847466D01*
X169559490Y-108767927D01*
X169586458Y-108673735D01*
X169596798Y-108649513D01*
X169641046Y-108578523D01*
X169702402Y-108518155D01*
X169777423Y-108470949D01*
X169862661Y-108439445D01*
X169890051Y-108433371D01*
X169936928Y-108427523D01*
X169998794Y-108423934D01*
X170068668Y-108422616D01*
X170139565Y-108423578D01*
G36*
X171334164Y-108424497D02*
G01*
X171355491Y-108424714D01*
X171597522Y-108427695D01*
X171600748Y-108513282D01*
X171603973Y-108598869D01*
X171352269Y-108598931D01*
X171271925Y-108599479D01*
X171199304Y-108600990D01*
X171137804Y-108603329D01*
X171090820Y-108606356D01*
X171061751Y-108609936D01*
X171057996Y-108610813D01*
X171008461Y-108634191D01*
X170961327Y-108673211D01*
X170922759Y-108721751D01*
X170901117Y-108766526D01*
X170887812Y-108836616D01*
X170891924Y-108907983D01*
X170911980Y-108975533D01*
X170946507Y-109034171D01*
X170990734Y-109076537D01*
X171023299Y-109095106D01*
X171063202Y-109109076D01*
X171113571Y-109118939D01*
X171177529Y-109125185D01*
X171258203Y-109128306D01*
X171324196Y-109128892D01*
X171481566Y-109128956D01*
X171481566Y-108930174D01*
X171106087Y-108930174D01*
X171106087Y-108775179D01*
X171379413Y-108778133D01*
X171652740Y-108781087D01*
X171655704Y-109037847D01*
X171658668Y-109294608D01*
X171357530Y-109293870D01*
X171253875Y-109293224D01*
X171170523Y-109291797D01*
X171105703Y-109289512D01*
X171057642Y-109286288D01*
X171024567Y-109282050D01*
X171009855Y-109278587D01*
X170925284Y-109241311D01*
X170853203Y-109187828D01*
X170794705Y-109120848D01*
X170750883Y-109043085D01*
X170722828Y-108957249D01*
X170711635Y-108866052D01*
X170718395Y-108772205D01*
X170744201Y-108678421D01*
X170756363Y-108649513D01*
X170800751Y-108578266D01*
X170862242Y-108517866D01*
X170937520Y-108470744D01*
X171023269Y-108439327D01*
X171051796Y-108433095D01*
X171081388Y-108429831D01*
X171128741Y-108427220D01*
X171189534Y-108425381D01*
X171259449Y-108424434D01*
X171334164Y-108424497D01*
X171334164Y-108424497D01*
G37*
X171334164Y-108424497D02*
X171355491Y-108424714D01*
X171597522Y-108427695D01*
X171600748Y-108513282D01*
X171603973Y-108598869D01*
X171352269Y-108598931D01*
X171271925Y-108599479D01*
X171199304Y-108600990D01*
X171137804Y-108603329D01*
X171090820Y-108606356D01*
X171061751Y-108609936D01*
X171057996Y-108610813D01*
X171008461Y-108634191D01*
X170961327Y-108673211D01*
X170922759Y-108721751D01*
X170901117Y-108766526D01*
X170887812Y-108836616D01*
X170891924Y-108907983D01*
X170911980Y-108975533D01*
X170946507Y-109034171D01*
X170990734Y-109076537D01*
X171023299Y-109095106D01*
X171063202Y-109109076D01*
X171113571Y-109118939D01*
X171177529Y-109125185D01*
X171258203Y-109128306D01*
X171324196Y-109128892D01*
X171481566Y-109128956D01*
X171481566Y-108930174D01*
X171106087Y-108930174D01*
X171106087Y-108775179D01*
X171379413Y-108778133D01*
X171652740Y-108781087D01*
X171655704Y-109037847D01*
X171658668Y-109294608D01*
X171357530Y-109293870D01*
X171253875Y-109293224D01*
X171170523Y-109291797D01*
X171105703Y-109289512D01*
X171057642Y-109286288D01*
X171024567Y-109282050D01*
X171009855Y-109278587D01*
X170925284Y-109241311D01*
X170853203Y-109187828D01*
X170794705Y-109120848D01*
X170750883Y-109043085D01*
X170722828Y-108957249D01*
X170711635Y-108866052D01*
X170718395Y-108772205D01*
X170744201Y-108678421D01*
X170756363Y-108649513D01*
X170800751Y-108578266D01*
X170862242Y-108517866D01*
X170937520Y-108470744D01*
X171023269Y-108439327D01*
X171051796Y-108433095D01*
X171081388Y-108429831D01*
X171128741Y-108427220D01*
X171189534Y-108425381D01*
X171259449Y-108424434D01*
X171334164Y-108424497D01*
G36*
X171975889Y-108861152D02*
G01*
X171978778Y-109294608D01*
X171801570Y-109294608D01*
X171804459Y-108861152D01*
X171807348Y-108427695D01*
X171973000Y-108427695D01*
X171975889Y-108861152D01*
X171975889Y-108861152D01*
G37*
X171975889Y-108861152D02*
X171978778Y-109294608D01*
X171801570Y-109294608D01*
X171804459Y-108861152D01*
X171807348Y-108427695D01*
X171973000Y-108427695D01*
X171975889Y-108861152D01*
G36*
X172911696Y-108427695D02*
G01*
X172914921Y-108513282D01*
X172918147Y-108598869D01*
X172309427Y-108598869D01*
X172312387Y-108861152D01*
X172315348Y-109123434D01*
X172616283Y-109126373D01*
X172917218Y-109129311D01*
X172917218Y-109294608D01*
X172144174Y-109294608D01*
X172144174Y-108421887D01*
X172911696Y-108427695D01*
X172911696Y-108427695D01*
G37*
X172911696Y-108427695D02*
X172914921Y-108513282D01*
X172918147Y-108598869D01*
X172309427Y-108598869D01*
X172312387Y-108861152D01*
X172315348Y-109123434D01*
X172616283Y-109126373D01*
X172917218Y-109129311D01*
X172917218Y-109294608D01*
X172144174Y-109294608D01*
X172144174Y-108421887D01*
X172911696Y-108427695D01*
G36*
X173930921Y-108513282D02*
G01*
X173934147Y-108598869D01*
X173609389Y-108598869D01*
X173515986Y-108598931D01*
X173442099Y-108599226D01*
X173385160Y-108599921D01*
X173342596Y-108601183D01*
X173311839Y-108603178D01*
X173290318Y-108606071D01*
X173275464Y-108610029D01*
X173264705Y-108615219D01*
X173255533Y-108621758D01*
X173233871Y-108646115D01*
X173226587Y-108678309D01*
X173226435Y-108685908D01*
X173226781Y-108710679D01*
X173229447Y-108730043D01*
X173236881Y-108744734D01*
X173251526Y-108755488D01*
X173275829Y-108763040D01*
X173312235Y-108768126D01*
X173363189Y-108771481D01*
X173431136Y-108773839D01*
X173518522Y-108775937D01*
X173526455Y-108776116D01*
X173620065Y-108778544D01*
X173694545Y-108781497D01*
X173752852Y-108785541D01*
X173797943Y-108791243D01*
X173832776Y-108799169D01*
X173860308Y-108809886D01*
X173883495Y-108823959D01*
X173905294Y-108841955D01*
X173914297Y-108850387D01*
X173943183Y-108890871D01*
X173963879Y-108945935D01*
X173974540Y-109009006D01*
X173974316Y-109064185D01*
X173958130Y-109138939D01*
X173925060Y-109200920D01*
X173876416Y-109248464D01*
X173813507Y-109279905D01*
X173801995Y-109283388D01*
X173780428Y-109286302D01*
X173739474Y-109288895D01*
X173681833Y-109291090D01*
X173610205Y-109292811D01*
X173527287Y-109293979D01*
X173435780Y-109294519D01*
X173411413Y-109294547D01*
X173060783Y-109294608D01*
X173060783Y-109128956D01*
X173372761Y-109128693D01*
X173455906Y-109128275D01*
X173533809Y-109127230D01*
X173603156Y-109125652D01*
X173660631Y-109123637D01*
X173702916Y-109121281D01*
X173726698Y-109118679D01*
X173727706Y-109118462D01*
X173770567Y-109103239D01*
X173795309Y-109079380D01*
X173805455Y-109042644D01*
X173806218Y-109024043D01*
X173805810Y-108998509D01*
X173802991Y-108978443D01*
X173795361Y-108963124D01*
X173780525Y-108951832D01*
X173756085Y-108943845D01*
X173719644Y-108938443D01*
X173668805Y-108934904D01*
X173601171Y-108932509D01*
X173514345Y-108930536D01*
X173493872Y-108930116D01*
X173408293Y-108928247D01*
X173341787Y-108926382D01*
X173291345Y-108924244D01*
X173253956Y-108921554D01*
X173226607Y-108918035D01*
X173206288Y-108913407D01*
X173189989Y-108907394D01*
X173176740Y-108900822D01*
X173120146Y-108859631D01*
X173079023Y-108807563D01*
X173053262Y-108748206D01*
X173042751Y-108685148D01*
X173047381Y-108621975D01*
X173067042Y-108562275D01*
X173101622Y-108509635D01*
X173151012Y-108467643D01*
X173190661Y-108447890D01*
X173207521Y-108442136D01*
X173226712Y-108437576D01*
X173250888Y-108434077D01*
X173282702Y-108431500D01*
X173324810Y-108429712D01*
X173379865Y-108428575D01*
X173450522Y-108427955D01*
X173539434Y-108427715D01*
X173585348Y-108427695D01*
X173927696Y-108427695D01*
X173930921Y-108513282D01*
X173930921Y-108513282D01*
G37*
X173930921Y-108513282D02*
X173934147Y-108598869D01*
X173609389Y-108598869D01*
X173515986Y-108598931D01*
X173442099Y-108599226D01*
X173385160Y-108599921D01*
X173342596Y-108601183D01*
X173311839Y-108603178D01*
X173290318Y-108606071D01*
X173275464Y-108610029D01*
X173264705Y-108615219D01*
X173255533Y-108621758D01*
X173233871Y-108646115D01*
X173226587Y-108678309D01*
X173226435Y-108685908D01*
X173226781Y-108710679D01*
X173229447Y-108730043D01*
X173236881Y-108744734D01*
X173251526Y-108755488D01*
X173275829Y-108763040D01*
X173312235Y-108768126D01*
X173363189Y-108771481D01*
X173431136Y-108773839D01*
X173518522Y-108775937D01*
X173526455Y-108776116D01*
X173620065Y-108778544D01*
X173694545Y-108781497D01*
X173752852Y-108785541D01*
X173797943Y-108791243D01*
X173832776Y-108799169D01*
X173860308Y-108809886D01*
X173883495Y-108823959D01*
X173905294Y-108841955D01*
X173914297Y-108850387D01*
X173943183Y-108890871D01*
X173963879Y-108945935D01*
X173974540Y-109009006D01*
X173974316Y-109064185D01*
X173958130Y-109138939D01*
X173925060Y-109200920D01*
X173876416Y-109248464D01*
X173813507Y-109279905D01*
X173801995Y-109283388D01*
X173780428Y-109286302D01*
X173739474Y-109288895D01*
X173681833Y-109291090D01*
X173610205Y-109292811D01*
X173527287Y-109293979D01*
X173435780Y-109294519D01*
X173411413Y-109294547D01*
X173060783Y-109294608D01*
X173060783Y-109128956D01*
X173372761Y-109128693D01*
X173455906Y-109128275D01*
X173533809Y-109127230D01*
X173603156Y-109125652D01*
X173660631Y-109123637D01*
X173702916Y-109121281D01*
X173726698Y-109118679D01*
X173727706Y-109118462D01*
X173770567Y-109103239D01*
X173795309Y-109079380D01*
X173805455Y-109042644D01*
X173806218Y-109024043D01*
X173805810Y-108998509D01*
X173802991Y-108978443D01*
X173795361Y-108963124D01*
X173780525Y-108951832D01*
X173756085Y-108943845D01*
X173719644Y-108938443D01*
X173668805Y-108934904D01*
X173601171Y-108932509D01*
X173514345Y-108930536D01*
X173493872Y-108930116D01*
X173408293Y-108928247D01*
X173341787Y-108926382D01*
X173291345Y-108924244D01*
X173253956Y-108921554D01*
X173226607Y-108918035D01*
X173206288Y-108913407D01*
X173189989Y-108907394D01*
X173176740Y-108900822D01*
X173120146Y-108859631D01*
X173079023Y-108807563D01*
X173053262Y-108748206D01*
X173042751Y-108685148D01*
X173047381Y-108621975D01*
X173067042Y-108562275D01*
X173101622Y-108509635D01*
X173151012Y-108467643D01*
X173190661Y-108447890D01*
X173207521Y-108442136D01*
X173226712Y-108437576D01*
X173250888Y-108434077D01*
X173282702Y-108431500D01*
X173324810Y-108429712D01*
X173379865Y-108428575D01*
X173450522Y-108427955D01*
X173539434Y-108427715D01*
X173585348Y-108427695D01*
X173927696Y-108427695D01*
X173930921Y-108513282D01*
G36*
X164101761Y-108778110D02*
G01*
X164341957Y-108781087D01*
X164345222Y-108855630D01*
X164348488Y-108930174D01*
X163861566Y-108930174D01*
X163861566Y-108775134D01*
X164101761Y-108778110D01*
X164101761Y-108778110D01*
G37*
X164101761Y-108778110D02*
X164341957Y-108781087D01*
X164345222Y-108855630D01*
X164348488Y-108930174D01*
X163861566Y-108930174D01*
X163861566Y-108775134D01*
X164101761Y-108778110D01*
G36*
X172638370Y-108778110D02*
G01*
X172878566Y-108781087D01*
X172881831Y-108855630D01*
X172885096Y-108930174D01*
X172398174Y-108930174D01*
X172398174Y-108775134D01*
X172638370Y-108778110D01*
X172638370Y-108778110D01*
G37*
X172638370Y-108778110D02*
X172878566Y-108781087D01*
X172881831Y-108855630D01*
X172885096Y-108930174D01*
X172398174Y-108930174D01*
X172398174Y-108775134D01*
X172638370Y-108778110D01*
G36*
X163480566Y-107036217D02*
G01*
X163480566Y-107201869D01*
X163196196Y-107204816D01*
X162911826Y-107207764D01*
X162911826Y-107903130D01*
X162746174Y-107903130D01*
X162746174Y-107030397D01*
X163480566Y-107036217D01*
X163480566Y-107036217D01*
G37*
X163480566Y-107036217D02*
X163480566Y-107201869D01*
X163196196Y-107204816D01*
X162911826Y-107207764D01*
X162911826Y-107903130D01*
X162746174Y-107903130D01*
X162746174Y-107030397D01*
X163480566Y-107036217D01*
G36*
X163676587Y-107032972D02*
G01*
X163756653Y-107036217D01*
X163762174Y-107384087D01*
X163767696Y-107731956D01*
X164052546Y-107734904D01*
X164337395Y-107737853D01*
X164334154Y-107817730D01*
X164330913Y-107897608D01*
X163963718Y-107900518D01*
X163596522Y-107903428D01*
X163596522Y-107029728D01*
X163676587Y-107032972D01*
X163676587Y-107032972D01*
G37*
X163676587Y-107032972D02*
X163756653Y-107036217D01*
X163762174Y-107384087D01*
X163767696Y-107731956D01*
X164052546Y-107734904D01*
X164337395Y-107737853D01*
X164334154Y-107817730D01*
X164330913Y-107897608D01*
X163963718Y-107900518D01*
X163596522Y-107903428D01*
X163596522Y-107029728D01*
X163676587Y-107032972D01*
G36*
X164968546Y-107022191D02*
G01*
X164983975Y-107029498D01*
X165001452Y-107044263D01*
X165022160Y-107067956D01*
X165047286Y-107102051D01*
X165078015Y-107148017D01*
X165115531Y-107207326D01*
X165161019Y-107281450D01*
X165215664Y-107371861D01*
X165268285Y-107459426D01*
X165320479Y-107546673D01*
X165368976Y-107628328D01*
X165412618Y-107702400D01*
X165450248Y-107766898D01*
X165480709Y-107819829D01*
X165502843Y-107859202D01*
X165515493Y-107883025D01*
X165518087Y-107889330D01*
X165510910Y-107896519D01*
X165487744Y-107900936D01*
X165446132Y-107902931D01*
X165420741Y-107903130D01*
X165323395Y-107903130D01*
X165263371Y-107798371D01*
X165203348Y-107693612D01*
X165001805Y-107693458D01*
X164922735Y-107692895D01*
X164864414Y-107691289D01*
X164825525Y-107688557D01*
X164804749Y-107684617D01*
X164800261Y-107680844D01*
X164805425Y-107665232D01*
X164818842Y-107637266D01*
X164834202Y-107609061D01*
X164868143Y-107549739D01*
X164989731Y-107549739D01*
X165038109Y-107549006D01*
X165076671Y-107547019D01*
X165101140Y-107544092D01*
X165107638Y-107541033D01*
X165100301Y-107527186D01*
X165084680Y-107499657D01*
X165063232Y-107462612D01*
X165038416Y-107420217D01*
X165012690Y-107376638D01*
X164988512Y-107336042D01*
X164968340Y-107302594D01*
X164954633Y-107280461D01*
X164949877Y-107273652D01*
X164943801Y-107282796D01*
X164927839Y-107308754D01*
X164903319Y-107349309D01*
X164871571Y-107402249D01*
X164833924Y-107465358D01*
X164791708Y-107536422D01*
X164760933Y-107588391D01*
X164574781Y-107903130D01*
X164483217Y-107903130D01*
X164433707Y-107901959D01*
X164404047Y-107898237D01*
X164392115Y-107891649D01*
X164391653Y-107889551D01*
X164397168Y-107877512D01*
X164412942Y-107848556D01*
X164437820Y-107804675D01*
X164470646Y-107747861D01*
X164510263Y-107680104D01*
X164555516Y-107603398D01*
X164605248Y-107519732D01*
X164641084Y-107459801D01*
X164703247Y-107356385D01*
X164755319Y-107270510D01*
X164798315Y-107200625D01*
X164833252Y-107145182D01*
X164861145Y-107102630D01*
X164883012Y-107071419D01*
X164899868Y-107049999D01*
X164912729Y-107036821D01*
X164922611Y-107030334D01*
X164922693Y-107030300D01*
X164939090Y-107024064D01*
X164953979Y-107020870D01*
X164968546Y-107022191D01*
X164968546Y-107022191D01*
G37*
X164968546Y-107022191D02*
X164983975Y-107029498D01*
X165001452Y-107044263D01*
X165022160Y-107067956D01*
X165047286Y-107102051D01*
X165078015Y-107148017D01*
X165115531Y-107207326D01*
X165161019Y-107281450D01*
X165215664Y-107371861D01*
X165268285Y-107459426D01*
X165320479Y-107546673D01*
X165368976Y-107628328D01*
X165412618Y-107702400D01*
X165450248Y-107766898D01*
X165480709Y-107819829D01*
X165502843Y-107859202D01*
X165515493Y-107883025D01*
X165518087Y-107889330D01*
X165510910Y-107896519D01*
X165487744Y-107900936D01*
X165446132Y-107902931D01*
X165420741Y-107903130D01*
X165323395Y-107903130D01*
X165263371Y-107798371D01*
X165203348Y-107693612D01*
X165001805Y-107693458D01*
X164922735Y-107692895D01*
X164864414Y-107691289D01*
X164825525Y-107688557D01*
X164804749Y-107684617D01*
X164800261Y-107680844D01*
X164805425Y-107665232D01*
X164818842Y-107637266D01*
X164834202Y-107609061D01*
X164868143Y-107549739D01*
X164989731Y-107549739D01*
X165038109Y-107549006D01*
X165076671Y-107547019D01*
X165101140Y-107544092D01*
X165107638Y-107541033D01*
X165100301Y-107527186D01*
X165084680Y-107499657D01*
X165063232Y-107462612D01*
X165038416Y-107420217D01*
X165012690Y-107376638D01*
X164988512Y-107336042D01*
X164968340Y-107302594D01*
X164954633Y-107280461D01*
X164949877Y-107273652D01*
X164943801Y-107282796D01*
X164927839Y-107308754D01*
X164903319Y-107349309D01*
X164871571Y-107402249D01*
X164833924Y-107465358D01*
X164791708Y-107536422D01*
X164760933Y-107588391D01*
X164574781Y-107903130D01*
X164483217Y-107903130D01*
X164433707Y-107901959D01*
X164404047Y-107898237D01*
X164392115Y-107891649D01*
X164391653Y-107889551D01*
X164397168Y-107877512D01*
X164412942Y-107848556D01*
X164437820Y-107804675D01*
X164470646Y-107747861D01*
X164510263Y-107680104D01*
X164555516Y-107603398D01*
X164605248Y-107519732D01*
X164641084Y-107459801D01*
X164703247Y-107356385D01*
X164755319Y-107270510D01*
X164798315Y-107200625D01*
X164833252Y-107145182D01*
X164861145Y-107102630D01*
X164883012Y-107071419D01*
X164899868Y-107049999D01*
X164912729Y-107036821D01*
X164922611Y-107030334D01*
X164922693Y-107030300D01*
X164939090Y-107024064D01*
X164953979Y-107020870D01*
X164968546Y-107022191D01*
G36*
X165708587Y-107032972D02*
G01*
X165788653Y-107036217D01*
X165791542Y-107469674D01*
X165794431Y-107903130D01*
X165628522Y-107903130D01*
X165628522Y-107029728D01*
X165708587Y-107032972D01*
X165708587Y-107032972D01*
G37*
X165708587Y-107032972D02*
X165788653Y-107036217D01*
X165791542Y-107469674D01*
X165794431Y-107903130D01*
X165628522Y-107903130D01*
X165628522Y-107029728D01*
X165708587Y-107032972D01*
G36*
X166482027Y-107031271D02*
G01*
X166517172Y-107033293D01*
X166536935Y-107037207D01*
X166544655Y-107043456D01*
X166545131Y-107046245D01*
X166536569Y-107056506D01*
X166512345Y-107078013D01*
X166474653Y-107109011D01*
X166425687Y-107147747D01*
X166367639Y-107192465D01*
X166302705Y-107241411D01*
X166280087Y-107258231D01*
X166213508Y-107307787D01*
X166153094Y-107353160D01*
X166101023Y-107392681D01*
X166059469Y-107424686D01*
X166030608Y-107447508D01*
X166016615Y-107459481D01*
X166015631Y-107460790D01*
X166024267Y-107468692D01*
X166048458Y-107488186D01*
X166086080Y-107517629D01*
X166135006Y-107555375D01*
X166193113Y-107599781D01*
X166258275Y-107649201D01*
X166291970Y-107674625D01*
X166359521Y-107725976D01*
X166420672Y-107773366D01*
X166473359Y-107815121D01*
X166515515Y-107849570D01*
X166545077Y-107875039D01*
X166559978Y-107889857D01*
X166561296Y-107892734D01*
X166548258Y-107896938D01*
X166517993Y-107900214D01*
X166475354Y-107902176D01*
X166436805Y-107902551D01*
X166318740Y-107901971D01*
X166081305Y-107714380D01*
X166018207Y-107664268D01*
X165960403Y-107617863D01*
X165910296Y-107577137D01*
X165870291Y-107544057D01*
X165842790Y-107520593D01*
X165830197Y-107508713D01*
X165830066Y-107508545D01*
X165820048Y-107484522D01*
X165816261Y-107455925D01*
X165817162Y-107442330D01*
X165821054Y-107429063D01*
X165829721Y-107414465D01*
X165844950Y-107396876D01*
X165868523Y-107374636D01*
X165902228Y-107346088D01*
X165947847Y-107309570D01*
X166007166Y-107263425D01*
X166081969Y-107205992D01*
X166099614Y-107192493D01*
X166311185Y-107030695D01*
X166428158Y-107030695D01*
X166482027Y-107031271D01*
X166482027Y-107031271D01*
G37*
X166482027Y-107031271D02*
X166517172Y-107033293D01*
X166536935Y-107037207D01*
X166544655Y-107043456D01*
X166545131Y-107046245D01*
X166536569Y-107056506D01*
X166512345Y-107078013D01*
X166474653Y-107109011D01*
X166425687Y-107147747D01*
X166367639Y-107192465D01*
X166302705Y-107241411D01*
X166280087Y-107258231D01*
X166213508Y-107307787D01*
X166153094Y-107353160D01*
X166101023Y-107392681D01*
X166059469Y-107424686D01*
X166030608Y-107447508D01*
X166016615Y-107459481D01*
X166015631Y-107460790D01*
X166024267Y-107468692D01*
X166048458Y-107488186D01*
X166086080Y-107517629D01*
X166135006Y-107555375D01*
X166193113Y-107599781D01*
X166258275Y-107649201D01*
X166291970Y-107674625D01*
X166359521Y-107725976D01*
X166420672Y-107773366D01*
X166473359Y-107815121D01*
X166515515Y-107849570D01*
X166545077Y-107875039D01*
X166559978Y-107889857D01*
X166561296Y-107892734D01*
X166548258Y-107896938D01*
X166517993Y-107900214D01*
X166475354Y-107902176D01*
X166436805Y-107902551D01*
X166318740Y-107901971D01*
X166081305Y-107714380D01*
X166018207Y-107664268D01*
X165960403Y-107617863D01*
X165910296Y-107577137D01*
X165870291Y-107544057D01*
X165842790Y-107520593D01*
X165830197Y-107508713D01*
X165830066Y-107508545D01*
X165820048Y-107484522D01*
X165816261Y-107455925D01*
X165817162Y-107442330D01*
X165821054Y-107429063D01*
X165829721Y-107414465D01*
X165844950Y-107396876D01*
X165868523Y-107374636D01*
X165902228Y-107346088D01*
X165947847Y-107309570D01*
X166007166Y-107263425D01*
X166081969Y-107205992D01*
X166099614Y-107192493D01*
X166311185Y-107030695D01*
X166428158Y-107030695D01*
X166482027Y-107031271D01*
G36*
X167061413Y-107033313D02*
G01*
X167445174Y-107036217D01*
X167448400Y-107121804D01*
X167451625Y-107207391D01*
X166842905Y-107207391D01*
X166845866Y-107469674D01*
X166848826Y-107731956D01*
X167149761Y-107734894D01*
X167450696Y-107737833D01*
X167450696Y-107903130D01*
X166677653Y-107903130D01*
X166677653Y-107030409D01*
X167061413Y-107033313D01*
X167061413Y-107033313D01*
G37*
X167061413Y-107033313D02*
X167445174Y-107036217D01*
X167448400Y-107121804D01*
X167451625Y-107207391D01*
X166842905Y-107207391D01*
X166845866Y-107469674D01*
X166848826Y-107731956D01*
X167149761Y-107734894D01*
X167450696Y-107737833D01*
X167450696Y-107903130D01*
X166677653Y-107903130D01*
X166677653Y-107030409D01*
X167061413Y-107033313D01*
G36*
X163452957Y-107549739D02*
G01*
X163000174Y-107549739D01*
X163000174Y-107406174D01*
X163452957Y-107406174D01*
X163452957Y-107549739D01*
X163452957Y-107549739D01*
G37*
X163452957Y-107549739D02*
X163000174Y-107549739D01*
X163000174Y-107406174D01*
X163452957Y-107406174D01*
X163452957Y-107549739D01*
G36*
X167171848Y-107386632D02*
G01*
X167412044Y-107389608D01*
X167415309Y-107464152D01*
X167418575Y-107538695D01*
X166931653Y-107538695D01*
X166931653Y-107383656D01*
X167171848Y-107386632D01*
X167171848Y-107386632D01*
G37*
X167171848Y-107386632D02*
X167412044Y-107389608D01*
X167415309Y-107464152D01*
X167418575Y-107538695D01*
X166931653Y-107538695D01*
X166931653Y-107383656D01*
X167171848Y-107386632D01*
D11*
X135165279Y-103090000D02*
X134839721Y-103090000D01*
X135165279Y-102070000D02*
X134839721Y-102070000D01*
X133700000Y-88617221D02*
X133700000Y-88942779D01*
X132680000Y-88617221D02*
X132680000Y-88942779D01*
X129460000Y-108780000D02*
X132860000Y-108780000D01*
X132860000Y-108780000D02*
X132860000Y-112180000D01*
X132860000Y-112180000D02*
X129460000Y-112180000D01*
X129460000Y-112180000D02*
X129460000Y-108780000D01*
X153560000Y-108760000D02*
X156960000Y-108760000D01*
X156960000Y-108760000D02*
X156960000Y-112160000D01*
X156960000Y-112160000D02*
X153560000Y-112160000D01*
X153560000Y-112160000D02*
X153560000Y-108760000D01*
X142014721Y-101870000D02*
X142340279Y-101870000D01*
X142014721Y-102890000D02*
X142340279Y-102890000D01*
X112480000Y-100417221D02*
X112480000Y-100742779D01*
X113500000Y-100417221D02*
X113500000Y-100742779D01*
X130245279Y-108200000D02*
X129919721Y-108200000D01*
X130245279Y-107180000D02*
X129919721Y-107180000D01*
X116080000Y-98017221D02*
X116080000Y-98342779D01*
X117100000Y-98017221D02*
X117100000Y-98342779D01*
X120150000Y-89880000D02*
X120150000Y-87930000D01*
X120150000Y-89880000D02*
X120150000Y-91830000D01*
X115030000Y-89880000D02*
X115030000Y-87930000D01*
X115030000Y-89880000D02*
X115030000Y-93330000D01*
X114384721Y-93350000D02*
G75*
G03X114384721Y-93350000I-44721J0D01*
G01*
X114558035Y-93370000D02*
G75*
G03X114558035Y-93370000I-228035J0D01*
G01*
X114468062Y-93370000D02*
G75*
G03X114468062Y-93370000I-128062J0D01*
G01*
X155190000Y-90380000D02*
G75*
G03X155190000Y-90380000I-1200000J0D01*
G01*
X138827221Y-101870000D02*
X139152779Y-101870000D01*
X138827221Y-102890000D02*
X139152779Y-102890000D01*
X122861078Y-97200000D02*
X122343922Y-97200000D01*
X122861078Y-95780000D02*
X122343922Y-95780000D01*
X125311078Y-109210000D02*
X124793922Y-109210000D01*
X125311078Y-110630000D02*
X124793922Y-110630000D01*
X144380000Y-104990000D02*
X141830000Y-104990000D01*
X144380000Y-103290000D02*
X141830000Y-103290000D01*
X144380000Y-104990000D02*
X144380000Y-103290000D01*
X135290000Y-103930000D02*
X137840000Y-103930000D01*
X135290000Y-105630000D02*
X137840000Y-105630000D01*
X135290000Y-103930000D02*
X135290000Y-105630000D01*
X133900000Y-99817221D02*
X133900000Y-100142779D01*
X132880000Y-99817221D02*
X132880000Y-100142779D01*
X113980000Y-103530000D02*
X113980000Y-105330000D01*
X117200000Y-105330000D02*
X117200000Y-102880000D01*
X121080000Y-91792779D02*
X121080000Y-91467221D01*
X122100000Y-91792779D02*
X122100000Y-91467221D01*
X125160000Y-86350000D02*
X125190000Y-86350000D01*
X131620000Y-86350000D02*
X131590000Y-86350000D01*
X131620000Y-92810000D02*
X131590000Y-92810000D01*
X125190000Y-92810000D02*
X125160000Y-92810000D01*
X127090000Y-86350000D02*
X129690000Y-86350000D01*
X125160000Y-92810000D02*
X125160000Y-86350000D01*
X127090000Y-92810000D02*
X129690000Y-92810000D01*
X131620000Y-92810000D02*
X131620000Y-86350000D01*
X134468922Y-95470000D02*
X134986078Y-95470000D01*
X134468922Y-96890000D02*
X134986078Y-96890000D01*
X139080000Y-96930279D02*
X139080000Y-96604721D01*
X140100000Y-96930279D02*
X140100000Y-96604721D01*
X133880000Y-91942779D02*
X133880000Y-91617221D01*
X134900000Y-91942779D02*
X134900000Y-91617221D01*
X161639721Y-92070000D02*
X161965279Y-92070000D01*
X161639721Y-93090000D02*
X161965279Y-93090000D01*
X122100000Y-88217221D02*
X122100000Y-88542779D01*
X121080000Y-88217221D02*
X121080000Y-88542779D01*
X153300000Y-104017221D02*
X153300000Y-104342779D01*
X152280000Y-104017221D02*
X152280000Y-104342779D01*
X112152779Y-102470000D02*
X111827221Y-102470000D01*
X112152779Y-103490000D02*
X111827221Y-103490000D01*
X109890000Y-91180000D02*
X113290000Y-91180000D01*
X113290000Y-91180000D02*
X113290000Y-94580000D01*
X113290000Y-94580000D02*
X109890000Y-94580000D01*
X109890000Y-94580000D02*
X109890000Y-91180000D01*
X109890000Y-84680000D02*
X113290000Y-84680000D01*
X113290000Y-84680000D02*
X113290000Y-88080000D01*
X113290000Y-88080000D02*
X109890000Y-88080000D01*
X109890000Y-88080000D02*
X109890000Y-84680000D01*
X153590000Y-101415000D02*
X155540000Y-101415000D01*
X153590000Y-101415000D02*
X151640000Y-101415000D01*
X153590000Y-92545000D02*
X155540000Y-92545000D01*
X153590000Y-92545000D02*
X150140000Y-92545000D01*
D10*
X180940000Y-92580000D02*
X185140000Y-92580000D01*
X185140000Y-92580000D02*
X185140000Y-94980000D01*
X185140000Y-94980000D02*
X180940000Y-94980000D01*
X180940000Y-94980000D02*
X180940000Y-92580000D01*
X180940000Y-97680000D02*
X185140000Y-97680000D01*
X185140000Y-97680000D02*
X185140000Y-100080000D01*
X185140000Y-100080000D02*
X180940000Y-100080000D01*
X180940000Y-100080000D02*
X180940000Y-97680000D01*
D11*
X166589721Y-88890000D02*
X166915279Y-88890000D01*
X166589721Y-87870000D02*
X166915279Y-87870000D01*
X120240000Y-96880000D02*
X118540000Y-96880000D01*
X118540000Y-96880000D02*
X118540000Y-99430000D01*
X120240000Y-96880000D02*
X120240000Y-99430000D01*
X164100000Y-97617221D02*
X164100000Y-97942779D01*
X163080000Y-97617221D02*
X163080000Y-97942779D01*
X158880000Y-100130279D02*
X158880000Y-99804721D01*
X159900000Y-100130279D02*
X159900000Y-99804721D01*
X114952779Y-106870000D02*
X114627221Y-106870000D01*
X114952779Y-107890000D02*
X114627221Y-107890000D01*
X148580000Y-92414779D02*
X148580000Y-92089221D01*
X149600000Y-92414779D02*
X149600000Y-92089221D01*
X146940000Y-92430279D02*
X146940000Y-92104721D01*
X147960000Y-92430279D02*
X147960000Y-92104721D01*
X167702779Y-94370000D02*
X167377221Y-94370000D01*
X167702779Y-95390000D02*
X167377221Y-95390000D01*
X170550000Y-91504721D02*
X170550000Y-91830279D01*
X169530000Y-91504721D02*
X169530000Y-91830279D01*
X181970000Y-102209721D02*
X181970000Y-102535279D01*
X180950000Y-102209721D02*
X180950000Y-102535279D01*
X164960000Y-92390000D02*
X165890000Y-92390000D01*
X168120000Y-92390000D02*
X167190000Y-92390000D01*
X168120000Y-92390000D02*
X168120000Y-90230000D01*
X164960000Y-92390000D02*
X164960000Y-90930000D01*
X159580000Y-94550000D02*
X159580000Y-95480000D01*
X159580000Y-97710000D02*
X159580000Y-96780000D01*
X159580000Y-97710000D02*
X161740000Y-97710000D01*
X159580000Y-94550000D02*
X161040000Y-94550000D01*
D12*
X134747047Y-97770190D02*
X134747047Y-98174952D01*
X134770857Y-98222571D01*
X134794666Y-98246380D01*
X134842285Y-98270190D01*
X134937523Y-98270190D01*
X134985142Y-98246380D01*
X135008952Y-98222571D01*
X135032761Y-98174952D01*
X135032761Y-97770190D01*
X135247047Y-97817809D02*
X135270857Y-97794000D01*
X135318476Y-97770190D01*
X135437523Y-97770190D01*
X135485142Y-97794000D01*
X135508952Y-97817809D01*
X135532761Y-97865428D01*
X135532761Y-97913047D01*
X135508952Y-97984476D01*
X135223238Y-98270190D01*
X135532761Y-98270190D01*
X123556666Y-100576190D02*
X123318571Y-100576190D01*
X123318571Y-100076190D01*
X123985238Y-100576190D02*
X123699523Y-100576190D01*
X123842380Y-100576190D02*
X123842380Y-100076190D01*
X123794761Y-100147619D01*
X123747142Y-100195238D01*
X123699523Y-100219047D01*
X120906666Y-104606190D02*
X120668571Y-104606190D01*
X120668571Y-104106190D01*
X121335238Y-104606190D02*
X121049523Y-104606190D01*
X121192380Y-104606190D02*
X121192380Y-104106190D01*
X121144761Y-104177619D01*
X121097142Y-104225238D01*
X121049523Y-104249047D01*
X171708571Y-98513333D02*
X171732380Y-98537142D01*
X171756190Y-98608571D01*
X171756190Y-98656190D01*
X171732380Y-98727619D01*
X171684761Y-98775238D01*
X171637142Y-98799047D01*
X171541904Y-98822857D01*
X171470476Y-98822857D01*
X171375238Y-98799047D01*
X171327619Y-98775238D01*
X171280000Y-98727619D01*
X171256190Y-98656190D01*
X171256190Y-98608571D01*
X171280000Y-98537142D01*
X171303809Y-98513333D01*
X171256190Y-98084761D02*
X171256190Y-98180000D01*
X171280000Y-98227619D01*
X171303809Y-98251428D01*
X171375238Y-98299047D01*
X171470476Y-98322857D01*
X171660952Y-98322857D01*
X171708571Y-98299047D01*
X171732380Y-98275238D01*
X171756190Y-98227619D01*
X171756190Y-98132380D01*
X171732380Y-98084761D01*
X171708571Y-98060952D01*
X171660952Y-98037142D01*
X171541904Y-98037142D01*
X171494285Y-98060952D01*
X171470476Y-98084761D01*
X171446666Y-98132380D01*
X171446666Y-98227619D01*
X171470476Y-98275238D01*
X171494285Y-98299047D01*
X171541904Y-98322857D01*
X126146666Y-96440571D02*
X126122857Y-96464380D01*
X126051428Y-96488190D01*
X126003809Y-96488190D01*
X125932380Y-96464380D01*
X125884761Y-96416761D01*
X125860952Y-96369142D01*
X125837142Y-96273904D01*
X125837142Y-96202476D01*
X125860952Y-96107238D01*
X125884761Y-96059619D01*
X125932380Y-96012000D01*
X126003809Y-95988190D01*
X126051428Y-95988190D01*
X126122857Y-96012000D01*
X126146666Y-96035809D01*
X126599047Y-95988190D02*
X126360952Y-95988190D01*
X126337142Y-96226285D01*
X126360952Y-96202476D01*
X126408571Y-96178666D01*
X126527619Y-96178666D01*
X126575238Y-96202476D01*
X126599047Y-96226285D01*
X126622857Y-96273904D01*
X126622857Y-96392952D01*
X126599047Y-96440571D01*
X126575238Y-96464380D01*
X126527619Y-96488190D01*
X126408571Y-96488190D01*
X126360952Y-96464380D01*
X126337142Y-96440571D01*
X159906666Y-91558571D02*
X159882857Y-91582380D01*
X159811428Y-91606190D01*
X159763809Y-91606190D01*
X159692380Y-91582380D01*
X159644761Y-91534761D01*
X159620952Y-91487142D01*
X159597142Y-91391904D01*
X159597142Y-91320476D01*
X159620952Y-91225238D01*
X159644761Y-91177619D01*
X159692380Y-91130000D01*
X159763809Y-91106190D01*
X159811428Y-91106190D01*
X159882857Y-91130000D01*
X159906666Y-91153809D01*
X160073333Y-91106190D02*
X160382857Y-91106190D01*
X160216190Y-91296666D01*
X160287619Y-91296666D01*
X160335238Y-91320476D01*
X160359047Y-91344285D01*
X160382857Y-91391904D01*
X160382857Y-91510952D01*
X160359047Y-91558571D01*
X160335238Y-91582380D01*
X160287619Y-91606190D01*
X160144761Y-91606190D01*
X160097142Y-91582380D01*
X160073333Y-91558571D01*
X168136666Y-103458571D02*
X168112857Y-103482380D01*
X168041428Y-103506190D01*
X167993809Y-103506190D01*
X167922380Y-103482380D01*
X167874761Y-103434761D01*
X167850952Y-103387142D01*
X167827142Y-103291904D01*
X167827142Y-103220476D01*
X167850952Y-103125238D01*
X167874761Y-103077619D01*
X167922380Y-103030000D01*
X167993809Y-103006190D01*
X168041428Y-103006190D01*
X168112857Y-103030000D01*
X168136666Y-103053809D01*
X168327142Y-103053809D02*
X168350952Y-103030000D01*
X168398571Y-103006190D01*
X168517619Y-103006190D01*
X168565238Y-103030000D01*
X168589047Y-103053809D01*
X168612857Y-103101428D01*
X168612857Y-103149047D01*
X168589047Y-103220476D01*
X168303333Y-103506190D01*
X168612857Y-103506190D01*
X174916666Y-93038571D02*
X174892857Y-93062380D01*
X174821428Y-93086190D01*
X174773809Y-93086190D01*
X174702380Y-93062380D01*
X174654761Y-93014761D01*
X174630952Y-92967142D01*
X174607142Y-92871904D01*
X174607142Y-92800476D01*
X174630952Y-92705238D01*
X174654761Y-92657619D01*
X174702380Y-92610000D01*
X174773809Y-92586190D01*
X174821428Y-92586190D01*
X174892857Y-92610000D01*
X174916666Y-92633809D01*
X175392857Y-93086190D02*
X175107142Y-93086190D01*
X175250000Y-93086190D02*
X175250000Y-92586190D01*
X175202380Y-92657619D01*
X175154761Y-92705238D01*
X175107142Y-92729047D01*
X134996666Y-101698571D02*
X134972857Y-101722380D01*
X134901428Y-101746190D01*
X134853809Y-101746190D01*
X134782380Y-101722380D01*
X134734761Y-101674761D01*
X134710952Y-101627142D01*
X134687142Y-101531904D01*
X134687142Y-101460476D01*
X134710952Y-101365238D01*
X134734761Y-101317619D01*
X134782380Y-101270000D01*
X134853809Y-101246190D01*
X134901428Y-101246190D01*
X134972857Y-101270000D01*
X134996666Y-101293809D01*
X135234761Y-101746190D02*
X135330000Y-101746190D01*
X135377619Y-101722380D01*
X135401428Y-101698571D01*
X135449047Y-101627142D01*
X135472857Y-101531904D01*
X135472857Y-101341428D01*
X135449047Y-101293809D01*
X135425238Y-101270000D01*
X135377619Y-101246190D01*
X135282380Y-101246190D01*
X135234761Y-101270000D01*
X135210952Y-101293809D01*
X135187142Y-101341428D01*
X135187142Y-101460476D01*
X135210952Y-101508095D01*
X135234761Y-101531904D01*
X135282380Y-101555714D01*
X135377619Y-101555714D01*
X135425238Y-101531904D01*
X135449047Y-101508095D01*
X135472857Y-101460476D01*
X134919166Y-102758571D02*
X134895357Y-102782380D01*
X134823928Y-102806190D01*
X134776309Y-102806190D01*
X134704880Y-102782380D01*
X134657261Y-102734761D01*
X134633452Y-102687142D01*
X134609642Y-102591904D01*
X134609642Y-102520476D01*
X134633452Y-102425238D01*
X134657261Y-102377619D01*
X134704880Y-102330000D01*
X134776309Y-102306190D01*
X134823928Y-102306190D01*
X134895357Y-102330000D01*
X134919166Y-102353809D01*
X135157261Y-102806190D02*
X135252500Y-102806190D01*
X135300119Y-102782380D01*
X135323928Y-102758571D01*
X135371547Y-102687142D01*
X135395357Y-102591904D01*
X135395357Y-102401428D01*
X135371547Y-102353809D01*
X135347738Y-102330000D01*
X135300119Y-102306190D01*
X135204880Y-102306190D01*
X135157261Y-102330000D01*
X135133452Y-102353809D01*
X135109642Y-102401428D01*
X135109642Y-102520476D01*
X135133452Y-102568095D01*
X135157261Y-102591904D01*
X135204880Y-102615714D01*
X135300119Y-102615714D01*
X135347738Y-102591904D01*
X135371547Y-102568095D01*
X135395357Y-102520476D01*
X132976666Y-87008571D02*
X132952857Y-87032380D01*
X132881428Y-87056190D01*
X132833809Y-87056190D01*
X132762380Y-87032380D01*
X132714761Y-86984761D01*
X132690952Y-86937142D01*
X132667142Y-86841904D01*
X132667142Y-86770476D01*
X132690952Y-86675238D01*
X132714761Y-86627619D01*
X132762380Y-86580000D01*
X132833809Y-86556190D01*
X132881428Y-86556190D01*
X132952857Y-86580000D01*
X132976666Y-86603809D01*
X133143333Y-86556190D02*
X133476666Y-86556190D01*
X133262380Y-87056190D01*
X133106666Y-88958571D02*
X133082857Y-88982380D01*
X133011428Y-89006190D01*
X132963809Y-89006190D01*
X132892380Y-88982380D01*
X132844761Y-88934761D01*
X132820952Y-88887142D01*
X132797142Y-88791904D01*
X132797142Y-88720476D01*
X132820952Y-88625238D01*
X132844761Y-88577619D01*
X132892380Y-88530000D01*
X132963809Y-88506190D01*
X133011428Y-88506190D01*
X133082857Y-88530000D01*
X133106666Y-88553809D01*
X133273333Y-88506190D02*
X133606666Y-88506190D01*
X133392380Y-89006190D01*
X142478571Y-101506190D02*
X142311904Y-101268095D01*
X142192857Y-101506190D02*
X142192857Y-101006190D01*
X142383333Y-101006190D01*
X142430952Y-101030000D01*
X142454761Y-101053809D01*
X142478571Y-101101428D01*
X142478571Y-101172857D01*
X142454761Y-101220476D01*
X142430952Y-101244285D01*
X142383333Y-101268095D01*
X142192857Y-101268095D01*
X142954761Y-101506190D02*
X142669047Y-101506190D01*
X142811904Y-101506190D02*
X142811904Y-101006190D01*
X142764285Y-101077619D01*
X142716666Y-101125238D01*
X142669047Y-101149047D01*
X143121428Y-101006190D02*
X143430952Y-101006190D01*
X143264285Y-101196666D01*
X143335714Y-101196666D01*
X143383333Y-101220476D01*
X143407142Y-101244285D01*
X143430952Y-101291904D01*
X143430952Y-101410952D01*
X143407142Y-101458571D01*
X143383333Y-101482380D01*
X143335714Y-101506190D01*
X143192857Y-101506190D01*
X143145238Y-101482380D01*
X143121428Y-101458571D01*
X141856071Y-102606190D02*
X141689404Y-102368095D01*
X141570357Y-102606190D02*
X141570357Y-102106190D01*
X141760833Y-102106190D01*
X141808452Y-102130000D01*
X141832261Y-102153809D01*
X141856071Y-102201428D01*
X141856071Y-102272857D01*
X141832261Y-102320476D01*
X141808452Y-102344285D01*
X141760833Y-102368095D01*
X141570357Y-102368095D01*
X142332261Y-102606190D02*
X142046547Y-102606190D01*
X142189404Y-102606190D02*
X142189404Y-102106190D01*
X142141785Y-102177619D01*
X142094166Y-102225238D01*
X142046547Y-102249047D01*
X142498928Y-102106190D02*
X142808452Y-102106190D01*
X142641785Y-102296666D01*
X142713214Y-102296666D01*
X142760833Y-102320476D01*
X142784642Y-102344285D01*
X142808452Y-102391904D01*
X142808452Y-102510952D01*
X142784642Y-102558571D01*
X142760833Y-102582380D01*
X142713214Y-102606190D01*
X142570357Y-102606190D01*
X142522738Y-102582380D01*
X142498928Y-102558571D01*
X112638571Y-98786190D02*
X112471904Y-98548095D01*
X112352857Y-98786190D02*
X112352857Y-98286190D01*
X112543333Y-98286190D01*
X112590952Y-98310000D01*
X112614761Y-98333809D01*
X112638571Y-98381428D01*
X112638571Y-98452857D01*
X112614761Y-98500476D01*
X112590952Y-98524285D01*
X112543333Y-98548095D01*
X112352857Y-98548095D01*
X113114761Y-98786190D02*
X112829047Y-98786190D01*
X112971904Y-98786190D02*
X112971904Y-98286190D01*
X112924285Y-98357619D01*
X112876666Y-98405238D01*
X112829047Y-98429047D01*
X113567142Y-98286190D02*
X113329047Y-98286190D01*
X113305238Y-98524285D01*
X113329047Y-98500476D01*
X113376666Y-98476666D01*
X113495714Y-98476666D01*
X113543333Y-98500476D01*
X113567142Y-98524285D01*
X113590952Y-98571904D01*
X113590952Y-98690952D01*
X113567142Y-98738571D01*
X113543333Y-98762380D01*
X113495714Y-98786190D01*
X113376666Y-98786190D01*
X113329047Y-98762380D01*
X113305238Y-98738571D01*
X113216190Y-100901428D02*
X112978095Y-101068095D01*
X113216190Y-101187142D02*
X112716190Y-101187142D01*
X112716190Y-100996666D01*
X112740000Y-100949047D01*
X112763809Y-100925238D01*
X112811428Y-100901428D01*
X112882857Y-100901428D01*
X112930476Y-100925238D01*
X112954285Y-100949047D01*
X112978095Y-100996666D01*
X112978095Y-101187142D01*
X113216190Y-100425238D02*
X113216190Y-100710952D01*
X113216190Y-100568095D02*
X112716190Y-100568095D01*
X112787619Y-100615714D01*
X112835238Y-100663333D01*
X112859047Y-100710952D01*
X112716190Y-99972857D02*
X112716190Y-100210952D01*
X112954285Y-100234761D01*
X112930476Y-100210952D01*
X112906666Y-100163333D01*
X112906666Y-100044285D01*
X112930476Y-99996666D01*
X112954285Y-99972857D01*
X113001904Y-99949047D01*
X113120952Y-99949047D01*
X113168571Y-99972857D01*
X113192380Y-99996666D01*
X113216190Y-100044285D01*
X113216190Y-100163333D01*
X113192380Y-100210952D01*
X113168571Y-100234761D01*
X127441666Y-107596190D02*
X127275000Y-107358095D01*
X127155952Y-107596190D02*
X127155952Y-107096190D01*
X127346428Y-107096190D01*
X127394047Y-107120000D01*
X127417857Y-107143809D01*
X127441666Y-107191428D01*
X127441666Y-107262857D01*
X127417857Y-107310476D01*
X127394047Y-107334285D01*
X127346428Y-107358095D01*
X127155952Y-107358095D01*
X127727380Y-107310476D02*
X127679761Y-107286666D01*
X127655952Y-107262857D01*
X127632142Y-107215238D01*
X127632142Y-107191428D01*
X127655952Y-107143809D01*
X127679761Y-107120000D01*
X127727380Y-107096190D01*
X127822619Y-107096190D01*
X127870238Y-107120000D01*
X127894047Y-107143809D01*
X127917857Y-107191428D01*
X127917857Y-107215238D01*
X127894047Y-107262857D01*
X127870238Y-107286666D01*
X127822619Y-107310476D01*
X127727380Y-107310476D01*
X127679761Y-107334285D01*
X127655952Y-107358095D01*
X127632142Y-107405714D01*
X127632142Y-107500952D01*
X127655952Y-107548571D01*
X127679761Y-107572380D01*
X127727380Y-107596190D01*
X127822619Y-107596190D01*
X127870238Y-107572380D01*
X127894047Y-107548571D01*
X127917857Y-107500952D01*
X127917857Y-107405714D01*
X127894047Y-107358095D01*
X127870238Y-107334285D01*
X127822619Y-107310476D01*
X129999166Y-107916190D02*
X129832500Y-107678095D01*
X129713452Y-107916190D02*
X129713452Y-107416190D01*
X129903928Y-107416190D01*
X129951547Y-107440000D01*
X129975357Y-107463809D01*
X129999166Y-107511428D01*
X129999166Y-107582857D01*
X129975357Y-107630476D01*
X129951547Y-107654285D01*
X129903928Y-107678095D01*
X129713452Y-107678095D01*
X130284880Y-107630476D02*
X130237261Y-107606666D01*
X130213452Y-107582857D01*
X130189642Y-107535238D01*
X130189642Y-107511428D01*
X130213452Y-107463809D01*
X130237261Y-107440000D01*
X130284880Y-107416190D01*
X130380119Y-107416190D01*
X130427738Y-107440000D01*
X130451547Y-107463809D01*
X130475357Y-107511428D01*
X130475357Y-107535238D01*
X130451547Y-107582857D01*
X130427738Y-107606666D01*
X130380119Y-107630476D01*
X130284880Y-107630476D01*
X130237261Y-107654285D01*
X130213452Y-107678095D01*
X130189642Y-107725714D01*
X130189642Y-107820952D01*
X130213452Y-107868571D01*
X130237261Y-107892380D01*
X130284880Y-107916190D01*
X130380119Y-107916190D01*
X130427738Y-107892380D01*
X130451547Y-107868571D01*
X130475357Y-107820952D01*
X130475357Y-107725714D01*
X130451547Y-107678095D01*
X130427738Y-107654285D01*
X130380119Y-107630476D01*
X116476666Y-96448571D02*
X116452857Y-96472380D01*
X116381428Y-96496190D01*
X116333809Y-96496190D01*
X116262380Y-96472380D01*
X116214761Y-96424761D01*
X116190952Y-96377142D01*
X116167142Y-96281904D01*
X116167142Y-96210476D01*
X116190952Y-96115238D01*
X116214761Y-96067619D01*
X116262380Y-96020000D01*
X116333809Y-95996190D01*
X116381428Y-95996190D01*
X116452857Y-96020000D01*
X116476666Y-96043809D01*
X116905238Y-96162857D02*
X116905238Y-96496190D01*
X116786190Y-95972380D02*
X116667142Y-96329523D01*
X116976666Y-96329523D01*
X116768571Y-98263333D02*
X116792380Y-98287142D01*
X116816190Y-98358571D01*
X116816190Y-98406190D01*
X116792380Y-98477619D01*
X116744761Y-98525238D01*
X116697142Y-98549047D01*
X116601904Y-98572857D01*
X116530476Y-98572857D01*
X116435238Y-98549047D01*
X116387619Y-98525238D01*
X116340000Y-98477619D01*
X116316190Y-98406190D01*
X116316190Y-98358571D01*
X116340000Y-98287142D01*
X116363809Y-98263333D01*
X116482857Y-97834761D02*
X116816190Y-97834761D01*
X116292380Y-97953809D02*
X116649523Y-98072857D01*
X116649523Y-97763333D01*
X114422380Y-86123809D02*
X114374761Y-86100000D01*
X114327142Y-86052380D01*
X114255714Y-85980952D01*
X114208095Y-85957142D01*
X114160476Y-85957142D01*
X114184285Y-86076190D02*
X114136666Y-86052380D01*
X114089047Y-86004761D01*
X114065238Y-85909523D01*
X114065238Y-85742857D01*
X114089047Y-85647619D01*
X114136666Y-85600000D01*
X114184285Y-85576190D01*
X114279523Y-85576190D01*
X114327142Y-85600000D01*
X114374761Y-85647619D01*
X114398571Y-85742857D01*
X114398571Y-85909523D01*
X114374761Y-86004761D01*
X114327142Y-86052380D01*
X114279523Y-86076190D01*
X114184285Y-86076190D01*
X114565238Y-85576190D02*
X114874761Y-85576190D01*
X114708095Y-85766666D01*
X114779523Y-85766666D01*
X114827142Y-85790476D01*
X114850952Y-85814285D01*
X114874761Y-85861904D01*
X114874761Y-85980952D01*
X114850952Y-86028571D01*
X114827142Y-86052380D01*
X114779523Y-86076190D01*
X114636666Y-86076190D01*
X114589047Y-86052380D01*
X114565238Y-86028571D01*
X117863809Y-89927619D02*
X117840000Y-89975238D01*
X117792380Y-90022857D01*
X117720952Y-90094285D01*
X117697142Y-90141904D01*
X117697142Y-90189523D01*
X117816190Y-90165714D02*
X117792380Y-90213333D01*
X117744761Y-90260952D01*
X117649523Y-90284761D01*
X117482857Y-90284761D01*
X117387619Y-90260952D01*
X117340000Y-90213333D01*
X117316190Y-90165714D01*
X117316190Y-90070476D01*
X117340000Y-90022857D01*
X117387619Y-89975238D01*
X117482857Y-89951428D01*
X117649523Y-89951428D01*
X117744761Y-89975238D01*
X117792380Y-90022857D01*
X117816190Y-90070476D01*
X117816190Y-90165714D01*
X117316190Y-89784761D02*
X117316190Y-89475238D01*
X117506666Y-89641904D01*
X117506666Y-89570476D01*
X117530476Y-89522857D01*
X117554285Y-89499047D01*
X117601904Y-89475238D01*
X117720952Y-89475238D01*
X117768571Y-89499047D01*
X117792380Y-89522857D01*
X117816190Y-89570476D01*
X117816190Y-89713333D01*
X117792380Y-89760952D01*
X117768571Y-89784761D01*
X139448571Y-101456190D02*
X139281904Y-101218095D01*
X139162857Y-101456190D02*
X139162857Y-100956190D01*
X139353333Y-100956190D01*
X139400952Y-100980000D01*
X139424761Y-101003809D01*
X139448571Y-101051428D01*
X139448571Y-101122857D01*
X139424761Y-101170476D01*
X139400952Y-101194285D01*
X139353333Y-101218095D01*
X139162857Y-101218095D01*
X139924761Y-101456190D02*
X139639047Y-101456190D01*
X139781904Y-101456190D02*
X139781904Y-100956190D01*
X139734285Y-101027619D01*
X139686666Y-101075238D01*
X139639047Y-101099047D01*
X140115238Y-101003809D02*
X140139047Y-100980000D01*
X140186666Y-100956190D01*
X140305714Y-100956190D01*
X140353333Y-100980000D01*
X140377142Y-101003809D01*
X140400952Y-101051428D01*
X140400952Y-101099047D01*
X140377142Y-101170476D01*
X140091428Y-101456190D01*
X140400952Y-101456190D01*
X138668571Y-102606190D02*
X138501904Y-102368095D01*
X138382857Y-102606190D02*
X138382857Y-102106190D01*
X138573333Y-102106190D01*
X138620952Y-102130000D01*
X138644761Y-102153809D01*
X138668571Y-102201428D01*
X138668571Y-102272857D01*
X138644761Y-102320476D01*
X138620952Y-102344285D01*
X138573333Y-102368095D01*
X138382857Y-102368095D01*
X139144761Y-102606190D02*
X138859047Y-102606190D01*
X139001904Y-102606190D02*
X139001904Y-102106190D01*
X138954285Y-102177619D01*
X138906666Y-102225238D01*
X138859047Y-102249047D01*
X139335238Y-102153809D02*
X139359047Y-102130000D01*
X139406666Y-102106190D01*
X139525714Y-102106190D01*
X139573333Y-102130000D01*
X139597142Y-102153809D01*
X139620952Y-102201428D01*
X139620952Y-102249047D01*
X139597142Y-102320476D01*
X139311428Y-102606190D01*
X139620952Y-102606190D01*
X122401666Y-95346190D02*
X122163571Y-95346190D01*
X122163571Y-94846190D01*
X122544523Y-94893809D02*
X122568333Y-94870000D01*
X122615952Y-94846190D01*
X122735000Y-94846190D01*
X122782619Y-94870000D01*
X122806428Y-94893809D01*
X122830238Y-94941428D01*
X122830238Y-94989047D01*
X122806428Y-95060476D01*
X122520714Y-95346190D01*
X122830238Y-95346190D01*
X122519166Y-96716190D02*
X122281071Y-96716190D01*
X122281071Y-96216190D01*
X122662023Y-96263809D02*
X122685833Y-96240000D01*
X122733452Y-96216190D01*
X122852500Y-96216190D01*
X122900119Y-96240000D01*
X122923928Y-96263809D01*
X122947738Y-96311428D01*
X122947738Y-96359047D01*
X122923928Y-96430476D01*
X122638214Y-96716190D01*
X122947738Y-96716190D01*
X124608333Y-108524285D02*
X124441666Y-108524285D01*
X124441666Y-108786190D02*
X124441666Y-108286190D01*
X124679761Y-108286190D01*
X125036904Y-108524285D02*
X125108333Y-108548095D01*
X125132142Y-108571904D01*
X125155952Y-108619523D01*
X125155952Y-108690952D01*
X125132142Y-108738571D01*
X125108333Y-108762380D01*
X125060714Y-108786190D01*
X124870238Y-108786190D01*
X124870238Y-108286190D01*
X125036904Y-108286190D01*
X125084523Y-108310000D01*
X125108333Y-108333809D01*
X125132142Y-108381428D01*
X125132142Y-108429047D01*
X125108333Y-108476666D01*
X125084523Y-108500476D01*
X125036904Y-108524285D01*
X124870238Y-108524285D01*
X125632142Y-108786190D02*
X125346428Y-108786190D01*
X125489285Y-108786190D02*
X125489285Y-108286190D01*
X125441666Y-108357619D01*
X125394047Y-108405238D01*
X125346428Y-108429047D01*
X124635833Y-109884285D02*
X124469166Y-109884285D01*
X124469166Y-110146190D02*
X124469166Y-109646190D01*
X124707261Y-109646190D01*
X125064404Y-109884285D02*
X125135833Y-109908095D01*
X125159642Y-109931904D01*
X125183452Y-109979523D01*
X125183452Y-110050952D01*
X125159642Y-110098571D01*
X125135833Y-110122380D01*
X125088214Y-110146190D01*
X124897738Y-110146190D01*
X124897738Y-109646190D01*
X125064404Y-109646190D01*
X125112023Y-109670000D01*
X125135833Y-109693809D01*
X125159642Y-109741428D01*
X125159642Y-109789047D01*
X125135833Y-109836666D01*
X125112023Y-109860476D01*
X125064404Y-109884285D01*
X124897738Y-109884285D01*
X125659642Y-110146190D02*
X125373928Y-110146190D01*
X125516785Y-110146190D02*
X125516785Y-109646190D01*
X125469166Y-109717619D01*
X125421547Y-109765238D01*
X125373928Y-109789047D01*
X142510952Y-104366190D02*
X142510952Y-103866190D01*
X142630000Y-103866190D01*
X142701428Y-103890000D01*
X142749047Y-103937619D01*
X142772857Y-103985238D01*
X142796666Y-104080476D01*
X142796666Y-104151904D01*
X142772857Y-104247142D01*
X142749047Y-104294761D01*
X142701428Y-104342380D01*
X142630000Y-104366190D01*
X142510952Y-104366190D01*
X142963333Y-103866190D02*
X143272857Y-103866190D01*
X143106190Y-104056666D01*
X143177619Y-104056666D01*
X143225238Y-104080476D01*
X143249047Y-104104285D01*
X143272857Y-104151904D01*
X143272857Y-104270952D01*
X143249047Y-104318571D01*
X143225238Y-104342380D01*
X143177619Y-104366190D01*
X143034761Y-104366190D01*
X142987142Y-104342380D01*
X142963333Y-104318571D01*
X140320952Y-105086190D02*
X140320952Y-104586190D01*
X140440000Y-104586190D01*
X140511428Y-104610000D01*
X140559047Y-104657619D01*
X140582857Y-104705238D01*
X140606666Y-104800476D01*
X140606666Y-104871904D01*
X140582857Y-104967142D01*
X140559047Y-105014761D01*
X140511428Y-105062380D01*
X140440000Y-105086190D01*
X140320952Y-105086190D01*
X140773333Y-104586190D02*
X141082857Y-104586190D01*
X140916190Y-104776666D01*
X140987619Y-104776666D01*
X141035238Y-104800476D01*
X141059047Y-104824285D01*
X141082857Y-104871904D01*
X141082857Y-104990952D01*
X141059047Y-105038571D01*
X141035238Y-105062380D01*
X140987619Y-105086190D01*
X140844761Y-105086190D01*
X140797142Y-105062380D01*
X140773333Y-105038571D01*
X136470952Y-105006190D02*
X136470952Y-104506190D01*
X136590000Y-104506190D01*
X136661428Y-104530000D01*
X136709047Y-104577619D01*
X136732857Y-104625238D01*
X136756666Y-104720476D01*
X136756666Y-104791904D01*
X136732857Y-104887142D01*
X136709047Y-104934761D01*
X136661428Y-104982380D01*
X136590000Y-105006190D01*
X136470952Y-105006190D01*
X137232857Y-105006190D02*
X136947142Y-105006190D01*
X137090000Y-105006190D02*
X137090000Y-104506190D01*
X137042380Y-104577619D01*
X136994761Y-104625238D01*
X136947142Y-104649047D01*
X134310952Y-105646190D02*
X134310952Y-105146190D01*
X134430000Y-105146190D01*
X134501428Y-105170000D01*
X134549047Y-105217619D01*
X134572857Y-105265238D01*
X134596666Y-105360476D01*
X134596666Y-105431904D01*
X134572857Y-105527142D01*
X134549047Y-105574761D01*
X134501428Y-105622380D01*
X134430000Y-105646190D01*
X134310952Y-105646190D01*
X135072857Y-105646190D02*
X134787142Y-105646190D01*
X134930000Y-105646190D02*
X134930000Y-105146190D01*
X134882380Y-105217619D01*
X134834761Y-105265238D01*
X134787142Y-105289047D01*
X133656666Y-98338571D02*
X133632857Y-98362380D01*
X133561428Y-98386190D01*
X133513809Y-98386190D01*
X133442380Y-98362380D01*
X133394761Y-98314761D01*
X133370952Y-98267142D01*
X133347142Y-98171904D01*
X133347142Y-98100476D01*
X133370952Y-98005238D01*
X133394761Y-97957619D01*
X133442380Y-97910000D01*
X133513809Y-97886190D01*
X133561428Y-97886190D01*
X133632857Y-97910000D01*
X133656666Y-97933809D01*
X133942380Y-98100476D02*
X133894761Y-98076666D01*
X133870952Y-98052857D01*
X133847142Y-98005238D01*
X133847142Y-97981428D01*
X133870952Y-97933809D01*
X133894761Y-97910000D01*
X133942380Y-97886190D01*
X134037619Y-97886190D01*
X134085238Y-97910000D01*
X134109047Y-97933809D01*
X134132857Y-97981428D01*
X134132857Y-98005238D01*
X134109047Y-98052857D01*
X134085238Y-98076666D01*
X134037619Y-98100476D01*
X133942380Y-98100476D01*
X133894761Y-98124285D01*
X133870952Y-98148095D01*
X133847142Y-98195714D01*
X133847142Y-98290952D01*
X133870952Y-98338571D01*
X133894761Y-98362380D01*
X133942380Y-98386190D01*
X134037619Y-98386190D01*
X134085238Y-98362380D01*
X134109047Y-98338571D01*
X134132857Y-98290952D01*
X134132857Y-98195714D01*
X134109047Y-98148095D01*
X134085238Y-98124285D01*
X134037619Y-98100476D01*
X133568571Y-100063333D02*
X133592380Y-100087142D01*
X133616190Y-100158571D01*
X133616190Y-100206190D01*
X133592380Y-100277619D01*
X133544761Y-100325238D01*
X133497142Y-100349047D01*
X133401904Y-100372857D01*
X133330476Y-100372857D01*
X133235238Y-100349047D01*
X133187619Y-100325238D01*
X133140000Y-100277619D01*
X133116190Y-100206190D01*
X133116190Y-100158571D01*
X133140000Y-100087142D01*
X133163809Y-100063333D01*
X133330476Y-99777619D02*
X133306666Y-99825238D01*
X133282857Y-99849047D01*
X133235238Y-99872857D01*
X133211428Y-99872857D01*
X133163809Y-99849047D01*
X133140000Y-99825238D01*
X133116190Y-99777619D01*
X133116190Y-99682380D01*
X133140000Y-99634761D01*
X133163809Y-99610952D01*
X133211428Y-99587142D01*
X133235238Y-99587142D01*
X133282857Y-99610952D01*
X133306666Y-99634761D01*
X133330476Y-99682380D01*
X133330476Y-99777619D01*
X133354285Y-99825238D01*
X133378095Y-99849047D01*
X133425714Y-99872857D01*
X133520952Y-99872857D01*
X133568571Y-99849047D01*
X133592380Y-99825238D01*
X133616190Y-99777619D01*
X133616190Y-99682380D01*
X133592380Y-99634761D01*
X133568571Y-99610952D01*
X133520952Y-99587142D01*
X133425714Y-99587142D01*
X133378095Y-99610952D01*
X133354285Y-99634761D01*
X133330476Y-99682380D01*
X116379047Y-101666190D02*
X116379047Y-102070952D01*
X116402857Y-102118571D01*
X116426666Y-102142380D01*
X116474285Y-102166190D01*
X116569523Y-102166190D01*
X116617142Y-102142380D01*
X116640952Y-102118571D01*
X116664761Y-102070952D01*
X116664761Y-101666190D01*
X117164761Y-102166190D02*
X116879047Y-102166190D01*
X117021904Y-102166190D02*
X117021904Y-101666190D01*
X116974285Y-101737619D01*
X116926666Y-101785238D01*
X116879047Y-101809047D01*
X115209047Y-104156190D02*
X115209047Y-104560952D01*
X115232857Y-104608571D01*
X115256666Y-104632380D01*
X115304285Y-104656190D01*
X115399523Y-104656190D01*
X115447142Y-104632380D01*
X115470952Y-104608571D01*
X115494761Y-104560952D01*
X115494761Y-104156190D01*
X115994761Y-104656190D02*
X115709047Y-104656190D01*
X115851904Y-104656190D02*
X115851904Y-104156190D01*
X115804285Y-104227619D01*
X115756666Y-104275238D01*
X115709047Y-104299047D01*
X122758571Y-91906190D02*
X122591904Y-91668095D01*
X122472857Y-91906190D02*
X122472857Y-91406190D01*
X122663333Y-91406190D01*
X122710952Y-91430000D01*
X122734761Y-91453809D01*
X122758571Y-91501428D01*
X122758571Y-91572857D01*
X122734761Y-91620476D01*
X122710952Y-91644285D01*
X122663333Y-91668095D01*
X122472857Y-91668095D01*
X122949047Y-91453809D02*
X122972857Y-91430000D01*
X123020476Y-91406190D01*
X123139523Y-91406190D01*
X123187142Y-91430000D01*
X123210952Y-91453809D01*
X123234761Y-91501428D01*
X123234761Y-91549047D01*
X123210952Y-91620476D01*
X122925238Y-91906190D01*
X123234761Y-91906190D01*
X123544285Y-91406190D02*
X123591904Y-91406190D01*
X123639523Y-91430000D01*
X123663333Y-91453809D01*
X123687142Y-91501428D01*
X123710952Y-91596666D01*
X123710952Y-91715714D01*
X123687142Y-91810952D01*
X123663333Y-91858571D01*
X123639523Y-91882380D01*
X123591904Y-91906190D01*
X123544285Y-91906190D01*
X123496666Y-91882380D01*
X123472857Y-91858571D01*
X123449047Y-91810952D01*
X123425238Y-91715714D01*
X123425238Y-91596666D01*
X123449047Y-91501428D01*
X123472857Y-91453809D01*
X123496666Y-91430000D01*
X123544285Y-91406190D01*
X121816190Y-91951428D02*
X121578095Y-92118095D01*
X121816190Y-92237142D02*
X121316190Y-92237142D01*
X121316190Y-92046666D01*
X121340000Y-91999047D01*
X121363809Y-91975238D01*
X121411428Y-91951428D01*
X121482857Y-91951428D01*
X121530476Y-91975238D01*
X121554285Y-91999047D01*
X121578095Y-92046666D01*
X121578095Y-92237142D01*
X121363809Y-91760952D02*
X121340000Y-91737142D01*
X121316190Y-91689523D01*
X121316190Y-91570476D01*
X121340000Y-91522857D01*
X121363809Y-91499047D01*
X121411428Y-91475238D01*
X121459047Y-91475238D01*
X121530476Y-91499047D01*
X121816190Y-91784761D01*
X121816190Y-91475238D01*
X121316190Y-91165714D02*
X121316190Y-91118095D01*
X121340000Y-91070476D01*
X121363809Y-91046666D01*
X121411428Y-91022857D01*
X121506666Y-90999047D01*
X121625714Y-90999047D01*
X121720952Y-91022857D01*
X121768571Y-91046666D01*
X121792380Y-91070476D01*
X121816190Y-91118095D01*
X121816190Y-91165714D01*
X121792380Y-91213333D01*
X121768571Y-91237142D01*
X121720952Y-91260952D01*
X121625714Y-91284761D01*
X121506666Y-91284761D01*
X121411428Y-91260952D01*
X121363809Y-91237142D01*
X121340000Y-91213333D01*
X121316190Y-91165714D01*
X127783333Y-89902380D02*
X127854761Y-89926190D01*
X127973809Y-89926190D01*
X128021428Y-89902380D01*
X128045238Y-89878571D01*
X128069047Y-89830952D01*
X128069047Y-89783333D01*
X128045238Y-89735714D01*
X128021428Y-89711904D01*
X127973809Y-89688095D01*
X127878571Y-89664285D01*
X127830952Y-89640476D01*
X127807142Y-89616666D01*
X127783333Y-89569047D01*
X127783333Y-89521428D01*
X127807142Y-89473809D01*
X127830952Y-89450000D01*
X127878571Y-89426190D01*
X127997619Y-89426190D01*
X128069047Y-89450000D01*
X128235714Y-89426190D02*
X128354761Y-89926190D01*
X128450000Y-89569047D01*
X128545238Y-89926190D01*
X128664285Y-89426190D01*
X129116666Y-89926190D02*
X128830952Y-89926190D01*
X128973809Y-89926190D02*
X128973809Y-89426190D01*
X128926190Y-89497619D01*
X128878571Y-89545238D01*
X128830952Y-89569047D01*
X134084642Y-94256190D02*
X134370357Y-94256190D01*
X134227500Y-94756190D02*
X134227500Y-94256190D01*
X134537023Y-94756190D02*
X134537023Y-94256190D01*
X134537023Y-94494285D02*
X134822738Y-94494285D01*
X134822738Y-94756190D02*
X134822738Y-94256190D01*
X135322738Y-94756190D02*
X135037023Y-94756190D01*
X135179880Y-94756190D02*
X135179880Y-94256190D01*
X135132261Y-94327619D01*
X135084642Y-94375238D01*
X135037023Y-94399047D01*
X134084642Y-95906190D02*
X134370357Y-95906190D01*
X134227500Y-96406190D02*
X134227500Y-95906190D01*
X134537023Y-96406190D02*
X134537023Y-95906190D01*
X134537023Y-96144285D02*
X134822738Y-96144285D01*
X134822738Y-96406190D02*
X134822738Y-95906190D01*
X135322738Y-96406190D02*
X135037023Y-96406190D01*
X135179880Y-96406190D02*
X135179880Y-95906190D01*
X135132261Y-95977619D01*
X135084642Y-96025238D01*
X135037023Y-96049047D01*
X138386190Y-97088928D02*
X138148095Y-97255595D01*
X138386190Y-97374642D02*
X137886190Y-97374642D01*
X137886190Y-97184166D01*
X137910000Y-97136547D01*
X137933809Y-97112738D01*
X137981428Y-97088928D01*
X138052857Y-97088928D01*
X138100476Y-97112738D01*
X138124285Y-97136547D01*
X138148095Y-97184166D01*
X138148095Y-97374642D01*
X138386190Y-96612738D02*
X138386190Y-96898452D01*
X138386190Y-96755595D02*
X137886190Y-96755595D01*
X137957619Y-96803214D01*
X138005238Y-96850833D01*
X138029047Y-96898452D01*
X138100476Y-96327023D02*
X138076666Y-96374642D01*
X138052857Y-96398452D01*
X138005238Y-96422261D01*
X137981428Y-96422261D01*
X137933809Y-96398452D01*
X137910000Y-96374642D01*
X137886190Y-96327023D01*
X137886190Y-96231785D01*
X137910000Y-96184166D01*
X137933809Y-96160357D01*
X137981428Y-96136547D01*
X138005238Y-96136547D01*
X138052857Y-96160357D01*
X138076666Y-96184166D01*
X138100476Y-96231785D01*
X138100476Y-96327023D01*
X138124285Y-96374642D01*
X138148095Y-96398452D01*
X138195714Y-96422261D01*
X138290952Y-96422261D01*
X138338571Y-96398452D01*
X138362380Y-96374642D01*
X138386190Y-96327023D01*
X138386190Y-96231785D01*
X138362380Y-96184166D01*
X138338571Y-96160357D01*
X138290952Y-96136547D01*
X138195714Y-96136547D01*
X138148095Y-96160357D01*
X138124285Y-96184166D01*
X138100476Y-96231785D01*
X139816190Y-97088928D02*
X139578095Y-97255595D01*
X139816190Y-97374642D02*
X139316190Y-97374642D01*
X139316190Y-97184166D01*
X139340000Y-97136547D01*
X139363809Y-97112738D01*
X139411428Y-97088928D01*
X139482857Y-97088928D01*
X139530476Y-97112738D01*
X139554285Y-97136547D01*
X139578095Y-97184166D01*
X139578095Y-97374642D01*
X139816190Y-96612738D02*
X139816190Y-96898452D01*
X139816190Y-96755595D02*
X139316190Y-96755595D01*
X139387619Y-96803214D01*
X139435238Y-96850833D01*
X139459047Y-96898452D01*
X139530476Y-96327023D02*
X139506666Y-96374642D01*
X139482857Y-96398452D01*
X139435238Y-96422261D01*
X139411428Y-96422261D01*
X139363809Y-96398452D01*
X139340000Y-96374642D01*
X139316190Y-96327023D01*
X139316190Y-96231785D01*
X139340000Y-96184166D01*
X139363809Y-96160357D01*
X139411428Y-96136547D01*
X139435238Y-96136547D01*
X139482857Y-96160357D01*
X139506666Y-96184166D01*
X139530476Y-96231785D01*
X139530476Y-96327023D01*
X139554285Y-96374642D01*
X139578095Y-96398452D01*
X139625714Y-96422261D01*
X139720952Y-96422261D01*
X139768571Y-96398452D01*
X139792380Y-96374642D01*
X139816190Y-96327023D01*
X139816190Y-96231785D01*
X139792380Y-96184166D01*
X139768571Y-96160357D01*
X139720952Y-96136547D01*
X139625714Y-96136547D01*
X139578095Y-96160357D01*
X139554285Y-96184166D01*
X139530476Y-96231785D01*
X135078571Y-90066190D02*
X134911904Y-89828095D01*
X134792857Y-90066190D02*
X134792857Y-89566190D01*
X134983333Y-89566190D01*
X135030952Y-89590000D01*
X135054761Y-89613809D01*
X135078571Y-89661428D01*
X135078571Y-89732857D01*
X135054761Y-89780476D01*
X135030952Y-89804285D01*
X134983333Y-89828095D01*
X134792857Y-89828095D01*
X135554761Y-90066190D02*
X135269047Y-90066190D01*
X135411904Y-90066190D02*
X135411904Y-89566190D01*
X135364285Y-89637619D01*
X135316666Y-89685238D01*
X135269047Y-89709047D01*
X135983333Y-89732857D02*
X135983333Y-90066190D01*
X135864285Y-89542380D02*
X135745238Y-89899523D01*
X136054761Y-89899523D01*
X134616190Y-92101428D02*
X134378095Y-92268095D01*
X134616190Y-92387142D02*
X134116190Y-92387142D01*
X134116190Y-92196666D01*
X134140000Y-92149047D01*
X134163809Y-92125238D01*
X134211428Y-92101428D01*
X134282857Y-92101428D01*
X134330476Y-92125238D01*
X134354285Y-92149047D01*
X134378095Y-92196666D01*
X134378095Y-92387142D01*
X134616190Y-91625238D02*
X134616190Y-91910952D01*
X134616190Y-91768095D02*
X134116190Y-91768095D01*
X134187619Y-91815714D01*
X134235238Y-91863333D01*
X134259047Y-91910952D01*
X134282857Y-91196666D02*
X134616190Y-91196666D01*
X134092380Y-91315714D02*
X134449523Y-91434761D01*
X134449523Y-91125238D01*
X161726666Y-91666190D02*
X161560000Y-91428095D01*
X161440952Y-91666190D02*
X161440952Y-91166190D01*
X161631428Y-91166190D01*
X161679047Y-91190000D01*
X161702857Y-91213809D01*
X161726666Y-91261428D01*
X161726666Y-91332857D01*
X161702857Y-91380476D01*
X161679047Y-91404285D01*
X161631428Y-91428095D01*
X161440952Y-91428095D01*
X161893333Y-91166190D02*
X162226666Y-91166190D01*
X162012380Y-91666190D01*
X161719166Y-92806190D02*
X161552500Y-92568095D01*
X161433452Y-92806190D02*
X161433452Y-92306190D01*
X161623928Y-92306190D01*
X161671547Y-92330000D01*
X161695357Y-92353809D01*
X161719166Y-92401428D01*
X161719166Y-92472857D01*
X161695357Y-92520476D01*
X161671547Y-92544285D01*
X161623928Y-92568095D01*
X161433452Y-92568095D01*
X161885833Y-92306190D02*
X162219166Y-92306190D01*
X162004880Y-92806190D01*
X122808571Y-88636190D02*
X122641904Y-88398095D01*
X122522857Y-88636190D02*
X122522857Y-88136190D01*
X122713333Y-88136190D01*
X122760952Y-88160000D01*
X122784761Y-88183809D01*
X122808571Y-88231428D01*
X122808571Y-88302857D01*
X122784761Y-88350476D01*
X122760952Y-88374285D01*
X122713333Y-88398095D01*
X122522857Y-88398095D01*
X123284761Y-88636190D02*
X122999047Y-88636190D01*
X123141904Y-88636190D02*
X123141904Y-88136190D01*
X123094285Y-88207619D01*
X123046666Y-88255238D01*
X122999047Y-88279047D01*
X123522857Y-88636190D02*
X123618095Y-88636190D01*
X123665714Y-88612380D01*
X123689523Y-88588571D01*
X123737142Y-88517142D01*
X123760952Y-88421904D01*
X123760952Y-88231428D01*
X123737142Y-88183809D01*
X123713333Y-88160000D01*
X123665714Y-88136190D01*
X123570476Y-88136190D01*
X123522857Y-88160000D01*
X123499047Y-88183809D01*
X123475238Y-88231428D01*
X123475238Y-88350476D01*
X123499047Y-88398095D01*
X123522857Y-88421904D01*
X123570476Y-88445714D01*
X123665714Y-88445714D01*
X123713333Y-88421904D01*
X123737142Y-88398095D01*
X123760952Y-88350476D01*
X121816190Y-88701428D02*
X121578095Y-88868095D01*
X121816190Y-88987142D02*
X121316190Y-88987142D01*
X121316190Y-88796666D01*
X121340000Y-88749047D01*
X121363809Y-88725238D01*
X121411428Y-88701428D01*
X121482857Y-88701428D01*
X121530476Y-88725238D01*
X121554285Y-88749047D01*
X121578095Y-88796666D01*
X121578095Y-88987142D01*
X121816190Y-88225238D02*
X121816190Y-88510952D01*
X121816190Y-88368095D02*
X121316190Y-88368095D01*
X121387619Y-88415714D01*
X121435238Y-88463333D01*
X121459047Y-88510952D01*
X121816190Y-87987142D02*
X121816190Y-87891904D01*
X121792380Y-87844285D01*
X121768571Y-87820476D01*
X121697142Y-87772857D01*
X121601904Y-87749047D01*
X121411428Y-87749047D01*
X121363809Y-87772857D01*
X121340000Y-87796666D01*
X121316190Y-87844285D01*
X121316190Y-87939523D01*
X121340000Y-87987142D01*
X121363809Y-88010952D01*
X121411428Y-88034761D01*
X121530476Y-88034761D01*
X121578095Y-88010952D01*
X121601904Y-87987142D01*
X121625714Y-87939523D01*
X121625714Y-87844285D01*
X121601904Y-87796666D01*
X121578095Y-87772857D01*
X121530476Y-87749047D01*
X152588571Y-102566190D02*
X152421904Y-102328095D01*
X152302857Y-102566190D02*
X152302857Y-102066190D01*
X152493333Y-102066190D01*
X152540952Y-102090000D01*
X152564761Y-102113809D01*
X152588571Y-102161428D01*
X152588571Y-102232857D01*
X152564761Y-102280476D01*
X152540952Y-102304285D01*
X152493333Y-102328095D01*
X152302857Y-102328095D01*
X153064761Y-102566190D02*
X152779047Y-102566190D01*
X152921904Y-102566190D02*
X152921904Y-102066190D01*
X152874285Y-102137619D01*
X152826666Y-102185238D01*
X152779047Y-102209047D01*
X153231428Y-102066190D02*
X153564761Y-102066190D01*
X153350476Y-102566190D01*
X153016190Y-104501428D02*
X152778095Y-104668095D01*
X153016190Y-104787142D02*
X152516190Y-104787142D01*
X152516190Y-104596666D01*
X152540000Y-104549047D01*
X152563809Y-104525238D01*
X152611428Y-104501428D01*
X152682857Y-104501428D01*
X152730476Y-104525238D01*
X152754285Y-104549047D01*
X152778095Y-104596666D01*
X152778095Y-104787142D01*
X153016190Y-104025238D02*
X153016190Y-104310952D01*
X153016190Y-104168095D02*
X152516190Y-104168095D01*
X152587619Y-104215714D01*
X152635238Y-104263333D01*
X152659047Y-104310952D01*
X152516190Y-103858571D02*
X152516190Y-103525238D01*
X153016190Y-103739523D01*
X109348571Y-103226190D02*
X109181904Y-102988095D01*
X109062857Y-103226190D02*
X109062857Y-102726190D01*
X109253333Y-102726190D01*
X109300952Y-102750000D01*
X109324761Y-102773809D01*
X109348571Y-102821428D01*
X109348571Y-102892857D01*
X109324761Y-102940476D01*
X109300952Y-102964285D01*
X109253333Y-102988095D01*
X109062857Y-102988095D01*
X109824761Y-103226190D02*
X109539047Y-103226190D01*
X109681904Y-103226190D02*
X109681904Y-102726190D01*
X109634285Y-102797619D01*
X109586666Y-102845238D01*
X109539047Y-102869047D01*
X110253333Y-102726190D02*
X110158095Y-102726190D01*
X110110476Y-102750000D01*
X110086666Y-102773809D01*
X110039047Y-102845238D01*
X110015238Y-102940476D01*
X110015238Y-103130952D01*
X110039047Y-103178571D01*
X110062857Y-103202380D01*
X110110476Y-103226190D01*
X110205714Y-103226190D01*
X110253333Y-103202380D01*
X110277142Y-103178571D01*
X110300952Y-103130952D01*
X110300952Y-103011904D01*
X110277142Y-102964285D01*
X110253333Y-102940476D01*
X110205714Y-102916666D01*
X110110476Y-102916666D01*
X110062857Y-102940476D01*
X110039047Y-102964285D01*
X110015238Y-103011904D01*
X111668571Y-103206190D02*
X111501904Y-102968095D01*
X111382857Y-103206190D02*
X111382857Y-102706190D01*
X111573333Y-102706190D01*
X111620952Y-102730000D01*
X111644761Y-102753809D01*
X111668571Y-102801428D01*
X111668571Y-102872857D01*
X111644761Y-102920476D01*
X111620952Y-102944285D01*
X111573333Y-102968095D01*
X111382857Y-102968095D01*
X112144761Y-103206190D02*
X111859047Y-103206190D01*
X112001904Y-103206190D02*
X112001904Y-102706190D01*
X111954285Y-102777619D01*
X111906666Y-102825238D01*
X111859047Y-102849047D01*
X112573333Y-102706190D02*
X112478095Y-102706190D01*
X112430476Y-102730000D01*
X112406666Y-102753809D01*
X112359047Y-102825238D01*
X112335238Y-102920476D01*
X112335238Y-103110952D01*
X112359047Y-103158571D01*
X112382857Y-103182380D01*
X112430476Y-103206190D01*
X112525714Y-103206190D01*
X112573333Y-103182380D01*
X112597142Y-103158571D01*
X112620952Y-103110952D01*
X112620952Y-102991904D01*
X112597142Y-102944285D01*
X112573333Y-102920476D01*
X112525714Y-102896666D01*
X112430476Y-102896666D01*
X112382857Y-102920476D01*
X112359047Y-102944285D01*
X112335238Y-102991904D01*
X110959047Y-90206190D02*
X111244761Y-90206190D01*
X111101904Y-90706190D02*
X111101904Y-90206190D01*
X111411428Y-90706190D02*
X111411428Y-90206190D01*
X111601904Y-90206190D01*
X111649523Y-90230000D01*
X111673333Y-90253809D01*
X111697142Y-90301428D01*
X111697142Y-90372857D01*
X111673333Y-90420476D01*
X111649523Y-90444285D01*
X111601904Y-90468095D01*
X111411428Y-90468095D01*
X111887619Y-90253809D02*
X111911428Y-90230000D01*
X111959047Y-90206190D01*
X112078095Y-90206190D01*
X112125714Y-90230000D01*
X112149523Y-90253809D01*
X112173333Y-90301428D01*
X112173333Y-90349047D01*
X112149523Y-90420476D01*
X111863809Y-90706190D01*
X112173333Y-90706190D01*
X153289047Y-101576190D02*
X153574761Y-101576190D01*
X153431904Y-102076190D02*
X153431904Y-101576190D01*
X153741428Y-102076190D02*
X153741428Y-101576190D01*
X153931904Y-101576190D01*
X153979523Y-101600000D01*
X154003333Y-101623809D01*
X154027142Y-101671428D01*
X154027142Y-101742857D01*
X154003333Y-101790476D01*
X153979523Y-101814285D01*
X153931904Y-101838095D01*
X153741428Y-101838095D01*
X154193809Y-101576190D02*
X154503333Y-101576190D01*
X154336666Y-101766666D01*
X154408095Y-101766666D01*
X154455714Y-101790476D01*
X154479523Y-101814285D01*
X154503333Y-101861904D01*
X154503333Y-101980952D01*
X154479523Y-102028571D01*
X154455714Y-102052380D01*
X154408095Y-102076190D01*
X154265238Y-102076190D01*
X154217619Y-102052380D01*
X154193809Y-102028571D01*
X150409047Y-91706190D02*
X150409047Y-92110952D01*
X150432857Y-92158571D01*
X150456666Y-92182380D01*
X150504285Y-92206190D01*
X150599523Y-92206190D01*
X150647142Y-92182380D01*
X150670952Y-92158571D01*
X150694761Y-92110952D01*
X150694761Y-91706190D01*
X150885238Y-91706190D02*
X151194761Y-91706190D01*
X151028095Y-91896666D01*
X151099523Y-91896666D01*
X151147142Y-91920476D01*
X151170952Y-91944285D01*
X151194761Y-91991904D01*
X151194761Y-92110952D01*
X151170952Y-92158571D01*
X151147142Y-92182380D01*
X151099523Y-92206190D01*
X150956666Y-92206190D01*
X150909047Y-92182380D01*
X150885238Y-92158571D01*
X153209047Y-96706190D02*
X153209047Y-97110952D01*
X153232857Y-97158571D01*
X153256666Y-97182380D01*
X153304285Y-97206190D01*
X153399523Y-97206190D01*
X153447142Y-97182380D01*
X153470952Y-97158571D01*
X153494761Y-97110952D01*
X153494761Y-96706190D01*
X153685238Y-96706190D02*
X153994761Y-96706190D01*
X153828095Y-96896666D01*
X153899523Y-96896666D01*
X153947142Y-96920476D01*
X153970952Y-96944285D01*
X153994761Y-96991904D01*
X153994761Y-97110952D01*
X153970952Y-97158571D01*
X153947142Y-97182380D01*
X153899523Y-97206190D01*
X153756666Y-97206190D01*
X153709047Y-97182380D01*
X153685238Y-97158571D01*
X166646666Y-87546190D02*
X166480000Y-87308095D01*
X166360952Y-87546190D02*
X166360952Y-87046190D01*
X166551428Y-87046190D01*
X166599047Y-87070000D01*
X166622857Y-87093809D01*
X166646666Y-87141428D01*
X166646666Y-87212857D01*
X166622857Y-87260476D01*
X166599047Y-87284285D01*
X166551428Y-87308095D01*
X166360952Y-87308095D01*
X167075238Y-87212857D02*
X167075238Y-87546190D01*
X166956190Y-87022380D02*
X166837142Y-87379523D01*
X167146666Y-87379523D01*
X166669166Y-88606190D02*
X166502500Y-88368095D01*
X166383452Y-88606190D02*
X166383452Y-88106190D01*
X166573928Y-88106190D01*
X166621547Y-88130000D01*
X166645357Y-88153809D01*
X166669166Y-88201428D01*
X166669166Y-88272857D01*
X166645357Y-88320476D01*
X166621547Y-88344285D01*
X166573928Y-88368095D01*
X166383452Y-88368095D01*
X167097738Y-88272857D02*
X167097738Y-88606190D01*
X166978690Y-88082380D02*
X166859642Y-88439523D01*
X167169166Y-88439523D01*
X119040952Y-98736190D02*
X119040952Y-98236190D01*
X119160000Y-98236190D01*
X119231428Y-98260000D01*
X119279047Y-98307619D01*
X119302857Y-98355238D01*
X119326666Y-98450476D01*
X119326666Y-98521904D01*
X119302857Y-98617142D01*
X119279047Y-98664761D01*
X119231428Y-98712380D01*
X119160000Y-98736190D01*
X119040952Y-98736190D01*
X119517142Y-98283809D02*
X119540952Y-98260000D01*
X119588571Y-98236190D01*
X119707619Y-98236190D01*
X119755238Y-98260000D01*
X119779047Y-98283809D01*
X119802857Y-98331428D01*
X119802857Y-98379047D01*
X119779047Y-98450476D01*
X119493333Y-98736190D01*
X119802857Y-98736190D01*
X118500952Y-96646190D02*
X118500952Y-96146190D01*
X118620000Y-96146190D01*
X118691428Y-96170000D01*
X118739047Y-96217619D01*
X118762857Y-96265238D01*
X118786666Y-96360476D01*
X118786666Y-96431904D01*
X118762857Y-96527142D01*
X118739047Y-96574761D01*
X118691428Y-96622380D01*
X118620000Y-96646190D01*
X118500952Y-96646190D01*
X118977142Y-96193809D02*
X119000952Y-96170000D01*
X119048571Y-96146190D01*
X119167619Y-96146190D01*
X119215238Y-96170000D01*
X119239047Y-96193809D01*
X119262857Y-96241428D01*
X119262857Y-96289047D01*
X119239047Y-96360476D01*
X118953333Y-96646190D01*
X119262857Y-96646190D01*
X165246190Y-97863333D02*
X165008095Y-98030000D01*
X165246190Y-98149047D02*
X164746190Y-98149047D01*
X164746190Y-97958571D01*
X164770000Y-97910952D01*
X164793809Y-97887142D01*
X164841428Y-97863333D01*
X164912857Y-97863333D01*
X164960476Y-97887142D01*
X164984285Y-97910952D01*
X165008095Y-97958571D01*
X165008095Y-98149047D01*
X164746190Y-97410952D02*
X164746190Y-97649047D01*
X164984285Y-97672857D01*
X164960476Y-97649047D01*
X164936666Y-97601428D01*
X164936666Y-97482380D01*
X164960476Y-97434761D01*
X164984285Y-97410952D01*
X165031904Y-97387142D01*
X165150952Y-97387142D01*
X165198571Y-97410952D01*
X165222380Y-97434761D01*
X165246190Y-97482380D01*
X165246190Y-97601428D01*
X165222380Y-97649047D01*
X165198571Y-97672857D01*
X163816190Y-97863333D02*
X163578095Y-98030000D01*
X163816190Y-98149047D02*
X163316190Y-98149047D01*
X163316190Y-97958571D01*
X163340000Y-97910952D01*
X163363809Y-97887142D01*
X163411428Y-97863333D01*
X163482857Y-97863333D01*
X163530476Y-97887142D01*
X163554285Y-97910952D01*
X163578095Y-97958571D01*
X163578095Y-98149047D01*
X163316190Y-97410952D02*
X163316190Y-97649047D01*
X163554285Y-97672857D01*
X163530476Y-97649047D01*
X163506666Y-97601428D01*
X163506666Y-97482380D01*
X163530476Y-97434761D01*
X163554285Y-97410952D01*
X163601904Y-97387142D01*
X163720952Y-97387142D01*
X163768571Y-97410952D01*
X163792380Y-97434761D01*
X163816190Y-97482380D01*
X163816190Y-97601428D01*
X163792380Y-97649047D01*
X163768571Y-97672857D01*
X158586190Y-100013333D02*
X158348095Y-100180000D01*
X158586190Y-100299047D02*
X158086190Y-100299047D01*
X158086190Y-100108571D01*
X158110000Y-100060952D01*
X158133809Y-100037142D01*
X158181428Y-100013333D01*
X158252857Y-100013333D01*
X158300476Y-100037142D01*
X158324285Y-100060952D01*
X158348095Y-100108571D01*
X158348095Y-100299047D01*
X158086190Y-99584761D02*
X158086190Y-99680000D01*
X158110000Y-99727619D01*
X158133809Y-99751428D01*
X158205238Y-99799047D01*
X158300476Y-99822857D01*
X158490952Y-99822857D01*
X158538571Y-99799047D01*
X158562380Y-99775238D01*
X158586190Y-99727619D01*
X158586190Y-99632380D01*
X158562380Y-99584761D01*
X158538571Y-99560952D01*
X158490952Y-99537142D01*
X158371904Y-99537142D01*
X158324285Y-99560952D01*
X158300476Y-99584761D01*
X158276666Y-99632380D01*
X158276666Y-99727619D01*
X158300476Y-99775238D01*
X158324285Y-99799047D01*
X158371904Y-99822857D01*
X159616190Y-100050833D02*
X159378095Y-100217500D01*
X159616190Y-100336547D02*
X159116190Y-100336547D01*
X159116190Y-100146071D01*
X159140000Y-100098452D01*
X159163809Y-100074642D01*
X159211428Y-100050833D01*
X159282857Y-100050833D01*
X159330476Y-100074642D01*
X159354285Y-100098452D01*
X159378095Y-100146071D01*
X159378095Y-100336547D01*
X159116190Y-99622261D02*
X159116190Y-99717500D01*
X159140000Y-99765119D01*
X159163809Y-99788928D01*
X159235238Y-99836547D01*
X159330476Y-99860357D01*
X159520952Y-99860357D01*
X159568571Y-99836547D01*
X159592380Y-99812738D01*
X159616190Y-99765119D01*
X159616190Y-99669880D01*
X159592380Y-99622261D01*
X159568571Y-99598452D01*
X159520952Y-99574642D01*
X159401904Y-99574642D01*
X159354285Y-99598452D01*
X159330476Y-99622261D01*
X159306666Y-99669880D01*
X159306666Y-99765119D01*
X159330476Y-99812738D01*
X159354285Y-99836547D01*
X159401904Y-99860357D01*
X114348571Y-108698571D02*
X114324761Y-108722380D01*
X114253333Y-108746190D01*
X114205714Y-108746190D01*
X114134285Y-108722380D01*
X114086666Y-108674761D01*
X114062857Y-108627142D01*
X114039047Y-108531904D01*
X114039047Y-108460476D01*
X114062857Y-108365238D01*
X114086666Y-108317619D01*
X114134285Y-108270000D01*
X114205714Y-108246190D01*
X114253333Y-108246190D01*
X114324761Y-108270000D01*
X114348571Y-108293809D01*
X114824761Y-108746190D02*
X114539047Y-108746190D01*
X114681904Y-108746190D02*
X114681904Y-108246190D01*
X114634285Y-108317619D01*
X114586666Y-108365238D01*
X114539047Y-108389047D01*
X115015238Y-108293809D02*
X115039047Y-108270000D01*
X115086666Y-108246190D01*
X115205714Y-108246190D01*
X115253333Y-108270000D01*
X115277142Y-108293809D01*
X115300952Y-108341428D01*
X115300952Y-108389047D01*
X115277142Y-108460476D01*
X114991428Y-108746190D01*
X115300952Y-108746190D01*
X114468571Y-107558571D02*
X114444761Y-107582380D01*
X114373333Y-107606190D01*
X114325714Y-107606190D01*
X114254285Y-107582380D01*
X114206666Y-107534761D01*
X114182857Y-107487142D01*
X114159047Y-107391904D01*
X114159047Y-107320476D01*
X114182857Y-107225238D01*
X114206666Y-107177619D01*
X114254285Y-107130000D01*
X114325714Y-107106190D01*
X114373333Y-107106190D01*
X114444761Y-107130000D01*
X114468571Y-107153809D01*
X114944761Y-107606190D02*
X114659047Y-107606190D01*
X114801904Y-107606190D02*
X114801904Y-107106190D01*
X114754285Y-107177619D01*
X114706666Y-107225238D01*
X114659047Y-107249047D01*
X115135238Y-107153809D02*
X115159047Y-107130000D01*
X115206666Y-107106190D01*
X115325714Y-107106190D01*
X115373333Y-107130000D01*
X115397142Y-107153809D01*
X115420952Y-107201428D01*
X115420952Y-107249047D01*
X115397142Y-107320476D01*
X115111428Y-107606190D01*
X115420952Y-107606190D01*
X148818571Y-90578571D02*
X148794761Y-90602380D01*
X148723333Y-90626190D01*
X148675714Y-90626190D01*
X148604285Y-90602380D01*
X148556666Y-90554761D01*
X148532857Y-90507142D01*
X148509047Y-90411904D01*
X148509047Y-90340476D01*
X148532857Y-90245238D01*
X148556666Y-90197619D01*
X148604285Y-90150000D01*
X148675714Y-90126190D01*
X148723333Y-90126190D01*
X148794761Y-90150000D01*
X148818571Y-90173809D01*
X149294761Y-90626190D02*
X149009047Y-90626190D01*
X149151904Y-90626190D02*
X149151904Y-90126190D01*
X149104285Y-90197619D01*
X149056666Y-90245238D01*
X149009047Y-90269047D01*
X149770952Y-90626190D02*
X149485238Y-90626190D01*
X149628095Y-90626190D02*
X149628095Y-90126190D01*
X149580476Y-90197619D01*
X149532857Y-90245238D01*
X149485238Y-90269047D01*
X149268571Y-92573428D02*
X149292380Y-92597238D01*
X149316190Y-92668666D01*
X149316190Y-92716285D01*
X149292380Y-92787714D01*
X149244761Y-92835333D01*
X149197142Y-92859142D01*
X149101904Y-92882952D01*
X149030476Y-92882952D01*
X148935238Y-92859142D01*
X148887619Y-92835333D01*
X148840000Y-92787714D01*
X148816190Y-92716285D01*
X148816190Y-92668666D01*
X148840000Y-92597238D01*
X148863809Y-92573428D01*
X149316190Y-92097238D02*
X149316190Y-92382952D01*
X149316190Y-92240095D02*
X148816190Y-92240095D01*
X148887619Y-92287714D01*
X148935238Y-92335333D01*
X148959047Y-92382952D01*
X149316190Y-91621047D02*
X149316190Y-91906761D01*
X149316190Y-91763904D02*
X148816190Y-91763904D01*
X148887619Y-91811523D01*
X148935238Y-91859142D01*
X148959047Y-91906761D01*
X147016571Y-90629571D02*
X146992761Y-90653380D01*
X146921333Y-90677190D01*
X146873714Y-90677190D01*
X146802285Y-90653380D01*
X146754666Y-90605761D01*
X146730857Y-90558142D01*
X146707047Y-90462904D01*
X146707047Y-90391476D01*
X146730857Y-90296238D01*
X146754666Y-90248619D01*
X146802285Y-90201000D01*
X146873714Y-90177190D01*
X146921333Y-90177190D01*
X146992761Y-90201000D01*
X147016571Y-90224809D01*
X147492761Y-90677190D02*
X147207047Y-90677190D01*
X147349904Y-90677190D02*
X147349904Y-90177190D01*
X147302285Y-90248619D01*
X147254666Y-90296238D01*
X147207047Y-90320047D01*
X147802285Y-90177190D02*
X147849904Y-90177190D01*
X147897523Y-90201000D01*
X147921333Y-90224809D01*
X147945142Y-90272428D01*
X147968952Y-90367666D01*
X147968952Y-90486714D01*
X147945142Y-90581952D01*
X147921333Y-90629571D01*
X147897523Y-90653380D01*
X147849904Y-90677190D01*
X147802285Y-90677190D01*
X147754666Y-90653380D01*
X147730857Y-90629571D01*
X147707047Y-90581952D01*
X147683238Y-90486714D01*
X147683238Y-90367666D01*
X147707047Y-90272428D01*
X147730857Y-90224809D01*
X147754666Y-90201000D01*
X147802285Y-90177190D01*
X147128571Y-92446071D02*
X147104761Y-92469880D01*
X147033333Y-92493690D01*
X146985714Y-92493690D01*
X146914285Y-92469880D01*
X146866666Y-92422261D01*
X146842857Y-92374642D01*
X146819047Y-92279404D01*
X146819047Y-92207976D01*
X146842857Y-92112738D01*
X146866666Y-92065119D01*
X146914285Y-92017500D01*
X146985714Y-91993690D01*
X147033333Y-91993690D01*
X147104761Y-92017500D01*
X147128571Y-92041309D01*
X147604761Y-92493690D02*
X147319047Y-92493690D01*
X147461904Y-92493690D02*
X147461904Y-91993690D01*
X147414285Y-92065119D01*
X147366666Y-92112738D01*
X147319047Y-92136547D01*
X147914285Y-91993690D02*
X147961904Y-91993690D01*
X148009523Y-92017500D01*
X148033333Y-92041309D01*
X148057142Y-92088928D01*
X148080952Y-92184166D01*
X148080952Y-92303214D01*
X148057142Y-92398452D01*
X148033333Y-92446071D01*
X148009523Y-92469880D01*
X147961904Y-92493690D01*
X147914285Y-92493690D01*
X147866666Y-92469880D01*
X147842857Y-92446071D01*
X147819047Y-92398452D01*
X147795238Y-92303214D01*
X147795238Y-92184166D01*
X147819047Y-92088928D01*
X147842857Y-92041309D01*
X147866666Y-92017500D01*
X147914285Y-91993690D01*
X167456666Y-96536190D02*
X167290000Y-96298095D01*
X167170952Y-96536190D02*
X167170952Y-96036190D01*
X167361428Y-96036190D01*
X167409047Y-96060000D01*
X167432857Y-96083809D01*
X167456666Y-96131428D01*
X167456666Y-96202857D01*
X167432857Y-96250476D01*
X167409047Y-96274285D01*
X167361428Y-96298095D01*
X167170952Y-96298095D01*
X167623333Y-96036190D02*
X167932857Y-96036190D01*
X167766190Y-96226666D01*
X167837619Y-96226666D01*
X167885238Y-96250476D01*
X167909047Y-96274285D01*
X167932857Y-96321904D01*
X167932857Y-96440952D01*
X167909047Y-96488571D01*
X167885238Y-96512380D01*
X167837619Y-96536190D01*
X167694761Y-96536190D01*
X167647142Y-96512380D01*
X167623333Y-96488571D01*
X167456666Y-95106190D02*
X167290000Y-94868095D01*
X167170952Y-95106190D02*
X167170952Y-94606190D01*
X167361428Y-94606190D01*
X167409047Y-94630000D01*
X167432857Y-94653809D01*
X167456666Y-94701428D01*
X167456666Y-94772857D01*
X167432857Y-94820476D01*
X167409047Y-94844285D01*
X167361428Y-94868095D01*
X167170952Y-94868095D01*
X167623333Y-94606190D02*
X167932857Y-94606190D01*
X167766190Y-94796666D01*
X167837619Y-94796666D01*
X167885238Y-94820476D01*
X167909047Y-94844285D01*
X167932857Y-94891904D01*
X167932857Y-95010952D01*
X167909047Y-95058571D01*
X167885238Y-95082380D01*
X167837619Y-95106190D01*
X167694761Y-95106190D01*
X167647142Y-95082380D01*
X167623333Y-95058571D01*
X169946666Y-90066190D02*
X169780000Y-89828095D01*
X169660952Y-90066190D02*
X169660952Y-89566190D01*
X169851428Y-89566190D01*
X169899047Y-89590000D01*
X169922857Y-89613809D01*
X169946666Y-89661428D01*
X169946666Y-89732857D01*
X169922857Y-89780476D01*
X169899047Y-89804285D01*
X169851428Y-89828095D01*
X169660952Y-89828095D01*
X170137142Y-89613809D02*
X170160952Y-89590000D01*
X170208571Y-89566190D01*
X170327619Y-89566190D01*
X170375238Y-89590000D01*
X170399047Y-89613809D01*
X170422857Y-89661428D01*
X170422857Y-89709047D01*
X170399047Y-89780476D01*
X170113333Y-90066190D01*
X170422857Y-90066190D01*
X170266190Y-91750833D02*
X170028095Y-91917500D01*
X170266190Y-92036547D02*
X169766190Y-92036547D01*
X169766190Y-91846071D01*
X169790000Y-91798452D01*
X169813809Y-91774642D01*
X169861428Y-91750833D01*
X169932857Y-91750833D01*
X169980476Y-91774642D01*
X170004285Y-91798452D01*
X170028095Y-91846071D01*
X170028095Y-92036547D01*
X169813809Y-91560357D02*
X169790000Y-91536547D01*
X169766190Y-91488928D01*
X169766190Y-91369880D01*
X169790000Y-91322261D01*
X169813809Y-91298452D01*
X169861428Y-91274642D01*
X169909047Y-91274642D01*
X169980476Y-91298452D01*
X170266190Y-91584166D01*
X170266190Y-91274642D01*
X181546666Y-100746190D02*
X181380000Y-100508095D01*
X181260952Y-100746190D02*
X181260952Y-100246190D01*
X181451428Y-100246190D01*
X181499047Y-100270000D01*
X181522857Y-100293809D01*
X181546666Y-100341428D01*
X181546666Y-100412857D01*
X181522857Y-100460476D01*
X181499047Y-100484285D01*
X181451428Y-100508095D01*
X181260952Y-100508095D01*
X182022857Y-100746190D02*
X181737142Y-100746190D01*
X181880000Y-100746190D02*
X181880000Y-100246190D01*
X181832380Y-100317619D01*
X181784761Y-100365238D01*
X181737142Y-100389047D01*
X181686190Y-102455833D02*
X181448095Y-102622500D01*
X181686190Y-102741547D02*
X181186190Y-102741547D01*
X181186190Y-102551071D01*
X181210000Y-102503452D01*
X181233809Y-102479642D01*
X181281428Y-102455833D01*
X181352857Y-102455833D01*
X181400476Y-102479642D01*
X181424285Y-102503452D01*
X181448095Y-102551071D01*
X181448095Y-102741547D01*
X181686190Y-101979642D02*
X181686190Y-102265357D01*
X181686190Y-102122500D02*
X181186190Y-102122500D01*
X181257619Y-102170119D01*
X181305238Y-102217738D01*
X181329047Y-102265357D01*
X164262380Y-90853809D02*
X164214761Y-90830000D01*
X164167142Y-90782380D01*
X164095714Y-90710952D01*
X164048095Y-90687142D01*
X164000476Y-90687142D01*
X164024285Y-90806190D02*
X163976666Y-90782380D01*
X163929047Y-90734761D01*
X163905238Y-90639523D01*
X163905238Y-90472857D01*
X163929047Y-90377619D01*
X163976666Y-90330000D01*
X164024285Y-90306190D01*
X164119523Y-90306190D01*
X164167142Y-90330000D01*
X164214761Y-90377619D01*
X164238571Y-90472857D01*
X164238571Y-90639523D01*
X164214761Y-90734761D01*
X164167142Y-90782380D01*
X164119523Y-90806190D01*
X164024285Y-90806190D01*
X164714761Y-90806190D02*
X164429047Y-90806190D01*
X164571904Y-90806190D02*
X164571904Y-90306190D01*
X164524285Y-90377619D01*
X164476666Y-90425238D01*
X164429047Y-90449047D01*
X166492380Y-91903809D02*
X166444761Y-91880000D01*
X166397142Y-91832380D01*
X166325714Y-91760952D01*
X166278095Y-91737142D01*
X166230476Y-91737142D01*
X166254285Y-91856190D02*
X166206666Y-91832380D01*
X166159047Y-91784761D01*
X166135238Y-91689523D01*
X166135238Y-91522857D01*
X166159047Y-91427619D01*
X166206666Y-91380000D01*
X166254285Y-91356190D01*
X166349523Y-91356190D01*
X166397142Y-91380000D01*
X166444761Y-91427619D01*
X166468571Y-91522857D01*
X166468571Y-91689523D01*
X166444761Y-91784761D01*
X166397142Y-91832380D01*
X166349523Y-91856190D01*
X166254285Y-91856190D01*
X166944761Y-91856190D02*
X166659047Y-91856190D01*
X166801904Y-91856190D02*
X166801904Y-91356190D01*
X166754285Y-91427619D01*
X166706666Y-91475238D01*
X166659047Y-91499047D01*
X160312380Y-94273809D02*
X160264761Y-94250000D01*
X160217142Y-94202380D01*
X160145714Y-94130952D01*
X160098095Y-94107142D01*
X160050476Y-94107142D01*
X160074285Y-94226190D02*
X160026666Y-94202380D01*
X159979047Y-94154761D01*
X159955238Y-94059523D01*
X159955238Y-93892857D01*
X159979047Y-93797619D01*
X160026666Y-93750000D01*
X160074285Y-93726190D01*
X160169523Y-93726190D01*
X160217142Y-93750000D01*
X160264761Y-93797619D01*
X160288571Y-93892857D01*
X160288571Y-94059523D01*
X160264761Y-94154761D01*
X160217142Y-94202380D01*
X160169523Y-94226190D01*
X160074285Y-94226190D01*
X160479047Y-93773809D02*
X160502857Y-93750000D01*
X160550476Y-93726190D01*
X160669523Y-93726190D01*
X160717142Y-93750000D01*
X160740952Y-93773809D01*
X160764761Y-93821428D01*
X160764761Y-93869047D01*
X160740952Y-93940476D01*
X160455238Y-94226190D01*
X160764761Y-94226190D01*
X160613809Y-96177619D02*
X160590000Y-96225238D01*
X160542380Y-96272857D01*
X160470952Y-96344285D01*
X160447142Y-96391904D01*
X160447142Y-96439523D01*
X160566190Y-96415714D02*
X160542380Y-96463333D01*
X160494761Y-96510952D01*
X160399523Y-96534761D01*
X160232857Y-96534761D01*
X160137619Y-96510952D01*
X160090000Y-96463333D01*
X160066190Y-96415714D01*
X160066190Y-96320476D01*
X160090000Y-96272857D01*
X160137619Y-96225238D01*
X160232857Y-96201428D01*
X160399523Y-96201428D01*
X160494761Y-96225238D01*
X160542380Y-96272857D01*
X160566190Y-96320476D01*
X160566190Y-96415714D01*
X160113809Y-96010952D02*
X160090000Y-95987142D01*
X160066190Y-95939523D01*
X160066190Y-95820476D01*
X160090000Y-95772857D01*
X160113809Y-95749047D01*
X160161428Y-95725238D01*
X160209047Y-95725238D01*
X160280476Y-95749047D01*
X160566190Y-96034761D01*
X160566190Y-95725238D01*
M02*
