G04 #@! TF.GenerationSoftware,KiCad,Pcbnew,(5.1.5)-3*
G04 #@! TF.CreationDate,2020-07-28T19:33:27-07:00*
G04 #@! TF.ProjectId,Main Board,4d61696e-2042-46f6-9172-642e6b696361,rev?*
G04 #@! TF.SameCoordinates,Original*
G04 #@! TF.FileFunction,Soldermask,Bot*
G04 #@! TF.FilePolarity,Negative*
%FSLAX46Y46*%
G04 Gerber Fmt 4.6, Leading zero omitted, Abs format (unit mm)*
G04 Created by KiCad (PCBNEW (5.1.5)-3) date 2020-07-28 19:33:27*
%MOMM*%
%LPD*%
G04 APERTURE LIST*
%ADD10C,0.100000*%
G04 APERTURE END LIST*
D10*
G36*
X145235993Y-107394203D02*
G01*
X145300411Y-107413744D01*
X145359781Y-107445478D01*
X145411817Y-107488183D01*
X145454522Y-107540219D01*
X145486256Y-107599589D01*
X145505797Y-107664007D01*
X145513000Y-107737140D01*
X145513000Y-108662860D01*
X145505797Y-108735993D01*
X145486256Y-108800411D01*
X145454522Y-108859781D01*
X145411817Y-108911817D01*
X145359781Y-108954522D01*
X145300411Y-108986256D01*
X145235993Y-109005797D01*
X145162860Y-109013000D01*
X144237140Y-109013000D01*
X144164007Y-109005797D01*
X144099589Y-108986256D01*
X144040219Y-108954522D01*
X143988183Y-108911817D01*
X143945478Y-108859781D01*
X143913744Y-108800411D01*
X143894203Y-108735993D01*
X143887000Y-108662860D01*
X143887000Y-107737140D01*
X143894203Y-107664007D01*
X143913744Y-107599589D01*
X143945478Y-107540219D01*
X143988183Y-107488183D01*
X144040219Y-107445478D01*
X144099589Y-107413744D01*
X144164007Y-107394203D01*
X144237140Y-107387000D01*
X145162860Y-107387000D01*
X145235993Y-107394203D01*
G37*
G36*
X148585993Y-107394203D02*
G01*
X148650411Y-107413744D01*
X148709781Y-107445478D01*
X148761817Y-107488183D01*
X148804522Y-107540219D01*
X148836256Y-107599589D01*
X148855797Y-107664007D01*
X148863000Y-107737140D01*
X148863000Y-108662860D01*
X148855797Y-108735993D01*
X148836256Y-108800411D01*
X148804522Y-108859781D01*
X148761817Y-108911817D01*
X148709781Y-108954522D01*
X148650411Y-108986256D01*
X148585993Y-109005797D01*
X148512860Y-109013000D01*
X147587140Y-109013000D01*
X147514007Y-109005797D01*
X147449589Y-108986256D01*
X147390219Y-108954522D01*
X147338183Y-108911817D01*
X147295478Y-108859781D01*
X147263744Y-108800411D01*
X147244203Y-108735993D01*
X147237000Y-108662860D01*
X147237000Y-107737140D01*
X147244203Y-107664007D01*
X147263744Y-107599589D01*
X147295478Y-107540219D01*
X147338183Y-107488183D01*
X147390219Y-107445478D01*
X147449589Y-107413744D01*
X147514007Y-107394203D01*
X147587140Y-107387000D01*
X148512860Y-107387000D01*
X148585993Y-107394203D01*
G37*
G36*
X134585993Y-107344203D02*
G01*
X134650411Y-107363744D01*
X134709781Y-107395478D01*
X134761817Y-107438183D01*
X134804522Y-107490219D01*
X134836256Y-107549589D01*
X134855797Y-107614007D01*
X134863000Y-107687140D01*
X134863000Y-108612860D01*
X134855797Y-108685993D01*
X134836256Y-108750411D01*
X134804522Y-108809781D01*
X134761817Y-108861817D01*
X134709781Y-108904522D01*
X134650411Y-108936256D01*
X134585993Y-108955797D01*
X134512860Y-108963000D01*
X133587140Y-108963000D01*
X133514007Y-108955797D01*
X133449589Y-108936256D01*
X133390219Y-108904522D01*
X133338183Y-108861817D01*
X133295478Y-108809781D01*
X133263744Y-108750411D01*
X133244203Y-108685993D01*
X133237000Y-108612860D01*
X133237000Y-107687140D01*
X133244203Y-107614007D01*
X133263744Y-107549589D01*
X133295478Y-107490219D01*
X133338183Y-107438183D01*
X133390219Y-107395478D01*
X133449589Y-107363744D01*
X133514007Y-107344203D01*
X133587140Y-107337000D01*
X134512860Y-107337000D01*
X134585993Y-107344203D01*
G37*
G36*
X137885993Y-107344203D02*
G01*
X137950411Y-107363744D01*
X138009781Y-107395478D01*
X138061817Y-107438183D01*
X138104522Y-107490219D01*
X138136256Y-107549589D01*
X138155797Y-107614007D01*
X138163000Y-107687140D01*
X138163000Y-108612860D01*
X138155797Y-108685993D01*
X138136256Y-108750411D01*
X138104522Y-108809781D01*
X138061817Y-108861817D01*
X138009781Y-108904522D01*
X137950411Y-108936256D01*
X137885993Y-108955797D01*
X137812860Y-108963000D01*
X136887140Y-108963000D01*
X136814007Y-108955797D01*
X136749589Y-108936256D01*
X136690219Y-108904522D01*
X136638183Y-108861817D01*
X136595478Y-108809781D01*
X136563744Y-108750411D01*
X136544203Y-108685993D01*
X136537000Y-108612860D01*
X136537000Y-107687140D01*
X136544203Y-107614007D01*
X136563744Y-107549589D01*
X136595478Y-107490219D01*
X136638183Y-107438183D01*
X136690219Y-107395478D01*
X136749589Y-107363744D01*
X136814007Y-107344203D01*
X136887140Y-107337000D01*
X137812860Y-107337000D01*
X137885993Y-107344203D01*
G37*
G36*
X162439487Y-103148996D02*
G01*
X162676253Y-103247068D01*
X162676255Y-103247069D01*
X162889339Y-103389447D01*
X163070553Y-103570661D01*
X163212932Y-103783747D01*
X163311004Y-104020513D01*
X163361000Y-104271861D01*
X163361000Y-104528139D01*
X163311004Y-104779487D01*
X163212932Y-105016253D01*
X163212931Y-105016255D01*
X163070553Y-105229339D01*
X162889339Y-105410553D01*
X162676255Y-105552931D01*
X162676254Y-105552932D01*
X162676253Y-105552932D01*
X162439487Y-105651004D01*
X162188139Y-105701000D01*
X161931861Y-105701000D01*
X161680513Y-105651004D01*
X161443747Y-105552932D01*
X161443746Y-105552932D01*
X161443745Y-105552931D01*
X161230661Y-105410553D01*
X161049447Y-105229339D01*
X160907069Y-105016255D01*
X160907068Y-105016253D01*
X160808996Y-104779487D01*
X160759000Y-104528139D01*
X160759000Y-104271861D01*
X160808996Y-104020513D01*
X160907068Y-103783747D01*
X161049447Y-103570661D01*
X161230661Y-103389447D01*
X161443745Y-103247069D01*
X161443747Y-103247068D01*
X161680513Y-103148996D01*
X161931861Y-103099000D01*
X162188139Y-103099000D01*
X162439487Y-103148996D01*
G37*
G36*
X154299487Y-98448996D02*
G01*
X154536253Y-98547068D01*
X154536255Y-98547069D01*
X154749339Y-98689447D01*
X154930553Y-98870661D01*
X155072932Y-99083747D01*
X155171004Y-99320513D01*
X155221000Y-99571861D01*
X155221000Y-99828139D01*
X155171004Y-100079487D01*
X155072932Y-100316253D01*
X155072931Y-100316255D01*
X154930553Y-100529339D01*
X154749339Y-100710553D01*
X154536255Y-100852931D01*
X154536254Y-100852932D01*
X154536253Y-100852932D01*
X154299487Y-100951004D01*
X154048139Y-101001000D01*
X153791861Y-101001000D01*
X153540513Y-100951004D01*
X153303747Y-100852932D01*
X153303746Y-100852932D01*
X153303745Y-100852931D01*
X153090661Y-100710553D01*
X152909447Y-100529339D01*
X152767069Y-100316255D01*
X152767068Y-100316253D01*
X152668996Y-100079487D01*
X152619000Y-99828139D01*
X152619000Y-99571861D01*
X152668996Y-99320513D01*
X152767068Y-99083747D01*
X152909447Y-98870661D01*
X153090661Y-98689447D01*
X153303745Y-98547069D01*
X153303747Y-98547068D01*
X153540513Y-98448996D01*
X153791861Y-98399000D01*
X154048139Y-98399000D01*
X154299487Y-98448996D01*
G37*
G36*
X148629487Y-87408996D02*
G01*
X148866253Y-87507068D01*
X148866255Y-87507069D01*
X149079339Y-87649447D01*
X149260553Y-87830661D01*
X149402932Y-88043747D01*
X149501004Y-88280513D01*
X149551000Y-88531861D01*
X149551000Y-88788139D01*
X149501004Y-89039487D01*
X149402932Y-89276253D01*
X149402931Y-89276255D01*
X149260553Y-89489339D01*
X149079339Y-89670553D01*
X148866255Y-89812931D01*
X148866254Y-89812932D01*
X148866253Y-89812932D01*
X148629487Y-89911004D01*
X148378139Y-89961000D01*
X148121861Y-89961000D01*
X147870513Y-89911004D01*
X147633747Y-89812932D01*
X147633746Y-89812932D01*
X147633745Y-89812931D01*
X147420661Y-89670553D01*
X147239447Y-89489339D01*
X147097069Y-89276255D01*
X147097068Y-89276253D01*
X146998996Y-89039487D01*
X146949000Y-88788139D01*
X146949000Y-88531861D01*
X146998996Y-88280513D01*
X147097068Y-88043747D01*
X147239447Y-87830661D01*
X147420661Y-87649447D01*
X147633745Y-87507069D01*
X147633747Y-87507068D01*
X147870513Y-87408996D01*
X148121861Y-87359000D01*
X148378139Y-87359000D01*
X148629487Y-87408996D01*
G37*
G36*
X148585993Y-84794203D02*
G01*
X148650411Y-84813744D01*
X148709781Y-84845478D01*
X148761817Y-84888183D01*
X148804522Y-84940219D01*
X148836256Y-84999589D01*
X148855797Y-85064007D01*
X148863000Y-85137140D01*
X148863000Y-86062860D01*
X148855797Y-86135993D01*
X148836256Y-86200411D01*
X148804522Y-86259781D01*
X148761817Y-86311817D01*
X148709781Y-86354522D01*
X148650411Y-86386256D01*
X148585993Y-86405797D01*
X148512860Y-86413000D01*
X147587140Y-86413000D01*
X147514007Y-86405797D01*
X147449589Y-86386256D01*
X147390219Y-86354522D01*
X147338183Y-86311817D01*
X147295478Y-86259781D01*
X147263744Y-86200411D01*
X147244203Y-86135993D01*
X147237000Y-86062860D01*
X147237000Y-85137140D01*
X147244203Y-85064007D01*
X147263744Y-84999589D01*
X147295478Y-84940219D01*
X147338183Y-84888183D01*
X147390219Y-84845478D01*
X147449589Y-84813744D01*
X147514007Y-84794203D01*
X147587140Y-84787000D01*
X148512860Y-84787000D01*
X148585993Y-84794203D01*
G37*
G36*
X134585993Y-84794203D02*
G01*
X134650411Y-84813744D01*
X134709781Y-84845478D01*
X134761817Y-84888183D01*
X134804522Y-84940219D01*
X134836256Y-84999589D01*
X134855797Y-85064007D01*
X134863000Y-85137140D01*
X134863000Y-86062860D01*
X134855797Y-86135993D01*
X134836256Y-86200411D01*
X134804522Y-86259781D01*
X134761817Y-86311817D01*
X134709781Y-86354522D01*
X134650411Y-86386256D01*
X134585993Y-86405797D01*
X134512860Y-86413000D01*
X133587140Y-86413000D01*
X133514007Y-86405797D01*
X133449589Y-86386256D01*
X133390219Y-86354522D01*
X133338183Y-86311817D01*
X133295478Y-86259781D01*
X133263744Y-86200411D01*
X133244203Y-86135993D01*
X133237000Y-86062860D01*
X133237000Y-85137140D01*
X133244203Y-85064007D01*
X133263744Y-84999589D01*
X133295478Y-84940219D01*
X133338183Y-84888183D01*
X133390219Y-84845478D01*
X133449589Y-84813744D01*
X133514007Y-84794203D01*
X133587140Y-84787000D01*
X134512860Y-84787000D01*
X134585993Y-84794203D01*
G37*
M02*
