M48
; DRILL file {KiCad (5.1.5)-3} date 2020-07-28 7:35:51 PM
; FORMAT={-:-/ absolute / metric / decimal}
; #@! TF.CreationDate,2020-07-28T19:35:51-07:00
; #@! TF.GenerationSoftware,Kicad,Pcbnew,(5.1.5)-3
FMAT,2
METRIC
T1C0.200
T2C0.400
T3C0.600
T4C0.762
%
G90
G05
T1
X136.45Y-100.0
X137.55Y-100.0
T2
X108.19Y-89.78
X108.29Y-92.65
X108.39Y-97.18
X108.41Y-94.82
X108.78Y-107.53
X108.79Y-101.98
X108.8Y-104.15
X108.81Y-99.56
X110.19Y-89.78
X110.6Y-107.4
X111.1Y-99.21
X111.12Y-100.99
X111.8Y-104.4
X112.19Y-89.78
X112.3Y-107.57
X114.19Y-89.78
X114.59Y-99.38
X114.59Y-101.38
X116.19Y-89.78
X116.59Y-100.88
X117.79Y-89.78
X124.89Y-104.88
X125.984Y-108.204
X126.28Y-99.96
X126.8Y-95.0
X127.14Y-104.92
X127.6Y-107.6
X128.29Y-109.474
X128.59Y-88.38
X129.0Y-90.4
X130.28Y-105.08
X131.064Y-102.362
X132.0Y-96.6
X132.46Y-104.78
X132.6Y-94.2
X133.4Y-102.6
X133.7Y-88.3
X134.76Y-100.27
X137.6Y-87.5
X139.79Y-99.18
X140.0Y-109.6
X140.5Y-87.5
X140.5Y-91.0
X140.5Y-91.0
X141.0Y-108.2
X141.2Y-100.4
X142.0Y-109.6
X142.09Y-96.28
X142.6Y-100.6
X144.5Y-87.5
X144.5Y-91.0
X144.99Y-93.56
X145.79Y-97.78
X146.03Y-101.04
X147.4Y-97.8
X147.88Y-96.28
X148.082Y-102.616
X149.0Y-95.2
X149.86Y-106.426
X150.0Y-104.4
X150.64Y-87.09
X150.64Y-91.44
X151.0Y-108.4
X151.64Y-85.32
X154.0Y-87.0
X154.18Y-96.8
X155.37Y-85.18
X159.0Y-104.4
X163.15Y-90.82
X164.084Y-85.344
X164.084Y-94.742
X164.6Y-104.4
X167.894Y-85.42
X170.59Y-87.63
X172.0Y-94.6
X172.974Y-85.344
X173.482Y-93.218
X177.546Y-85.43
X177.8Y-98.552
X179.2Y-92.8
X179.832Y-91.186
X181.57Y-96.12
X184.26Y-90.59
X184.5Y-85.27
T3
X108.29Y-109.89
X109.59Y-109.88
X111.09Y-109.88
X112.59Y-109.88
X114.09Y-109.88
X115.59Y-109.88
X117.09Y-109.88
X118.59Y-109.88
X120.09Y-109.88
X121.59Y-110.18
X122.79Y-109.38
T4
X134.05Y-85.6
X134.05Y-108.15
X137.35Y-108.15
X144.7Y-108.2
X148.05Y-85.6
X148.05Y-108.2
T0
M30
