G04 #@! TF.GenerationSoftware,KiCad,Pcbnew,(5.1.4)-1*
G04 #@! TF.CreationDate,2020-07-19T23:59:32-07:00*
G04 #@! TF.ProjectId,Main Board,4d61696e-2042-46f6-9172-642e6b696361,rev?*
G04 #@! TF.SameCoordinates,Original*
G04 #@! TF.FileFunction,Other,Fab,Top*
%FSLAX46Y46*%
G04 Gerber Fmt 4.6, Leading zero omitted, Abs format (unit mm)*
G04 Created by KiCad (PCBNEW (5.1.4)-1) date 2020-07-19 23:59:32*
%MOMM*%
%LPD*%
G04 APERTURE LIST*
%ADD10C,0.200000*%
%ADD11C,0.127000*%
%ADD12C,0.100000*%
%ADD13C,0.150000*%
%ADD14C,0.015000*%
%ADD15C,0.120000*%
G04 APERTURE END LIST*
D10*
X136390000Y-101680000D02*
G75*
G03X136390000Y-101680000I-100000J0D01*
G01*
D11*
X138040000Y-100830000D02*
X135940000Y-100830000D01*
X138040000Y-98730000D02*
X138040000Y-100830000D01*
X135940000Y-98730000D02*
X138040000Y-98730000D01*
X135940000Y-100830000D02*
X135940000Y-98730000D01*
D12*
X118000000Y-106850000D02*
X124000000Y-106850000D01*
X117990000Y-101380000D02*
X118000000Y-106850000D01*
X123990000Y-101380000D02*
X117990000Y-101380000D01*
X123990000Y-101380000D02*
X124000000Y-106850000D01*
X174235000Y-100819838D02*
X174865000Y-100819838D01*
X174550000Y-101134838D02*
X174550000Y-100504838D01*
X178180000Y-101730000D02*
X179180000Y-100730000D01*
X173580000Y-101730000D02*
X172580000Y-100730000D01*
X173580000Y-101730000D02*
X178180000Y-101730000D01*
X179180000Y-100730000D02*
X179180000Y-95130000D01*
X172580000Y-100730000D02*
X172580000Y-95130000D01*
X172580000Y-95130000D02*
X179180000Y-95130000D01*
X179030000Y-98430000D02*
G75*
G03X179030000Y-98430000I-3150000J0D01*
G01*
X130415000Y-98190162D02*
X129785000Y-98190162D01*
X130100000Y-97875162D02*
X130100000Y-98505162D01*
X126470000Y-97280000D02*
X125470000Y-98280000D01*
X131070000Y-97280000D02*
X132070000Y-98280000D01*
X131070000Y-97280000D02*
X126470000Y-97280000D01*
X125470000Y-98280000D02*
X125470000Y-103880000D01*
X132070000Y-98280000D02*
X132070000Y-103880000D01*
X132070000Y-103880000D02*
X125470000Y-103880000D01*
X131920000Y-100580000D02*
G75*
G03X131920000Y-100580000I-3150000J0D01*
G01*
X161364773Y-89380000D02*
X161364773Y-88980000D01*
X161564773Y-89180000D02*
X161164773Y-89180000D01*
X162140000Y-87030000D02*
X161140000Y-86030000D01*
X162140000Y-89330000D02*
X161140000Y-90330000D01*
X162140000Y-89330000D02*
X162140000Y-87030000D01*
X161140000Y-86030000D02*
X157840000Y-86030000D01*
X161140000Y-90330000D02*
X157840000Y-90330000D01*
X157840000Y-90330000D02*
X157840000Y-86030000D01*
X161990000Y-88180000D02*
G75*
G03X161990000Y-88180000I-2000000J0D01*
G01*
X169594773Y-101280000D02*
X169594773Y-100880000D01*
X169794773Y-101080000D02*
X169394773Y-101080000D01*
X170370000Y-98930000D02*
X169370000Y-97930000D01*
X170370000Y-101230000D02*
X169370000Y-102230000D01*
X170370000Y-101230000D02*
X170370000Y-98930000D01*
X169370000Y-97930000D02*
X166070000Y-97930000D01*
X169370000Y-102230000D02*
X166070000Y-102230000D01*
X166070000Y-102230000D02*
X166070000Y-97930000D01*
X170220000Y-100080000D02*
G75*
G03X170220000Y-100080000I-2000000J0D01*
G01*
X176374773Y-90860000D02*
X176374773Y-90460000D01*
X176574773Y-90660000D02*
X176174773Y-90660000D01*
X177150000Y-88510000D02*
X176150000Y-87510000D01*
X177150000Y-90810000D02*
X176150000Y-91810000D01*
X177150000Y-90810000D02*
X177150000Y-88510000D01*
X176150000Y-87510000D02*
X172850000Y-87510000D01*
X176150000Y-91810000D02*
X172850000Y-91810000D01*
X172850000Y-91810000D02*
X172850000Y-87510000D01*
X177000000Y-89660000D02*
G75*
G03X177000000Y-89660000I-2000000J0D01*
G01*
X135802500Y-102180000D02*
X135802500Y-102980000D01*
X135802500Y-102980000D02*
X134202500Y-102980000D01*
X134202500Y-102980000D02*
X134202500Y-102180000D01*
X134202500Y-102180000D02*
X135802500Y-102180000D01*
X132790000Y-87980000D02*
X133590000Y-87980000D01*
X133590000Y-87980000D02*
X133590000Y-89580000D01*
X133590000Y-89580000D02*
X132790000Y-89580000D01*
X132790000Y-89580000D02*
X132790000Y-87980000D01*
X141377500Y-102780000D02*
X141377500Y-101980000D01*
X141377500Y-101980000D02*
X142977500Y-101980000D01*
X142977500Y-101980000D02*
X142977500Y-102780000D01*
X142977500Y-102780000D02*
X141377500Y-102780000D01*
X112590000Y-101380000D02*
X112590000Y-99780000D01*
X113390000Y-101380000D02*
X112590000Y-101380000D01*
X113390000Y-99780000D02*
X113390000Y-101380000D01*
X112590000Y-99780000D02*
X113390000Y-99780000D01*
X130882500Y-107290000D02*
X130882500Y-108090000D01*
X130882500Y-108090000D02*
X129282500Y-108090000D01*
X129282500Y-108090000D02*
X129282500Y-107290000D01*
X129282500Y-107290000D02*
X130882500Y-107290000D01*
X116190000Y-98980000D02*
X116190000Y-97380000D01*
X116990000Y-98980000D02*
X116190000Y-98980000D01*
X116990000Y-97380000D02*
X116990000Y-98980000D01*
X116190000Y-97380000D02*
X116990000Y-97380000D01*
X115140000Y-90855000D02*
X115140000Y-87930000D01*
X115140000Y-87930000D02*
X120040000Y-87930000D01*
X120040000Y-87930000D02*
X120040000Y-91830000D01*
X120040000Y-91830000D02*
X116115000Y-91830000D01*
X116115000Y-91830000D02*
X115140000Y-90855000D01*
X138190000Y-102780000D02*
X138190000Y-101980000D01*
X138190000Y-101980000D02*
X139790000Y-101980000D01*
X139790000Y-101980000D02*
X139790000Y-102780000D01*
X139790000Y-102780000D02*
X138190000Y-102780000D01*
X123602500Y-95890000D02*
X123602500Y-97090000D01*
X123602500Y-97090000D02*
X121602500Y-97090000D01*
X121602500Y-97090000D02*
X121602500Y-95890000D01*
X121602500Y-95890000D02*
X123602500Y-95890000D01*
X124052500Y-109320000D02*
X126052500Y-109320000D01*
X124052500Y-110520000D02*
X124052500Y-109320000D01*
X126052500Y-110520000D02*
X124052500Y-110520000D01*
X126052500Y-109320000D02*
X126052500Y-110520000D01*
X143780000Y-104840000D02*
X141980000Y-104840000D01*
X141980000Y-104840000D02*
X141980000Y-103440000D01*
X141980000Y-103440000D02*
X143780000Y-103440000D01*
X143780000Y-103440000D02*
X143780000Y-104840000D01*
X143180000Y-104490000D02*
X143180000Y-103790000D01*
X143180000Y-104140000D02*
X143380000Y-104140000D01*
X143180000Y-104140000D02*
X142680000Y-104490000D01*
X142680000Y-104490000D02*
X142680000Y-103790000D01*
X142680000Y-103790000D02*
X143180000Y-104140000D01*
X142680000Y-104140000D02*
X142430000Y-104140000D01*
X135890000Y-104080000D02*
X137690000Y-104080000D01*
X137690000Y-104080000D02*
X137690000Y-105480000D01*
X137690000Y-105480000D02*
X135890000Y-105480000D01*
X135890000Y-105480000D02*
X135890000Y-104080000D01*
X136490000Y-104430000D02*
X136490000Y-105130000D01*
X136490000Y-104780000D02*
X136290000Y-104780000D01*
X136490000Y-104780000D02*
X136990000Y-104430000D01*
X136990000Y-104430000D02*
X136990000Y-105130000D01*
X136990000Y-105130000D02*
X136490000Y-104780000D01*
X136990000Y-104780000D02*
X137240000Y-104780000D01*
X132990000Y-99180000D02*
X133790000Y-99180000D01*
X133790000Y-99180000D02*
X133790000Y-100780000D01*
X133790000Y-100780000D02*
X132990000Y-100780000D01*
X132990000Y-100780000D02*
X132990000Y-99180000D01*
X116490000Y-103530000D02*
X117140000Y-104180000D01*
X117140000Y-105330000D02*
X117140000Y-104180000D01*
X116490000Y-103530000D02*
X114040000Y-103530000D01*
X114040000Y-105330000D02*
X114040000Y-103530000D01*
X117140000Y-105330000D02*
X114040000Y-105330000D01*
X121990000Y-92430000D02*
X121190000Y-92430000D01*
X121190000Y-92430000D02*
X121190000Y-90830000D01*
X121190000Y-90830000D02*
X121990000Y-90830000D01*
X121990000Y-90830000D02*
X121990000Y-92430000D01*
X125390000Y-92580000D02*
X131390000Y-92580000D01*
X131390000Y-92580000D02*
X131390000Y-86580000D01*
X131390000Y-86580000D02*
X125390000Y-86580000D01*
X125390000Y-86580000D02*
X125390000Y-92580000D01*
X130140714Y-89580000D02*
G75*
G03X130140714Y-89580000I-1750714J0D01*
G01*
X133727500Y-96780000D02*
X133727500Y-95580000D01*
X133727500Y-95580000D02*
X135727500Y-95580000D01*
X135727500Y-95580000D02*
X135727500Y-96780000D01*
X135727500Y-96780000D02*
X133727500Y-96780000D01*
X139990000Y-97567500D02*
X139190000Y-97567500D01*
X139190000Y-97567500D02*
X139190000Y-95967500D01*
X139190000Y-95967500D02*
X139990000Y-95967500D01*
X139990000Y-95967500D02*
X139990000Y-97567500D01*
X134790000Y-92580000D02*
X133990000Y-92580000D01*
X133990000Y-92580000D02*
X133990000Y-90980000D01*
X133990000Y-90980000D02*
X134790000Y-90980000D01*
X134790000Y-90980000D02*
X134790000Y-92580000D01*
X161002500Y-92980000D02*
X161002500Y-92180000D01*
X161002500Y-92180000D02*
X162602500Y-92180000D01*
X162602500Y-92180000D02*
X162602500Y-92980000D01*
X162602500Y-92980000D02*
X161002500Y-92980000D01*
X121190000Y-87580000D02*
X121990000Y-87580000D01*
X121990000Y-87580000D02*
X121990000Y-89180000D01*
X121990000Y-89180000D02*
X121190000Y-89180000D01*
X121190000Y-89180000D02*
X121190000Y-87580000D01*
X152390000Y-103380000D02*
X153190000Y-103380000D01*
X153190000Y-103380000D02*
X153190000Y-104980000D01*
X153190000Y-104980000D02*
X152390000Y-104980000D01*
X152390000Y-104980000D02*
X152390000Y-103380000D01*
X111190000Y-102580000D02*
X112790000Y-102580000D01*
X111190000Y-103380000D02*
X111190000Y-102580000D01*
X112790000Y-103380000D02*
X111190000Y-103380000D01*
X112790000Y-102580000D02*
X112790000Y-103380000D01*
X152615000Y-92655000D02*
X155540000Y-92655000D01*
X155540000Y-92655000D02*
X155540000Y-101305000D01*
X155540000Y-101305000D02*
X151640000Y-101305000D01*
X151640000Y-101305000D02*
X151640000Y-93630000D01*
X151640000Y-93630000D02*
X152615000Y-92655000D01*
D13*
X183040000Y-94280000D02*
X183040000Y-94780000D01*
X183040000Y-92780000D02*
X183040000Y-93280000D01*
X181140000Y-93280000D02*
X184940000Y-93280000D01*
X184940000Y-94280000D02*
X181140000Y-94280000D01*
X184290000Y-92780000D02*
X181790000Y-92780000D01*
X181790000Y-92780000D02*
X181790000Y-93280000D01*
X181790000Y-93280000D02*
X181290000Y-93280000D01*
X181140000Y-93280000D02*
X181140000Y-94280000D01*
X181290000Y-94280000D02*
X181790000Y-94280000D01*
X181790000Y-94280000D02*
X181790000Y-94780000D01*
X181790000Y-94780000D02*
X184290000Y-94780000D01*
X184290000Y-94780000D02*
X184290000Y-94280000D01*
X184290000Y-94280000D02*
X184790000Y-94280000D01*
X184940000Y-94280000D02*
X184940000Y-93280000D01*
X184790000Y-93280000D02*
X184290000Y-93280000D01*
X184290000Y-93280000D02*
X184290000Y-92780000D01*
X183040000Y-99380000D02*
X183040000Y-99880000D01*
X183040000Y-97880000D02*
X183040000Y-98380000D01*
X181140000Y-98380000D02*
X184940000Y-98380000D01*
X184940000Y-99380000D02*
X181140000Y-99380000D01*
X184290000Y-97880000D02*
X181790000Y-97880000D01*
X181790000Y-97880000D02*
X181790000Y-98380000D01*
X181790000Y-98380000D02*
X181290000Y-98380000D01*
X181140000Y-98380000D02*
X181140000Y-99380000D01*
X181290000Y-99380000D02*
X181790000Y-99380000D01*
X181790000Y-99380000D02*
X181790000Y-99880000D01*
X181790000Y-99880000D02*
X184290000Y-99880000D01*
X184290000Y-99880000D02*
X184290000Y-99380000D01*
X184290000Y-99380000D02*
X184790000Y-99380000D01*
X184940000Y-99380000D02*
X184940000Y-98380000D01*
X184790000Y-98380000D02*
X184290000Y-98380000D01*
X184290000Y-98380000D02*
X184290000Y-97880000D01*
D12*
X167552500Y-88780000D02*
X165952500Y-88780000D01*
X167552500Y-87980000D02*
X167552500Y-88780000D01*
X165952500Y-87980000D02*
X167552500Y-87980000D01*
X165952500Y-88780000D02*
X165952500Y-87980000D01*
X119390000Y-98580000D02*
X119390000Y-98830000D01*
X119040000Y-98580000D02*
X119390000Y-98080000D01*
X119740000Y-98580000D02*
X119040000Y-98580000D01*
X119390000Y-98080000D02*
X119740000Y-98580000D01*
X119390000Y-98080000D02*
X119390000Y-97880000D01*
X119740000Y-98080000D02*
X119040000Y-98080000D01*
X118690000Y-97480000D02*
X120090000Y-97480000D01*
X118690000Y-99280000D02*
X118690000Y-97480000D01*
X120090000Y-99280000D02*
X118690000Y-99280000D01*
X120090000Y-97480000D02*
X120090000Y-99280000D01*
X163190000Y-96980000D02*
X163990000Y-96980000D01*
X163990000Y-96980000D02*
X163990000Y-98580000D01*
X163990000Y-98580000D02*
X163190000Y-98580000D01*
X163190000Y-98580000D02*
X163190000Y-96980000D01*
X159790000Y-100767500D02*
X158990000Y-100767500D01*
X158990000Y-100767500D02*
X158990000Y-99167500D01*
X158990000Y-99167500D02*
X159790000Y-99167500D01*
X159790000Y-99167500D02*
X159790000Y-100767500D01*
X113990000Y-106980000D02*
X115590000Y-106980000D01*
X113990000Y-107780000D02*
X113990000Y-106980000D01*
X115590000Y-107780000D02*
X113990000Y-107780000D01*
X115590000Y-106980000D02*
X115590000Y-107780000D01*
X149490000Y-93052000D02*
X148690000Y-93052000D01*
X148690000Y-93052000D02*
X148690000Y-91452000D01*
X148690000Y-91452000D02*
X149490000Y-91452000D01*
X149490000Y-91452000D02*
X149490000Y-93052000D01*
X147850000Y-93067500D02*
X147050000Y-93067500D01*
X147050000Y-93067500D02*
X147050000Y-91467500D01*
X147050000Y-91467500D02*
X147850000Y-91467500D01*
X147850000Y-91467500D02*
X147850000Y-93067500D01*
X166740000Y-94480000D02*
X168340000Y-94480000D01*
X166740000Y-95280000D02*
X166740000Y-94480000D01*
X168340000Y-95280000D02*
X166740000Y-95280000D01*
X168340000Y-94480000D02*
X168340000Y-95280000D01*
X169640000Y-90867500D02*
X170440000Y-90867500D01*
X170440000Y-90867500D02*
X170440000Y-92467500D01*
X170440000Y-92467500D02*
X169640000Y-92467500D01*
X169640000Y-92467500D02*
X169640000Y-90867500D01*
X181060000Y-101572500D02*
X181860000Y-101572500D01*
X181860000Y-101572500D02*
X181860000Y-103172500D01*
X181860000Y-103172500D02*
X181060000Y-103172500D01*
X181060000Y-103172500D02*
X181060000Y-101572500D01*
X167490000Y-90930000D02*
X165040000Y-90930000D01*
X168060000Y-91480000D02*
X168060000Y-92330000D01*
X167490000Y-90930000D02*
X168060000Y-91480000D01*
X168060000Y-92330000D02*
X165020000Y-92330000D01*
X165020000Y-90930000D02*
X165020000Y-92330000D01*
X161040000Y-97080000D02*
X161040000Y-94630000D01*
X160490000Y-97650000D02*
X159640000Y-97650000D01*
X161040000Y-97080000D02*
X160490000Y-97650000D01*
X159640000Y-97650000D02*
X159640000Y-94610000D01*
X161040000Y-94610000D02*
X159640000Y-94610000D01*
D13*
X143549523Y-105632380D02*
X144120952Y-105632380D01*
X143835238Y-106632380D02*
X143835238Y-105632380D01*
X144454285Y-106632380D02*
X144454285Y-105632380D01*
X144835238Y-105632380D01*
X144930476Y-105680000D01*
X144978095Y-105727619D01*
X145025714Y-105822857D01*
X145025714Y-105965714D01*
X144978095Y-106060952D01*
X144930476Y-106108571D01*
X144835238Y-106156190D01*
X144454285Y-106156190D01*
X145882857Y-105965714D02*
X145882857Y-106632380D01*
X145644761Y-105584761D02*
X145406666Y-106299047D01*
X146025714Y-106299047D01*
X146597142Y-105632380D02*
X146692380Y-105632380D01*
X146787619Y-105680000D01*
X146835238Y-105727619D01*
X146882857Y-105822857D01*
X146930476Y-106013333D01*
X146930476Y-106251428D01*
X146882857Y-106441904D01*
X146835238Y-106537142D01*
X146787619Y-106584761D01*
X146692380Y-106632380D01*
X146597142Y-106632380D01*
X146501904Y-106584761D01*
X146454285Y-106537142D01*
X146406666Y-106441904D01*
X146359047Y-106251428D01*
X146359047Y-106013333D01*
X146406666Y-105822857D01*
X146454285Y-105727619D01*
X146501904Y-105680000D01*
X146597142Y-105632380D01*
X147835238Y-105632380D02*
X147359047Y-105632380D01*
X147311428Y-106108571D01*
X147359047Y-106060952D01*
X147454285Y-106013333D01*
X147692380Y-106013333D01*
X147787619Y-106060952D01*
X147835238Y-106108571D01*
X147882857Y-106203809D01*
X147882857Y-106441904D01*
X147835238Y-106537142D01*
X147787619Y-106584761D01*
X147692380Y-106632380D01*
X147454285Y-106632380D01*
X147359047Y-106584761D01*
X147311428Y-106537142D01*
X148740000Y-105632380D02*
X148549523Y-105632380D01*
X148454285Y-105680000D01*
X148406666Y-105727619D01*
X148311428Y-105870476D01*
X148263809Y-106060952D01*
X148263809Y-106441904D01*
X148311428Y-106537142D01*
X148359047Y-106584761D01*
X148454285Y-106632380D01*
X148644761Y-106632380D01*
X148740000Y-106584761D01*
X148787619Y-106537142D01*
X148835238Y-106441904D01*
X148835238Y-106203809D01*
X148787619Y-106108571D01*
X148740000Y-106060952D01*
X148644761Y-106013333D01*
X148454285Y-106013333D01*
X148359047Y-106060952D01*
X148311428Y-106108571D01*
X148263809Y-106203809D01*
D14*
X140166507Y-90836056D02*
X138765105Y-90836056D01*
X140166507Y-90035255D01*
X138765105Y-90035255D01*
X140033040Y-88567119D02*
X140099774Y-88633853D01*
X140166507Y-88834053D01*
X140166507Y-88967520D01*
X140099774Y-89167720D01*
X139966307Y-89301187D01*
X139832840Y-89367920D01*
X139565906Y-89434654D01*
X139365706Y-89434654D01*
X139098772Y-89367920D01*
X138965305Y-89301187D01*
X138831839Y-89167720D01*
X138765105Y-88967520D01*
X138765105Y-88834053D01*
X138831839Y-88633853D01*
X138898572Y-88567119D01*
X140166507Y-87966518D02*
X138765105Y-87966518D01*
X138765105Y-87432651D01*
X138831839Y-87299184D01*
X138898572Y-87232451D01*
X139032039Y-87165717D01*
X139232239Y-87165717D01*
X139365706Y-87232451D01*
X139432439Y-87299184D01*
X139499173Y-87432651D01*
X139499173Y-87966518D01*
X138765105Y-86698583D02*
X138765105Y-85764315D01*
X140166507Y-86364916D01*
X140166507Y-84496380D02*
X140166507Y-85297181D01*
X140166507Y-84896781D02*
X138765105Y-84896781D01*
X138965305Y-85030248D01*
X139098772Y-85163714D01*
X139165506Y-85297181D01*
X139365706Y-83695579D02*
X139298973Y-83829046D01*
X139232239Y-83895779D01*
X139098772Y-83962513D01*
X139032039Y-83962513D01*
X138898572Y-83895779D01*
X138831839Y-83829046D01*
X138765105Y-83695579D01*
X138765105Y-83428645D01*
X138831839Y-83295178D01*
X138898572Y-83228445D01*
X139032039Y-83161712D01*
X139098772Y-83161712D01*
X139232239Y-83228445D01*
X139298973Y-83295178D01*
X139365706Y-83428645D01*
X139365706Y-83695579D01*
X139432439Y-83829046D01*
X139499173Y-83895779D01*
X139632640Y-83962513D01*
X139899573Y-83962513D01*
X140033040Y-83895779D01*
X140099774Y-83829046D01*
X140166507Y-83695579D01*
X140166507Y-83428645D01*
X140099774Y-83295178D01*
X140033040Y-83228445D01*
X139899573Y-83161712D01*
X139632640Y-83161712D01*
X139499173Y-83228445D01*
X139432439Y-83295178D01*
X139365706Y-83428645D01*
X139766107Y-82627844D02*
X139766107Y-81960510D01*
X140166507Y-82761311D02*
X138765105Y-82294177D01*
X140166507Y-81827043D01*
D13*
X117242380Y-105475238D02*
X117242380Y-106046666D01*
X117242380Y-105760952D02*
X116242380Y-105760952D01*
X116385238Y-105856190D01*
X116480476Y-105951428D01*
X116528095Y-106046666D01*
X116242380Y-104856190D02*
X116242380Y-104760952D01*
X116290000Y-104665714D01*
X116337619Y-104618095D01*
X116432857Y-104570476D01*
X116623333Y-104522857D01*
X116861428Y-104522857D01*
X117051904Y-104570476D01*
X117147142Y-104618095D01*
X117194761Y-104665714D01*
X117242380Y-104760952D01*
X117242380Y-104856190D01*
X117194761Y-104951428D01*
X117147142Y-104999047D01*
X117051904Y-105046666D01*
X116861428Y-105094285D01*
X116623333Y-105094285D01*
X116432857Y-105046666D01*
X116337619Y-104999047D01*
X116290000Y-104951428D01*
X116242380Y-104856190D01*
X116575714Y-103665714D02*
X117242380Y-103665714D01*
X116575714Y-104094285D02*
X117099523Y-104094285D01*
X117194761Y-104046666D01*
X117242380Y-103951428D01*
X117242380Y-103808571D01*
X117194761Y-103713333D01*
X117147142Y-103665714D01*
X117242380Y-103189523D02*
X116242380Y-103189523D01*
X117242380Y-102760952D02*
X116718571Y-102760952D01*
X116623333Y-102808571D01*
X116575714Y-102903809D01*
X116575714Y-103046666D01*
X116623333Y-103141904D01*
X116670952Y-103189523D01*
X180682380Y-99834761D02*
X180682380Y-100406190D01*
X180682380Y-100120476D02*
X179682380Y-100120476D01*
X179825238Y-100215714D01*
X179920476Y-100310952D01*
X179968095Y-100406190D01*
X179682380Y-99215714D02*
X179682380Y-99120476D01*
X179730000Y-99025238D01*
X179777619Y-98977619D01*
X179872857Y-98930000D01*
X180063333Y-98882380D01*
X180301428Y-98882380D01*
X180491904Y-98930000D01*
X180587142Y-98977619D01*
X180634761Y-99025238D01*
X180682380Y-99120476D01*
X180682380Y-99215714D01*
X180634761Y-99310952D01*
X180587142Y-99358571D01*
X180491904Y-99406190D01*
X180301428Y-99453809D01*
X180063333Y-99453809D01*
X179872857Y-99406190D01*
X179777619Y-99358571D01*
X179730000Y-99310952D01*
X179682380Y-99215714D01*
X179682380Y-98263333D02*
X179682380Y-98168095D01*
X179730000Y-98072857D01*
X179777619Y-98025238D01*
X179872857Y-97977619D01*
X180063333Y-97930000D01*
X180301428Y-97930000D01*
X180491904Y-97977619D01*
X180587142Y-98025238D01*
X180634761Y-98072857D01*
X180682380Y-98168095D01*
X180682380Y-98263333D01*
X180634761Y-98358571D01*
X180587142Y-98406190D01*
X180491904Y-98453809D01*
X180301428Y-98501428D01*
X180063333Y-98501428D01*
X179872857Y-98453809D01*
X179777619Y-98406190D01*
X179730000Y-98358571D01*
X179682380Y-98263333D01*
X180015714Y-97072857D02*
X180682380Y-97072857D01*
X180015714Y-97501428D02*
X180539523Y-97501428D01*
X180634761Y-97453809D01*
X180682380Y-97358571D01*
X180682380Y-97215714D01*
X180634761Y-97120476D01*
X180587142Y-97072857D01*
X180015714Y-96739523D02*
X180015714Y-96358571D01*
X180682380Y-96596666D02*
X179825238Y-96596666D01*
X179730000Y-96549047D01*
X179682380Y-96453809D01*
X179682380Y-96358571D01*
X176237142Y-98596666D02*
X176284761Y-98644285D01*
X176332380Y-98787142D01*
X176332380Y-98882380D01*
X176284761Y-99025238D01*
X176189523Y-99120476D01*
X176094285Y-99168095D01*
X175903809Y-99215714D01*
X175760952Y-99215714D01*
X175570476Y-99168095D01*
X175475238Y-99120476D01*
X175380000Y-99025238D01*
X175332380Y-98882380D01*
X175332380Y-98787142D01*
X175380000Y-98644285D01*
X175427619Y-98596666D01*
X175332380Y-97739523D02*
X175332380Y-97930000D01*
X175380000Y-98025238D01*
X175427619Y-98072857D01*
X175570476Y-98168095D01*
X175760952Y-98215714D01*
X176141904Y-98215714D01*
X176237142Y-98168095D01*
X176284761Y-98120476D01*
X176332380Y-98025238D01*
X176332380Y-97834761D01*
X176284761Y-97739523D01*
X176237142Y-97691904D01*
X176141904Y-97644285D01*
X175903809Y-97644285D01*
X175808571Y-97691904D01*
X175760952Y-97739523D01*
X175713333Y-97834761D01*
X175713333Y-98025238D01*
X175760952Y-98120476D01*
X175808571Y-98168095D01*
X175903809Y-98215714D01*
X124872380Y-101984761D02*
X124872380Y-102556190D01*
X124872380Y-102270476D02*
X123872380Y-102270476D01*
X124015238Y-102365714D01*
X124110476Y-102460952D01*
X124158095Y-102556190D01*
X123872380Y-101365714D02*
X123872380Y-101270476D01*
X123920000Y-101175238D01*
X123967619Y-101127619D01*
X124062857Y-101080000D01*
X124253333Y-101032380D01*
X124491428Y-101032380D01*
X124681904Y-101080000D01*
X124777142Y-101127619D01*
X124824761Y-101175238D01*
X124872380Y-101270476D01*
X124872380Y-101365714D01*
X124824761Y-101460952D01*
X124777142Y-101508571D01*
X124681904Y-101556190D01*
X124491428Y-101603809D01*
X124253333Y-101603809D01*
X124062857Y-101556190D01*
X123967619Y-101508571D01*
X123920000Y-101460952D01*
X123872380Y-101365714D01*
X123872380Y-100413333D02*
X123872380Y-100318095D01*
X123920000Y-100222857D01*
X123967619Y-100175238D01*
X124062857Y-100127619D01*
X124253333Y-100080000D01*
X124491428Y-100080000D01*
X124681904Y-100127619D01*
X124777142Y-100175238D01*
X124824761Y-100222857D01*
X124872380Y-100318095D01*
X124872380Y-100413333D01*
X124824761Y-100508571D01*
X124777142Y-100556190D01*
X124681904Y-100603809D01*
X124491428Y-100651428D01*
X124253333Y-100651428D01*
X124062857Y-100603809D01*
X123967619Y-100556190D01*
X123920000Y-100508571D01*
X123872380Y-100413333D01*
X124205714Y-99222857D02*
X124872380Y-99222857D01*
X124205714Y-99651428D02*
X124729523Y-99651428D01*
X124824761Y-99603809D01*
X124872380Y-99508571D01*
X124872380Y-99365714D01*
X124824761Y-99270476D01*
X124777142Y-99222857D01*
X124205714Y-98889523D02*
X124205714Y-98508571D01*
X124872380Y-98746666D02*
X124015238Y-98746666D01*
X123920000Y-98699047D01*
X123872380Y-98603809D01*
X123872380Y-98508571D01*
X129127142Y-100746666D02*
X129174761Y-100794285D01*
X129222380Y-100937142D01*
X129222380Y-101032380D01*
X129174761Y-101175238D01*
X129079523Y-101270476D01*
X128984285Y-101318095D01*
X128793809Y-101365714D01*
X128650952Y-101365714D01*
X128460476Y-101318095D01*
X128365238Y-101270476D01*
X128270000Y-101175238D01*
X128222380Y-101032380D01*
X128222380Y-100937142D01*
X128270000Y-100794285D01*
X128317619Y-100746666D01*
X128222380Y-99841904D02*
X128222380Y-100318095D01*
X128698571Y-100365714D01*
X128650952Y-100318095D01*
X128603333Y-100222857D01*
X128603333Y-99984761D01*
X128650952Y-99889523D01*
X128698571Y-99841904D01*
X128793809Y-99794285D01*
X129031904Y-99794285D01*
X129127142Y-99841904D01*
X129174761Y-99889523D01*
X129222380Y-99984761D01*
X129222380Y-100222857D01*
X129174761Y-100318095D01*
X129127142Y-100365714D01*
X159061428Y-85432380D02*
X158490000Y-85432380D01*
X158775714Y-85432380D02*
X158775714Y-84432380D01*
X158680476Y-84575238D01*
X158585238Y-84670476D01*
X158490000Y-84718095D01*
X159680476Y-84432380D02*
X159775714Y-84432380D01*
X159870952Y-84480000D01*
X159918571Y-84527619D01*
X159966190Y-84622857D01*
X160013809Y-84813333D01*
X160013809Y-85051428D01*
X159966190Y-85241904D01*
X159918571Y-85337142D01*
X159870952Y-85384761D01*
X159775714Y-85432380D01*
X159680476Y-85432380D01*
X159585238Y-85384761D01*
X159537619Y-85337142D01*
X159490000Y-85241904D01*
X159442380Y-85051428D01*
X159442380Y-84813333D01*
X159490000Y-84622857D01*
X159537619Y-84527619D01*
X159585238Y-84480000D01*
X159680476Y-84432380D01*
X160870952Y-84765714D02*
X160870952Y-85432380D01*
X160442380Y-84765714D02*
X160442380Y-85289523D01*
X160490000Y-85384761D01*
X160585238Y-85432380D01*
X160728095Y-85432380D01*
X160823333Y-85384761D01*
X160870952Y-85337142D01*
X161204285Y-84765714D02*
X161585238Y-84765714D01*
X161347142Y-85432380D02*
X161347142Y-84575238D01*
X161394761Y-84480000D01*
X161490000Y-84432380D01*
X161585238Y-84432380D01*
D15*
X159856666Y-88465714D02*
X159818571Y-88503809D01*
X159704285Y-88541904D01*
X159628095Y-88541904D01*
X159513809Y-88503809D01*
X159437619Y-88427619D01*
X159399523Y-88351428D01*
X159361428Y-88199047D01*
X159361428Y-88084761D01*
X159399523Y-87932380D01*
X159437619Y-87856190D01*
X159513809Y-87780000D01*
X159628095Y-87741904D01*
X159704285Y-87741904D01*
X159818571Y-87780000D01*
X159856666Y-87818095D01*
X160123333Y-87741904D02*
X160618571Y-87741904D01*
X160351904Y-88046666D01*
X160466190Y-88046666D01*
X160542380Y-88084761D01*
X160580476Y-88122857D01*
X160618571Y-88199047D01*
X160618571Y-88389523D01*
X160580476Y-88465714D01*
X160542380Y-88503809D01*
X160466190Y-88541904D01*
X160237619Y-88541904D01*
X160161428Y-88503809D01*
X160123333Y-88465714D01*
D13*
X167291428Y-97332380D02*
X166720000Y-97332380D01*
X167005714Y-97332380D02*
X167005714Y-96332380D01*
X166910476Y-96475238D01*
X166815238Y-96570476D01*
X166720000Y-96618095D01*
X167910476Y-96332380D02*
X168005714Y-96332380D01*
X168100952Y-96380000D01*
X168148571Y-96427619D01*
X168196190Y-96522857D01*
X168243809Y-96713333D01*
X168243809Y-96951428D01*
X168196190Y-97141904D01*
X168148571Y-97237142D01*
X168100952Y-97284761D01*
X168005714Y-97332380D01*
X167910476Y-97332380D01*
X167815238Y-97284761D01*
X167767619Y-97237142D01*
X167720000Y-97141904D01*
X167672380Y-96951428D01*
X167672380Y-96713333D01*
X167720000Y-96522857D01*
X167767619Y-96427619D01*
X167815238Y-96380000D01*
X167910476Y-96332380D01*
X169100952Y-96665714D02*
X169100952Y-97332380D01*
X168672380Y-96665714D02*
X168672380Y-97189523D01*
X168720000Y-97284761D01*
X168815238Y-97332380D01*
X168958095Y-97332380D01*
X169053333Y-97284761D01*
X169100952Y-97237142D01*
X169434285Y-96665714D02*
X169815238Y-96665714D01*
X169577142Y-97332380D02*
X169577142Y-96475238D01*
X169624761Y-96380000D01*
X169720000Y-96332380D01*
X169815238Y-96332380D01*
D15*
X168086666Y-100365714D02*
X168048571Y-100403809D01*
X167934285Y-100441904D01*
X167858095Y-100441904D01*
X167743809Y-100403809D01*
X167667619Y-100327619D01*
X167629523Y-100251428D01*
X167591428Y-100099047D01*
X167591428Y-99984761D01*
X167629523Y-99832380D01*
X167667619Y-99756190D01*
X167743809Y-99680000D01*
X167858095Y-99641904D01*
X167934285Y-99641904D01*
X168048571Y-99680000D01*
X168086666Y-99718095D01*
X168391428Y-99718095D02*
X168429523Y-99680000D01*
X168505714Y-99641904D01*
X168696190Y-99641904D01*
X168772380Y-99680000D01*
X168810476Y-99718095D01*
X168848571Y-99794285D01*
X168848571Y-99870476D01*
X168810476Y-99984761D01*
X168353333Y-100441904D01*
X168848571Y-100441904D01*
D13*
X174071428Y-86912380D02*
X173500000Y-86912380D01*
X173785714Y-86912380D02*
X173785714Y-85912380D01*
X173690476Y-86055238D01*
X173595238Y-86150476D01*
X173500000Y-86198095D01*
X174690476Y-85912380D02*
X174785714Y-85912380D01*
X174880952Y-85960000D01*
X174928571Y-86007619D01*
X174976190Y-86102857D01*
X175023809Y-86293333D01*
X175023809Y-86531428D01*
X174976190Y-86721904D01*
X174928571Y-86817142D01*
X174880952Y-86864761D01*
X174785714Y-86912380D01*
X174690476Y-86912380D01*
X174595238Y-86864761D01*
X174547619Y-86817142D01*
X174500000Y-86721904D01*
X174452380Y-86531428D01*
X174452380Y-86293333D01*
X174500000Y-86102857D01*
X174547619Y-86007619D01*
X174595238Y-85960000D01*
X174690476Y-85912380D01*
X175880952Y-86245714D02*
X175880952Y-86912380D01*
X175452380Y-86245714D02*
X175452380Y-86769523D01*
X175500000Y-86864761D01*
X175595238Y-86912380D01*
X175738095Y-86912380D01*
X175833333Y-86864761D01*
X175880952Y-86817142D01*
X176214285Y-86245714D02*
X176595238Y-86245714D01*
X176357142Y-86912380D02*
X176357142Y-86055238D01*
X176404761Y-85960000D01*
X176500000Y-85912380D01*
X176595238Y-85912380D01*
D15*
X174866666Y-89945714D02*
X174828571Y-89983809D01*
X174714285Y-90021904D01*
X174638095Y-90021904D01*
X174523809Y-89983809D01*
X174447619Y-89907619D01*
X174409523Y-89831428D01*
X174371428Y-89679047D01*
X174371428Y-89564761D01*
X174409523Y-89412380D01*
X174447619Y-89336190D01*
X174523809Y-89260000D01*
X174638095Y-89221904D01*
X174714285Y-89221904D01*
X174828571Y-89260000D01*
X174866666Y-89298095D01*
X175628571Y-90021904D02*
X175171428Y-90021904D01*
X175400000Y-90021904D02*
X175400000Y-89221904D01*
X175323809Y-89336190D01*
X175247619Y-89412380D01*
X175171428Y-89450476D01*
D13*
X172580952Y-91342380D02*
X172580952Y-90342380D01*
X172914285Y-91056666D01*
X173247619Y-90342380D01*
X173247619Y-91342380D01*
X173866666Y-91342380D02*
X173771428Y-91294761D01*
X173723809Y-91247142D01*
X173676190Y-91151904D01*
X173676190Y-90866190D01*
X173723809Y-90770952D01*
X173771428Y-90723333D01*
X173866666Y-90675714D01*
X174009523Y-90675714D01*
X174104761Y-90723333D01*
X174152380Y-90770952D01*
X174200000Y-90866190D01*
X174200000Y-91151904D01*
X174152380Y-91247142D01*
X174104761Y-91294761D01*
X174009523Y-91342380D01*
X173866666Y-91342380D01*
X175057142Y-90675714D02*
X175057142Y-91342380D01*
X174628571Y-90675714D02*
X174628571Y-91199523D01*
X174676190Y-91294761D01*
X174771428Y-91342380D01*
X174914285Y-91342380D01*
X175009523Y-91294761D01*
X175057142Y-91247142D01*
X175533333Y-90675714D02*
X175533333Y-91342380D01*
X175533333Y-90770952D02*
X175580952Y-90723333D01*
X175676190Y-90675714D01*
X175819047Y-90675714D01*
X175914285Y-90723333D01*
X175961904Y-90818571D01*
X175961904Y-91342380D01*
X176295238Y-90675714D02*
X176676190Y-90675714D01*
X176438095Y-90342380D02*
X176438095Y-91199523D01*
X176485714Y-91294761D01*
X176580952Y-91342380D01*
X176676190Y-91342380D01*
X177009523Y-91342380D02*
X177009523Y-90675714D01*
X177009523Y-90342380D02*
X176961904Y-90390000D01*
X177009523Y-90437619D01*
X177057142Y-90390000D01*
X177009523Y-90342380D01*
X177009523Y-90437619D01*
X177485714Y-90675714D02*
X177485714Y-91342380D01*
X177485714Y-90770952D02*
X177533333Y-90723333D01*
X177628571Y-90675714D01*
X177771428Y-90675714D01*
X177866666Y-90723333D01*
X177914285Y-90818571D01*
X177914285Y-91342380D01*
X178819047Y-90675714D02*
X178819047Y-91485238D01*
X178771428Y-91580476D01*
X178723809Y-91628095D01*
X178628571Y-91675714D01*
X178485714Y-91675714D01*
X178390476Y-91628095D01*
X178819047Y-91294761D02*
X178723809Y-91342380D01*
X178533333Y-91342380D01*
X178438095Y-91294761D01*
X178390476Y-91247142D01*
X178342857Y-91151904D01*
X178342857Y-90866190D01*
X178390476Y-90770952D01*
X178438095Y-90723333D01*
X178533333Y-90675714D01*
X178723809Y-90675714D01*
X178819047Y-90723333D01*
X179295238Y-91342380D02*
X179295238Y-90342380D01*
X179295238Y-90818571D02*
X179866666Y-90818571D01*
X179866666Y-91342380D02*
X179866666Y-90342380D01*
X180485714Y-91342380D02*
X180390476Y-91294761D01*
X180342857Y-91247142D01*
X180295238Y-91151904D01*
X180295238Y-90866190D01*
X180342857Y-90770952D01*
X180390476Y-90723333D01*
X180485714Y-90675714D01*
X180628571Y-90675714D01*
X180723809Y-90723333D01*
X180771428Y-90770952D01*
X180819047Y-90866190D01*
X180819047Y-91151904D01*
X180771428Y-91247142D01*
X180723809Y-91294761D01*
X180628571Y-91342380D01*
X180485714Y-91342380D01*
X181390476Y-91342380D02*
X181295238Y-91294761D01*
X181247619Y-91199523D01*
X181247619Y-90342380D01*
X182152380Y-91294761D02*
X182057142Y-91342380D01*
X181866666Y-91342380D01*
X181771428Y-91294761D01*
X181723809Y-91199523D01*
X181723809Y-90818571D01*
X181771428Y-90723333D01*
X181866666Y-90675714D01*
X182057142Y-90675714D01*
X182152380Y-90723333D01*
X182200000Y-90818571D01*
X182200000Y-90913809D01*
X181723809Y-91009047D01*
X182390476Y-91437619D02*
X183152380Y-91437619D01*
X183342857Y-90437619D02*
X183390476Y-90390000D01*
X183485714Y-90342380D01*
X183723809Y-90342380D01*
X183819047Y-90390000D01*
X183866666Y-90437619D01*
X183914285Y-90532857D01*
X183914285Y-90628095D01*
X183866666Y-90770952D01*
X183295238Y-91342380D01*
X183914285Y-91342380D01*
X184342857Y-91247142D02*
X184390476Y-91294761D01*
X184342857Y-91342380D01*
X184295238Y-91294761D01*
X184342857Y-91247142D01*
X184342857Y-91342380D01*
X184771428Y-90437619D02*
X184819047Y-90390000D01*
X184914285Y-90342380D01*
X185152380Y-90342380D01*
X185247619Y-90390000D01*
X185295238Y-90437619D01*
X185342857Y-90532857D01*
X185342857Y-90628095D01*
X185295238Y-90770952D01*
X184723809Y-91342380D01*
X185342857Y-91342380D01*
X185771428Y-91342380D02*
X185771428Y-90675714D01*
X185771428Y-90770952D02*
X185819047Y-90723333D01*
X185914285Y-90675714D01*
X186057142Y-90675714D01*
X186152380Y-90723333D01*
X186200000Y-90818571D01*
X186200000Y-91342380D01*
X186200000Y-90818571D02*
X186247619Y-90723333D01*
X186342857Y-90675714D01*
X186485714Y-90675714D01*
X186580952Y-90723333D01*
X186628571Y-90818571D01*
X186628571Y-91342380D01*
X187104761Y-91342380D02*
X187104761Y-90675714D01*
X187104761Y-90770952D02*
X187152380Y-90723333D01*
X187247619Y-90675714D01*
X187390476Y-90675714D01*
X187485714Y-90723333D01*
X187533333Y-90818571D01*
X187533333Y-91342380D01*
X187533333Y-90818571D02*
X187580952Y-90723333D01*
X187676190Y-90675714D01*
X187819047Y-90675714D01*
X187914285Y-90723333D01*
X187961904Y-90818571D01*
X187961904Y-91342380D01*
X188200000Y-91437619D02*
X188961904Y-91437619D01*
X189200000Y-91342380D02*
X189200000Y-90342380D01*
X189533333Y-91056666D01*
X189866666Y-90342380D01*
X189866666Y-91342380D01*
X190295238Y-90437619D02*
X190342857Y-90390000D01*
X190438095Y-90342380D01*
X190676190Y-90342380D01*
X190771428Y-90390000D01*
X190819047Y-90437619D01*
X190866666Y-90532857D01*
X190866666Y-90628095D01*
X190819047Y-90770952D01*
X190247619Y-91342380D01*
X190866666Y-91342380D01*
X180666666Y-88142380D02*
X180333333Y-87666190D01*
X180095238Y-88142380D02*
X180095238Y-87142380D01*
X180476190Y-87142380D01*
X180571428Y-87190000D01*
X180619047Y-87237619D01*
X180666666Y-87332857D01*
X180666666Y-87475714D01*
X180619047Y-87570952D01*
X180571428Y-87618571D01*
X180476190Y-87666190D01*
X180095238Y-87666190D01*
X181095238Y-87618571D02*
X181428571Y-87618571D01*
X181571428Y-88142380D02*
X181095238Y-88142380D01*
X181095238Y-87142380D01*
X181571428Y-87142380D01*
X182333333Y-87618571D02*
X182000000Y-87618571D01*
X182000000Y-88142380D02*
X182000000Y-87142380D01*
X182476190Y-87142380D01*
X183000000Y-87142380D02*
X183000000Y-87380476D01*
X182761904Y-87285238D02*
X183000000Y-87380476D01*
X183238095Y-87285238D01*
X182857142Y-87570952D02*
X183000000Y-87380476D01*
X183142857Y-87570952D01*
X183761904Y-87142380D02*
X183761904Y-87380476D01*
X183523809Y-87285238D02*
X183761904Y-87380476D01*
X184000000Y-87285238D01*
X183619047Y-87570952D02*
X183761904Y-87380476D01*
X183904761Y-87570952D01*
X134550119Y-101602380D02*
X133978690Y-101602380D01*
X134264404Y-101602380D02*
X134264404Y-100602380D01*
X134169166Y-100745238D01*
X134073928Y-100840476D01*
X133978690Y-100888095D01*
X135407261Y-100935714D02*
X135407261Y-101602380D01*
X134978690Y-100935714D02*
X134978690Y-101459523D01*
X135026309Y-101554761D01*
X135121547Y-101602380D01*
X135264404Y-101602380D01*
X135359642Y-101554761D01*
X135407261Y-101507142D01*
X135740595Y-100935714D02*
X136121547Y-100935714D01*
X135883452Y-101602380D02*
X135883452Y-100745238D01*
X135931071Y-100650000D01*
X136026309Y-100602380D01*
X136121547Y-100602380D01*
X132117142Y-89994285D02*
X132164761Y-89946666D01*
X132212380Y-89994285D01*
X132164761Y-90041904D01*
X132117142Y-89994285D01*
X132212380Y-89994285D01*
X132212380Y-88994285D02*
X132212380Y-89565714D01*
X132212380Y-89280000D02*
X131212380Y-89280000D01*
X131355238Y-89375238D01*
X131450476Y-89470476D01*
X131498095Y-89565714D01*
X131545714Y-88137142D02*
X132212380Y-88137142D01*
X131545714Y-88565714D02*
X132069523Y-88565714D01*
X132164761Y-88518095D01*
X132212380Y-88422857D01*
X132212380Y-88280000D01*
X132164761Y-88184761D01*
X132117142Y-88137142D01*
X131545714Y-87803809D02*
X131545714Y-87422857D01*
X132212380Y-87660952D02*
X131355238Y-87660952D01*
X131260000Y-87613333D01*
X131212380Y-87518095D01*
X131212380Y-87422857D01*
X128469523Y-112958571D02*
X128612380Y-113006190D01*
X128660000Y-113053809D01*
X128707619Y-113149047D01*
X128707619Y-113291904D01*
X128660000Y-113387142D01*
X128612380Y-113434761D01*
X128517142Y-113482380D01*
X128136190Y-113482380D01*
X128136190Y-112482380D01*
X128469523Y-112482380D01*
X128564761Y-112530000D01*
X128612380Y-112577619D01*
X128660000Y-112672857D01*
X128660000Y-112768095D01*
X128612380Y-112863333D01*
X128564761Y-112910952D01*
X128469523Y-112958571D01*
X128136190Y-112958571D01*
X129564761Y-113482380D02*
X129564761Y-112958571D01*
X129517142Y-112863333D01*
X129421904Y-112815714D01*
X129231428Y-112815714D01*
X129136190Y-112863333D01*
X129564761Y-113434761D02*
X129469523Y-113482380D01*
X129231428Y-113482380D01*
X129136190Y-113434761D01*
X129088571Y-113339523D01*
X129088571Y-113244285D01*
X129136190Y-113149047D01*
X129231428Y-113101428D01*
X129469523Y-113101428D01*
X129564761Y-113053809D01*
X129898095Y-112815714D02*
X130279047Y-112815714D01*
X130040952Y-112482380D02*
X130040952Y-113339523D01*
X130088571Y-113434761D01*
X130183809Y-113482380D01*
X130279047Y-113482380D01*
X130469523Y-112815714D02*
X130850476Y-112815714D01*
X130612380Y-112482380D02*
X130612380Y-113339523D01*
X130660000Y-113434761D01*
X130755238Y-113482380D01*
X130850476Y-113482380D01*
X131564761Y-113434761D02*
X131469523Y-113482380D01*
X131279047Y-113482380D01*
X131183809Y-113434761D01*
X131136190Y-113339523D01*
X131136190Y-112958571D01*
X131183809Y-112863333D01*
X131279047Y-112815714D01*
X131469523Y-112815714D01*
X131564761Y-112863333D01*
X131612380Y-112958571D01*
X131612380Y-113053809D01*
X131136190Y-113149047D01*
X132040952Y-113482380D02*
X132040952Y-112815714D01*
X132040952Y-113006190D02*
X132088571Y-112910952D01*
X132136190Y-112863333D01*
X132231428Y-112815714D01*
X132326666Y-112815714D01*
X132564761Y-112815714D02*
X132802857Y-113482380D01*
X133040952Y-112815714D02*
X132802857Y-113482380D01*
X132707619Y-113720476D01*
X132660000Y-113768095D01*
X132564761Y-113815714D01*
X133421904Y-113101428D02*
X134183809Y-113101428D01*
X152569523Y-112938571D02*
X152712380Y-112986190D01*
X152760000Y-113033809D01*
X152807619Y-113129047D01*
X152807619Y-113271904D01*
X152760000Y-113367142D01*
X152712380Y-113414761D01*
X152617142Y-113462380D01*
X152236190Y-113462380D01*
X152236190Y-112462380D01*
X152569523Y-112462380D01*
X152664761Y-112510000D01*
X152712380Y-112557619D01*
X152760000Y-112652857D01*
X152760000Y-112748095D01*
X152712380Y-112843333D01*
X152664761Y-112890952D01*
X152569523Y-112938571D01*
X152236190Y-112938571D01*
X153664761Y-113462380D02*
X153664761Y-112938571D01*
X153617142Y-112843333D01*
X153521904Y-112795714D01*
X153331428Y-112795714D01*
X153236190Y-112843333D01*
X153664761Y-113414761D02*
X153569523Y-113462380D01*
X153331428Y-113462380D01*
X153236190Y-113414761D01*
X153188571Y-113319523D01*
X153188571Y-113224285D01*
X153236190Y-113129047D01*
X153331428Y-113081428D01*
X153569523Y-113081428D01*
X153664761Y-113033809D01*
X153998095Y-112795714D02*
X154379047Y-112795714D01*
X154140952Y-112462380D02*
X154140952Y-113319523D01*
X154188571Y-113414761D01*
X154283809Y-113462380D01*
X154379047Y-113462380D01*
X154569523Y-112795714D02*
X154950476Y-112795714D01*
X154712380Y-112462380D02*
X154712380Y-113319523D01*
X154760000Y-113414761D01*
X154855238Y-113462380D01*
X154950476Y-113462380D01*
X155664761Y-113414761D02*
X155569523Y-113462380D01*
X155379047Y-113462380D01*
X155283809Y-113414761D01*
X155236190Y-113319523D01*
X155236190Y-112938571D01*
X155283809Y-112843333D01*
X155379047Y-112795714D01*
X155569523Y-112795714D01*
X155664761Y-112843333D01*
X155712380Y-112938571D01*
X155712380Y-113033809D01*
X155236190Y-113129047D01*
X156140952Y-113462380D02*
X156140952Y-112795714D01*
X156140952Y-112986190D02*
X156188571Y-112890952D01*
X156236190Y-112843333D01*
X156331428Y-112795714D01*
X156426666Y-112795714D01*
X156664761Y-112795714D02*
X156902857Y-113462380D01*
X157140952Y-112795714D02*
X156902857Y-113462380D01*
X156807619Y-113700476D01*
X156760000Y-113748095D01*
X156664761Y-113795714D01*
X157521904Y-113081428D02*
X158283809Y-113081428D01*
X157902857Y-113462380D02*
X157902857Y-112700476D01*
X141487023Y-103262380D02*
X141296547Y-103262380D01*
X141201309Y-103310000D01*
X141153690Y-103357619D01*
X141058452Y-103500476D01*
X141010833Y-103690952D01*
X141010833Y-104071904D01*
X141058452Y-104167142D01*
X141106071Y-104214761D01*
X141201309Y-104262380D01*
X141391785Y-104262380D01*
X141487023Y-104214761D01*
X141534642Y-104167142D01*
X141582261Y-104071904D01*
X141582261Y-103833809D01*
X141534642Y-103738571D01*
X141487023Y-103690952D01*
X141391785Y-103643333D01*
X141201309Y-103643333D01*
X141106071Y-103690952D01*
X141058452Y-103738571D01*
X141010833Y-103833809D01*
X142153690Y-103690952D02*
X142058452Y-103643333D01*
X142010833Y-103595714D01*
X141963214Y-103500476D01*
X141963214Y-103452857D01*
X142010833Y-103357619D01*
X142058452Y-103310000D01*
X142153690Y-103262380D01*
X142344166Y-103262380D01*
X142439404Y-103310000D01*
X142487023Y-103357619D01*
X142534642Y-103452857D01*
X142534642Y-103500476D01*
X142487023Y-103595714D01*
X142439404Y-103643333D01*
X142344166Y-103690952D01*
X142153690Y-103690952D01*
X142058452Y-103738571D01*
X142010833Y-103786190D01*
X141963214Y-103881428D01*
X141963214Y-104071904D01*
X142010833Y-104167142D01*
X142058452Y-104214761D01*
X142153690Y-104262380D01*
X142344166Y-104262380D01*
X142439404Y-104214761D01*
X142487023Y-104167142D01*
X142534642Y-104071904D01*
X142534642Y-103881428D01*
X142487023Y-103786190D01*
X142439404Y-103738571D01*
X142344166Y-103690952D01*
X142963214Y-104262380D02*
X142963214Y-103262380D01*
X143058452Y-103881428D02*
X143344166Y-104262380D01*
X143344166Y-103595714D02*
X142963214Y-103976666D01*
X111345714Y-101270476D02*
X112012380Y-101270476D01*
X110964761Y-101508571D02*
X111679047Y-101746666D01*
X111679047Y-101127619D01*
X111012380Y-100841904D02*
X111012380Y-100222857D01*
X111393333Y-100556190D01*
X111393333Y-100413333D01*
X111440952Y-100318095D01*
X111488571Y-100270476D01*
X111583809Y-100222857D01*
X111821904Y-100222857D01*
X111917142Y-100270476D01*
X111964761Y-100318095D01*
X112012380Y-100413333D01*
X112012380Y-100699047D01*
X111964761Y-100794285D01*
X111917142Y-100841904D01*
X112012380Y-99794285D02*
X111012380Y-99794285D01*
X111631428Y-99699047D02*
X112012380Y-99413333D01*
X111345714Y-99413333D02*
X111726666Y-99794285D01*
X129796785Y-106712380D02*
X129225357Y-106712380D01*
X129511071Y-106712380D02*
X129511071Y-105712380D01*
X129415833Y-105855238D01*
X129320595Y-105950476D01*
X129225357Y-105998095D01*
X130225357Y-106712380D02*
X130225357Y-105712380D01*
X130558690Y-106426666D01*
X130892023Y-105712380D01*
X130892023Y-106712380D01*
X114707619Y-99680000D02*
X114660000Y-99632380D01*
X114612380Y-99537142D01*
X114612380Y-99299047D01*
X114660000Y-99203809D01*
X114707619Y-99156190D01*
X114802857Y-99108571D01*
X114898095Y-99108571D01*
X115040952Y-99156190D01*
X115612380Y-99727619D01*
X115612380Y-99108571D01*
X114707619Y-98727619D02*
X114660000Y-98680000D01*
X114612380Y-98584761D01*
X114612380Y-98346666D01*
X114660000Y-98251428D01*
X114707619Y-98203809D01*
X114802857Y-98156190D01*
X114898095Y-98156190D01*
X115040952Y-98203809D01*
X115612380Y-98775238D01*
X115612380Y-98156190D01*
X114945714Y-97299047D02*
X115612380Y-97299047D01*
X114945714Y-97727619D02*
X115469523Y-97727619D01*
X115564761Y-97680000D01*
X115612380Y-97584761D01*
X115612380Y-97441904D01*
X115564761Y-97346666D01*
X115517142Y-97299047D01*
X114945714Y-96965714D02*
X114945714Y-96584761D01*
X115612380Y-96822857D02*
X114755238Y-96822857D01*
X114660000Y-96775238D01*
X114612380Y-96680000D01*
X114612380Y-96584761D01*
X121156666Y-92546666D02*
X121156666Y-92070476D01*
X121442380Y-92641904D02*
X120442380Y-92308571D01*
X121442380Y-91975238D01*
X120442380Y-91451428D02*
X120442380Y-91260952D01*
X120490000Y-91165714D01*
X120585238Y-91070476D01*
X120775714Y-91022857D01*
X121109047Y-91022857D01*
X121299523Y-91070476D01*
X121394761Y-91165714D01*
X121442380Y-91260952D01*
X121442380Y-91451428D01*
X121394761Y-91546666D01*
X121299523Y-91641904D01*
X121109047Y-91689523D01*
X120775714Y-91689523D01*
X120585238Y-91641904D01*
X120490000Y-91546666D01*
X120442380Y-91451428D01*
X120775714Y-90165714D02*
X121442380Y-90165714D01*
X120394761Y-90403809D02*
X121109047Y-90641904D01*
X121109047Y-90022857D01*
X120775714Y-89213333D02*
X121442380Y-89213333D01*
X120394761Y-89451428D02*
X121109047Y-89689523D01*
X121109047Y-89070476D01*
X120870952Y-88546666D02*
X120823333Y-88641904D01*
X120775714Y-88689523D01*
X120680476Y-88737142D01*
X120632857Y-88737142D01*
X120537619Y-88689523D01*
X120490000Y-88641904D01*
X120442380Y-88546666D01*
X120442380Y-88356190D01*
X120490000Y-88260952D01*
X120537619Y-88213333D01*
X120632857Y-88165714D01*
X120680476Y-88165714D01*
X120775714Y-88213333D01*
X120823333Y-88260952D01*
X120870952Y-88356190D01*
X120870952Y-88546666D01*
X120918571Y-88641904D01*
X120966190Y-88689523D01*
X121061428Y-88737142D01*
X121251904Y-88737142D01*
X121347142Y-88689523D01*
X121394761Y-88641904D01*
X121442380Y-88546666D01*
X121442380Y-88356190D01*
X121394761Y-88260952D01*
X121347142Y-88213333D01*
X121251904Y-88165714D01*
X121061428Y-88165714D01*
X120966190Y-88213333D01*
X120918571Y-88260952D01*
X120870952Y-88356190D01*
X120775714Y-87308571D02*
X121442380Y-87308571D01*
X120394761Y-87546666D02*
X121109047Y-87784761D01*
X121109047Y-87165714D01*
X152537619Y-92882380D02*
X152537619Y-91882380D01*
X152870952Y-92596666D01*
X153204285Y-91882380D01*
X153204285Y-92882380D01*
X153680476Y-92882380D02*
X153680476Y-91882380D01*
X154728095Y-92787142D02*
X154680476Y-92834761D01*
X154537619Y-92882380D01*
X154442380Y-92882380D01*
X154299523Y-92834761D01*
X154204285Y-92739523D01*
X154156666Y-92644285D01*
X154109047Y-92453809D01*
X154109047Y-92310952D01*
X154156666Y-92120476D01*
X154204285Y-92025238D01*
X154299523Y-91930000D01*
X154442380Y-91882380D01*
X154537619Y-91882380D01*
X154680476Y-91930000D01*
X154728095Y-91977619D01*
X137347142Y-103357619D02*
X137394761Y-103310000D01*
X137490000Y-103262380D01*
X137728095Y-103262380D01*
X137823333Y-103310000D01*
X137870952Y-103357619D01*
X137918571Y-103452857D01*
X137918571Y-103548095D01*
X137870952Y-103690952D01*
X137299523Y-104262380D01*
X137918571Y-104262380D01*
X138537619Y-103262380D02*
X138632857Y-103262380D01*
X138728095Y-103310000D01*
X138775714Y-103357619D01*
X138823333Y-103452857D01*
X138870952Y-103643333D01*
X138870952Y-103881428D01*
X138823333Y-104071904D01*
X138775714Y-104167142D01*
X138728095Y-104214761D01*
X138632857Y-104262380D01*
X138537619Y-104262380D01*
X138442380Y-104214761D01*
X138394761Y-104167142D01*
X138347142Y-104071904D01*
X138299523Y-103881428D01*
X138299523Y-103643333D01*
X138347142Y-103452857D01*
X138394761Y-103357619D01*
X138442380Y-103310000D01*
X138537619Y-103262380D01*
X139775714Y-103262380D02*
X139299523Y-103262380D01*
X139251904Y-103738571D01*
X139299523Y-103690952D01*
X139394761Y-103643333D01*
X139632857Y-103643333D01*
X139728095Y-103690952D01*
X139775714Y-103738571D01*
X139823333Y-103833809D01*
X139823333Y-104071904D01*
X139775714Y-104167142D01*
X139728095Y-104214761D01*
X139632857Y-104262380D01*
X139394761Y-104262380D01*
X139299523Y-104214761D01*
X139251904Y-104167142D01*
X140251904Y-104262380D02*
X140251904Y-103262380D01*
X140347142Y-103881428D02*
X140632857Y-104262380D01*
X140632857Y-103595714D02*
X140251904Y-103976666D01*
X121983452Y-95292380D02*
X121412023Y-95292380D01*
X121697738Y-95292380D02*
X121697738Y-94292380D01*
X121602500Y-94435238D01*
X121507261Y-94530476D01*
X121412023Y-94578095D01*
X122840595Y-94625714D02*
X122840595Y-95292380D01*
X122412023Y-94625714D02*
X122412023Y-95149523D01*
X122459642Y-95244761D01*
X122554880Y-95292380D01*
X122697738Y-95292380D01*
X122792976Y-95244761D01*
X122840595Y-95197142D01*
X123316785Y-95292380D02*
X123316785Y-94292380D01*
X123745357Y-95292380D02*
X123745357Y-94768571D01*
X123697738Y-94673333D01*
X123602500Y-94625714D01*
X123459642Y-94625714D01*
X123364404Y-94673333D01*
X123316785Y-94720952D01*
X117766785Y-108436666D02*
X118242976Y-108436666D01*
X117671547Y-108722380D02*
X118004880Y-107722380D01*
X118338214Y-108722380D01*
X119242976Y-108627142D02*
X119195357Y-108674761D01*
X119052500Y-108722380D01*
X118957261Y-108722380D01*
X118814404Y-108674761D01*
X118719166Y-108579523D01*
X118671547Y-108484285D01*
X118623928Y-108293809D01*
X118623928Y-108150952D01*
X118671547Y-107960476D01*
X118719166Y-107865238D01*
X118814404Y-107770000D01*
X118957261Y-107722380D01*
X119052500Y-107722380D01*
X119195357Y-107770000D01*
X119242976Y-107817619D01*
X119671547Y-108722380D02*
X119671547Y-107722380D01*
X120004880Y-108436666D01*
X120338214Y-107722380D01*
X120338214Y-108722380D01*
X121290595Y-108722380D02*
X120814404Y-108722380D01*
X120814404Y-107722380D01*
X121623928Y-108341428D02*
X122385833Y-108341428D01*
X123052500Y-107722380D02*
X123147738Y-107722380D01*
X123242976Y-107770000D01*
X123290595Y-107817619D01*
X123338214Y-107912857D01*
X123385833Y-108103333D01*
X123385833Y-108341428D01*
X123338214Y-108531904D01*
X123290595Y-108627142D01*
X123242976Y-108674761D01*
X123147738Y-108722380D01*
X123052500Y-108722380D01*
X122957261Y-108674761D01*
X122909642Y-108627142D01*
X122862023Y-108531904D01*
X122814404Y-108341428D01*
X122814404Y-108103333D01*
X122862023Y-107912857D01*
X122909642Y-107817619D01*
X122957261Y-107770000D01*
X123052500Y-107722380D01*
X123957261Y-108150952D02*
X123862023Y-108103333D01*
X123814404Y-108055714D01*
X123766785Y-107960476D01*
X123766785Y-107912857D01*
X123814404Y-107817619D01*
X123862023Y-107770000D01*
X123957261Y-107722380D01*
X124147738Y-107722380D01*
X124242976Y-107770000D01*
X124290595Y-107817619D01*
X124338214Y-107912857D01*
X124338214Y-107960476D01*
X124290595Y-108055714D01*
X124242976Y-108103333D01*
X124147738Y-108150952D01*
X123957261Y-108150952D01*
X123862023Y-108198571D01*
X123814404Y-108246190D01*
X123766785Y-108341428D01*
X123766785Y-108531904D01*
X123814404Y-108627142D01*
X123862023Y-108674761D01*
X123957261Y-108722380D01*
X124147738Y-108722380D01*
X124242976Y-108674761D01*
X124290595Y-108627142D01*
X124338214Y-108531904D01*
X124338214Y-108341428D01*
X124290595Y-108246190D01*
X124242976Y-108198571D01*
X124147738Y-108150952D01*
X124957261Y-107722380D02*
X125052500Y-107722380D01*
X125147738Y-107770000D01*
X125195357Y-107817619D01*
X125242976Y-107912857D01*
X125290595Y-108103333D01*
X125290595Y-108341428D01*
X125242976Y-108531904D01*
X125195357Y-108627142D01*
X125147738Y-108674761D01*
X125052500Y-108722380D01*
X124957261Y-108722380D01*
X124862023Y-108674761D01*
X124814404Y-108627142D01*
X124766785Y-108531904D01*
X124719166Y-108341428D01*
X124719166Y-108103333D01*
X124766785Y-107912857D01*
X124814404Y-107817619D01*
X124862023Y-107770000D01*
X124957261Y-107722380D01*
X126195357Y-107722380D02*
X125719166Y-107722380D01*
X125671547Y-108198571D01*
X125719166Y-108150952D01*
X125814404Y-108103333D01*
X126052500Y-108103333D01*
X126147738Y-108150952D01*
X126195357Y-108198571D01*
X126242976Y-108293809D01*
X126242976Y-108531904D01*
X126195357Y-108627142D01*
X126147738Y-108674761D01*
X126052500Y-108722380D01*
X125814404Y-108722380D01*
X125719166Y-108674761D01*
X125671547Y-108627142D01*
X126671547Y-108341428D02*
X127433452Y-108341428D01*
X128433452Y-108722380D02*
X127862023Y-108722380D01*
X128147738Y-108722380D02*
X128147738Y-107722380D01*
X128052500Y-107865238D01*
X127957261Y-107960476D01*
X127862023Y-108008095D01*
X128909642Y-108722380D02*
X129100119Y-108722380D01*
X129195357Y-108674761D01*
X129242976Y-108627142D01*
X129338214Y-108484285D01*
X129385833Y-108293809D01*
X129385833Y-107912857D01*
X129338214Y-107817619D01*
X129290595Y-107770000D01*
X129195357Y-107722380D01*
X129004880Y-107722380D01*
X128909642Y-107770000D01*
X128862023Y-107817619D01*
X128814404Y-107912857D01*
X128814404Y-108150952D01*
X128862023Y-108246190D01*
X128909642Y-108293809D01*
X129004880Y-108341428D01*
X129195357Y-108341428D01*
X129290595Y-108293809D01*
X129338214Y-108246190D01*
X129385833Y-108150952D01*
X130004880Y-107722380D02*
X130100119Y-107722380D01*
X130195357Y-107770000D01*
X130242976Y-107817619D01*
X130290595Y-107912857D01*
X130338214Y-108103333D01*
X130338214Y-108341428D01*
X130290595Y-108531904D01*
X130242976Y-108627142D01*
X130195357Y-108674761D01*
X130100119Y-108722380D01*
X130004880Y-108722380D01*
X129909642Y-108674761D01*
X129862023Y-108627142D01*
X129814404Y-108531904D01*
X129766785Y-108341428D01*
X129766785Y-108103333D01*
X129814404Y-107912857D01*
X129862023Y-107817619D01*
X129909642Y-107770000D01*
X130004880Y-107722380D01*
X130766785Y-108341428D02*
X131528690Y-108341428D01*
X131862023Y-107722380D02*
X132433452Y-107722380D01*
X132147738Y-108722380D02*
X132147738Y-107722380D01*
X140637142Y-102692380D02*
X140065714Y-102692380D01*
X140351428Y-102692380D02*
X140351428Y-101692380D01*
X140256190Y-101835238D01*
X140160952Y-101930476D01*
X140065714Y-101978095D01*
X141065714Y-102692380D02*
X141065714Y-101692380D01*
X141637142Y-102692380D01*
X141637142Y-101692380D01*
X142589523Y-101692380D02*
X142113333Y-101692380D01*
X142065714Y-102168571D01*
X142113333Y-102120952D01*
X142208571Y-102073333D01*
X142446666Y-102073333D01*
X142541904Y-102120952D01*
X142589523Y-102168571D01*
X142637142Y-102263809D01*
X142637142Y-102501904D01*
X142589523Y-102597142D01*
X142541904Y-102644761D01*
X142446666Y-102692380D01*
X142208571Y-102692380D01*
X142113333Y-102644761D01*
X142065714Y-102597142D01*
X143208571Y-102120952D02*
X143113333Y-102073333D01*
X143065714Y-102025714D01*
X143018095Y-101930476D01*
X143018095Y-101882857D01*
X143065714Y-101787619D01*
X143113333Y-101740000D01*
X143208571Y-101692380D01*
X143399047Y-101692380D01*
X143494285Y-101740000D01*
X143541904Y-101787619D01*
X143589523Y-101882857D01*
X143589523Y-101930476D01*
X143541904Y-102025714D01*
X143494285Y-102073333D01*
X143399047Y-102120952D01*
X143208571Y-102120952D01*
X143113333Y-102168571D01*
X143065714Y-102216190D01*
X143018095Y-102311428D01*
X143018095Y-102501904D01*
X143065714Y-102597142D01*
X143113333Y-102644761D01*
X143208571Y-102692380D01*
X143399047Y-102692380D01*
X143494285Y-102644761D01*
X143541904Y-102597142D01*
X143589523Y-102501904D01*
X143589523Y-102311428D01*
X143541904Y-102216190D01*
X143494285Y-102168571D01*
X143399047Y-102120952D01*
X144541904Y-102692380D02*
X143970476Y-102692380D01*
X144256190Y-102692380D02*
X144256190Y-101692380D01*
X144160952Y-101835238D01*
X144065714Y-101930476D01*
X143970476Y-101978095D01*
X145018095Y-102692380D02*
X145208571Y-102692380D01*
X145303809Y-102644761D01*
X145351428Y-102597142D01*
X145446666Y-102454285D01*
X145494285Y-102263809D01*
X145494285Y-101882857D01*
X145446666Y-101787619D01*
X145399047Y-101740000D01*
X145303809Y-101692380D01*
X145113333Y-101692380D01*
X145018095Y-101740000D01*
X144970476Y-101787619D01*
X144922857Y-101882857D01*
X144922857Y-102120952D01*
X144970476Y-102216190D01*
X145018095Y-102263809D01*
X145113333Y-102311428D01*
X145303809Y-102311428D01*
X145399047Y-102263809D01*
X145446666Y-102216190D01*
X145494285Y-102120952D01*
X134747142Y-107132380D02*
X134175714Y-107132380D01*
X134461428Y-107132380D02*
X134461428Y-106132380D01*
X134366190Y-106275238D01*
X134270952Y-106370476D01*
X134175714Y-106418095D01*
X135175714Y-107132380D02*
X135175714Y-106132380D01*
X135747142Y-107132380D01*
X135747142Y-106132380D01*
X136699523Y-106132380D02*
X136223333Y-106132380D01*
X136175714Y-106608571D01*
X136223333Y-106560952D01*
X136318571Y-106513333D01*
X136556666Y-106513333D01*
X136651904Y-106560952D01*
X136699523Y-106608571D01*
X136747142Y-106703809D01*
X136747142Y-106941904D01*
X136699523Y-107037142D01*
X136651904Y-107084761D01*
X136556666Y-107132380D01*
X136318571Y-107132380D01*
X136223333Y-107084761D01*
X136175714Y-107037142D01*
X137318571Y-106560952D02*
X137223333Y-106513333D01*
X137175714Y-106465714D01*
X137128095Y-106370476D01*
X137128095Y-106322857D01*
X137175714Y-106227619D01*
X137223333Y-106180000D01*
X137318571Y-106132380D01*
X137509047Y-106132380D01*
X137604285Y-106180000D01*
X137651904Y-106227619D01*
X137699523Y-106322857D01*
X137699523Y-106370476D01*
X137651904Y-106465714D01*
X137604285Y-106513333D01*
X137509047Y-106560952D01*
X137318571Y-106560952D01*
X137223333Y-106608571D01*
X137175714Y-106656190D01*
X137128095Y-106751428D01*
X137128095Y-106941904D01*
X137175714Y-107037142D01*
X137223333Y-107084761D01*
X137318571Y-107132380D01*
X137509047Y-107132380D01*
X137604285Y-107084761D01*
X137651904Y-107037142D01*
X137699523Y-106941904D01*
X137699523Y-106751428D01*
X137651904Y-106656190D01*
X137604285Y-106608571D01*
X137509047Y-106560952D01*
X138651904Y-107132380D02*
X138080476Y-107132380D01*
X138366190Y-107132380D02*
X138366190Y-106132380D01*
X138270952Y-106275238D01*
X138175714Y-106370476D01*
X138080476Y-106418095D01*
X139128095Y-107132380D02*
X139318571Y-107132380D01*
X139413809Y-107084761D01*
X139461428Y-107037142D01*
X139556666Y-106894285D01*
X139604285Y-106703809D01*
X139604285Y-106322857D01*
X139556666Y-106227619D01*
X139509047Y-106180000D01*
X139413809Y-106132380D01*
X139223333Y-106132380D01*
X139128095Y-106180000D01*
X139080476Y-106227619D01*
X139032857Y-106322857D01*
X139032857Y-106560952D01*
X139080476Y-106656190D01*
X139128095Y-106703809D01*
X139223333Y-106751428D01*
X139413809Y-106751428D01*
X139509047Y-106703809D01*
X139556666Y-106656190D01*
X139604285Y-106560952D01*
X132412380Y-100432380D02*
X132412380Y-101003809D01*
X132412380Y-100718095D02*
X131412380Y-100718095D01*
X131555238Y-100813333D01*
X131650476Y-100908571D01*
X131698095Y-101003809D01*
X131745714Y-99575238D02*
X132412380Y-99575238D01*
X131745714Y-100003809D02*
X132269523Y-100003809D01*
X132364761Y-99956190D01*
X132412380Y-99860952D01*
X132412380Y-99718095D01*
X132364761Y-99622857D01*
X132317142Y-99575238D01*
X131745714Y-99241904D02*
X131745714Y-98860952D01*
X132412380Y-99099047D02*
X131555238Y-99099047D01*
X131460000Y-99051428D01*
X131412380Y-98956190D01*
X131412380Y-98860952D01*
X113142380Y-107049047D02*
X112142380Y-107049047D01*
X112856666Y-106715714D01*
X112142380Y-106382380D01*
X113142380Y-106382380D01*
X112142380Y-106049047D02*
X112142380Y-105477619D01*
X113142380Y-105763333D02*
X112142380Y-105763333D01*
X112142380Y-105239523D02*
X112142380Y-104620476D01*
X112523333Y-104953809D01*
X112523333Y-104810952D01*
X112570952Y-104715714D01*
X112618571Y-104668095D01*
X112713809Y-104620476D01*
X112951904Y-104620476D01*
X113047142Y-104668095D01*
X113094761Y-104715714D01*
X113142380Y-104810952D01*
X113142380Y-105096666D01*
X113094761Y-105191904D01*
X113047142Y-105239523D01*
X112142380Y-103763333D02*
X112142380Y-103953809D01*
X112190000Y-104049047D01*
X112237619Y-104096666D01*
X112380476Y-104191904D01*
X112570952Y-104239523D01*
X112951904Y-104239523D01*
X113047142Y-104191904D01*
X113094761Y-104144285D01*
X113142380Y-104049047D01*
X113142380Y-103858571D01*
X113094761Y-103763333D01*
X113047142Y-103715714D01*
X112951904Y-103668095D01*
X112713809Y-103668095D01*
X112618571Y-103715714D01*
X112570952Y-103763333D01*
X112523333Y-103858571D01*
X112523333Y-104049047D01*
X112570952Y-104144285D01*
X112618571Y-104191904D01*
X112713809Y-104239523D01*
X112142380Y-103049047D02*
X112142380Y-102953809D01*
X112190000Y-102858571D01*
X112237619Y-102810952D01*
X112332857Y-102763333D01*
X112523333Y-102715714D01*
X112761428Y-102715714D01*
X112951904Y-102763333D01*
X113047142Y-102810952D01*
X113094761Y-102858571D01*
X113142380Y-102953809D01*
X113142380Y-103049047D01*
X113094761Y-103144285D01*
X113047142Y-103191904D01*
X112951904Y-103239523D01*
X112761428Y-103287142D01*
X112523333Y-103287142D01*
X112332857Y-103239523D01*
X112237619Y-103191904D01*
X112190000Y-103144285D01*
X112142380Y-103049047D01*
X112570952Y-102144285D02*
X112523333Y-102239523D01*
X112475714Y-102287142D01*
X112380476Y-102334761D01*
X112332857Y-102334761D01*
X112237619Y-102287142D01*
X112190000Y-102239523D01*
X112142380Y-102144285D01*
X112142380Y-101953809D01*
X112190000Y-101858571D01*
X112237619Y-101810952D01*
X112332857Y-101763333D01*
X112380476Y-101763333D01*
X112475714Y-101810952D01*
X112523333Y-101858571D01*
X112570952Y-101953809D01*
X112570952Y-102144285D01*
X112618571Y-102239523D01*
X112666190Y-102287142D01*
X112761428Y-102334761D01*
X112951904Y-102334761D01*
X113047142Y-102287142D01*
X113094761Y-102239523D01*
X113142380Y-102144285D01*
X113142380Y-101953809D01*
X113094761Y-101858571D01*
X113047142Y-101810952D01*
X112951904Y-101763333D01*
X112761428Y-101763333D01*
X112666190Y-101810952D01*
X112618571Y-101858571D01*
X112570952Y-101953809D01*
X122567619Y-93368095D02*
X122520000Y-93320476D01*
X122472380Y-93225238D01*
X122472380Y-92987142D01*
X122520000Y-92891904D01*
X122567619Y-92844285D01*
X122662857Y-92796666D01*
X122758095Y-92796666D01*
X122900952Y-92844285D01*
X123472380Y-93415714D01*
X123472380Y-92796666D01*
X122567619Y-92415714D02*
X122520000Y-92368095D01*
X122472380Y-92272857D01*
X122472380Y-92034761D01*
X122520000Y-91939523D01*
X122567619Y-91891904D01*
X122662857Y-91844285D01*
X122758095Y-91844285D01*
X122900952Y-91891904D01*
X123472380Y-92463333D01*
X123472380Y-91844285D01*
X122472380Y-91225238D02*
X122472380Y-91130000D01*
X122520000Y-91034761D01*
X122567619Y-90987142D01*
X122662857Y-90939523D01*
X122853333Y-90891904D01*
X123091428Y-90891904D01*
X123281904Y-90939523D01*
X123377142Y-90987142D01*
X123424761Y-91034761D01*
X123472380Y-91130000D01*
X123472380Y-91225238D01*
X123424761Y-91320476D01*
X123377142Y-91368095D01*
X123281904Y-91415714D01*
X123091428Y-91463333D01*
X122853333Y-91463333D01*
X122662857Y-91415714D01*
X122567619Y-91368095D01*
X122520000Y-91320476D01*
X122472380Y-91225238D01*
X123472380Y-89891904D02*
X122996190Y-90225238D01*
X123472380Y-90463333D02*
X122472380Y-90463333D01*
X122472380Y-90082380D01*
X122520000Y-89987142D01*
X122567619Y-89939523D01*
X122662857Y-89891904D01*
X122805714Y-89891904D01*
X122900952Y-89939523D01*
X122948571Y-89987142D01*
X122996190Y-90082380D01*
X122996190Y-90463333D01*
X132992380Y-93341904D02*
X131992380Y-93341904D01*
X132706666Y-93008571D01*
X131992380Y-92675238D01*
X132992380Y-92675238D01*
X132992380Y-92056190D02*
X132944761Y-92151428D01*
X132897142Y-92199047D01*
X132801904Y-92246666D01*
X132516190Y-92246666D01*
X132420952Y-92199047D01*
X132373333Y-92151428D01*
X132325714Y-92056190D01*
X132325714Y-91913333D01*
X132373333Y-91818095D01*
X132420952Y-91770476D01*
X132516190Y-91722857D01*
X132801904Y-91722857D01*
X132897142Y-91770476D01*
X132944761Y-91818095D01*
X132992380Y-91913333D01*
X132992380Y-92056190D01*
X132992380Y-91294285D02*
X132325714Y-91294285D01*
X132420952Y-91294285D02*
X132373333Y-91246666D01*
X132325714Y-91151428D01*
X132325714Y-91008571D01*
X132373333Y-90913333D01*
X132468571Y-90865714D01*
X132992380Y-90865714D01*
X132468571Y-90865714D02*
X132373333Y-90818095D01*
X132325714Y-90722857D01*
X132325714Y-90580000D01*
X132373333Y-90484761D01*
X132468571Y-90437142D01*
X132992380Y-90437142D01*
X132944761Y-89580000D02*
X132992380Y-89675238D01*
X132992380Y-89865714D01*
X132944761Y-89960952D01*
X132849523Y-90008571D01*
X132468571Y-90008571D01*
X132373333Y-89960952D01*
X132325714Y-89865714D01*
X132325714Y-89675238D01*
X132373333Y-89580000D01*
X132468571Y-89532380D01*
X132563809Y-89532380D01*
X132659047Y-90008571D01*
X132325714Y-89103809D02*
X132992380Y-89103809D01*
X132420952Y-89103809D02*
X132373333Y-89056190D01*
X132325714Y-88960952D01*
X132325714Y-88818095D01*
X132373333Y-88722857D01*
X132468571Y-88675238D01*
X132992380Y-88675238D01*
X132325714Y-88341904D02*
X132325714Y-87960952D01*
X131992380Y-88199047D02*
X132849523Y-88199047D01*
X132944761Y-88151428D01*
X132992380Y-88056190D01*
X132992380Y-87960952D01*
X132992380Y-87199047D02*
X132468571Y-87199047D01*
X132373333Y-87246666D01*
X132325714Y-87341904D01*
X132325714Y-87532380D01*
X132373333Y-87627619D01*
X132944761Y-87199047D02*
X132992380Y-87294285D01*
X132992380Y-87532380D01*
X132944761Y-87627619D01*
X132849523Y-87675238D01*
X132754285Y-87675238D01*
X132659047Y-87627619D01*
X132611428Y-87532380D01*
X132611428Y-87294285D01*
X132563809Y-87199047D01*
X132992380Y-86722857D02*
X132325714Y-86722857D01*
X132516190Y-86722857D02*
X132420952Y-86675238D01*
X132373333Y-86627619D01*
X132325714Y-86532380D01*
X132325714Y-86437142D01*
X132325714Y-86199047D02*
X132992380Y-85960952D01*
X132325714Y-85722857D02*
X132992380Y-85960952D01*
X133230476Y-86056190D01*
X133278095Y-86103809D01*
X133325714Y-86199047D01*
X130894166Y-97282380D02*
X131465595Y-97282380D01*
X131179880Y-98282380D02*
X131179880Y-97282380D01*
X131798928Y-98282380D02*
X131798928Y-97282380D01*
X132227500Y-98282380D02*
X132227500Y-97758571D01*
X132179880Y-97663333D01*
X132084642Y-97615714D01*
X131941785Y-97615714D01*
X131846547Y-97663333D01*
X131798928Y-97710952D01*
X133084642Y-98234761D02*
X132989404Y-98282380D01*
X132798928Y-98282380D01*
X132703690Y-98234761D01*
X132656071Y-98139523D01*
X132656071Y-97758571D01*
X132703690Y-97663333D01*
X132798928Y-97615714D01*
X132989404Y-97615714D01*
X133084642Y-97663333D01*
X133132261Y-97758571D01*
X133132261Y-97853809D01*
X132656071Y-97949047D01*
X133560833Y-98282380D02*
X133560833Y-97615714D01*
X133560833Y-97806190D02*
X133608452Y-97710952D01*
X133656071Y-97663333D01*
X133751309Y-97615714D01*
X133846547Y-97615714D01*
X134179880Y-98282380D02*
X134179880Y-97615714D01*
X134179880Y-97710952D02*
X134227500Y-97663333D01*
X134322738Y-97615714D01*
X134465595Y-97615714D01*
X134560833Y-97663333D01*
X134608452Y-97758571D01*
X134608452Y-98282380D01*
X134608452Y-97758571D02*
X134656071Y-97663333D01*
X134751309Y-97615714D01*
X134894166Y-97615714D01*
X134989404Y-97663333D01*
X135037023Y-97758571D01*
X135037023Y-98282380D01*
X135513214Y-98282380D02*
X135513214Y-97615714D01*
X135513214Y-97282380D02*
X135465595Y-97330000D01*
X135513214Y-97377619D01*
X135560833Y-97330000D01*
X135513214Y-97282380D01*
X135513214Y-97377619D01*
X135941785Y-98234761D02*
X136037023Y-98282380D01*
X136227500Y-98282380D01*
X136322738Y-98234761D01*
X136370357Y-98139523D01*
X136370357Y-98091904D01*
X136322738Y-97996666D01*
X136227500Y-97949047D01*
X136084642Y-97949047D01*
X135989404Y-97901428D01*
X135941785Y-97806190D01*
X135941785Y-97758571D01*
X135989404Y-97663333D01*
X136084642Y-97615714D01*
X136227500Y-97615714D01*
X136322738Y-97663333D01*
X136656071Y-97615714D02*
X137037023Y-97615714D01*
X136798928Y-97282380D02*
X136798928Y-98139523D01*
X136846547Y-98234761D01*
X136941785Y-98282380D01*
X137037023Y-98282380D01*
X137513214Y-98282380D02*
X137417976Y-98234761D01*
X137370357Y-98187142D01*
X137322738Y-98091904D01*
X137322738Y-97806190D01*
X137370357Y-97710952D01*
X137417976Y-97663333D01*
X137513214Y-97615714D01*
X137656071Y-97615714D01*
X137751309Y-97663333D01*
X137798928Y-97710952D01*
X137846547Y-97806190D01*
X137846547Y-98091904D01*
X137798928Y-98187142D01*
X137751309Y-98234761D01*
X137656071Y-98282380D01*
X137513214Y-98282380D01*
X138275119Y-98282380D02*
X138275119Y-97615714D01*
X138275119Y-97806190D02*
X138322738Y-97710952D01*
X138370357Y-97663333D01*
X138465595Y-97615714D01*
X138560833Y-97615714D01*
X141472380Y-97362738D02*
X141472380Y-97934166D01*
X141472380Y-97648452D02*
X140472380Y-97648452D01*
X140615238Y-97743690D01*
X140710476Y-97838928D01*
X140758095Y-97934166D01*
X140472380Y-96743690D02*
X140472380Y-96648452D01*
X140520000Y-96553214D01*
X140567619Y-96505595D01*
X140662857Y-96457976D01*
X140853333Y-96410357D01*
X141091428Y-96410357D01*
X141281904Y-96457976D01*
X141377142Y-96505595D01*
X141424761Y-96553214D01*
X141472380Y-96648452D01*
X141472380Y-96743690D01*
X141424761Y-96838928D01*
X141377142Y-96886547D01*
X141281904Y-96934166D01*
X141091428Y-96981785D01*
X140853333Y-96981785D01*
X140662857Y-96934166D01*
X140567619Y-96886547D01*
X140520000Y-96838928D01*
X140472380Y-96743690D01*
X141472380Y-95981785D02*
X140472380Y-95981785D01*
X141091428Y-95886547D02*
X141472380Y-95600833D01*
X140805714Y-95600833D02*
X141186666Y-95981785D01*
X136272380Y-92375238D02*
X136272380Y-92946666D01*
X136272380Y-92660952D02*
X135272380Y-92660952D01*
X135415238Y-92756190D01*
X135510476Y-92851428D01*
X135558095Y-92946666D01*
X135272380Y-91756190D02*
X135272380Y-91660952D01*
X135320000Y-91565714D01*
X135367619Y-91518095D01*
X135462857Y-91470476D01*
X135653333Y-91422857D01*
X135891428Y-91422857D01*
X136081904Y-91470476D01*
X136177142Y-91518095D01*
X136224761Y-91565714D01*
X136272380Y-91660952D01*
X136272380Y-91756190D01*
X136224761Y-91851428D01*
X136177142Y-91899047D01*
X136081904Y-91946666D01*
X135891428Y-91994285D01*
X135653333Y-91994285D01*
X135462857Y-91946666D01*
X135367619Y-91899047D01*
X135320000Y-91851428D01*
X135272380Y-91756190D01*
X136272380Y-90994285D02*
X135272380Y-90994285D01*
X135891428Y-90899047D02*
X136272380Y-90613333D01*
X135605714Y-90613333D02*
X135986666Y-90994285D01*
X161683452Y-94462380D02*
X161112023Y-94462380D01*
X161397738Y-94462380D02*
X161397738Y-93462380D01*
X161302500Y-93605238D01*
X161207261Y-93700476D01*
X161112023Y-93748095D01*
X162112023Y-94462380D02*
X162112023Y-93462380D01*
X162207261Y-94081428D02*
X162492976Y-94462380D01*
X162492976Y-93795714D02*
X162112023Y-94176666D01*
X120612380Y-88975238D02*
X120612380Y-89546666D01*
X120612380Y-89260952D02*
X119612380Y-89260952D01*
X119755238Y-89356190D01*
X119850476Y-89451428D01*
X119898095Y-89546666D01*
X119612380Y-88356190D02*
X119612380Y-88260952D01*
X119660000Y-88165714D01*
X119707619Y-88118095D01*
X119802857Y-88070476D01*
X119993333Y-88022857D01*
X120231428Y-88022857D01*
X120421904Y-88070476D01*
X120517142Y-88118095D01*
X120564761Y-88165714D01*
X120612380Y-88260952D01*
X120612380Y-88356190D01*
X120564761Y-88451428D01*
X120517142Y-88499047D01*
X120421904Y-88546666D01*
X120231428Y-88594285D01*
X119993333Y-88594285D01*
X119802857Y-88546666D01*
X119707619Y-88499047D01*
X119660000Y-88451428D01*
X119612380Y-88356190D01*
X120612380Y-87594285D02*
X119612380Y-87594285D01*
X120231428Y-87499047D02*
X120612380Y-87213333D01*
X119945714Y-87213333D02*
X120326666Y-87594285D01*
X151812380Y-104465714D02*
X151812380Y-105037142D01*
X151812380Y-104751428D02*
X150812380Y-104751428D01*
X150955238Y-104846666D01*
X151050476Y-104941904D01*
X151098095Y-105037142D01*
X151812380Y-104037142D02*
X150812380Y-104037142D01*
X151526666Y-103703809D01*
X150812380Y-103370476D01*
X151812380Y-103370476D01*
X110585238Y-101097619D02*
X110632857Y-101050000D01*
X110728095Y-101002380D01*
X110966190Y-101002380D01*
X111061428Y-101050000D01*
X111109047Y-101097619D01*
X111156666Y-101192857D01*
X111156666Y-101288095D01*
X111109047Y-101430952D01*
X110537619Y-102002380D01*
X111156666Y-102002380D01*
X111585238Y-101907142D02*
X111632857Y-101954761D01*
X111585238Y-102002380D01*
X111537619Y-101954761D01*
X111585238Y-101907142D01*
X111585238Y-102002380D01*
X111966190Y-101002380D02*
X112632857Y-101002380D01*
X112204285Y-102002380D01*
X113013809Y-102002380D02*
X113013809Y-101002380D01*
X113109047Y-101621428D02*
X113394761Y-102002380D01*
X113394761Y-101335714D02*
X113013809Y-101716666D01*
X110328095Y-95882380D02*
X109851904Y-95882380D01*
X109851904Y-94882380D01*
X110661428Y-95358571D02*
X110994761Y-95358571D01*
X111137619Y-95882380D02*
X110661428Y-95882380D01*
X110661428Y-94882380D01*
X111137619Y-94882380D01*
X111566190Y-95882380D02*
X111566190Y-94882380D01*
X111804285Y-94882380D01*
X111947142Y-94930000D01*
X112042380Y-95025238D01*
X112090000Y-95120476D01*
X112137619Y-95310952D01*
X112137619Y-95453809D01*
X112090000Y-95644285D01*
X112042380Y-95739523D01*
X111947142Y-95834761D01*
X111804285Y-95882380D01*
X111566190Y-95882380D01*
X112566190Y-95501428D02*
X113328095Y-95501428D01*
X112947142Y-95882380D02*
X112947142Y-95120476D01*
X110328095Y-89382380D02*
X109851904Y-89382380D01*
X109851904Y-88382380D01*
X110661428Y-88858571D02*
X110994761Y-88858571D01*
X111137619Y-89382380D02*
X110661428Y-89382380D01*
X110661428Y-88382380D01*
X111137619Y-88382380D01*
X111566190Y-89382380D02*
X111566190Y-88382380D01*
X111804285Y-88382380D01*
X111947142Y-88430000D01*
X112042380Y-88525238D01*
X112090000Y-88620476D01*
X112137619Y-88810952D01*
X112137619Y-88953809D01*
X112090000Y-89144285D01*
X112042380Y-89239523D01*
X111947142Y-89334761D01*
X111804285Y-89382380D01*
X111566190Y-89382380D01*
X112566190Y-89001428D02*
X113328095Y-89001428D01*
X149709047Y-102426666D02*
X150185238Y-102426666D01*
X149613809Y-102712380D02*
X149947142Y-101712380D01*
X150280476Y-102712380D01*
X150470952Y-101712380D02*
X151042380Y-101712380D01*
X150756666Y-102712380D02*
X150756666Y-101712380D01*
X151232857Y-102045714D02*
X151613809Y-102045714D01*
X151375714Y-101712380D02*
X151375714Y-102569523D01*
X151423333Y-102664761D01*
X151518571Y-102712380D01*
X151613809Y-102712380D01*
X151947142Y-102712380D02*
X151947142Y-102045714D01*
X151947142Y-101712380D02*
X151899523Y-101760000D01*
X151947142Y-101807619D01*
X151994761Y-101760000D01*
X151947142Y-101712380D01*
X151947142Y-101807619D01*
X152423333Y-102045714D02*
X152423333Y-102712380D01*
X152423333Y-102140952D02*
X152470952Y-102093333D01*
X152566190Y-102045714D01*
X152709047Y-102045714D01*
X152804285Y-102093333D01*
X152851904Y-102188571D01*
X152851904Y-102712380D01*
X153232857Y-102045714D02*
X153470952Y-102712380D01*
X153709047Y-102045714D02*
X153470952Y-102712380D01*
X153375714Y-102950476D01*
X153328095Y-102998095D01*
X153232857Y-103045714D01*
X154613809Y-102712380D02*
X154042380Y-102712380D01*
X154328095Y-102712380D02*
X154328095Y-101712380D01*
X154232857Y-101855238D01*
X154137619Y-101950476D01*
X154042380Y-101998095D01*
X155470952Y-101712380D02*
X155280476Y-101712380D01*
X155185238Y-101760000D01*
X155137619Y-101807619D01*
X155042380Y-101950476D01*
X154994761Y-102140952D01*
X154994761Y-102521904D01*
X155042380Y-102617142D01*
X155090000Y-102664761D01*
X155185238Y-102712380D01*
X155375714Y-102712380D01*
X155470952Y-102664761D01*
X155518571Y-102617142D01*
X155566190Y-102521904D01*
X155566190Y-102283809D01*
X155518571Y-102188571D01*
X155470952Y-102140952D01*
X155375714Y-102093333D01*
X155185238Y-102093333D01*
X155090000Y-102140952D01*
X155042380Y-102188571D01*
X154994761Y-102283809D01*
X156518571Y-102712380D02*
X155947142Y-102712380D01*
X156232857Y-102712380D02*
X156232857Y-101712380D01*
X156137619Y-101855238D01*
X156042380Y-101950476D01*
X155947142Y-101998095D01*
X157375714Y-102045714D02*
X157375714Y-102712380D01*
X157137619Y-101664761D02*
X156899523Y-102379047D01*
X157518571Y-102379047D01*
X181349523Y-96482380D02*
X181349523Y-95482380D01*
X181682857Y-96196666D01*
X182016190Y-95482380D01*
X182016190Y-96482380D01*
X182492380Y-96482380D02*
X182492380Y-95482380D01*
X183540000Y-96387142D02*
X183492380Y-96434761D01*
X183349523Y-96482380D01*
X183254285Y-96482380D01*
X183111428Y-96434761D01*
X183016190Y-96339523D01*
X182968571Y-96244285D01*
X182920952Y-96053809D01*
X182920952Y-95910952D01*
X182968571Y-95720476D01*
X183016190Y-95625238D01*
X183111428Y-95530000D01*
X183254285Y-95482380D01*
X183349523Y-95482380D01*
X183492380Y-95530000D01*
X183540000Y-95577619D01*
X183968571Y-96101428D02*
X184730476Y-96101428D01*
X181349523Y-101582380D02*
X181349523Y-100582380D01*
X181682857Y-101296666D01*
X182016190Y-100582380D01*
X182016190Y-101582380D01*
X182492380Y-101582380D02*
X182492380Y-100582380D01*
X183540000Y-101487142D02*
X183492380Y-101534761D01*
X183349523Y-101582380D01*
X183254285Y-101582380D01*
X183111428Y-101534761D01*
X183016190Y-101439523D01*
X182968571Y-101344285D01*
X182920952Y-101153809D01*
X182920952Y-101010952D01*
X182968571Y-100820476D01*
X183016190Y-100725238D01*
X183111428Y-100630000D01*
X183254285Y-100582380D01*
X183349523Y-100582380D01*
X183492380Y-100630000D01*
X183540000Y-100677619D01*
X183968571Y-101201428D02*
X184730476Y-101201428D01*
X184349523Y-101582380D02*
X184349523Y-100820476D01*
X166633452Y-90262380D02*
X166062023Y-90262380D01*
X166347738Y-90262380D02*
X166347738Y-89262380D01*
X166252500Y-89405238D01*
X166157261Y-89500476D01*
X166062023Y-89548095D01*
X167062023Y-90262380D02*
X167062023Y-89262380D01*
X167157261Y-89881428D02*
X167442976Y-90262380D01*
X167442976Y-89595714D02*
X167062023Y-89976666D01*
X117942380Y-100622857D02*
X117942380Y-101194285D01*
X117942380Y-100908571D02*
X116942380Y-100908571D01*
X117085238Y-101003809D01*
X117180476Y-101099047D01*
X117228095Y-101194285D01*
X117942380Y-100194285D02*
X116942380Y-100194285D01*
X117942380Y-99622857D01*
X116942380Y-99622857D01*
X116942380Y-98670476D02*
X116942380Y-99146666D01*
X117418571Y-99194285D01*
X117370952Y-99146666D01*
X117323333Y-99051428D01*
X117323333Y-98813333D01*
X117370952Y-98718095D01*
X117418571Y-98670476D01*
X117513809Y-98622857D01*
X117751904Y-98622857D01*
X117847142Y-98670476D01*
X117894761Y-98718095D01*
X117942380Y-98813333D01*
X117942380Y-99051428D01*
X117894761Y-99146666D01*
X117847142Y-99194285D01*
X117370952Y-98051428D02*
X117323333Y-98146666D01*
X117275714Y-98194285D01*
X117180476Y-98241904D01*
X117132857Y-98241904D01*
X117037619Y-98194285D01*
X116990000Y-98146666D01*
X116942380Y-98051428D01*
X116942380Y-97860952D01*
X116990000Y-97765714D01*
X117037619Y-97718095D01*
X117132857Y-97670476D01*
X117180476Y-97670476D01*
X117275714Y-97718095D01*
X117323333Y-97765714D01*
X117370952Y-97860952D01*
X117370952Y-98051428D01*
X117418571Y-98146666D01*
X117466190Y-98194285D01*
X117561428Y-98241904D01*
X117751904Y-98241904D01*
X117847142Y-98194285D01*
X117894761Y-98146666D01*
X117942380Y-98051428D01*
X117942380Y-97860952D01*
X117894761Y-97765714D01*
X117847142Y-97718095D01*
X117751904Y-97670476D01*
X117561428Y-97670476D01*
X117466190Y-97718095D01*
X117418571Y-97765714D01*
X117370952Y-97860952D01*
X117942380Y-96718095D02*
X117942380Y-97289523D01*
X117942380Y-97003809D02*
X116942380Y-97003809D01*
X117085238Y-97099047D01*
X117180476Y-97194285D01*
X117228095Y-97289523D01*
X117942380Y-96241904D02*
X117942380Y-96051428D01*
X117894761Y-95956190D01*
X117847142Y-95908571D01*
X117704285Y-95813333D01*
X117513809Y-95765714D01*
X117132857Y-95765714D01*
X117037619Y-95813333D01*
X116990000Y-95860952D01*
X116942380Y-95956190D01*
X116942380Y-96146666D01*
X116990000Y-96241904D01*
X117037619Y-96289523D01*
X117132857Y-96337142D01*
X117370952Y-96337142D01*
X117466190Y-96289523D01*
X117513809Y-96241904D01*
X117561428Y-96146666D01*
X117561428Y-95956190D01*
X117513809Y-95860952D01*
X117466190Y-95813333D01*
X117370952Y-95765714D01*
X162612380Y-98851428D02*
X162612380Y-99422857D01*
X162612380Y-99137142D02*
X161612380Y-99137142D01*
X161755238Y-99232380D01*
X161850476Y-99327619D01*
X161898095Y-99422857D01*
X161612380Y-98232380D02*
X161612380Y-98137142D01*
X161660000Y-98041904D01*
X161707619Y-97994285D01*
X161802857Y-97946666D01*
X161993333Y-97899047D01*
X162231428Y-97899047D01*
X162421904Y-97946666D01*
X162517142Y-97994285D01*
X162564761Y-98041904D01*
X162612380Y-98137142D01*
X162612380Y-98232380D01*
X162564761Y-98327619D01*
X162517142Y-98375238D01*
X162421904Y-98422857D01*
X162231428Y-98470476D01*
X161993333Y-98470476D01*
X161802857Y-98422857D01*
X161707619Y-98375238D01*
X161660000Y-98327619D01*
X161612380Y-98232380D01*
X161612380Y-97280000D02*
X161612380Y-97184761D01*
X161660000Y-97089523D01*
X161707619Y-97041904D01*
X161802857Y-96994285D01*
X161993333Y-96946666D01*
X162231428Y-96946666D01*
X162421904Y-96994285D01*
X162517142Y-97041904D01*
X162564761Y-97089523D01*
X162612380Y-97184761D01*
X162612380Y-97280000D01*
X162564761Y-97375238D01*
X162517142Y-97422857D01*
X162421904Y-97470476D01*
X162231428Y-97518095D01*
X161993333Y-97518095D01*
X161802857Y-97470476D01*
X161707619Y-97422857D01*
X161660000Y-97375238D01*
X161612380Y-97280000D01*
X162612380Y-96518095D02*
X161612380Y-96518095D01*
X162231428Y-96422857D02*
X162612380Y-96137142D01*
X161945714Y-96137142D02*
X162326666Y-96518095D01*
X161272380Y-100562738D02*
X161272380Y-101134166D01*
X161272380Y-100848452D02*
X160272380Y-100848452D01*
X160415238Y-100943690D01*
X160510476Y-101038928D01*
X160558095Y-101134166D01*
X160272380Y-99943690D02*
X160272380Y-99848452D01*
X160320000Y-99753214D01*
X160367619Y-99705595D01*
X160462857Y-99657976D01*
X160653333Y-99610357D01*
X160891428Y-99610357D01*
X161081904Y-99657976D01*
X161177142Y-99705595D01*
X161224761Y-99753214D01*
X161272380Y-99848452D01*
X161272380Y-99943690D01*
X161224761Y-100038928D01*
X161177142Y-100086547D01*
X161081904Y-100134166D01*
X160891428Y-100181785D01*
X160653333Y-100181785D01*
X160462857Y-100134166D01*
X160367619Y-100086547D01*
X160320000Y-100038928D01*
X160272380Y-99943690D01*
X161272380Y-99181785D02*
X160272380Y-99181785D01*
X160891428Y-99086547D02*
X161272380Y-98800833D01*
X160605714Y-98800833D02*
X160986666Y-99181785D01*
X113290000Y-105497619D02*
X113337619Y-105450000D01*
X113432857Y-105402380D01*
X113670952Y-105402380D01*
X113766190Y-105450000D01*
X113813809Y-105497619D01*
X113861428Y-105592857D01*
X113861428Y-105688095D01*
X113813809Y-105830952D01*
X113242380Y-106402380D01*
X113861428Y-106402380D01*
X114242380Y-105497619D02*
X114290000Y-105450000D01*
X114385238Y-105402380D01*
X114623333Y-105402380D01*
X114718571Y-105450000D01*
X114766190Y-105497619D01*
X114813809Y-105592857D01*
X114813809Y-105688095D01*
X114766190Y-105830952D01*
X114194761Y-106402380D01*
X114813809Y-106402380D01*
X115670952Y-105735714D02*
X115670952Y-106402380D01*
X115242380Y-105735714D02*
X115242380Y-106259523D01*
X115290000Y-106354761D01*
X115385238Y-106402380D01*
X115528095Y-106402380D01*
X115623333Y-106354761D01*
X115670952Y-106307142D01*
X116004285Y-105735714D02*
X116385238Y-105735714D01*
X116147142Y-106402380D02*
X116147142Y-105545238D01*
X116194761Y-105450000D01*
X116290000Y-105402380D01*
X116385238Y-105402380D01*
X150877142Y-93466285D02*
X150924761Y-93418666D01*
X150972380Y-93466285D01*
X150924761Y-93513904D01*
X150877142Y-93466285D01*
X150972380Y-93466285D01*
X150972380Y-92466285D02*
X150972380Y-93037714D01*
X150972380Y-92752000D02*
X149972380Y-92752000D01*
X150115238Y-92847238D01*
X150210476Y-92942476D01*
X150258095Y-93037714D01*
X150305714Y-91609142D02*
X150972380Y-91609142D01*
X150305714Y-92037714D02*
X150829523Y-92037714D01*
X150924761Y-91990095D01*
X150972380Y-91894857D01*
X150972380Y-91752000D01*
X150924761Y-91656761D01*
X150877142Y-91609142D01*
X150305714Y-91275809D02*
X150305714Y-90894857D01*
X150972380Y-91132952D02*
X150115238Y-91132952D01*
X150020000Y-91085333D01*
X149972380Y-90990095D01*
X149972380Y-90894857D01*
X149332380Y-93196071D02*
X149332380Y-93767500D01*
X149332380Y-93481785D02*
X148332380Y-93481785D01*
X148475238Y-93577023D01*
X148570476Y-93672261D01*
X148618095Y-93767500D01*
X148332380Y-92577023D02*
X148332380Y-92481785D01*
X148380000Y-92386547D01*
X148427619Y-92338928D01*
X148522857Y-92291309D01*
X148713333Y-92243690D01*
X148951428Y-92243690D01*
X149141904Y-92291309D01*
X149237142Y-92338928D01*
X149284761Y-92386547D01*
X149332380Y-92481785D01*
X149332380Y-92577023D01*
X149284761Y-92672261D01*
X149237142Y-92719880D01*
X149141904Y-92767500D01*
X148951428Y-92815119D01*
X148713333Y-92815119D01*
X148522857Y-92767500D01*
X148427619Y-92719880D01*
X148380000Y-92672261D01*
X148332380Y-92577023D01*
X148665714Y-91386547D02*
X149332380Y-91386547D01*
X148665714Y-91815119D02*
X149189523Y-91815119D01*
X149284761Y-91767500D01*
X149332380Y-91672261D01*
X149332380Y-91529404D01*
X149284761Y-91434166D01*
X149237142Y-91386547D01*
X148665714Y-91053214D02*
X148665714Y-90672261D01*
X149332380Y-90910357D02*
X148475238Y-90910357D01*
X148380000Y-90862738D01*
X148332380Y-90767500D01*
X148332380Y-90672261D01*
X166944761Y-93902380D02*
X166373333Y-93902380D01*
X166659047Y-93902380D02*
X166659047Y-92902380D01*
X166563809Y-93045238D01*
X166468571Y-93140476D01*
X166373333Y-93188095D01*
X167563809Y-92902380D02*
X167659047Y-92902380D01*
X167754285Y-92950000D01*
X167801904Y-92997619D01*
X167849523Y-93092857D01*
X167897142Y-93283333D01*
X167897142Y-93521428D01*
X167849523Y-93711904D01*
X167801904Y-93807142D01*
X167754285Y-93854761D01*
X167659047Y-93902380D01*
X167563809Y-93902380D01*
X167468571Y-93854761D01*
X167420952Y-93807142D01*
X167373333Y-93711904D01*
X167325714Y-93521428D01*
X167325714Y-93283333D01*
X167373333Y-93092857D01*
X167420952Y-92997619D01*
X167468571Y-92950000D01*
X167563809Y-92902380D01*
X168325714Y-93902380D02*
X168325714Y-92902380D01*
X168420952Y-93521428D02*
X168706666Y-93902380D01*
X168706666Y-93235714D02*
X168325714Y-93616666D01*
X169062380Y-92738928D02*
X169062380Y-93310357D01*
X169062380Y-93024642D02*
X168062380Y-93024642D01*
X168205238Y-93119880D01*
X168300476Y-93215119D01*
X168348095Y-93310357D01*
X168062380Y-92119880D02*
X168062380Y-92024642D01*
X168110000Y-91929404D01*
X168157619Y-91881785D01*
X168252857Y-91834166D01*
X168443333Y-91786547D01*
X168681428Y-91786547D01*
X168871904Y-91834166D01*
X168967142Y-91881785D01*
X169014761Y-91929404D01*
X169062380Y-92024642D01*
X169062380Y-92119880D01*
X169014761Y-92215119D01*
X168967142Y-92262738D01*
X168871904Y-92310357D01*
X168681428Y-92357976D01*
X168443333Y-92357976D01*
X168252857Y-92310357D01*
X168157619Y-92262738D01*
X168110000Y-92215119D01*
X168062380Y-92119880D01*
X168062380Y-91167500D02*
X168062380Y-91072261D01*
X168110000Y-90977023D01*
X168157619Y-90929404D01*
X168252857Y-90881785D01*
X168443333Y-90834166D01*
X168681428Y-90834166D01*
X168871904Y-90881785D01*
X168967142Y-90929404D01*
X169014761Y-90977023D01*
X169062380Y-91072261D01*
X169062380Y-91167500D01*
X169014761Y-91262738D01*
X168967142Y-91310357D01*
X168871904Y-91357976D01*
X168681428Y-91405595D01*
X168443333Y-91405595D01*
X168252857Y-91357976D01*
X168157619Y-91310357D01*
X168110000Y-91262738D01*
X168062380Y-91167500D01*
X169062380Y-90405595D02*
X168062380Y-90405595D01*
X168681428Y-90310357D02*
X169062380Y-90024642D01*
X168395714Y-90024642D02*
X168776666Y-90405595D01*
X179482380Y-103301071D02*
X179482380Y-103491547D01*
X179530000Y-103586785D01*
X179577619Y-103634404D01*
X179720476Y-103729642D01*
X179910952Y-103777261D01*
X180291904Y-103777261D01*
X180387142Y-103729642D01*
X180434761Y-103682023D01*
X180482380Y-103586785D01*
X180482380Y-103396309D01*
X180434761Y-103301071D01*
X180387142Y-103253452D01*
X180291904Y-103205833D01*
X180053809Y-103205833D01*
X179958571Y-103253452D01*
X179910952Y-103301071D01*
X179863333Y-103396309D01*
X179863333Y-103586785D01*
X179910952Y-103682023D01*
X179958571Y-103729642D01*
X180053809Y-103777261D01*
X180387142Y-102777261D02*
X180434761Y-102729642D01*
X180482380Y-102777261D01*
X180434761Y-102824880D01*
X180387142Y-102777261D01*
X180482380Y-102777261D01*
X179910952Y-102158214D02*
X179863333Y-102253452D01*
X179815714Y-102301071D01*
X179720476Y-102348690D01*
X179672857Y-102348690D01*
X179577619Y-102301071D01*
X179530000Y-102253452D01*
X179482380Y-102158214D01*
X179482380Y-101967738D01*
X179530000Y-101872500D01*
X179577619Y-101824880D01*
X179672857Y-101777261D01*
X179720476Y-101777261D01*
X179815714Y-101824880D01*
X179863333Y-101872500D01*
X179910952Y-101967738D01*
X179910952Y-102158214D01*
X179958571Y-102253452D01*
X180006190Y-102301071D01*
X180101428Y-102348690D01*
X180291904Y-102348690D01*
X180387142Y-102301071D01*
X180434761Y-102253452D01*
X180482380Y-102158214D01*
X180482380Y-101967738D01*
X180434761Y-101872500D01*
X180387142Y-101824880D01*
X180291904Y-101777261D01*
X180101428Y-101777261D01*
X180006190Y-101824880D01*
X179958571Y-101872500D01*
X179910952Y-101967738D01*
X180482380Y-101348690D02*
X179482380Y-101348690D01*
X180101428Y-101253452D02*
X180482380Y-100967738D01*
X179815714Y-100967738D02*
X180196666Y-101348690D01*
X164492380Y-96820476D02*
X163492380Y-96820476D01*
X164206666Y-96487142D01*
X163492380Y-96153809D01*
X164492380Y-96153809D01*
X164492380Y-95677619D02*
X163492380Y-95677619D01*
X164206666Y-95344285D01*
X163492380Y-95010952D01*
X164492380Y-95010952D01*
X163968571Y-94201428D02*
X164016190Y-94058571D01*
X164063809Y-94010952D01*
X164159047Y-93963333D01*
X164301904Y-93963333D01*
X164397142Y-94010952D01*
X164444761Y-94058571D01*
X164492380Y-94153809D01*
X164492380Y-94534761D01*
X163492380Y-94534761D01*
X163492380Y-94201428D01*
X163540000Y-94106190D01*
X163587619Y-94058571D01*
X163682857Y-94010952D01*
X163778095Y-94010952D01*
X163873333Y-94058571D01*
X163920952Y-94106190D01*
X163968571Y-94201428D01*
X163968571Y-94534761D01*
X163492380Y-93677619D02*
X163492380Y-93106190D01*
X164492380Y-93391904D02*
X163492380Y-93391904D01*
X163492380Y-92868095D02*
X163492380Y-92249047D01*
X163873333Y-92582380D01*
X163873333Y-92439523D01*
X163920952Y-92344285D01*
X163968571Y-92296666D01*
X164063809Y-92249047D01*
X164301904Y-92249047D01*
X164397142Y-92296666D01*
X164444761Y-92344285D01*
X164492380Y-92439523D01*
X164492380Y-92725238D01*
X164444761Y-92820476D01*
X164397142Y-92868095D01*
X164492380Y-91772857D02*
X164492380Y-91582380D01*
X164444761Y-91487142D01*
X164397142Y-91439523D01*
X164254285Y-91344285D01*
X164063809Y-91296666D01*
X163682857Y-91296666D01*
X163587619Y-91344285D01*
X163540000Y-91391904D01*
X163492380Y-91487142D01*
X163492380Y-91677619D01*
X163540000Y-91772857D01*
X163587619Y-91820476D01*
X163682857Y-91868095D01*
X163920952Y-91868095D01*
X164016190Y-91820476D01*
X164063809Y-91772857D01*
X164111428Y-91677619D01*
X164111428Y-91487142D01*
X164063809Y-91391904D01*
X164016190Y-91344285D01*
X163920952Y-91296666D01*
X163492380Y-90677619D02*
X163492380Y-90582380D01*
X163540000Y-90487142D01*
X163587619Y-90439523D01*
X163682857Y-90391904D01*
X163873333Y-90344285D01*
X164111428Y-90344285D01*
X164301904Y-90391904D01*
X164397142Y-90439523D01*
X164444761Y-90487142D01*
X164492380Y-90582380D01*
X164492380Y-90677619D01*
X164444761Y-90772857D01*
X164397142Y-90820476D01*
X164301904Y-90868095D01*
X164111428Y-90915714D01*
X163873333Y-90915714D01*
X163682857Y-90868095D01*
X163587619Y-90820476D01*
X163540000Y-90772857D01*
X163492380Y-90677619D01*
X163825714Y-89487142D02*
X164492380Y-89487142D01*
X163444761Y-89725238D02*
X164159047Y-89963333D01*
X164159047Y-89344285D01*
X164111428Y-88963333D02*
X164111428Y-88201428D01*
X163492380Y-87868095D02*
X163492380Y-87296666D01*
X164492380Y-87582380D02*
X163492380Y-87582380D01*
X164492380Y-86963333D02*
X163492380Y-86963333D01*
X163492380Y-86582380D01*
X163540000Y-86487142D01*
X163587619Y-86439523D01*
X163682857Y-86391904D01*
X163825714Y-86391904D01*
X163920952Y-86439523D01*
X163968571Y-86487142D01*
X164016190Y-86582380D01*
X164016190Y-86963333D01*
X155149523Y-94082380D02*
X155149523Y-93082380D01*
X155482857Y-93796666D01*
X155816190Y-93082380D01*
X155816190Y-94082380D01*
X156292380Y-94082380D02*
X156292380Y-93082380D01*
X156625714Y-93796666D01*
X156959047Y-93082380D01*
X156959047Y-94082380D01*
X157768571Y-93558571D02*
X157911428Y-93606190D01*
X157959047Y-93653809D01*
X158006666Y-93749047D01*
X158006666Y-93891904D01*
X157959047Y-93987142D01*
X157911428Y-94034761D01*
X157816190Y-94082380D01*
X157435238Y-94082380D01*
X157435238Y-93082380D01*
X157768571Y-93082380D01*
X157863809Y-93130000D01*
X157911428Y-93177619D01*
X157959047Y-93272857D01*
X157959047Y-93368095D01*
X157911428Y-93463333D01*
X157863809Y-93510952D01*
X157768571Y-93558571D01*
X157435238Y-93558571D01*
X158292380Y-93082380D02*
X158863809Y-93082380D01*
X158578095Y-94082380D02*
X158578095Y-93082380D01*
X159101904Y-93082380D02*
X159720952Y-93082380D01*
X159387619Y-93463333D01*
X159530476Y-93463333D01*
X159625714Y-93510952D01*
X159673333Y-93558571D01*
X159720952Y-93653809D01*
X159720952Y-93891904D01*
X159673333Y-93987142D01*
X159625714Y-94034761D01*
X159530476Y-94082380D01*
X159244761Y-94082380D01*
X159149523Y-94034761D01*
X159101904Y-93987142D01*
X160197142Y-94082380D02*
X160387619Y-94082380D01*
X160482857Y-94034761D01*
X160530476Y-93987142D01*
X160625714Y-93844285D01*
X160673333Y-93653809D01*
X160673333Y-93272857D01*
X160625714Y-93177619D01*
X160578095Y-93130000D01*
X160482857Y-93082380D01*
X160292380Y-93082380D01*
X160197142Y-93130000D01*
X160149523Y-93177619D01*
X160101904Y-93272857D01*
X160101904Y-93510952D01*
X160149523Y-93606190D01*
X160197142Y-93653809D01*
X160292380Y-93701428D01*
X160482857Y-93701428D01*
X160578095Y-93653809D01*
X160625714Y-93606190D01*
X160673333Y-93510952D01*
X161292380Y-93082380D02*
X161387619Y-93082380D01*
X161482857Y-93130000D01*
X161530476Y-93177619D01*
X161578095Y-93272857D01*
X161625714Y-93463333D01*
X161625714Y-93701428D01*
X161578095Y-93891904D01*
X161530476Y-93987142D01*
X161482857Y-94034761D01*
X161387619Y-94082380D01*
X161292380Y-94082380D01*
X161197142Y-94034761D01*
X161149523Y-93987142D01*
X161101904Y-93891904D01*
X161054285Y-93701428D01*
X161054285Y-93463333D01*
X161101904Y-93272857D01*
X161149523Y-93177619D01*
X161197142Y-93130000D01*
X161292380Y-93082380D01*
X162482857Y-93415714D02*
X162482857Y-94082380D01*
X162244761Y-93034761D02*
X162006666Y-93749047D01*
X162625714Y-93749047D01*
X163006666Y-93701428D02*
X163768571Y-93701428D01*
X164101904Y-93082380D02*
X164673333Y-93082380D01*
X164387619Y-94082380D02*
X164387619Y-93082380D01*
X165006666Y-94082380D02*
X165006666Y-93082380D01*
X165387619Y-93082380D01*
X165482857Y-93130000D01*
X165530476Y-93177619D01*
X165578095Y-93272857D01*
X165578095Y-93415714D01*
X165530476Y-93510952D01*
X165482857Y-93558571D01*
X165387619Y-93606190D01*
X165006666Y-93606190D01*
M02*
