G04 #@! TF.GenerationSoftware,KiCad,Pcbnew,(5.1.5)-3*
G04 #@! TF.CreationDate,2020-07-28T19:33:27-07:00*
G04 #@! TF.ProjectId,Main Board,4d61696e-2042-46f6-9172-642e6b696361,rev?*
G04 #@! TF.SameCoordinates,Original*
G04 #@! TF.FileFunction,Copper,L2,Bot*
G04 #@! TF.FilePolarity,Positive*
%FSLAX46Y46*%
G04 Gerber Fmt 4.6, Leading zero omitted, Abs format (unit mm)*
G04 Created by KiCad (PCBNEW (5.1.5)-3) date 2020-07-28 19:33:27*
%MOMM*%
%LPD*%
G04 APERTURE LIST*
%ADD10C,0.100000*%
%ADD11C,0.400000*%
%ADD12C,2.500000*%
%ADD13C,0.800000*%
%ADD14C,1.000000*%
%ADD15C,1.000000*%
%ADD16C,0.500000*%
%ADD17C,0.250000*%
%ADD18C,0.254000*%
G04 APERTURE END LIST*
G04 #@! TA.AperFunction,ComponentPad*
D10*
G36*
X134468345Y-107389835D02*
G01*
X134505329Y-107395321D01*
X134541598Y-107404406D01*
X134576802Y-107417002D01*
X134610602Y-107432988D01*
X134642672Y-107452210D01*
X134672704Y-107474483D01*
X134700408Y-107499592D01*
X134725517Y-107527296D01*
X134747790Y-107557328D01*
X134767012Y-107589398D01*
X134782998Y-107623198D01*
X134795594Y-107658402D01*
X134804679Y-107694671D01*
X134810165Y-107731655D01*
X134812000Y-107769000D01*
X134812000Y-108531000D01*
X134810165Y-108568345D01*
X134804679Y-108605329D01*
X134795594Y-108641598D01*
X134782998Y-108676802D01*
X134767012Y-108710602D01*
X134747790Y-108742672D01*
X134725517Y-108772704D01*
X134700408Y-108800408D01*
X134672704Y-108825517D01*
X134642672Y-108847790D01*
X134610602Y-108867012D01*
X134576802Y-108882998D01*
X134541598Y-108895594D01*
X134505329Y-108904679D01*
X134468345Y-108910165D01*
X134431000Y-108912000D01*
X133669000Y-108912000D01*
X133631655Y-108910165D01*
X133594671Y-108904679D01*
X133558402Y-108895594D01*
X133523198Y-108882998D01*
X133489398Y-108867012D01*
X133457328Y-108847790D01*
X133427296Y-108825517D01*
X133399592Y-108800408D01*
X133374483Y-108772704D01*
X133352210Y-108742672D01*
X133332988Y-108710602D01*
X133317002Y-108676802D01*
X133304406Y-108641598D01*
X133295321Y-108605329D01*
X133289835Y-108568345D01*
X133288000Y-108531000D01*
X133288000Y-107769000D01*
X133289835Y-107731655D01*
X133295321Y-107694671D01*
X133304406Y-107658402D01*
X133317002Y-107623198D01*
X133332988Y-107589398D01*
X133352210Y-107557328D01*
X133374483Y-107527296D01*
X133399592Y-107499592D01*
X133427296Y-107474483D01*
X133457328Y-107452210D01*
X133489398Y-107432988D01*
X133523198Y-107417002D01*
X133558402Y-107404406D01*
X133594671Y-107395321D01*
X133631655Y-107389835D01*
X133669000Y-107388000D01*
X134431000Y-107388000D01*
X134468345Y-107389835D01*
G37*
G04 #@! TD.AperFunction*
G04 #@! TA.AperFunction,ComponentPad*
G36*
X148468345Y-107439835D02*
G01*
X148505329Y-107445321D01*
X148541598Y-107454406D01*
X148576802Y-107467002D01*
X148610602Y-107482988D01*
X148642672Y-107502210D01*
X148672704Y-107524483D01*
X148700408Y-107549592D01*
X148725517Y-107577296D01*
X148747790Y-107607328D01*
X148767012Y-107639398D01*
X148782998Y-107673198D01*
X148795594Y-107708402D01*
X148804679Y-107744671D01*
X148810165Y-107781655D01*
X148812000Y-107819000D01*
X148812000Y-108581000D01*
X148810165Y-108618345D01*
X148804679Y-108655329D01*
X148795594Y-108691598D01*
X148782998Y-108726802D01*
X148767012Y-108760602D01*
X148747790Y-108792672D01*
X148725517Y-108822704D01*
X148700408Y-108850408D01*
X148672704Y-108875517D01*
X148642672Y-108897790D01*
X148610602Y-108917012D01*
X148576802Y-108932998D01*
X148541598Y-108945594D01*
X148505329Y-108954679D01*
X148468345Y-108960165D01*
X148431000Y-108962000D01*
X147669000Y-108962000D01*
X147631655Y-108960165D01*
X147594671Y-108954679D01*
X147558402Y-108945594D01*
X147523198Y-108932998D01*
X147489398Y-108917012D01*
X147457328Y-108897790D01*
X147427296Y-108875517D01*
X147399592Y-108850408D01*
X147374483Y-108822704D01*
X147352210Y-108792672D01*
X147332988Y-108760602D01*
X147317002Y-108726802D01*
X147304406Y-108691598D01*
X147295321Y-108655329D01*
X147289835Y-108618345D01*
X147288000Y-108581000D01*
X147288000Y-107819000D01*
X147289835Y-107781655D01*
X147295321Y-107744671D01*
X147304406Y-107708402D01*
X147317002Y-107673198D01*
X147332988Y-107639398D01*
X147352210Y-107607328D01*
X147374483Y-107577296D01*
X147399592Y-107549592D01*
X147427296Y-107524483D01*
X147457328Y-107502210D01*
X147489398Y-107482988D01*
X147523198Y-107467002D01*
X147558402Y-107454406D01*
X147594671Y-107445321D01*
X147631655Y-107439835D01*
X147669000Y-107438000D01*
X148431000Y-107438000D01*
X148468345Y-107439835D01*
G37*
G04 #@! TD.AperFunction*
G04 #@! TA.AperFunction,ComponentPad*
G36*
X148468345Y-84839835D02*
G01*
X148505329Y-84845321D01*
X148541598Y-84854406D01*
X148576802Y-84867002D01*
X148610602Y-84882988D01*
X148642672Y-84902210D01*
X148672704Y-84924483D01*
X148700408Y-84949592D01*
X148725517Y-84977296D01*
X148747790Y-85007328D01*
X148767012Y-85039398D01*
X148782998Y-85073198D01*
X148795594Y-85108402D01*
X148804679Y-85144671D01*
X148810165Y-85181655D01*
X148812000Y-85219000D01*
X148812000Y-85981000D01*
X148810165Y-86018345D01*
X148804679Y-86055329D01*
X148795594Y-86091598D01*
X148782998Y-86126802D01*
X148767012Y-86160602D01*
X148747790Y-86192672D01*
X148725517Y-86222704D01*
X148700408Y-86250408D01*
X148672704Y-86275517D01*
X148642672Y-86297790D01*
X148610602Y-86317012D01*
X148576802Y-86332998D01*
X148541598Y-86345594D01*
X148505329Y-86354679D01*
X148468345Y-86360165D01*
X148431000Y-86362000D01*
X147669000Y-86362000D01*
X147631655Y-86360165D01*
X147594671Y-86354679D01*
X147558402Y-86345594D01*
X147523198Y-86332998D01*
X147489398Y-86317012D01*
X147457328Y-86297790D01*
X147427296Y-86275517D01*
X147399592Y-86250408D01*
X147374483Y-86222704D01*
X147352210Y-86192672D01*
X147332988Y-86160602D01*
X147317002Y-86126802D01*
X147304406Y-86091598D01*
X147295321Y-86055329D01*
X147289835Y-86018345D01*
X147288000Y-85981000D01*
X147288000Y-85219000D01*
X147289835Y-85181655D01*
X147295321Y-85144671D01*
X147304406Y-85108402D01*
X147317002Y-85073198D01*
X147332988Y-85039398D01*
X147352210Y-85007328D01*
X147374483Y-84977296D01*
X147399592Y-84949592D01*
X147427296Y-84924483D01*
X147457328Y-84902210D01*
X147489398Y-84882988D01*
X147523198Y-84867002D01*
X147558402Y-84854406D01*
X147594671Y-84845321D01*
X147631655Y-84839835D01*
X147669000Y-84838000D01*
X148431000Y-84838000D01*
X148468345Y-84839835D01*
G37*
G04 #@! TD.AperFunction*
G04 #@! TA.AperFunction,ComponentPad*
G36*
X134468345Y-84839835D02*
G01*
X134505329Y-84845321D01*
X134541598Y-84854406D01*
X134576802Y-84867002D01*
X134610602Y-84882988D01*
X134642672Y-84902210D01*
X134672704Y-84924483D01*
X134700408Y-84949592D01*
X134725517Y-84977296D01*
X134747790Y-85007328D01*
X134767012Y-85039398D01*
X134782998Y-85073198D01*
X134795594Y-85108402D01*
X134804679Y-85144671D01*
X134810165Y-85181655D01*
X134812000Y-85219000D01*
X134812000Y-85981000D01*
X134810165Y-86018345D01*
X134804679Y-86055329D01*
X134795594Y-86091598D01*
X134782998Y-86126802D01*
X134767012Y-86160602D01*
X134747790Y-86192672D01*
X134725517Y-86222704D01*
X134700408Y-86250408D01*
X134672704Y-86275517D01*
X134642672Y-86297790D01*
X134610602Y-86317012D01*
X134576802Y-86332998D01*
X134541598Y-86345594D01*
X134505329Y-86354679D01*
X134468345Y-86360165D01*
X134431000Y-86362000D01*
X133669000Y-86362000D01*
X133631655Y-86360165D01*
X133594671Y-86354679D01*
X133558402Y-86345594D01*
X133523198Y-86332998D01*
X133489398Y-86317012D01*
X133457328Y-86297790D01*
X133427296Y-86275517D01*
X133399592Y-86250408D01*
X133374483Y-86222704D01*
X133352210Y-86192672D01*
X133332988Y-86160602D01*
X133317002Y-86126802D01*
X133304406Y-86091598D01*
X133295321Y-86055329D01*
X133289835Y-86018345D01*
X133288000Y-85981000D01*
X133288000Y-85219000D01*
X133289835Y-85181655D01*
X133295321Y-85144671D01*
X133304406Y-85108402D01*
X133317002Y-85073198D01*
X133332988Y-85039398D01*
X133352210Y-85007328D01*
X133374483Y-84977296D01*
X133399592Y-84949592D01*
X133427296Y-84924483D01*
X133457328Y-84902210D01*
X133489398Y-84882988D01*
X133523198Y-84867002D01*
X133558402Y-84854406D01*
X133594671Y-84845321D01*
X133631655Y-84839835D01*
X133669000Y-84838000D01*
X134431000Y-84838000D01*
X134468345Y-84839835D01*
G37*
G04 #@! TD.AperFunction*
G04 #@! TA.AperFunction,ComponentPad*
G36*
X137768345Y-107389835D02*
G01*
X137805329Y-107395321D01*
X137841598Y-107404406D01*
X137876802Y-107417002D01*
X137910602Y-107432988D01*
X137942672Y-107452210D01*
X137972704Y-107474483D01*
X138000408Y-107499592D01*
X138025517Y-107527296D01*
X138047790Y-107557328D01*
X138067012Y-107589398D01*
X138082998Y-107623198D01*
X138095594Y-107658402D01*
X138104679Y-107694671D01*
X138110165Y-107731655D01*
X138112000Y-107769000D01*
X138112000Y-108531000D01*
X138110165Y-108568345D01*
X138104679Y-108605329D01*
X138095594Y-108641598D01*
X138082998Y-108676802D01*
X138067012Y-108710602D01*
X138047790Y-108742672D01*
X138025517Y-108772704D01*
X138000408Y-108800408D01*
X137972704Y-108825517D01*
X137942672Y-108847790D01*
X137910602Y-108867012D01*
X137876802Y-108882998D01*
X137841598Y-108895594D01*
X137805329Y-108904679D01*
X137768345Y-108910165D01*
X137731000Y-108912000D01*
X136969000Y-108912000D01*
X136931655Y-108910165D01*
X136894671Y-108904679D01*
X136858402Y-108895594D01*
X136823198Y-108882998D01*
X136789398Y-108867012D01*
X136757328Y-108847790D01*
X136727296Y-108825517D01*
X136699592Y-108800408D01*
X136674483Y-108772704D01*
X136652210Y-108742672D01*
X136632988Y-108710602D01*
X136617002Y-108676802D01*
X136604406Y-108641598D01*
X136595321Y-108605329D01*
X136589835Y-108568345D01*
X136588000Y-108531000D01*
X136588000Y-107769000D01*
X136589835Y-107731655D01*
X136595321Y-107694671D01*
X136604406Y-107658402D01*
X136617002Y-107623198D01*
X136632988Y-107589398D01*
X136652210Y-107557328D01*
X136674483Y-107527296D01*
X136699592Y-107499592D01*
X136727296Y-107474483D01*
X136757328Y-107452210D01*
X136789398Y-107432988D01*
X136823198Y-107417002D01*
X136858402Y-107404406D01*
X136894671Y-107395321D01*
X136931655Y-107389835D01*
X136969000Y-107388000D01*
X137731000Y-107388000D01*
X137768345Y-107389835D01*
G37*
G04 #@! TD.AperFunction*
G04 #@! TA.AperFunction,ComponentPad*
G36*
X145118345Y-107439835D02*
G01*
X145155329Y-107445321D01*
X145191598Y-107454406D01*
X145226802Y-107467002D01*
X145260602Y-107482988D01*
X145292672Y-107502210D01*
X145322704Y-107524483D01*
X145350408Y-107549592D01*
X145375517Y-107577296D01*
X145397790Y-107607328D01*
X145417012Y-107639398D01*
X145432998Y-107673198D01*
X145445594Y-107708402D01*
X145454679Y-107744671D01*
X145460165Y-107781655D01*
X145462000Y-107819000D01*
X145462000Y-108581000D01*
X145460165Y-108618345D01*
X145454679Y-108655329D01*
X145445594Y-108691598D01*
X145432998Y-108726802D01*
X145417012Y-108760602D01*
X145397790Y-108792672D01*
X145375517Y-108822704D01*
X145350408Y-108850408D01*
X145322704Y-108875517D01*
X145292672Y-108897790D01*
X145260602Y-108917012D01*
X145226802Y-108932998D01*
X145191598Y-108945594D01*
X145155329Y-108954679D01*
X145118345Y-108960165D01*
X145081000Y-108962000D01*
X144319000Y-108962000D01*
X144281655Y-108960165D01*
X144244671Y-108954679D01*
X144208402Y-108945594D01*
X144173198Y-108932998D01*
X144139398Y-108917012D01*
X144107328Y-108897790D01*
X144077296Y-108875517D01*
X144049592Y-108850408D01*
X144024483Y-108822704D01*
X144002210Y-108792672D01*
X143982988Y-108760602D01*
X143967002Y-108726802D01*
X143954406Y-108691598D01*
X143945321Y-108655329D01*
X143939835Y-108618345D01*
X143938000Y-108581000D01*
X143938000Y-107819000D01*
X143939835Y-107781655D01*
X143945321Y-107744671D01*
X143954406Y-107708402D01*
X143967002Y-107673198D01*
X143982988Y-107639398D01*
X144002210Y-107607328D01*
X144024483Y-107577296D01*
X144049592Y-107549592D01*
X144077296Y-107524483D01*
X144107328Y-107502210D01*
X144139398Y-107482988D01*
X144173198Y-107467002D01*
X144208402Y-107454406D01*
X144244671Y-107445321D01*
X144281655Y-107439835D01*
X144319000Y-107438000D01*
X145081000Y-107438000D01*
X145118345Y-107439835D01*
G37*
G04 #@! TD.AperFunction*
D11*
X136450000Y-100000000D03*
X137550000Y-100000000D03*
D12*
X162060000Y-104400000D03*
X148250000Y-88660000D03*
X153920000Y-99700000D03*
D13*
X130280000Y-105080000D03*
X114190000Y-89780000D03*
X117790000Y-89780000D03*
X116190000Y-89780000D03*
X112190000Y-89780000D03*
X110190000Y-89780000D03*
X108190000Y-89780000D03*
X108790000Y-101980000D03*
X108780000Y-107530000D03*
X108390000Y-97180000D03*
X108410000Y-94820000D03*
X112300000Y-107570000D03*
D14*
X121590000Y-110180000D03*
X122790000Y-109380000D03*
X120090000Y-109880000D03*
X118590000Y-109880000D03*
X117090000Y-109880000D03*
X115590000Y-109880000D03*
X114090000Y-109880000D03*
X112590000Y-109880000D03*
X111090000Y-109880000D03*
X109590000Y-109880000D03*
X108290000Y-109890000D03*
D13*
X114590000Y-99380000D03*
X116590000Y-100880000D03*
X114590000Y-101380000D03*
X111800000Y-104400000D03*
X108800000Y-104150000D03*
X108810000Y-99560000D03*
X111120000Y-100990000D03*
X111100000Y-99210000D03*
X108290000Y-92650000D03*
X110600000Y-107400000D03*
X128590000Y-88380000D03*
X129000000Y-90400000D03*
X133400000Y-102600000D03*
X142000000Y-109600000D03*
X140000000Y-109600000D03*
X141000000Y-108200000D03*
X146030000Y-101040000D03*
X148082000Y-102616000D03*
X151000000Y-108400000D03*
X149860000Y-106426000D03*
X141200000Y-100400000D03*
X134760000Y-100270000D03*
X164084000Y-85344000D03*
X167894000Y-85420000D03*
X172974000Y-85344000D03*
X177546000Y-85430000D03*
X184500000Y-85270000D03*
X184260000Y-90590000D03*
X181570000Y-96120000D03*
X179832000Y-91186000D03*
X170590000Y-87630000D03*
X164084000Y-94742000D03*
X173482000Y-93218000D03*
X172000000Y-94600000D03*
X177800000Y-98552000D03*
X150640000Y-91440000D03*
X154000000Y-87000000D03*
X150640000Y-87090000D03*
X151640000Y-85320000D03*
X155370000Y-85180000D03*
X127140000Y-104920000D03*
X132460000Y-104780000D03*
X131064000Y-102362000D03*
X126800000Y-95000000D03*
X132000000Y-96600000D03*
X125984000Y-108204000D03*
X128290000Y-109474000D03*
X179200000Y-92800000D03*
X126280000Y-99960000D03*
X163150000Y-90820000D03*
X142600000Y-100600000D03*
X140500000Y-87500000D03*
X144500000Y-87500000D03*
X144500000Y-91000000D03*
X140500000Y-91000000D03*
X140500000Y-91000000D03*
X133700000Y-88300000D03*
X137600000Y-87500000D03*
X150000000Y-104400000D03*
X159000000Y-104400000D03*
X164600000Y-104400000D03*
X144990000Y-93560000D03*
X149000000Y-95200000D03*
X142090000Y-96280000D03*
X147880000Y-96280000D03*
X145790000Y-97780000D03*
X132600000Y-94200000D03*
X154180000Y-96800000D03*
X139790000Y-99180000D03*
X124890000Y-104880000D03*
X147400000Y-97800000D03*
X127600000Y-107600000D03*
D15*
X131269999Y-110880001D02*
X122290001Y-110880001D01*
X122290001Y-110880001D02*
X121590000Y-110180000D01*
X133950000Y-108200000D02*
X131269999Y-110880001D01*
X121590000Y-110180000D02*
X121590000Y-110180000D01*
D16*
X159000000Y-104400000D02*
X150000000Y-104400000D01*
X162060000Y-104400000D02*
X164600000Y-104400000D01*
X149000000Y-95200000D02*
X147360000Y-93560000D01*
X147360000Y-93560000D02*
X144990000Y-93560000D01*
X142090000Y-96280000D02*
X147880000Y-96280000D01*
X136180000Y-97780000D02*
X132600000Y-94200000D01*
X136180000Y-97780000D02*
X145790000Y-97780000D01*
D17*
X153920000Y-97932234D02*
X154180000Y-97672234D01*
X154180000Y-97672234D02*
X154180000Y-96800000D01*
X153920000Y-99700000D02*
X153920000Y-97932234D01*
X154180000Y-96800000D02*
X154180000Y-96800000D01*
D16*
X139790000Y-99180000D02*
X138180000Y-99180000D01*
X130585000Y-99185000D02*
X124890000Y-104880000D01*
X130590000Y-99180000D02*
X130585000Y-99185000D01*
X135780000Y-99180000D02*
X130590000Y-99180000D01*
X136160000Y-98800000D02*
X135780000Y-99180000D01*
X137800000Y-98800000D02*
X136160000Y-98800000D01*
X138180000Y-99180000D02*
X137800000Y-98800000D01*
X147400000Y-97800000D02*
X146020000Y-99180000D01*
X146020000Y-99180000D02*
X139790000Y-99180000D01*
X127600000Y-107600000D02*
X124890000Y-104890000D01*
D18*
G36*
X113606354Y-84732320D02*
G01*
X113629251Y-84786789D01*
X113651390Y-84841585D01*
X113655664Y-84849623D01*
X113844785Y-85199396D01*
X113877836Y-85248396D01*
X113910188Y-85297836D01*
X113915941Y-85304890D01*
X114169398Y-85611267D01*
X114211340Y-85652917D01*
X114252676Y-85695128D01*
X114259690Y-85700931D01*
X114567829Y-85952243D01*
X114617089Y-85984972D01*
X114665810Y-86018331D01*
X114673812Y-86022658D01*
X114673816Y-86022661D01*
X114673820Y-86022663D01*
X115024901Y-86209335D01*
X115079562Y-86231865D01*
X115133851Y-86255133D01*
X115142541Y-86257823D01*
X115142548Y-86257826D01*
X115142555Y-86257827D01*
X115523203Y-86372752D01*
X115581220Y-86384240D01*
X115638974Y-86396516D01*
X115648018Y-86397467D01*
X115648028Y-86397469D01*
X115648037Y-86397469D01*
X116043758Y-86436270D01*
X116043764Y-86436270D01*
X116075360Y-86439382D01*
X120372022Y-86439382D01*
X120400675Y-86436560D01*
X120413315Y-86436648D01*
X120422375Y-86435760D01*
X120817825Y-86394197D01*
X120875737Y-86382310D01*
X120933761Y-86371241D01*
X120942470Y-86368612D01*
X120942474Y-86368611D01*
X120942477Y-86368610D01*
X121322320Y-86251028D01*
X121376789Y-86228131D01*
X121431585Y-86205992D01*
X121439623Y-86201718D01*
X121789396Y-86012597D01*
X121838396Y-85979546D01*
X121887836Y-85947194D01*
X121894890Y-85941441D01*
X122201267Y-85687984D01*
X122242917Y-85646042D01*
X122285128Y-85604706D01*
X122290931Y-85597692D01*
X122542243Y-85289553D01*
X122574972Y-85240293D01*
X122608331Y-85191572D01*
X122612658Y-85183570D01*
X122612661Y-85183566D01*
X122612663Y-85183562D01*
X122799335Y-84832481D01*
X122821865Y-84777820D01*
X122845133Y-84723531D01*
X122847823Y-84714841D01*
X122847826Y-84714834D01*
X122847827Y-84714827D01*
X122910574Y-84507000D01*
X123376202Y-84507000D01*
X123376202Y-110853000D01*
X107772000Y-110853000D01*
X107772000Y-84507000D01*
X113536605Y-84507000D01*
X113606354Y-84732320D01*
G37*
X113606354Y-84732320D02*
X113629251Y-84786789D01*
X113651390Y-84841585D01*
X113655664Y-84849623D01*
X113844785Y-85199396D01*
X113877836Y-85248396D01*
X113910188Y-85297836D01*
X113915941Y-85304890D01*
X114169398Y-85611267D01*
X114211340Y-85652917D01*
X114252676Y-85695128D01*
X114259690Y-85700931D01*
X114567829Y-85952243D01*
X114617089Y-85984972D01*
X114665810Y-86018331D01*
X114673812Y-86022658D01*
X114673816Y-86022661D01*
X114673820Y-86022663D01*
X115024901Y-86209335D01*
X115079562Y-86231865D01*
X115133851Y-86255133D01*
X115142541Y-86257823D01*
X115142548Y-86257826D01*
X115142555Y-86257827D01*
X115523203Y-86372752D01*
X115581220Y-86384240D01*
X115638974Y-86396516D01*
X115648018Y-86397467D01*
X115648028Y-86397469D01*
X115648037Y-86397469D01*
X116043758Y-86436270D01*
X116043764Y-86436270D01*
X116075360Y-86439382D01*
X120372022Y-86439382D01*
X120400675Y-86436560D01*
X120413315Y-86436648D01*
X120422375Y-86435760D01*
X120817825Y-86394197D01*
X120875737Y-86382310D01*
X120933761Y-86371241D01*
X120942470Y-86368612D01*
X120942474Y-86368611D01*
X120942477Y-86368610D01*
X121322320Y-86251028D01*
X121376789Y-86228131D01*
X121431585Y-86205992D01*
X121439623Y-86201718D01*
X121789396Y-86012597D01*
X121838396Y-85979546D01*
X121887836Y-85947194D01*
X121894890Y-85941441D01*
X122201267Y-85687984D01*
X122242917Y-85646042D01*
X122285128Y-85604706D01*
X122290931Y-85597692D01*
X122542243Y-85289553D01*
X122574972Y-85240293D01*
X122608331Y-85191572D01*
X122612658Y-85183570D01*
X122612661Y-85183566D01*
X122612663Y-85183562D01*
X122799335Y-84832481D01*
X122821865Y-84777820D01*
X122845133Y-84723531D01*
X122847823Y-84714841D01*
X122847826Y-84714834D01*
X122847827Y-84714827D01*
X122910574Y-84507000D01*
X123376202Y-84507000D01*
X123376202Y-110853000D01*
X107772000Y-110853000D01*
X107772000Y-84507000D01*
X113536605Y-84507000D01*
X113606354Y-84732320D01*
G36*
X132954092Y-84504092D02*
G01*
X132828357Y-84657300D01*
X132734927Y-84832094D01*
X132677394Y-85021757D01*
X132657967Y-85219000D01*
X132657967Y-85981000D01*
X132677394Y-86178243D01*
X132734927Y-86367906D01*
X132828357Y-86542700D01*
X132954092Y-86695908D01*
X133107300Y-86821643D01*
X133282094Y-86915073D01*
X133471757Y-86972606D01*
X133669000Y-86992033D01*
X134431000Y-86992033D01*
X134628243Y-86972606D01*
X134817906Y-86915073D01*
X134992700Y-86821643D01*
X135145908Y-86695908D01*
X135271643Y-86542700D01*
X135365073Y-86367906D01*
X135422606Y-86178243D01*
X135442033Y-85981000D01*
X135442033Y-85219000D01*
X135422606Y-85021757D01*
X135365073Y-84832094D01*
X135271643Y-84657300D01*
X135145908Y-84504092D01*
X135021509Y-84402000D01*
X147078491Y-84402000D01*
X146954092Y-84504092D01*
X146828357Y-84657300D01*
X146734927Y-84832094D01*
X146677394Y-85021757D01*
X146657967Y-85219000D01*
X146657967Y-85981000D01*
X146677394Y-86178243D01*
X146734927Y-86367906D01*
X146828357Y-86542700D01*
X146954092Y-86695908D01*
X147107300Y-86821643D01*
X147282094Y-86915073D01*
X147425165Y-86958473D01*
X147241914Y-87056423D01*
X147116000Y-87346395D01*
X148250000Y-88480395D01*
X149384000Y-87346395D01*
X149258086Y-87056423D01*
X148925874Y-86890567D01*
X148884765Y-86879336D01*
X148992700Y-86821643D01*
X149145908Y-86695908D01*
X149271643Y-86542700D01*
X149365073Y-86367906D01*
X149422606Y-86178243D01*
X149442033Y-85981000D01*
X149442033Y-85219000D01*
X149422606Y-85021757D01*
X149365073Y-84832094D01*
X149271643Y-84657300D01*
X149145908Y-84504092D01*
X149021509Y-84402000D01*
X166025800Y-84402000D01*
X185052496Y-84446701D01*
X185010824Y-94948000D01*
X182832022Y-94948000D01*
X182800000Y-94944846D01*
X182767978Y-94948000D01*
X182672186Y-94957435D01*
X182549283Y-94994717D01*
X182436016Y-95055259D01*
X182336736Y-95136736D01*
X182255259Y-95236016D01*
X182194717Y-95349283D01*
X182157435Y-95472186D01*
X182144846Y-95600000D01*
X182148000Y-95632022D01*
X182148001Y-97127968D01*
X182144846Y-97160000D01*
X182157435Y-97287814D01*
X182194717Y-97410717D01*
X182255259Y-97523984D01*
X182336736Y-97623264D01*
X182436016Y-97704741D01*
X182549283Y-97765283D01*
X182672186Y-97802565D01*
X182767978Y-97812000D01*
X182800000Y-97815154D01*
X182832022Y-97812000D01*
X184999459Y-97812000D01*
X184948504Y-110652702D01*
X183387638Y-110649035D01*
X183381028Y-110627680D01*
X183358120Y-110573183D01*
X183335992Y-110518415D01*
X183331722Y-110510385D01*
X183331718Y-110510375D01*
X183331713Y-110510367D01*
X183142597Y-110160604D01*
X183109546Y-110111604D01*
X183077194Y-110062164D01*
X183071441Y-110055110D01*
X182817984Y-109748733D01*
X182776042Y-109707083D01*
X182734706Y-109664872D01*
X182727692Y-109659069D01*
X182419553Y-109407757D01*
X182370308Y-109375039D01*
X182321572Y-109341669D01*
X182313565Y-109337339D01*
X181962481Y-109150665D01*
X181907820Y-109128135D01*
X181853531Y-109104867D01*
X181844841Y-109102177D01*
X181844834Y-109102174D01*
X181844827Y-109102173D01*
X181464179Y-108987248D01*
X181406162Y-108975760D01*
X181348408Y-108963484D01*
X181339364Y-108962533D01*
X181339354Y-108962531D01*
X181339345Y-108962531D01*
X180943625Y-108923730D01*
X180943618Y-108923730D01*
X180912022Y-108920618D01*
X174643360Y-108920618D01*
X174614707Y-108923440D01*
X174602067Y-108923352D01*
X174593007Y-108924240D01*
X174197557Y-108965803D01*
X174139632Y-108977693D01*
X174081622Y-108988759D01*
X174072915Y-108991388D01*
X174072908Y-108991389D01*
X174072902Y-108991392D01*
X173693062Y-109108972D01*
X173638565Y-109131880D01*
X173583797Y-109154008D01*
X173575767Y-109158278D01*
X173575757Y-109158282D01*
X173575749Y-109158287D01*
X173225986Y-109347403D01*
X173176986Y-109380454D01*
X173127546Y-109412806D01*
X173120492Y-109418559D01*
X172814115Y-109672016D01*
X172772465Y-109713958D01*
X172730254Y-109755294D01*
X172724451Y-109762308D01*
X172473139Y-110070447D01*
X172440421Y-110119692D01*
X172407051Y-110168428D01*
X172402721Y-110176435D01*
X172216047Y-110527519D01*
X172193517Y-110582180D01*
X172176153Y-110622695D01*
X133212664Y-110531155D01*
X134201786Y-109542033D01*
X134431000Y-109542033D01*
X134628243Y-109522606D01*
X134817906Y-109465073D01*
X134992700Y-109371643D01*
X135145908Y-109245908D01*
X135271643Y-109092700D01*
X135365073Y-108917906D01*
X135422606Y-108728243D01*
X135442033Y-108531000D01*
X135442033Y-107769000D01*
X135957967Y-107769000D01*
X135957967Y-108531000D01*
X135977394Y-108728243D01*
X136034927Y-108917906D01*
X136128357Y-109092700D01*
X136254092Y-109245908D01*
X136407300Y-109371643D01*
X136582094Y-109465073D01*
X136771757Y-109522606D01*
X136969000Y-109542033D01*
X137731000Y-109542033D01*
X137928243Y-109522606D01*
X138117906Y-109465073D01*
X138292700Y-109371643D01*
X138445908Y-109245908D01*
X138571643Y-109092700D01*
X138665073Y-108917906D01*
X138722606Y-108728243D01*
X138742033Y-108531000D01*
X138742033Y-107819000D01*
X143307967Y-107819000D01*
X143307967Y-108581000D01*
X143327394Y-108778243D01*
X143384927Y-108967906D01*
X143478357Y-109142700D01*
X143604092Y-109295908D01*
X143757300Y-109421643D01*
X143932094Y-109515073D01*
X144121757Y-109572606D01*
X144319000Y-109592033D01*
X145081000Y-109592033D01*
X145278243Y-109572606D01*
X145467906Y-109515073D01*
X145642700Y-109421643D01*
X145795908Y-109295908D01*
X145921643Y-109142700D01*
X146015073Y-108967906D01*
X146072606Y-108778243D01*
X146092033Y-108581000D01*
X146092033Y-107819000D01*
X146657967Y-107819000D01*
X146657967Y-108581000D01*
X146677394Y-108778243D01*
X146734927Y-108967906D01*
X146828357Y-109142700D01*
X146954092Y-109295908D01*
X147107300Y-109421643D01*
X147282094Y-109515073D01*
X147471757Y-109572606D01*
X147669000Y-109592033D01*
X148431000Y-109592033D01*
X148628243Y-109572606D01*
X148817906Y-109515073D01*
X148992700Y-109421643D01*
X149145908Y-109295908D01*
X149271643Y-109142700D01*
X149365073Y-108967906D01*
X149422606Y-108778243D01*
X149442033Y-108581000D01*
X149442033Y-107819000D01*
X149422606Y-107621757D01*
X149365073Y-107432094D01*
X149271643Y-107257300D01*
X149145908Y-107104092D01*
X148992700Y-106978357D01*
X148817906Y-106884927D01*
X148628243Y-106827394D01*
X148431000Y-106807967D01*
X147669000Y-106807967D01*
X147471757Y-106827394D01*
X147282094Y-106884927D01*
X147107300Y-106978357D01*
X146954092Y-107104092D01*
X146828357Y-107257300D01*
X146734927Y-107432094D01*
X146677394Y-107621757D01*
X146657967Y-107819000D01*
X146092033Y-107819000D01*
X146072606Y-107621757D01*
X146015073Y-107432094D01*
X145921643Y-107257300D01*
X145795908Y-107104092D01*
X145642700Y-106978357D01*
X145467906Y-106884927D01*
X145278243Y-106827394D01*
X145081000Y-106807967D01*
X144319000Y-106807967D01*
X144121757Y-106827394D01*
X143932094Y-106884927D01*
X143757300Y-106978357D01*
X143604092Y-107104092D01*
X143478357Y-107257300D01*
X143384927Y-107432094D01*
X143327394Y-107621757D01*
X143307967Y-107819000D01*
X138742033Y-107819000D01*
X138742033Y-107769000D01*
X138722606Y-107571757D01*
X138665073Y-107382094D01*
X138571643Y-107207300D01*
X138445908Y-107054092D01*
X138292700Y-106928357D01*
X138117906Y-106834927D01*
X137928243Y-106777394D01*
X137731000Y-106757967D01*
X136969000Y-106757967D01*
X136771757Y-106777394D01*
X136582094Y-106834927D01*
X136407300Y-106928357D01*
X136254092Y-107054092D01*
X136128357Y-107207300D01*
X136034927Y-107382094D01*
X135977394Y-107571757D01*
X135957967Y-107769000D01*
X135442033Y-107769000D01*
X135422606Y-107571757D01*
X135365073Y-107382094D01*
X135271643Y-107207300D01*
X135145908Y-107054092D01*
X134992700Y-106928357D01*
X134817906Y-106834927D01*
X134628243Y-106777394D01*
X134431000Y-106757967D01*
X133669000Y-106757967D01*
X133471757Y-106777394D01*
X133282094Y-106834927D01*
X133107300Y-106928357D01*
X132954092Y-107054092D01*
X132828357Y-107207300D01*
X132734927Y-107382094D01*
X132677394Y-107571757D01*
X132657967Y-107769000D01*
X132657967Y-107898214D01*
X130803181Y-109753001D01*
X125615521Y-109753001D01*
X125626972Y-106867238D01*
X126600838Y-107841104D01*
X126612467Y-107899565D01*
X126689885Y-108086467D01*
X126802277Y-108254674D01*
X126945326Y-108397723D01*
X127113533Y-108510115D01*
X127300435Y-108587533D01*
X127498849Y-108627000D01*
X127701151Y-108627000D01*
X127899565Y-108587533D01*
X128086467Y-108510115D01*
X128254674Y-108397723D01*
X128397723Y-108254674D01*
X128510115Y-108086467D01*
X128587533Y-107899565D01*
X128627000Y-107701151D01*
X128627000Y-107498849D01*
X128587533Y-107300435D01*
X128510115Y-107113533D01*
X128397723Y-106945326D01*
X128254674Y-106802277D01*
X128086467Y-106689885D01*
X127899565Y-106612467D01*
X127841104Y-106600838D01*
X126219115Y-104978849D01*
X129253000Y-104978849D01*
X129253000Y-105181151D01*
X129292467Y-105379565D01*
X129369885Y-105566467D01*
X129482277Y-105734674D01*
X129625326Y-105877723D01*
X129793533Y-105990115D01*
X129980435Y-106067533D01*
X130178849Y-106107000D01*
X130381151Y-106107000D01*
X130579565Y-106067533D01*
X130766467Y-105990115D01*
X130934674Y-105877723D01*
X131077723Y-105734674D01*
X131190115Y-105566467D01*
X131267533Y-105379565D01*
X131307000Y-105181151D01*
X131307000Y-104978849D01*
X131267533Y-104780435D01*
X131190115Y-104593533D01*
X131077723Y-104425326D01*
X130951246Y-104298849D01*
X148973000Y-104298849D01*
X148973000Y-104501151D01*
X149012467Y-104699565D01*
X149089885Y-104886467D01*
X149202277Y-105054674D01*
X149345326Y-105197723D01*
X149513533Y-105310115D01*
X149700435Y-105387533D01*
X149898849Y-105427000D01*
X150101151Y-105427000D01*
X150299565Y-105387533D01*
X150486467Y-105310115D01*
X150536027Y-105277000D01*
X158463973Y-105277000D01*
X158513533Y-105310115D01*
X158700435Y-105387533D01*
X158898849Y-105427000D01*
X159101151Y-105427000D01*
X159299565Y-105387533D01*
X159486467Y-105310115D01*
X159654674Y-105197723D01*
X159797723Y-105054674D01*
X159910115Y-104886467D01*
X159987533Y-104699565D01*
X160027000Y-104501151D01*
X160027000Y-104298849D01*
X160010348Y-104215132D01*
X160183000Y-104215132D01*
X160183000Y-104584868D01*
X160255132Y-104947501D01*
X160396624Y-105289093D01*
X160602039Y-105596518D01*
X160863482Y-105857961D01*
X161170907Y-106063376D01*
X161512499Y-106204868D01*
X161875132Y-106277000D01*
X162244868Y-106277000D01*
X162607501Y-106204868D01*
X162949093Y-106063376D01*
X163256518Y-105857961D01*
X163517961Y-105596518D01*
X163723376Y-105289093D01*
X163728385Y-105277000D01*
X164063973Y-105277000D01*
X164113533Y-105310115D01*
X164300435Y-105387533D01*
X164498849Y-105427000D01*
X164701151Y-105427000D01*
X164899565Y-105387533D01*
X165086467Y-105310115D01*
X165254674Y-105197723D01*
X165397723Y-105054674D01*
X165510115Y-104886467D01*
X165587533Y-104699565D01*
X165627000Y-104501151D01*
X165627000Y-104298849D01*
X165587533Y-104100435D01*
X165510115Y-103913533D01*
X165397723Y-103745326D01*
X165254674Y-103602277D01*
X165086467Y-103489885D01*
X164899565Y-103412467D01*
X164701151Y-103373000D01*
X164498849Y-103373000D01*
X164300435Y-103412467D01*
X164113533Y-103489885D01*
X164063973Y-103523000D01*
X163728385Y-103523000D01*
X163723376Y-103510907D01*
X163517961Y-103203482D01*
X163256518Y-102942039D01*
X162949093Y-102736624D01*
X162607501Y-102595132D01*
X162244868Y-102523000D01*
X161875132Y-102523000D01*
X161512499Y-102595132D01*
X161170907Y-102736624D01*
X160863482Y-102942039D01*
X160602039Y-103203482D01*
X160396624Y-103510907D01*
X160255132Y-103852499D01*
X160183000Y-104215132D01*
X160010348Y-104215132D01*
X159987533Y-104100435D01*
X159910115Y-103913533D01*
X159797723Y-103745326D01*
X159654674Y-103602277D01*
X159486467Y-103489885D01*
X159299565Y-103412467D01*
X159101151Y-103373000D01*
X158898849Y-103373000D01*
X158700435Y-103412467D01*
X158513533Y-103489885D01*
X158463973Y-103523000D01*
X150536027Y-103523000D01*
X150486467Y-103489885D01*
X150299565Y-103412467D01*
X150101151Y-103373000D01*
X149898849Y-103373000D01*
X149700435Y-103412467D01*
X149513533Y-103489885D01*
X149345326Y-103602277D01*
X149202277Y-103745326D01*
X149089885Y-103913533D01*
X149012467Y-104100435D01*
X148973000Y-104298849D01*
X130951246Y-104298849D01*
X130934674Y-104282277D01*
X130766467Y-104169885D01*
X130579565Y-104092467D01*
X130381151Y-104053000D01*
X130178849Y-104053000D01*
X129980435Y-104092467D01*
X129793533Y-104169885D01*
X129625326Y-104282277D01*
X129482277Y-104425326D01*
X129369885Y-104593533D01*
X129292467Y-104780435D01*
X129253000Y-104978849D01*
X126219115Y-104978849D01*
X126125265Y-104885000D01*
X130953265Y-100057000D01*
X135623000Y-100057000D01*
X135623000Y-100081452D01*
X135654782Y-100241227D01*
X135717123Y-100391731D01*
X135807628Y-100527181D01*
X135922819Y-100642372D01*
X136058269Y-100732877D01*
X136208773Y-100795218D01*
X136368548Y-100827000D01*
X136531452Y-100827000D01*
X136691227Y-100795218D01*
X136841731Y-100732877D01*
X136977181Y-100642372D01*
X137000000Y-100619553D01*
X137022819Y-100642372D01*
X137158269Y-100732877D01*
X137308773Y-100795218D01*
X137468548Y-100827000D01*
X137631452Y-100827000D01*
X137791227Y-100795218D01*
X137941731Y-100732877D01*
X138077181Y-100642372D01*
X138192372Y-100527181D01*
X138282877Y-100391731D01*
X138345218Y-100241227D01*
X138377000Y-100081452D01*
X138377000Y-100057000D01*
X139253973Y-100057000D01*
X139303533Y-100090115D01*
X139490435Y-100167533D01*
X139688849Y-100207000D01*
X139891151Y-100207000D01*
X140089565Y-100167533D01*
X140276467Y-100090115D01*
X140326027Y-100057000D01*
X145976921Y-100057000D01*
X146020000Y-100061243D01*
X146063079Y-100057000D01*
X146141157Y-100049310D01*
X146191922Y-100044310D01*
X146191925Y-100044309D01*
X146357237Y-99994162D01*
X146509592Y-99912727D01*
X146643133Y-99803133D01*
X146670597Y-99769668D01*
X146925133Y-99515132D01*
X152043000Y-99515132D01*
X152043000Y-99884868D01*
X152115132Y-100247501D01*
X152256624Y-100589093D01*
X152462039Y-100896518D01*
X152723482Y-101157961D01*
X153030907Y-101363376D01*
X153372499Y-101504868D01*
X153735132Y-101577000D01*
X154104868Y-101577000D01*
X154467501Y-101504868D01*
X154809093Y-101363376D01*
X155116518Y-101157961D01*
X155377961Y-100896518D01*
X155583376Y-100589093D01*
X155724868Y-100247501D01*
X155797000Y-99884868D01*
X155797000Y-99515132D01*
X155724868Y-99152499D01*
X155583376Y-98810907D01*
X155377961Y-98503482D01*
X155116518Y-98242039D01*
X154830328Y-98050813D01*
X154878118Y-97961404D01*
X154921119Y-97819652D01*
X154932000Y-97709172D01*
X154932000Y-97709170D01*
X154935638Y-97672234D01*
X154932000Y-97635299D01*
X154932000Y-97500397D01*
X154977723Y-97454674D01*
X155090115Y-97286467D01*
X155167533Y-97099565D01*
X155207000Y-96901151D01*
X155207000Y-96698849D01*
X155167533Y-96500435D01*
X155090115Y-96313533D01*
X154977723Y-96145326D01*
X154834674Y-96002277D01*
X154666467Y-95889885D01*
X154479565Y-95812467D01*
X154281151Y-95773000D01*
X154078849Y-95773000D01*
X153880435Y-95812467D01*
X153693533Y-95889885D01*
X153525326Y-96002277D01*
X153382277Y-96145326D01*
X153269885Y-96313533D01*
X153192467Y-96500435D01*
X153153000Y-96698849D01*
X153153000Y-96901151D01*
X153192467Y-97099565D01*
X153269885Y-97286467D01*
X153362902Y-97425677D01*
X153362138Y-97426608D01*
X153362137Y-97426609D01*
X153291710Y-97512424D01*
X153221882Y-97643065D01*
X153213034Y-97672234D01*
X153184808Y-97765283D01*
X153178882Y-97784817D01*
X153164362Y-97932234D01*
X153168001Y-97969179D01*
X153168001Y-97979838D01*
X153030907Y-98036624D01*
X152723482Y-98242039D01*
X152462039Y-98503482D01*
X152256624Y-98810907D01*
X152115132Y-99152499D01*
X152043000Y-99515132D01*
X146925133Y-99515132D01*
X147641103Y-98799162D01*
X147699565Y-98787533D01*
X147886467Y-98710115D01*
X148054674Y-98597723D01*
X148197723Y-98454674D01*
X148310115Y-98286467D01*
X148387533Y-98099565D01*
X148427000Y-97901151D01*
X148427000Y-97698849D01*
X148387533Y-97500435D01*
X148310115Y-97313533D01*
X148257742Y-97235151D01*
X148366467Y-97190115D01*
X148534674Y-97077723D01*
X148677723Y-96934674D01*
X148790115Y-96766467D01*
X148867533Y-96579565D01*
X148907000Y-96381151D01*
X148907000Y-96227000D01*
X149101151Y-96227000D01*
X149299565Y-96187533D01*
X149486467Y-96110115D01*
X149654674Y-95997723D01*
X149797723Y-95854674D01*
X149910115Y-95686467D01*
X149987533Y-95499565D01*
X150027000Y-95301151D01*
X150027000Y-95098849D01*
X149987533Y-94900435D01*
X149910115Y-94713533D01*
X149797723Y-94545326D01*
X149654674Y-94402277D01*
X149486467Y-94289885D01*
X149299565Y-94212467D01*
X149241103Y-94200838D01*
X148010597Y-92970332D01*
X147983133Y-92936867D01*
X147849592Y-92827273D01*
X147697237Y-92745838D01*
X147531922Y-92695690D01*
X147403079Y-92683000D01*
X147360000Y-92678757D01*
X147316921Y-92683000D01*
X145526027Y-92683000D01*
X145476467Y-92649885D01*
X145289565Y-92572467D01*
X145091151Y-92533000D01*
X144888849Y-92533000D01*
X144690435Y-92572467D01*
X144503533Y-92649885D01*
X144335326Y-92762277D01*
X144192277Y-92905326D01*
X144079885Y-93073533D01*
X144002467Y-93260435D01*
X143963000Y-93458849D01*
X143963000Y-93661151D01*
X144002467Y-93859565D01*
X144079885Y-94046467D01*
X144192277Y-94214674D01*
X144335326Y-94357723D01*
X144503533Y-94470115D01*
X144690435Y-94547533D01*
X144888849Y-94587000D01*
X145091151Y-94587000D01*
X145289565Y-94547533D01*
X145476467Y-94470115D01*
X145526027Y-94437000D01*
X146996735Y-94437000D01*
X147812735Y-95253000D01*
X147778849Y-95253000D01*
X147580435Y-95292467D01*
X147393533Y-95369885D01*
X147343973Y-95403000D01*
X142626027Y-95403000D01*
X142576467Y-95369885D01*
X142389565Y-95292467D01*
X142191151Y-95253000D01*
X141988849Y-95253000D01*
X141790435Y-95292467D01*
X141603533Y-95369885D01*
X141435326Y-95482277D01*
X141292277Y-95625326D01*
X141179885Y-95793533D01*
X141102467Y-95980435D01*
X141063000Y-96178849D01*
X141063000Y-96381151D01*
X141102467Y-96579565D01*
X141179885Y-96766467D01*
X141271113Y-96903000D01*
X136543265Y-96903000D01*
X133599162Y-93958897D01*
X133587533Y-93900435D01*
X133510115Y-93713533D01*
X133397723Y-93545326D01*
X133254674Y-93402277D01*
X133086467Y-93289885D01*
X132899565Y-93212467D01*
X132701151Y-93173000D01*
X132498849Y-93173000D01*
X132300435Y-93212467D01*
X132113533Y-93289885D01*
X131945326Y-93402277D01*
X131802277Y-93545326D01*
X131689885Y-93713533D01*
X131612467Y-93900435D01*
X131573000Y-94098849D01*
X131573000Y-94301151D01*
X131612467Y-94499565D01*
X131689885Y-94686467D01*
X131802277Y-94854674D01*
X131945326Y-94997723D01*
X132113533Y-95110115D01*
X132300435Y-95187533D01*
X132358897Y-95199162D01*
X135439735Y-98280000D01*
X135416736Y-98303000D01*
X130633079Y-98303000D01*
X130589999Y-98298757D01*
X130418078Y-98315690D01*
X130252763Y-98365838D01*
X130100408Y-98447273D01*
X129966867Y-98556867D01*
X129939406Y-98590329D01*
X125642767Y-102886968D01*
X125694010Y-89973605D01*
X147116000Y-89973605D01*
X147241914Y-90263577D01*
X147574126Y-90429433D01*
X147932312Y-90527290D01*
X148302706Y-90553389D01*
X148671075Y-90506725D01*
X149023262Y-90389094D01*
X149258086Y-90263577D01*
X149384000Y-89973605D01*
X148250000Y-88839605D01*
X147116000Y-89973605D01*
X125694010Y-89973605D01*
X125699014Y-88712706D01*
X146356611Y-88712706D01*
X146403275Y-89081075D01*
X146520906Y-89433262D01*
X146646423Y-89668086D01*
X146936395Y-89794000D01*
X148070395Y-88660000D01*
X148429605Y-88660000D01*
X149563605Y-89794000D01*
X149853577Y-89668086D01*
X150019433Y-89335874D01*
X150117290Y-88977688D01*
X150143389Y-88607294D01*
X150096725Y-88238925D01*
X149979094Y-87886738D01*
X149853577Y-87651914D01*
X149563605Y-87526000D01*
X148429605Y-88660000D01*
X148070395Y-88660000D01*
X146936395Y-87526000D01*
X146646423Y-87651914D01*
X146480567Y-87984126D01*
X146382710Y-88342312D01*
X146356611Y-88712706D01*
X125699014Y-88712706D01*
X125716120Y-84402000D01*
X133078491Y-84402000D01*
X132954092Y-84504092D01*
G37*
X132954092Y-84504092D02*
X132828357Y-84657300D01*
X132734927Y-84832094D01*
X132677394Y-85021757D01*
X132657967Y-85219000D01*
X132657967Y-85981000D01*
X132677394Y-86178243D01*
X132734927Y-86367906D01*
X132828357Y-86542700D01*
X132954092Y-86695908D01*
X133107300Y-86821643D01*
X133282094Y-86915073D01*
X133471757Y-86972606D01*
X133669000Y-86992033D01*
X134431000Y-86992033D01*
X134628243Y-86972606D01*
X134817906Y-86915073D01*
X134992700Y-86821643D01*
X135145908Y-86695908D01*
X135271643Y-86542700D01*
X135365073Y-86367906D01*
X135422606Y-86178243D01*
X135442033Y-85981000D01*
X135442033Y-85219000D01*
X135422606Y-85021757D01*
X135365073Y-84832094D01*
X135271643Y-84657300D01*
X135145908Y-84504092D01*
X135021509Y-84402000D01*
X147078491Y-84402000D01*
X146954092Y-84504092D01*
X146828357Y-84657300D01*
X146734927Y-84832094D01*
X146677394Y-85021757D01*
X146657967Y-85219000D01*
X146657967Y-85981000D01*
X146677394Y-86178243D01*
X146734927Y-86367906D01*
X146828357Y-86542700D01*
X146954092Y-86695908D01*
X147107300Y-86821643D01*
X147282094Y-86915073D01*
X147425165Y-86958473D01*
X147241914Y-87056423D01*
X147116000Y-87346395D01*
X148250000Y-88480395D01*
X149384000Y-87346395D01*
X149258086Y-87056423D01*
X148925874Y-86890567D01*
X148884765Y-86879336D01*
X148992700Y-86821643D01*
X149145908Y-86695908D01*
X149271643Y-86542700D01*
X149365073Y-86367906D01*
X149422606Y-86178243D01*
X149442033Y-85981000D01*
X149442033Y-85219000D01*
X149422606Y-85021757D01*
X149365073Y-84832094D01*
X149271643Y-84657300D01*
X149145908Y-84504092D01*
X149021509Y-84402000D01*
X166025800Y-84402000D01*
X185052496Y-84446701D01*
X185010824Y-94948000D01*
X182832022Y-94948000D01*
X182800000Y-94944846D01*
X182767978Y-94948000D01*
X182672186Y-94957435D01*
X182549283Y-94994717D01*
X182436016Y-95055259D01*
X182336736Y-95136736D01*
X182255259Y-95236016D01*
X182194717Y-95349283D01*
X182157435Y-95472186D01*
X182144846Y-95600000D01*
X182148000Y-95632022D01*
X182148001Y-97127968D01*
X182144846Y-97160000D01*
X182157435Y-97287814D01*
X182194717Y-97410717D01*
X182255259Y-97523984D01*
X182336736Y-97623264D01*
X182436016Y-97704741D01*
X182549283Y-97765283D01*
X182672186Y-97802565D01*
X182767978Y-97812000D01*
X182800000Y-97815154D01*
X182832022Y-97812000D01*
X184999459Y-97812000D01*
X184948504Y-110652702D01*
X183387638Y-110649035D01*
X183381028Y-110627680D01*
X183358120Y-110573183D01*
X183335992Y-110518415D01*
X183331722Y-110510385D01*
X183331718Y-110510375D01*
X183331713Y-110510367D01*
X183142597Y-110160604D01*
X183109546Y-110111604D01*
X183077194Y-110062164D01*
X183071441Y-110055110D01*
X182817984Y-109748733D01*
X182776042Y-109707083D01*
X182734706Y-109664872D01*
X182727692Y-109659069D01*
X182419553Y-109407757D01*
X182370308Y-109375039D01*
X182321572Y-109341669D01*
X182313565Y-109337339D01*
X181962481Y-109150665D01*
X181907820Y-109128135D01*
X181853531Y-109104867D01*
X181844841Y-109102177D01*
X181844834Y-109102174D01*
X181844827Y-109102173D01*
X181464179Y-108987248D01*
X181406162Y-108975760D01*
X181348408Y-108963484D01*
X181339364Y-108962533D01*
X181339354Y-108962531D01*
X181339345Y-108962531D01*
X180943625Y-108923730D01*
X180943618Y-108923730D01*
X180912022Y-108920618D01*
X174643360Y-108920618D01*
X174614707Y-108923440D01*
X174602067Y-108923352D01*
X174593007Y-108924240D01*
X174197557Y-108965803D01*
X174139632Y-108977693D01*
X174081622Y-108988759D01*
X174072915Y-108991388D01*
X174072908Y-108991389D01*
X174072902Y-108991392D01*
X173693062Y-109108972D01*
X173638565Y-109131880D01*
X173583797Y-109154008D01*
X173575767Y-109158278D01*
X173575757Y-109158282D01*
X173575749Y-109158287D01*
X173225986Y-109347403D01*
X173176986Y-109380454D01*
X173127546Y-109412806D01*
X173120492Y-109418559D01*
X172814115Y-109672016D01*
X172772465Y-109713958D01*
X172730254Y-109755294D01*
X172724451Y-109762308D01*
X172473139Y-110070447D01*
X172440421Y-110119692D01*
X172407051Y-110168428D01*
X172402721Y-110176435D01*
X172216047Y-110527519D01*
X172193517Y-110582180D01*
X172176153Y-110622695D01*
X133212664Y-110531155D01*
X134201786Y-109542033D01*
X134431000Y-109542033D01*
X134628243Y-109522606D01*
X134817906Y-109465073D01*
X134992700Y-109371643D01*
X135145908Y-109245908D01*
X135271643Y-109092700D01*
X135365073Y-108917906D01*
X135422606Y-108728243D01*
X135442033Y-108531000D01*
X135442033Y-107769000D01*
X135957967Y-107769000D01*
X135957967Y-108531000D01*
X135977394Y-108728243D01*
X136034927Y-108917906D01*
X136128357Y-109092700D01*
X136254092Y-109245908D01*
X136407300Y-109371643D01*
X136582094Y-109465073D01*
X136771757Y-109522606D01*
X136969000Y-109542033D01*
X137731000Y-109542033D01*
X137928243Y-109522606D01*
X138117906Y-109465073D01*
X138292700Y-109371643D01*
X138445908Y-109245908D01*
X138571643Y-109092700D01*
X138665073Y-108917906D01*
X138722606Y-108728243D01*
X138742033Y-108531000D01*
X138742033Y-107819000D01*
X143307967Y-107819000D01*
X143307967Y-108581000D01*
X143327394Y-108778243D01*
X143384927Y-108967906D01*
X143478357Y-109142700D01*
X143604092Y-109295908D01*
X143757300Y-109421643D01*
X143932094Y-109515073D01*
X144121757Y-109572606D01*
X144319000Y-109592033D01*
X145081000Y-109592033D01*
X145278243Y-109572606D01*
X145467906Y-109515073D01*
X145642700Y-109421643D01*
X145795908Y-109295908D01*
X145921643Y-109142700D01*
X146015073Y-108967906D01*
X146072606Y-108778243D01*
X146092033Y-108581000D01*
X146092033Y-107819000D01*
X146657967Y-107819000D01*
X146657967Y-108581000D01*
X146677394Y-108778243D01*
X146734927Y-108967906D01*
X146828357Y-109142700D01*
X146954092Y-109295908D01*
X147107300Y-109421643D01*
X147282094Y-109515073D01*
X147471757Y-109572606D01*
X147669000Y-109592033D01*
X148431000Y-109592033D01*
X148628243Y-109572606D01*
X148817906Y-109515073D01*
X148992700Y-109421643D01*
X149145908Y-109295908D01*
X149271643Y-109142700D01*
X149365073Y-108967906D01*
X149422606Y-108778243D01*
X149442033Y-108581000D01*
X149442033Y-107819000D01*
X149422606Y-107621757D01*
X149365073Y-107432094D01*
X149271643Y-107257300D01*
X149145908Y-107104092D01*
X148992700Y-106978357D01*
X148817906Y-106884927D01*
X148628243Y-106827394D01*
X148431000Y-106807967D01*
X147669000Y-106807967D01*
X147471757Y-106827394D01*
X147282094Y-106884927D01*
X147107300Y-106978357D01*
X146954092Y-107104092D01*
X146828357Y-107257300D01*
X146734927Y-107432094D01*
X146677394Y-107621757D01*
X146657967Y-107819000D01*
X146092033Y-107819000D01*
X146072606Y-107621757D01*
X146015073Y-107432094D01*
X145921643Y-107257300D01*
X145795908Y-107104092D01*
X145642700Y-106978357D01*
X145467906Y-106884927D01*
X145278243Y-106827394D01*
X145081000Y-106807967D01*
X144319000Y-106807967D01*
X144121757Y-106827394D01*
X143932094Y-106884927D01*
X143757300Y-106978357D01*
X143604092Y-107104092D01*
X143478357Y-107257300D01*
X143384927Y-107432094D01*
X143327394Y-107621757D01*
X143307967Y-107819000D01*
X138742033Y-107819000D01*
X138742033Y-107769000D01*
X138722606Y-107571757D01*
X138665073Y-107382094D01*
X138571643Y-107207300D01*
X138445908Y-107054092D01*
X138292700Y-106928357D01*
X138117906Y-106834927D01*
X137928243Y-106777394D01*
X137731000Y-106757967D01*
X136969000Y-106757967D01*
X136771757Y-106777394D01*
X136582094Y-106834927D01*
X136407300Y-106928357D01*
X136254092Y-107054092D01*
X136128357Y-107207300D01*
X136034927Y-107382094D01*
X135977394Y-107571757D01*
X135957967Y-107769000D01*
X135442033Y-107769000D01*
X135422606Y-107571757D01*
X135365073Y-107382094D01*
X135271643Y-107207300D01*
X135145908Y-107054092D01*
X134992700Y-106928357D01*
X134817906Y-106834927D01*
X134628243Y-106777394D01*
X134431000Y-106757967D01*
X133669000Y-106757967D01*
X133471757Y-106777394D01*
X133282094Y-106834927D01*
X133107300Y-106928357D01*
X132954092Y-107054092D01*
X132828357Y-107207300D01*
X132734927Y-107382094D01*
X132677394Y-107571757D01*
X132657967Y-107769000D01*
X132657967Y-107898214D01*
X130803181Y-109753001D01*
X125615521Y-109753001D01*
X125626972Y-106867238D01*
X126600838Y-107841104D01*
X126612467Y-107899565D01*
X126689885Y-108086467D01*
X126802277Y-108254674D01*
X126945326Y-108397723D01*
X127113533Y-108510115D01*
X127300435Y-108587533D01*
X127498849Y-108627000D01*
X127701151Y-108627000D01*
X127899565Y-108587533D01*
X128086467Y-108510115D01*
X128254674Y-108397723D01*
X128397723Y-108254674D01*
X128510115Y-108086467D01*
X128587533Y-107899565D01*
X128627000Y-107701151D01*
X128627000Y-107498849D01*
X128587533Y-107300435D01*
X128510115Y-107113533D01*
X128397723Y-106945326D01*
X128254674Y-106802277D01*
X128086467Y-106689885D01*
X127899565Y-106612467D01*
X127841104Y-106600838D01*
X126219115Y-104978849D01*
X129253000Y-104978849D01*
X129253000Y-105181151D01*
X129292467Y-105379565D01*
X129369885Y-105566467D01*
X129482277Y-105734674D01*
X129625326Y-105877723D01*
X129793533Y-105990115D01*
X129980435Y-106067533D01*
X130178849Y-106107000D01*
X130381151Y-106107000D01*
X130579565Y-106067533D01*
X130766467Y-105990115D01*
X130934674Y-105877723D01*
X131077723Y-105734674D01*
X131190115Y-105566467D01*
X131267533Y-105379565D01*
X131307000Y-105181151D01*
X131307000Y-104978849D01*
X131267533Y-104780435D01*
X131190115Y-104593533D01*
X131077723Y-104425326D01*
X130951246Y-104298849D01*
X148973000Y-104298849D01*
X148973000Y-104501151D01*
X149012467Y-104699565D01*
X149089885Y-104886467D01*
X149202277Y-105054674D01*
X149345326Y-105197723D01*
X149513533Y-105310115D01*
X149700435Y-105387533D01*
X149898849Y-105427000D01*
X150101151Y-105427000D01*
X150299565Y-105387533D01*
X150486467Y-105310115D01*
X150536027Y-105277000D01*
X158463973Y-105277000D01*
X158513533Y-105310115D01*
X158700435Y-105387533D01*
X158898849Y-105427000D01*
X159101151Y-105427000D01*
X159299565Y-105387533D01*
X159486467Y-105310115D01*
X159654674Y-105197723D01*
X159797723Y-105054674D01*
X159910115Y-104886467D01*
X159987533Y-104699565D01*
X160027000Y-104501151D01*
X160027000Y-104298849D01*
X160010348Y-104215132D01*
X160183000Y-104215132D01*
X160183000Y-104584868D01*
X160255132Y-104947501D01*
X160396624Y-105289093D01*
X160602039Y-105596518D01*
X160863482Y-105857961D01*
X161170907Y-106063376D01*
X161512499Y-106204868D01*
X161875132Y-106277000D01*
X162244868Y-106277000D01*
X162607501Y-106204868D01*
X162949093Y-106063376D01*
X163256518Y-105857961D01*
X163517961Y-105596518D01*
X163723376Y-105289093D01*
X163728385Y-105277000D01*
X164063973Y-105277000D01*
X164113533Y-105310115D01*
X164300435Y-105387533D01*
X164498849Y-105427000D01*
X164701151Y-105427000D01*
X164899565Y-105387533D01*
X165086467Y-105310115D01*
X165254674Y-105197723D01*
X165397723Y-105054674D01*
X165510115Y-104886467D01*
X165587533Y-104699565D01*
X165627000Y-104501151D01*
X165627000Y-104298849D01*
X165587533Y-104100435D01*
X165510115Y-103913533D01*
X165397723Y-103745326D01*
X165254674Y-103602277D01*
X165086467Y-103489885D01*
X164899565Y-103412467D01*
X164701151Y-103373000D01*
X164498849Y-103373000D01*
X164300435Y-103412467D01*
X164113533Y-103489885D01*
X164063973Y-103523000D01*
X163728385Y-103523000D01*
X163723376Y-103510907D01*
X163517961Y-103203482D01*
X163256518Y-102942039D01*
X162949093Y-102736624D01*
X162607501Y-102595132D01*
X162244868Y-102523000D01*
X161875132Y-102523000D01*
X161512499Y-102595132D01*
X161170907Y-102736624D01*
X160863482Y-102942039D01*
X160602039Y-103203482D01*
X160396624Y-103510907D01*
X160255132Y-103852499D01*
X160183000Y-104215132D01*
X160010348Y-104215132D01*
X159987533Y-104100435D01*
X159910115Y-103913533D01*
X159797723Y-103745326D01*
X159654674Y-103602277D01*
X159486467Y-103489885D01*
X159299565Y-103412467D01*
X159101151Y-103373000D01*
X158898849Y-103373000D01*
X158700435Y-103412467D01*
X158513533Y-103489885D01*
X158463973Y-103523000D01*
X150536027Y-103523000D01*
X150486467Y-103489885D01*
X150299565Y-103412467D01*
X150101151Y-103373000D01*
X149898849Y-103373000D01*
X149700435Y-103412467D01*
X149513533Y-103489885D01*
X149345326Y-103602277D01*
X149202277Y-103745326D01*
X149089885Y-103913533D01*
X149012467Y-104100435D01*
X148973000Y-104298849D01*
X130951246Y-104298849D01*
X130934674Y-104282277D01*
X130766467Y-104169885D01*
X130579565Y-104092467D01*
X130381151Y-104053000D01*
X130178849Y-104053000D01*
X129980435Y-104092467D01*
X129793533Y-104169885D01*
X129625326Y-104282277D01*
X129482277Y-104425326D01*
X129369885Y-104593533D01*
X129292467Y-104780435D01*
X129253000Y-104978849D01*
X126219115Y-104978849D01*
X126125265Y-104885000D01*
X130953265Y-100057000D01*
X135623000Y-100057000D01*
X135623000Y-100081452D01*
X135654782Y-100241227D01*
X135717123Y-100391731D01*
X135807628Y-100527181D01*
X135922819Y-100642372D01*
X136058269Y-100732877D01*
X136208773Y-100795218D01*
X136368548Y-100827000D01*
X136531452Y-100827000D01*
X136691227Y-100795218D01*
X136841731Y-100732877D01*
X136977181Y-100642372D01*
X137000000Y-100619553D01*
X137022819Y-100642372D01*
X137158269Y-100732877D01*
X137308773Y-100795218D01*
X137468548Y-100827000D01*
X137631452Y-100827000D01*
X137791227Y-100795218D01*
X137941731Y-100732877D01*
X138077181Y-100642372D01*
X138192372Y-100527181D01*
X138282877Y-100391731D01*
X138345218Y-100241227D01*
X138377000Y-100081452D01*
X138377000Y-100057000D01*
X139253973Y-100057000D01*
X139303533Y-100090115D01*
X139490435Y-100167533D01*
X139688849Y-100207000D01*
X139891151Y-100207000D01*
X140089565Y-100167533D01*
X140276467Y-100090115D01*
X140326027Y-100057000D01*
X145976921Y-100057000D01*
X146020000Y-100061243D01*
X146063079Y-100057000D01*
X146141157Y-100049310D01*
X146191922Y-100044310D01*
X146191925Y-100044309D01*
X146357237Y-99994162D01*
X146509592Y-99912727D01*
X146643133Y-99803133D01*
X146670597Y-99769668D01*
X146925133Y-99515132D01*
X152043000Y-99515132D01*
X152043000Y-99884868D01*
X152115132Y-100247501D01*
X152256624Y-100589093D01*
X152462039Y-100896518D01*
X152723482Y-101157961D01*
X153030907Y-101363376D01*
X153372499Y-101504868D01*
X153735132Y-101577000D01*
X154104868Y-101577000D01*
X154467501Y-101504868D01*
X154809093Y-101363376D01*
X155116518Y-101157961D01*
X155377961Y-100896518D01*
X155583376Y-100589093D01*
X155724868Y-100247501D01*
X155797000Y-99884868D01*
X155797000Y-99515132D01*
X155724868Y-99152499D01*
X155583376Y-98810907D01*
X155377961Y-98503482D01*
X155116518Y-98242039D01*
X154830328Y-98050813D01*
X154878118Y-97961404D01*
X154921119Y-97819652D01*
X154932000Y-97709172D01*
X154932000Y-97709170D01*
X154935638Y-97672234D01*
X154932000Y-97635299D01*
X154932000Y-97500397D01*
X154977723Y-97454674D01*
X155090115Y-97286467D01*
X155167533Y-97099565D01*
X155207000Y-96901151D01*
X155207000Y-96698849D01*
X155167533Y-96500435D01*
X155090115Y-96313533D01*
X154977723Y-96145326D01*
X154834674Y-96002277D01*
X154666467Y-95889885D01*
X154479565Y-95812467D01*
X154281151Y-95773000D01*
X154078849Y-95773000D01*
X153880435Y-95812467D01*
X153693533Y-95889885D01*
X153525326Y-96002277D01*
X153382277Y-96145326D01*
X153269885Y-96313533D01*
X153192467Y-96500435D01*
X153153000Y-96698849D01*
X153153000Y-96901151D01*
X153192467Y-97099565D01*
X153269885Y-97286467D01*
X153362902Y-97425677D01*
X153362138Y-97426608D01*
X153362137Y-97426609D01*
X153291710Y-97512424D01*
X153221882Y-97643065D01*
X153213034Y-97672234D01*
X153184808Y-97765283D01*
X153178882Y-97784817D01*
X153164362Y-97932234D01*
X153168001Y-97969179D01*
X153168001Y-97979838D01*
X153030907Y-98036624D01*
X152723482Y-98242039D01*
X152462039Y-98503482D01*
X152256624Y-98810907D01*
X152115132Y-99152499D01*
X152043000Y-99515132D01*
X146925133Y-99515132D01*
X147641103Y-98799162D01*
X147699565Y-98787533D01*
X147886467Y-98710115D01*
X148054674Y-98597723D01*
X148197723Y-98454674D01*
X148310115Y-98286467D01*
X148387533Y-98099565D01*
X148427000Y-97901151D01*
X148427000Y-97698849D01*
X148387533Y-97500435D01*
X148310115Y-97313533D01*
X148257742Y-97235151D01*
X148366467Y-97190115D01*
X148534674Y-97077723D01*
X148677723Y-96934674D01*
X148790115Y-96766467D01*
X148867533Y-96579565D01*
X148907000Y-96381151D01*
X148907000Y-96227000D01*
X149101151Y-96227000D01*
X149299565Y-96187533D01*
X149486467Y-96110115D01*
X149654674Y-95997723D01*
X149797723Y-95854674D01*
X149910115Y-95686467D01*
X149987533Y-95499565D01*
X150027000Y-95301151D01*
X150027000Y-95098849D01*
X149987533Y-94900435D01*
X149910115Y-94713533D01*
X149797723Y-94545326D01*
X149654674Y-94402277D01*
X149486467Y-94289885D01*
X149299565Y-94212467D01*
X149241103Y-94200838D01*
X148010597Y-92970332D01*
X147983133Y-92936867D01*
X147849592Y-92827273D01*
X147697237Y-92745838D01*
X147531922Y-92695690D01*
X147403079Y-92683000D01*
X147360000Y-92678757D01*
X147316921Y-92683000D01*
X145526027Y-92683000D01*
X145476467Y-92649885D01*
X145289565Y-92572467D01*
X145091151Y-92533000D01*
X144888849Y-92533000D01*
X144690435Y-92572467D01*
X144503533Y-92649885D01*
X144335326Y-92762277D01*
X144192277Y-92905326D01*
X144079885Y-93073533D01*
X144002467Y-93260435D01*
X143963000Y-93458849D01*
X143963000Y-93661151D01*
X144002467Y-93859565D01*
X144079885Y-94046467D01*
X144192277Y-94214674D01*
X144335326Y-94357723D01*
X144503533Y-94470115D01*
X144690435Y-94547533D01*
X144888849Y-94587000D01*
X145091151Y-94587000D01*
X145289565Y-94547533D01*
X145476467Y-94470115D01*
X145526027Y-94437000D01*
X146996735Y-94437000D01*
X147812735Y-95253000D01*
X147778849Y-95253000D01*
X147580435Y-95292467D01*
X147393533Y-95369885D01*
X147343973Y-95403000D01*
X142626027Y-95403000D01*
X142576467Y-95369885D01*
X142389565Y-95292467D01*
X142191151Y-95253000D01*
X141988849Y-95253000D01*
X141790435Y-95292467D01*
X141603533Y-95369885D01*
X141435326Y-95482277D01*
X141292277Y-95625326D01*
X141179885Y-95793533D01*
X141102467Y-95980435D01*
X141063000Y-96178849D01*
X141063000Y-96381151D01*
X141102467Y-96579565D01*
X141179885Y-96766467D01*
X141271113Y-96903000D01*
X136543265Y-96903000D01*
X133599162Y-93958897D01*
X133587533Y-93900435D01*
X133510115Y-93713533D01*
X133397723Y-93545326D01*
X133254674Y-93402277D01*
X133086467Y-93289885D01*
X132899565Y-93212467D01*
X132701151Y-93173000D01*
X132498849Y-93173000D01*
X132300435Y-93212467D01*
X132113533Y-93289885D01*
X131945326Y-93402277D01*
X131802277Y-93545326D01*
X131689885Y-93713533D01*
X131612467Y-93900435D01*
X131573000Y-94098849D01*
X131573000Y-94301151D01*
X131612467Y-94499565D01*
X131689885Y-94686467D01*
X131802277Y-94854674D01*
X131945326Y-94997723D01*
X132113533Y-95110115D01*
X132300435Y-95187533D01*
X132358897Y-95199162D01*
X135439735Y-98280000D01*
X135416736Y-98303000D01*
X130633079Y-98303000D01*
X130589999Y-98298757D01*
X130418078Y-98315690D01*
X130252763Y-98365838D01*
X130100408Y-98447273D01*
X129966867Y-98556867D01*
X129939406Y-98590329D01*
X125642767Y-102886968D01*
X125694010Y-89973605D01*
X147116000Y-89973605D01*
X147241914Y-90263577D01*
X147574126Y-90429433D01*
X147932312Y-90527290D01*
X148302706Y-90553389D01*
X148671075Y-90506725D01*
X149023262Y-90389094D01*
X149258086Y-90263577D01*
X149384000Y-89973605D01*
X148250000Y-88839605D01*
X147116000Y-89973605D01*
X125694010Y-89973605D01*
X125699014Y-88712706D01*
X146356611Y-88712706D01*
X146403275Y-89081075D01*
X146520906Y-89433262D01*
X146646423Y-89668086D01*
X146936395Y-89794000D01*
X148070395Y-88660000D01*
X148429605Y-88660000D01*
X149563605Y-89794000D01*
X149853577Y-89668086D01*
X150019433Y-89335874D01*
X150117290Y-88977688D01*
X150143389Y-88607294D01*
X150096725Y-88238925D01*
X149979094Y-87886738D01*
X149853577Y-87651914D01*
X149563605Y-87526000D01*
X148429605Y-88660000D01*
X148070395Y-88660000D01*
X146936395Y-87526000D01*
X146646423Y-87651914D01*
X146480567Y-87984126D01*
X146382710Y-88342312D01*
X146356611Y-88712706D01*
X125699014Y-88712706D01*
X125716120Y-84402000D01*
X133078491Y-84402000D01*
X132954092Y-84504092D01*
M02*
