G04 #@! TF.GenerationSoftware,KiCad,Pcbnew,(5.1.5)-3*
G04 #@! TF.CreationDate,2020-07-28T19:33:27-07:00*
G04 #@! TF.ProjectId,Main Board,4d61696e-2042-46f6-9172-642e6b696361,rev?*
G04 #@! TF.SameCoordinates,Original*
G04 #@! TF.FileFunction,Profile,NP*
%FSLAX46Y46*%
G04 Gerber Fmt 4.6, Leading zero omitted, Abs format (unit mm)*
G04 Created by KiCad (PCBNEW (5.1.5)-3) date 2020-07-28 19:33:27*
%MOMM*%
%LPD*%
G04 APERTURE LIST*
%ADD10C,0.050000*%
G04 APERTURE END LIST*
D10*
X185780000Y-83750000D02*
X185780000Y-95600000D01*
X185780000Y-97160000D02*
X185780000Y-108030000D01*
X185780000Y-108030000D02*
X185780000Y-111610000D01*
X182917382Y-111610000D02*
X183897382Y-111610000D01*
X183897382Y-111610000D02*
X185780000Y-111610000D01*
X122377382Y-83750000D02*
X185780000Y-83750000D01*
X116107382Y-85787382D02*
X120340000Y-85787382D01*
X122377382Y-83750000D02*
G75*
G02X120340000Y-85787382I-2037382J0D01*
G01*
X107120000Y-83750000D02*
X114070000Y-83750000D01*
X116107382Y-85787382D02*
G75*
G02X114070000Y-83750000I0J2037382D01*
G01*
X172638000Y-111610000D02*
X163718000Y-111610000D01*
X180880000Y-109572618D02*
G75*
G02X182917382Y-111610000I0J-2037382D01*
G01*
X174675382Y-109572618D02*
X180880000Y-109572618D01*
X172638000Y-111610000D02*
G75*
G02X174675382Y-109572618I2037382J0D01*
G01*
X158190000Y-111610000D02*
X163718000Y-111610000D01*
X128158000Y-111630000D02*
X107120000Y-111630000D01*
X158190000Y-112830000D02*
X158190000Y-111610000D01*
X128158000Y-111630000D02*
X128158000Y-112830000D01*
X134090000Y-111620000D02*
X134090000Y-112830000D01*
X152250000Y-111620000D02*
X134090000Y-111620000D01*
X152250000Y-112830000D02*
X152250000Y-111620000D01*
X128158000Y-112830000D02*
X134090000Y-112830000D01*
X152250000Y-112830000D02*
X158190000Y-112830000D01*
X107120000Y-111630000D02*
X107120000Y-111280000D01*
X107120000Y-83750000D02*
X107120000Y-111280000D01*
X182800000Y-97160000D02*
X185780000Y-97160000D01*
X182800000Y-95600000D02*
X182800000Y-97160000D01*
X185780000Y-95600000D02*
X182800000Y-95600000D01*
M02*
